<svg width="1437" height="756" viewBox="0 0 1437 756" fill="none" xmlns="http://www.w3.org/2000/svg">
<mask id="mask0" style="mask-type:alpha" maskUnits="userSpaceOnUse" x="0" y="0" width="1437" height="798">
<rect width="1437" height="798" fill="#C4C4C4"/>
</mask>
<g mask="url(#mask0)">
<path d="M236.979 -1160.54C236.979 -1174.72 243.797 -1188.04 255.304 -1196.34L331.667 -1251.39C347.081 -1262.5 367.876 -1262.5 383.29 -1251.39L459.653 -1196.34C471.16 -1188.04 477.979 -1174.72 477.979 -1160.54V73.7338C477.979 88.0405 471.044 101.46 459.374 109.736L383.011 163.892C367.717 174.739 347.24 174.739 331.946 163.892L255.583 109.736C243.913 101.46 236.979 88.0406 236.979 73.7339V-1160.54Z" fill="#0019A5"/>
<path d="M955.971 -1254.48C955.971 -1268.66 962.784 -1281.98 974.284 -1290.28L1050.65 -1345.37C1066.07 -1356.49 1086.88 -1356.49 1102.29 -1345.37L1178.66 -1290.28C1190.16 -1281.98 1196.97 -1268.66 1196.97 -1254.48V-19.4331C1196.97 -5.04102 1189.95 8.44714 1178.17 16.7084L1101.81 70.2395C1086.6 80.9005 1066.34 80.9005 1051.14 70.2395L974.772 16.7084C962.988 8.44714 955.971 -5.04102 955.971 -19.433V-1254.48Z" fill="#0019A5"/>
<path d="M-3 -763.015C-3 -777.557 4.16315 -791.166 16.1507 -799.398L92.5135 -851.84C107.567 -862.179 127.433 -862.179 142.486 -851.84L218.849 -799.398C230.837 -791.166 238 -777.557 238 -763.015V408.952C238 423.807 230.527 437.666 218.115 445.829L141.753 496.05C127.033 505.73 107.967 505.73 93.2474 496.05L16.8846 445.829C4.47288 437.666 -3 423.807 -3 408.952V-763.015Z" fill="#0019A5"/>
<path d="M236.979 -662.536C236.979 -676.722 243.797 -690.043 255.304 -698.339L331.667 -753.392C347.081 -764.504 367.876 -764.504 383.29 -753.392L459.653 -698.339C471.16 -690.043 477.979 -676.722 477.979 -662.536V571.734C477.979 586.041 471.044 599.46 459.374 607.736L383.011 661.892C367.717 672.739 347.24 672.739 331.946 661.892L255.583 607.736C243.913 599.46 236.979 586.041 236.979 571.734V-662.536Z" fill="#0019A5"/>
<path d="M475.971 -695.714C475.971 -710.365 483.241 -724.062 495.377 -732.271L572.239 -784.269C587.178 -794.375 606.763 -794.375 621.702 -784.269L698.565 -732.271C710.7 -724.062 717.971 -710.365 717.971 -695.714V464.951C717.971 478.632 711.627 491.539 700.795 499.896L623.932 559.198C608.047 571.454 585.894 571.454 570.009 559.198L493.147 499.896C482.315 491.539 475.971 478.632 475.971 464.951V-695.714Z" fill="#0019A5"/>
<path d="M715.973 -676.425C715.973 -691.815 723.989 -706.094 737.128 -714.107L813.991 -760.984C828.103 -769.591 845.842 -769.591 859.954 -760.984L936.817 -714.107C949.956 -706.094 957.973 -691.815 957.973 -676.425V361.463C957.973 376.631 950.184 390.736 937.348 398.816L860.485 447.199C846.115 456.245 827.83 456.245 813.46 447.199L736.597 398.816C723.761 390.736 715.973 376.631 715.973 361.463V-676.425Z" fill="#0019A5"/>
<path d="M955.971 -846.483C955.971 -860.664 962.784 -873.98 974.284 -882.277L1050.65 -937.369C1066.07 -948.493 1086.88 -948.493 1102.29 -937.369L1178.66 -882.277C1190.16 -873.98 1196.97 -860.664 1196.97 -846.483V388.567C1196.97 402.959 1189.95 416.447 1178.17 424.708L1101.81 478.24C1086.6 488.901 1066.34 488.901 1051.14 478.24L974.772 424.708C962.988 416.447 955.971 402.959 955.971 388.567V-846.483Z" fill="#0019A5"/>
<path d="M1224.21 -214.713C1236.62 -221.83 1251.72 -222.487 1264.7 -216.476L1531.88 -92.8034C1548.8 -84.9707 1558.98 -67.3492 1557.3 -48.7785L1530.82 244.367C1529.53 258.66 1521.37 271.433 1508.94 278.613L1035.77 552.018C1023.15 559.309 1007.75 559.902 994.608 553.603L729.491 426.523C714.177 419.182 704.432 403.705 704.432 386.722L704.433 108.838C704.433 93.0214 712.896 78.4136 726.618 70.5471L1224.21 -214.713Z" fill="#0019A5"/>
<path d="M1195.97 -931.447C1195.97 -946.356 1203.5 -960.257 1215.98 -968.407L1292.35 -1018.25C1307.01 -1027.82 1325.94 -1027.82 1340.6 -1018.25L1416.96 -968.407C1429.44 -960.257 1436.97 -946.356 1436.97 -931.447V180.673C1436.97 194.873 1430.14 208.205 1418.61 216.499L1342.25 271.449C1326.85 282.531 1306.09 282.531 1290.69 271.449L1214.33 216.499C1202.8 208.206 1195.97 194.873 1195.97 180.673V-931.447Z" fill="#0019A5"/>
</g>
</svg>
