<svg width="1440" height="806" viewBox="0 0 1440 806" fill="none" xmlns="http://www.w3.org/2000/svg">
<mask id="mask0" style="mask-type:alpha" maskUnits="userSpaceOnUse" x="0" y="0" width="1440" height="806">
<rect width="1440" height="806" fill="black"/>
</mask>
<g mask="url(#mask0)">
<rect x="3416.37" y="-852" width="13.1336" height="3818.67" transform="rotate(60 3416.37 -852)" stroke="#1A55F5"/>
<rect x="3209.14" y="-852" width="13.1336" height="3818.67" transform="rotate(60 3209.14 -852)" stroke="#1A55F5"/>
<rect x="1446.31" y="-852" width="13.1336" height="3818.67" transform="rotate(60 1446.31 -852)" stroke="#1A55F5"/>
<rect x="3001.92" y="-852" width="13.1336" height="3818.67" transform="rotate(60 3001.92 -852)" stroke="#1A55F5"/>
<rect x="1239.09" y="-852" width="13.1336" height="3818.67" transform="rotate(60 1239.09 -852)" stroke="#1A55F5"/>
<rect x="4661.14" y="-852" width="13.1336" height="3818.67" transform="rotate(60 4661.14 -852)" stroke="#1A55F5"/>
<rect x="2794.7" y="-852" width="13.1336" height="3818.67" transform="rotate(60 2794.7 -852)" stroke="#1A55F5"/>
<rect x="1031.87" y="-852" width="13.1336" height="3818.67" transform="rotate(60 1031.87 -852)" stroke="#1A55F5"/>
<rect x="4453.92" y="-852" width="13.1336" height="3818.67" transform="rotate(60 4453.92 -852)" stroke="#1A55F5"/>
<rect x="2587.48" y="-852" width="13.1336" height="3818.67" transform="rotate(60 2587.48 -852)" stroke="#1A55F5"/>
<rect x="824.643" y="-852" width="13.1336" height="3818.67" transform="rotate(60 824.643 -852)" stroke="#1A55F5"/>
<rect x="4246.7" y="-852" width="13.1336" height="3818.67" transform="rotate(60 4246.7 -852)" stroke="#1A55F5"/>
<rect x="2380.25" y="-852" width="13.1336" height="3818.67" transform="rotate(60 2380.25 -852)" stroke="#1A55F5"/>
<rect x="617.42" y="-852" width="13.1336" height="3818.67" transform="rotate(60 617.42 -852)" stroke="#1A55F5"/>
<rect x="4039.48" y="-852" width="13.1336" height="3818.67" transform="rotate(60 4039.48 -852)" stroke="#1A55F5"/>
<rect x="2173.03" y="-852" width="13.1336" height="3818.67" transform="rotate(60 2173.03 -852)" stroke="#1A55F5"/>
<rect x="410.197" y="-852" width="13.1336" height="3818.67" transform="rotate(60 410.197 -852)" stroke="#1A55F5"/>
<rect x="3832.25" y="-852" width="13.1336" height="3818.67" transform="rotate(60 3832.25 -852)" stroke="#1A55F5"/>
<rect x="1965.81" y="-852" width="13.1336" height="3818.67" transform="rotate(60 1965.81 -852)" stroke="#1A55F5"/>
<rect x="202.975" y="-852" width="13.1336" height="3818.67" transform="rotate(60 202.975 -852)" stroke="#1A55F5"/>
<rect x="3625.03" y="-852" width="13.1336" height="3818.67" transform="rotate(60 3625.03 -852)" stroke="#1A55F5"/>
<rect x="1758.59" y="-852" width="13.1336" height="3818.67" transform="rotate(60 1758.59 -852)" stroke="#1A55F5"/>
<rect x="-4.24805" y="-852" width="13.1336" height="3818.67" transform="rotate(60 -4.24805 -852)" stroke="#1A55F5"/>
<rect x="3364.56" y="-852" width="13.1336" height="3818.67" transform="rotate(60 3364.56 -852)" stroke="#1A55F5"/>
<rect x="3157.34" y="-852" width="13.1336" height="3818.67" transform="rotate(60 3157.34 -852)" stroke="#1A55F5"/>
<rect x="1394.51" y="-852" width="13.1336" height="3818.67" transform="rotate(60 1394.51 -852)" stroke="#1A55F5"/>
<rect x="2950.12" y="-852" width="13.1336" height="3818.67" transform="rotate(60 2950.12 -852)" stroke="#1A55F5"/>
<rect x="1187.28" y="-852" width="13.1336" height="3818.67" transform="rotate(60 1187.28 -852)" stroke="#1A55F5"/>
<rect x="4609.34" y="-852" width="13.1336" height="3818.67" transform="rotate(60 4609.34 -852)" stroke="#1A55F5"/>
<rect x="2742.89" y="-852" width="13.1336" height="3818.67" transform="rotate(60 2742.89 -852)" stroke="#1A55F5"/>
<rect x="980.061" y="-852" width="13.1336" height="3818.67" transform="rotate(60 980.061 -852)" stroke="#1A55F5"/>
<rect x="4402.12" y="-852" width="13.1336" height="3818.67" transform="rotate(60 4402.12 -852)" stroke="#1A55F5"/>
<rect x="2535.67" y="-852" width="13.1336" height="3818.67" transform="rotate(60 2535.67 -852)" stroke="#1A55F5"/>
<rect x="772.838" y="-852" width="13.1336" height="3818.67" transform="rotate(60 772.838 -852)" stroke="#1A55F5"/>
<rect x="4194.89" y="-852" width="13.1336" height="3818.67" transform="rotate(60 4194.89 -852)" stroke="#1A55F5"/>
<rect x="2328.45" y="-852" width="13.1336" height="3818.67" transform="rotate(60 2328.45 -852)" stroke="#1A55F5"/>
<rect x="565.615" y="-852" width="13.1336" height="3818.67" transform="rotate(60 565.615 -852)" stroke="#1A55F5"/>
<rect x="3987.67" y="-852" width="13.1336" height="3818.67" transform="rotate(60 3987.67 -852)" stroke="#1A55F5"/>
<rect x="2121.22" y="-852" width="13.1336" height="3818.67" transform="rotate(60 2121.22 -852)" stroke="#1A55F5"/>
<rect x="358.391" y="-852" width="13.1336" height="3818.67" transform="rotate(60 358.391 -852)" stroke="#1A55F5"/>
<rect x="3780.45" y="-852" width="13.1336" height="3818.67" transform="rotate(60 3780.45 -852)" stroke="#1A55F5"/>
<rect x="1914" y="-852" width="13.1336" height="3818.67" transform="rotate(60 1914 -852)" stroke="#1A55F5"/>
<rect x="151.168" y="-852" width="13.1336" height="3818.67" transform="rotate(60 151.168 -852)" stroke="#1A55F5"/>
<rect x="3573.22" y="-852" width="13.1336" height="3818.67" transform="rotate(60 3573.22 -852)" stroke="#1A55F5"/>
<rect x="1706.78" y="-852" width="13.1336" height="3818.67" transform="rotate(60 1706.78 -852)" stroke="#1A55F5"/>
<rect x="3312.76" y="-852" width="13.1336" height="3818.67" transform="rotate(60 3312.76 -852)" stroke="#1A55F5"/>
<rect x="1549.92" y="-852" width="13.1336" height="3818.67" transform="rotate(60 1549.92 -852)" stroke="#1A55F5"/>
<rect x="3105.53" y="-852" width="13.1336" height="3818.67" transform="rotate(60 3105.53 -852)" stroke="#1A55F5"/>
<rect x="1342.7" y="-852" width="13.1336" height="3818.67" transform="rotate(60 1342.7 -852)" stroke="#1A55F5"/>
<rect x="2898.31" y="-852" width="13.1336" height="3818.67" transform="rotate(60 2898.31 -852)" stroke="#1A55F5"/>
<rect x="1135.48" y="-852" width="13.1336" height="3818.67" transform="rotate(60 1135.48 -852)" stroke="#1A55F5"/>
<rect x="4557.53" y="-852" width="13.1336" height="3818.67" transform="rotate(60 4557.53 -852)" stroke="#1A55F5"/>
<rect x="2691.09" y="-852" width="13.1336" height="3818.67" transform="rotate(60 2691.09 -852)" stroke="#1A55F5"/>
<rect x="928.254" y="-852" width="13.1336" height="3818.67" transform="rotate(60 928.254 -852)" stroke="#1A55F5"/>
<rect x="4350.31" y="-852" width="13.1336" height="3818.67" transform="rotate(60 4350.31 -852)" stroke="#1A55F5"/>
<rect x="2483.87" y="-852" width="13.1336" height="3818.67" transform="rotate(60 2483.87 -852)" stroke="#1A55F5"/>
<rect x="721.031" y="-852" width="13.1336" height="3818.67" transform="rotate(60 721.031 -852)" stroke="#1A55F5"/>
<rect x="4143.09" y="-852" width="13.1336" height="3818.67" transform="rotate(60 4143.09 -852)" stroke="#1A55F5"/>
<rect x="2276.64" y="-852" width="13.1336" height="3818.67" transform="rotate(60 2276.64 -852)" stroke="#1A55F5"/>
<rect x="513.809" y="-852" width="13.1336" height="3818.67" transform="rotate(60 513.809 -852)" stroke="#1A55F5"/>
<rect x="3935.86" y="-852" width="13.1336" height="3818.67" transform="rotate(60 3935.86 -852)" stroke="#1A55F5"/>
<rect x="2069.42" y="-852" width="13.1336" height="3818.67" transform="rotate(60 2069.42 -852)" stroke="#1A55F5"/>
<rect x="306.586" y="-852" width="13.1336" height="3818.67" transform="rotate(60 306.586 -852)" stroke="#1A55F5"/>
<rect x="3728.64" y="-852" width="13.1336" height="3818.67" transform="rotate(60 3728.64 -852)" stroke="#1A55F5"/>
<rect x="1862.2" y="-852" width="13.1336" height="3818.67" transform="rotate(60 1862.2 -852)" stroke="#1A55F5"/>
<rect x="99.3633" y="-852" width="13.1336" height="3818.67" transform="rotate(60 99.3633 -852)" stroke="#1A55F5"/>
<rect x="3521.42" y="-852" width="13.1336" height="3818.67" transform="rotate(60 3521.42 -852)" stroke="#1A55F5"/>
<rect x="1654.97" y="-852" width="13.1336" height="3818.67" transform="rotate(60 1654.97 -852)" stroke="#1A55F5"/>
<rect x="3260.95" y="-852" width="13.1336" height="3818.67" transform="rotate(60 3260.95 -852)" stroke="#1A55F5"/>
<rect x="1498.12" y="-852" width="13.1336" height="3818.67" transform="rotate(60 1498.12 -852)" stroke="#1A55F5"/>
<rect x="3053.73" y="-852" width="13.1336" height="3818.67" transform="rotate(60 3053.73 -852)" stroke="#1A55F5"/>
<rect x="1290.89" y="-852" width="13.1336" height="3818.67" transform="rotate(60 1290.89 -852)" stroke="#1A55F5"/>
<rect x="4712.95" y="-852" width="13.1336" height="3818.67" transform="rotate(60 4712.95 -852)" stroke="#1A55F5"/>
<rect x="2846.51" y="-852" width="13.1336" height="3818.67" transform="rotate(60 2846.51 -852)" stroke="#1A55F5"/>
<rect x="1083.67" y="-852" width="13.1336" height="3818.67" transform="rotate(60 1083.67 -852)" stroke="#1A55F5"/>
<rect x="4505.73" y="-852" width="13.1336" height="3818.67" transform="rotate(60 4505.73 -852)" stroke="#1A55F5"/>
<rect x="2639.28" y="-852" width="13.1336" height="3818.67" transform="rotate(60 2639.28 -852)" stroke="#1A55F5"/>
<rect x="876.449" y="-852" width="13.1336" height="3818.67" transform="rotate(60 876.449 -852)" stroke="#1A55F5"/>
<rect x="4298.5" y="-852" width="13.1336" height="3818.67" transform="rotate(60 4298.5 -852)" stroke="#1A55F5"/>
<rect x="2432.06" y="-852" width="13.1336" height="3818.67" transform="rotate(60 2432.06 -852)" stroke="#1A55F5"/>
<rect x="669.227" y="-852" width="13.1336" height="3818.67" transform="rotate(60 669.227 -852)" stroke="#1A55F5"/>
<rect x="4091.28" y="-852" width="13.1336" height="3818.67" transform="rotate(60 4091.28 -852)" stroke="#1A55F5"/>
<rect x="2224.84" y="-852" width="13.1336" height="3818.67" transform="rotate(60 2224.84 -852)" stroke="#1A55F5"/>
<rect x="462.004" y="-852" width="13.1336" height="3818.67" transform="rotate(60 462.004 -852)" stroke="#1A55F5"/>
<rect x="3884.06" y="-852" width="13.1336" height="3818.67" transform="rotate(60 3884.06 -852)" stroke="#1A55F5"/>
<rect x="2017.61" y="-852" width="13.1336" height="3818.67" transform="rotate(60 2017.61 -852)" stroke="#1A55F5"/>
<rect x="254.781" y="-852" width="13.1336" height="3818.67" transform="rotate(60 254.781 -852)" stroke="#1A55F5"/>
<rect x="3676.84" y="-852" width="13.1336" height="3818.67" transform="rotate(60 3676.84 -852)" stroke="#1A55F5"/>
<rect x="1810.39" y="-852" width="13.1336" height="3818.67" transform="rotate(60 1810.39 -852)" stroke="#1A55F5"/>
<rect x="47.5566" y="-852" width="13.1336" height="3818.67" transform="rotate(60 47.5566 -852)" stroke="#1A55F5"/>
<rect x="3469.61" y="-852" width="13.1336" height="3818.67" transform="rotate(60 3469.61 -852)" stroke="#1A55F5"/>
<rect x="1603.17" y="-852" width="13.1336" height="3818.67" transform="rotate(60 1603.17 -852)" stroke="#1A55F5"/>
<rect width="13.1336" height="3818.67" transform="matrix(-0.5 0.866025 0.866025 0.5 -1593.72 -852)" stroke="#1A55F5"/>
<rect width="13.1336" height="3818.67" transform="matrix(-0.5 0.866025 0.866025 0.5 -3252.94 -852)" stroke="#1A55F5"/>
<rect width="13.1336" height="3818.67" transform="matrix(-0.5 0.866025 0.866025 0.5 -1386.49 -852)" stroke="#1A55F5"/>
<rect width="13.1336" height="3818.67" transform="matrix(-0.5 0.866025 0.866025 0.5 376.34 -852)" stroke="#1A55F5"/>
<rect width="13.1336" height="3818.67" transform="matrix(-0.5 0.866025 0.866025 0.5 -3045.71 -852)" stroke="#1A55F5"/>
<rect width="13.1336" height="3818.67" transform="matrix(-0.5 0.866025 0.866025 0.5 -1179.27 -852)" stroke="#1A55F5"/>
<rect width="13.1336" height="3818.67" transform="matrix(-0.5 0.866025 0.866025 0.5 583.562 -852)" stroke="#1A55F5"/>
<rect width="13.1336" height="3818.67" transform="matrix(-0.5 0.866025 0.866025 0.5 -2838.49 -852)" stroke="#1A55F5"/>
<rect width="13.1336" height="3818.67" transform="matrix(-0.5 0.866025 0.866025 0.5 -972.047 -852)" stroke="#1A55F5"/>
<rect width="13.1336" height="3818.67" transform="matrix(-0.5 0.866025 0.866025 0.5 790.785 -852)" stroke="#1A55F5"/>
<rect width="13.1336" height="3818.67" transform="matrix(-0.5 0.866025 0.866025 0.5 -2631.27 -852)" stroke="#1A55F5"/>
<rect width="13.1336" height="3818.67" transform="matrix(-0.5 0.866025 0.866025 0.5 -764.824 -852)" stroke="#1A55F5"/>
<rect width="13.1336" height="3818.67" transform="matrix(-0.5 0.866025 0.866025 0.5 998.008 -852)" stroke="#1A55F5"/>
<rect width="13.1336" height="3818.67" transform="matrix(-0.5 0.866025 0.866025 0.5 -2424.05 -852)" stroke="#1A55F5"/>
<rect width="13.1336" height="3818.67" transform="matrix(-0.5 0.866025 0.866025 0.5 -557.602 -852)" stroke="#1A55F5"/>
<rect width="13.1336" height="3818.67" transform="matrix(-0.5 0.866025 0.866025 0.5 1205.23 -852)" stroke="#1A55F5"/>
<rect width="13.1336" height="3818.67" transform="matrix(-0.5 0.866025 0.866025 0.5 -2216.82 -852)" stroke="#1A55F5"/>
<rect width="13.1336" height="3818.67" transform="matrix(-0.5 0.866025 0.866025 0.5 -350.379 -852)" stroke="#1A55F5"/>
<rect width="13.1336" height="3818.67" transform="matrix(-0.5 0.866025 0.866025 0.5 1412.46 -852)" stroke="#1A55F5"/>
<rect width="13.1336" height="3818.67" transform="matrix(-0.5 0.866025 0.866025 0.5 -2009.6 -852)" stroke="#1A55F5"/>
<rect width="13.1336" height="3818.67" transform="matrix(-0.5 0.866025 0.866025 0.5 -143.156 -852)" stroke="#1A55F5"/>
<rect width="13.1336" height="3818.67" transform="matrix(-0.5 0.866025 0.866025 0.5 -1802.38 -852)" stroke="#1A55F5"/>
<rect width="13.1336" height="3818.67" transform="matrix(-0.5 0.866025 0.866025 0.5 64.0664 -852)" stroke="#1A55F5"/>
<rect width="13.1336" height="3818.67" transform="matrix(-0.5 0.866025 0.866025 0.5 -1541.91 -852)" stroke="#1A55F5"/>
<rect width="13.1336" height="3818.67" transform="matrix(-0.5 0.866025 0.866025 0.5 -3201.13 -852)" stroke="#1A55F5"/>
<rect width="13.1336" height="3818.67" transform="matrix(-0.5 0.866025 0.866025 0.5 -1334.69 -852)" stroke="#1A55F5"/>
<rect width="13.1336" height="3818.67" transform="matrix(-0.5 0.866025 0.866025 0.5 428.146 -852)" stroke="#1A55F5"/>
<rect width="13.1336" height="3818.67" transform="matrix(-0.5 0.866025 0.866025 0.5 -2993.91 -852)" stroke="#1A55F5"/>
<rect width="13.1336" height="3818.67" transform="matrix(-0.5 0.866025 0.866025 0.5 -1127.46 -852)" stroke="#1A55F5"/>
<rect width="13.1336" height="3818.67" transform="matrix(-0.5 0.866025 0.866025 0.5 635.369 -852)" stroke="#1A55F5"/>
<rect width="13.1336" height="3818.67" transform="matrix(-0.5 0.866025 0.866025 0.5 -2786.69 -852)" stroke="#1A55F5"/>
<rect width="13.1336" height="3818.67" transform="matrix(-0.5 0.866025 0.866025 0.5 -920.242 -852)" stroke="#1A55F5"/>
<rect width="13.1336" height="3818.67" transform="matrix(-0.5 0.866025 0.866025 0.5 842.592 -852)" stroke="#1A55F5"/>
<rect width="13.1336" height="3818.67" transform="matrix(-0.5 0.866025 0.866025 0.5 -2579.46 -852)" stroke="#1A55F5"/>
<rect width="13.1336" height="3818.67" transform="matrix(-0.5 0.866025 0.866025 0.5 -713.02 -852)" stroke="#1A55F5"/>
<rect width="13.1336" height="3818.67" transform="matrix(-0.5 0.866025 0.866025 0.5 1049.81 -852)" stroke="#1A55F5"/>
<rect width="13.1336" height="3818.67" transform="matrix(-0.5 0.866025 0.866025 0.5 -2372.24 -852)" stroke="#1A55F5"/>
<rect width="13.1336" height="3818.67" transform="matrix(-0.5 0.866025 0.866025 0.5 -505.797 -852)" stroke="#1A55F5"/>
<rect width="13.1336" height="3818.67" transform="matrix(-0.5 0.866025 0.866025 0.5 1257.04 -852)" stroke="#1A55F5"/>
<rect width="13.1336" height="3818.67" transform="matrix(-0.5 0.866025 0.866025 0.5 -2165.02 -852)" stroke="#1A55F5"/>
<rect width="13.1336" height="3818.67" transform="matrix(-0.5 0.866025 0.866025 0.5 -298.574 -852)" stroke="#1A55F5"/>
<rect width="13.1336" height="3818.67" transform="matrix(-0.5 0.866025 0.866025 0.5 -1957.79 -852)" stroke="#1A55F5"/>
<rect width="13.1336" height="3818.67" transform="matrix(-0.5 0.866025 0.866025 0.5 -91.3496 -852)" stroke="#1A55F5"/>
<rect width="13.1336" height="3818.67" transform="matrix(-0.5 0.866025 0.866025 0.5 -1750.57 -852)" stroke="#1A55F5"/>
<rect width="13.1336" height="3818.67" transform="matrix(-0.5 0.866025 0.866025 0.5 115.873 -852)" stroke="#1A55F5"/>
<rect width="13.1336" height="3818.67" transform="matrix(-0.5 0.866025 0.866025 0.5 -1490.11 -852)" stroke="#1A55F5"/>
<rect width="13.1336" height="3818.67" transform="matrix(-0.5 0.866025 0.866025 0.5 272.729 -852)" stroke="#1A55F5"/>
<rect width="13.1336" height="3818.67" transform="matrix(-0.5 0.866025 0.866025 0.5 -3149.33 -852)" stroke="#1A55F5"/>
<rect width="13.1336" height="3818.67" transform="matrix(-0.5 0.866025 0.866025 0.5 -1282.88 -852)" stroke="#1A55F5"/>
<rect width="13.1336" height="3818.67" transform="matrix(-0.5 0.866025 0.866025 0.5 479.951 -852)" stroke="#1A55F5"/>
<rect width="13.1336" height="3818.67" transform="matrix(-0.5 0.866025 0.866025 0.5 -2942.1 -852)" stroke="#1A55F5"/>
<rect width="13.1336" height="3818.67" transform="matrix(-0.5 0.866025 0.866025 0.5 -1075.66 -852)" stroke="#1A55F5"/>
<rect width="13.1336" height="3818.67" transform="matrix(-0.5 0.866025 0.866025 0.5 687.176 -852)" stroke="#1A55F5"/>
<rect width="13.1336" height="3818.67" transform="matrix(-0.5 0.866025 0.866025 0.5 -2734.88 -852)" stroke="#1A55F5"/>
<rect width="13.1336" height="3818.67" transform="matrix(-0.5 0.866025 0.866025 0.5 -868.436 -852)" stroke="#1A55F5"/>
<rect width="13.1336" height="3818.67" transform="matrix(-0.5 0.866025 0.866025 0.5 894.398 -852)" stroke="#1A55F5"/>
<rect width="13.1336" height="3818.67" transform="matrix(-0.5 0.866025 0.866025 0.5 -2527.66 -852)" stroke="#1A55F5"/>
<rect width="13.1336" height="3818.67" transform="matrix(-0.5 0.866025 0.866025 0.5 -661.213 -852)" stroke="#1A55F5"/>
<rect width="13.1336" height="3818.67" transform="matrix(-0.5 0.866025 0.866025 0.5 1101.62 -852)" stroke="#1A55F5"/>
<rect width="13.1336" height="3818.67" transform="matrix(-0.5 0.866025 0.866025 0.5 -2320.44 -852)" stroke="#1A55F5"/>
<rect width="13.1336" height="3818.67" transform="matrix(-0.5 0.866025 0.866025 0.5 -453.99 -852)" stroke="#1A55F5"/>
<rect width="13.1336" height="3818.67" transform="matrix(-0.5 0.866025 0.866025 0.5 1308.84 -852)" stroke="#1A55F5"/>
<rect width="13.1336" height="3818.67" transform="matrix(-0.5 0.866025 0.866025 0.5 -2113.21 -852)" stroke="#1A55F5"/>
<rect width="13.1336" height="3818.67" transform="matrix(-0.5 0.866025 0.866025 0.5 -246.768 -852)" stroke="#1A55F5"/>
<rect width="13.1336" height="3818.67" transform="matrix(-0.5 0.866025 0.866025 0.5 -1905.99 -852)" stroke="#1A55F5"/>
<rect width="13.1336" height="3818.67" transform="matrix(-0.5 0.866025 0.866025 0.5 -39.5449 -852)" stroke="#1A55F5"/>
<rect width="13.1336" height="3818.67" transform="matrix(-0.5 0.866025 0.866025 0.5 -1698.77 -852)" stroke="#1A55F5"/>
<rect width="13.1336" height="3818.67" transform="matrix(-0.5 0.866025 0.866025 0.5 167.678 -852)" stroke="#1A55F5"/>
<rect width="13.1336" height="3818.67" transform="matrix(-0.5 0.866025 0.866025 0.5 -3304.74 -852)" stroke="#1A55F5"/>
<rect width="13.1336" height="3818.67" transform="matrix(-0.5 0.866025 0.866025 0.5 -1438.3 -852)" stroke="#1A55F5"/>
<rect width="13.1336" height="3818.67" transform="matrix(-0.5 0.866025 0.866025 0.5 324.535 -852)" stroke="#1A55F5"/>
<rect width="13.1336" height="3818.67" transform="matrix(-0.5 0.866025 0.866025 0.5 -3097.52 -852)" stroke="#1A55F5"/>
<rect width="13.1336" height="3818.67" transform="matrix(-0.5 0.866025 0.866025 0.5 -1231.08 -852)" stroke="#1A55F5"/>
<rect width="13.1336" height="3818.67" transform="matrix(-0.5 0.866025 0.866025 0.5 531.758 -852)" stroke="#1A55F5"/>
<rect width="13.1336" height="3818.67" transform="matrix(-0.5 0.866025 0.866025 0.5 -2890.3 -852)" stroke="#1A55F5"/>
<rect width="13.1336" height="3818.67" transform="matrix(-0.5 0.866025 0.866025 0.5 -1023.85 -852)" stroke="#1A55F5"/>
<rect width="13.1336" height="3818.67" transform="matrix(-0.5 0.866025 0.866025 0.5 738.98 -852)" stroke="#1A55F5"/>
<rect width="13.1336" height="3818.67" transform="matrix(-0.5 0.866025 0.866025 0.5 -2683.07 -852)" stroke="#1A55F5"/>
<rect width="13.1336" height="3818.67" transform="matrix(-0.5 0.866025 0.866025 0.5 -816.631 -852)" stroke="#1A55F5"/>
<rect width="13.1336" height="3818.67" transform="matrix(-0.5 0.866025 0.866025 0.5 946.203 -852)" stroke="#1A55F5"/>
<rect width="13.1336" height="3818.67" transform="matrix(-0.5 0.866025 0.866025 0.5 -2475.85 -852)" stroke="#1A55F5"/>
<rect width="13.1336" height="3818.67" transform="matrix(-0.5 0.866025 0.866025 0.5 -609.406 -852)" stroke="#1A55F5"/>
<rect width="13.1336" height="3818.67" transform="matrix(-0.5 0.866025 0.866025 0.5 1153.43 -852)" stroke="#1A55F5"/>
<rect width="13.1336" height="3818.67" transform="matrix(-0.5 0.866025 0.866025 0.5 -2268.63 -852)" stroke="#1A55F5"/>
<rect width="13.1336" height="3818.67" transform="matrix(-0.5 0.866025 0.866025 0.5 -402.184 -852)" stroke="#1A55F5"/>
<rect width="13.1336" height="3818.67" transform="matrix(-0.5 0.866025 0.866025 0.5 1360.65 -852)" stroke="#1A55F5"/>
<rect width="13.1336" height="3818.67" transform="matrix(-0.5 0.866025 0.866025 0.5 -2061.41 -852)" stroke="#1A55F5"/>
<rect width="13.1336" height="3818.67" transform="matrix(-0.5 0.866025 0.866025 0.5 -194.961 -852)" stroke="#1A55F5"/>
<rect width="13.1336" height="3818.67" transform="matrix(-0.5 0.866025 0.866025 0.5 -1854.18 -852)" stroke="#1A55F5"/>
<rect width="13.1336" height="3818.67" transform="matrix(-0.5 0.866025 0.866025 0.5 12.2617 -852)" stroke="#1A55F5"/>
<rect width="13.1336" height="3818.67" transform="matrix(-0.5 0.866025 0.866025 0.5 -1646.96 -852)" stroke="#1A55F5"/>
<rect width="13.1336" height="3818.67" transform="matrix(-0.5 0.866025 0.866025 0.5 219.484 -852)" stroke="#1A55F5"/>
</g>
<rect width="1440" height="640" fill="url(#paint0_linear)"/>
<rect width="1440" height="606" transform="matrix(1 -8.74228e-08 -8.74228e-08 -1 0 806)" fill="url(#paint1_linear)"/>
<rect x="1440" width="806" height="183" transform="rotate(90 1440 0)" fill="url(#paint2_linear)"/>
<rect width="806" height="354" transform="matrix(4.37114e-08 1 1 -4.37114e-08 0 0)" fill="url(#paint3_linear)"/>
<defs>
<linearGradient id="paint0_linear" x1="367" y1="89.3286" x2="401.882" y2="572.835" gradientUnits="userSpaceOnUse">
<stop offset="0.0814163" stop-color="#0D2BD3"/>
<stop offset="1" stop-color="#0D2BD3" stop-opacity="0"/>
</linearGradient>
<linearGradient id="paint1_linear" x1="277.5" y1="136" x2="331.369" y2="560.484" gradientUnits="userSpaceOnUse">
<stop offset="0.0814163" stop-color="#0D2BD3"/>
<stop offset="1" stop-color="#0D2BD3" stop-opacity="0"/>
</linearGradient>
<linearGradient id="paint2_linear" x1="1645.42" y1="25.5424" x2="1650.53" y2="164.326" gradientUnits="userSpaceOnUse">
<stop offset="0.0814163" stop-color="#0D2BD3"/>
<stop offset="1" stop-color="#0D2BD3" stop-opacity="0"/>
</linearGradient>
<linearGradient id="paint3_linear" x1="205.418" y1="49.4099" x2="224.487" y2="316.882" gradientUnits="userSpaceOnUse">
<stop offset="0.0814163" stop-color="#0D2BD3"/>
<stop offset="1" stop-color="#0D2BD3" stop-opacity="0"/>
</linearGradient>
</defs>
</svg>
