<svg xmlns="http://www.w3.org/2000/svg" width="86.294" height="86.303" viewBox="0 0 86.294 86.303">
  <g id="Group_2711" data-name="Group 2711" transform="translate(-7763.807 5835)">
    <g id="Group_2718" data-name="Group 2718" transform="translate(73)">
      <g id="Bitcoin" transform="translate(7690.807 -5835)">
        <path id="Path_383" data-name="Path 383" d="M85,53.593a43.136,43.136,0,1,1-31.422-52.3A43.14,43.14,0,0,1,85,53.593Z" transform="translate(0.002 -0.002)" fill="#2a5ada"/>
      </g>
      <g id="Layer_2" data-name="Layer 2" transform="translate(7715.423 -5813.222)">
        <g id="Layer_1" data-name="Layer 1">
          <path id="Path_382" data-name="Path 382" d="M18.531,0,14.609,2.255,3.922,8.432,0,10.687V32.061l3.922,2.255,10.785,6.177,3.922,2.255,3.922-2.255,10.589-6.177,3.922-2.255V10.687L33.139,8.432,22.452,2.255ZM7.844,27.551V15.2L18.531,9.02,29.217,15.2V27.551L18.531,33.728Z" fill="#fff"/>
        </g>
      </g>
    </g>
  </g>
</svg>
