<svg width="117" height="117" viewBox="0 0 117 117" fill="none" xmlns="http://www.w3.org/2000/svg">
<path d="M58.2629 116.526C90.4406 116.526 116.526 90.4406 116.526 58.2629C116.526 26.0852 90.4406 0 58.2629 0C26.0852 0 0 26.0852 0 58.2629C0 90.4406 26.0852 116.526 58.2629 116.526Z" fill="url(#paint0_linear)"/>
<path opacity="0.3" d="M58.2629 114.773C42.9613 114.777 28.2727 108.76 17.3709 98.0223C6.46904 87.285 0.22935 72.6895 0 57.3896C0 57.6787 0 57.9918 0 58.2628C0 73.7151 6.13839 88.5345 17.0648 99.4609C27.9912 110.387 42.8106 116.526 58.2629 116.526C73.7152 116.526 88.5346 110.387 99.461 99.4609C110.387 88.5345 116.526 73.7151 116.526 58.2628C116.526 57.9678 116.526 57.6606 116.526 57.3896C116.296 72.6895 110.057 87.285 99.1549 98.0223C88.2531 108.76 73.5645 114.777 58.2629 114.773Z" fill="white" fill-opacity="0.35"/>
<path d="M58.2629 2.19175C73.525 2.1922 88.1777 8.18132 99.0705 18.8715C109.963 29.5616 116.227 44.0992 116.514 59.3586C116.514 58.9913 116.514 58.63 116.514 58.2626C116.294 42.957 110.059 28.3528 99.1577 17.6071C88.2564 6.86138 73.564 0.837402 58.2569 0.837402C42.9497 0.837402 28.2574 6.86138 17.356 17.6071C6.45466 28.3528 0.220077 42.957 0 58.2626C0 58.63 0 58.9913 0 59.3586C0.287141 44.0971 6.55207 29.5577 17.4475 18.8673C28.343 8.17676 42.9986 2.18905 58.2629 2.19175Z" fill="white" fill-opacity="0.35"/>
<path style="mix-blend-mode:screen" opacity="0.1" d="M58.2634 0.217041C43.1492 0.217769 28.632 6.11671 17.8012 16.6585C6.97033 27.2003 0.68095 41.5527 0.271484 56.6613C6.68492 60.4612 16.7718 57.4201 23.3659 54.12C29.0386 51.5004 36.0121 52.3736 42.1244 52.8132C57.3902 54.12 72.2344 60.6418 87.4882 56.7396C90.5413 55.8664 94.9013 51.922 97.9544 54.5536C100.48 56.6253 103.546 57.9286 106.791 58.3087C110.035 58.6887 113.32 58.1295 116.255 56.6974C115.855 41.5825 109.57 27.221 98.7379 16.6715C87.9061 6.12195 73.3836 0.218021 58.2634 0.217041Z" fill="url(#paint1_linear)"/>
<path d="M58.2635 103.386C83.1842 103.386 103.386 83.1837 103.386 58.263C103.386 33.3423 83.1842 13.1401 58.2635 13.1401C33.3428 13.1401 13.1406 33.3423 13.1406 58.263C13.1406 83.1837 33.3428 103.386 58.2635 103.386Z" fill="url(#paint2_linear)"/>
<path d="M58.2629 101.194C81.973 101.194 101.194 81.973 101.194 58.2629C101.194 34.5528 81.973 15.332 58.2629 15.332C34.5528 15.332 15.332 34.5528 15.332 58.2629C15.332 81.973 34.5528 101.194 58.2629 101.194Z" fill="#070569"/>
<path d="M58.0398 99.2185C80.782 99.2185 99.2183 80.7823 99.2183 58.04C99.2183 35.2978 80.782 16.8616 58.0398 16.8616C35.2976 16.8616 16.8613 35.2978 16.8613 58.04C16.8613 80.7823 35.2976 99.2185 58.0398 99.2185Z" fill="url(#paint3_radial)"/>
<path d="M68.3094 77.2062C73.5647 69.6245 77.8561 63.3782 77.8322 63.3782C77.8082 63.3782 73.4879 65.907 68.2422 69.0473L58.6763 74.7654V82.8802C58.6763 87.3461 58.6763 91 58.7243 91C58.7722 91 63.0541 84.7928 68.3094 77.2062ZM57.3913 82.9096V74.7752L47.8013 69.0571C42.5269 65.9119 38.2114 63.3537 38.2114 63.3782C38.2114 63.4026 57.0124 90.6527 57.257 90.9071C57.3577 91.0098 57.396 88.8135 57.396 82.9096H57.3913ZM68.3477 64.8456C73.6222 61.6857 77.9856 59.059 78 59.0052C78.0144 58.9514 58.7914 50.2594 58.7099 50.3425C58.6284 50.4257 58.6715 54.9356 58.7099 60.4873L58.7434 70.5832L68.3477 64.8456ZM57.3913 60.4433C57.3913 54.8622 57.3577 50.2936 57.3145 50.2936C57.1947 50.2936 38.0915 58.834 38.0004 58.927C37.9093 59.0199 52.5244 67.7853 56.6432 70.1772L57.3913 70.6077V60.4433ZM47.9308 53.0475L57.3913 48.8262V36.8863C57.3913 30.3171 57.3481 24.9952 57.2858 25.0637C57.0412 25.3474 38.2881 57.2835 38.3744 57.2835C38.4607 57.2835 42.7235 55.3758 47.926 53.0524L47.9308 53.0475ZM77.3958 57.0927C77.3958 57.0242 58.8249 25.1322 58.6955 25.0001C58.6667 24.9708 58.6475 30.3171 58.6475 36.8863V48.8262L67.9114 52.9595C78.3452 57.621 77.3958 57.2052 77.3958 57.0976V57.0927Z" fill="white"/>
<path opacity="0.25" d="M58.2641 96.3518C35.8863 96.3518 17.6818 79.3818 17.0977 57.1426C17.0977 57.5099 17.0977 57.8712 17.0977 58.2386C17.0977 69.1598 21.4361 79.6337 29.1585 87.3562C36.881 95.0786 47.3549 99.417 58.2761 99.417C69.1973 99.417 79.6712 95.0786 87.3937 87.3562C95.1161 79.6337 99.4546 69.1598 99.4546 58.2386C99.4546 57.8712 99.4546 57.5099 99.4546 57.1426C98.8464 79.4059 80.6418 96.3518 58.2641 96.3518Z" fill="white" fill-opacity="0.35"/>
<defs>
<linearGradient id="paint0_linear" x1="58.2629" y1="0" x2="58.2629" y2="116.526" gradientUnits="userSpaceOnUse">
<stop stop-color="#4DFF30"/>
<stop offset="0.0919977" stop-color="#3FCF4A"/>
<stop offset="0.493056" stop-color="#2E906E"/>
<stop offset="0.795151" stop-color="#0500BD"/>
<stop offset="1" stop-color="#040180"/>
</linearGradient>
<linearGradient id="paint1_linear" x1="56" y1="69.0002" x2="55" y2="0.000244577" gradientUnits="userSpaceOnUse">
<stop stop-color="white"/>
<stop offset="1" stop-color="white" stop-opacity="0.5"/>
</linearGradient>
<linearGradient id="paint2_linear" x1="58.2635" y1="103.386" x2="58.2635" y2="-7.48522" gradientUnits="userSpaceOnUse">
<stop stop-color="#30C518"/>
<stop offset="0.446179" stop-color="#040192"/>
<stop offset="1" stop-color="#060386"/>
</linearGradient>
<radialGradient id="paint3_radial" cx="0" cy="0" r="1" gradientUnits="userSpaceOnUse" gradientTransform="translate(58.4794 22.5584) scale(82.7965)">
<stop offset="0.31" stop-color="#0500BD"/>
<stop offset="1" stop-color="#030072"/>
</radialGradient>
</defs>
</svg>
