<svg width="250" height="59" viewBox="0 0 250 59" fill="none" xmlns="http://www.w3.org/2000/svg">
<path d="M108.04 0L57.2812 29.2779L108.04 58.5862V50.8799L70.6004 29.2779L108.04 7.67597V0Z" fill="white"/>
<path d="M57.4326 0H50.7578V58.5862H57.4326V0Z" fill="white"/>
<path d="M0 0V7.67597L37.409 29.2779L0 50.8799V58.5862L50.7585 29.2779L0 0Z" fill="white"/>
<path d="M235.496 18.6895V45.3885H242.049V24.7878H249.999V18.6895H235.496Z" fill="white"/>
<path d="M159.647 18.6895H145.145V45.3885H151.698V24.7878H159.647V18.6895Z" fill="white"/>
<path d="M206.401 41.9299C204.58 44.2357 201.364 46.1168 197.329 46.1168C193.294 46.1168 189.957 44.1751 188.106 41.9299C186.134 39.4421 185.193 36.135 185.193 32.2515C185.193 28.368 186.104 25.061 188.106 22.5731C189.926 20.328 193.294 18.3862 197.329 18.3862C201.364 18.3862 204.55 20.2673 206.401 22.5731C207.614 24.1508 208.343 26.2442 208.434 28.3377H202.184C202.123 27.3668 201.82 26.5476 201.425 25.8802C200.667 24.6969 199.271 23.9081 197.36 23.9081C195.63 23.9081 194.356 24.6362 193.476 25.5464C191.959 27.2151 191.686 29.7637 191.686 32.2819C191.686 34.7697 191.929 37.2576 193.476 38.9566C194.356 39.8668 195.63 40.6253 197.36 40.6253C199.301 40.6253 200.667 39.8061 201.425 38.6532C201.82 37.9857 202.153 37.1666 202.184 36.226H208.434C208.343 38.2588 207.645 40.3522 206.401 41.9299Z" fill="white"/>
<path d="M137.043 12.5913H122.541V18.6896H130.52V45.3886H137.043V18.6896H145.144V12.5913H137.043Z" fill="white"/>
<path d="M182.494 40.7464C182.494 40.716 182.494 40.716 182.494 40.7464V29.0352C182.494 27.2452 182.403 25.3641 181.735 23.6954C180.218 19.7209 176.335 18.2949 171.784 18.2949C165.867 18.2949 161.134 20.9345 160.77 26.9114H166.929C167.081 24.4539 168.81 23.1493 171.784 23.1493C175.394 23.1493 176.274 24.818 176.274 27.3362V28.9745L168.477 29.5206C163.41 29.8847 159.496 32.7973 159.496 37.8338C159.496 42.1723 162.773 46.1469 169.083 46.1469C172.785 46.1469 176.092 44.0231 177.366 41.9296V45.4187H184.921V40.7767H182.494V40.7464ZM176.244 34.8908C176.244 38.8046 173.452 40.9588 169.448 40.9588C167.445 40.9588 165.685 39.6845 165.685 37.6517C165.685 35.4976 167.566 34.3447 169.508 34.193L176.244 33.6772V34.8908Z" fill="white"/>
<path d="M233.616 34.2235H215.958C215.898 36.2563 216.626 38.1677 217.87 39.4116C218.78 40.2612 220.054 41.05 221.784 41.05C223.604 41.05 224.727 40.6859 225.637 39.7757C226.183 39.2296 226.638 38.5015 226.911 37.5306H233.009C232.858 39.1082 231.796 41.1714 230.764 42.4153C228.519 45.0549 225.242 46.1167 221.875 46.1167C218.264 46.1167 215.625 44.8425 213.562 42.8704C210.922 40.3218 209.496 36.6204 209.496 32.3121C209.496 28.0949 210.77 24.3328 213.289 21.7539C215.261 19.7211 218.113 18.4165 221.723 18.4165C225.637 18.4165 229.187 19.9942 231.371 23.3012C233.313 26.1835 233.768 29.1871 233.647 32.4942C233.677 32.4638 233.616 33.6774 233.616 34.2235ZM225.728 25.0002C224.878 24.09 223.543 23.4833 221.723 23.4833C219.812 23.4833 218.234 24.3024 217.324 25.516C216.414 26.6689 216.019 27.9129 215.958 29.6119H227.366C227.275 27.6398 226.729 26.1228 225.728 25.0002Z" fill="white"/>
</svg>
