<svg width="250" height="59" viewBox="0 0 250 59" fill="none" xmlns="http://www.w3.org/2000/svg">
<path d="M108.04 0L57.2812 29.278L108.04 58.5864V50.8801L70.6005 29.278L108.04 7.676V0Z" fill="#0000B0"/>
<path d="M57.4345 0H50.7598V58.5864H57.4345V0Z" fill="#0000B0"/>
<path d="M0 0V7.676L37.4091 29.278L0 50.8801V58.5864L50.7587 29.278L0 0Z" fill="#0000B0"/>
<path d="M235.498 18.6895V45.3886H242.051V24.7878H250.001V18.6895H235.498Z" fill="#0000B0"/>
<path d="M159.649 18.6895H145.146V45.3886H151.7V24.7878H159.649V18.6895Z" fill="#0000B0"/>
<path d="M206.403 41.93C204.583 44.2358 201.366 46.1169 197.331 46.1169C193.296 46.1169 189.959 44.1752 188.108 41.93C186.136 39.4421 185.195 36.1351 185.195 32.2516C185.195 28.3681 186.106 25.061 188.108 22.5731C189.928 20.328 193.296 18.3862 197.331 18.3862C201.366 18.3862 204.552 20.2673 206.403 22.5731C207.617 24.1508 208.345 26.2443 208.436 28.3377H202.186C202.125 27.3668 201.822 26.5477 201.427 25.8802C200.669 24.6969 199.273 23.9081 197.362 23.9081C195.632 23.9081 194.358 24.6363 193.478 25.5465C191.961 27.2151 191.688 29.7637 191.688 32.2819C191.688 34.7698 191.931 37.2577 193.478 38.9567C194.358 39.8669 195.632 40.6254 197.362 40.6254C199.303 40.6254 200.669 39.8062 201.427 38.6533C201.822 37.9858 202.155 37.1666 202.186 36.2261H208.436C208.345 38.2589 207.647 40.3523 206.403 41.93Z" fill="#0000B0"/>
<path d="M137.045 12.5913H122.543V18.6896H130.522V45.3888H137.045V18.6896H145.146V12.5913H137.045Z" fill="#0000B0"/>
<path d="M182.496 40.7465C182.496 40.7161 182.496 40.7161 182.496 40.7465V29.0353C182.496 27.2452 182.405 25.3641 181.737 23.6954C180.22 19.7209 176.337 18.2949 171.786 18.2949C165.869 18.2949 161.136 20.9345 160.772 26.9115H166.931C167.083 24.4539 168.812 23.1493 171.786 23.1493C175.396 23.1493 176.276 24.818 176.276 27.3362V28.9746L168.479 29.5207C163.412 29.8848 159.498 32.7974 159.498 37.8338C159.498 42.1724 162.775 46.147 169.085 46.147C172.787 46.147 176.094 44.0232 177.368 41.9297V45.4188H184.923V40.7768H182.496V40.7465ZM176.246 34.8909C176.246 38.8047 173.454 40.9589 169.45 40.9589C167.447 40.9589 165.687 39.6846 165.687 37.6518C165.687 35.4977 167.568 34.3447 169.51 34.193L176.246 33.6773V34.8909Z" fill="#0000B0"/>
<path d="M233.616 34.2236H215.958C215.898 36.2564 216.626 38.1678 217.87 39.4117C218.78 40.2613 220.054 41.0501 221.784 41.0501C223.604 41.0501 224.727 40.686 225.637 39.7758C226.183 39.2297 226.638 38.5015 226.911 37.5307H233.01C232.858 39.1083 231.796 41.1715 230.764 42.4154C228.519 45.055 225.243 46.1169 221.875 46.1169C218.264 46.1169 215.625 44.8426 213.562 42.8705C210.922 40.3219 209.496 36.6205 209.496 32.3122C209.496 28.0949 210.77 24.3328 213.289 21.7539C215.261 19.7211 218.113 18.4165 221.723 18.4165C225.637 18.4165 229.187 19.9942 231.371 23.3012C233.313 26.1835 233.768 29.1872 233.647 32.4942C233.677 32.4639 233.616 33.6775 233.616 34.2236ZM225.728 25.0003C224.878 24.0901 223.543 23.4833 221.723 23.4833C219.812 23.4833 218.234 24.3025 217.324 25.5161C216.414 26.669 216.019 27.9129 215.958 29.6119H227.366C227.275 27.6398 226.729 26.1228 225.728 25.0003Z" fill="#0000B0"/>
</svg>
