<svg width="31" height="32" viewBox="0 0 31 32" fill="none" xmlns="http://www.w3.org/2000/svg">
<circle cx="15.5" cy="16.5" r="15.5" fill="url(#paint0_linear)"/>
<g style="mix-blend-mode:screen" opacity="0.15">
<ellipse cx="19.3695" cy="8.99394" rx="8.96777" ry="5.20777" transform="rotate(30 19.3695 8.99394)" fill="white"/>
</g>
<g style="mix-blend-mode:multiply" filter="url(#filter0_i)">
<path d="M14.9112 24.252C14.0432 24.252 13.1472 24.098 12.2232 23.79C11.3132 23.468 10.4872 22.971 9.74524 22.299L11.8032 19.821C12.2932 20.213 12.8182 20.535 13.3782 20.787C13.9522 21.025 14.4912 21.144 14.9952 21.144C15.5412 21.144 15.9332 21.06 16.1712 20.892C16.4232 20.724 16.5492 20.486 16.5492 20.178C16.5492 20.01 16.5072 19.87 16.4232 19.758C16.3392 19.646 16.2132 19.541 16.0452 19.443C15.8912 19.345 15.7022 19.254 15.4782 19.17C15.2542 19.072 14.9952 18.967 14.7012 18.855L13.0002 18.141C12.6362 18.001 12.2862 17.819 11.9502 17.595C11.6142 17.357 11.3202 17.084 11.0682 16.776C10.8162 16.454 10.6132 16.09 10.4592 15.684C10.3192 15.278 10.2492 14.83 10.2492 14.34C10.2492 13.752 10.3752 13.206 10.6272 12.702C10.8792 12.184 11.2292 11.736 11.6772 11.358C12.1252 10.966 12.6572 10.658 13.2732 10.434C13.9032 10.21 14.5892 10.098 15.3312 10.098C16.1152 10.098 16.9062 10.245 17.7042 10.539C18.5162 10.833 19.2372 11.295 19.8672 11.925L18.0612 14.193C17.5992 13.871 17.1512 13.626 16.7172 13.458C16.2972 13.29 15.8352 13.206 15.3312 13.206C14.8832 13.206 14.5332 13.283 14.2812 13.437C14.0292 13.591 13.9032 13.822 13.9032 14.13C13.9032 14.452 14.0782 14.704 14.4282 14.886C14.7922 15.054 15.2892 15.257 15.9192 15.495L17.5782 16.146C18.4322 16.482 19.0902 16.951 19.5522 17.553C20.0142 18.155 20.2452 18.932 20.2452 19.884C20.2452 20.458 20.1262 21.011 19.8882 21.543C19.6502 22.075 19.3002 22.544 18.8382 22.95C18.3902 23.342 17.8372 23.657 17.1792 23.895C16.5212 24.133 15.7652 24.252 14.9112 24.252Z" fill="#841A0B"/>
</g>
<defs>
<filter id="filter0_i" x="9.74609" y="10.0977" width="10.5" height="14.654" filterUnits="userSpaceOnUse" color-interpolation-filters="sRGB">
<feFlood flood-opacity="0" result="BackgroundImageFix"/>
<feBlend mode="normal" in="SourceGraphic" in2="BackgroundImageFix" result="shape"/>
<feColorMatrix in="SourceAlpha" type="matrix" values="0 0 0 0 0 0 0 0 0 0 0 0 0 0 0 0 0 0 127 0" result="hardAlpha"/>
<feOffset dy="0.5"/>
<feGaussianBlur stdDeviation="1"/>
<feComposite in2="hardAlpha" operator="arithmetic" k2="-1" k3="1"/>
<feColorMatrix type="matrix" values="0 0 0 0 0 0 0 0 0 0 0 0 0 0 0 0 0 0 0.3 0"/>
<feBlend mode="normal" in2="shape" result="effect1_innerShadow"/>
</filter>
<linearGradient id="paint0_linear" x1="15.5" y1="1" x2="15.5" y2="32" gradientUnits="userSpaceOnUse">
<stop stop-color="#FF442B"/>
<stop offset="1" stop-color="#881F0F"/>
</linearGradient>
</defs>
</svg>
