<svg width="116" height="116" viewBox="0 0 116 116" fill="none" xmlns="http://www.w3.org/2000/svg">
<path d="M57.9919 115.984C90.0199 115.984 115.984 90.0199 115.984 57.9919C115.984 25.9639 90.0199 0 57.9919 0C25.9639 0 0 25.9639 0 57.9919C0 90.0199 25.9639 115.984 57.9919 115.984Z" fill="url(#paint0_linear)"/>
<path opacity="0.3" d="M57.9919 114.24C42.7614 114.243 28.1412 108.254 17.2901 97.5667C6.43895 86.8793 0.228283 72.3518 0 57.123C0 57.4108 0 57.7224 0 57.9922C0 73.3726 6.10984 88.123 16.9854 98.9986C27.861 109.874 42.6115 115.984 57.9919 115.984C73.3723 115.984 88.1228 109.874 98.9984 98.9986C109.874 88.123 115.984 73.3726 115.984 57.9922C115.984 57.6985 115.984 57.3928 115.984 57.123C115.756 72.3518 109.545 86.8793 98.6937 97.5667C87.8426 108.254 73.2223 114.243 57.9919 114.24Z" fill="#EEB8FF"/>
<path d="M57.9919 2.18105C73.1831 2.18151 87.7675 8.14277 98.6097 18.7832C109.452 29.4236 115.686 43.8936 115.972 59.082C115.972 58.7164 115.972 58.3568 115.972 57.9911C115.753 42.7567 109.547 28.2205 98.6965 17.5247C87.8459 6.82896 73.2219 0.833008 57.9859 0.833008C42.7499 0.833008 28.1259 6.82896 17.2753 17.5247C6.42464 28.2205 0.219053 42.7567 0 57.9911C0 58.3568 0 58.7164 0 59.082C0.285806 43.8915 6.52159 29.4198 17.3664 18.779C28.2111 8.13823 42.7986 2.17836 57.9919 2.18105V2.18105Z" fill="#EEB8FF"/>
<path style="mix-blend-mode:screen" d="M57.9917 115.714C89.8708 115.714 115.714 89.8708 115.714 57.9917C115.714 26.1126 89.8708 0.269531 57.9917 0.269531C26.1126 0.269531 0.269531 26.1126 0.269531 57.9917C0.269531 89.8708 26.1126 115.714 57.9917 115.714Z" fill="url(#paint1_radial)"/>
<path style="mix-blend-mode:screen" opacity="0.7" d="M57.9917 0.21582C42.9479 0.216545 28.4982 6.08805 17.7177 16.5808C6.93722 27.0736 0.677092 41.3592 0.269531 56.3975C6.65314 60.1797 16.6931 57.1528 23.2565 53.8681C28.9028 51.2607 35.8439 52.1298 41.9278 52.5674C57.1226 53.8681 71.8978 60.3596 87.0806 56.4755C90.1195 55.6063 94.4592 51.6803 97.4981 54.2996C100.012 56.3617 103.064 57.659 106.293 58.0373C109.522 58.4155 112.792 57.8589 115.714 56.4335C115.316 41.3889 109.059 27.0942 98.278 16.5937C87.4965 6.09326 73.0416 0.216796 57.9917 0.21582V0.21582Z" fill="url(#paint2_linear)"/>
<path d="M57.9931 102.905C82.7978 102.905 102.906 82.7969 102.906 57.9921C102.906 33.1873 82.7978 13.0791 57.9931 13.0791C33.1883 13.0791 13.0801 33.1873 13.0801 57.9921C13.0801 82.7969 33.1883 102.905 57.9931 102.905Z" fill="url(#paint3_linear)"/>
<path d="M57.9929 100.723C81.5927 100.723 100.724 81.5917 100.724 57.9919C100.724 34.3921 81.5927 15.2607 57.9929 15.2607C34.3931 15.2607 15.2617 34.3921 15.2617 57.9919C15.2617 81.5917 34.3931 100.723 57.9929 100.723Z" fill="#F37CF8"/>
<path d="M57.7701 98.7571C80.4066 98.7571 98.7571 80.4066 98.7571 57.7701C98.7571 35.1337 80.4066 16.7832 57.7701 16.7832C35.1337 16.7832 16.7832 35.1337 16.7832 57.7701C16.7832 80.4066 35.1337 98.7571 57.7701 98.7571Z" fill="url(#paint4_radial)"/>
<path opacity="0.25" d="M57.9925 95.9039C35.7188 95.9039 17.599 79.0128 17.0176 56.877C17.0176 57.2426 17.0176 57.6022 17.0176 57.9679C17.0176 68.8383 21.3358 79.2635 29.0224 86.95C36.7089 94.6365 47.1341 98.9548 58.0045 98.9548C68.8749 98.9548 79.3001 94.6365 86.9866 86.95C94.6732 79.2635 98.9914 68.8383 98.9914 57.9679C98.9914 57.6022 98.9914 57.2426 98.9914 56.877C98.386 79.0368 80.2662 95.9039 57.9925 95.9039Z" fill="#EEB8FF"/>
<path d="M43.1276 36.4727L81.8352 62.9021L72.2624 77.0533L33.5547 50.4157L43.1276 36.4727Z" fill="url(#paint5_linear)"/>
<path d="M81.8338 62.9019C78.5041 67.6883 67.2664 65.8153 56.653 58.3235C45.8315 51.0398 40.0045 41.2589 43.1261 36.4724C46.4558 31.686 57.6935 33.559 68.3069 41.0508C79.1284 48.1264 84.9554 58.1154 81.8338 62.9019Z" fill="url(#paint6_linear)"/>
<path d="M72.2621 76.8453C68.9324 81.6318 57.6947 79.7588 47.0813 72.267C36.4679 64.7752 30.4328 55.2023 33.7625 50.2078C37.0922 45.4214 48.3299 47.2943 58.9433 54.7861C69.5567 62.2779 75.3837 72.0589 72.2621 76.8453Z" fill="url(#paint7_linear)"/>
<path d="M81.8345 62.9014L72.2617 77.0526C68.932 81.8391 57.6943 79.758 47.0809 72.4743C44.9998 71.0176 43.1269 69.5608 41.2539 67.896C42.7106 67.6879 44.5836 66.8554 46.4565 64.7744C49.7862 61.2366 51.4511 60.4042 52.9078 60.6123C54.3646 60.6123 56.0294 62.069 58.7348 65.6068C61.4402 69.1446 65.1861 70.1851 67.4752 68.3122C67.6833 68.1041 67.8914 68.1041 68.0995 67.896C69.9725 66.4392 70.5968 65.8149 74.1346 59.1555C74.967 57.4907 77.8805 54.7853 81.8345 56.0339C82.8751 58.7393 82.8751 61.0285 81.8345 62.9014Z" fill="#0E0F23"/>
<path fill-rule="evenodd" clip-rule="evenodd" d="M80.3793 62.0699C77.4658 66.232 67.2686 64.151 57.4876 57.2835C47.4986 50.416 41.6716 41.6755 44.5851 37.5134C47.4986 33.3513 57.6957 35.4324 67.4767 42.2999C77.2577 49.1673 83.0846 57.9078 80.3793 62.0699ZM71.2226 55.8267C69.7659 57.9078 64.7713 56.8673 59.7768 53.5376C54.9904 50.2079 52.0769 45.8377 53.5336 43.7566C54.9904 41.6755 59.9849 42.7161 64.9794 46.0458C69.7659 49.3755 72.6794 53.7457 71.2226 55.8267Z" fill="white"/>
<path d="M42.2933 41.2581C42.2933 41.0501 42.0852 40.842 41.8771 41.0501C41.669 41.2581 41.4609 41.2581 41.4609 41.4662C41.669 42.0905 41.8771 42.5067 41.8771 42.9228C41.8771 43.1309 42.0852 43.339 42.2933 43.1309C42.5014 43.1309 42.7095 42.9228 42.5014 42.7147C42.5014 42.2986 42.5014 41.8824 42.2933 41.2581Z" fill="white"/>
<path d="M43.3353 44.5873C43.3353 44.3792 43.1271 44.1711 42.919 44.3792C42.7109 44.5873 42.7109 44.5873 42.7109 44.7954C45.0001 49.998 49.7865 55.6169 56.0297 59.779C56.2378 59.9871 56.4459 59.779 56.654 59.779C56.8621 59.5709 56.654 59.3628 56.654 59.1547C50.2027 54.9926 45.6244 49.5818 43.3353 44.5873Z" fill="white"/>
<path d="M68.5158 64.9834C68.3077 64.9834 68.0996 64.9834 68.0996 65.1915C68.0996 65.3996 68.0996 65.6077 68.3077 65.6077C68.932 65.8157 69.7643 66.0238 70.3886 66.2319C70.5966 66.2319 70.8047 66.2319 70.8047 66.0238C70.8047 65.8157 70.8047 65.6077 70.5966 65.6077C69.9724 65.3996 69.14 65.1915 68.5158 64.9834Z" fill="white"/>
<path d="M72.2619 65.8154C72.0538 65.8154 71.8457 66.0235 71.8457 66.2316C71.8457 66.4397 72.0538 66.6478 72.2619 66.6478C73.9266 66.8559 75.7993 67.0639 77.2559 66.8559C77.464 66.8559 77.6721 66.6478 77.6721 66.4397C77.6721 66.2316 77.464 66.0235 77.2559 66.0235C75.5912 66.2316 73.9266 66.0235 72.2619 65.8154Z" fill="white"/>
<defs>
<linearGradient id="paint0_linear" x1="57.9919" y1="0" x2="57.9919" y2="115.984" gradientUnits="userSpaceOnUse">
<stop stop-color="#E99FFF"/>
<stop offset="0.14" stop-color="#DDA8FA"/>
<stop offset="0.3" stop-color="#FCADFF"/>
<stop offset="1" stop-color="#CA36D7"/>
</linearGradient>
<radialGradient id="paint1_radial" cx="0" cy="0" r="1" gradientUnits="userSpaceOnUse" gradientTransform="translate(57.4103 -7.9782) scale(46.1837)">
<stop stop-color="#DDA9FA"/>
<stop offset="1"/>
</radialGradient>
<linearGradient id="paint2_linear" x1="57.9917" y1="106.328" x2="57.9917" y2="22.1718" gradientUnits="userSpaceOnUse">
<stop stop-color="#C97BCC"/>
<stop offset="1"/>
</linearGradient>
<linearGradient id="paint3_linear" x1="57.9931" y1="102.905" x2="57.9931" y2="-7.45033" gradientUnits="userSpaceOnUse">
<stop stop-color="#FCADFF"/>
<stop offset="1" stop-color="#CE41DC"/>
</linearGradient>
<radialGradient id="paint4_radial" cx="0" cy="0" r="1" gradientUnits="userSpaceOnUse" gradientTransform="translate(58.2077 22.4535) scale(82.4114)">
<stop offset="0.258671" stop-color="#F0A4FD"/>
<stop offset="1" stop-color="#C038D0"/>
</radialGradient>
<linearGradient id="paint5_linear" x1="50.7113" y1="32.7149" x2="58.3875" y2="59.074" gradientUnits="userSpaceOnUse">
<stop stop-color="#03B8FF"/>
<stop offset="1" stop-color="#FA52A0"/>
</linearGradient>
<linearGradient id="paint6_linear" x1="57.0313" y1="30.8736" x2="64.7077" y2="57.2329" gradientUnits="userSpaceOnUse">
<stop stop-color="#03B8FF"/>
<stop offset="1" stop-color="#FA52A0"/>
</linearGradient>
<linearGradient id="paint7_linear" x1="44.4092" y1="34.5501" x2="52.0856" y2="60.9094" gradientUnits="userSpaceOnUse">
<stop stop-color="#03B8FF"/>
<stop offset="1" stop-color="#FA52A0"/>
</linearGradient>
</defs>
</svg>
