<svg width="33" height="32" viewBox="0 0 33 32" fill="none" xmlns="http://www.w3.org/2000/svg">
<path d="M16.4278 4.48843e-05C12.26 -0.00986982 8.25617 1.62315 5.28419 4.54514C2.31222 7.46714 0.611546 11.4427 0.550781 15.61V31.77L16.4228 31.755C20.5893 31.6945 24.5641 29.9946 27.4859 27.0236C30.4076 24.0526 32.0409 20.05 32.0318 15.883C32.0399 11.7162 30.4073 7.71374 27.4872 4.74137C24.567 1.769 20.5941 0.0657429 16.4278 4.48843e-05ZM25.4088 19.7C24.8862 20.8584 24.1407 21.9025 23.2146 22.7727C22.2885 23.643 21.2001 24.3222 20.0115 24.7718C18.8229 25.2213 17.5573 25.4323 16.2872 25.3927C15.017 25.3531 13.7671 25.0637 12.6088 24.541L6.32378 25.961L8.07178 20.331C7.27611 18.8558 6.87631 17.1995 6.91136 15.5237C6.94641 13.8479 7.41512 12.2098 8.27177 10.769C9.12961 9.32938 10.3464 8.13704 11.8032 7.30864C13.26 6.48024 14.9069 6.04415 16.5828 6.04305C17.9561 6.04289 19.3136 6.33574 20.5648 6.90204C21.7234 7.424 22.7679 8.16913 23.6385 9.09486C24.5091 10.0206 25.1888 11.1088 25.6387 12.2973C26.0887 13.4858 26.3 14.7512 26.2607 16.0214C26.2215 17.2916 25.9323 18.5416 25.4098 19.7H25.4088Z" fill="#0618BA"/>
</svg>
