<svg width="33" height="33" viewBox="0 0 33 33" fill="none" xmlns="http://www.w3.org/2000/svg">
<path fill-rule="evenodd" clip-rule="evenodd" d="M16.2904 0.77002C12.4219 0.770177 8.67964 2.14697 5.73343 4.65402C2.78722 7.16107 0.829305 10.6347 0.210086 14.4534C-0.409133 18.272 0.350763 22.1864 2.35376 25.496C4.35676 28.8056 7.47215 31.2944 11.1424 32.517C11.9574 32.666 12.2544 32.164 12.2544 31.732C12.2544 31.345 12.2404 30.321 12.2324 28.961C7.70138 29.946 6.74538 26.778 6.74538 26.778C6.44587 25.7934 5.80427 24.9482 4.93637 24.395C3.45737 23.384 5.04837 23.405 5.04837 23.405C5.56461 23.4761 6.05776 23.6643 6.49018 23.9551C6.92259 24.2459 7.28281 24.6317 7.54337 25.083C7.76396 25.485 8.06208 25.8393 8.42047 26.1253C8.77887 26.4113 9.19043 26.6234 9.63134 26.7493C10.0722 26.8752 10.5337 26.9125 10.9891 26.8589C11.4445 26.8053 11.8848 26.6619 12.2844 26.437C12.3587 25.611 12.7253 24.8387 13.3184 24.259C9.70138 23.848 5.89838 22.451 5.89838 16.208C5.87516 14.5897 6.47567 13.0245 7.57538 11.837C7.07778 10.4321 7.13499 8.89021 7.73537 7.52602C7.73537 7.52602 9.10237 7.08801 12.2144 9.19601C14.884 8.46538 17.7008 8.46538 20.3704 9.19601C23.4804 7.08801 24.8454 7.52602 24.8454 7.52602C25.4465 8.88987 25.5048 10.4317 25.0084 11.837C26.1082 13.0242 26.7079 14.5898 26.6824 16.208C26.6824 22.466 22.8734 23.843 19.2444 24.246C19.633 24.6411 19.9328 25.1146 20.1236 25.6349C20.3143 26.1553 20.3916 26.7104 20.3504 27.263C20.3504 29.441 20.3304 31.198 20.3304 31.732C20.3304 32.167 20.6244 32.674 21.4504 32.515C25.1189 31.2899 28.2319 28.7995 30.2325 25.4895C32.2332 22.1795 32.991 18.2657 32.3705 14.4481C31.75 10.6306 29.7915 7.15827 26.8455 4.65231C23.8995 2.14636 20.158 0.770214 16.2904 0.77002Z" fill="#0618BA"/>
</svg>
