<svg width="33" height="28" viewBox="0 0 33 28" fill="none" xmlns="http://www.w3.org/2000/svg">
<path d="M32.5769 3.78688C31.3567 4.32761 30.0623 4.68223 28.7369 4.83889C30.1334 4.0034 31.1781 2.6882 31.6759 1.13887C30.3641 1.9179 28.9288 2.46681 27.4319 2.76188C26.8068 2.09468 26.0512 1.56304 25.2121 1.19991C24.373 0.836778 23.4682 0.649909 22.5539 0.650883C21.6761 0.650883 20.807 0.823769 19.9961 1.15967C19.1851 1.49557 18.4483 1.9879 17.8276 2.60857C17.2069 3.22924 16.7146 3.96609 16.3787 4.77703C16.0428 5.58797 15.8699 6.45713 15.8699 7.33489C15.869 7.84751 15.927 8.35852 16.0429 8.85787C13.3852 8.72506 10.7852 8.03472 8.41168 6.83168C6.03817 5.62865 3.94425 3.93983 2.2659 1.87488C1.67306 2.89518 1.36243 4.05486 1.36591 5.23488C1.3651 6.33525 1.63605 7.41877 2.15469 8.38924C2.67334 9.35971 3.42361 10.1871 4.3389 10.7979C3.27763 10.764 2.23981 10.477 1.31189 9.96087C1.31189 9.98886 1.31189 10.0169 1.31189 10.0459C1.3124 11.5891 1.84659 13.0846 2.82385 14.2789C3.80112 15.4733 5.16132 16.2929 6.67389 16.5989C6.09994 16.7551 5.50774 16.8342 4.9129 16.8339C4.49071 16.834 4.06946 16.7939 3.65491 16.7139C4.08181 18.0418 4.91305 19.2031 6.03241 20.0354C7.15177 20.8678 8.50329 21.3294 9.89792 21.3559C7.53071 23.214 4.60724 24.2217 1.5979 24.2169C1.06522 24.2167 0.532999 24.1856 0.00390625 24.1239C3.06041 26.0868 6.61739 27.1283 10.2499 27.1239C22.5429 27.1239 29.2659 16.9389 29.2659 8.10689C29.2659 7.81689 29.2609 7.52787 29.2479 7.24187C30.5539 6.29694 31.6811 5.12703 32.5769 3.78688Z" fill="#0618BA"/>
</svg>
