<svg width="19" height="15" viewBox="0 0 19 15" fill="none" xmlns="http://www.w3.org/2000/svg">
    <path d="M16.6367 3.62109C17.3398 3.09375 17.9727 2.46094 18.4648 1.72266C17.832 2.00391 17.0938 2.21484 16.3555 2.28516C17.1289 1.82812 17.6914 1.125 17.9727 0.246094C17.2695 0.667969 16.4609 0.984375 15.6523 1.16016C14.9492 0.421875 14 0 12.9453 0C10.9062 0 9.25391 1.65234 9.25391 3.69141C9.25391 3.97266 9.28906 4.25391 9.35938 4.53516C6.30078 4.35938 3.55859 2.88281 1.73047 0.667969C1.41406 1.19531 1.23828 1.82812 1.23828 2.53125C1.23828 3.79688 1.87109 4.92188 2.89062 5.58984C2.29297 5.55469 1.69531 5.41406 1.20312 5.13281V5.16797C1.20312 6.96094 2.46875 8.4375 4.15625 8.78906C3.875 8.85938 3.52344 8.92969 3.20703 8.92969C2.96094 8.92969 2.75 8.89453 2.50391 8.85938C2.96094 10.3359 4.33203 11.3906 5.94922 11.4258C4.68359 12.4102 3.10156 13.0078 1.37891 13.0078C1.0625 13.0078 0.78125 12.9727 0.5 12.9375C2.11719 13.9922 4.05078 14.5898 6.16016 14.5898C12.9453 14.5898 16.6367 9 16.6367 4.11328C16.6367 3.9375 16.6367 3.79688 16.6367 3.62109Z" fill="white" />
</svg>