<svg xmlns="http://www.w3.org/2000/svg" xmlns:xlink="http://www.w3.org/1999/xlink" width="317" height="69.807" viewBox="0 0 317 69.807">
  <defs>
    <filter id="Path_465" x="0" y="0" width="317" height="69.807" filterUnits="userSpaceOnUse">
      <feOffset dy="2" input="SourceAlpha"/>
      <feGaussianBlur stdDeviation="3" result="blur"/>
      <feFlood flood-opacity="0.161"/>
      <feComposite operator="in" in2="blur"/>
      <feComposite in="SourceGraphic"/>
    </filter>
  </defs>
  <g id="Group_2871" data-name="Group 2871" transform="translate(-285 -2136)">
    <g transform="matrix(1, 0, 0, 1, 285, 2136)" filter="url(#Path_465)">
      <path id="Path_465-2" data-name="Path 465" d="M990.951,548.961l-23,21.26a7.3,7.3,0,0,1-4.955,1.9H700.187a6.757,6.757,0,0,1-7.006-6.476V526.788a6.757,6.757,0,0,1,7.006-6.476H963a7.306,7.306,0,0,1,4.955,1.9l23,21.256A3.683,3.683,0,0,1,990.951,548.961Z" transform="translate(-684.18 -513.31)" fill="#3da8f5"/>
    </g>
    <text id="LAUNCH_POOLS" data-name="LAUNCH POOLS" transform="translate(329.313 2176.403)" fill="#fff" font-size="24" font-family="SegoeUI, Segoe UI" letter-spacing="0.12em"><tspan x="0" y="0">LAUNCH POOLS</tspan></text>
  </g>
</svg>
