<svg width="13" height="12" viewBox="0 0 13 12" fill="none" xmlns="http://www.w3.org/2000/svg">
<path fill-rule="evenodd" clip-rule="evenodd" d="M0.292787 0.295962C0.480314 0.114218 0.734622 0.0121199 0.999786 0.0121199C1.26495 0.0121199 1.51926 0.114218 1.70679 0.295962L5.99979 4.45781L10.2928 0.295962C10.385 0.20337 10.4954 0.129515 10.6174 0.0787066C10.7394 0.0278987 10.8706 0.00115517 11.0034 3.66036e-05C11.1362 -0.00108196 11.2678 0.0234466 11.3907 0.0721914C11.5136 0.120936 11.6253 0.192921 11.7192 0.283945C11.8131 0.374969 11.8873 0.483211 11.9376 0.602352C11.9879 0.721494 12.0132 0.849151 12.012 0.977874C12.0109 1.1066 11.9833 1.23381 11.9309 1.35208C11.8785 1.47036 11.8023 1.57734 11.7068 1.66676L7.41379 5.82861L11.7068 9.99046C11.8889 10.1733 11.9897 10.4182 11.9875 10.6724C11.9852 10.9266 11.88 11.1697 11.6946 11.3495C11.5092 11.5292 11.2584 11.6312 10.9962 11.6334C10.734 11.6356 10.4814 11.5379 10.2928 11.3613L5.99979 7.19942L1.70679 11.3613C1.51818 11.5379 1.26558 11.6356 1.00339 11.6334C0.741188 11.6312 0.490376 11.5292 0.304968 11.3495C0.11956 11.1697 0.0143906 10.9266 0.0121121 10.6724C0.00983372 10.4182 0.110629 10.1733 0.292787 9.99046L4.58579 5.82861L0.292787 1.66676C0.105316 1.48497 0 1.23843 0 0.981363C0 0.7243 0.105316 0.477761 0.292787 0.295962Z" fill="#FAFAFA"/>
</svg>
