<svg xmlns="http://www.w3.org/2000/svg" xmlns:xlink="http://www.w3.org/1999/xlink" width="387.573" height="68" viewBox="0 0 387.573 68">
  <defs>
    <filter id="Path_477" x="0" y="0" width="387.573" height="68" filterUnits="userSpaceOnUse">
      <feOffset dy="2" input="SourceAlpha"/>
      <feGaussianBlur stdDeviation="3" result="blur"/>
      <feFlood flood-opacity="0.161"/>
      <feComposite operator="in" in2="blur"/>
      <feComposite in="SourceGraphic"/>
    </filter>
  </defs>
  <g id="Group_2723" data-name="Group 2723" transform="translate(-1621.926 -977.911)">
    <g transform="matrix(1, 0, 0, 1, 1621.93, 977.91)" filter="url(#Path_477)">
      <path id="Path_477-2" data-name="Path 477" d="M368.477,27.676,347.984,48.171A6.239,6.239,0,0,1,343.569,50L6.243,49.942A6.244,6.244,0,0,1,0,43.7V6.243A6.244,6.244,0,0,1,6.243,0L343.57.058a6.239,6.239,0,0,1,4.414,1.829l20.493,20.491A3.748,3.748,0,0,1,368.477,27.676Z" transform="translate(378.57 57) rotate(180)" fill="#fff"/>
    </g>
    <g id="Group_2712" data-name="Group 2712" transform="translate(1670.927 994.023)">
      <path id="Path_2999" data-name="Path 2999" d="M-290.875,256.281a13.344,13.344,0,0,1-3.84,1.052,6.7,6.7,0,0,0,2.939-3.7,13.379,13.379,0,0,1-4.244,1.623,6.675,6.675,0,0,0-4.878-2.111,6.684,6.684,0,0,0-6.684,6.684,6.683,6.683,0,0,0,.173,1.523,18.974,18.974,0,0,1-13.777-6.983,6.649,6.649,0,0,0-.9,3.36,6.682,6.682,0,0,0,2.973,5.563,6.665,6.665,0,0,1-3.027-.837c0,.028,0,.056,0,.085a6.688,6.688,0,0,0,5.362,6.553,6.691,6.691,0,0,1-1.761.235,6.629,6.629,0,0,1-1.258-.12,6.691,6.691,0,0,0,6.243,4.642,13.408,13.408,0,0,1-8.3,2.861,13.8,13.8,0,0,1-1.594-.093,18.919,18.919,0,0,0,10.246,3c12.293,0,19.016-10.185,19.016-19.017,0-.29-.005-.579-.018-.865A13.578,13.578,0,0,0-290.875,256.281Z" transform="translate(509.948 -250.147)" fill="#1e6df5"/>
      <path id="Path_3000" data-name="Path 3000" d="M152.608,107.44a16.291,16.291,0,0,0-5.148,31.747c.815.149,1.112-.353,1.112-.785,0-.387-.014-1.411-.022-2.771-4.531.985-5.487-2.183-5.487-2.183a4.315,4.315,0,0,0-1.809-2.383c-1.479-1.011.112-.99.112-.99a3.42,3.42,0,0,1,2.495,1.678,3.468,3.468,0,0,0,4.741,1.354,3.482,3.482,0,0,1,1.034-2.178c-3.617-.411-7.42-1.808-7.42-8.051a6.3,6.3,0,0,1,1.677-4.371,5.852,5.852,0,0,1,.16-4.311s1.367-.438,4.479,1.67a15.448,15.448,0,0,1,8.156,0c3.11-2.108,4.475-1.67,4.475-1.67a5.854,5.854,0,0,1,.163,4.311A6.286,6.286,0,0,1,163,122.878c0,6.258-3.809,7.635-7.438,8.038a3.889,3.889,0,0,1,1.106,3.017c0,2.178-.02,3.935-.02,4.469,0,.435.294.942,1.12.783a16.292,16.292,0,0,0-5.16-31.745Z" transform="translate(-74.839 -107.44)" fill="#1e6df5" fill-rule="evenodd"/>
      <path id="Path_3001" data-name="Path 3001" d="M-246.975,58.337a26.415,26.415,0,0,0-6.691-2.1,19.7,19.7,0,0,0-.857,1.78,24.564,24.564,0,0,0-7.415,0,19.194,19.194,0,0,0-.867-1.78,26.323,26.323,0,0,0-6.7,2.108,28.062,28.062,0,0,0-4.809,18.791,26.758,26.758,0,0,0,8.207,4.205,20.4,20.4,0,0,0,1.757-2.895,17.292,17.292,0,0,1-2.768-1.347c.232-.172.459-.352.678-.537a18.91,18.91,0,0,0,16.408,0c.222.185.449.365.678.537a17.223,17.223,0,0,1-2.773,1.349,20.3,20.3,0,0,0,1.758,2.895,26.7,26.7,0,0,0,8.212-4.208A28.037,28.037,0,0,0-246.975,58.337ZM-263.621,73.35a3.148,3.148,0,0,1-2.916-3.317,3.132,3.132,0,0,1,2.916-3.319,3.112,3.112,0,0,1,2.916,3.319A3.128,3.128,0,0,1-263.621,73.35Zm10.776,0a3.148,3.148,0,0,1-2.916-3.317,3.132,3.132,0,0,1,2.916-3.319,3.112,3.112,0,0,1,2.916,3.319A3.129,3.129,0,0,1-252.845,73.35Z" transform="translate(398.51 -53.234)" fill="#1e6df5"/>
      <path id="Path_3004" data-name="Path 3004" d="M-185.413,0A15.841,15.841,0,0,0-201.29,15.61v16.16l15.872-.015a15.839,15.839,0,0,0,15.609-15.872A15.854,15.854,0,0,0-185.413,0Zm8.981,19.7a9.676,9.676,0,0,1-12.8,4.841l-6.285,1.42,1.748-5.63a9.7,9.7,0,0,1,.2-9.562,9.682,9.682,0,0,1,8.311-4.726h0a9.654,9.654,0,0,1,3.982.859A9.674,9.674,0,0,1-176.431,19.7Z" transform="translate(201.29 0.004)" fill="#1e6df5"/>
    </g>
  </g>
</svg>
