<svg width="120" height="113" viewBox="0 0 120 113" fill="none" xmlns="http://www.w3.org/2000/svg">
<path d="M120 0L63.6384 32.5435L120 65.087V56.53L78.4279 32.5435L120 8.55699V0Z" fill="#0000B0"/>
<path d="M63.7731 0H56.3616V65.0533H63.7731V0Z" fill="#0000B0"/>
<path d="M0 0V8.55699L41.5722 32.5435L0 56.53V65.087L56.3616 32.5435L0 0Z" fill="#0000B0"/>
<path d="M106.356 87.0859V112.184H112.487V92.813H120V87.0859H106.356Z" fill="#0000B0"/>
<path d="M34.9692 87.0859H21.2915V112.184H27.4566V92.813H34.9692V87.0859Z" fill="#0000B0"/>
<path d="M78.9668 108.95C77.2487 111.106 74.2167 112.892 70.4435 112.892C66.6703 112.892 63.5036 111.072 61.7854 108.95C59.9325 106.592 59.0566 103.492 59.0566 99.854C59.0566 96.2156 59.9325 93.0825 61.7854 90.758C63.5036 88.6356 66.6703 86.8164 70.4435 86.8164C74.2167 86.8164 77.2487 88.6019 78.9668 90.758C80.1122 92.2403 80.786 94.1943 80.8871 96.1819H74.9915C74.9578 95.2723 74.6546 94.4975 74.284 93.8911C73.5766 92.7793 72.2627 92.0382 70.4435 92.0382C68.8264 92.0382 67.6136 92.712 66.8051 93.5879C65.3565 95.1713 65.1206 97.5632 65.1206 99.9214C65.1206 102.28 65.3565 104.604 66.8051 106.188C67.6136 107.063 68.8264 107.771 70.4435 107.771C72.2627 107.771 73.5429 106.996 74.284 105.918C74.6546 105.312 74.9578 104.537 74.9915 103.627H80.8871C80.786 105.514 80.1122 107.468 78.9668 108.95Z" fill="#0000B0"/>
<path d="M13.6777 81.3588H0V87.0859H7.51263V112.184H13.6777V87.0859H21.2914V81.3588H13.6777Z" fill="#0000B0"/>
<path d="M56.4291 107.838C56.4291 107.838 56.4291 107.805 56.4291 107.838V96.822C56.4291 95.1376 56.328 93.3521 55.7216 91.7687C54.273 88.0292 50.6346 86.6816 46.3561 86.6816C40.7974 86.6816 36.3168 89.1746 35.9799 94.8007H41.7744C41.9091 92.5098 43.5599 91.2633 46.3224 91.2633C49.725 91.2633 50.5335 92.8467 50.5335 95.2049V96.7546L43.1893 97.2937C38.4392 97.6305 34.7334 100.359 34.7334 105.109C34.7334 109.186 37.7991 112.925 43.762 112.925C47.2657 112.925 50.3651 110.938 51.5442 108.95V112.252H58.6525V107.872H56.4291V107.838ZM50.5672 102.313C50.5672 106.019 47.9395 108.04 44.2 108.04C42.3134 108.04 40.6626 106.828 40.6626 104.907C40.6626 102.886 42.4482 101.774 44.2674 101.64L50.6009 101.168V102.313H50.5672Z" fill="#0000B0"/>
<path d="M104.57 101.707H87.9617C87.8943 103.627 88.5681 105.446 89.7809 106.592C90.6568 107.4 91.8359 108.108 93.453 108.108C95.1712 108.108 96.2155 107.771 97.0914 106.929C97.6305 106.39 98.0347 105.75 98.2705 104.84H103.998C103.863 106.322 102.852 108.276 101.909 109.422C99.8202 111.915 96.6872 112.892 93.5541 112.892C90.1515 112.892 87.6922 111.713 85.7382 109.826C83.2453 107.434 81.9314 103.964 81.9314 99.8877C81.9314 95.9124 83.1105 92.4088 85.5024 89.9495C87.3553 88.0292 90.0504 86.7827 93.4193 86.7827C97.0914 86.7827 100.427 88.265 102.482 91.3644C104.301 94.0932 104.739 96.8894 104.638 100.022C104.604 100.022 104.57 101.168 104.57 101.707ZM97.1251 93.0152C96.3166 92.1393 95.0701 91.5665 93.352 91.5665C91.5327 91.5665 90.0504 92.3414 89.2082 93.4868C88.3323 94.5985 87.9617 95.744 87.928 97.361H98.6748C98.6074 95.5081 98.0684 94.0595 97.1251 93.0152Z" fill="#0000B0"/>
</svg>
