<svg width="120" height="120" viewBox="0 0 120 120" fill="none" xmlns="http://www.w3.org/2000/svg">
<g style="mix-blend-mode:multiply">
<path opacity="0.2" d="M76.064 46.0242C76.064 54.3202 72.704 61.8322 67.264 67.2642C61.832 72.6962 54.328 76.0562 46.032 76.0562C39.784 76.0562 33.984 74.1522 29.176 70.8802L21.064 73.1522C19.792 73.5122 18.656 72.2482 19.144 71.0162L21.952 63.9682C18.208 58.9602 16 52.7442 16 46.0162C16 37.7282 19.36 30.2162 24.8 24.7842C30.232 19.3522 37.736 15.9922 46.032 15.9922C54.328 15.9922 61.832 19.3522 67.264 24.7842C72.704 30.2162 76.064 37.7282 76.064 46.0162V46.0242Z" fill="url(#paint0_linear_1269_18399)"/>
<path opacity="0.2" d="M104 45.6V90.4C104 91.28 103.28 92 102.4 92H100V100.136C100 101.56 98.28 102.272 97.272 101.264L87.992 91.992H49.632C48.752 91.992 48.032 91.272 48.032 90.392V45.6C48.032 44.72 48.752 44 49.632 44H102.4C103.28 44 104 44.72 104 45.6Z" fill="url(#paint1_linear_1269_18399)"/>
<path d="M76.064 46.024C76.064 54.32 72.704 61.832 67.264 67.264C62.272 72.256 55.528 75.496 48.032 75.984V45.6C48.032 44.72 48.752 44 49.632 44H75.992C76.04 44.672 76.064 45.344 76.064 46.024Z" fill="white"/>
<path d="M76.064 46.024C76.064 54.32 72.704 61.832 67.264 67.264C62.272 72.256 55.528 75.496 48.032 75.984V45.6C48.032 44.72 48.752 44 49.632 44H75.992C76.04 44.672 76.064 45.344 76.064 46.024Z" fill="white"/>
<path d="M76.064 46.0242C76.064 54.3202 72.704 61.8322 67.264 67.2642C61.832 72.6962 54.328 76.0562 46.032 76.0562C39.784 76.0562 33.984 74.1522 29.176 70.8802L21.064 73.1522C19.792 73.5122 18.656 72.2482 19.144 71.0162L21.952 63.9682C20.296 61.7602 18.944 59.3122 17.952 56.6882C16.688 53.3682 16 49.7762 16 46.0162C16 37.7282 19.36 30.2162 24.8 24.7842C30.232 19.3522 37.736 15.9922 46.032 15.9922C54.328 15.9922 61.832 19.3522 67.264 24.7842C72.704 30.2162 76.064 37.7282 76.064 46.0162V46.0242Z" stroke="#00D9E9" stroke-miterlimit="10"/>
<path d="M104 45.6V90.4C104 91.28 103.28 92 102.4 92H100V100.136C100 101.56 98.28 102.272 97.272 101.264L87.992 91.992H49.632C48.752 91.992 48.032 91.272 48.032 90.392V45.6C48.032 44.72 48.752 44 49.632 44H102.4C103.28 44 104 44.72 104 45.6Z" stroke="#0094F8" stroke-miterlimit="10"/>
</g>
<defs>
<linearGradient id="paint0_linear_1269_18399" x1="15.976" y1="35.0402" x2="86.88" y2="68.1122" gradientUnits="userSpaceOnUse">
<stop stop-color="white"/>
<stop offset="0.72" stop-color="#00D9E9"/>
</linearGradient>
<linearGradient id="paint1_linear_1269_18399" x1="114.736" y1="90.736" x2="36.456" y2="44.776" gradientUnits="userSpaceOnUse">
<stop stop-color="white"/>
<stop offset="0.72" stop-color="#0094F8"/>
</linearGradient>
</defs>
</svg>
