<svg width="120" height="120" viewBox="0 0 120 120" fill="none" xmlns="http://www.w3.org/2000/svg">
    <g style="mix-blend-mode:multiply">
        <path d="M116 27.6641V100.52C116 101.408 115.28 102.12 114.4 102.12H64.528C62.832 102.12 61.2 102.8 60 104C58.8 102.8 57.168 102.12 55.472 102.12H5.6C4.72 102.12 4 101.408 4 100.52V27.6641C4.032 26.8081 4.736 26.1201 5.6 26.1201H55.872C56.016 26.1201 56.144 26.1441 56.272 26.1761C57.672 26.3521 58.992 26.9841 60 27.9921C61.008 26.9841 62.328 26.3521 63.728 26.1761C63.856 26.1441 63.984 26.1201 64.128 26.1201H114.4C115.264 26.1201 115.976 26.8081 116 27.6641Z" fill="url(#paint0_linear_1269_18361)" stroke="#7223FF" stroke-miterlimit="10" />
        <path d="M108 19.6643C107.976 18.8003 107.264 18.1123 106.4 18.1123H64.128C63.992 18.1123 63.856 18.1363 63.728 18.1683C62.328 18.3443 61.008 18.9763 60 19.9843V96.0003C61.2 94.8003 62.832 94.1283 64.528 94.1283H106.4C107.28 94.1283 108 93.4083 108 92.5283V19.6643Z" fill="white" stroke="#7223FF" stroke-linejoin="round" />
        <path d="M12 19.6643C12.024 18.8003 12.736 18.1123 13.6 18.1123H55.872C56.008 18.1123 56.144 18.1363 56.272 18.1683C57.672 18.3443 58.992 18.9763 60 19.9843V96.0003C58.8 94.8003 57.168 94.1283 55.472 94.1283H13.6C12.72 94.1283 12 93.4083 12 92.5283V19.6643Z" fill="white" stroke="#7223FF" stroke-linejoin="round" />
        <path d="M99.2 86.1043H68.8C68.36 86.1043 68 85.7443 68 85.3043V82.9203C68 82.4803 68.36 82.1203 68.8 82.1203H99.2C99.64 82.1203 100 82.4803 100 82.9203V85.3043C100 85.7443 99.64 86.1043 99.2 86.1043ZM99.2 74.1203H68.8C68.36 74.1203 68 74.4803 68 74.9203V77.3043C68 77.7443 68.36 78.1043 68.8 78.1043H99.2C99.64 78.1043 100 77.7443 100 77.3043V74.9203C100 74.4803 99.64 74.1203 99.2 74.1203ZM99.2 66.1203H68.8C68.36 66.1203 68 66.4803 68 66.9203V69.3043C68 69.7443 68.36 70.1043 68.8 70.1043H99.2C99.64 70.1043 100 69.7443 100 69.3043V66.9203C100 66.4803 99.64 66.1203 99.2 66.1203ZM99.2 58.1203H68.8C68.36 58.1203 68 58.4803 68 58.9203V61.3043C68 61.7443 68.36 62.1043 68.8 62.1043H99.2C99.64 62.1043 100 61.7443 100 61.3043V58.9203C100 58.4803 99.64 58.1203 99.2 58.1203ZM99.2 50.1283H68.8C68.36 50.1283 68 50.4883 68 50.9283V53.3123C68 53.7523 68.36 54.1123 68.8 54.1123H99.2C99.64 54.1123 100 53.7523 100 53.3123V50.9283C100 50.4883 99.64 50.1283 99.2 50.1283ZM99.2 42.1363H68.8C68.36 42.1363 68 42.4963 68 42.9363V45.3203C68 45.7603 68.36 46.1203 68.8 46.1203H99.2C99.64 46.1203 100 45.7603 100 45.3203V42.9363C100 42.4963 99.64 42.1363 99.2 42.1363ZM99.2 34.1123H68.8C68.36 34.1123 68 34.4723 68 34.9123V37.2963C68 37.7363 68.36 38.0963 68.8 38.0963H99.2C99.64 38.0963 100 37.7363 100 37.2963V34.9123C100 34.4723 99.64 34.1123 99.2 34.1123ZM51.2 86.1043H20.8C20.36 86.1043 20 85.7443 20 85.3043V82.9203C20 82.4803 20.36 82.1203 20.8 82.1203H51.2C51.64 82.1203 52 82.4803 52 82.9203V85.3043C52 85.7443 51.64 86.1043 51.2 86.1043ZM51.2 74.1203H20.8C20.36 74.1203 20 74.4803 20 74.9203V77.3043C20 77.7443 20.36 78.1043 20.8 78.1043H51.2C51.64 78.1043 52 77.7443 52 77.3043V74.9203C52 74.4803 51.64 74.1203 51.2 74.1203ZM51.2 66.1203H20.8C20.36 66.1203 20 66.4803 20 66.9203V69.3043C20 69.7443 20.36 70.1043 20.8 70.1043H51.2C51.64 70.1043 52 69.7443 52 69.3043V66.9203C52 66.4803 51.64 66.1203 51.2 66.1203ZM51.2 58.1203H20.8C20.36 58.1203 20 58.4803 20 58.9203V61.3043C20 61.7443 20.36 62.1043 20.8 62.1043H51.2C51.64 62.1043 52 61.7443 52 61.3043V58.9203C52 58.4803 51.64 58.1203 51.2 58.1203ZM51.2 50.1283H20.8C20.36 50.1283 20 50.4883 20 50.9283V53.3123C20 53.7523 20.36 54.1123 20.8 54.1123H51.2C51.64 54.1123 52 53.7523 52 53.3123V50.9283C52 50.4883 51.64 50.1283 51.2 50.1283ZM51.2 42.1363H20.8C20.36 42.1363 20 42.4963 20 42.9363V45.3203C20 45.7603 20.36 46.1203 20.8 46.1203H51.2C51.64 46.1203 52 45.7603 52 45.3203V42.9363C52 42.4963 51.64 42.1363 51.2 42.1363ZM51.2 34.1123H20.8C20.36 34.1123 20 34.4723 20 34.9123V37.2963C20 37.7363 20.36 38.0963 20.8 38.0963H51.2C51.64 38.0963 52 37.7363 52 37.2963V34.9123C52 34.4723 51.64 34.1123 51.2 34.1123Z" fill="url(#paint1_linear_1269_18361)" />
    </g>
    <defs>
        <linearGradient id="paint0_linear_1269_18361" x1="4" y1="65.0641" x2="116" y2="65.0641" gradientUnits="userSpaceOnUse">
            <stop stop-color="#F8F4FF" />
            <stop offset="0.72" stop-color="#EDE2FF" />
        </linearGradient>
        <linearGradient id="paint1_linear_1269_18361" x1="73.856" y1="96.2163" x2="46.088" y2="23.8563" gradientUnits="userSpaceOnUse">
            <stop offset="0.28" stop-color="#D5BDFF" />
            <stop offset="1" stop-color="#D5BDFF" stop-opacity="0" />
        </linearGradient>
    </defs>
</svg>