<svg width="389" height="210" viewBox="0 0 389 210" fill="none" xmlns="http://www.w3.org/2000/svg">
<circle cx="25" cy="17" r="17" fill="#0D2BD3"/>
<path d="M35.0006 12.0029L25.6143 17.4253L35.0006 22.8419V21.4227L28.0824 17.4273L35.0006 13.4319V12.0029Z" fill="white"/>
<path d="M25.6208 12.0029H24.3867V22.8426H25.6208V12.0029Z" fill="white"/>
<path d="M15 13.429L21.9181 17.4243L15 21.4197V22.8389L24.3863 17.4223L15 12V13.429Z" fill="white"/>
<path d="M52.44 23V14.104H49.416V12.536H57.32V14.104H54.296V23H52.44ZM58.1993 23V15.144H59.7193L59.8473 16.536H59.9113C60.1886 16.024 60.5246 15.6347 60.9193 15.368C61.3139 15.0907 61.7193 14.952 62.1353 14.952C62.5086 14.952 62.8073 15.0053 63.0313 15.112L62.7113 16.712C62.5726 16.6693 62.4446 16.6373 62.3273 16.616C62.2099 16.5947 62.0659 16.584 61.8953 16.584C61.5859 16.584 61.2606 16.7067 60.9193 16.952C60.5779 17.1867 60.2846 17.6027 60.0393 18.2V23H58.1993ZM65.6501 23.192C64.9568 23.192 64.3968 22.984 63.9701 22.568C63.5435 22.1413 63.3301 21.5813 63.3301 20.888C63.3301 20.472 63.4155 20.104 63.5861 19.784C63.7675 19.4533 64.0448 19.1707 64.4181 18.936C64.8021 18.7013 65.2821 18.504 65.8581 18.344C66.4448 18.184 67.1435 18.0613 67.9541 17.976C67.9435 17.7733 67.9115 17.5813 67.8581 17.4C67.8155 17.208 67.7355 17.0427 67.6181 16.904C67.5115 16.7547 67.3675 16.6427 67.1861 16.568C67.0048 16.4827 66.7808 16.44 66.5141 16.44C66.1301 16.44 65.7515 16.5147 65.3781 16.664C65.0155 16.8133 64.6581 16.9947 64.3061 17.208L63.6341 15.976C64.0715 15.6987 64.5621 15.4587 65.1061 15.256C65.6501 15.0533 66.2368 14.952 66.8661 14.952C67.8475 14.952 68.5781 15.2453 69.0581 15.832C69.5488 16.408 69.7941 17.2453 69.7941 18.344V23H68.2741L68.1461 22.136H68.0821C67.7301 22.4347 67.3515 22.6853 66.9461 22.888C66.5515 23.0907 66.1195 23.192 65.6501 23.192ZM66.2421 21.752C66.5621 21.752 66.8501 21.6773 67.1061 21.528C67.3728 21.3787 67.6555 21.1653 67.9541 20.888V19.128C67.4208 19.192 66.9728 19.2773 66.6101 19.384C66.2475 19.4907 65.9541 19.6133 65.7301 19.752C65.5061 19.88 65.3461 20.0293 65.2501 20.2C65.1541 20.3707 65.1061 20.552 65.1061 20.744C65.1061 21.096 65.2128 21.352 65.4261 21.512C65.6395 21.672 65.9115 21.752 66.2421 21.752ZM75.2761 23.192C74.7428 23.192 74.2415 23.1013 73.7721 22.92C73.3135 22.7387 72.9135 22.472 72.5721 22.12C72.2308 21.768 71.9641 21.336 71.7721 20.824C71.5801 20.312 71.4841 19.7307 71.4841 19.08C71.4841 18.4293 71.5908 17.848 71.8041 17.336C72.0175 16.824 72.3055 16.392 72.6681 16.04C73.0308 15.688 73.4468 15.4213 73.9161 15.24C74.3961 15.048 74.8975 14.952 75.4201 14.952C75.9321 14.952 76.3695 15.0373 76.7321 15.208C77.1055 15.3787 77.4361 15.5867 77.7241 15.832L76.8281 17.032C76.6148 16.8507 76.4015 16.712 76.1881 16.616C75.9855 16.5093 75.7615 16.456 75.5161 16.456C74.8761 16.456 74.3588 16.696 73.9641 17.176C73.5695 17.6453 73.3721 18.28 73.3721 19.08C73.3721 19.8693 73.5641 20.504 73.9481 20.984C74.3428 21.4533 74.8495 21.688 75.4681 21.688C75.7775 21.688 76.0655 21.624 76.3321 21.496C76.6095 21.3573 76.8601 21.1973 77.0841 21.016L77.8361 22.232C77.4628 22.552 77.0521 22.792 76.6041 22.952C76.1668 23.112 75.7241 23.192 75.2761 23.192ZM82.3561 23.192C81.8121 23.192 81.3055 23.1013 80.8361 22.92C80.3668 22.728 79.9561 22.456 79.6041 22.104C79.2521 21.752 78.9748 21.3253 78.7721 20.824C78.5801 20.312 78.4841 19.7307 78.4841 19.08C78.4841 18.44 78.5855 17.864 78.7881 17.352C78.9908 16.84 79.2575 16.408 79.5881 16.056C79.9295 15.704 80.3188 15.432 80.7561 15.24C81.1935 15.048 81.6415 14.952 82.1001 14.952C82.6335 14.952 83.1028 15.0427 83.5081 15.224C83.9135 15.4053 84.2495 15.6613 84.5161 15.992C84.7935 16.3227 85.0015 16.7173 85.1401 17.176C85.2788 17.6347 85.3481 18.136 85.3481 18.68C85.3481 18.8613 85.3375 19.032 85.3161 19.192C85.3055 19.352 85.2895 19.48 85.2681 19.576H80.2761C80.3615 20.28 80.6068 20.824 81.0121 21.208C81.4281 21.5813 81.9561 21.768 82.5961 21.768C82.9375 21.768 83.2521 21.72 83.5401 21.624C83.8388 21.5173 84.1321 21.3733 84.4201 21.192L85.0441 22.344C84.6708 22.5893 84.2548 22.792 83.7961 22.952C83.3375 23.112 82.8575 23.192 82.3561 23.192ZM80.2601 18.328H83.7481C83.7481 17.72 83.6148 17.2453 83.3481 16.904C83.0921 16.552 82.6921 16.376 82.1481 16.376C81.6788 16.376 81.2681 16.5413 80.9161 16.872C80.5641 17.2027 80.3455 17.688 80.2601 18.328ZM87.1055 23V15.144H88.6255L88.7535 16.536H88.8175C89.0948 16.024 89.4308 15.6347 89.8255 15.368C90.2202 15.0907 90.6255 14.952 91.0415 14.952C91.4148 14.952 91.7135 15.0053 91.9375 15.112L91.6175 16.712C91.4788 16.6693 91.3508 16.6373 91.2335 16.616C91.1162 16.5947 90.9722 16.584 90.8015 16.584C90.4922 16.584 90.1668 16.7067 89.8255 16.952C89.4842 17.1867 89.1908 17.6027 88.9455 18.2V23H87.1055ZM96.4374 23V12.536H99.2374C100.837 12.536 102.085 12.968 102.981 13.832C103.877 14.696 104.325 15.992 104.325 17.72C104.325 18.584 104.208 19.3467 103.973 20.008C103.749 20.6693 103.419 21.224 102.981 21.672C102.555 22.1093 102.032 22.44 101.413 22.664C100.805 22.888 100.112 23 99.3334 23H96.4374ZM98.2934 21.496H99.1094C100.176 21.496 100.992 21.192 101.557 20.584C102.133 19.9653 102.421 19.0107 102.421 17.72C102.421 16.44 102.133 15.5067 101.557 14.92C100.981 14.3333 100.165 14.04 99.1094 14.04H98.2934V21.496ZM106.277 23V15.144H107.797L107.925 16.536H107.989C108.267 16.024 108.603 15.6347 108.997 15.368C109.392 15.0907 109.797 14.952 110.213 14.952C110.587 14.952 110.885 15.0053 111.109 15.112L110.789 16.712C110.651 16.6693 110.523 16.6373 110.405 16.616C110.288 16.5947 110.144 16.584 109.973 16.584C109.664 16.584 109.339 16.7067 108.997 16.952C108.656 17.1867 108.363 17.6027 108.117 18.2V23H106.277ZM115.306 23.192C114.815 23.192 114.346 23.1013 113.898 22.92C113.45 22.7387 113.05 22.472 112.698 22.12C112.357 21.768 112.085 21.336 111.882 20.824C111.679 20.312 111.578 19.7307 111.578 19.08C111.578 18.4293 111.679 17.848 111.882 17.336C112.085 16.824 112.357 16.392 112.698 16.04C113.05 15.688 113.45 15.4213 113.898 15.24C114.346 15.048 114.815 14.952 115.306 14.952C115.797 14.952 116.266 15.048 116.714 15.24C117.173 15.4213 117.573 15.688 117.914 16.04C118.255 16.392 118.527 16.824 118.73 17.336C118.943 17.848 119.05 18.4293 119.05 19.08C119.05 19.7307 118.943 20.312 118.73 20.824C118.527 21.336 118.255 21.768 117.914 22.12C117.573 22.472 117.173 22.7387 116.714 22.92C116.266 23.1013 115.797 23.192 115.306 23.192ZM115.306 21.688C115.882 21.688 116.335 21.4533 116.666 20.984C116.997 20.504 117.162 19.8693 117.162 19.08C117.162 18.28 116.997 17.6453 116.666 17.176C116.335 16.696 115.882 16.456 115.306 16.456C114.73 16.456 114.277 16.696 113.946 17.176C113.626 17.6453 113.466 18.28 113.466 19.08C113.466 19.8693 113.626 20.504 113.946 20.984C114.277 21.4533 114.73 21.688 115.306 21.688ZM120.871 26.104V15.144H122.391L122.519 15.976H122.583C122.914 15.6987 123.282 15.4587 123.687 15.256C124.092 15.0533 124.514 14.952 124.951 14.952C125.442 14.952 125.874 15.048 126.247 15.24C126.631 15.4213 126.956 15.688 127.223 16.04C127.49 16.392 127.692 16.8133 127.831 17.304C127.97 17.7947 128.039 18.344 128.039 18.952C128.039 19.624 127.943 20.2267 127.751 20.76C127.57 21.2827 127.324 21.7253 127.015 22.088C126.706 22.44 126.348 22.712 125.943 22.904C125.538 23.096 125.116 23.192 124.679 23.192C124.338 23.192 123.996 23.1173 123.655 22.968C123.314 22.8187 122.983 22.6053 122.663 22.328L122.711 23.64V26.104H120.871ZM124.295 21.672C124.818 21.672 125.255 21.448 125.607 21C125.959 20.5413 126.135 19.864 126.135 18.968C126.135 18.1787 126.002 17.5653 125.735 17.128C125.468 16.6907 125.036 16.472 124.439 16.472C123.884 16.472 123.308 16.7653 122.711 17.352V21.016C122.999 21.2613 123.276 21.432 123.543 21.528C123.81 21.624 124.06 21.672 124.295 21.672ZM134.402 23L132.322 15.144H134.178L135.122 19.224C135.207 19.5973 135.276 19.9707 135.33 20.344C135.394 20.7173 135.463 21.096 135.538 21.48H135.602C135.676 21.096 135.751 20.7173 135.826 20.344C135.911 19.9707 136.002 19.5973 136.098 19.224L137.122 15.144H138.802L139.842 19.224C139.938 19.5973 140.028 19.9707 140.114 20.344C140.199 20.7173 140.284 21.096 140.37 21.48H140.434C140.508 21.096 140.578 20.7173 140.642 20.344C140.706 19.9707 140.775 19.5973 140.85 19.224L141.794 15.144H143.522L141.522 23H139.33L138.418 19.336C138.332 18.9627 138.252 18.5947 138.178 18.232C138.103 17.8587 138.023 17.464 137.938 17.048H137.874C137.799 17.464 137.724 17.8587 137.65 18.232C137.575 18.6053 137.495 18.9787 137.41 19.352L136.514 23H134.402ZM145.074 23V15.144H146.914V23H145.074ZM146.002 13.768C145.672 13.768 145.4 13.672 145.186 13.48C144.973 13.288 144.866 13.0373 144.866 12.728C144.866 12.4187 144.973 12.168 145.186 11.976C145.4 11.7733 145.672 11.672 146.002 11.672C146.333 11.672 146.605 11.7733 146.818 11.976C147.032 12.168 147.138 12.4187 147.138 12.728C147.138 13.0373 147.032 13.288 146.818 13.48C146.605 13.672 146.333 13.768 146.002 13.768ZM152.03 23.192C151.571 23.192 151.182 23.1227 150.862 22.984C150.552 22.8453 150.296 22.6533 150.094 22.408C149.902 22.152 149.758 21.8533 149.662 21.512C149.576 21.16 149.534 20.7707 149.534 20.344V16.6H148.414V15.224L149.63 15.144L149.854 13H151.39V15.144H153.39V16.6H151.39V20.344C151.39 21.2613 151.758 21.72 152.494 21.72C152.632 21.72 152.771 21.704 152.91 21.672C153.059 21.64 153.192 21.5973 153.31 21.544L153.63 22.904C153.416 22.9787 153.171 23.0427 152.894 23.096C152.627 23.16 152.339 23.192 152.03 23.192ZM155.043 23V11.704H156.883V14.616L156.819 16.136C157.15 15.8267 157.512 15.5547 157.907 15.32C158.312 15.0747 158.787 14.952 159.331 14.952C160.174 14.952 160.787 15.224 161.171 15.768C161.555 16.3013 161.747 17.0693 161.747 18.072V23H159.907V18.312C159.907 17.6613 159.811 17.2027 159.619 16.936C159.427 16.6693 159.112 16.536 158.675 16.536C158.334 16.536 158.03 16.6213 157.763 16.792C157.507 16.952 157.214 17.192 156.883 17.512V23H155.043ZM167.328 23V12.536H170.864C171.408 12.536 171.915 12.5893 172.384 12.696C172.853 12.8027 173.259 12.9787 173.6 13.224C173.941 13.4587 174.208 13.7733 174.4 14.168C174.603 14.5627 174.704 15.0533 174.704 15.64C174.704 16.44 174.512 17.0853 174.128 17.576C173.755 18.0667 173.253 18.4187 172.624 18.632L175.12 23H173.04L170.784 18.904H169.184V23H167.328ZM169.184 17.432H170.672C171.387 17.432 171.931 17.2827 172.304 16.984C172.688 16.6853 172.88 16.2373 172.88 15.64C172.88 15.032 172.688 14.6107 172.304 14.376C171.931 14.1413 171.387 14.024 170.672 14.024H169.184V17.432ZM176.797 23V12.536H178.893L180.749 17.656C180.866 17.9867 180.978 18.328 181.085 18.68C181.191 19.0213 181.303 19.3627 181.421 19.704H181.485C181.602 19.3627 181.709 19.0213 181.805 18.68C181.911 18.328 182.023 17.9867 182.141 17.656L183.949 12.536H186.061V23H184.349V18.216C184.349 17.9707 184.354 17.704 184.365 17.416C184.386 17.128 184.407 16.84 184.429 16.552C184.45 16.2533 184.477 15.9653 184.509 15.688C184.541 15.4 184.567 15.1333 184.589 14.888H184.525L183.677 17.32L181.965 22.024H180.861L179.133 17.32L178.301 14.888H178.237C178.258 15.1333 178.279 15.4 178.301 15.688C178.333 15.9653 178.359 16.2533 178.381 16.552C178.413 16.84 178.434 17.128 178.445 17.416C178.466 17.704 178.477 17.9707 178.477 18.216V23H176.797ZM188.719 23V12.536H190.575V23H188.719ZM195.346 23V14.104H192.322V12.536H200.226V14.104H197.202V23H195.346ZM205.252 23L205.636 19.88H204.404V18.664H205.764L206.02 16.6H204.724V15.384H206.18L206.532 12.6H207.636L207.3 15.384H209.172L209.54 12.6H210.628L210.292 15.384H211.572V16.6H210.148L209.892 18.664H211.252V19.88H209.748L209.38 23H208.26L208.628 19.88H206.756L206.372 23H205.252ZM206.884 18.664H208.772L209.028 16.6H207.14L206.884 18.664ZM216.143 23.192C215.076 23.192 214.234 22.7387 213.615 21.832C212.996 20.9147 212.687 19.592 212.687 17.864C212.687 16.136 212.996 14.8347 213.615 13.96C214.234 13.0747 215.076 12.632 216.143 12.632C217.21 12.632 218.052 13.0747 218.671 13.96C219.29 14.8453 219.599 16.1467 219.599 17.864C219.599 19.592 219.29 20.9147 218.671 21.832C218.052 22.7387 217.21 23.192 216.143 23.192ZM216.143 21.752C216.388 21.752 216.612 21.688 216.815 21.56C217.028 21.4213 217.21 21.1973 217.359 20.888C217.508 20.5787 217.626 20.1787 217.711 19.688C217.796 19.1973 217.839 18.5893 217.839 17.864C217.839 17.1493 217.796 16.552 217.711 16.072C217.626 15.5813 217.508 15.1867 217.359 14.888C217.21 14.5893 217.028 14.3813 216.815 14.264C216.612 14.136 216.388 14.072 216.143 14.072C215.898 14.072 215.668 14.136 215.455 14.264C215.252 14.3813 215.076 14.5893 214.927 14.888C214.778 15.1867 214.66 15.5813 214.575 16.072C214.49 16.552 214.447 17.1493 214.447 17.864C214.447 18.5893 214.49 19.1973 214.575 19.688C214.66 20.1787 214.778 20.5787 214.927 20.888C215.076 21.1973 215.252 21.4213 215.455 21.56C215.668 21.688 215.898 21.752 216.143 21.752ZM224.362 23.192C223.861 23.192 223.397 23.1227 222.97 22.984C222.554 22.8453 222.191 22.6533 221.882 22.408C221.583 22.1627 221.343 21.8693 221.162 21.528C220.991 21.1867 220.906 20.808 220.906 20.392C220.906 20.072 220.954 19.784 221.05 19.528C221.157 19.2613 221.295 19.0213 221.466 18.808C221.637 18.5947 221.829 18.4027 222.042 18.232C222.266 18.0613 222.501 17.912 222.746 17.784V17.72C222.351 17.4427 222.015 17.112 221.738 16.728C221.471 16.344 221.338 15.88 221.338 15.336C221.338 14.92 221.413 14.5467 221.562 14.216C221.722 13.8853 221.935 13.6027 222.202 13.368C222.479 13.1333 222.805 12.952 223.178 12.824C223.562 12.696 223.973 12.632 224.41 12.632C224.869 12.632 225.279 12.7013 225.642 12.84C226.015 12.968 226.33 13.1547 226.586 13.4C226.853 13.6347 227.055 13.9227 227.194 14.264C227.333 14.5947 227.402 14.968 227.402 15.384C227.402 15.64 227.359 15.8853 227.274 16.12C227.199 16.344 227.098 16.5573 226.97 16.76C226.842 16.952 226.693 17.1333 226.522 17.304C226.362 17.464 226.202 17.6027 226.042 17.72V17.784C226.277 17.912 226.501 18.0613 226.714 18.232C226.927 18.392 227.114 18.5787 227.274 18.792C227.434 19.0053 227.562 19.2453 227.658 19.512C227.754 19.7787 227.802 20.0827 227.802 20.424C227.802 20.8187 227.717 21.1867 227.546 21.528C227.386 21.8587 227.157 22.152 226.858 22.408C226.559 22.6533 226.197 22.8453 225.77 22.984C225.343 23.1227 224.874 23.192 224.362 23.192ZM225.034 17.256C225.311 16.9787 225.519 16.696 225.658 16.408C225.807 16.12 225.882 15.816 225.882 15.496C225.882 15.048 225.749 14.68 225.482 14.392C225.226 14.0933 224.858 13.944 224.378 13.944C223.983 13.944 223.653 14.0667 223.386 14.312C223.119 14.5467 222.986 14.888 222.986 15.336C222.986 15.592 223.039 15.816 223.146 16.008C223.253 16.2 223.397 16.3707 223.578 16.52C223.77 16.6587 223.989 16.792 224.234 16.92C224.479 17.0373 224.746 17.1493 225.034 17.256ZM224.394 21.88C224.885 21.88 225.285 21.7467 225.594 21.48C225.914 21.2133 226.074 20.84 226.074 20.36C226.074 20.0827 226.01 19.848 225.882 19.656C225.754 19.4533 225.578 19.2773 225.354 19.128C225.141 18.968 224.885 18.824 224.586 18.696C224.287 18.568 223.967 18.4347 223.626 18.296C223.306 18.5307 223.039 18.808 222.826 19.128C222.623 19.448 222.522 19.8053 222.522 20.2C222.522 20.712 222.703 21.1227 223.066 21.432C223.429 21.7307 223.871 21.88 224.394 21.88ZM230.661 17.72C230.32 17.72 230.032 17.6027 229.797 17.368C229.573 17.1333 229.461 16.8347 229.461 16.472C229.461 16.1093 229.573 15.8107 229.797 15.576C230.032 15.3413 230.32 15.224 230.661 15.224C231.002 15.224 231.285 15.3413 231.509 15.576C231.733 15.8107 231.845 16.1093 231.845 16.472C231.845 16.8347 231.733 17.1333 231.509 17.368C231.285 17.6027 231.002 17.72 230.661 17.72ZM230.661 23.192C230.32 23.192 230.032 23.0747 229.797 22.84C229.573 22.6053 229.461 22.3067 229.461 21.944C229.461 21.5813 229.573 21.2827 229.797 21.048C230.032 20.8133 230.32 20.696 230.661 20.696C231.002 20.696 231.285 20.8133 231.509 21.048C231.733 21.2827 231.845 21.5813 231.845 21.944C231.845 22.3067 231.733 22.6053 231.509 22.84C231.285 23.0747 231.002 23.192 230.661 23.192ZM239.503 23V14.104H236.479V12.536H244.383V14.104H241.359V23H239.503ZM245.262 23V15.144H246.782L246.91 16.536H246.974C247.251 16.024 247.587 15.6347 247.982 15.368C248.376 15.0907 248.782 14.952 249.198 14.952C249.571 14.952 249.87 15.0053 250.094 15.112L249.774 16.712C249.635 16.6693 249.507 16.6373 249.39 16.616C249.272 16.5947 249.128 16.584 248.958 16.584C248.648 16.584 248.323 16.7067 247.982 16.952C247.64 17.1867 247.347 17.6027 247.102 18.2V23H245.262ZM252.713 23.192C252.019 23.192 251.459 22.984 251.033 22.568C250.606 22.1413 250.393 21.5813 250.393 20.888C250.393 20.472 250.478 20.104 250.649 19.784C250.83 19.4533 251.107 19.1707 251.481 18.936C251.865 18.7013 252.345 18.504 252.921 18.344C253.507 18.184 254.206 18.0613 255.017 17.976C255.006 17.7733 254.974 17.5813 254.921 17.4C254.878 17.208 254.798 17.0427 254.681 16.904C254.574 16.7547 254.43 16.6427 254.249 16.568C254.067 16.4827 253.843 16.44 253.577 16.44C253.193 16.44 252.814 16.5147 252.441 16.664C252.078 16.8133 251.721 16.9947 251.369 17.208L250.697 15.976C251.134 15.6987 251.625 15.4587 252.169 15.256C252.713 15.0533 253.299 14.952 253.929 14.952C254.91 14.952 255.641 15.2453 256.121 15.832C256.611 16.408 256.857 17.2453 256.857 18.344V23H255.337L255.209 22.136H255.145C254.793 22.4347 254.414 22.6853 254.009 22.888C253.614 23.0907 253.182 23.192 252.713 23.192ZM253.305 21.752C253.625 21.752 253.913 21.6773 254.169 21.528C254.435 21.3787 254.718 21.1653 255.017 20.888V19.128C254.483 19.192 254.035 19.2773 253.673 19.384C253.31 19.4907 253.017 19.6133 252.793 19.752C252.569 19.88 252.409 20.0293 252.313 20.2C252.217 20.3707 252.169 20.552 252.169 20.744C252.169 21.096 252.275 21.352 252.489 21.512C252.702 21.672 252.974 21.752 253.305 21.752ZM262.339 23.192C261.805 23.192 261.304 23.1013 260.835 22.92C260.376 22.7387 259.976 22.472 259.635 22.12C259.293 21.768 259.027 21.336 258.835 20.824C258.643 20.312 258.547 19.7307 258.547 19.08C258.547 18.4293 258.653 17.848 258.867 17.336C259.08 16.824 259.368 16.392 259.731 16.04C260.093 15.688 260.509 15.4213 260.979 15.24C261.459 15.048 261.96 14.952 262.483 14.952C262.995 14.952 263.432 15.0373 263.795 15.208C264.168 15.3787 264.499 15.5867 264.787 15.832L263.891 17.032C263.677 16.8507 263.464 16.712 263.251 16.616C263.048 16.5093 262.824 16.456 262.579 16.456C261.939 16.456 261.421 16.696 261.027 17.176C260.632 17.6453 260.435 18.28 260.435 19.08C260.435 19.8693 260.627 20.504 261.011 20.984C261.405 21.4533 261.912 21.688 262.531 21.688C262.84 21.688 263.128 21.624 263.395 21.496C263.672 21.3573 263.923 21.1973 264.147 21.016L264.899 22.232C264.525 22.552 264.115 22.792 263.667 22.952C263.229 23.112 262.787 23.192 262.339 23.192ZM269.419 23.192C268.875 23.192 268.368 23.1013 267.899 22.92C267.429 22.728 267.019 22.456 266.667 22.104C266.315 21.752 266.037 21.3253 265.835 20.824C265.643 20.312 265.547 19.7307 265.547 19.08C265.547 18.44 265.648 17.864 265.851 17.352C266.053 16.84 266.32 16.408 266.651 16.056C266.992 15.704 267.381 15.432 267.819 15.24C268.256 15.048 268.704 14.952 269.163 14.952C269.696 14.952 270.165 15.0427 270.571 15.224C270.976 15.4053 271.312 15.6613 271.579 15.992C271.856 16.3227 272.064 16.7173 272.203 17.176C272.341 17.6347 272.411 18.136 272.411 18.68C272.411 18.8613 272.4 19.032 272.379 19.192C272.368 19.352 272.352 19.48 272.331 19.576H267.339C267.424 20.28 267.669 20.824 268.075 21.208C268.491 21.5813 269.019 21.768 269.659 21.768C270 21.768 270.315 21.72 270.603 21.624C270.901 21.5173 271.195 21.3733 271.483 21.192L272.107 22.344C271.733 22.5893 271.317 22.792 270.859 22.952C270.4 23.112 269.92 23.192 269.419 23.192ZM267.323 18.328H270.811C270.811 17.72 270.677 17.2453 270.411 16.904C270.155 16.552 269.755 16.376 269.211 16.376C268.741 16.376 268.331 16.5413 267.979 16.872C267.627 17.2027 267.408 17.688 267.323 18.328ZM274.168 23V15.144H275.688L275.816 16.536H275.88C276.157 16.024 276.493 15.6347 276.888 15.368C277.283 15.0907 277.688 14.952 278.104 14.952C278.477 14.952 278.776 15.0053 279 15.112L278.68 16.712C278.541 16.6693 278.413 16.6373 278.296 16.616C278.179 16.5947 278.035 16.584 277.864 16.584C277.555 16.584 277.229 16.7067 276.888 16.952C276.547 17.1867 276.253 17.6027 276.008 18.2V23H274.168ZM283.5 23V12.536H286.796C287.372 12.536 287.905 12.5893 288.396 12.696C288.897 12.8027 289.329 12.984 289.692 13.24C290.055 13.496 290.337 13.832 290.54 14.248C290.743 14.6533 290.844 15.16 290.844 15.768C290.844 16.344 290.743 16.8453 290.54 17.272C290.337 17.6987 290.055 18.056 289.692 18.344C289.34 18.6213 288.919 18.8293 288.428 18.968C287.948 19.096 287.425 19.16 286.86 19.16H285.356V23H283.5ZM285.356 17.672H286.716C288.252 17.672 289.02 17.0373 289.02 15.768C289.02 15.1067 288.817 14.6533 288.412 14.408C288.017 14.152 287.431 14.024 286.652 14.024H285.356V17.672ZM295.653 23.192C295.109 23.192 294.602 23.1013 294.133 22.92C293.664 22.728 293.253 22.456 292.901 22.104C292.549 21.752 292.272 21.3253 292.069 20.824C291.877 20.312 291.781 19.7307 291.781 19.08C291.781 18.44 291.882 17.864 292.085 17.352C292.288 16.84 292.554 16.408 292.885 16.056C293.226 15.704 293.616 15.432 294.053 15.24C294.49 15.048 294.938 14.952 295.397 14.952C295.93 14.952 296.4 15.0427 296.805 15.224C297.21 15.4053 297.546 15.6613 297.813 15.992C298.09 16.3227 298.298 16.7173 298.437 17.176C298.576 17.6347 298.645 18.136 298.645 18.68C298.645 18.8613 298.634 19.032 298.613 19.192C298.602 19.352 298.586 19.48 298.565 19.576H293.573C293.658 20.28 293.904 20.824 294.309 21.208C294.725 21.5813 295.253 21.768 295.893 21.768C296.234 21.768 296.549 21.72 296.837 21.624C297.136 21.5173 297.429 21.3733 297.717 21.192L298.341 22.344C297.968 22.5893 297.552 22.792 297.093 22.952C296.634 23.112 296.154 23.192 295.653 23.192ZM293.557 18.328H297.045C297.045 17.72 296.912 17.2453 296.645 16.904C296.389 16.552 295.989 16.376 295.445 16.376C294.976 16.376 294.565 16.5413 294.213 16.872C293.861 17.2027 293.642 17.688 293.557 18.328ZM300.402 23V15.144H301.922L302.05 16.536H302.114C302.392 16.024 302.728 15.6347 303.122 15.368C303.517 15.0907 303.922 14.952 304.338 14.952C304.712 14.952 305.01 15.0053 305.234 15.112L304.914 16.712C304.776 16.6693 304.648 16.6373 304.53 16.616C304.413 16.5947 304.269 16.584 304.098 16.584C303.789 16.584 303.464 16.7067 303.122 16.952C302.781 17.1867 302.488 17.6027 302.242 18.2V23H300.402ZM306.371 26.104V15.144H307.891L308.019 15.976H308.083C308.414 15.6987 308.782 15.4587 309.187 15.256C309.592 15.0533 310.014 14.952 310.451 14.952C310.942 14.952 311.374 15.048 311.747 15.24C312.131 15.4213 312.456 15.688 312.723 16.04C312.99 16.392 313.192 16.8133 313.331 17.304C313.47 17.7947 313.539 18.344 313.539 18.952C313.539 19.624 313.443 20.2267 313.251 20.76C313.07 21.2827 312.824 21.7253 312.515 22.088C312.206 22.44 311.848 22.712 311.443 22.904C311.038 23.096 310.616 23.192 310.179 23.192C309.838 23.192 309.496 23.1173 309.155 22.968C308.814 22.8187 308.483 22.6053 308.163 22.328L308.211 23.64V26.104H306.371ZM309.795 21.672C310.318 21.672 310.755 21.448 311.107 21C311.459 20.5413 311.635 19.864 311.635 18.968C311.635 18.1787 311.502 17.5653 311.235 17.128C310.968 16.6907 310.536 16.472 309.939 16.472C309.384 16.472 308.808 16.7653 308.211 17.352V21.016C308.499 21.2613 308.776 21.432 309.043 21.528C309.31 21.624 309.56 21.672 309.795 21.672ZM318.762 23.192C318.218 23.192 317.712 23.1013 317.242 22.92C316.773 22.728 316.362 22.456 316.01 22.104C315.658 21.752 315.381 21.3253 315.178 20.824C314.986 20.312 314.89 19.7307 314.89 19.08C314.89 18.44 314.992 17.864 315.194 17.352C315.397 16.84 315.664 16.408 315.994 16.056C316.336 15.704 316.725 15.432 317.162 15.24C317.6 15.048 318.048 14.952 318.506 14.952C319.04 14.952 319.509 15.0427 319.914 15.224C320.32 15.4053 320.656 15.6613 320.922 15.992C321.2 16.3227 321.408 16.7173 321.546 17.176C321.685 17.6347 321.754 18.136 321.754 18.68C321.754 18.8613 321.744 19.032 321.722 19.192C321.712 19.352 321.696 19.48 321.674 19.576H316.682C316.768 20.28 317.013 20.824 317.418 21.208C317.834 21.5813 318.362 21.768 319.002 21.768C319.344 21.768 319.658 21.72 319.946 21.624C320.245 21.5173 320.538 21.3733 320.826 21.192L321.45 22.344C321.077 22.5893 320.661 22.792 320.202 22.952C319.744 23.112 319.264 23.192 318.762 23.192ZM316.666 18.328H320.154C320.154 17.72 320.021 17.2453 319.754 16.904C319.498 16.552 319.098 16.376 318.554 16.376C318.085 16.376 317.674 16.5413 317.322 16.872C316.97 17.2027 316.752 17.688 316.666 18.328ZM326.124 23.192C325.665 23.192 325.276 23.1227 324.956 22.984C324.646 22.8453 324.39 22.6533 324.188 22.408C323.996 22.152 323.852 21.8533 323.756 21.512C323.67 21.16 323.628 20.7707 323.628 20.344V16.6H322.508V15.224L323.724 15.144L323.948 13H325.484V15.144H327.484V16.6H325.484V20.344C325.484 21.2613 325.852 21.72 326.588 21.72C326.726 21.72 326.865 21.704 327.004 21.672C327.153 21.64 327.286 21.5973 327.404 21.544L327.724 22.904C327.51 22.9787 327.265 23.0427 326.988 23.096C326.721 23.16 326.433 23.192 326.124 23.192ZM331.473 23.192C330.63 23.192 330.017 22.9253 329.633 22.392C329.249 21.848 329.057 21.0747 329.057 20.072V15.144H330.897V19.832C330.897 20.4827 330.993 20.9413 331.185 21.208C331.377 21.4747 331.686 21.608 332.113 21.608C332.454 21.608 332.753 21.5227 333.009 21.352C333.275 21.1813 333.558 20.904 333.857 20.52V15.144H335.697V23H334.193L334.049 21.848H334.001C333.659 22.2533 333.286 22.5787 332.881 22.824C332.486 23.0693 332.017 23.192 331.473 23.192ZM339.931 23.192C339.238 23.192 338.678 22.984 338.251 22.568C337.825 22.1413 337.611 21.5813 337.611 20.888C337.611 20.472 337.697 20.104 337.867 19.784C338.049 19.4533 338.326 19.1707 338.699 18.936C339.083 18.7013 339.563 18.504 340.139 18.344C340.726 18.184 341.425 18.0613 342.235 17.976C342.225 17.7733 342.193 17.5813 342.139 17.4C342.097 17.208 342.017 17.0427 341.899 16.904C341.793 16.7547 341.649 16.6427 341.467 16.568C341.286 16.4827 341.062 16.44 340.795 16.44C340.411 16.44 340.033 16.5147 339.659 16.664C339.297 16.8133 338.939 16.9947 338.587 17.208L337.915 15.976C338.353 15.6987 338.843 15.4587 339.387 15.256C339.931 15.0533 340.518 14.952 341.147 14.952C342.129 14.952 342.859 15.2453 343.339 15.832C343.83 16.408 344.075 17.2453 344.075 18.344V23H342.555L342.427 22.136H342.363C342.011 22.4347 341.633 22.6853 341.227 22.888C340.833 23.0907 340.401 23.192 339.931 23.192ZM340.523 21.752C340.843 21.752 341.131 21.6773 341.387 21.528C341.654 21.3787 341.937 21.1653 342.235 20.888V19.128C341.702 19.192 341.254 19.2773 340.891 19.384C340.529 19.4907 340.235 19.6133 340.011 19.752C339.787 19.88 339.627 20.0293 339.531 20.2C339.435 20.3707 339.387 20.552 339.387 20.744C339.387 21.096 339.494 21.352 339.707 21.512C339.921 21.672 340.193 21.752 340.523 21.752ZM348.069 23.192C347.408 23.192 346.944 22.9947 346.677 22.6C346.411 22.2053 346.277 21.6667 346.277 20.984V11.704H348.117V21.08C348.117 21.304 348.16 21.464 348.245 21.56C348.331 21.6453 348.421 21.688 348.517 21.688C348.56 21.688 348.597 21.688 348.629 21.688C348.672 21.688 348.731 21.6773 348.805 21.656L349.045 23.032C348.8 23.1387 348.475 23.192 348.069 23.192ZM351.661 23.192C351.32 23.192 351.032 23.0747 350.797 22.84C350.573 22.6053 350.461 22.3067 350.461 21.944C350.461 21.5813 350.573 21.2827 350.797 21.048C351.032 20.8133 351.32 20.696 351.661 20.696C352.002 20.696 352.285 20.8133 352.509 21.048C352.733 21.2827 352.845 21.5813 352.845 21.944C352.845 22.3067 352.733 22.6053 352.509 22.84C352.285 23.0747 352.002 23.192 351.661 23.192ZM356.067 23.192C355.726 23.192 355.438 23.0747 355.203 22.84C354.979 22.6053 354.867 22.3067 354.867 21.944C354.867 21.5813 354.979 21.2827 355.203 21.048C355.438 20.8133 355.726 20.696 356.067 20.696C356.409 20.696 356.691 20.8133 356.915 21.048C357.139 21.2827 357.251 21.5813 357.251 21.944C357.251 22.3067 357.139 22.6053 356.915 22.84C356.691 23.0747 356.409 23.192 356.067 23.192ZM360.474 23.192C360.132 23.192 359.844 23.0747 359.61 22.84C359.386 22.6053 359.274 22.3067 359.274 21.944C359.274 21.5813 359.386 21.2827 359.61 21.048C359.844 20.8133 360.132 20.696 360.474 20.696C360.815 20.696 361.098 20.8133 361.322 21.048C361.546 21.2827 361.658 21.5813 361.658 21.944C361.658 22.3067 361.546 22.6053 361.322 22.84C361.098 23.0747 360.815 23.192 360.474 23.192Z" fill="white"/>
<g style="mix-blend-mode:multiply" opacity="0.5">
<rect y="179" width="162" height="31" fill="black"/>
</g>
<path fill-rule="evenodd" clip-rule="evenodd" d="M97.6895 188.52C97.4113 187.452 96.5914 186.61 95.5503 186.324C93.6636 185.805 86.0976 185.805 86.0976 185.805C86.0976 185.805 78.5315 185.805 76.6447 186.324C75.6036 186.61 74.7837 187.452 74.5055 188.52C74 190.458 74 194.5 74 194.5C74 194.5 74 198.542 74.5055 200.48C74.7837 201.549 75.6036 202.39 76.6447 202.676C78.5315 203.195 86.0976 203.195 86.0976 203.195C86.0976 203.195 93.6636 203.195 95.5503 202.676C96.5914 202.39 97.4113 201.549 97.6895 200.48C98.1951 198.542 98.1951 194.5 98.1951 194.5C98.1951 194.5 98.1951 190.458 97.6895 188.52Z" fill="white"/>
<path fill-rule="evenodd" clip-rule="evenodd" d="M83.8301 198.659V191.098L89.8789 194.878L83.8301 198.659Z" fill="black"/>
<path d="M106.466 194.079L108.255 190.204H110.193L107.369 195.686V198.805H105.568V195.686L102.744 190.204H104.688L106.466 194.079ZM110.211 195.55C110.211 194.916 110.333 194.351 110.577 193.855C110.821 193.359 111.172 192.975 111.628 192.703C112.089 192.431 112.623 192.295 113.229 192.295C114.092 192.295 114.795 192.559 115.338 193.087C115.885 193.615 116.191 194.331 116.254 195.237L116.265 195.674C116.265 196.655 115.992 197.442 115.444 198.037C114.897 198.628 114.162 198.923 113.241 198.923C112.32 198.923 111.583 198.628 111.032 198.037C110.484 197.446 110.211 196.643 110.211 195.627V195.55ZM111.918 195.674C111.918 196.281 112.032 196.745 112.26 197.068C112.489 197.387 112.816 197.547 113.241 197.547C113.654 197.547 113.977 197.389 114.21 197.074C114.442 196.755 114.558 196.247 114.558 195.55C114.558 194.956 114.442 194.495 114.21 194.168C113.977 193.841 113.651 193.678 113.229 193.678C112.812 193.678 112.489 193.841 112.26 194.168C112.032 194.491 111.918 194.993 111.918 195.674ZM121.145 198.155C120.723 198.667 120.14 198.923 119.396 198.923C118.711 198.923 118.187 198.726 117.825 198.332C117.466 197.939 117.283 197.362 117.275 196.602V192.414H118.983V196.543C118.983 197.208 119.286 197.541 119.892 197.541C120.471 197.541 120.869 197.34 121.086 196.938V192.414H122.799V198.805H121.192L121.145 198.155ZM130.673 191.64H128.038V198.805H126.266V191.64H123.667V190.204H130.673V191.64ZM135.014 198.155C134.593 198.667 134.01 198.923 133.266 198.923C132.581 198.923 132.057 198.726 131.695 198.332C131.336 197.939 131.153 197.362 131.145 196.602V192.414H132.852V196.543C132.852 197.208 133.156 197.541 133.762 197.541C134.341 197.541 134.739 197.34 134.955 196.938V192.414H136.668V198.805H135.061L135.014 198.155ZM143.715 195.668C143.715 196.692 143.497 197.492 143.06 198.067C142.622 198.638 142.012 198.923 141.228 198.923C140.535 198.923 139.982 198.657 139.569 198.126L139.492 198.805H137.956V189.732H139.663V192.987C140.057 192.526 140.575 192.295 141.217 192.295C141.996 192.295 142.607 192.583 143.048 193.158C143.493 193.729 143.715 194.534 143.715 195.574V195.668ZM142.008 195.544C142.008 194.898 141.906 194.428 141.701 194.132C141.496 193.833 141.191 193.684 140.785 193.684C140.242 193.684 139.868 193.906 139.663 194.351V196.873C139.872 197.322 140.25 197.547 140.797 197.547C141.349 197.547 141.711 197.275 141.884 196.732C141.967 196.472 142.008 196.076 142.008 195.544ZM147.714 198.923C146.777 198.923 146.013 198.636 145.422 198.061C144.836 197.486 144.542 196.72 144.542 195.763V195.597C144.542 194.956 144.666 194.383 144.914 193.878C145.162 193.37 145.513 192.981 145.966 192.709C146.423 192.433 146.942 192.295 147.525 192.295C148.4 192.295 149.087 192.571 149.587 193.122C150.091 193.674 150.343 194.455 150.343 195.467V196.164H146.273C146.328 196.582 146.494 196.917 146.769 197.169C147.049 197.421 147.401 197.547 147.827 197.547C148.484 197.547 148.998 197.308 149.368 196.832L150.207 197.771C149.951 198.134 149.605 198.417 149.167 198.622C148.73 198.823 148.246 198.923 147.714 198.923ZM147.519 193.678C147.181 193.678 146.905 193.792 146.692 194.02C146.484 194.249 146.35 194.576 146.291 195.001H148.665V194.865C148.657 194.487 148.555 194.195 148.358 193.991C148.161 193.782 147.882 193.678 147.519 193.678Z" fill="white"/>
<path d="M17.2193 196.094L17.3847 197.228L17.6269 196.206L19.3281 190.204H20.285L21.9449 196.206L22.1812 197.245L22.3643 196.088L23.6993 190.204H24.8393L22.7542 198.805H21.7204L19.9483 192.538L19.8125 191.882L19.6766 192.538L17.8395 198.805H16.8058L14.7265 190.204H15.8607L17.2193 196.094ZM29.6772 198.805C29.6142 198.679 29.563 198.454 29.5236 198.132C29.0156 198.659 28.4091 198.923 27.7042 198.923C27.0742 198.923 26.5563 198.746 26.1507 198.391C25.749 198.033 25.5482 197.58 25.5482 197.033C25.5482 196.367 25.8002 195.851 26.3043 195.485C26.8123 195.115 27.5251 194.93 28.4426 194.93H29.5059V194.428C29.5059 194.046 29.3917 193.743 29.1633 193.518C28.9349 193.29 28.5982 193.176 28.1532 193.176C27.7633 193.176 27.4365 193.274 27.1726 193.471C26.9088 193.668 26.7768 193.906 26.7768 194.186H25.6781C25.6781 193.867 25.7904 193.56 26.0148 193.264C26.2432 192.965 26.5504 192.729 26.9363 192.555C27.3262 192.382 27.7535 192.295 28.2182 192.295C28.9546 192.295 29.5315 192.48 29.9489 192.851C30.3663 193.217 30.5829 193.723 30.5987 194.369V197.31C30.5987 197.897 30.6735 198.364 30.8231 198.71V198.805H29.6772ZM27.8637 197.972C28.2063 197.972 28.5312 197.883 28.8384 197.706C29.1456 197.529 29.3681 197.299 29.5059 197.015V195.704H28.6494C27.3104 195.704 26.641 196.096 26.641 196.879C26.641 197.222 26.7552 197.49 26.9836 197.683C27.212 197.876 27.5054 197.972 27.8637 197.972ZM33.7944 190.866V192.414H34.9876V193.258H33.7944V197.222C33.7944 197.478 33.8475 197.671 33.9539 197.801C34.0602 197.927 34.2413 197.99 34.4973 197.99C34.6233 197.99 34.7966 197.966 35.0171 197.919V198.805C34.7297 198.884 34.4501 198.923 34.1783 198.923C33.69 198.923 33.3218 198.775 33.0737 198.48C32.8256 198.185 32.7016 197.765 32.7016 197.222V193.258H31.5379V192.414H32.7016V190.866H33.7944ZM38.8331 198.031C39.2229 198.031 39.5636 197.913 39.855 197.677C40.1464 197.44 40.3078 197.145 40.3393 196.791H41.3731C41.3534 197.157 41.2274 197.505 40.995 197.836C40.7627 198.167 40.4516 198.431 40.0617 198.628C39.6758 198.825 39.2662 198.923 38.8331 198.923C37.9628 198.923 37.2697 198.634 36.7538 198.055C36.2418 197.472 35.9859 196.676 35.9859 195.668V195.485C35.9859 194.863 36.1001 194.31 36.3285 193.825C36.5569 193.341 36.8837 192.965 37.309 192.697C37.7383 192.429 38.2443 192.295 38.8271 192.295C39.5439 192.295 40.1385 192.51 40.6111 192.939C41.0876 193.369 41.3416 193.926 41.3731 194.611H40.3393C40.3078 194.197 40.1503 193.859 39.8668 193.595C39.5872 193.327 39.2406 193.193 38.8271 193.193C38.2719 193.193 37.8407 193.394 37.5335 193.796C37.2303 194.194 37.0787 194.77 37.0787 195.527V195.733C37.0787 196.47 37.2303 197.037 37.5335 197.435C37.8367 197.832 38.2699 198.031 38.8331 198.031ZM43.6945 193.187C44.1789 192.593 44.809 192.295 45.5848 192.295C46.9355 192.295 47.6168 193.057 47.6286 194.581V198.805H46.5358V194.576C46.5319 194.115 46.4255 193.774 46.2168 193.554C46.012 193.333 45.6911 193.223 45.254 193.223C44.8996 193.223 44.5885 193.317 44.3207 193.506C44.0529 193.695 43.8442 193.943 43.6945 194.251V198.805H42.6017V189.732H43.6945V193.187ZM51.9762 195.55C51.9762 194.924 52.0982 194.361 52.3424 193.861C52.5905 193.361 52.9331 192.975 53.3702 192.703C53.8113 192.431 54.3134 192.295 54.8765 192.295C55.7468 192.295 56.4497 192.597 56.9853 193.199C57.5248 193.802 57.7946 194.603 57.7946 195.603V195.68C57.7946 196.302 57.6745 196.862 57.4342 197.358C57.198 197.85 56.8573 198.234 56.4123 198.51C55.9713 198.785 55.4633 198.923 54.8883 198.923C54.022 198.923 53.319 198.622 52.7795 198.019C52.2439 197.417 51.9762 196.619 51.9762 195.627V195.55ZM53.0749 195.68C53.0749 196.389 53.2383 196.958 53.5651 197.387C53.8959 197.816 54.337 198.031 54.8883 198.031C55.4436 198.031 55.8846 197.815 56.2115 197.381C56.5383 196.944 56.7018 196.334 56.7018 195.55C56.7018 194.849 56.5344 194.282 56.1997 193.849C55.8689 193.412 55.4278 193.193 54.8765 193.193C54.337 193.193 53.9018 193.408 53.571 193.837C53.2403 194.266 53.0749 194.881 53.0749 195.68ZM60.1987 192.414L60.2342 193.217C60.7225 192.603 61.3604 192.295 62.148 192.295C63.4988 192.295 64.18 193.057 64.1919 194.581V198.805H63.0991V194.576C63.0951 194.115 62.9888 193.774 62.7801 193.554C62.5753 193.333 62.2544 193.223 61.8172 193.223C61.4628 193.223 61.1517 193.317 60.8839 193.506C60.6161 193.695 60.4074 193.943 60.2578 194.251V198.805H59.165V192.414H60.1987Z" fill="white"/>
</svg>
