<svg width="389" height="210" viewBox="0 0 389 210" fill="none" xmlns="http://www.w3.org/2000/svg">
<circle cx="25" cy="17" r="17" fill="#0D2BD3"/>
<path d="M35.0006 12.0029L25.6143 17.4253L35.0006 22.8419V21.4227L28.0824 17.4273L35.0006 13.4319V12.0029Z" fill="white"/>
<path d="M25.6208 12.0029H24.3867V22.8426H25.6208V12.0029Z" fill="white"/>
<path d="M15 13.429L21.9181 17.4243L15 21.4197V22.8389L24.3863 17.4223L15 12V13.429Z" fill="white"/>
<path d="M52.44 23V14.104H49.416V12.536H57.32V14.104H54.296V23H52.44ZM58.1993 23V15.144H59.7193L59.8473 16.536H59.9113C60.1886 16.024 60.5246 15.6347 60.9193 15.368C61.3139 15.0907 61.7193 14.952 62.1353 14.952C62.5086 14.952 62.8073 15.0053 63.0313 15.112L62.7113 16.712C62.5726 16.6693 62.4446 16.6373 62.3273 16.616C62.2099 16.5947 62.0659 16.584 61.8953 16.584C61.5859 16.584 61.2606 16.7067 60.9193 16.952C60.5779 17.1867 60.2846 17.6027 60.0393 18.2V23H58.1993ZM65.6501 23.192C64.9568 23.192 64.3968 22.984 63.9701 22.568C63.5435 22.1413 63.3301 21.5813 63.3301 20.888C63.3301 20.472 63.4155 20.104 63.5861 19.784C63.7675 19.4533 64.0448 19.1707 64.4181 18.936C64.8021 18.7013 65.2821 18.504 65.8581 18.344C66.4448 18.184 67.1435 18.0613 67.9541 17.976C67.9435 17.7733 67.9115 17.5813 67.8581 17.4C67.8155 17.208 67.7355 17.0427 67.6181 16.904C67.5115 16.7547 67.3675 16.6427 67.1861 16.568C67.0048 16.4827 66.7808 16.44 66.5141 16.44C66.1301 16.44 65.7515 16.5147 65.3781 16.664C65.0155 16.8133 64.6581 16.9947 64.3061 17.208L63.6341 15.976C64.0715 15.6987 64.5621 15.4587 65.1061 15.256C65.6501 15.0533 66.2368 14.952 66.8661 14.952C67.8475 14.952 68.5781 15.2453 69.0581 15.832C69.5488 16.408 69.7941 17.2453 69.7941 18.344V23H68.2741L68.1461 22.136H68.0821C67.7301 22.4347 67.3515 22.6853 66.9461 22.888C66.5515 23.0907 66.1195 23.192 65.6501 23.192ZM66.2421 21.752C66.5621 21.752 66.8501 21.6773 67.1061 21.528C67.3728 21.3787 67.6555 21.1653 67.9541 20.888V19.128C67.4208 19.192 66.9728 19.2773 66.6101 19.384C66.2475 19.4907 65.9541 19.6133 65.7301 19.752C65.5061 19.88 65.3461 20.0293 65.2501 20.2C65.1541 20.3707 65.1061 20.552 65.1061 20.744C65.1061 21.096 65.2128 21.352 65.4261 21.512C65.6395 21.672 65.9115 21.752 66.2421 21.752ZM75.2761 23.192C74.7428 23.192 74.2415 23.1013 73.7721 22.92C73.3135 22.7387 72.9135 22.472 72.5721 22.12C72.2308 21.768 71.9641 21.336 71.7721 20.824C71.5801 20.312 71.4841 19.7307 71.4841 19.08C71.4841 18.4293 71.5908 17.848 71.8041 17.336C72.0175 16.824 72.3055 16.392 72.6681 16.04C73.0308 15.688 73.4468 15.4213 73.9161 15.24C74.3961 15.048 74.8975 14.952 75.4201 14.952C75.9321 14.952 76.3695 15.0373 76.7321 15.208C77.1055 15.3787 77.4361 15.5867 77.7241 15.832L76.8281 17.032C76.6148 16.8507 76.4015 16.712 76.1881 16.616C75.9855 16.5093 75.7615 16.456 75.5161 16.456C74.8761 16.456 74.3588 16.696 73.9641 17.176C73.5695 17.6453 73.3721 18.28 73.3721 19.08C73.3721 19.8693 73.5641 20.504 73.9481 20.984C74.3428 21.4533 74.8495 21.688 75.4681 21.688C75.7775 21.688 76.0655 21.624 76.3321 21.496C76.6095 21.3573 76.8601 21.1973 77.0841 21.016L77.8361 22.232C77.4628 22.552 77.0521 22.792 76.6041 22.952C76.1668 23.112 75.7241 23.192 75.2761 23.192ZM82.3561 23.192C81.8121 23.192 81.3055 23.1013 80.8361 22.92C80.3668 22.728 79.9561 22.456 79.6041 22.104C79.2521 21.752 78.9748 21.3253 78.7721 20.824C78.5801 20.312 78.4841 19.7307 78.4841 19.08C78.4841 18.44 78.5855 17.864 78.7881 17.352C78.9908 16.84 79.2575 16.408 79.5881 16.056C79.9295 15.704 80.3188 15.432 80.7561 15.24C81.1935 15.048 81.6415 14.952 82.1001 14.952C82.6335 14.952 83.1028 15.0427 83.5081 15.224C83.9135 15.4053 84.2495 15.6613 84.5161 15.992C84.7935 16.3227 85.0015 16.7173 85.1401 17.176C85.2788 17.6347 85.3481 18.136 85.3481 18.68C85.3481 18.8613 85.3375 19.032 85.3161 19.192C85.3055 19.352 85.2895 19.48 85.2681 19.576H80.2761C80.3615 20.28 80.6068 20.824 81.0121 21.208C81.4281 21.5813 81.9561 21.768 82.5961 21.768C82.9375 21.768 83.2521 21.72 83.5401 21.624C83.8388 21.5173 84.1321 21.3733 84.4201 21.192L85.0441 22.344C84.6708 22.5893 84.2548 22.792 83.7961 22.952C83.3375 23.112 82.8575 23.192 82.3561 23.192ZM80.2601 18.328H83.7481C83.7481 17.72 83.6148 17.2453 83.3481 16.904C83.0921 16.552 82.6921 16.376 82.1481 16.376C81.6788 16.376 81.2681 16.5413 80.9161 16.872C80.5641 17.2027 80.3455 17.688 80.2601 18.328ZM87.1055 23V15.144H88.6255L88.7535 16.536H88.8175C89.0948 16.024 89.4308 15.6347 89.8255 15.368C90.2202 15.0907 90.6255 14.952 91.0415 14.952C91.4148 14.952 91.7135 15.0053 91.9375 15.112L91.6175 16.712C91.4788 16.6693 91.3508 16.6373 91.2335 16.616C91.1162 16.5947 90.9722 16.584 90.8015 16.584C90.4922 16.584 90.1668 16.7067 89.8255 16.952C89.4842 17.1867 89.1908 17.6027 88.9455 18.2V23H87.1055ZM96.4374 23V12.536H99.2374C100.837 12.536 102.085 12.968 102.981 13.832C103.877 14.696 104.325 15.992 104.325 17.72C104.325 18.584 104.208 19.3467 103.973 20.008C103.749 20.6693 103.419 21.224 102.981 21.672C102.555 22.1093 102.032 22.44 101.413 22.664C100.805 22.888 100.112 23 99.3334 23H96.4374ZM98.2934 21.496H99.1094C100.176 21.496 100.992 21.192 101.557 20.584C102.133 19.9653 102.421 19.0107 102.421 17.72C102.421 16.44 102.133 15.5067 101.557 14.92C100.981 14.3333 100.165 14.04 99.1094 14.04H98.2934V21.496ZM106.277 23V15.144H107.797L107.925 16.536H107.989C108.267 16.024 108.603 15.6347 108.997 15.368C109.392 15.0907 109.797 14.952 110.213 14.952C110.587 14.952 110.885 15.0053 111.109 15.112L110.789 16.712C110.651 16.6693 110.523 16.6373 110.405 16.616C110.288 16.5947 110.144 16.584 109.973 16.584C109.664 16.584 109.339 16.7067 108.997 16.952C108.656 17.1867 108.363 17.6027 108.117 18.2V23H106.277ZM115.306 23.192C114.815 23.192 114.346 23.1013 113.898 22.92C113.45 22.7387 113.05 22.472 112.698 22.12C112.357 21.768 112.085 21.336 111.882 20.824C111.679 20.312 111.578 19.7307 111.578 19.08C111.578 18.4293 111.679 17.848 111.882 17.336C112.085 16.824 112.357 16.392 112.698 16.04C113.05 15.688 113.45 15.4213 113.898 15.24C114.346 15.048 114.815 14.952 115.306 14.952C115.797 14.952 116.266 15.048 116.714 15.24C117.173 15.4213 117.573 15.688 117.914 16.04C118.255 16.392 118.527 16.824 118.73 17.336C118.943 17.848 119.05 18.4293 119.05 19.08C119.05 19.7307 118.943 20.312 118.73 20.824C118.527 21.336 118.255 21.768 117.914 22.12C117.573 22.472 117.173 22.7387 116.714 22.92C116.266 23.1013 115.797 23.192 115.306 23.192ZM115.306 21.688C115.882 21.688 116.335 21.4533 116.666 20.984C116.997 20.504 117.162 19.8693 117.162 19.08C117.162 18.28 116.997 17.6453 116.666 17.176C116.335 16.696 115.882 16.456 115.306 16.456C114.73 16.456 114.277 16.696 113.946 17.176C113.626 17.6453 113.466 18.28 113.466 19.08C113.466 19.8693 113.626 20.504 113.946 20.984C114.277 21.4533 114.73 21.688 115.306 21.688ZM120.871 26.104V15.144H122.391L122.519 15.976H122.583C122.914 15.6987 123.282 15.4587 123.687 15.256C124.092 15.0533 124.514 14.952 124.951 14.952C125.442 14.952 125.874 15.048 126.247 15.24C126.631 15.4213 126.956 15.688 127.223 16.04C127.49 16.392 127.692 16.8133 127.831 17.304C127.97 17.7947 128.039 18.344 128.039 18.952C128.039 19.624 127.943 20.2267 127.751 20.76C127.57 21.2827 127.324 21.7253 127.015 22.088C126.706 22.44 126.348 22.712 125.943 22.904C125.538 23.096 125.116 23.192 124.679 23.192C124.338 23.192 123.996 23.1173 123.655 22.968C123.314 22.8187 122.983 22.6053 122.663 22.328L122.711 23.64V26.104H120.871ZM124.295 21.672C124.818 21.672 125.255 21.448 125.607 21C125.959 20.5413 126.135 19.864 126.135 18.968C126.135 18.1787 126.002 17.5653 125.735 17.128C125.468 16.6907 125.036 16.472 124.439 16.472C123.884 16.472 123.308 16.7653 122.711 17.352V21.016C122.999 21.2613 123.276 21.432 123.543 21.528C123.81 21.624 124.06 21.672 124.295 21.672ZM134.402 23L132.322 15.144H134.178L135.122 19.224C135.207 19.5973 135.276 19.9707 135.33 20.344C135.394 20.7173 135.463 21.096 135.538 21.48H135.602C135.676 21.096 135.751 20.7173 135.826 20.344C135.911 19.9707 136.002 19.5973 136.098 19.224L137.122 15.144H138.802L139.842 19.224C139.938 19.5973 140.028 19.9707 140.114 20.344C140.199 20.7173 140.284 21.096 140.37 21.48H140.434C140.508 21.096 140.578 20.7173 140.642 20.344C140.706 19.9707 140.775 19.5973 140.85 19.224L141.794 15.144H143.522L141.522 23H139.33L138.418 19.336C138.332 18.9627 138.252 18.5947 138.178 18.232C138.103 17.8587 138.023 17.464 137.938 17.048H137.874C137.799 17.464 137.724 17.8587 137.65 18.232C137.575 18.6053 137.495 18.9787 137.41 19.352L136.514 23H134.402ZM145.074 23V15.144H146.914V23H145.074ZM146.002 13.768C145.672 13.768 145.4 13.672 145.186 13.48C144.973 13.288 144.866 13.0373 144.866 12.728C144.866 12.4187 144.973 12.168 145.186 11.976C145.4 11.7733 145.672 11.672 146.002 11.672C146.333 11.672 146.605 11.7733 146.818 11.976C147.032 12.168 147.138 12.4187 147.138 12.728C147.138 13.0373 147.032 13.288 146.818 13.48C146.605 13.672 146.333 13.768 146.002 13.768ZM152.03 23.192C151.571 23.192 151.182 23.1227 150.862 22.984C150.552 22.8453 150.296 22.6533 150.094 22.408C149.902 22.152 149.758 21.8533 149.662 21.512C149.576 21.16 149.534 20.7707 149.534 20.344V16.6H148.414V15.224L149.63 15.144L149.854 13H151.39V15.144H153.39V16.6H151.39V20.344C151.39 21.2613 151.758 21.72 152.494 21.72C152.632 21.72 152.771 21.704 152.91 21.672C153.059 21.64 153.192 21.5973 153.31 21.544L153.63 22.904C153.416 22.9787 153.171 23.0427 152.894 23.096C152.627 23.16 152.339 23.192 152.03 23.192ZM155.043 23V11.704H156.883V14.616L156.819 16.136C157.15 15.8267 157.512 15.5547 157.907 15.32C158.312 15.0747 158.787 14.952 159.331 14.952C160.174 14.952 160.787 15.224 161.171 15.768C161.555 16.3013 161.747 17.0693 161.747 18.072V23H159.907V18.312C159.907 17.6613 159.811 17.2027 159.619 16.936C159.427 16.6693 159.112 16.536 158.675 16.536C158.334 16.536 158.03 16.6213 157.763 16.792C157.507 16.952 157.214 17.192 156.883 17.512V23H155.043ZM167.328 23V12.536H170.864C171.408 12.536 171.915 12.5893 172.384 12.696C172.853 12.8027 173.259 12.9787 173.6 13.224C173.941 13.4587 174.208 13.7733 174.4 14.168C174.603 14.5627 174.704 15.0533 174.704 15.64C174.704 16.44 174.512 17.0853 174.128 17.576C173.755 18.0667 173.253 18.4187 172.624 18.632L175.12 23H173.04L170.784 18.904H169.184V23H167.328ZM169.184 17.432H170.672C171.387 17.432 171.931 17.2827 172.304 16.984C172.688 16.6853 172.88 16.2373 172.88 15.64C172.88 15.032 172.688 14.6107 172.304 14.376C171.931 14.1413 171.387 14.024 170.672 14.024H169.184V17.432ZM176.797 23V12.536H178.893L180.749 17.656C180.866 17.9867 180.978 18.328 181.085 18.68C181.191 19.0213 181.303 19.3627 181.421 19.704H181.485C181.602 19.3627 181.709 19.0213 181.805 18.68C181.911 18.328 182.023 17.9867 182.141 17.656L183.949 12.536H186.061V23H184.349V18.216C184.349 17.9707 184.354 17.704 184.365 17.416C184.386 17.128 184.407 16.84 184.429 16.552C184.45 16.2533 184.477 15.9653 184.509 15.688C184.541 15.4 184.567 15.1333 184.589 14.888H184.525L183.677 17.32L181.965 22.024H180.861L179.133 17.32L178.301 14.888H178.237C178.258 15.1333 178.279 15.4 178.301 15.688C178.333 15.9653 178.359 16.2533 178.381 16.552C178.413 16.84 178.434 17.128 178.445 17.416C178.466 17.704 178.477 17.9707 178.477 18.216V23H176.797ZM188.719 23V12.536H190.575V23H188.719ZM195.346 23V14.104H192.322V12.536H200.226V14.104H197.202V23H195.346ZM205.252 23L205.636 19.88H204.404V18.664H205.764L206.02 16.6H204.724V15.384H206.18L206.532 12.6H207.636L207.3 15.384H209.172L209.54 12.6H210.628L210.292 15.384H211.572V16.6H210.148L209.892 18.664H211.252V19.88H209.748L209.38 23H208.26L208.628 19.88H206.756L206.372 23H205.252ZM206.884 18.664H208.772L209.028 16.6H207.14L206.884 18.664ZM216.143 23.192C215.076 23.192 214.234 22.7387 213.615 21.832C212.996 20.9147 212.687 19.592 212.687 17.864C212.687 16.136 212.996 14.8347 213.615 13.96C214.234 13.0747 215.076 12.632 216.143 12.632C217.21 12.632 218.052 13.0747 218.671 13.96C219.29 14.8453 219.599 16.1467 219.599 17.864C219.599 19.592 219.29 20.9147 218.671 21.832C218.052 22.7387 217.21 23.192 216.143 23.192ZM216.143 21.752C216.388 21.752 216.612 21.688 216.815 21.56C217.028 21.4213 217.21 21.1973 217.359 20.888C217.508 20.5787 217.626 20.1787 217.711 19.688C217.796 19.1973 217.839 18.5893 217.839 17.864C217.839 17.1493 217.796 16.552 217.711 16.072C217.626 15.5813 217.508 15.1867 217.359 14.888C217.21 14.5893 217.028 14.3813 216.815 14.264C216.612 14.136 216.388 14.072 216.143 14.072C215.898 14.072 215.668 14.136 215.455 14.264C215.252 14.3813 215.076 14.5893 214.927 14.888C214.778 15.1867 214.66 15.5813 214.575 16.072C214.49 16.552 214.447 17.1493 214.447 17.864C214.447 18.5893 214.49 19.1973 214.575 19.688C214.66 20.1787 214.778 20.5787 214.927 20.888C215.076 21.1973 215.252 21.4213 215.455 21.56C215.668 21.688 215.898 21.752 216.143 21.752ZM224.154 17.784C224.453 17.784 224.762 17.6933 225.082 17.512C225.413 17.32 225.711 17.016 225.978 16.6C225.882 15.704 225.658 15.0533 225.306 14.648C224.965 14.2427 224.549 14.04 224.058 14.04C223.642 14.04 223.285 14.2053 222.986 14.536C222.687 14.8667 222.538 15.3413 222.538 15.96C222.538 16.568 222.677 17.0267 222.954 17.336C223.242 17.6347 223.642 17.784 224.154 17.784ZM223.722 23.192C223.114 23.192 222.586 23.08 222.138 22.856C221.69 22.632 221.311 22.36 221.002 22.04L221.994 20.92C222.186 21.144 222.426 21.3307 222.714 21.48C223.013 21.6187 223.317 21.688 223.626 21.688C223.946 21.688 224.245 21.624 224.522 21.496C224.81 21.368 225.061 21.16 225.274 20.872C225.487 20.5733 225.658 20.184 225.786 19.704C225.925 19.224 226.005 18.632 226.026 17.928C225.727 18.3013 225.375 18.5947 224.97 18.808C224.565 19.0107 224.175 19.112 223.802 19.112C223.365 19.112 222.965 19.048 222.602 18.92C222.239 18.792 221.925 18.6 221.658 18.344C221.402 18.0773 221.199 17.7467 221.05 17.352C220.911 16.9573 220.842 16.4933 220.842 15.96C220.842 15.448 220.927 14.9893 221.098 14.584C221.269 14.168 221.498 13.816 221.786 13.528C222.074 13.24 222.41 13.0213 222.794 12.872C223.189 12.712 223.605 12.632 224.042 12.632C224.533 12.632 225.002 12.7333 225.45 12.936C225.898 13.128 226.287 13.4267 226.618 13.832C226.959 14.2373 227.226 14.7547 227.418 15.384C227.621 16.0027 227.722 16.7387 227.722 17.592C227.722 18.584 227.61 19.432 227.386 20.136C227.173 20.84 226.879 21.4213 226.506 21.88C226.143 22.328 225.717 22.6587 225.226 22.872C224.746 23.0853 224.245 23.192 223.722 23.192ZM230.661 17.72C230.32 17.72 230.032 17.6027 229.797 17.368C229.573 17.1333 229.461 16.8347 229.461 16.472C229.461 16.1093 229.573 15.8107 229.797 15.576C230.032 15.3413 230.32 15.224 230.661 15.224C231.002 15.224 231.285 15.3413 231.509 15.576C231.733 15.8107 231.845 16.1093 231.845 16.472C231.845 16.8347 231.733 17.1333 231.509 17.368C231.285 17.6027 231.002 17.72 230.661 17.72ZM230.661 23.192C230.32 23.192 230.032 23.0747 229.797 22.84C229.573 22.6053 229.461 22.3067 229.461 21.944C229.461 21.5813 229.573 21.2827 229.797 21.048C230.032 20.8133 230.32 20.696 230.661 20.696C231.002 20.696 231.285 20.8133 231.509 21.048C231.733 21.2827 231.845 21.5813 231.845 21.944C231.845 22.3067 231.733 22.6053 231.509 22.84C231.285 23.0747 231.002 23.192 230.661 23.192ZM239.503 23V14.104H236.479V12.536H244.383V14.104H241.359V23H239.503ZM248.04 23.192C247.55 23.192 247.08 23.1013 246.632 22.92C246.184 22.7387 245.784 22.472 245.432 22.12C245.091 21.768 244.819 21.336 244.616 20.824C244.414 20.312 244.312 19.7307 244.312 19.08C244.312 18.4293 244.414 17.848 244.616 17.336C244.819 16.824 245.091 16.392 245.432 16.04C245.784 15.688 246.184 15.4213 246.632 15.24C247.08 15.048 247.55 14.952 248.04 14.952C248.531 14.952 249 15.048 249.448 15.24C249.907 15.4213 250.307 15.688 250.648 16.04C250.99 16.392 251.262 16.824 251.464 17.336C251.678 17.848 251.784 18.4293 251.784 19.08C251.784 19.7307 251.678 20.312 251.464 20.824C251.262 21.336 250.99 21.768 250.648 22.12C250.307 22.472 249.907 22.7387 249.448 22.92C249 23.1013 248.531 23.192 248.04 23.192ZM248.04 21.688C248.616 21.688 249.07 21.4533 249.4 20.984C249.731 20.504 249.896 19.8693 249.896 19.08C249.896 18.28 249.731 17.6453 249.4 17.176C249.07 16.696 248.616 16.456 248.04 16.456C247.464 16.456 247.011 16.696 246.68 17.176C246.36 17.6453 246.2 18.28 246.2 19.08C246.2 19.8693 246.36 20.504 246.68 20.984C247.011 21.4533 247.464 21.688 248.04 21.688ZM253.606 23V11.704H255.414V18.76H255.462L258.374 15.144H260.39L257.702 18.344L260.661 23H258.662L256.646 19.592L255.414 21V23H253.606ZM264.95 23.192C264.406 23.192 263.899 23.1013 263.43 22.92C262.961 22.728 262.55 22.456 262.198 22.104C261.846 21.752 261.569 21.3253 261.366 20.824C261.174 20.312 261.078 19.7307 261.078 19.08C261.078 18.44 261.179 17.864 261.382 17.352C261.585 16.84 261.851 16.408 262.182 16.056C262.523 15.704 262.913 15.432 263.35 15.24C263.787 15.048 264.235 14.952 264.694 14.952C265.227 14.952 265.697 15.0427 266.102 15.224C266.507 15.4053 266.843 15.6613 267.11 15.992C267.387 16.3227 267.595 16.7173 267.734 17.176C267.873 17.6347 267.942 18.136 267.942 18.68C267.942 18.8613 267.931 19.032 267.91 19.192C267.899 19.352 267.883 19.48 267.862 19.576H262.87C262.955 20.28 263.201 20.824 263.606 21.208C264.022 21.5813 264.55 21.768 265.19 21.768C265.531 21.768 265.846 21.72 266.134 21.624C266.433 21.5173 266.726 21.3733 267.014 21.192L267.638 22.344C267.265 22.5893 266.849 22.792 266.39 22.952C265.931 23.112 265.451 23.192 264.95 23.192ZM262.854 18.328H266.342C266.342 17.72 266.209 17.2453 265.942 16.904C265.686 16.552 265.286 16.376 264.742 16.376C264.273 16.376 263.862 16.5413 263.51 16.872C263.158 17.2027 262.939 17.688 262.854 18.328ZM269.699 23V15.144H271.219L271.347 16.2H271.411C271.763 15.8587 272.142 15.5653 272.547 15.32C272.963 15.0747 273.443 14.952 273.987 14.952C274.83 14.952 275.443 15.224 275.827 15.768C276.211 16.3013 276.403 17.0693 276.403 18.072V23H274.563V18.312C274.563 17.6613 274.467 17.2027 274.275 16.936C274.083 16.6693 273.769 16.536 273.331 16.536C272.99 16.536 272.686 16.6213 272.419 16.792C272.163 16.952 271.87 17.192 271.539 17.512V23H269.699ZM281.868 23.192C281.378 23.192 280.908 23.1013 280.46 22.92C280.012 22.7387 279.612 22.472 279.26 22.12C278.919 21.768 278.647 21.336 278.444 20.824C278.242 20.312 278.14 19.7307 278.14 19.08C278.14 18.4293 278.242 17.848 278.444 17.336C278.647 16.824 278.919 16.392 279.26 16.04C279.612 15.688 280.012 15.4213 280.46 15.24C280.908 15.048 281.378 14.952 281.868 14.952C282.359 14.952 282.828 15.048 283.276 15.24C283.735 15.4213 284.135 15.688 284.476 16.04C284.818 16.392 285.09 16.824 285.292 17.336C285.506 17.848 285.612 18.4293 285.612 19.08C285.612 19.7307 285.506 20.312 285.292 20.824C285.09 21.336 284.818 21.768 284.476 22.12C284.135 22.472 283.735 22.7387 283.276 22.92C282.828 23.1013 282.359 23.192 281.868 23.192ZM281.868 21.688C282.444 21.688 282.898 21.4533 283.228 20.984C283.559 20.504 283.724 19.8693 283.724 19.08C283.724 18.28 283.559 17.6453 283.228 17.176C282.898 16.696 282.444 16.456 281.868 16.456C281.292 16.456 280.839 16.696 280.508 17.176C280.188 17.6453 280.028 18.28 280.028 19.08C280.028 19.8693 280.188 20.504 280.508 20.984C280.839 21.4533 281.292 21.688 281.868 21.688ZM287.434 23V15.144H288.954L289.082 16.216H289.146C289.476 15.864 289.834 15.5653 290.218 15.32C290.612 15.0747 291.055 14.952 291.546 14.952C292.122 14.952 292.58 15.0747 292.922 15.32C293.274 15.5653 293.54 15.912 293.722 16.36C294.095 15.9547 294.484 15.6187 294.89 15.352C295.295 15.0853 295.748 14.952 296.25 14.952C297.082 14.952 297.695 15.224 298.09 15.768C298.484 16.3013 298.682 17.0693 298.682 18.072V23H296.826V18.312C296.826 17.6613 296.724 17.2027 296.522 16.936C296.33 16.6693 296.031 16.536 295.626 16.536C295.135 16.536 294.586 16.8613 293.978 17.512V23H292.138V18.312C292.138 17.6613 292.036 17.2027 291.834 16.936C291.642 16.6693 291.338 16.536 290.922 16.536C290.431 16.536 289.882 16.8613 289.274 17.512V23H287.434ZM300.918 23V15.144H302.758V23H300.918ZM301.846 13.768C301.515 13.768 301.243 13.672 301.03 13.48C300.817 13.288 300.71 13.0373 300.71 12.728C300.71 12.4187 300.817 12.168 301.03 11.976C301.243 11.7733 301.515 11.672 301.846 11.672C302.177 11.672 302.449 11.7733 302.662 11.976C302.875 12.168 302.982 12.4187 302.982 12.728C302.982 13.0373 302.875 13.288 302.662 13.48C302.449 13.672 302.177 13.768 301.846 13.768ZM308.386 23.192C307.852 23.192 307.351 23.1013 306.882 22.92C306.423 22.7387 306.023 22.472 305.682 22.12C305.34 21.768 305.074 21.336 304.882 20.824C304.69 20.312 304.594 19.7307 304.594 19.08C304.594 18.4293 304.7 17.848 304.914 17.336C305.127 16.824 305.415 16.392 305.778 16.04C306.14 15.688 306.556 15.4213 307.026 15.24C307.506 15.048 308.007 14.952 308.53 14.952C309.042 14.952 309.479 15.0373 309.842 15.208C310.215 15.3787 310.546 15.5867 310.834 15.832L309.938 17.032C309.724 16.8507 309.511 16.712 309.298 16.616C309.095 16.5093 308.871 16.456 308.626 16.456C307.986 16.456 307.468 16.696 307.074 17.176C306.679 17.6453 306.482 18.28 306.482 19.08C306.482 19.8693 306.674 20.504 307.058 20.984C307.452 21.4533 307.959 21.688 308.578 21.688C308.887 21.688 309.175 21.624 309.442 21.496C309.719 21.3573 309.97 21.1973 310.194 21.016L310.946 22.232C310.572 22.552 310.162 22.792 309.714 22.952C309.276 23.112 308.834 23.192 308.386 23.192ZM314.688 23.192C314.144 23.192 313.605 23.0907 313.072 22.888C312.549 22.6747 312.096 22.4133 311.712 22.104L312.576 20.92C312.928 21.1973 313.275 21.416 313.616 21.576C313.968 21.7253 314.347 21.8 314.752 21.8C315.179 21.8 315.493 21.7147 315.696 21.544C315.899 21.3627 316 21.1333 316 20.856C316 20.696 315.952 20.5573 315.856 20.44C315.76 20.312 315.632 20.2 315.472 20.104C315.312 20.008 315.131 19.9227 314.928 19.848C314.725 19.7627 314.523 19.6773 314.32 19.592C314.064 19.496 313.803 19.384 313.536 19.256C313.269 19.128 313.029 18.9733 312.816 18.792C312.613 18.6107 312.443 18.4027 312.304 18.168C312.176 17.9227 312.112 17.6347 312.112 17.304C312.112 16.6107 312.368 16.0453 312.88 15.608C313.392 15.1707 314.091 14.952 314.976 14.952C315.52 14.952 316.011 15.048 316.448 15.24C316.885 15.432 317.264 15.6507 317.584 15.896L316.736 17.016C316.459 16.8133 316.176 16.6533 315.888 16.536C315.611 16.408 315.317 16.344 315.008 16.344C314.613 16.344 314.32 16.4293 314.128 16.6C313.947 16.76 313.856 16.9627 313.856 17.208C313.856 17.368 313.899 17.5067 313.984 17.624C314.08 17.7307 314.203 17.8267 314.352 17.912C314.501 17.9973 314.672 18.0773 314.864 18.152C315.067 18.2267 315.275 18.3013 315.488 18.376C315.755 18.472 316.021 18.584 316.288 18.712C316.555 18.8293 316.795 18.9787 317.008 19.16C317.232 19.3413 317.408 19.5653 317.536 19.832C317.675 20.088 317.744 20.3973 317.744 20.76C317.744 21.1013 317.675 21.4213 317.536 21.72C317.408 22.008 317.216 22.264 316.96 22.488C316.704 22.7013 316.384 22.872 316 23C315.616 23.128 315.179 23.192 314.688 23.192ZM320.427 17.72C320.085 17.72 319.797 17.6027 319.563 17.368C319.339 17.1333 319.227 16.8347 319.227 16.472C319.227 16.1093 319.339 15.8107 319.563 15.576C319.797 15.3413 320.085 15.224 320.427 15.224C320.768 15.224 321.051 15.3413 321.275 15.576C321.499 15.8107 321.611 16.1093 321.611 16.472C321.611 16.8347 321.499 17.1333 321.275 17.368C321.051 17.6027 320.768 17.72 320.427 17.72ZM320.427 23.192C320.085 23.192 319.797 23.0747 319.563 22.84C319.339 22.6053 319.227 22.3067 319.227 21.944C319.227 21.5813 319.339 21.2827 319.563 21.048C319.797 20.8133 320.085 20.696 320.427 20.696C320.768 20.696 321.051 20.8133 321.275 21.048C321.499 21.2827 321.611 21.5813 321.611 21.944C321.611 22.3067 321.499 22.6053 321.275 22.84C321.051 23.0747 320.768 23.192 320.427 23.192ZM330.212 23.192C329.508 23.192 328.825 23.0587 328.164 22.792C327.513 22.5253 326.937 22.1467 326.436 21.656L327.524 20.392C327.897 20.744 328.324 21.032 328.804 21.256C329.284 21.4693 329.764 21.576 330.244 21.576C330.841 21.576 331.295 21.4533 331.604 21.208C331.913 20.9627 332.068 20.6373 332.068 20.232C332.068 20.0187 332.025 19.8373 331.94 19.688C331.865 19.5387 331.753 19.4107 331.604 19.304C331.465 19.1867 331.295 19.08 331.092 18.984C330.9 18.888 330.687 18.792 330.452 18.696L329.012 18.072C328.756 17.9653 328.5 17.832 328.244 17.672C327.999 17.512 327.775 17.32 327.572 17.096C327.369 16.872 327.204 16.6107 327.076 16.312C326.959 16.0133 326.9 15.672 326.9 15.288C326.9 14.872 326.985 14.488 327.156 14.136C327.337 13.7733 327.583 13.4587 327.892 13.192C328.201 12.9253 328.569 12.7173 328.996 12.568C329.433 12.4187 329.908 12.344 330.42 12.344C331.028 12.344 331.615 12.4667 332.18 12.712C332.745 12.9467 333.231 13.2667 333.636 13.672L332.692 14.856C332.351 14.5787 331.999 14.36 331.636 14.2C331.273 14.04 330.868 13.96 330.42 13.96C329.919 13.96 329.519 14.072 329.22 14.296C328.921 14.5093 328.772 14.808 328.772 15.192C328.772 15.3947 328.815 15.5707 328.9 15.72C328.996 15.8587 329.119 15.9867 329.268 16.104C329.428 16.2107 329.609 16.312 329.812 16.408C330.015 16.4933 330.223 16.5787 330.436 16.664L331.86 17.256C332.169 17.384 332.452 17.5333 332.708 17.704C332.964 17.8747 333.183 18.072 333.364 18.296C333.556 18.52 333.705 18.7813 333.812 19.08C333.919 19.368 333.972 19.704 333.972 20.088C333.972 20.5147 333.887 20.9147 333.716 21.288C333.545 21.6613 333.295 21.992 332.964 22.28C332.644 22.5573 332.249 22.7813 331.78 22.952C331.321 23.112 330.799 23.192 330.212 23.192ZM338.061 23.192C337.602 23.192 337.213 23.1227 336.893 22.984C336.584 22.8453 336.328 22.6533 336.125 22.408C335.933 22.152 335.789 21.8533 335.693 21.512C335.608 21.16 335.565 20.7707 335.565 20.344V16.6H334.445V15.224L335.661 15.144L335.885 13H337.421V15.144H339.421V16.6H337.421V20.344C337.421 21.2613 337.789 21.72 338.525 21.72C338.664 21.72 338.802 21.704 338.941 21.672C339.09 21.64 339.224 21.5973 339.341 21.544L339.661 22.904C339.448 22.9787 339.202 23.0427 338.925 23.096C338.658 23.16 338.37 23.192 338.061 23.192ZM342.635 23.192C341.941 23.192 341.381 22.984 340.955 22.568C340.528 22.1413 340.315 21.5813 340.315 20.888C340.315 20.472 340.4 20.104 340.571 19.784C340.752 19.4533 341.029 19.1707 341.403 18.936C341.787 18.7013 342.267 18.504 342.843 18.344C343.429 18.184 344.128 18.0613 344.939 17.976C344.928 17.7733 344.896 17.5813 344.843 17.4C344.8 17.208 344.72 17.0427 344.603 16.904C344.496 16.7547 344.352 16.6427 344.171 16.568C343.989 16.4827 343.765 16.44 343.499 16.44C343.115 16.44 342.736 16.5147 342.363 16.664C342 16.8133 341.643 16.9947 341.291 17.208L340.618 15.976C341.056 15.6987 341.547 15.4587 342.091 15.256C342.635 15.0533 343.221 14.952 343.851 14.952C344.832 14.952 345.563 15.2453 346.043 15.832C346.533 16.408 346.779 17.2453 346.779 18.344V23H345.259L345.131 22.136H345.067C344.715 22.4347 344.336 22.6853 343.931 22.888C343.536 23.0907 343.104 23.192 342.635 23.192ZM343.227 21.752C343.547 21.752 343.835 21.6773 344.091 21.528C344.357 21.3787 344.64 21.1653 344.939 20.888V19.128C344.405 19.192 343.957 19.2773 343.595 19.384C343.232 19.4907 342.939 19.6133 342.715 19.752C342.491 19.88 342.331 20.0293 342.235 20.2C342.139 20.3707 342.091 20.552 342.091 20.744C342.091 21.096 342.197 21.352 342.411 21.512C342.624 21.672 342.896 21.752 343.227 21.752ZM348.981 23V11.704H350.789V18.76H350.837L353.749 15.144H355.765L353.077 18.344L356.036 23H354.037L352.021 19.592L350.789 21V23H348.981ZM357.34 23V15.144H359.18V23H357.34ZM358.268 13.768C357.937 13.768 357.665 13.672 357.452 13.48C357.239 13.288 357.132 13.0373 357.132 12.728C357.132 12.4187 357.239 12.168 357.452 11.976C357.665 11.7733 357.937 11.672 358.268 11.672C358.599 11.672 358.871 11.7733 359.084 11.976C359.297 12.168 359.404 12.4187 359.404 12.728C359.404 13.0373 359.297 13.288 359.084 13.48C358.871 13.672 358.599 13.768 358.268 13.768ZM362.567 23.192C362.226 23.192 361.938 23.0747 361.703 22.84C361.479 22.6053 361.367 22.3067 361.367 21.944C361.367 21.5813 361.479 21.2827 361.703 21.048C361.938 20.8133 362.226 20.696 362.567 20.696C362.909 20.696 363.191 20.8133 363.415 21.048C363.639 21.2827 363.751 21.5813 363.751 21.944C363.751 22.3067 363.639 22.6053 363.415 22.84C363.191 23.0747 362.909 23.192 362.567 23.192ZM366.974 23.192C366.632 23.192 366.344 23.0747 366.11 22.84C365.886 22.6053 365.774 22.3067 365.774 21.944C365.774 21.5813 365.886 21.2827 366.11 21.048C366.344 20.8133 366.632 20.696 366.974 20.696C367.315 20.696 367.598 20.8133 367.822 21.048C368.046 21.2827 368.158 21.5813 368.158 21.944C368.158 22.3067 368.046 22.6053 367.822 22.84C367.598 23.0747 367.315 23.192 366.974 23.192ZM371.38 23.192C371.039 23.192 370.751 23.0747 370.516 22.84C370.292 22.6053 370.18 22.3067 370.18 21.944C370.18 21.5813 370.292 21.2827 370.516 21.048C370.751 20.8133 371.039 20.696 371.38 20.696C371.721 20.696 372.004 20.8133 372.228 21.048C372.452 21.2827 372.564 21.5813 372.564 21.944C372.564 22.3067 372.452 22.6053 372.228 22.84C372.004 23.0747 371.721 23.192 371.38 23.192Z" fill="white"/>
<g style="mix-blend-mode:multiply" opacity="0.5">
<rect y="179" width="162" height="31" fill="black"/>
</g>
<path fill-rule="evenodd" clip-rule="evenodd" d="M97.6895 188.52C97.4113 187.452 96.5914 186.61 95.5503 186.324C93.6636 185.805 86.0976 185.805 86.0976 185.805C86.0976 185.805 78.5315 185.805 76.6447 186.324C75.6036 186.61 74.7837 187.452 74.5055 188.52C74 190.458 74 194.5 74 194.5C74 194.5 74 198.542 74.5055 200.48C74.7837 201.549 75.6036 202.39 76.6447 202.676C78.5315 203.195 86.0976 203.195 86.0976 203.195C86.0976 203.195 93.6636 203.195 95.5503 202.676C96.5914 202.39 97.4113 201.549 97.6895 200.48C98.1951 198.542 98.1951 194.5 98.1951 194.5C98.1951 194.5 98.1951 190.458 97.6895 188.52Z" fill="white"/>
<path fill-rule="evenodd" clip-rule="evenodd" d="M83.8301 198.659V191.098L89.8789 194.878L83.8301 198.659Z" fill="black"/>
<path d="M106.466 194.079L108.255 190.204H110.193L107.369 195.686V198.805H105.568V195.686L102.744 190.204H104.688L106.466 194.079ZM110.211 195.55C110.211 194.916 110.333 194.351 110.577 193.855C110.821 193.359 111.172 192.975 111.628 192.703C112.089 192.431 112.623 192.295 113.229 192.295C114.092 192.295 114.795 192.559 115.338 193.087C115.885 193.615 116.191 194.331 116.254 195.237L116.265 195.674C116.265 196.655 115.992 197.442 115.444 198.037C114.897 198.628 114.162 198.923 113.241 198.923C112.32 198.923 111.583 198.628 111.032 198.037C110.484 197.446 110.211 196.643 110.211 195.627V195.55ZM111.918 195.674C111.918 196.281 112.032 196.745 112.26 197.068C112.489 197.387 112.816 197.547 113.241 197.547C113.654 197.547 113.977 197.389 114.21 197.074C114.442 196.755 114.558 196.247 114.558 195.55C114.558 194.956 114.442 194.495 114.21 194.168C113.977 193.841 113.651 193.678 113.229 193.678C112.812 193.678 112.489 193.841 112.26 194.168C112.032 194.491 111.918 194.993 111.918 195.674ZM121.145 198.155C120.723 198.667 120.14 198.923 119.396 198.923C118.711 198.923 118.187 198.726 117.825 198.332C117.466 197.939 117.283 197.362 117.275 196.602V192.414H118.983V196.543C118.983 197.208 119.286 197.541 119.892 197.541C120.471 197.541 120.869 197.34 121.086 196.938V192.414H122.799V198.805H121.192L121.145 198.155ZM130.673 191.64H128.038V198.805H126.266V191.64H123.667V190.204H130.673V191.64ZM135.014 198.155C134.593 198.667 134.01 198.923 133.266 198.923C132.581 198.923 132.057 198.726 131.695 198.332C131.336 197.939 131.153 197.362 131.145 196.602V192.414H132.852V196.543C132.852 197.208 133.156 197.541 133.762 197.541C134.341 197.541 134.739 197.34 134.955 196.938V192.414H136.668V198.805H135.061L135.014 198.155ZM143.715 195.668C143.715 196.692 143.497 197.492 143.06 198.067C142.622 198.638 142.012 198.923 141.228 198.923C140.535 198.923 139.982 198.657 139.569 198.126L139.492 198.805H137.956V189.732H139.663V192.987C140.057 192.526 140.575 192.295 141.217 192.295C141.996 192.295 142.607 192.583 143.048 193.158C143.493 193.729 143.715 194.534 143.715 195.574V195.668ZM142.008 195.544C142.008 194.898 141.906 194.428 141.701 194.132C141.496 193.833 141.191 193.684 140.785 193.684C140.242 193.684 139.868 193.906 139.663 194.351V196.873C139.872 197.322 140.25 197.547 140.797 197.547C141.349 197.547 141.711 197.275 141.884 196.732C141.967 196.472 142.008 196.076 142.008 195.544ZM147.714 198.923C146.777 198.923 146.013 198.636 145.422 198.061C144.836 197.486 144.542 196.72 144.542 195.763V195.597C144.542 194.956 144.666 194.383 144.914 193.878C145.162 193.37 145.513 192.981 145.966 192.709C146.423 192.433 146.942 192.295 147.525 192.295C148.4 192.295 149.087 192.571 149.587 193.122C150.091 193.674 150.343 194.455 150.343 195.467V196.164H146.273C146.328 196.582 146.494 196.917 146.769 197.169C147.049 197.421 147.401 197.547 147.827 197.547C148.484 197.547 148.998 197.308 149.368 196.832L150.207 197.771C149.951 198.134 149.605 198.417 149.167 198.622C148.73 198.823 148.246 198.923 147.714 198.923ZM147.519 193.678C147.181 193.678 146.905 193.792 146.692 194.02C146.484 194.249 146.35 194.576 146.291 195.001H148.665V194.865C148.657 194.487 148.555 194.195 148.358 193.991C148.161 193.782 147.882 193.678 147.519 193.678Z" fill="white"/>
<path d="M17.2193 196.094L17.3847 197.228L17.6269 196.206L19.3281 190.204H20.285L21.9449 196.206L22.1812 197.245L22.3643 196.088L23.6993 190.204H24.8393L22.7542 198.805H21.7204L19.9483 192.538L19.8125 191.882L19.6766 192.538L17.8395 198.805H16.8058L14.7265 190.204H15.8607L17.2193 196.094ZM29.6772 198.805C29.6142 198.679 29.563 198.454 29.5236 198.132C29.0156 198.659 28.4091 198.923 27.7042 198.923C27.0742 198.923 26.5563 198.746 26.1507 198.391C25.749 198.033 25.5482 197.58 25.5482 197.033C25.5482 196.367 25.8002 195.851 26.3043 195.485C26.8123 195.115 27.5251 194.93 28.4426 194.93H29.5059V194.428C29.5059 194.046 29.3917 193.743 29.1633 193.518C28.9349 193.29 28.5982 193.176 28.1532 193.176C27.7633 193.176 27.4365 193.274 27.1726 193.471C26.9088 193.668 26.7768 193.906 26.7768 194.186H25.6781C25.6781 193.867 25.7904 193.56 26.0148 193.264C26.2432 192.965 26.5504 192.729 26.9363 192.555C27.3262 192.382 27.7535 192.295 28.2182 192.295C28.9546 192.295 29.5315 192.48 29.9489 192.851C30.3663 193.217 30.5829 193.723 30.5987 194.369V197.31C30.5987 197.897 30.6735 198.364 30.8231 198.71V198.805H29.6772ZM27.8637 197.972C28.2063 197.972 28.5312 197.883 28.8384 197.706C29.1456 197.529 29.3681 197.299 29.5059 197.015V195.704H28.6494C27.3104 195.704 26.641 196.096 26.641 196.879C26.641 197.222 26.7552 197.49 26.9836 197.683C27.212 197.876 27.5054 197.972 27.8637 197.972ZM33.7944 190.866V192.414H34.9876V193.258H33.7944V197.222C33.7944 197.478 33.8475 197.671 33.9539 197.801C34.0602 197.927 34.2413 197.99 34.4973 197.99C34.6233 197.99 34.7966 197.966 35.0171 197.919V198.805C34.7297 198.884 34.4501 198.923 34.1783 198.923C33.69 198.923 33.3218 198.775 33.0737 198.48C32.8256 198.185 32.7016 197.765 32.7016 197.222V193.258H31.5379V192.414H32.7016V190.866H33.7944ZM38.8331 198.031C39.2229 198.031 39.5636 197.913 39.855 197.677C40.1464 197.44 40.3078 197.145 40.3393 196.791H41.3731C41.3534 197.157 41.2274 197.505 40.995 197.836C40.7627 198.167 40.4516 198.431 40.0617 198.628C39.6758 198.825 39.2662 198.923 38.8331 198.923C37.9628 198.923 37.2697 198.634 36.7538 198.055C36.2418 197.472 35.9859 196.676 35.9859 195.668V195.485C35.9859 194.863 36.1001 194.31 36.3285 193.825C36.5569 193.341 36.8837 192.965 37.309 192.697C37.7383 192.429 38.2443 192.295 38.8271 192.295C39.5439 192.295 40.1385 192.51 40.6111 192.939C41.0876 193.369 41.3416 193.926 41.3731 194.611H40.3393C40.3078 194.197 40.1503 193.859 39.8668 193.595C39.5872 193.327 39.2406 193.193 38.8271 193.193C38.2719 193.193 37.8407 193.394 37.5335 193.796C37.2303 194.194 37.0787 194.77 37.0787 195.527V195.733C37.0787 196.47 37.2303 197.037 37.5335 197.435C37.8367 197.832 38.2699 198.031 38.8331 198.031ZM43.6945 193.187C44.1789 192.593 44.809 192.295 45.5848 192.295C46.9355 192.295 47.6168 193.057 47.6286 194.581V198.805H46.5358V194.576C46.5319 194.115 46.4255 193.774 46.2168 193.554C46.012 193.333 45.6911 193.223 45.254 193.223C44.8996 193.223 44.5885 193.317 44.3207 193.506C44.0529 193.695 43.8442 193.943 43.6945 194.251V198.805H42.6017V189.732H43.6945V193.187ZM51.9762 195.55C51.9762 194.924 52.0982 194.361 52.3424 193.861C52.5905 193.361 52.9331 192.975 53.3702 192.703C53.8113 192.431 54.3134 192.295 54.8765 192.295C55.7468 192.295 56.4497 192.597 56.9853 193.199C57.5248 193.802 57.7946 194.603 57.7946 195.603V195.68C57.7946 196.302 57.6745 196.862 57.4342 197.358C57.198 197.85 56.8573 198.234 56.4123 198.51C55.9713 198.785 55.4633 198.923 54.8883 198.923C54.022 198.923 53.319 198.622 52.7795 198.019C52.2439 197.417 51.9762 196.619 51.9762 195.627V195.55ZM53.0749 195.68C53.0749 196.389 53.2383 196.958 53.5651 197.387C53.8959 197.816 54.337 198.031 54.8883 198.031C55.4436 198.031 55.8846 197.815 56.2115 197.381C56.5383 196.944 56.7018 196.334 56.7018 195.55C56.7018 194.849 56.5344 194.282 56.1997 193.849C55.8689 193.412 55.4278 193.193 54.8765 193.193C54.337 193.193 53.9018 193.408 53.571 193.837C53.2403 194.266 53.0749 194.881 53.0749 195.68ZM60.1987 192.414L60.2342 193.217C60.7225 192.603 61.3604 192.295 62.148 192.295C63.4988 192.295 64.18 193.057 64.1919 194.581V198.805H63.0991V194.576C63.0951 194.115 62.9888 193.774 62.7801 193.554C62.5753 193.333 62.2544 193.223 61.8172 193.223C61.4628 193.223 61.1517 193.317 60.8839 193.506C60.6161 193.695 60.4074 193.943 60.2578 194.251V198.805H59.165V192.414H60.1987Z" fill="white"/>
</svg>
