<svg width="15" height="20" viewBox="0 0 15 20" fill="none" xmlns="http://www.w3.org/2000/svg">
<path d="M10.3431 0.787109H2.94279C1.86167 0.787109 0.981757 1.66763 0.981757 2.74814V9.99969H0.790221C0.353876 9.99969 0 10.3532 0 10.79V15.5823C0 16.019 0.353838 16.3725 0.790221 16.3725H0.981757V17.2513C0.981757 18.333 1.86167 19.2123 2.94279 19.2123H13.0402C14.1206 19.2123 15.0007 18.3329 15.0007 17.2513V5.42835L10.3431 0.787109ZM2.07308 11.6548C2.30466 11.6157 2.63018 11.5862 3.08881 11.5862C3.55229 11.5862 3.88262 11.6746 4.10458 11.8523C4.3166 12.0198 4.45968 12.2962 4.45968 12.6215C4.45968 12.9467 4.35126 13.2232 4.15399 13.4105C3.89741 13.652 3.51797 13.7604 3.0741 13.7604C2.97531 13.7604 2.88676 13.7556 2.81752 13.746V14.9343H2.07308V11.6548ZM13.0402 18.0114H2.94279C2.52417 18.0114 2.18329 17.6705 2.18329 17.2513V16.3725H11.5962C12.0326 16.3725 12.3864 16.019 12.3864 15.5823V10.79C12.3864 10.3532 12.0326 9.99969 11.5962 9.99969H2.18329V2.74814C2.18329 2.33014 2.52421 1.98926 2.94279 1.98926L9.89381 1.98199V4.55134C9.89381 5.30182 10.5027 5.91132 11.2538 5.91132L13.7707 5.90409L13.7991 17.2512C13.7991 17.6705 13.4588 18.0114 13.0402 18.0114ZM4.9397 14.9193V11.6548C5.21581 11.6109 5.57569 11.5862 5.95547 11.5862C6.58664 11.5862 6.99593 11.6994 7.31663 11.9409C7.66176 12.1975 7.87855 12.6065 7.87855 13.1936C7.87855 13.8297 7.64697 14.2688 7.32623 14.5397C6.97629 14.8306 6.4436 14.9686 5.79283 14.9686C5.4031 14.9686 5.127 14.9439 4.9397 14.9193ZM10.3215 12.9865V13.5978H9.12801V14.9343H8.37364V11.6109H10.4052V12.227H9.12801V12.9865H10.3215Z" fill="white"/>
</svg>
