<svg width="120" height="120" viewBox="0 0 120 120" fill="none" xmlns="http://www.w3.org/2000/svg">
<g style="mix-blend-mode:multiply">
<path d="M54.8081 87.2163C56.4321 87.2163 57.8961 88.5123 57.8961 90.3043C57.8961 91.9283 56.6001 93.3923 54.8081 93.3923C53.1841 93.3923 51.7201 92.0963 51.7201 90.3043C51.7201 88.5123 53.1841 87.2163 54.8081 87.2163ZM102.576 68.3683C100.952 68.3683 99.4881 67.0723 99.4881 65.2803C99.4881 63.6563 100.784 62.1923 102.576 62.1923C104.2 62.1923 105.664 63.4883 105.664 65.2803C105.664 66.9043 104.2 68.3683 102.576 68.3683ZM102.576 55.8563C97.3761 55.8563 93.1521 60.0803 93.1521 65.2803C93.1521 66.2563 93.3121 67.2323 93.6401 68.2083L62.6081 84.7763C60.8241 82.1763 57.8961 80.7123 54.8081 80.7123C51.2321 80.7123 47.9841 82.8243 46.3601 85.9123L18.4161 71.2883C15.4881 69.6643 13.2161 64.9523 13.5441 60.4003C13.7041 58.1283 14.5201 56.3363 15.6561 55.6883C16.4721 55.2003 17.2801 55.3603 18.4161 55.8483L18.5761 56.0083C26.0481 59.9043 50.2561 72.5763 51.2321 73.0643C52.8561 73.7123 53.6721 74.0403 56.4321 72.7363L106.472 46.7443C107.288 46.4163 108.096 45.7683 108.096 44.6323C108.096 43.1683 106.632 42.5203 106.632 42.5203C103.704 41.2243 99.3201 39.1123 95.0961 37.1603C86.0001 32.9363 75.6001 28.0643 71.0481 25.6243C67.1521 23.5123 63.8961 25.2963 63.4081 25.6243L62.2721 26.1123C41.6401 36.5123 14.3441 49.9923 12.7201 50.9683C9.96008 52.5923 8.16808 56.0083 8.00808 60.2323C7.68008 66.8963 11.0961 73.8803 15.9681 76.3203L45.5361 91.5923C46.1841 96.1443 50.2481 99.7123 54.8001 99.7123C60.0001 99.7123 64.0641 95.6483 64.2241 90.4483L96.7201 72.9043C98.3441 74.2003 100.456 74.8563 102.568 74.8563C107.768 74.8563 111.992 70.6323 111.992 65.4323C111.992 60.2323 107.768 55.8483 102.568 55.8483L102.576 55.8563Z" fill="url(#paint0_linear_1269_18381)" stroke="#3535DC" stroke-miterlimit="10"/>
</g>
<defs>
<linearGradient id="paint0_linear_1269_18381" x1="8.00008" y1="62.1763" x2="112" y2="62.1763" gradientUnits="userSpaceOnUse">
<stop stop-color="#F5F5FD"/>
<stop offset="0.72" stop-color="#CCCCF6"/>
</linearGradient>
</defs>
</svg>
