<svg width="120" height="120" viewBox="0 0 120 120" fill="none" xmlns="http://www.w3.org/2000/svg">
<g style="mix-blend-mode:multiply">
<path d="M25.5121 19.9922H60.9281C62.8401 19.9922 64.6721 20.7522 66.0161 22.1042L89.8001 45.8882C91.1521 47.2402 91.9121 49.0722 91.9121 50.9762V110.392C91.9121 111.272 91.1921 111.992 90.3121 111.992H25.5121C24.6321 111.992 23.9121 111.272 23.9121 110.392V21.5922C23.9121 20.7122 24.6321 19.9922 25.5121 19.9922Z" fill="url(#paint0_linear_1269_18371)" stroke="#0000B0" stroke-miterlimit="10"/>
<path d="M37.6 8H73.016C74.928 8 76.76 8.76 78.104 10.112L101.888 33.896C103.24 35.248 104 37.08 104 38.984V98.4C104 99.28 103.28 100 102.4 100H37.6C36.72 100 36 99.28 36 98.4V9.6C36 8.72 36.72 8 37.6 8Z" fill="white" stroke="#0000B0" stroke-miterlimit="10"/>
<path d="M101.872 33.8721C100.672 32.6721 99.0399 32.0001 97.3439 32.0001H80.7679C80.3279 32.0001 79.9679 31.6401 79.9679 31.2001L79.9999 14.6481C79.9999 12.9521 79.3279 11.3201 78.1279 10.1201" fill="#0F0FB5"/>
<path d="M101.872 33.8721C100.672 32.6721 99.0399 32.0001 97.3439 32.0001H80.7679C80.3279 32.0001 79.9679 31.6401 79.9679 31.2001L79.9999 14.6481C79.9999 12.9521 79.3279 11.3201 78.1279 10.1201" stroke="#0F0FB5" stroke-miterlimit="10"/>
<path d="M95.2 91.9842H44.8C44.36 91.9842 44 91.6242 44 91.1842V88.8002C44 88.3602 44.36 88.0002 44.8 88.0002H95.2C95.64 88.0002 96 88.3602 96 88.8002V91.1842C96 91.6242 95.64 91.9842 95.2 91.9842ZM95.2 80.0002H44.8C44.36 80.0002 44 80.3602 44 80.8002V83.1842C44 83.6242 44.36 83.9842 44.8 83.9842H95.2C95.64 83.9842 96 83.6242 96 83.1842V80.8002C96 80.3602 95.64 80.0002 95.2 80.0002ZM95.2 72.0002H44.8C44.36 72.0002 44 72.3602 44 72.8002V75.1842C44 75.6242 44.36 75.9842 44.8 75.9842H95.2C95.64 75.9842 96 75.6242 96 75.1842V72.8002C96 72.3602 95.64 72.0002 95.2 72.0002ZM95.2 64.0002H44.8C44.36 64.0002 44 64.3602 44 64.8002V67.1842C44 67.6242 44.36 67.9842 44.8 67.9842H95.2C95.64 67.9842 96 67.6242 96 67.1842V64.8002C96 64.3602 95.64 64.0002 95.2 64.0002ZM95.2 56.0082H44.8C44.36 56.0082 44 56.3682 44 56.8082V59.1922C44 59.6322 44.36 59.9922 44.8 59.9922H95.2C95.64 59.9922 96 59.6322 96 59.1922V56.8082C96 56.3682 95.64 56.0082 95.2 56.0082ZM95.2 48.0162H44.8C44.36 48.0162 44 48.3762 44 48.8162V51.2002C44 51.6402 44.36 52.0002 44.8 52.0002H95.2C95.64 52.0002 96 51.6402 96 51.2002V48.8162C96 48.3762 95.64 48.0162 95.2 48.0162ZM95.2 39.9922H44.8C44.36 39.9922 44 40.3522 44 40.7922V43.1762C44 43.6162 44.36 43.9762 44.8 43.9762H95.2C95.64 43.9762 96 43.6162 96 43.1762V40.7922C96 40.3522 95.64 39.9922 95.2 39.9922Z" fill="url(#paint1_linear_1269_18371)"/>
<path d="M68.4322 18.6641L57.0562 25.2321L68.4322 31.7921V30.0721L60.0402 25.2321L68.4322 20.3841V18.6641Z" fill="#0000B0" stroke="#0000B0" stroke-width="0.5" stroke-linejoin="round"/>
<path d="M57.088 18.6641H55.592V31.7921H57.088V18.6641Z" fill="#0000B0" stroke="#0000B0" stroke-width="0.5" stroke-linejoin="round"/>
<path d="M44.2161 18.6641V20.3841L52.6001 25.2321L44.2161 30.0721V31.7921L55.5921 25.2321L44.2161 18.6641Z" fill="#0000B0" stroke="#0000B0" stroke-width="0.5" stroke-linejoin="round"/>
</g>
<defs>
<linearGradient id="paint0_linear_1269_18371" x1="23.9121" y1="65.9922" x2="91.9121" y2="65.9922" gradientUnits="userSpaceOnUse">
<stop stop-color="#F2F2FB"/>
<stop offset="0.72" stop-color="#DEDEF5"/>
</linearGradient>
<linearGradient id="paint1_linear_1269_18371" x1="75.696" y1="93.0162" x2="63.656" y2="35.8562" gradientUnits="userSpaceOnUse">
<stop offset="0.28" stop-color="#B2B2E7"/>
<stop offset="1" stop-color="#B2B2E7" stop-opacity="0"/>
</linearGradient>
</defs>
</svg>
