<svg width="120" height="120" viewBox="0 0 120 120" fill="none" xmlns="http://www.w3.org/2000/svg">
<g style="mix-blend-mode:multiply">
<path d="M60.0001 36.1282C66.6761 36.1282 72.0881 30.7162 72.0881 24.0401C72.0881 17.3641 66.6761 11.9521 60.0001 11.9521C53.3241 11.9521 47.9121 17.3641 47.9121 24.0401C47.9121 30.7162 53.3241 36.1282 60.0001 36.1282Z" fill="#99D4FC" stroke="#0094F8" stroke-miterlimit="10"/>
<path d="M85.4562 46.6721C92.1322 46.6721 97.5442 41.2601 97.5442 34.5841C97.5442 27.9081 92.1322 22.4961 85.4562 22.4961C78.7801 22.4961 73.3682 27.9081 73.3682 34.5841C73.3682 41.2601 78.7801 46.6721 85.4562 46.6721Z" fill="white" stroke="#B2DFFD" stroke-miterlimit="10"/>
<path d="M96.0001 72.1282C102.676 72.1282 108.088 66.7162 108.088 60.0402C108.088 53.3641 102.676 47.9521 96.0001 47.9521C89.3241 47.9521 83.9121 53.3641 83.9121 60.0402C83.9121 66.7162 89.3241 72.1282 96.0001 72.1282Z" fill="#F2FAFF" stroke="#99D4FC" stroke-miterlimit="10"/>
<path d="M85.4562 97.5842C92.1322 97.5842 97.5442 92.1722 97.5442 85.4962C97.5442 78.8202 92.1322 73.4082 85.4562 73.4082C78.7801 73.4082 73.3682 78.8202 73.3682 85.4962C73.3682 92.1722 78.7801 97.5842 85.4562 97.5842Z" fill="#E5F4FE" stroke="#80C9FB" stroke-miterlimit="10"/>
<path d="M60.0001 108.128C66.6761 108.128 72.0881 102.716 72.0881 96.0401C72.0881 89.3641 66.6761 83.9521 60.0001 83.9521C53.3241 83.9521 47.9121 89.3641 47.9121 96.0401C47.9121 102.716 53.3241 108.128 60.0001 108.128Z" fill="#D9EFFE" stroke="#66BFFB" stroke-miterlimit="10"/>
<path d="M34.5441 97.5842C41.2201 97.5842 46.6321 92.1722 46.6321 85.4962C46.6321 78.8202 41.2201 73.4082 34.5441 73.4082C27.868 73.4082 22.4561 78.8202 22.4561 85.4962C22.4561 92.1722 27.868 97.5842 34.5441 97.5842Z" fill="#CCEAFE" stroke="#4CB4FA" stroke-miterlimit="10"/>
<path d="M24.0001 72.1282C30.6761 72.1282 36.0881 66.7162 36.0881 60.0402C36.0881 53.3641 30.6761 47.9521 24.0001 47.9521C17.3241 47.9521 11.9121 53.3641 11.9121 60.0402C11.9121 66.7162 17.3241 72.1282 24.0001 72.1282Z" fill="#BFE4FD" stroke="#33A9F9" stroke-miterlimit="10"/>
<path d="M34.5441 46.6721C41.2201 46.6721 46.6321 41.2601 46.6321 34.5841C46.6321 27.9081 41.2201 22.4961 34.5441 22.4961C27.868 22.4961 22.4561 27.9081 22.4561 34.5841C22.4561 41.2601 27.868 46.6721 34.5441 46.6721Z" fill="#B2DFFD" stroke="#199FF9" stroke-miterlimit="10"/>
</g>
</svg>
