<svg width="120" height="120" viewBox="0 0 120 120" fill="none" xmlns="http://www.w3.org/2000/svg">
<g style="mix-blend-mode:multiply">
<path opacity="0.2" d="M59.9996 99.9836C82.0822 99.9836 99.9836 82.0822 99.9836 59.9996C99.9836 37.9171 82.0822 20.0156 59.9996 20.0156C37.9171 20.0156 20.0156 37.9171 20.0156 59.9996C20.0156 82.0822 37.9171 99.9836 59.9996 99.9836Z" fill="url(#paint0_linear_1269_18435)"/>
<path d="M59.9996 99.9836C82.0822 99.9836 99.9836 82.0822 99.9836 59.9996C99.9836 37.9171 82.0822 20.0156 59.9996 20.0156C37.9171 20.0156 20.0156 37.9171 20.0156 59.9996C20.0156 82.0822 37.9171 99.9836 59.9996 99.9836Z" stroke="#7223FF" stroke-miterlimit="10"/>
<path d="M80 57.592V62.4C80 63.28 79.28 64 78.4 64H64V78.4C64 79.28 63.28 80 62.4 80H57.592C56.712 80 55.992 79.28 55.992 78.4V64H41.6C40.72 64 40 63.28 40 62.4V57.592C40 56.712 40.72 55.992 41.6 55.992H55.968V41.6C55.968 40.72 56.688 40 57.568 40H62.376C63.256 40 63.976 40.72 63.976 41.6V55.992H78.4C79.28 55.992 80 56.712 80 57.592Z" fill="white" stroke="#7223FF" stroke-miterlimit="10"/>
</g>
<defs>
<linearGradient id="paint0_linear_1269_18435" x1="27.9916" y1="26.4236" x2="93.7676" y2="95.4316" gradientUnits="userSpaceOnUse">
<stop stop-color="white"/>
<stop offset="0.72" stop-color="#7223FF"/>
</linearGradient>
</defs>
</svg>
