<?xml version="1.0" encoding="utf-8"?>
<!-- Generator: Adobe Illustrator 25.2.1, SVG Export Plug-In . SVG Version: 6.00 Build 0)  -->
<svg version="1.1" id="Bold" xmlns="http://www.w3.org/2000/svg" xmlns:xlink="http://www.w3.org/1999/xlink" x="0px" y="0px"
	 viewBox="0 0 512 512" style="enable-background:new 0 0 512 512;" xml:space="preserve">
<style type="text/css">
	.st0{fill:#FFFFFF;}
</style>
<path class="st0" d="M242.3,512c120.2,0,195.1-88.6,195.1-202.9c0-43.1-7-82-55.9-93.7c11.9-32.6,46.3-126.9,46.3-157.1
	c0-26.6-16-48.9-44.5-48.9c-45.5,0-86.2,131.7-99,163.1C274.3,144,228,0,187.3,0c-31.7,0-46.5,22.9-46.5,51.7
	c0,35.3,34.8,126.8,47.5,162c-6.4-2.3-13.3-4.3-20.4-4.3c-23.9,0-49.2,29.1-49.2,52.6c0,8.9,5,21.4,8.1,29.7
	c-37.6,10-52.1,34.6-52.1,71.7C74.6,435.6,144.3,512,242.3,512L242.3,512z M345.3,108c4.1-12.3,21.5-64.3,37.8-64.3
	c8.8,0,11.1,8.9,11.1,16c0,19.1-39.3,124.6-48,148l-34.6-6L345.3,108z M172.7,48.3L172.7,48.3c0-11.9,14.8-45.7,47.2,47.1
	l35.3,100.3c-15.9-1.3-28.2-3-36.1,1.4C208,168.3,172.7,77.4,172.7,48.3z M170.4,244L170.4,244c29.9,0,68.4,94.6,68.4,107.4
	c0,5.1-5,11.4-10.8,11.4c-21.3,0-78.4-76.9-78.4-97.7C149.7,257.4,162.5,244,170.4,244L170.4,244z M136.1,322.3
	c11.6,0,55.3,60.3,55.3,73.1c0,4.9-7.9,8.3-11.9,8.3c-16.4,0-22.8-15.5-52.1-51.4c-30.3,29.7,20.9,86.9,59.4,86.9
	c26.6,0,43.9-24.2,38.7-42c3.8,0,8.4,0.3,11.9-0.6c1.1,27.1,9.3,59.4,42.5,61.7c0-0.9,2-7.1,2-7.4c0-17.4-10.8-32.6-10.8-50.3
	c0-28.3,22.1-55.7,44.5-71.7c8.1-6,18-9.7,27.6-13.1c9.9-3.7,20.4-8,27.9-15.4c-1.1-11.2-5.8-21.1-17.2-21.1
	c-28.2,0-122.9,4-122.9-39.7c0-6.7,0.1-13.1,17.7-13.1c32.9,0,116.5,8,140.9,29.1c18.4,16.1,24.8,113.2-31.6,174.7l-0.1,0
	c-29.7,32-67.6,48.6-111.8,48.6c-60.5,0-108.3-32.6-131.3-88.3C97.6,347.2,118.9,322.3,136.1,322.3L136.1,322.3z M257.7,304.3
	c9.9,3.1,20.1,4,30.3,6c-7.6,5.4-14.3,12-20.7,19.1C264.4,320.9,260.9,312.6,257.7,304.3L257.7,304.3z"/>
</svg>
