<svg width="21" height="16" fill="none" xmlns="http://www.w3.org/2000/svg">
    <path d="M17.747 1.755A16.655 16.655 0 0013.623.5c-.194.346-.37.7-.528 1.063a15.611 15.611 0 00-4.57 0C8.365 1.2 8.187.845 7.99.5c-1.428.24-2.817.663-4.129 1.26A16.378 16.378 0 00.897 12.985 16.689 16.689 0 005.955 15.5c.41-.547.772-1.125 1.083-1.73a10.797 10.797 0 01-1.706-.805c.143-.102.283-.21.418-.32a11.96 11.96 0 005.056 1.118c1.75 0 3.48-.382 5.057-1.119.136.111.276.219.417.321-.543.318-1.115.588-1.709.806.311.605.674 1.184 1.084 1.73a16.655 16.655 0 005.061-2.514c.42-3.967-.632-7.95-2.97-11.231zm-10.26 8.97a1.963 1.963 0 01-1.317-.635 1.845 1.845 0 01-.48-1.347c-.031-.494.14-.98.477-1.351a1.953 1.953 0 011.32-.632c.253.015.5.078.727.186.228.108.43.258.598.442.167.185.295.4.376.632.081.232.114.478.097.723.032.493-.14.98-.477 1.35a1.95 1.95 0 01-1.32.631zm6.642 0a1.963 1.963 0 01-1.317-.635 1.845 1.845 0 01-.48-1.347c-.032-.494.14-.98.476-1.351a1.953 1.953 0 011.32-.632c.253.015.5.078.728.186.227.108.43.258.597.442.167.185.295.4.376.632.081.232.114.478.097.723.032.493-.14.979-.476 1.35a1.951 1.951 0 01-1.321.631z" fill="white"></path>
</svg>