<svg width="16" height="16" xmlns="http://www.w3.org/2000/svg">
    <path d="M7.972.098a7.991 7.991 0 00-5.595 2.26A7.847 7.847 0 000 7.865v8.04l7.969-.008a7.988 7.988 0 005.555-2.354A7.843 7.843 0 0015.806 8a7.85 7.85 0 00-2.282-5.543A7.995 7.995 0 007.972.097zm4.509 9.8a4.815 4.815 0 01-1.102 1.53 4.897 4.897 0 01-5.325.88l-3.155.706.877-2.801a4.79 4.79 0 01.1-4.758A4.84 4.84 0 015.65 3.734a4.896 4.896 0 014.399-.202c.581.26 1.106.63 1.543 1.09.437.461.778 1.002 1.004 1.594a4.774 4.774 0 01-.115 3.683z" fill="white"></path>
</svg>