<svg width="33" height="26" viewBox="0 0 33 26" fill="none" xmlns="http://www.w3.org/2000/svg">
<path d="M27.5503 2.64492C25.4232 1.65066 23.1731 0.944434 20.8593 0.544922C20.5441 1.12355 20.258 1.71763 20.0023 2.32492C17.5449 1.94972 15.0448 1.94972 12.5873 2.32492C12.3291 1.71707 12.0398 1.12294 11.7203 0.544922C9.40285 0.945134 7.14945 1.65411 5.02032 2.65292C1.23472 8.14586 -0.470187 14.8078 0.211325 21.4439C2.68303 23.31 5.45993 24.7328 8.41833 25.6489C9.08321 24.7343 9.67089 23.7659 10.1753 22.7539C9.21444 22.3881 8.2881 21.9373 7.40731 21.4069C7.63931 21.2349 7.86632 21.0549 8.08532 20.8699C10.6446 22.1023 13.4487 22.7422 16.2893 22.7422C19.1299 22.7422 21.934 22.1023 24.4933 20.8699C24.7153 21.0549 24.9423 21.2349 25.1713 21.4069C24.2892 21.9386 23.3611 22.3901 22.3983 22.7559C22.9027 23.7682 23.4907 24.7366 24.1563 25.6509C27.1171 24.7355 29.8959 23.3115 32.3683 21.4429C33.0511 14.8032 31.3427 8.13765 27.5503 2.64492ZM10.9043 17.6579C10.0802 17.5983 9.31259 17.2171 8.76705 16.5966C8.22151 15.976 7.94182 15.1659 7.98833 14.3409C7.93704 13.5146 8.21497 12.7016 8.7614 12.0797C9.30783 11.4577 10.0783 11.0774 10.9043 11.0219C11.3143 11.0468 11.7152 11.1526 12.0841 11.3332C12.4529 11.5138 12.7824 11.7657 13.0535 12.0742C13.3245 12.3827 13.5319 12.7419 13.6635 13.1309C13.7951 13.5199 13.8484 13.9312 13.8203 14.3409C13.8721 15.1671 13.5943 15.9802 13.0477 16.602C12.5011 17.2237 11.7304 17.6034 10.9043 17.6579ZM21.6803 17.6579C20.8562 17.5983 20.0886 17.2171 19.543 16.5966C18.9975 15.976 18.7178 15.1659 18.7643 14.3409C18.713 13.5146 18.991 12.7016 19.5374 12.0797C20.0838 11.4577 20.8543 11.0774 21.6803 11.0219C22.0903 11.0468 22.4912 11.1526 22.8601 11.3332C23.2289 11.5138 23.5584 11.7657 23.8295 12.0742C24.1005 12.3827 24.3079 12.7419 24.4395 13.1309C24.5711 13.5199 24.6244 13.9312 24.5963 14.3409C24.6479 15.1671 24.3699 15.98 23.8234 16.6017C23.2769 17.2234 22.5063 17.6032 21.6803 17.6579Z" fill="#0618BA"/>
</svg>
