<svg width="24" height="18" viewBox="0 0 24 18" fill="none" xmlns="http://www.w3.org/2000/svg">
<path d="M10.7367 14.3556C11.1093 14.3556 11.4447 14.6537 11.4447 15.0636C11.4447 15.4362 11.1466 15.7716 10.7367 15.7716C10.3641 15.7716 10.0287 15.4735 10.0287 15.0636C10.0287 14.6537 10.3641 14.3556 10.7367 14.3556ZM21.6921 10.0331C21.3194 10.0331 20.9841 9.73495 20.9841 9.32505C20.9841 8.95242 21.2822 8.61705 21.6921 8.61705C22.0647 8.61705 22.4001 8.91516 22.4001 9.32505C22.4001 9.69768 22.0647 10.0331 21.6921 10.0331ZM21.6921 7.16379C20.4996 7.16379 19.5308 8.13263 19.5308 9.32505C19.5308 9.54863 19.5681 9.77221 19.6426 9.99579L12.5253 13.7966C12.1154 13.2004 11.4447 12.8651 10.7367 12.8651C9.91691 12.8651 9.17165 13.3495 8.79901 14.0575L2.38975 10.7038C1.71901 10.3312 1.19733 9.25052 1.27185 8.20716C1.30912 7.68547 1.49543 7.27558 1.75627 7.12652C1.94259 7.01473 2.12891 7.052 2.38975 7.16379L2.42701 7.20105C4.14112 8.09537 9.69333 11.0019 9.91691 11.1137C10.2895 11.2627 10.4759 11.3373 11.1093 11.0392L22.5864 5.07705C22.7727 5.00252 22.959 4.85347 22.959 4.59263C22.959 4.25726 22.6236 4.10821 22.6236 4.10821C21.9529 3.8101 20.9468 3.32568 19.978 2.87852C17.8912 1.90968 15.5064 0.791785 14.463 0.232837C13.5687 -0.251584 12.8234 0.158311 12.7116 0.232837L12.4508 0.344627C7.71838 2.72947 1.45817 5.82231 1.08554 6.04589C0.452062 6.41852 0.0421673 7.20105 0.00490417 8.16989C-0.0696222 9.69768 0.712904 11.3 1.8308 11.8589L8.6127 15.3617C8.76175 16.4051 9.69333 17.2248 10.7367 17.2248C11.9291 17.2248 12.8607 16.2933 12.898 15.1008L20.3506 11.0764C20.7232 11.3745 21.2076 11.5236 21.6921 11.5236C22.8845 11.5236 23.8533 10.5547 23.8533 9.36231C23.8533 8.13263 22.8845 7.16379 21.6921 7.16379Z" fill="white"/>
</svg>
