<?xml version="1.0" encoding="utf-8"?>
<!-- Generator: Adobe Illustrator 25.2.1, SVG Export Plug-In . SVG Version: 6.00 Build 0)  -->
<svg version="1.1" id="Layer_1" xmlns="http://www.w3.org/2000/svg" xmlns:xlink="http://www.w3.org/1999/xlink" x="0px" y="0px"
	 viewBox="0 0 25 24" style="enable-background:new 0 0 25 24;" xml:space="preserve">
<style type="text/css">
	.st0{fill:#FFFFFF;}
</style>
<path class="st0" d="M8.3,19.3c0-0.1-0.1-0.2-0.2-0.2c-0.1,0-0.2,0.1-0.2,0.2c0,0.1,0.1,0.2,0.2,0.1C8.2,19.4,8.3,19.4,8.3,19.3z
	 M6.8,19c0,0.1,0.1,0.2,0.2,0.2c0.1,0,0.2,0,0.3-0.1c0-0.1,0-0.2-0.2-0.2C7,18.9,6.8,18.9,6.8,19z M9,19c-0.1,0-0.2,0.1-0.2,0.2
	c0,0.1,0.1,0.1,0.3,0.1c0.1,0,0.2-0.1,0.2-0.2C9.3,19,9.1,18.9,9,19z M12.2,0C5.4,0,0.2,5.2,0.2,12.1c0,5.5,3.4,10.2,8.3,11.9
	c0.6,0.1,0.8-0.3,0.8-0.6c0-0.3,0-2,0-3.1c0,0-3.5,0.7-4.2-1.5c0,0-0.5-1.4-1.3-1.8c0,0-1.1-0.8,0-0.8c0,0,1.2,0.1,1.9,1.3
	c1.1,1.9,2.9,1.4,3.6,1c0.1-0.8,0.4-1.3,0.8-1.7c-2.8-0.3-5.6-0.7-5.6-5.4c0-1.4,0.4-2,1.2-2.9C5.7,8.1,5.3,6.9,6,5.1
	c1-0.3,3.4,1.3,3.4,1.3c1-0.3,2-0.4,3.1-0.4c1.1,0,2.1,0.1,3.1,0.4c0,0,2.4-1.7,3.4-1.3c0.7,1.7,0.2,3,0.1,3.4
	c0.8,0.9,1.3,1.5,1.3,2.9c0,4.7-2.9,5.1-5.7,5.4c0.4,0.4,0.8,1.1,0.8,2.3c0,1.6,0,3.7,0,4.1c0,0.3,0.2,0.7,0.9,0.6
	c4.9-1.6,8.3-6.3,8.3-11.8C24.7,5.2,19.1,0,12.2,0z M5,17c-0.1,0,0,0.2,0,0.3c0.1,0,0.2,0.1,0.3,0c0,0,0-0.2,0-0.3C5.1,17,5,17,5,17
	z M4.4,16.6c0,0.1,0,0.1,0.1,0.2c0.1,0,0.2,0,0.2,0c0,0,0-0.1-0.1-0.1C4.5,16.6,4.5,16.6,4.4,16.6z M6,18.4c0,0,0,0.2,0.1,0.3
	c0.1,0.1,0.2,0.1,0.3,0c0,0,0-0.2,0-0.3C6.2,18.4,6.1,18.3,6,18.4z M5.5,17.7c-0.1,0-0.1,0.2,0,0.3c0.1,0.1,0.2,0.1,0.3,0.1
	c0,0,0-0.2,0-0.3C5.7,17.7,5.6,17.6,5.5,17.7z"/>
</svg>
