<?xml version="1.0" encoding="utf-8"?>
<!-- Generator: Adobe Illustrator 25.2.1, SVG Export Plug-In . SVG Version: 6.00 Build 0)  -->
<svg version="1.1" id="Layer_1" xmlns="http://www.w3.org/2000/svg" xmlns:xlink="http://www.w3.org/1999/xlink" x="0px" y="0px"
	 viewBox="0 0 186 58" style="enable-background:new 0 0 186 58;" xml:space="preserve">
<style type="text/css">
	.st0{fill-rule:evenodd;clip-rule:evenodd;fill:#FFFFFF;}
	.st1{fill:#FFFFFF;}
</style>
<path class="st0" d="M25.5,0.8l24.5,14.1v28.2L25.5,57.2L1,43.1V14.9L25.5,0.8z M11.3,20.9v16.3l14.1,8.1l14.1-8.1V20.9l-14.1-8.1
	L11.3,20.9z"/>
<path class="st1" d="M73,36.6c1,0,2-0.2,2.9-0.7c0.9-0.5,1.7-1.1,2.4-1.9l2.2,2.2c-0.9,1.1-2.1,1.9-3.4,2.6
	c-1.3,0.6-2.8,0.9-4.2,0.9c-1.4,0-2.8-0.3-4.1-0.8c-1.3-0.5-2.3-1.3-3.3-2.2c-0.9-0.9-1.6-2-2.2-3.3c-0.5-1.3-0.8-2.6-0.8-4
	c0-1.4,0.3-2.8,0.8-4c0.5-1.3,1.3-2.3,2.2-3.2c0.9-0.9,2-1.7,3.3-2.2c1.3-0.5,2.6-0.8,4.1-0.8c1.5,0,3,0.3,4.3,0.9
	c1.4,0.6,2.5,1.5,3.4,2.6L78.4,25c-0.7-0.9-1.5-1.5-2.5-2c-0.9-0.5-1.9-0.7-3-0.7c-1,0-1.9,0.2-2.7,0.6c-0.8,0.4-1.6,0.9-2.2,1.5
	c-0.6,0.6-1.1,1.4-1.4,2.3c-0.3,0.9-0.5,1.8-0.5,2.8c0,1,0.2,2,0.5,2.8c0.4,0.9,0.8,1.6,1.5,2.3c0.6,0.6,1.4,1.1,2.2,1.5
	C71.2,36.5,72.1,36.6,73,36.6z"/>
<path class="st1" d="M83.9,39.4V18.5h3.2v9c0.5-0.8,1.2-1.5,1.9-1.9c0.8-0.4,1.6-0.7,2.6-0.7c1.4,0,2.6,0.5,3.5,1.5
	c0.9,0.9,1.4,2.2,1.4,3.6v9.4h-3.2v-8.5c0-1-0.3-1.9-0.9-2.5c-0.6-0.6-1.3-0.9-2.3-0.9c-0.6,0-1.2,0.2-1.8,0.5
	c-0.5,0.3-1,0.7-1.3,1.3v10.2H83.9z"/>
<path class="st1" d="M104.9,39.7c-1.5,0-2.7-0.4-3.6-1.2c-0.9-0.8-1.4-1.9-1.4-3.1c0-1.3,0.5-2.3,1.5-3c1-0.8,2.3-1.1,4-1.1
	c0.7,0,1.3,0.1,1.9,0.2c0.6,0.1,1.3,0.4,1.9,0.7v-1.6c0-0.9-0.3-1.6-0.8-2.1c-0.6-0.5-1.4-0.7-2.4-0.7c-0.6,0-1.2,0.1-1.9,0.3
	c-0.7,0.2-1.4,0.4-2.2,0.8l-1.1-2.3c1.1-0.5,2.1-0.9,3-1.1c1-0.2,1.9-0.4,2.9-0.4c1.8,0,3.3,0.5,4.3,1.4c1,0.9,1.5,2.2,1.5,3.8v9.3
	h-3.2V38c-0.6,0.6-1.3,1-2,1.3C106.5,39.5,105.7,39.7,104.9,39.7z M102.9,35.3c0,0.6,0.3,1.2,0.8,1.6c0.5,0.4,1.2,0.6,2.1,0.6
	c0.6,0,1.2-0.1,1.8-0.3c0.6-0.2,1.1-0.5,1.6-0.9v-2.3c-0.5-0.2-1-0.4-1.6-0.5c-0.5-0.1-1.1-0.2-1.7-0.2c-0.9,0-1.6,0.2-2.2,0.6
	C103.2,34.1,102.9,34.6,102.9,35.3z"/>
<path class="st1" d="M118,22.3c-0.6,0-1-0.2-1.4-0.6c-0.4-0.4-0.6-0.8-0.6-1.4c0-0.5,0.2-1,0.6-1.4c0.4-0.4,0.9-0.6,1.4-0.6
	c0.6,0,1,0.2,1.4,0.6c0.4,0.4,0.6,0.9,0.6,1.4c0,0.6-0.2,1-0.6,1.4C119,22.1,118.6,22.3,118,22.3z M119.6,25.2v14.3h-3.2V25.2H119.6
	z"/>
<path class="st1" d="M123.7,39.4V25.2h3.2v2.3c0.5-0.8,1.2-1.5,1.9-1.9c0.8-0.4,1.6-0.7,2.6-0.7c1.4,0,2.6,0.5,3.5,1.5
	c0.9,0.9,1.4,2.2,1.4,3.6v9.4h-3.2v-8.5c0-1-0.3-1.9-0.9-2.5c-0.6-0.6-1.3-0.9-2.3-0.9c-0.6,0-1.2,0.2-1.8,0.5
	c-0.5,0.3-1,0.7-1.3,1.3v10.2H123.7z"/>
<path class="st1" d="M143.7,18.5v20.9h-3.2V18.5H143.7z"/>
<path class="st1" d="M149.3,22.3c-0.5,0-1-0.2-1.4-0.6c-0.4-0.4-0.6-0.8-0.6-1.4c0-0.5,0.2-1,0.6-1.4c0.4-0.4,0.9-0.6,1.4-0.6
	c0.6,0,1,0.2,1.4,0.6c0.4,0.4,0.6,0.9,0.6,1.4c0,0.6-0.2,1-0.6,1.4C150.4,22.1,149.9,22.3,149.3,22.3z M151,25.2v14.3h-3.2V25.2H151
	z"/>
<path class="st1" d="M155.1,39.4V25.2h3.2V27c0.7-0.7,1.2-1,1.9-1.4c0.8-0.4,1.6-0.7,2.6-0.7c1.4,0,2.6,0.5,3.5,1.5
	c0.9,0.9,1.4,2.2,1.4,3.6v9.4h-3.2v-8.5c0-1-0.3-1.9-0.9-2.5c-0.6-0.6-1.3-0.9-2.3-0.9c-0.6,0-1.2,0.2-1.8,0.5
	c-0.5,0.3-1,0.7-1.3,1.3v10.2H155.1z"/>
<path class="st1" d="M171.8,39.4V18.5h3.2v12.7l5.9-6.1h3.7l-6.5,6.6l6.9,7.7h-4.1l-5.9-6.6v6.6H171.8z"/>
</svg>
