<?xml version="1.0" encoding="utf-8"?>
<!-- Generator: Adobe Illustrator 25.2.1, SVG Export Plug-In . SVG Version: 6.00 Build 0)  -->
<svg version="1.1" id="Layer_1" xmlns="http://www.w3.org/2000/svg" xmlns:xlink="http://www.w3.org/1999/xlink" x="0px" y="0px"
	 viewBox="0 0 179 81" style="enable-background:new 0 0 179 81;" xml:space="preserve">
<style type="text/css">
	.st0{fill-rule:evenodd;clip-rule:evenodd;fill:#FFFFFF;}
	.st1{fill-rule:evenodd;clip-rule:evenodd;fill:url(#SVGID_1_);filter:url(#Adobe_OpacityMaskFilter);}
	.st2{mask:url(#mask0_1_);}
	.st3{fill:#FFFFFF;}
	.st4{fill-rule:evenodd;clip-rule:evenodd;fill:url(#SVGID_2_);filter:url(#Adobe_OpacityMaskFilter_1_);}
	.st5{mask:url(#mask1_1_);}
</style>
<path class="st0" d="M33.2,13.9c-2.9,0-5.3,2.3-5.4,5.2c-8.9,2.4-15.5,10.5-15.5,20.2v17.1c0,2.3-1.9,4.2-4.2,4.2H7
	c-1.7,0-3.1,1.4-3.1,3.1c0,1.7,1.4,3.1,3.1,3.1h52.3c1.7,0,3.1-1.4,3.1-3.1c0-1.7-1.4-3.1-3.1-3.1h-1.1c-2.3,0-4.2-1.9-4.2-4.2V39.2
	c0-9.7-6.6-17.8-15.5-20.2C38.4,16.2,36.1,13.9,33.2,13.9z M41.3,72.3c0.4-1.1,0.7-2.2,0.7-3.4h-8.8h-8.8c0,1.2,0.2,2.3,0.7,3.4
	c0.4,1.1,1.1,2,1.9,2.9c0.8,0.8,1.8,1.5,2.9,1.9c1.1,0.4,2.2,0.7,3.4,0.7c1.2,0,2.3-0.2,3.4-0.7c1.1-0.4,2-1.1,2.9-1.9
	C40.3,74.3,40.9,73.4,41.3,72.3z"/>
<path class="st0" d="M47,9c0.1-0.5,0.6-0.8,1.1-0.7c4.1,1,12.1,5.5,12.1,16c0,0.5-0.4,0.9-0.9,0.9s-0.9-0.4-0.9-0.9
	c0-9.4-7.2-13.4-10.8-14.3C47.2,9.9,46.9,9.5,47,9z"/>
<path class="st0" d="M47.9,3.3C48,2.8,48.5,2.5,49,2.6c5.5,1.3,16.5,7.4,16.5,21.7c0,0.5-0.4,0.9-0.9,0.9c-0.5,0-0.9-0.4-0.9-0.9
	c0-13.1-10.1-18.8-15.1-20C48.1,4.2,47.8,3.7,47.9,3.3z"/>
<path class="st0" d="M18.5,9c-0.1-0.5-0.6-0.8-1.1-0.7c-4.1,1-12.1,5.5-12.1,16c0,0.5,0.4,0.9,0.9,0.9c0.5,0,0.9-0.4,0.9-0.9
	c0-9.4,7.2-13.4,10.8-14.3C18.3,9.9,18.6,9.5,18.5,9z"/>
<path class="st0" d="M17.6,3.3c-0.1-0.5-0.6-0.8-1.1-0.7C11,3.9,0.1,10,0.1,24.3c0,0.5,0.4,0.9,0.9,0.9c0.5,0,0.9-0.4,0.9-0.9
	c0-13.1,10.1-18.8,15.1-20C17.4,4.2,17.7,3.7,17.6,3.3z"/>
<defs>
	<filter id="Adobe_OpacityMaskFilter" filterUnits="userSpaceOnUse" x="-36" y="-50.9" width="135.3" height="135.3">
		<feColorMatrix  type="matrix" values="1 0 0 0 0  0 1 0 0 0  0 0 1 0 0  0 0 0 1 0"/>
	</filter>
</defs>
<mask maskUnits="userSpaceOnUse" x="-36" y="-50.9" width="135.3" height="135.3" id="mask0_1_">
	
		<linearGradient id="SVGID_1_" gradientUnits="userSpaceOnUse" x1="10.8342" y1="50.7265" x2="50.5623" y2="15.208" gradientTransform="matrix(1 0 0 -1 0 82)">
		<stop  offset="0.1719" style="stop-color:#D61986"/>
		<stop  offset="0.9531" style="stop-color:#664DA0"/>
	</linearGradient>
	<path class="st1" d="M33.2,13.9c-2.9,0-5.3,2.3-5.4,5.2c-8.9,2.4-15.5,10.5-15.5,20.2v17.1c0,2.3-1.9,4.2-4.2,4.2H7
		c-1.7,0-3.1,1.4-3.1,3.1c0,1.7,1.4,3.1,3.1,3.1h52.3c1.7,0,3.1-1.4,3.1-3.1c0-1.7-1.4-3.1-3.1-3.1h-1.1c-2.3,0-4.2-1.9-4.2-4.2
		V39.2c0-9.7-6.6-17.8-15.5-20.2C38.4,16.2,36.1,13.9,33.2,13.9z M41.3,72.3c0.4-1.1,0.7-2.2,0.7-3.4h-8.8h-8.8
		c0,1.2,0.2,2.3,0.7,3.4c0.4,1.1,1.1,2,1.9,2.9c0.8,0.8,1.8,1.5,2.9,1.9c1.1,0.4,2.2,0.7,3.4,0.7c1.2,0,2.3-0.2,3.4-0.7
		c1.1-0.4,2-1.1,2.9-1.9C40.3,74.3,40.9,73.4,41.3,72.3z"/>
</mask>
<g class="st2">
	<circle class="st3" cx="31.7" cy="16.7" r="67.7"/>
</g>
<path class="st0" d="M132.7,25.6L124,69.6l12.8-34.7l6.6,18h6l9.4-43.7l-13.4,35.7l-6.5-19.1H132.7z M126.4,34.2
	c0,5.6-3.7,8.7-9.5,8.7h-6v10.3h-4.7V25.4h10.7C122.6,25.4,126.4,28.4,126.4,34.2z M116.8,38.8c3.3,0,4.9-1.9,4.9-4.6
	c0-2.8-1.7-4.7-4.9-4.7h-5.9v9.3H116.8z M84,53.2V25.6h18v4.1H88.6V37h12.2v4.1H88.6V49H102v4.2H84z M158.7,45
	c0.9,4.9,4.9,7.7,10.5,7.7c5.4,0,9.3-3,9.3-7.9c0-3.9-2.7-6.3-6.8-7.3l-4.6-1.1c-2.3-0.6-3.5-1.7-3.5-3.4c0-2.2,1.9-3.6,4.7-3.6
	c3.1,0,4.8,1.5,5.5,3.5h4.4c-0.9-4.4-4.3-7.3-9.9-7.3c-5.3,0-8.9,3.3-8.9,7.8c0,4.2,2.9,6.2,6.5,7l4.4,1.1c2.7,0.6,3.8,1.7,3.8,3.5
	c0,2.4-2,3.9-5.1,3.9c-2.9,0-5.1-1.2-5.9-3.9H158.7z"/>
<defs>
	<filter id="Adobe_OpacityMaskFilter_1_" filterUnits="userSpaceOnUse" x="81.7" y="-14.7" width="92" height="60">
		<feColorMatrix  type="matrix" values="1 0 0 0 0  0 1 0 0 0  0 0 1 0 0  0 0 0 1 0"/>
	</filter>
</defs>
<mask maskUnits="userSpaceOnUse" x="81.7" y="-14.7" width="92" height="60" id="mask1_1_">
	
		<linearGradient id="SVGID_2_" gradientUnits="userSpaceOnUse" x1="112.5889" y1="67.8819" x2="147.3434" y2="14.9761" gradientTransform="matrix(1 0 0 -1 0 82)">
		<stop  offset="0.1719" style="stop-color:#D61986"/>
		<stop  offset="0.9531" style="stop-color:#664DA0"/>
	</linearGradient>
	<path class="st4" d="M132.7,25.6L124,69.6l12.8-34.7l6.6,18h6l9.4-43.7l-13.4,35.7l-6.5-19.1H132.7z M126.4,34.2
		c0,5.6-3.7,8.7-9.5,8.7h-6v10.3h-4.7V25.4h10.7C122.6,25.4,126.4,28.4,126.4,34.2z M116.8,38.8c3.3,0,4.9-1.9,4.9-4.6
		c0-2.8-1.7-4.7-4.9-4.7h-5.9v9.3H116.8z M84,53.2V25.6h18v4.1H88.6V37h12.2v4.1H88.6V49H102v4.2H84z M158.7,45
		c0.9,4.9,4.9,7.7,10.5,7.7c5.4,0,9.3-3,9.3-7.9c0-3.9-2.7-6.3-6.8-7.3l-4.6-1.1c-2.3-0.6-3.5-1.7-3.5-3.4c0-2.2,1.9-3.6,4.7-3.6
		c3.1,0,4.8,1.5,5.5,3.5h4.4c-0.9-4.4-4.3-7.3-9.9-7.3c-5.3,0-8.9,3.3-8.9,7.8c0,4.2,2.9,6.2,6.5,7l4.4,1.1c2.7,0.6,3.8,1.7,3.8,3.5
		c0,2.4-2,3.9-5.1,3.9c-2.9,0-5.1-1.2-5.9-3.9H158.7z"/>
</mask>
<g class="st5">
	<g>
		<ellipse class="st3" cx="127.7" cy="15.3" rx="46" ry="30"/>
	</g>
</g>
<circle class="st3" cx="160" cy="3.2" r="2.6"/>
<circle class="st3" cx="117.3" cy="77.6" r="2.9"/>
<circle class="st3" cx="124.9" cy="77.6" r="2.9"/>
<circle class="st3" cx="132.5" cy="77.6" r="2.9"/>
</svg>
