<?xml version="1.0" encoding="utf-8"?>
<!-- Generator: Adobe Illustrator 25.2.1, SVG Export Plug-In . SVG Version: 6.00 Build 0)  -->
<svg version="1.1" id="Layer_1" xmlns="http://www.w3.org/2000/svg" xmlns:xlink="http://www.w3.org/1999/xlink" x="0px" y="0px"
	 viewBox="0 0 210 44" style="enable-background:new 0 0 210 44;" xml:space="preserve">
<style type="text/css">
	.st0{fill:#FFFFFF;}
</style>
<path class="st0" d="M17.8,20.6c0.6-1.6,2.2-2.8,4-2.8c1.8,0,3.4,1.2,4,2.8h3.5c-0.7-3.6-3.8-6.3-7.5-6.3c-3.8,0-6.9,2.7-7.5,6.3
	H17.8z"/>
<path class="st0" d="M18,23.9h-3.7c0.9,3.3,3.9,5.8,7.4,5.8c3.6,0,6.6-2.4,7.4-5.8h-3.7c-0.7,1.4-2.1,2.3-3.8,2.3
	C20.1,26.2,18.7,25.3,18,23.9z"/>
<path class="st0" d="M19.9,7.5C13.2,8.4,8,13.7,7.3,20.4h3.8c0.7-4.6,4.3-8.3,8.9-9.1V7.5z"/>
<path class="st0" d="M19.9,32.6c-4.4-0.8-7.9-4.2-8.8-8.5H7.3c0.9,6.4,6.1,11.5,12.6,12.3V32.6z"/>
<path class="st0" d="M23.6,36.5v-3.8c4.4-0.8,7.9-4.2,8.8-8.5h3.8C35.2,30.6,30.1,35.6,23.6,36.5z"/>
<path class="st0" d="M23.6,11.4V7.5c6.7,0.8,11.9,6.2,12.7,12.9h-3.8C31.8,15.8,28.2,12.1,23.6,11.4z"/>
<path class="st0" d="M10,4.5c-5.2,3.5-8.8,9.3-9.3,16h3.8c0.5-5.2,3.3-9.8,7.4-12.7L10,4.5z"/>
<path class="st0" d="M29.1,37.7c-2.2,1.1-4.7,1.6-7.4,1.6c-2.4,0-4.7-0.5-6.8-1.4l-1.9,3.3c2.7,1.2,5.6,1.9,8.7,1.9
	c3.3,0,6.5-0.8,9.3-2.1L29.1,37.7z"/>
<path class="st0" d="M34.2,39.1l-1.9-3.3c3.6-2.8,6.1-6.9,6.7-11.7h3.8C42.2,30.3,38.9,35.6,34.2,39.1z"/>
<path class="st0" d="M15.1,6l-1.9-3.3c2.6-1.2,5.5-1.8,8.6-1.8c3.3,0,6.4,0.7,9.2,2.1L29,6.3c-2.2-1-4.7-1.6-7.3-1.6
	C19.4,4.7,17.1,5.1,15.1,6z"/>
<path class="st0" d="M34.1,4.9l-1.9,3.3C36,11,38.6,15.4,39,20.4h3.8C42.3,14,39,8.4,34.1,4.9z"/>
<path class="st0" d="M4.6,24.1c0.6,5,3.3,9.3,7.2,12l-1.9,3.3c-5-3.4-8.5-9-9.1-15.3H4.6z"/>
<path class="st0" d="M57.8,7.3h5.9l5.1,15.5c0.3,1,0.7,2.4,1.1,4.2H70c0.4-2,0.8-3.4,1.1-4.2l5-15.5h5.8v24.2H78V15.7l0.1-4.3h-0.2
	c-0.2,1.1-0.4,1.9-0.6,2.5l-5.8,17.6H68l-5.8-17.6c-0.1-0.4-0.3-1-0.5-1.8l-0.2-0.7h-0.2l0.1,4.3v15.8h-3.7V7.3z"/>
<path class="st0" d="M89.2,38c-1.2,0-2.1-0.1-2.7-0.4v-2.4h1.6c2.1,0,3.6-1.2,4.3-3.7L85.2,13H89l3.5,9.1c0.5,1.2,1.1,3,1.8,5.5h0.2
	c0.7-2.4,1.2-4.2,1.6-5.5l2.9-9.1h3.6l-6.1,17.6c-0.8,2.4-1.8,4.2-2.9,5.4C92.5,37.3,91.1,38,89.2,38z"/>
<path class="st0" d="M112.8,32c-2.9,0-5-0.8-6.4-2.4c-1.4-1.6-2-4-2-7.3s0.7-5.8,2-7.3c1.4-1.6,3.5-2.4,6.4-2.4
	c2.5,0,4.4,0.6,5.6,1.9c1.3,1.2,1.9,3,1.9,5.5h-3.7c0-1.5-0.3-2.6-0.9-3.3c-0.6-0.7-1.6-1.1-3-1.1c-1.6,0-2.8,0.5-3.5,1.6
	c-0.7,1.1-1.1,2.8-1.1,5.1v0.2c0,2.3,0.4,4,1.1,5c0.8,1,2,1.6,3.6,1.6c1.4,0,2.4-0.4,3-1.1c0.7-0.8,1-1.8,1-3.3h3.5
	c0,2.2-0.6,4-1.9,5.3C117.2,31.3,115.3,32,112.8,32z"/>
<path class="st0" d="M131.8,32c-3,0-5.2-0.8-6.7-2.4c-1.5-1.6-2.2-4-2.2-7.3s0.7-5.8,2.2-7.3c1.5-1.6,3.7-2.4,6.7-2.4
	c2.7,0,4.7,0.7,6.1,2.2c1.3,1.5,2,3.8,2,7v1.4h-13.2c0.1,2,0.5,3.5,1.3,4.4c0.8,0.9,2.1,1.4,3.8,1.4c1.3,0,2.4-0.3,3.2-1
	c0.8-0.6,1.2-1.6,1.2-2.9h3.6c0,2.2-0.8,3.9-2.3,5.1C136.1,31.4,134.2,32,131.8,32z M136.1,20.4c0-3.3-1.4-4.9-4.3-4.9
	c-1.6,0-2.8,0.4-3.6,1.2c-0.8,0.8-1.3,2-1.4,3.7H136.1z"/>
<path class="st0" d="M143.7,6h3.6v21.2c0,0.7,0.6,1.3,1.3,1.3h2.2v2.9h-3.1c-2.2,0-4-1.8-4-4V6z"/>
<path class="st0" d="M155,6h3.6v3.7H155V6z M155,13h3.6v18.6H155V13z"/>
<path class="st0" d="M169.4,32c-3.9,0-5.9-2.1-5.9-6.4V13h3.6v12.1c0,1.4,0.3,2.4,0.9,2.9c0.6,0.5,1.6,0.8,2.8,0.8
	c0.8,0,1.6-0.2,2.3-0.6c0.7-0.4,1.3-1,1.7-1.8c0.4-0.8,0.6-1.6,0.6-2.6V13h3.6v18.6h-2.9l-0.4-2.5h-0.2c-0.7,0.9-1.5,1.7-2.6,2.2
	C171.9,31.7,170.7,32,169.4,32z"/>
<path class="st0" d="M184,13h2.9l0.4,2.5h0.2c0.6-0.9,1.4-1.7,2.3-2.2c0.9-0.5,2-0.7,3.1-0.7c2.4,0,4,1,4.8,2.9h0.2
	c0.6-0.9,1.4-1.6,2.4-2.1c1-0.5,2.1-0.8,3.2-0.8c1.7,0,3.1,0.5,4.1,1.4c1,0.9,1.5,2.4,1.5,4.5v13.1h-3.6V19.2c0-1.3-0.3-2.2-0.8-2.7
	c-0.5-0.5-1.3-0.8-2.3-0.8c-1.2,0-2.1,0.5-2.9,1.4c-0.8,0.9-1.2,2.1-1.2,3.6v10.9h-3.6V19.2c0-1.3-0.3-2.2-0.8-2.7
	c-0.5-0.5-1.3-0.8-2.3-0.8c-1.2,0-2.1,0.5-2.9,1.4c-0.8,0.9-1.2,2.1-1.2,3.6v10.9H184V13z"/>
</svg>
