<?xml version="1.0" encoding="utf-8"?>
<!-- Generator: Adobe Illustrator 25.2.1, SVG Export Plug-In . SVG Version: 6.00 Build 0)  -->
<svg version="1.1" id="Layer_1" xmlns="http://www.w3.org/2000/svg" xmlns:xlink="http://www.w3.org/1999/xlink" x="0px" y="0px"
	 viewBox="0 0 216 62" style="enable-background:new 0 0 216 62;" xml:space="preserve">
<style type="text/css">
	.st0{fill:#FFFFFF;stroke:#FFFFFF;stroke-width:11;}
	.st1{fill-rule:evenodd;clip-rule:evenodd;fill:#FFFFFF;stroke:#FFFFFF;stroke-miterlimit:10;}
	.st2{fill:#FFFFFF;stroke:#FFFFFF;stroke-miterlimit:10;}
</style>
<path class="st0" d="M59.7,0.7v18.9"/>
<path class="st1" d="M21.8,26.2c-5.7,0-10.3,4.6-10.3,10.3c0,5.7,4.6,10.3,10.3,10.3c5.7,0,10.3-4.6,10.3-10.3V26.2H21.8z M43,26.2
	h9.7V15.3H21.8c-11.7,0-21.2,9.5-21.2,21.2c0,11.7,9.5,21.2,21.2,21.2c11.7,0,21.2-9.5,21.2-21.2V26.2z"/>
<path class="st2" d="M52.7,50.3l5.4-0.5c0.2,0.6,0.5,1.1,0.9,1.4c0.4,0.3,0.9,0.4,1.6,0.4c0.7,0,1.3-0.2,1.7-0.5
	c0.3-0.2,0.5-0.5,0.5-0.9c0-0.4-0.2-0.7-0.6-0.9c-0.3-0.2-1.1-0.3-2.3-0.6c-1.9-0.3-3.2-0.6-3.9-0.9c-0.7-0.3-1.3-0.8-1.8-1.4
	c-0.5-0.7-0.7-1.4-0.7-2.3c0-0.9,0.3-1.8,0.8-2.4c0.5-0.7,1.3-1.2,2.2-1.5c0.9-0.3,2.2-0.5,3.8-0.5c1.7,0,2.9,0.1,3.7,0.4
	c0.8,0.3,1.5,0.7,2,1.2c0.5,0.5,1,1.3,1.3,2.2l-5.1,0.5c-0.1-0.5-0.4-0.8-0.7-1c-0.4-0.3-0.9-0.4-1.5-0.4c-0.6,0-1.1,0.1-1.3,0.3
	c-0.3,0.2-0.4,0.5-0.4,0.8c0,0.4,0.2,0.6,0.5,0.8c0.4,0.2,1.1,0.3,2.3,0.5c1.8,0.2,3.1,0.5,4,0.9c0.9,0.4,1.5,0.9,2,1.6
	c0.5,0.7,0.7,1.4,0.7,2.3c0,0.8-0.2,1.6-0.7,2.4c-0.5,0.8-1.3,1.4-2.3,1.9c-1.1,0.5-2.5,0.7-4.3,0.7c-2.6,0-4.4-0.4-5.5-1.1
	C53.7,52.7,53,51.7,52.7,50.3z"/>
<path class="st2" d="M70.6,34.5H76v3.7h-5.4V34.5z M70.6,39.9H76v14.3h-5.4V39.9z"/>
<path class="st2" d="M89.3,39.9h5.1v13.5l0,0.6c0,0.9-0.2,1.8-0.6,2.6c-0.4,0.8-0.9,1.5-1.5,2c-0.6,0.5-1.4,0.9-2.4,1.1
	c-1,0.2-2.1,0.3-3.3,0.3c-2.8,0-4.8-0.4-5.8-1.3c-1.1-0.9-1.6-2-1.6-3.5c0-0.2,0-0.4,0-0.7l5.2,0.6c0.1,0.5,0.3,0.8,0.6,1
	c0.4,0.3,0.9,0.4,1.5,0.4c0.8,0,1.4-0.2,1.7-0.6c0.4-0.4,0.6-1.2,0.6-2.2v-2.2c-0.5,0.6-1.1,1.1-1.6,1.4c-0.8,0.4-1.7,0.7-2.7,0.7
	c-1.9,0-3.4-0.8-4.6-2.5c-0.8-1.2-1.2-2.8-1.2-4.7c0-2.2,0.5-3.9,1.6-5.1c1.1-1.2,2.4-1.8,4.2-1.8c1.1,0,2,0.2,2.7,0.6
	c0.7,0.4,1.4,1,2,1.9V39.9z M84.3,46.9c0,1,0.2,1.8,0.6,2.3c0.4,0.5,1,0.7,1.7,0.7c0.7,0,1.2-0.3,1.7-0.8c0.5-0.5,0.7-1.3,0.7-2.3
	c0-1-0.2-1.8-0.7-2.4c-0.5-0.6-1.1-0.8-1.7-0.8s-1.2,0.3-1.7,0.8C84.5,44.9,84.3,45.7,84.3,46.9z"/>
<path class="st2" d="M97.8,39.9h5V42c0.7-0.9,1.5-1.5,2.2-1.9c0.7-0.4,1.6-0.6,2.7-0.6c1.1,0,2,0.2,2.7,0.6c0.7,0.4,1.2,1,1.6,1.8
	c0.8-0.9,1.6-1.6,2.3-1.9c0.7-0.3,1.6-0.5,2.6-0.5c1.5,0,2.7,0.5,3.5,1.4c0.8,0.9,1.3,2.3,1.3,4.3v9h-5.4v-8.2
	c0-0.6-0.1-1.1-0.4-1.4c-0.4-0.5-0.8-0.7-1.4-0.7c-0.6,0-1.1,0.2-1.5,0.7s-0.6,1.2-0.6,2.3v7.4h-5.4v-7.9c0-0.6,0-1.1-0.1-1.3
	c-0.1-0.4-0.3-0.6-0.6-0.9c-0.3-0.2-0.6-0.3-1-0.3c-0.6,0-1.1,0.2-1.5,0.7c-0.4,0.5-0.6,1.3-0.6,2.3v7.3h-5.4V39.9z"/>
<path class="st2" d="M130,44.6l-5.2-0.6c0.2-0.9,0.5-1.6,0.8-2.2c0.4-0.5,0.9-1,1.6-1.4c0.5-0.3,1.2-0.5,2-0.6
	c0.9-0.2,1.8-0.2,2.8-0.2c1.6,0,2.9,0.1,3.9,0.3c1,0.2,1.8,0.6,2.5,1.1c0.5,0.4,0.8,1,1.1,1.7c0.3,0.7,0.4,1.4,0.4,2.1v6.3
	c0,0.7,0,1.2,0.1,1.6c0.1,0.4,0.3,0.9,0.6,1.5h-5.1c-0.2-0.4-0.3-0.6-0.4-0.8c-0.1-0.2-0.1-0.5-0.2-0.9c-0.7,0.7-1.4,1.2-2.1,1.5
	c-1,0.4-2.1,0.6-3.3,0.6c-1.7,0-3-0.4-3.8-1.2c-0.9-0.8-1.3-1.8-1.3-2.9c0-1.1,0.3-2,0.9-2.7c0.6-0.7,1.8-1.2,3.5-1.6
	c2-0.4,3.3-0.7,3.9-0.9c0.6-0.2,1.2-0.4,1.9-0.7c0-0.7-0.1-1.1-0.4-1.4s-0.8-0.4-1.4-0.4c-0.9,0-1.5,0.1-2,0.4
	C130.5,43.5,130.2,43.9,130,44.6z M134.7,47.5c-0.7,0.3-1.5,0.5-2.3,0.7c-1.1,0.3-1.8,0.6-2.1,0.9c-0.3,0.3-0.5,0.6-0.5,1
	c0,0.4,0.1,0.8,0.4,1.1c0.3,0.3,0.7,0.4,1.3,0.4c0.6,0,1.2-0.1,1.7-0.4c0.5-0.3,0.9-0.7,1.1-1.1c0.2-0.4,0.3-1,0.3-1.7V47.5z"/>
<path class="st2" d="M146.6,43.2c0.4-1.2,1.2-2.2,2.3-3c1.1-0.8,2.5-1.2,4.1-1.2c1.4,0,2.6,0.3,3.7,0.9c1.1,0.6,2,1.5,2.6,2.7
	c0.6,1.2,0.9,2.5,0.9,4.1c0,1.5-0.3,2.9-0.9,4.1c-0.6,1.2-1.5,2.1-2.6,2.7c-1.1,0.6-2.3,0.9-3.7,0.9c-1.6,0-2.9-0.4-4-1.2
	c-1.1-0.8-1.9-1.8-2.3-3v11h-1.2V39.2h1.2V43.2z M158.9,46.7c0-1.4-0.3-2.5-0.8-3.5c-0.5-1-1.2-1.8-2.2-2.3c-0.9-0.5-2-0.8-3.2-0.8
	c-1.2,0-2.2,0.3-3.2,0.8c-0.9,0.5-1.7,1.3-2.2,2.3c-0.5,1-0.8,2.1-0.8,3.5c0,1.3,0.3,2.5,0.8,3.5c0.5,1,1.3,1.8,2.2,2.3
	c0.9,0.5,2,0.8,3.2,0.8c1.2,0,2.3-0.3,3.2-0.8c0.9-0.5,1.7-1.3,2.2-2.3C158.6,49.3,158.9,48.1,158.9,46.7z"/>
<path class="st2" d="M163.8,42.3c0.4-1.1,1-1.9,2-2.5c0.9-0.6,2.1-0.9,3.6-0.9v1.3h-0.4c-1.5,0-2.7,0.4-3.7,1.3
	c-1,0.8-1.5,2.2-1.5,4.1v8.7h-1.2v-15h1.2V42.3z"/>
<path class="st2" d="M172.1,39.2v15h-1.2v-15H172.1z"/>
<path class="st2" d="M193,38.9c1.7,0,3.1,0.6,4.2,1.7c1.1,1.1,1.6,2.7,1.6,4.9v8.8h-1.2v-8.7c0-1.8-0.4-3.2-1.3-4.1
	c-0.8-1-2-1.4-3.5-1.4c-1.5,0-2.8,0.5-3.7,1.6c-0.9,1.1-1.4,2.6-1.4,4.6v8h-1.2v-8.7c0-1.8-0.4-3.2-1.3-4.1c-0.8-1-2-1.4-3.5-1.4
	c-1.5,0-2.8,0.5-3.7,1.6c-0.9,1.1-1.4,2.6-1.4,4.6v8h-1.2v-15h1.2v3.3c0.4-1.2,1.1-2.1,2-2.7c1-0.6,2.1-0.9,3.3-0.9
	c1.4,0,2.5,0.4,3.5,1.1c1,0.7,1.7,1.7,2,3.1c0.4-1.4,1-2.4,2-3.1C190.4,39.3,191.6,38.9,193,38.9z"/>
<path class="st2" d="M215.4,45.7c0,0.7,0,1.2-0.1,1.5h-13c0,1.3,0.3,2.5,0.9,3.4c0.6,0.9,1.3,1.6,2.2,2.1c0.9,0.5,1.9,0.7,3,0.7
	c1.5,0,2.7-0.4,3.7-1.1c1-0.7,1.6-1.7,1.9-3h1.3c-0.3,1.5-1.1,2.8-2.3,3.7c-1.2,0.9-2.8,1.4-4.6,1.4c-1.4,0-2.7-0.3-3.8-0.9
	c-1.1-0.6-2-1.5-2.6-2.7c-0.6-1.2-0.9-2.6-0.9-4.1c0-1.6,0.3-2.9,0.9-4.1c0.6-1.2,1.5-2,2.6-2.7c1.1-0.6,2.4-0.9,3.8-0.9
	c1.4,0,2.7,0.3,3.7,0.9c1.1,0.6,1.9,1.4,2.4,2.5C215.1,43.5,215.4,44.6,215.4,45.7z M214.1,46.2c0.1-1.3-0.2-2.5-0.7-3.4
	c-0.5-0.9-1.2-1.6-2.1-2c-0.9-0.5-1.9-0.7-2.9-0.7c-1.1,0-2,0.2-2.9,0.7c-0.9,0.4-1.6,1.1-2.2,2c-0.6,0.9-0.8,2-0.9,3.4H214.1z"/>
<rect x="170.8" y="33.9" class="st2" width="1.3" height="2.1"/>
</svg>
