<svg width="375" height="329" viewBox="0 0 375 329" fill="none" xmlns="http://www.w3.org/2000/svg">
<rect width="375" height="329" fill="#E5E5E5"/>
<g clip-path="url(#clip0)">
<rect width="375" height="4960" transform="translate(0 -2387)" fill="#0D2BD3"/>
<mask id="mask0" style="mask-type:alpha" maskUnits="userSpaceOnUse" x="-143" y="0" width="588" height="329">
<rect x="-143" width="587.791" height="329" fill="black"/>
</mask>
<g mask="url(#mask0)">
<rect x="1251.52" y="-347.776" width="5.361" height="1558.74" transform="rotate(60 1251.52 -347.776)" stroke="#1A55F5" stroke-width="0.593052"/>
<rect x="1166.93" y="-347.776" width="5.361" height="1558.74" transform="rotate(60 1166.93 -347.776)" stroke="#1A55F5" stroke-width="0.593052"/>
<rect x="447.367" y="-347.776" width="5.361" height="1558.74" transform="rotate(60 447.367 -347.776)" stroke="#1A55F5" stroke-width="0.593052"/>
<rect x="1082.35" y="-347.776" width="5.361" height="1558.74" transform="rotate(60 1082.35 -347.776)" stroke="#1A55F5" stroke-width="0.593052"/>
<rect x="362.779" y="-347.776" width="5.361" height="1558.74" transform="rotate(60 362.779 -347.776)" stroke="#1A55F5" stroke-width="0.593052"/>
<rect x="997.76" y="-347.776" width="5.361" height="1558.74" transform="rotate(60 997.76 -347.776)" stroke="#1A55F5" stroke-width="0.593052"/>
<rect x="278.193" y="-347.776" width="5.361" height="1558.74" transform="rotate(60 278.193 -347.776)" stroke="#1A55F5" stroke-width="0.593052"/>
<rect x="1675.04" y="-347.776" width="5.361" height="1558.74" transform="rotate(60 1675.04 -347.776)" stroke="#1A55F5" stroke-width="0.593052"/>
<rect x="913.176" y="-347.776" width="5.361" height="1558.74" transform="rotate(60 913.176 -347.776)" stroke="#1A55F5" stroke-width="0.593052"/>
<rect x="193.607" y="-347.776" width="5.361" height="1558.74" transform="rotate(60 193.607 -347.776)" stroke="#1A55F5" stroke-width="0.593052"/>
<rect x="1590.45" y="-347.776" width="5.361" height="1558.74" transform="rotate(60 1590.45 -347.776)" stroke="#1A55F5" stroke-width="0.593052"/>
<rect x="828.59" y="-347.776" width="5.361" height="1558.74" transform="rotate(60 828.59 -347.776)" stroke="#1A55F5" stroke-width="0.593052"/>
<rect x="109.021" y="-347.776" width="5.361" height="1558.74" transform="rotate(60 109.021 -347.776)" stroke="#1A55F5" stroke-width="0.593052"/>
<rect x="1505.86" y="-347.776" width="5.361" height="1558.74" transform="rotate(60 1505.86 -347.776)" stroke="#1A55F5" stroke-width="0.593052"/>
<rect x="744.004" y="-347.776" width="5.361" height="1558.74" transform="rotate(60 744.004 -347.776)" stroke="#1A55F5" stroke-width="0.593052"/>
<rect x="24.4355" y="-347.776" width="5.361" height="1558.74" transform="rotate(60 24.4355 -347.776)" stroke="#1A55F5" stroke-width="0.593052"/>
<rect x="1421.28" y="-347.776" width="5.361" height="1558.74" transform="rotate(60 1421.28 -347.776)" stroke="#1A55F5" stroke-width="0.593052"/>
<rect x="659.418" y="-347.776" width="5.361" height="1558.74" transform="rotate(60 659.418 -347.776)" stroke="#1A55F5" stroke-width="0.593052"/>
<rect x="1336.69" y="-347.776" width="5.361" height="1558.74" transform="rotate(60 1336.69 -347.776)" stroke="#1A55F5" stroke-width="0.593052"/>
<rect x="574.832" y="-347.776" width="5.361" height="1558.74" transform="rotate(60 574.832 -347.776)" stroke="#1A55F5" stroke-width="0.593052"/>
<rect x="1230.37" y="-347.776" width="5.361" height="1558.74" transform="rotate(60 1230.37 -347.776)" stroke="#1A55F5" stroke-width="0.593052"/>
<rect x="1145.79" y="-347.776" width="5.361" height="1558.74" transform="rotate(60 1145.79 -347.776)" stroke="#1A55F5" stroke-width="0.593052"/>
<rect x="426.219" y="-347.776" width="5.361" height="1558.74" transform="rotate(60 426.219 -347.776)" stroke="#1A55F5" stroke-width="0.593052"/>
<rect x="1061.2" y="-347.776" width="5.361" height="1558.74" transform="rotate(60 1061.2 -347.776)" stroke="#1A55F5" stroke-width="0.593052"/>
<rect x="341.631" y="-347.776" width="5.361" height="1558.74" transform="rotate(60 341.631 -347.776)" stroke="#1A55F5" stroke-width="0.593052"/>
<rect x="976.613" y="-347.776" width="5.361" height="1558.74" transform="rotate(60 976.613 -347.776)" stroke="#1A55F5" stroke-width="0.593052"/>
<rect x="257.047" y="-347.776" width="5.361" height="1558.74" transform="rotate(60 257.047 -347.776)" stroke="#1A55F5" stroke-width="0.593052"/>
<rect x="1653.89" y="-347.776" width="5.361" height="1558.74" transform="rotate(60 1653.89 -347.776)" stroke="#1A55F5" stroke-width="0.593052"/>
<rect x="892.031" y="-347.776" width="5.361" height="1558.74" transform="rotate(60 892.031 -347.776)" stroke="#1A55F5" stroke-width="0.593052"/>
<rect x="172.459" y="-347.776" width="5.361" height="1558.74" transform="rotate(60 172.459 -347.776)" stroke="#1A55F5" stroke-width="0.593052"/>
<rect x="1569.3" y="-347.776" width="5.361" height="1558.74" transform="rotate(60 1569.3 -347.776)" stroke="#1A55F5" stroke-width="0.593052"/>
<rect x="807.441" y="-347.776" width="5.361" height="1558.74" transform="rotate(60 807.441 -347.776)" stroke="#1A55F5" stroke-width="0.593052"/>
<rect x="87.875" y="-347.776" width="5.361" height="1558.74" transform="rotate(60 87.875 -347.776)" stroke="#1A55F5" stroke-width="0.593052"/>
<rect x="1484.71" y="-347.776" width="5.361" height="1558.74" transform="rotate(60 1484.71 -347.776)" stroke="#1A55F5" stroke-width="0.593052"/>
<rect x="722.857" y="-347.776" width="5.361" height="1558.74" transform="rotate(60 722.857 -347.776)" stroke="#1A55F5" stroke-width="0.593052"/>
<rect x="3.28906" y="-347.776" width="5.361" height="1558.74" transform="rotate(60 3.28906 -347.776)" stroke="#1A55F5" stroke-width="0.593052"/>
<rect x="1400.13" y="-347.776" width="5.361" height="1558.74" transform="rotate(60 1400.13 -347.776)" stroke="#1A55F5" stroke-width="0.593052"/>
<rect x="638.27" y="-347.776" width="5.361" height="1558.74" transform="rotate(60 638.27 -347.776)" stroke="#1A55F5" stroke-width="0.593052"/>
<rect x="1315.55" y="-347.776" width="5.361" height="1558.74" transform="rotate(60 1315.55 -347.776)" stroke="#1A55F5" stroke-width="0.593052"/>
<rect x="553.684" y="-347.776" width="5.361" height="1558.74" transform="rotate(60 553.684 -347.776)" stroke="#1A55F5" stroke-width="0.593052"/>
<rect x="1209.23" y="-347.776" width="5.361" height="1558.74" transform="rotate(60 1209.23 -347.776)" stroke="#1A55F5" stroke-width="0.593052"/>
<rect x="489.658" y="-347.776" width="5.361" height="1558.74" transform="rotate(60 489.658 -347.776)" stroke="#1A55F5" stroke-width="0.593052"/>
<rect x="1124.64" y="-347.776" width="5.361" height="1558.74" transform="rotate(60 1124.64 -347.776)" stroke="#1A55F5" stroke-width="0.593052"/>
<rect x="405.072" y="-347.776" width="5.361" height="1558.74" transform="rotate(60 405.072 -347.776)" stroke="#1A55F5" stroke-width="0.593052"/>
<rect x="1040.05" y="-347.776" width="5.361" height="1558.74" transform="rotate(60 1040.05 -347.776)" stroke="#1A55F5" stroke-width="0.593052"/>
<rect x="320.484" y="-347.776" width="5.361" height="1558.74" transform="rotate(60 320.484 -347.776)" stroke="#1A55F5" stroke-width="0.593052"/>
<rect x="1717.33" y="-347.776" width="5.361" height="1558.74" transform="rotate(60 1717.33 -347.776)" stroke="#1A55F5" stroke-width="0.593052"/>
<rect x="955.469" y="-347.776" width="5.361" height="1558.74" transform="rotate(60 955.469 -347.776)" stroke="#1A55F5" stroke-width="0.593052"/>
<rect x="235.9" y="-347.776" width="5.361" height="1558.74" transform="rotate(60 235.9 -347.776)" stroke="#1A55F5" stroke-width="0.593052"/>
<rect x="1632.74" y="-347.776" width="5.361" height="1558.74" transform="rotate(60 1632.74 -347.776)" stroke="#1A55F5" stroke-width="0.593052"/>
<rect x="870.883" y="-347.776" width="5.361" height="1558.74" transform="rotate(60 870.883 -347.776)" stroke="#1A55F5" stroke-width="0.593052"/>
<rect x="151.312" y="-347.776" width="5.361" height="1558.74" transform="rotate(60 151.312 -347.776)" stroke="#1A55F5" stroke-width="0.593052"/>
<rect x="1548.16" y="-347.776" width="5.361" height="1558.74" transform="rotate(60 1548.16 -347.776)" stroke="#1A55F5" stroke-width="0.593052"/>
<rect x="786.297" y="-347.776" width="5.361" height="1558.74" transform="rotate(60 786.297 -347.776)" stroke="#1A55F5" stroke-width="0.593052"/>
<rect x="66.7285" y="-347.776" width="5.361" height="1558.74" transform="rotate(60 66.7285 -347.776)" stroke="#1A55F5" stroke-width="0.593052"/>
<rect x="1463.57" y="-347.776" width="5.361" height="1558.74" transform="rotate(60 1463.57 -347.776)" stroke="#1A55F5" stroke-width="0.593052"/>
<rect x="701.711" y="-347.776" width="5.361" height="1558.74" transform="rotate(60 701.711 -347.776)" stroke="#1A55F5" stroke-width="0.593052"/>
<rect x="1378.99" y="-347.776" width="5.361" height="1558.74" transform="rotate(60 1378.99 -347.776)" stroke="#1A55F5" stroke-width="0.593052"/>
<rect x="617.127" y="-347.776" width="5.361" height="1558.74" transform="rotate(60 617.127 -347.776)" stroke="#1A55F5" stroke-width="0.593052"/>
<rect x="1294.4" y="-347.776" width="5.361" height="1558.74" transform="rotate(60 1294.4 -347.776)" stroke="#1A55F5" stroke-width="0.593052"/>
<rect x="532.539" y="-347.776" width="5.361" height="1558.74" transform="rotate(60 532.539 -347.776)" stroke="#1A55F5" stroke-width="0.593052"/>
<rect x="1188.08" y="-347.776" width="5.361" height="1558.74" transform="rotate(60 1188.08 -347.776)" stroke="#1A55F5" stroke-width="0.593052"/>
<rect x="468.512" y="-347.776" width="5.361" height="1558.74" transform="rotate(60 468.512 -347.776)" stroke="#1A55F5" stroke-width="0.593052"/>
<rect x="1103.5" y="-347.776" width="5.361" height="1558.74" transform="rotate(60 1103.5 -347.776)" stroke="#1A55F5" stroke-width="0.593052"/>
<rect x="383.926" y="-347.776" width="5.361" height="1558.74" transform="rotate(60 383.926 -347.776)" stroke="#1A55F5" stroke-width="0.593052"/>
<rect x="1018.91" y="-347.776" width="5.361" height="1558.74" transform="rotate(60 1018.91 -347.776)" stroke="#1A55F5" stroke-width="0.593052"/>
<rect x="299.34" y="-347.776" width="5.361" height="1558.74" transform="rotate(60 299.34 -347.776)" stroke="#1A55F5" stroke-width="0.593052"/>
<rect x="1696.18" y="-347.776" width="5.361" height="1558.74" transform="rotate(60 1696.18 -347.776)" stroke="#1A55F5" stroke-width="0.593052"/>
<rect x="934.322" y="-347.776" width="5.361" height="1558.74" transform="rotate(60 934.322 -347.776)" stroke="#1A55F5" stroke-width="0.593052"/>
<rect x="214.756" y="-347.776" width="5.361" height="1558.74" transform="rotate(60 214.756 -347.776)" stroke="#1A55F5" stroke-width="0.593052"/>
<rect x="1611.6" y="-347.776" width="5.361" height="1558.74" transform="rotate(60 1611.6 -347.776)" stroke="#1A55F5" stroke-width="0.593052"/>
<rect x="849.734" y="-347.776" width="5.361" height="1558.74" transform="rotate(60 849.734 -347.776)" stroke="#1A55F5" stroke-width="0.593052"/>
<rect x="130.166" y="-347.776" width="5.361" height="1558.74" transform="rotate(60 130.166 -347.776)" stroke="#1A55F5" stroke-width="0.593052"/>
<rect x="1527.01" y="-347.776" width="5.361" height="1558.74" transform="rotate(60 1527.01 -347.776)" stroke="#1A55F5" stroke-width="0.593052"/>
<rect x="765.148" y="-347.776" width="5.361" height="1558.74" transform="rotate(60 765.148 -347.776)" stroke="#1A55F5" stroke-width="0.593052"/>
<rect x="45.582" y="-347.776" width="5.361" height="1558.74" transform="rotate(60 45.582 -347.776)" stroke="#1A55F5" stroke-width="0.593052"/>
<rect x="1442.42" y="-347.776" width="5.361" height="1558.74" transform="rotate(60 1442.42 -347.776)" stroke="#1A55F5" stroke-width="0.593052"/>
<rect x="680.562" y="-347.776" width="5.361" height="1558.74" transform="rotate(60 680.562 -347.776)" stroke="#1A55F5" stroke-width="0.593052"/>
<rect x="1357.84" y="-347.776" width="5.361" height="1558.74" transform="rotate(60 1357.84 -347.776)" stroke="#1A55F5" stroke-width="0.593052"/>
<rect x="595.979" y="-347.776" width="5.361" height="1558.74" transform="rotate(60 595.979 -347.776)" stroke="#1A55F5" stroke-width="0.593052"/>
<rect x="1273.25" y="-347.776" width="5.361" height="1558.74" transform="rotate(60 1273.25 -347.776)" stroke="#1A55F5" stroke-width="0.593052"/>
<rect x="511.393" y="-347.776" width="5.361" height="1558.74" transform="rotate(60 511.393 -347.776)" stroke="#1A55F5" stroke-width="0.593052"/>
<rect width="5.361" height="1558.74" transform="matrix(-0.5 0.866025 0.866025 0.5 -793.541 -347.777)" stroke="#1A55F5" stroke-width="0.593052"/>
<rect width="5.361" height="1558.74" transform="matrix(-0.5 0.866025 0.866025 0.5 -708.951 -347.777)" stroke="#1A55F5" stroke-width="0.593052"/>
<rect width="5.361" height="1558.74" transform="matrix(-0.5 0.866025 0.866025 0.5 10.6133 -347.777)" stroke="#1A55F5" stroke-width="0.593052"/>
<rect width="5.361" height="1558.74" transform="matrix(-0.5 0.866025 0.866025 0.5 -624.367 -347.777)" stroke="#1A55F5" stroke-width="0.593052"/>
<rect width="5.361" height="1558.74" transform="matrix(-0.5 0.866025 0.866025 0.5 95.2012 -347.777)" stroke="#1A55F5" stroke-width="0.593052"/>
<rect width="5.361" height="1558.74" transform="matrix(-0.5 0.866025 0.866025 0.5 -1301.64 -347.777)" stroke="#1A55F5" stroke-width="0.593052"/>
<rect width="5.361" height="1558.74" transform="matrix(-0.5 0.866025 0.866025 0.5 -539.779 -347.777)" stroke="#1A55F5" stroke-width="0.593052"/>
<rect width="5.361" height="1558.74" transform="matrix(-0.5 0.866025 0.866025 0.5 179.789 -347.777)" stroke="#1A55F5" stroke-width="0.593052"/>
<rect width="5.361" height="1558.74" transform="matrix(-0.5 0.866025 0.866025 0.5 -1217.06 -347.777)" stroke="#1A55F5" stroke-width="0.593052"/>
<rect width="5.361" height="1558.74" transform="matrix(-0.5 0.866025 0.866025 0.5 -455.195 -347.777)" stroke="#1A55F5" stroke-width="0.593052"/>
<rect width="5.361" height="1558.74" transform="matrix(-0.5 0.866025 0.866025 0.5 264.371 -347.777)" stroke="#1A55F5" stroke-width="0.593052"/>
<rect width="5.361" height="1558.74" transform="matrix(-0.5 0.866025 0.866025 0.5 -1132.47 -347.777)" stroke="#1A55F5" stroke-width="0.593052"/>
<rect width="5.361" height="1558.74" transform="matrix(-0.5 0.866025 0.866025 0.5 -370.609 -347.777)" stroke="#1A55F5" stroke-width="0.593052"/>
<rect width="5.361" height="1558.74" transform="matrix(-0.5 0.866025 0.866025 0.5 348.961 -347.777)" stroke="#1A55F5" stroke-width="0.593052"/>
<rect width="5.361" height="1558.74" transform="matrix(-0.5 0.866025 0.866025 0.5 -1047.88 -347.777)" stroke="#1A55F5" stroke-width="0.593052"/>
<rect width="5.361" height="1558.74" transform="matrix(-0.5 0.866025 0.866025 0.5 -286.023 -347.777)" stroke="#1A55F5" stroke-width="0.593052"/>
<rect width="5.361" height="1558.74" transform="matrix(-0.5 0.866025 0.866025 0.5 -963.297 -347.777)" stroke="#1A55F5" stroke-width="0.593052"/>
<rect width="5.361" height="1558.74" transform="matrix(-0.5 0.866025 0.866025 0.5 -201.438 -347.777)" stroke="#1A55F5" stroke-width="0.593052"/>
<rect width="5.361" height="1558.74" transform="matrix(-0.5 0.866025 0.866025 0.5 -878.713 -347.777)" stroke="#1A55F5" stroke-width="0.593052"/>
<rect width="5.361" height="1558.74" transform="matrix(-0.5 0.866025 0.866025 0.5 -116.852 -347.777)" stroke="#1A55F5" stroke-width="0.593052"/>
<rect width="5.361" height="1558.74" transform="matrix(-0.5 0.866025 0.866025 0.5 -772.391 -347.777)" stroke="#1A55F5" stroke-width="0.593052"/>
<rect width="5.361" height="1558.74" transform="matrix(-0.5 0.866025 0.866025 0.5 -687.807 -347.777)" stroke="#1A55F5" stroke-width="0.593052"/>
<rect width="5.361" height="1558.74" transform="matrix(-0.5 0.866025 0.866025 0.5 31.7598 -347.777)" stroke="#1A55F5" stroke-width="0.593052"/>
<rect width="5.361" height="1558.74" transform="matrix(-0.5 0.866025 0.866025 0.5 -603.221 -347.777)" stroke="#1A55F5" stroke-width="0.593052"/>
<rect width="5.361" height="1558.74" transform="matrix(-0.5 0.866025 0.866025 0.5 116.35 -347.777)" stroke="#1A55F5" stroke-width="0.593052"/>
<rect width="5.361" height="1558.74" transform="matrix(-0.5 0.866025 0.866025 0.5 -1280.5 -347.777)" stroke="#1A55F5" stroke-width="0.593052"/>
<rect width="5.361" height="1558.74" transform="matrix(-0.5 0.866025 0.866025 0.5 -518.633 -347.777)" stroke="#1A55F5" stroke-width="0.593052"/>
<rect width="5.361" height="1558.74" transform="matrix(-0.5 0.866025 0.866025 0.5 200.934 -347.777)" stroke="#1A55F5" stroke-width="0.593052"/>
<rect width="5.361" height="1558.74" transform="matrix(-0.5 0.866025 0.866025 0.5 -1195.91 -347.777)" stroke="#1A55F5" stroke-width="0.593052"/>
<rect width="5.361" height="1558.74" transform="matrix(-0.5 0.866025 0.866025 0.5 -434.051 -347.777)" stroke="#1A55F5" stroke-width="0.593052"/>
<rect width="5.361" height="1558.74" transform="matrix(-0.5 0.866025 0.866025 0.5 285.521 -347.777)" stroke="#1A55F5" stroke-width="0.593052"/>
<rect width="5.361" height="1558.74" transform="matrix(-0.5 0.866025 0.866025 0.5 -1111.32 -347.777)" stroke="#1A55F5" stroke-width="0.593052"/>
<rect width="5.361" height="1558.74" transform="matrix(-0.5 0.866025 0.866025 0.5 -349.461 -347.777)" stroke="#1A55F5" stroke-width="0.593052"/>
<rect width="5.361" height="1558.74" transform="matrix(-0.5 0.866025 0.866025 0.5 370.105 -347.777)" stroke="#1A55F5" stroke-width="0.593052"/>
<rect width="5.361" height="1558.74" transform="matrix(-0.5 0.866025 0.866025 0.5 -1026.74 -347.777)" stroke="#1A55F5" stroke-width="0.593052"/>
<rect width="5.361" height="1558.74" transform="matrix(-0.5 0.866025 0.866025 0.5 -264.877 -347.777)" stroke="#1A55F5" stroke-width="0.593052"/>
<rect width="5.361" height="1558.74" transform="matrix(-0.5 0.866025 0.866025 0.5 -942.152 -347.777)" stroke="#1A55F5" stroke-width="0.593052"/>
<rect width="5.361" height="1558.74" transform="matrix(-0.5 0.866025 0.866025 0.5 -180.289 -347.777)" stroke="#1A55F5" stroke-width="0.593052"/>
<rect width="5.361" height="1558.74" transform="matrix(-0.5 0.866025 0.866025 0.5 -857.564 -347.777)" stroke="#1A55F5" stroke-width="0.593052"/>
<rect width="5.361" height="1558.74" transform="matrix(-0.5 0.866025 0.866025 0.5 -95.7031 -347.777)" stroke="#1A55F5" stroke-width="0.593052"/>
<rect width="5.361" height="1558.74" transform="matrix(-0.5 0.866025 0.866025 0.5 -751.246 -347.777)" stroke="#1A55F5" stroke-width="0.593052"/>
<rect width="5.361" height="1558.74" transform="matrix(-0.5 0.866025 0.866025 0.5 -31.6758 -347.777)" stroke="#1A55F5" stroke-width="0.593052"/>
<rect width="5.361" height="1558.74" transform="matrix(-0.5 0.866025 0.866025 0.5 -666.658 -347.777)" stroke="#1A55F5" stroke-width="0.593052"/>
<rect width="5.361" height="1558.74" transform="matrix(-0.5 0.866025 0.866025 0.5 52.9082 -347.777)" stroke="#1A55F5" stroke-width="0.593052"/>
<rect width="5.361" height="1558.74" transform="matrix(-0.5 0.866025 0.866025 0.5 -1343.94 -347.777)" stroke="#1A55F5" stroke-width="0.593052"/>
<rect width="5.361" height="1558.74" transform="matrix(-0.5 0.866025 0.866025 0.5 -582.074 -347.777)" stroke="#1A55F5" stroke-width="0.593052"/>
<rect width="5.361" height="1558.74" transform="matrix(-0.5 0.866025 0.866025 0.5 137.496 -347.777)" stroke="#1A55F5" stroke-width="0.593052"/>
<rect width="5.361" height="1558.74" transform="matrix(-0.5 0.866025 0.866025 0.5 -1259.35 -347.777)" stroke="#1A55F5" stroke-width="0.593052"/>
<rect width="5.361" height="1558.74" transform="matrix(-0.5 0.866025 0.866025 0.5 -497.488 -347.777)" stroke="#1A55F5" stroke-width="0.593052"/>
<rect width="5.361" height="1558.74" transform="matrix(-0.5 0.866025 0.866025 0.5 222.08 -347.777)" stroke="#1A55F5" stroke-width="0.593052"/>
<rect width="5.361" height="1558.74" transform="matrix(-0.5 0.866025 0.866025 0.5 -1174.76 -347.777)" stroke="#1A55F5" stroke-width="0.593052"/>
<rect width="5.361" height="1558.74" transform="matrix(-0.5 0.866025 0.866025 0.5 -412.902 -347.777)" stroke="#1A55F5" stroke-width="0.593052"/>
<rect width="5.361" height="1558.74" transform="matrix(-0.5 0.866025 0.866025 0.5 306.668 -347.777)" stroke="#1A55F5" stroke-width="0.593052"/>
<rect width="5.361" height="1558.74" transform="matrix(-0.5 0.866025 0.866025 0.5 -1090.18 -347.777)" stroke="#1A55F5" stroke-width="0.593052"/>
<rect width="5.361" height="1558.74" transform="matrix(-0.5 0.866025 0.866025 0.5 -328.316 -347.777)" stroke="#1A55F5" stroke-width="0.593052"/>
<rect width="5.361" height="1558.74" transform="matrix(-0.5 0.866025 0.866025 0.5 -1005.59 -347.777)" stroke="#1A55F5" stroke-width="0.593052"/>
<rect width="5.361" height="1558.74" transform="matrix(-0.5 0.866025 0.866025 0.5 -243.73 -347.777)" stroke="#1A55F5" stroke-width="0.593052"/>
<rect width="5.361" height="1558.74" transform="matrix(-0.5 0.866025 0.866025 0.5 -921.004 -347.777)" stroke="#1A55F5" stroke-width="0.593052"/>
<rect width="5.361" height="1558.74" transform="matrix(-0.5 0.866025 0.866025 0.5 -159.146 -347.777)" stroke="#1A55F5" stroke-width="0.593052"/>
<rect width="5.361" height="1558.74" transform="matrix(-0.5 0.866025 0.866025 0.5 -836.418 -347.777)" stroke="#1A55F5" stroke-width="0.593052"/>
<rect width="5.361" height="1558.74" transform="matrix(-0.5 0.866025 0.866025 0.5 -74.5586 -347.777)" stroke="#1A55F5" stroke-width="0.593052"/>
<rect width="5.361" height="1558.74" transform="matrix(-0.5 0.866025 0.866025 0.5 -730.098 -347.777)" stroke="#1A55F5" stroke-width="0.593052"/>
<rect width="5.361" height="1558.74" transform="matrix(-0.5 0.866025 0.866025 0.5 -10.5312 -347.777)" stroke="#1A55F5" stroke-width="0.593052"/>
<rect width="5.361" height="1558.74" transform="matrix(-0.5 0.866025 0.866025 0.5 -645.516 -347.777)" stroke="#1A55F5" stroke-width="0.593052"/>
<rect width="5.361" height="1558.74" transform="matrix(-0.5 0.866025 0.866025 0.5 74.0566 -347.777)" stroke="#1A55F5" stroke-width="0.593052"/>
<rect width="5.361" height="1558.74" transform="matrix(-0.5 0.866025 0.866025 0.5 -1322.79 -347.777)" stroke="#1A55F5" stroke-width="0.593052"/>
<rect width="5.361" height="1558.74" transform="matrix(-0.5 0.866025 0.866025 0.5 -560.926 -347.777)" stroke="#1A55F5" stroke-width="0.593052"/>
<rect width="5.361" height="1558.74" transform="matrix(-0.5 0.866025 0.866025 0.5 158.643 -347.777)" stroke="#1A55F5" stroke-width="0.593052"/>
<rect width="5.361" height="1558.74" transform="matrix(-0.5 0.866025 0.866025 0.5 -1238.2 -347.777)" stroke="#1A55F5" stroke-width="0.593052"/>
<rect width="5.361" height="1558.74" transform="matrix(-0.5 0.866025 0.866025 0.5 -476.342 -347.777)" stroke="#1A55F5" stroke-width="0.593052"/>
<rect width="5.361" height="1558.74" transform="matrix(-0.5 0.866025 0.866025 0.5 243.227 -347.777)" stroke="#1A55F5" stroke-width="0.593052"/>
<rect width="5.361" height="1558.74" transform="matrix(-0.5 0.866025 0.866025 0.5 -1153.62 -347.777)" stroke="#1A55F5" stroke-width="0.593052"/>
<rect width="5.361" height="1558.74" transform="matrix(-0.5 0.866025 0.866025 0.5 -391.754 -347.777)" stroke="#1A55F5" stroke-width="0.593052"/>
<rect width="5.361" height="1558.74" transform="matrix(-0.5 0.866025 0.866025 0.5 327.814 -347.777)" stroke="#1A55F5" stroke-width="0.593052"/>
<rect width="5.361" height="1558.74" transform="matrix(-0.5 0.866025 0.866025 0.5 -1069.03 -347.777)" stroke="#1A55F5" stroke-width="0.593052"/>
<rect width="5.361" height="1558.74" transform="matrix(-0.5 0.866025 0.866025 0.5 -307.168 -347.777)" stroke="#1A55F5" stroke-width="0.593052"/>
<rect width="5.361" height="1558.74" transform="matrix(-0.5 0.866025 0.866025 0.5 -984.447 -347.777)" stroke="#1A55F5" stroke-width="0.593052"/>
<rect width="5.361" height="1558.74" transform="matrix(-0.5 0.866025 0.866025 0.5 -222.584 -347.777)" stroke="#1A55F5" stroke-width="0.593052"/>
<rect width="5.361" height="1558.74" transform="matrix(-0.5 0.866025 0.866025 0.5 -899.859 -347.777)" stroke="#1A55F5" stroke-width="0.593052"/>
<rect width="5.361" height="1558.74" transform="matrix(-0.5 0.866025 0.866025 0.5 -137.996 -347.777)" stroke="#1A55F5" stroke-width="0.593052"/>
<rect width="5.361" height="1558.74" transform="matrix(-0.5 0.866025 0.866025 0.5 -815.271 -347.777)" stroke="#1A55F5" stroke-width="0.593052"/>
<rect width="5.361" height="1558.74" transform="matrix(-0.5 0.866025 0.866025 0.5 -53.4121 -347.777)" stroke="#1A55F5" stroke-width="0.593052"/>
</g>
<rect x="-143" width="587.791" height="261.241" fill="url(#paint0_linear)"/>
<rect width="587.791" height="247.362" transform="matrix(1 -8.74228e-08 -8.74228e-08 -1 -143 329)" fill="url(#paint1_linear)"/>
</g>
<defs>
<linearGradient id="paint0_linear" x1="6.80517" y1="36.4629" x2="21.0437" y2="233.825" gradientUnits="userSpaceOnUse">
<stop offset="0.0814163" stop-color="#0D2BD3"/>
<stop offset="1" stop-color="#0D2BD3" stop-opacity="0"/>
</linearGradient>
<linearGradient id="paint1_linear" x1="113.272" y1="55.5136" x2="135.261" y2="228.783" gradientUnits="userSpaceOnUse">
<stop offset="0.0814163" stop-color="#0D2BD3"/>
<stop offset="1" stop-color="#0D2BD3" stop-opacity="0"/>
</linearGradient>
<clipPath id="clip0">
<rect width="375" height="4960" fill="white" transform="translate(0 -2387)"/>
</clipPath>
</defs>
</svg>
