<svg width="834" height="364" viewBox="0 0 834 364" fill="none" xmlns="http://www.w3.org/2000/svg">
<mask id="mask0" style="mask-type:alpha" maskUnits="userSpaceOnUse" x="0" y="0" width="834" height="364">
<rect width="834" height="363.138" transform="matrix(-1 0 0 1 834 0)" fill="black"/>
</mask>
<g mask="url(#mask0)">
<rect width="21.5819" height="6486.41" transform="matrix(-0.52506 0.851065 0.879796 0.475351 -4037.6 -1470.98)" stroke="#1A55F5"/>
<rect width="21.5819" height="6486.41" transform="matrix(-0.52506 0.851065 0.879796 0.475351 -3680.02 -1470.98)" stroke="#1A55F5"/>
<rect width="21.5819" height="6486.41" transform="matrix(-0.52506 0.851065 0.879796 0.475351 -638.047 -1470.98)" stroke="#1A55F5"/>
<rect width="21.5819" height="6486.41" transform="matrix(-0.52506 0.851065 0.879796 0.475351 -3322.43 -1470.98)" stroke="#1A55F5"/>
<rect width="21.5819" height="6486.41" transform="matrix(-0.52506 0.851065 0.879796 0.475351 -280.457 -1470.98)" stroke="#1A55F5"/>
<rect width="21.5819" height="6486.41" transform="matrix(-0.52506 0.851065 0.879796 0.475351 -2964.84 -1470.98)" stroke="#1A55F5"/>
<rect width="21.5819" height="6486.41" transform="matrix(-0.52506 0.851065 0.879796 0.475351 77.127 -1470.98)" stroke="#1A55F5"/>
<rect width="21.5819" height="6486.41" transform="matrix(-0.52506 0.851065 0.879796 0.475351 -2607.26 -1470.98)" stroke="#1A55F5"/>
<rect width="21.5819" height="6486.41" transform="matrix(-0.52506 0.851065 0.879796 0.475351 434.717 -1470.98)" stroke="#1A55F5"/>
<rect width="21.5819" height="6486.41" transform="matrix(-0.52506 0.851065 0.879796 0.475351 -5470.44 -1470.98)" stroke="#1A55F5"/>
<rect width="21.5819" height="6486.41" transform="matrix(-0.52506 0.851065 0.879796 0.475351 -2249.67 -1470.98)" stroke="#1A55F5"/>
<rect width="21.5819" height="6486.41" transform="matrix(-0.52506 0.851065 0.879796 0.475351 792.305 -1470.98)" stroke="#1A55F5"/>
<rect width="21.5819" height="6486.41" transform="matrix(-0.52506 0.851065 0.879796 0.475351 -5112.85 -1470.98)" stroke="#1A55F5"/>
<rect width="21.5819" height="6486.41" transform="matrix(-0.52506 0.851065 0.879796 0.475351 -1892.08 -1470.98)" stroke="#1A55F5"/>
<rect width="21.5819" height="6486.41" transform="matrix(-0.52506 0.851065 0.879796 0.475351 -4755.26 -1470.98)" stroke="#1A55F5"/>
<rect width="21.5819" height="6486.41" transform="matrix(-0.52506 0.851065 0.879796 0.475351 -1534.5 -1470.98)" stroke="#1A55F5"/>
<rect width="21.5819" height="6486.41" transform="matrix(-0.52506 0.851065 0.879796 0.475351 -4397.68 -1470.98)" stroke="#1A55F5"/>
<rect width="21.5819" height="6486.41" transform="matrix(-0.52506 0.851065 0.879796 0.475351 -1176.91 -1470.98)" stroke="#1A55F5"/>
<rect width="21.5819" height="6486.41" transform="matrix(-0.52506 0.851065 0.879796 0.475351 -3948.21 -1470.98)" stroke="#1A55F5"/>
<rect width="21.5819" height="6486.41" transform="matrix(-0.52506 0.851065 0.879796 0.475351 -3590.62 -1470.98)" stroke="#1A55F5"/>
<rect width="21.5819" height="6486.41" transform="matrix(-0.52506 0.851065 0.879796 0.475351 -548.648 -1470.98)" stroke="#1A55F5"/>
<rect width="21.5819" height="6486.41" transform="matrix(-0.52506 0.851065 0.879796 0.475351 -3233.04 -1470.98)" stroke="#1A55F5"/>
<rect width="21.5819" height="6486.41" transform="matrix(-0.52506 0.851065 0.879796 0.475351 -191.061 -1470.98)" stroke="#1A55F5"/>
<rect width="21.5819" height="6486.41" transform="matrix(-0.52506 0.851065 0.879796 0.475351 -2875.45 -1470.98)" stroke="#1A55F5"/>
<rect width="21.5819" height="6486.41" transform="matrix(-0.52506 0.851065 0.879796 0.475351 166.525 -1470.98)" stroke="#1A55F5"/>
<rect width="21.5819" height="6486.41" transform="matrix(-0.52506 0.851065 0.879796 0.475351 -2517.86 -1470.98)" stroke="#1A55F5"/>
<rect width="21.5819" height="6486.41" transform="matrix(-0.52506 0.851065 0.879796 0.475351 524.111 -1470.98)" stroke="#1A55F5"/>
<rect width="21.5819" height="6486.41" transform="matrix(-0.52506 0.851065 0.879796 0.475351 -5381.04 -1470.98)" stroke="#1A55F5"/>
<rect width="21.5819" height="6486.41" transform="matrix(-0.52506 0.851065 0.879796 0.475351 -2160.27 -1470.98)" stroke="#1A55F5"/>
<rect width="21.5819" height="6486.41" transform="matrix(-0.52506 0.851065 0.879796 0.475351 -5023.45 -1470.98)" stroke="#1A55F5"/>
<rect width="21.5819" height="6486.41" transform="matrix(-0.52506 0.851065 0.879796 0.475351 -1802.68 -1470.98)" stroke="#1A55F5"/>
<rect width="21.5819" height="6486.41" transform="matrix(-0.52506 0.851065 0.879796 0.475351 -4665.86 -1470.98)" stroke="#1A55F5"/>
<rect width="21.5819" height="6486.41" transform="matrix(-0.52506 0.851065 0.879796 0.475351 -1445.1 -1470.98)" stroke="#1A55F5"/>
<rect width="21.5819" height="6486.41" transform="matrix(-0.52506 0.851065 0.879796 0.475351 -4308.28 -1470.98)" stroke="#1A55F5"/>
<rect width="21.5819" height="6486.41" transform="matrix(-0.52506 0.851065 0.879796 0.475351 -1087.51 -1470.98)" stroke="#1A55F5"/>
<rect width="21.5819" height="6486.41" transform="matrix(-0.52506 0.851065 0.879796 0.475351 -3858.81 -1470.98)" stroke="#1A55F5"/>
<rect width="21.5819" height="6486.41" transform="matrix(-0.52506 0.851065 0.879796 0.475351 -816.84 -1470.98)" stroke="#1A55F5"/>
<rect width="21.5819" height="6486.41" transform="matrix(-0.52506 0.851065 0.879796 0.475351 -3501.22 -1470.98)" stroke="#1A55F5"/>
<rect width="21.5819" height="6486.41" transform="matrix(-0.52506 0.851065 0.879796 0.475351 -459.25 -1470.98)" stroke="#1A55F5"/>
<rect width="21.5819" height="6486.41" transform="matrix(-0.52506 0.851065 0.879796 0.475351 -3143.63 -1470.98)" stroke="#1A55F5"/>
<rect width="21.5819" height="6486.41" transform="matrix(-0.52506 0.851065 0.879796 0.475351 -101.66 -1470.98)" stroke="#1A55F5"/>
<rect width="21.5819" height="6486.41" transform="matrix(-0.52506 0.851065 0.879796 0.475351 -2786.05 -1470.98)" stroke="#1A55F5"/>
<rect width="21.5819" height="6486.41" transform="matrix(-0.52506 0.851065 0.879796 0.475351 255.926 -1470.98)" stroke="#1A55F5"/>
<rect width="21.5819" height="6486.41" transform="matrix(-0.52506 0.851065 0.879796 0.475351 -5649.23 -1470.98)" stroke="#1A55F5"/>
<rect width="21.5819" height="6486.41" transform="matrix(-0.52506 0.851065 0.879796 0.475351 -2428.46 -1470.98)" stroke="#1A55F5"/>
<rect width="21.5819" height="6486.41" transform="matrix(-0.52506 0.851065 0.879796 0.475351 613.512 -1470.98)" stroke="#1A55F5"/>
<rect width="21.5819" height="6486.41" transform="matrix(-0.52506 0.851065 0.879796 0.475351 -5291.64 -1470.98)" stroke="#1A55F5"/>
<rect width="21.5819" height="6486.41" transform="matrix(-0.52506 0.851065 0.879796 0.475351 -2070.88 -1470.98)" stroke="#1A55F5"/>
<rect width="21.5819" height="6486.41" transform="matrix(-0.52506 0.851065 0.879796 0.475351 -4934.05 -1470.98)" stroke="#1A55F5"/>
<rect width="21.5819" height="6486.41" transform="matrix(-0.52506 0.851065 0.879796 0.475351 -1713.29 -1470.98)" stroke="#1A55F5"/>
<rect width="21.5819" height="6486.41" transform="matrix(-0.52506 0.851065 0.879796 0.475351 -4576.47 -1470.98)" stroke="#1A55F5"/>
<rect width="21.5819" height="6486.41" transform="matrix(-0.52506 0.851065 0.879796 0.475351 -1355.7 -1470.98)" stroke="#1A55F5"/>
<rect width="21.5819" height="6486.41" transform="matrix(-0.52506 0.851065 0.879796 0.475351 -4218.88 -1470.98)" stroke="#1A55F5"/>
<rect width="21.5819" height="6486.41" transform="matrix(-0.52506 0.851065 0.879796 0.475351 -998.111 -1470.98)" stroke="#1A55F5"/>
<rect width="21.5819" height="6486.41" transform="matrix(-0.52506 0.851065 0.879796 0.475351 -3769.41 -1470.98)" stroke="#1A55F5"/>
<rect width="21.5819" height="6486.41" transform="matrix(-0.52506 0.851065 0.879796 0.475351 -727.439 -1470.98)" stroke="#1A55F5"/>
<rect width="21.5819" height="6486.41" transform="matrix(-0.52506 0.851065 0.879796 0.475351 -3411.83 -1470.98)" stroke="#1A55F5"/>
<rect width="21.5819" height="6486.41" transform="matrix(-0.52506 0.851065 0.879796 0.475351 -369.852 -1470.98)" stroke="#1A55F5"/>
<rect width="21.5819" height="6486.41" transform="matrix(-0.52506 0.851065 0.879796 0.475351 -3054.24 -1470.98)" stroke="#1A55F5"/>
<rect width="21.5819" height="6486.41" transform="matrix(-0.52506 0.851065 0.879796 0.475351 -12.2695 -1470.98)" stroke="#1A55F5"/>
<rect width="21.5819" height="6486.41" transform="matrix(-0.52506 0.851065 0.879796 0.475351 -2696.65 -1470.98)" stroke="#1A55F5"/>
<rect width="21.5819" height="6486.41" transform="matrix(-0.52506 0.851065 0.879796 0.475351 345.32 -1470.98)" stroke="#1A55F5"/>
<rect width="21.5819" height="6486.41" transform="matrix(-0.52506 0.851065 0.879796 0.475351 -5559.83 -1470.98)" stroke="#1A55F5"/>
<rect width="21.5819" height="6486.41" transform="matrix(-0.52506 0.851065 0.879796 0.475351 -2339.07 -1470.98)" stroke="#1A55F5"/>
<rect width="21.5819" height="6486.41" transform="matrix(-0.52506 0.851065 0.879796 0.475351 702.906 -1470.98)" stroke="#1A55F5"/>
<rect width="21.5819" height="6486.41" transform="matrix(-0.52506 0.851065 0.879796 0.475351 -5202.24 -1470.98)" stroke="#1A55F5"/>
<rect width="21.5819" height="6486.41" transform="matrix(-0.52506 0.851065 0.879796 0.475351 -1981.48 -1470.98)" stroke="#1A55F5"/>
<rect width="21.5819" height="6486.41" transform="matrix(-0.52506 0.851065 0.879796 0.475351 -4844.66 -1470.98)" stroke="#1A55F5"/>
<rect width="21.5819" height="6486.41" transform="matrix(-0.52506 0.851065 0.879796 0.475351 -1623.89 -1470.98)" stroke="#1A55F5"/>
<rect width="21.5819" height="6486.41" transform="matrix(-0.52506 0.851065 0.879796 0.475351 -4487.07 -1470.98)" stroke="#1A55F5"/>
<rect width="21.5819" height="6486.41" transform="matrix(-0.52506 0.851065 0.879796 0.475351 -1266.3 -1470.98)" stroke="#1A55F5"/>
<rect width="21.5819" height="6486.41" transform="matrix(-0.52506 0.851065 0.879796 0.475351 -4129.48 -1470.98)" stroke="#1A55F5"/>
<rect width="21.5819" height="6486.41" transform="matrix(-0.52506 0.851065 0.879796 0.475351 -908.719 -1470.98)" stroke="#1A55F5"/>
<rect width="21.5819" height="6486.41" transform="matrix(0.52506 0.851065 -0.879796 0.475351 4607.87 -1470.98)" stroke="#1A55F5"/>
<rect width="21.5819" height="6486.41" transform="matrix(0.52506 0.851065 -0.879796 0.475351 4250.28 -1470.98)" stroke="#1A55F5"/>
<rect width="21.5819" height="6486.41" transform="matrix(0.52506 0.851065 -0.879796 0.475351 1208.32 -1470.98)" stroke="#1A55F5"/>
<rect width="21.5819" height="6486.41" transform="matrix(0.52506 0.851065 -0.879796 0.475351 3892.7 -1470.98)" stroke="#1A55F5"/>
<rect width="21.5819" height="6486.41" transform="matrix(0.52506 0.851065 -0.879796 0.475351 850.73 -1470.98)" stroke="#1A55F5"/>
<rect width="21.5819" height="6486.41" transform="matrix(0.52506 0.851065 -0.879796 0.475351 3535.11 -1470.98)" stroke="#1A55F5"/>
<rect width="21.5819" height="6486.41" transform="matrix(0.52506 0.851065 -0.879796 0.475351 493.141 -1470.98)" stroke="#1A55F5"/>
<rect width="21.5819" height="6486.41" transform="matrix(0.52506 0.851065 -0.879796 0.475351 6398.29 -1470.98)" stroke="#1A55F5"/>
<rect width="21.5819" height="6486.41" transform="matrix(0.52506 0.851065 -0.879796 0.475351 3177.53 -1470.98)" stroke="#1A55F5"/>
<rect width="21.5819" height="6486.41" transform="matrix(0.52506 0.851065 -0.879796 0.475351 135.559 -1470.98)" stroke="#1A55F5"/>
<rect width="21.5819" height="6486.41" transform="matrix(0.52506 0.851065 -0.879796 0.475351 6040.7 -1470.98)" stroke="#1A55F5"/>
<rect width="21.5819" height="6486.41" transform="matrix(0.52506 0.851065 -0.879796 0.475351 2819.94 -1470.98)" stroke="#1A55F5"/>
<rect width="21.5819" height="6486.41" transform="matrix(0.52506 0.851065 -0.879796 0.475351 5683.12 -1470.98)" stroke="#1A55F5"/>
<rect width="21.5819" height="6486.41" transform="matrix(0.52506 0.851065 -0.879796 0.475351 2462.35 -1470.98)" stroke="#1A55F5"/>
<rect width="21.5819" height="6486.41" transform="matrix(0.52506 0.851065 -0.879796 0.475351 5325.53 -1470.98)" stroke="#1A55F5"/>
<rect width="21.5819" height="6486.41" transform="matrix(0.52506 0.851065 -0.879796 0.475351 2104.77 -1470.98)" stroke="#1A55F5"/>
<rect width="21.5819" height="6486.41" transform="matrix(0.52506 0.851065 -0.879796 0.475351 4967.95 -1470.98)" stroke="#1A55F5"/>
<rect width="21.5819" height="6486.41" transform="matrix(0.52506 0.851065 -0.879796 0.475351 1747.18 -1470.98)" stroke="#1A55F5"/>
<rect width="21.5819" height="6486.41" transform="matrix(0.52506 0.851065 -0.879796 0.475351 4518.48 -1470.98)" stroke="#1A55F5"/>
<rect width="21.5819" height="6486.41" transform="matrix(0.52506 0.851065 -0.879796 0.475351 4160.89 -1470.98)" stroke="#1A55F5"/>
<rect width="21.5819" height="6486.41" transform="matrix(0.52506 0.851065 -0.879796 0.475351 1118.92 -1470.98)" stroke="#1A55F5"/>
<rect width="21.5819" height="6486.41" transform="matrix(0.52506 0.851065 -0.879796 0.475351 3803.3 -1470.98)" stroke="#1A55F5"/>
<rect width="21.5819" height="6486.41" transform="matrix(0.52506 0.851065 -0.879796 0.475351 761.33 -1470.98)" stroke="#1A55F5"/>
<rect width="21.5819" height="6486.41" transform="matrix(0.52506 0.851065 -0.879796 0.475351 3445.72 -1470.98)" stroke="#1A55F5"/>
<rect width="21.5819" height="6486.41" transform="matrix(0.52506 0.851065 -0.879796 0.475351 403.744 -1470.98)" stroke="#1A55F5"/>
<rect width="21.5819" height="6486.41" transform="matrix(0.52506 0.851065 -0.879796 0.475351 6308.9 -1470.98)" stroke="#1A55F5"/>
<rect width="21.5819" height="6486.41" transform="matrix(0.52506 0.851065 -0.879796 0.475351 3088.13 -1470.98)" stroke="#1A55F5"/>
<rect width="21.5819" height="6486.41" transform="matrix(0.52506 0.851065 -0.879796 0.475351 46.1582 -1470.98)" stroke="#1A55F5"/>
<rect width="21.5819" height="6486.41" transform="matrix(0.52506 0.851065 -0.879796 0.475351 5951.31 -1470.98)" stroke="#1A55F5"/>
<rect width="21.5819" height="6486.41" transform="matrix(0.52506 0.851065 -0.879796 0.475351 2730.54 -1470.98)" stroke="#1A55F5"/>
<rect width="21.5819" height="6486.41" transform="matrix(0.52506 0.851065 -0.879796 0.475351 5593.72 -1470.98)" stroke="#1A55F5"/>
<rect width="21.5819" height="6486.41" transform="matrix(0.52506 0.851065 -0.879796 0.475351 2372.96 -1470.98)" stroke="#1A55F5"/>
<rect width="21.5819" height="6486.41" transform="matrix(0.52506 0.851065 -0.879796 0.475351 5236.13 -1470.98)" stroke="#1A55F5"/>
<rect width="21.5819" height="6486.41" transform="matrix(0.52506 0.851065 -0.879796 0.475351 2015.37 -1470.98)" stroke="#1A55F5"/>
<rect width="21.5819" height="6486.41" transform="matrix(0.52506 0.851065 -0.879796 0.475351 4878.55 -1470.98)" stroke="#1A55F5"/>
<rect width="21.5819" height="6486.41" transform="matrix(0.52506 0.851065 -0.879796 0.475351 1657.78 -1470.98)" stroke="#1A55F5"/>
<rect width="21.5819" height="6486.41" transform="matrix(0.52506 0.851065 -0.879796 0.475351 4429.08 -1470.98)" stroke="#1A55F5"/>
<rect width="21.5819" height="6486.41" transform="matrix(0.52506 0.851065 -0.879796 0.475351 1387.11 -1470.98)" stroke="#1A55F5"/>
<rect width="21.5819" height="6486.41" transform="matrix(0.52506 0.851065 -0.879796 0.475351 4071.49 -1470.98)" stroke="#1A55F5"/>
<rect width="21.5819" height="6486.41" transform="matrix(0.52506 0.851065 -0.879796 0.475351 1029.52 -1470.98)" stroke="#1A55F5"/>
<rect width="21.5819" height="6486.41" transform="matrix(0.52506 0.851065 -0.879796 0.475351 3713.91 -1470.98)" stroke="#1A55F5"/>
<rect width="21.5819" height="6486.41" transform="matrix(0.52506 0.851065 -0.879796 0.475351 671.934 -1470.98)" stroke="#1A55F5"/>
<rect width="21.5819" height="6486.41" transform="matrix(0.52506 0.851065 -0.879796 0.475351 3356.32 -1470.98)" stroke="#1A55F5"/>
<rect width="21.5819" height="6486.41" transform="matrix(0.52506 0.851065 -0.879796 0.475351 314.346 -1470.98)" stroke="#1A55F5"/>
<rect width="21.5819" height="6486.41" transform="matrix(0.52506 0.851065 -0.879796 0.475351 6219.5 -1470.98)" stroke="#1A55F5"/>
<rect width="21.5819" height="6486.41" transform="matrix(0.52506 0.851065 -0.879796 0.475351 2998.73 -1470.98)" stroke="#1A55F5"/>
<rect width="21.5819" height="6486.41" transform="matrix(0.52506 0.851065 -0.879796 0.475351 5861.91 -1470.98)" stroke="#1A55F5"/>
<rect width="21.5819" height="6486.41" transform="matrix(0.52506 0.851065 -0.879796 0.475351 2641.15 -1470.98)" stroke="#1A55F5"/>
<rect width="21.5819" height="6486.41" transform="matrix(0.52506 0.851065 -0.879796 0.475351 5504.32 -1470.98)" stroke="#1A55F5"/>
<rect width="21.5819" height="6486.41" transform="matrix(0.52506 0.851065 -0.879796 0.475351 2283.56 -1470.98)" stroke="#1A55F5"/>
<rect width="21.5819" height="6486.41" transform="matrix(0.52506 0.851065 -0.879796 0.475351 5146.73 -1470.98)" stroke="#1A55F5"/>
<rect width="21.5819" height="6486.41" transform="matrix(0.52506 0.851065 -0.879796 0.475351 1925.97 -1470.98)" stroke="#1A55F5"/>
<rect width="21.5819" height="6486.41" transform="matrix(0.52506 0.851065 -0.879796 0.475351 4789.15 -1470.98)" stroke="#1A55F5"/>
<rect width="21.5819" height="6486.41" transform="matrix(0.52506 0.851065 -0.879796 0.475351 1568.39 -1470.98)" stroke="#1A55F5"/>
<rect width="21.5819" height="6486.41" transform="matrix(0.52506 0.851065 -0.879796 0.475351 4339.68 -1470.98)" stroke="#1A55F5"/>
<rect width="21.5819" height="6486.41" transform="matrix(0.52506 0.851065 -0.879796 0.475351 1297.71 -1470.98)" stroke="#1A55F5"/>
<rect width="21.5819" height="6486.41" transform="matrix(0.52506 0.851065 -0.879796 0.475351 3982.1 -1470.98)" stroke="#1A55F5"/>
<rect width="21.5819" height="6486.41" transform="matrix(0.52506 0.851065 -0.879796 0.475351 940.125 -1470.98)" stroke="#1A55F5"/>
<rect width="21.5819" height="6486.41" transform="matrix(0.52506 0.851065 -0.879796 0.475351 3624.51 -1470.98)" stroke="#1A55F5"/>
<rect width="21.5819" height="6486.41" transform="matrix(0.52506 0.851065 -0.879796 0.475351 582.537 -1470.98)" stroke="#1A55F5"/>
<rect width="21.5819" height="6486.41" transform="matrix(0.52506 0.851065 -0.879796 0.475351 6487.69 -1470.98)" stroke="#1A55F5"/>
<rect width="21.5819" height="6486.41" transform="matrix(0.52506 0.851065 -0.879796 0.475351 3266.93 -1470.98)" stroke="#1A55F5"/>
<rect width="21.5819" height="6486.41" transform="matrix(0.52506 0.851065 -0.879796 0.475351 224.953 -1470.98)" stroke="#1A55F5"/>
<rect width="21.5819" height="6486.41" transform="matrix(0.52506 0.851065 -0.879796 0.475351 6130.1 -1470.98)" stroke="#1A55F5"/>
<rect width="21.5819" height="6486.41" transform="matrix(0.52506 0.851065 -0.879796 0.475351 2909.34 -1470.98)" stroke="#1A55F5"/>
<rect width="21.5819" height="6486.41" transform="matrix(0.52506 0.851065 -0.879796 0.475351 5772.51 -1470.98)" stroke="#1A55F5"/>
<rect width="21.5819" height="6486.41" transform="matrix(0.52506 0.851065 -0.879796 0.475351 2551.75 -1470.98)" stroke="#1A55F5"/>
<rect width="21.5819" height="6486.41" transform="matrix(0.52506 0.851065 -0.879796 0.475351 5414.93 -1470.98)" stroke="#1A55F5"/>
<rect width="21.5819" height="6486.41" transform="matrix(0.52506 0.851065 -0.879796 0.475351 2194.16 -1470.98)" stroke="#1A55F5"/>
<rect width="21.5819" height="6486.41" transform="matrix(0.52506 0.851065 -0.879796 0.475351 5057.34 -1470.98)" stroke="#1A55F5"/>
<rect width="21.5819" height="6486.41" transform="matrix(0.52506 0.851065 -0.879796 0.475351 1836.57 -1470.98)" stroke="#1A55F5"/>
<rect width="21.5819" height="6486.41" transform="matrix(0.52506 0.851065 -0.879796 0.475351 4699.75 -1470.98)" stroke="#1A55F5"/>
<rect width="21.5819" height="6486.41" transform="matrix(0.52506 0.851065 -0.879796 0.475351 1478.99 -1470.98)" stroke="#1A55F5"/>
</g>
<rect width="834" height="359.344" transform="matrix(-1 0 0 1 834 0)" fill="url(#paint0_linear)"/>
<rect x="834" y="363.137" width="834" height="230.348" transform="rotate(-180 834 363.137)" fill="url(#paint1_linear)"/>
<defs>
<linearGradient id="paint0_linear" x1="260.915" y1="18.6989" x2="263.891" y2="220.919" gradientUnits="userSpaceOnUse">
<stop offset="0.0814163" stop-color="#0D2BD3"/>
<stop offset="1" stop-color="#0D2BD3" stop-opacity="0"/>
</linearGradient>
<linearGradient id="paint1_linear" x1="1046.26" y1="409.749" x2="1058.68" y2="514.91" gradientUnits="userSpaceOnUse">
<stop offset="0.0814163" stop-color="#0D2BD3"/>
<stop offset="1" stop-color="#0D2BD3" stop-opacity="0"/>
</linearGradient>
</defs>
</svg>
