<svg width="1439" height="501" viewBox="0 0 1439 501" fill="none" xmlns="http://www.w3.org/2000/svg">
<mask id="mask0" style="mask-type:alpha" maskUnits="userSpaceOnUse" x="0" y="0" width="1440" height="501">
<rect width="1440" height="501" fill="#C4C4C4"/>
</mask>
<g mask="url(#mask0)">
<path d="M1440 1275.01C1440 1289.56 1432.83 1303.17 1420.85 1311.4L1344.48 1363.84C1329.43 1374.18 1309.57 1374.18 1294.51 1363.84L1218.15 1311.4C1206.16 1303.17 1199 1289.56 1199 1275.01L1199 103.048C1199 88.1922 1206.47 74.3335 1218.88 66.1708L1295.25 15.9496C1309.96 6.26915 1329.03 6.26916 1343.75 15.9496L1420.11 66.1708C1432.53 74.3335 1440 88.1923 1440 103.048L1440 1275.01Z" fill="#0019A5"/>
<path d="M1200 1539.54C1200 1553.72 1193.18 1567.04 1181.67 1575.34L1105.31 1630.39C1089.9 1641.5 1069.1 1641.5 1053.69 1630.39L977.324 1575.34C965.816 1567.04 958.998 1553.72 958.998 1539.54L958.998 305.266C958.998 290.959 965.933 277.54 977.603 269.263L1053.97 215.107C1069.26 204.261 1089.74 204.261 1105.03 215.107L1181.39 269.263C1193.06 277.54 1200 290.959 1200 305.266L1200 1539.54Z" fill="#0019A5"/>
<path d="M960.998 1362.71C960.998 1377.36 953.728 1391.06 941.592 1399.27L864.729 1451.27C849.79 1461.37 830.206 1461.37 815.267 1451.27L738.404 1399.27C726.269 1391.06 718.998 1377.36 718.998 1362.71L718.998 202.048C718.998 188.368 725.342 175.46 736.174 167.103L813.037 107.801C828.922 95.5453 851.074 95.5452 866.96 107.801L943.822 167.103C954.654 175.46 960.998 188.368 960.998 202.048L960.998 1362.71Z" fill="#0019A5"/>
<path d="M718.998 1286.42C718.998 1301.81 710.982 1316.09 697.842 1324.11L620.98 1370.98C606.867 1379.59 589.129 1379.59 575.017 1370.98L498.154 1324.11C485.015 1316.09 476.998 1301.81 476.998 1286.42L476.998 248.536C476.998 233.369 484.786 219.264 497.623 211.183L574.485 162.8C588.856 153.755 607.141 153.755 621.511 162.8L698.374 211.183C711.21 219.264 718.998 233.369 718.998 248.536L718.998 1286.42Z" fill="#0019A5"/>
<path d="M480.998 1365.48C480.998 1379.66 474.185 1392.98 462.685 1401.28L386.322 1456.37C370.903 1467.49 350.093 1467.49 334.674 1456.37L258.311 1401.28C246.811 1392.98 239.998 1379.66 239.998 1365.48L239.998 130.433C239.998 116.041 247.015 102.552 258.8 94.2911L335.163 40.76C350.371 30.099 370.626 30.099 385.834 40.76L462.196 94.2911C473.981 102.552 480.998 116.041 480.998 130.432L480.998 1365.48Z" fill="#0019A5"/>
<path d="M241 1355.32C241 1371.01 232.667 1385.53 219.113 1393.44L142.75 1438.01C129.002 1446.04 111.998 1446.04 98.2494 1438.01L21.8866 1393.44C8.33309 1385.53 -0.000115078 1371.01 -0.000113706 1355.32L-2.74461e-05 368.625C-2.61338e-05 353.614 7.6294 339.632 20.2528 331.509L96.6157 282.369C111.163 273.008 129.837 273.008 144.384 282.369L220.747 331.509C233.371 339.632 241 353.614 241 368.625L241 1355.32Z" fill="#0019A5"/>
</g>
</svg>
