<svg width="1440" height="2355" viewBox="0 0 1440 2355" fill="none" xmlns="http://www.w3.org/2000/svg">
<path d="M0 295.985C0 281.443 7.16315 267.834 19.1507 259.602L95.5135 207.16C110.567 196.821 130.433 196.821 145.486 207.16L221.849 259.602C233.837 267.834 241 281.443 241 295.985V1467.95C241 1482.81 233.527 1496.67 221.115 1504.83L144.753 1555.05C130.033 1564.73 110.967 1564.73 96.2474 1555.05L19.8846 1504.83C7.47288 1496.67 0 1482.81 0 1467.95V295.985Z" fill="#0D2BD3"/>
<path d="M239.979 447.464C239.979 433.278 246.797 419.957 258.304 411.661L334.667 356.608C350.081 345.496 370.876 345.496 386.29 356.608L462.653 411.661C474.16 419.957 480.979 433.278 480.979 447.464V1681.73C480.979 1696.04 474.044 1709.46 462.374 1717.74L386.011 1771.89C370.717 1782.74 350.24 1782.74 334.946 1771.89L258.583 1717.74C246.913 1709.46 239.979 1696.04 239.979 1681.73V447.464Z" fill="#0D2BD3"/>
<path d="M478.971 221.286C478.971 206.635 486.241 192.938 498.377 184.729L575.239 132.731C590.178 122.625 609.763 122.625 624.702 132.731L701.565 184.729C713.7 192.938 720.971 206.635 720.971 221.286V1381.95C720.971 1395.63 714.627 1408.54 703.795 1416.9L626.932 1476.2C611.047 1488.45 588.894 1488.45 573.009 1476.2L496.147 1416.9C485.315 1408.54 478.971 1395.63 478.971 1381.95V221.286Z" fill="#0D2BD3"/>
<path d="M718.973 296.575C718.973 281.185 726.989 266.906 740.128 258.893L816.991 212.016C831.103 203.409 848.842 203.409 862.954 212.016L939.817 258.893C952.956 266.906 960.973 281.185 960.973 296.575V1334.46C960.973 1349.63 953.184 1363.74 940.348 1371.82L863.485 1420.2C849.115 1429.24 830.83 1429.24 816.46 1420.2L739.597 1371.82C726.761 1363.74 718.973 1349.63 718.973 1334.46V296.575Z" fill="#0D2BD3"/>
<path d="M958.971 353.517C958.971 339.336 965.784 326.02 977.284 317.723L1053.65 262.631C1069.07 251.507 1089.88 251.507 1105.29 262.631L1181.66 317.723C1193.16 326.02 1199.97 339.336 1199.97 353.517V1588.57C1199.97 1602.96 1192.95 1616.45 1181.17 1624.71L1104.81 1678.24C1089.6 1688.9 1069.34 1688.9 1054.14 1678.24L977.772 1624.71C965.988 1616.45 958.971 1602.96 958.971 1588.57V353.517Z" fill="#0D2BD3"/>
<path d="M1198.97 102.553C1198.97 87.644 1206.5 73.7426 1218.98 65.5932L1295.35 15.7478C1310.01 6.17838 1328.94 6.17837 1343.6 15.7478L1419.96 65.5932C1432.44 73.7426 1439.97 87.6441 1439.97 102.553V1214.67C1439.97 1228.87 1433.14 1242.21 1421.61 1250.5L1345.25 1305.45C1329.85 1316.53 1309.09 1316.53 1293.69 1305.45L1217.33 1250.5C1205.8 1242.21 1198.97 1228.87 1198.97 1214.67V102.553Z" fill="#0D2BD3"/>
<path d="M0 911.985C0 897.443 7.16315 883.834 19.1507 875.602L95.5135 823.16C110.567 812.821 130.433 812.821 145.486 823.16L221.849 875.602C233.837 883.834 241 897.443 241 911.985V2083.95C241 2098.81 233.527 2112.67 221.115 2120.83L144.753 2171.05C130.033 2180.73 110.967 2180.73 96.2474 2171.05L19.8846 2120.83C7.47288 2112.67 0 2098.81 0 2083.95V911.985Z" fill="#0D2BD3"/>
<path d="M239.979 1012.46C239.979 998.278 246.797 984.957 258.304 976.661L334.667 921.608C350.081 910.496 370.876 910.496 386.29 921.608L462.653 976.661C474.16 984.957 480.979 998.278 480.979 1012.46V2246.73C480.979 2261.04 474.044 2274.46 462.374 2282.74L386.011 2336.89C370.717 2347.74 350.24 2347.74 334.946 2336.89L258.583 2282.74C246.913 2274.46 239.979 2261.04 239.979 2246.73V1012.46Z" fill="#0D2BD3"/>
<path d="M478.971 797.286C478.971 782.635 486.241 768.938 498.377 760.729L575.239 708.731C590.178 698.625 609.763 698.625 624.702 708.731L701.565 760.729C713.7 768.938 720.971 782.635 720.971 797.286V1957.95C720.971 1971.63 714.627 1984.54 703.795 1992.9L626.932 2052.2C611.047 2064.45 588.894 2064.45 573.009 2052.2L496.147 1992.9C485.315 1984.54 478.971 1971.63 478.971 1957.95V797.286Z" fill="#0D2BD3"/>
<path d="M718.973 931.575C718.973 916.185 726.989 901.906 740.128 893.893L816.991 847.016C831.103 838.409 848.842 838.409 862.954 847.016L939.817 893.893C952.956 901.906 960.973 916.185 960.973 931.575V1969.46C960.973 1984.63 953.184 1998.74 940.348 2006.82L863.485 2055.2C849.115 2064.24 830.83 2064.24 816.46 2055.2L739.597 2006.82C726.761 1998.74 718.973 1984.63 718.973 1969.46V931.575Z" fill="#0D2BD3"/>
<path d="M958.971 761.517C958.971 747.336 965.784 734.02 977.284 725.723L1053.65 670.631C1069.07 659.507 1089.88 659.507 1105.29 670.631L1181.66 725.723C1193.16 734.02 1199.97 747.336 1199.97 761.517V1996.57C1199.97 2010.96 1192.95 2024.45 1181.17 2032.71L1104.81 2086.24C1089.6 2096.9 1069.34 2096.9 1054.14 2086.24L977.772 2032.71C965.988 2024.45 958.971 2010.96 958.971 1996.57V761.517Z" fill="#0D2BD3"/>
<path d="M1227.21 1409.35C1239.62 1402.23 1254.72 1401.57 1267.7 1407.58L1534.88 1531.26C1551.8 1539.09 1561.98 1556.71 1560.3 1575.28L1533.82 1868.43C1532.53 1882.72 1524.37 1895.49 1511.94 1902.67L1038.77 2176.08C1026.15 2183.37 1010.75 2183.96 997.608 2177.66L732.491 2050.58C717.177 2043.24 707.432 2027.76 707.432 2010.78L707.433 1732.9C707.433 1717.08 715.896 1702.47 729.618 1694.61L1227.21 1409.35Z" fill="#0D2BD3"/>
<path d="M1198.97 676.553C1198.97 661.644 1206.5 647.743 1218.98 639.593L1295.35 589.748C1310.01 580.178 1328.94 580.178 1343.6 589.748L1419.96 639.593C1432.44 647.743 1439.97 661.644 1439.97 676.553V1788.67C1439.97 1802.87 1433.14 1816.21 1421.61 1824.5L1345.25 1879.45C1329.85 1890.53 1309.09 1890.53 1293.69 1879.45L1217.33 1824.5C1205.8 1816.21 1198.97 1802.87 1198.97 1788.67V676.553Z" fill="#0D2BD3"/>
</svg>
