<svg id="Layer_1" data-name="Layer 1" xmlns="http://www.w3.org/2000/svg" xmlns:xlink="http://www.w3.org/1999/xlink" width="1437" height="400" viewBox="0 0 1437 400"><defs><mask id="mask" x="-3" y="-1297.43" width="1560.48" height="1823.43" maskUnits="userSpaceOnUse"><g id="mask0"><rect y="-272" width="1437" height="798" fill="#c4c4c4"/></g></mask></defs><g mask="url(#mask)"><path d="M-3-1035a44.12,44.12,0,0,1,19.15-36.38l76.36-52.44a44.14,44.14,0,0,1,50,0l76.36,52.44A44.12,44.12,0,0,1,238-1035V137a44.13,44.13,0,0,1-19.88,36.88l-76.37,50.22a44.13,44.13,0,0,1-48.5,0L16.88,173.83A44.13,44.13,0,0,1-3,137Z" fill="#0019a5"/><path d="M237-934.54a44.16,44.16,0,0,1,18.32-35.8l76.37-55.05a44.14,44.14,0,0,1,51.62,0l76.36,55.05A44.14,44.14,0,0,1,478-934.54V299.73a44.16,44.16,0,0,1-18.61,36L383,389.89a44.12,44.12,0,0,1-51.06,0l-76.37-54.15a44.15,44.15,0,0,1-18.6-36Z" fill="#0019a5"/><path d="M476-967.71a44.14,44.14,0,0,1,19.41-36.56l76.86-52a44.12,44.12,0,0,1,49.46,0l76.87,52A44.15,44.15,0,0,1,718-967.71V193a44.13,44.13,0,0,1-17.18,35l-76.86,59.3a44.15,44.15,0,0,1-53.92,0l-76.86-59.3A44.16,44.16,0,0,1,476,193Z" fill="#0019a5"/><path d="M716-948.42a44.15,44.15,0,0,1,21.16-37.69L814-1033a44.12,44.12,0,0,1,46,0l76.87,46.87A44.14,44.14,0,0,1,958-948.42V89.46a44.16,44.16,0,0,1-20.62,37.36L860.48,175.2a44.15,44.15,0,0,1-47,0L736.6,126.82A44.14,44.14,0,0,1,716,89.46Z" fill="#0019a5"/><path d="M956-1118.48a44.15,44.15,0,0,1,18.31-35.8l76.37-55.09a44.14,44.14,0,0,1,51.64,0l76.37,55.09a44.15,44.15,0,0,1,18.31,35.8V116.57a44.15,44.15,0,0,1-18.8,36.14l-76.36,53.53a44.14,44.14,0,0,1-50.67,0l-76.37-53.53A44.15,44.15,0,0,1,956,116.57Z" fill="#0019a5"/><path d="M1224.21-486.71a44.13,44.13,0,0,1,40.49-1.77L1531.88-364.8a44.13,44.13,0,0,1,25.42,44L1530.82-27.63a44.12,44.12,0,0,1-21.88,34.24L1035.77,280a44.13,44.13,0,0,1-41.16,1.58L729.49,154.52a44.15,44.15,0,0,1-25.06-39.8V-163.16a44.13,44.13,0,0,1,22.19-38.29Z" fill="#0019a5"/><path d="M1196-1203.45a44.15,44.15,0,0,1,20-37l76.37-49.84a44.13,44.13,0,0,1,48.25,0l76.36,49.84a44.15,44.15,0,0,1,20,37V-91.33a44.13,44.13,0,0,1-18.36,35.83l-76.36,55a44.14,44.14,0,0,1-51.56,0L1214.33-55.5A44.13,44.13,0,0,1,1196-91.33Z" fill="#0019a5"/></g></svg>