<svg width="1440" height="627" viewBox="0 0 1440 627" fill="none" xmlns="http://www.w3.org/2000/svg">
<mask id="mask0" style="mask-type:alpha" maskUnits="userSpaceOnUse" x="0" y="0" width="1440" height="627">
<rect width="1440" height="627" transform="matrix(-1 0 0 1 1440 0)" fill="black"/>
</mask>
<g mask="url(#mask0)">
<rect width="37.2637" height="11199.5" transform="matrix(-0.52506 0.851065 0.879796 0.475351 -6971.4 -2539.82)" stroke="#1A55F5"/>
<rect width="37.2637" height="11199.5" transform="matrix(-0.52506 0.851065 0.879796 0.475351 -6353.98 -2539.82)" stroke="#1A55F5"/>
<rect width="37.2637" height="11199.5" transform="matrix(-0.52506 0.851065 0.879796 0.475351 -1101.66 -2539.82)" stroke="#1A55F5"/>
<rect width="37.2637" height="11199.5" transform="matrix(-0.52506 0.851065 0.879796 0.475351 -5736.57 -2539.82)" stroke="#1A55F5"/>
<rect width="37.2637" height="11199.5" transform="matrix(-0.52506 0.851065 0.879796 0.475351 -484.242 -2539.82)" stroke="#1A55F5"/>
<rect width="37.2637" height="11199.5" transform="matrix(-0.52506 0.851065 0.879796 0.475351 -5119.15 -2539.82)" stroke="#1A55F5"/>
<rect width="37.2637" height="11199.5" transform="matrix(-0.52506 0.851065 0.879796 0.475351 133.172 -2539.82)" stroke="#1A55F5"/>
<rect width="37.2637" height="11199.5" transform="matrix(-0.52506 0.851065 0.879796 0.475351 -4501.73 -2539.82)" stroke="#1A55F5"/>
<rect width="37.2637" height="11199.5" transform="matrix(-0.52506 0.851065 0.879796 0.475351 750.594 -2539.82)" stroke="#1A55F5"/>
<rect width="37.2637" height="11199.5" transform="matrix(-0.52506 0.851065 0.879796 0.475351 -9445.36 -2539.82)" stroke="#1A55F5"/>
<rect width="37.2637" height="11199.5" transform="matrix(-0.52506 0.851065 0.879796 0.475351 -3884.32 -2539.82)" stroke="#1A55F5"/>
<rect width="37.2637" height="11199.5" transform="matrix(-0.52506 0.851065 0.879796 0.475351 1368.01 -2539.82)" stroke="#1A55F5"/>
<rect width="37.2637" height="11199.5" transform="matrix(-0.52506 0.851065 0.879796 0.475351 -8827.94 -2539.82)" stroke="#1A55F5"/>
<rect width="37.2637" height="11199.5" transform="matrix(-0.52506 0.851065 0.879796 0.475351 -3266.9 -2539.82)" stroke="#1A55F5"/>
<rect width="37.2637" height="11199.5" transform="matrix(-0.52506 0.851065 0.879796 0.475351 -8210.52 -2539.82)" stroke="#1A55F5"/>
<rect width="37.2637" height="11199.5" transform="matrix(-0.52506 0.851065 0.879796 0.475351 -2649.49 -2539.82)" stroke="#1A55F5"/>
<rect width="37.2637" height="11199.5" transform="matrix(-0.52506 0.851065 0.879796 0.475351 -7593.11 -2539.82)" stroke="#1A55F5"/>
<rect width="37.2637" height="11199.5" transform="matrix(-0.52506 0.851065 0.879796 0.475351 -2032.07 -2539.82)" stroke="#1A55F5"/>
<rect width="37.2637" height="11199.5" transform="matrix(-0.52506 0.851065 0.879796 0.475351 -6817.05 -2539.82)" stroke="#1A55F5"/>
<rect width="37.2637" height="11199.5" transform="matrix(-0.52506 0.851065 0.879796 0.475351 -6199.63 -2539.82)" stroke="#1A55F5"/>
<rect width="37.2637" height="11199.5" transform="matrix(-0.52506 0.851065 0.879796 0.475351 -947.301 -2539.82)" stroke="#1A55F5"/>
<rect width="37.2637" height="11199.5" transform="matrix(-0.52506 0.851065 0.879796 0.475351 -5582.21 -2539.82)" stroke="#1A55F5"/>
<rect width="37.2637" height="11199.5" transform="matrix(-0.52506 0.851065 0.879796 0.475351 -329.887 -2539.82)" stroke="#1A55F5"/>
<rect width="37.2637" height="11199.5" transform="matrix(-0.52506 0.851065 0.879796 0.475351 -4964.8 -2539.82)" stroke="#1A55F5"/>
<rect width="37.2637" height="11199.5" transform="matrix(-0.52506 0.851065 0.879796 0.475351 287.529 -2539.82)" stroke="#1A55F5"/>
<rect width="37.2637" height="11199.5" transform="matrix(-0.52506 0.851065 0.879796 0.475351 -4347.38 -2539.82)" stroke="#1A55F5"/>
<rect width="37.2637" height="11199.5" transform="matrix(-0.52506 0.851065 0.879796 0.475351 904.945 -2539.82)" stroke="#1A55F5"/>
<rect width="37.2637" height="11199.5" transform="matrix(-0.52506 0.851065 0.879796 0.475351 -9291 -2539.82)" stroke="#1A55F5"/>
<rect width="37.2637" height="11199.5" transform="matrix(-0.52506 0.851065 0.879796 0.475351 -3729.97 -2539.82)" stroke="#1A55F5"/>
<rect width="37.2637" height="11199.5" transform="matrix(-0.52506 0.851065 0.879796 0.475351 -8673.58 -2539.82)" stroke="#1A55F5"/>
<rect width="37.2637" height="11199.5" transform="matrix(-0.52506 0.851065 0.879796 0.475351 -3112.54 -2539.82)" stroke="#1A55F5"/>
<rect width="37.2637" height="11199.5" transform="matrix(-0.52506 0.851065 0.879796 0.475351 -8056.17 -2539.82)" stroke="#1A55F5"/>
<rect width="37.2637" height="11199.5" transform="matrix(-0.52506 0.851065 0.879796 0.475351 -2495.13 -2539.82)" stroke="#1A55F5"/>
<rect width="37.2637" height="11199.5" transform="matrix(-0.52506 0.851065 0.879796 0.475351 -7438.75 -2539.82)" stroke="#1A55F5"/>
<rect width="37.2637" height="11199.5" transform="matrix(-0.52506 0.851065 0.879796 0.475351 -1877.71 -2539.82)" stroke="#1A55F5"/>
<rect width="37.2637" height="11199.5" transform="matrix(-0.52506 0.851065 0.879796 0.475351 -6662.7 -2539.82)" stroke="#1A55F5"/>
<rect width="37.2637" height="11199.5" transform="matrix(-0.52506 0.851065 0.879796 0.475351 -1410.37 -2539.82)" stroke="#1A55F5"/>
<rect width="37.2637" height="11199.5" transform="matrix(-0.52506 0.851065 0.879796 0.475351 -6045.27 -2539.82)" stroke="#1A55F5"/>
<rect width="37.2637" height="11199.5" transform="matrix(-0.52506 0.851065 0.879796 0.475351 -792.945 -2539.82)" stroke="#1A55F5"/>
<rect width="37.2637" height="11199.5" transform="matrix(-0.52506 0.851065 0.879796 0.475351 -5427.86 -2539.82)" stroke="#1A55F5"/>
<rect width="37.2637" height="11199.5" transform="matrix(-0.52506 0.851065 0.879796 0.475351 -175.529 -2539.82)" stroke="#1A55F5"/>
<rect width="37.2637" height="11199.5" transform="matrix(-0.52506 0.851065 0.879796 0.475351 -4810.44 -2539.82)" stroke="#1A55F5"/>
<rect width="37.2637" height="11199.5" transform="matrix(-0.52506 0.851065 0.879796 0.475351 441.887 -2539.82)" stroke="#1A55F5"/>
<rect width="37.2637" height="11199.5" transform="matrix(-0.52506 0.851065 0.879796 0.475351 -9754.06 -2539.82)" stroke="#1A55F5"/>
<rect width="37.2637" height="11199.5" transform="matrix(-0.52506 0.851065 0.879796 0.475351 -4193.03 -2539.82)" stroke="#1A55F5"/>
<rect width="37.2637" height="11199.5" transform="matrix(-0.52506 0.851065 0.879796 0.475351 1059.3 -2539.82)" stroke="#1A55F5"/>
<rect width="37.2637" height="11199.5" transform="matrix(-0.52506 0.851065 0.879796 0.475351 -9136.65 -2539.82)" stroke="#1A55F5"/>
<rect width="37.2637" height="11199.5" transform="matrix(-0.52506 0.851065 0.879796 0.475351 -3575.61 -2539.82)" stroke="#1A55F5"/>
<rect width="37.2637" height="11199.5" transform="matrix(-0.52506 0.851065 0.879796 0.475351 -8519.22 -2539.82)" stroke="#1A55F5"/>
<rect width="37.2637" height="11199.5" transform="matrix(-0.52506 0.851065 0.879796 0.475351 -2958.2 -2539.82)" stroke="#1A55F5"/>
<rect width="37.2637" height="11199.5" transform="matrix(-0.52506 0.851065 0.879796 0.475351 -7901.81 -2539.82)" stroke="#1A55F5"/>
<rect width="37.2637" height="11199.5" transform="matrix(-0.52506 0.851065 0.879796 0.475351 -2340.78 -2539.82)" stroke="#1A55F5"/>
<rect width="37.2637" height="11199.5" transform="matrix(-0.52506 0.851065 0.879796 0.475351 -7284.39 -2539.82)" stroke="#1A55F5"/>
<rect width="37.2637" height="11199.5" transform="matrix(-0.52506 0.851065 0.879796 0.475351 -1723.36 -2539.82)" stroke="#1A55F5"/>
<rect width="37.2637" height="11199.5" transform="matrix(-0.52506 0.851065 0.879796 0.475351 -6508.34 -2539.82)" stroke="#1A55F5"/>
<rect width="37.2637" height="11199.5" transform="matrix(-0.52506 0.851065 0.879796 0.475351 -1256.01 -2539.82)" stroke="#1A55F5"/>
<rect width="37.2637" height="11199.5" transform="matrix(-0.52506 0.851065 0.879796 0.475351 -5890.92 -2539.82)" stroke="#1A55F5"/>
<rect width="37.2637" height="11199.5" transform="matrix(-0.52506 0.851065 0.879796 0.475351 -638.594 -2539.82)" stroke="#1A55F5"/>
<rect width="37.2637" height="11199.5" transform="matrix(-0.52506 0.851065 0.879796 0.475351 -5273.51 -2539.82)" stroke="#1A55F5"/>
<rect width="37.2637" height="11199.5" transform="matrix(-0.52506 0.851065 0.879796 0.475351 -21.1797 -2539.82)" stroke="#1A55F5"/>
<rect width="37.2637" height="11199.5" transform="matrix(-0.52506 0.851065 0.879796 0.475351 -4656.09 -2539.82)" stroke="#1A55F5"/>
<rect width="37.2637" height="11199.5" transform="matrix(-0.52506 0.851065 0.879796 0.475351 596.238 -2539.82)" stroke="#1A55F5"/>
<rect width="37.2637" height="11199.5" transform="matrix(-0.52506 0.851065 0.879796 0.475351 -9599.7 -2539.82)" stroke="#1A55F5"/>
<rect width="37.2637" height="11199.5" transform="matrix(-0.52506 0.851065 0.879796 0.475351 -4038.67 -2539.82)" stroke="#1A55F5"/>
<rect width="37.2637" height="11199.5" transform="matrix(-0.52506 0.851065 0.879796 0.475351 1213.65 -2539.82)" stroke="#1A55F5"/>
<rect width="37.2637" height="11199.5" transform="matrix(-0.52506 0.851065 0.879796 0.475351 -8982.29 -2539.82)" stroke="#1A55F5"/>
<rect width="37.2637" height="11199.5" transform="matrix(-0.52506 0.851065 0.879796 0.475351 -3421.25 -2539.82)" stroke="#1A55F5"/>
<rect width="37.2637" height="11199.5" transform="matrix(-0.52506 0.851065 0.879796 0.475351 -8364.88 -2539.82)" stroke="#1A55F5"/>
<rect width="37.2637" height="11199.5" transform="matrix(-0.52506 0.851065 0.879796 0.475351 -2803.84 -2539.82)" stroke="#1A55F5"/>
<rect width="37.2637" height="11199.5" transform="matrix(-0.52506 0.851065 0.879796 0.475351 -7747.46 -2539.82)" stroke="#1A55F5"/>
<rect width="37.2637" height="11199.5" transform="matrix(-0.52506 0.851065 0.879796 0.475351 -2186.42 -2539.82)" stroke="#1A55F5"/>
<rect width="37.2637" height="11199.5" transform="matrix(-0.52506 0.851065 0.879796 0.475351 -7130.04 -2539.82)" stroke="#1A55F5"/>
<rect width="37.2637" height="11199.5" transform="matrix(-0.52506 0.851065 0.879796 0.475351 -1569.01 -2539.82)" stroke="#1A55F5"/>
<rect width="37.2637" height="11199.5" transform="matrix(0.52506 0.851065 -0.879796 0.475351 7956.04 -2539.82)" stroke="#1A55F5"/>
<rect width="37.2637" height="11199.5" transform="matrix(0.52506 0.851065 -0.879796 0.475351 7338.62 -2539.82)" stroke="#1A55F5"/>
<rect width="37.2637" height="11199.5" transform="matrix(0.52506 0.851065 -0.879796 0.475351 2086.3 -2539.82)" stroke="#1A55F5"/>
<rect width="37.2637" height="11199.5" transform="matrix(0.52506 0.851065 -0.879796 0.475351 6721.21 -2539.82)" stroke="#1A55F5"/>
<rect width="37.2637" height="11199.5" transform="matrix(0.52506 0.851065 -0.879796 0.475351 1468.89 -2539.82)" stroke="#1A55F5"/>
<rect width="37.2637" height="11199.5" transform="matrix(0.52506 0.851065 -0.879796 0.475351 6103.79 -2539.82)" stroke="#1A55F5"/>
<rect width="37.2637" height="11199.5" transform="matrix(0.52506 0.851065 -0.879796 0.475351 851.469 -2539.82)" stroke="#1A55F5"/>
<rect width="37.2637" height="11199.5" transform="matrix(0.52506 0.851065 -0.879796 0.475351 11047.4 -2539.82)" stroke="#1A55F5"/>
<rect width="37.2637" height="11199.5" transform="matrix(0.52506 0.851065 -0.879796 0.475351 5486.38 -2539.82)" stroke="#1A55F5"/>
<rect width="37.2637" height="11199.5" transform="matrix(0.52506 0.851065 -0.879796 0.475351 234.055 -2539.82)" stroke="#1A55F5"/>
<rect width="37.2637" height="11199.5" transform="matrix(0.52506 0.851065 -0.879796 0.475351 10430 -2539.82)" stroke="#1A55F5"/>
<rect width="37.2637" height="11199.5" transform="matrix(0.52506 0.851065 -0.879796 0.475351 4868.96 -2539.82)" stroke="#1A55F5"/>
<rect width="37.2637" height="11199.5" transform="matrix(0.52506 0.851065 -0.879796 0.475351 9812.58 -2539.82)" stroke="#1A55F5"/>
<rect width="37.2637" height="11199.5" transform="matrix(0.52506 0.851065 -0.879796 0.475351 4251.54 -2539.82)" stroke="#1A55F5"/>
<rect width="37.2637" height="11199.5" transform="matrix(0.52506 0.851065 -0.879796 0.475351 9195.17 -2539.82)" stroke="#1A55F5"/>
<rect width="37.2637" height="11199.5" transform="matrix(0.52506 0.851065 -0.879796 0.475351 3634.13 -2539.82)" stroke="#1A55F5"/>
<rect width="37.2637" height="11199.5" transform="matrix(0.52506 0.851065 -0.879796 0.475351 8577.75 -2539.82)" stroke="#1A55F5"/>
<rect width="37.2637" height="11199.5" transform="matrix(0.52506 0.851065 -0.879796 0.475351 3016.71 -2539.82)" stroke="#1A55F5"/>
<rect width="37.2637" height="11199.5" transform="matrix(0.52506 0.851065 -0.879796 0.475351 7801.69 -2539.82)" stroke="#1A55F5"/>
<rect width="37.2637" height="11199.5" transform="matrix(0.52506 0.851065 -0.879796 0.475351 7184.27 -2539.82)" stroke="#1A55F5"/>
<rect width="37.2637" height="11199.5" transform="matrix(0.52506 0.851065 -0.879796 0.475351 1931.95 -2539.82)" stroke="#1A55F5"/>
<rect width="37.2637" height="11199.5" transform="matrix(0.52506 0.851065 -0.879796 0.475351 6566.86 -2539.82)" stroke="#1A55F5"/>
<rect width="37.2637" height="11199.5" transform="matrix(0.52506 0.851065 -0.879796 0.475351 1314.53 -2539.82)" stroke="#1A55F5"/>
<rect width="37.2637" height="11199.5" transform="matrix(0.52506 0.851065 -0.879796 0.475351 5949.44 -2539.82)" stroke="#1A55F5"/>
<rect width="37.2637" height="11199.5" transform="matrix(0.52506 0.851065 -0.879796 0.475351 697.113 -2539.82)" stroke="#1A55F5"/>
<rect width="37.2637" height="11199.5" transform="matrix(0.52506 0.851065 -0.879796 0.475351 10893.1 -2539.82)" stroke="#1A55F5"/>
<rect width="37.2637" height="11199.5" transform="matrix(0.52506 0.851065 -0.879796 0.475351 5332.03 -2539.82)" stroke="#1A55F5"/>
<rect width="37.2637" height="11199.5" transform="matrix(0.52506 0.851065 -0.879796 0.475351 79.6973 -2539.82)" stroke="#1A55F5"/>
<rect width="37.2637" height="11199.5" transform="matrix(0.52506 0.851065 -0.879796 0.475351 10275.6 -2539.82)" stroke="#1A55F5"/>
<rect width="37.2637" height="11199.5" transform="matrix(0.52506 0.851065 -0.879796 0.475351 4714.61 -2539.82)" stroke="#1A55F5"/>
<rect width="37.2637" height="11199.5" transform="matrix(0.52506 0.851065 -0.879796 0.475351 9658.22 -2539.82)" stroke="#1A55F5"/>
<rect width="37.2637" height="11199.5" transform="matrix(0.52506 0.851065 -0.879796 0.475351 4097.19 -2539.82)" stroke="#1A55F5"/>
<rect width="37.2637" height="11199.5" transform="matrix(0.52506 0.851065 -0.879796 0.475351 9040.81 -2539.82)" stroke="#1A55F5"/>
<rect width="37.2637" height="11199.5" transform="matrix(0.52506 0.851065 -0.879796 0.475351 3479.77 -2539.82)" stroke="#1A55F5"/>
<rect width="37.2637" height="11199.5" transform="matrix(0.52506 0.851065 -0.879796 0.475351 8423.39 -2539.82)" stroke="#1A55F5"/>
<rect width="37.2637" height="11199.5" transform="matrix(0.52506 0.851065 -0.879796 0.475351 2862.36 -2539.82)" stroke="#1A55F5"/>
<rect width="37.2637" height="11199.5" transform="matrix(0.52506 0.851065 -0.879796 0.475351 7647.34 -2539.82)" stroke="#1A55F5"/>
<rect width="37.2637" height="11199.5" transform="matrix(0.52506 0.851065 -0.879796 0.475351 2395.01 -2539.82)" stroke="#1A55F5"/>
<rect width="37.2637" height="11199.5" transform="matrix(0.52506 0.851065 -0.879796 0.475351 7029.92 -2539.82)" stroke="#1A55F5"/>
<rect width="37.2637" height="11199.5" transform="matrix(0.52506 0.851065 -0.879796 0.475351 1777.59 -2539.82)" stroke="#1A55F5"/>
<rect width="37.2637" height="11199.5" transform="matrix(0.52506 0.851065 -0.879796 0.475351 6412.5 -2539.82)" stroke="#1A55F5"/>
<rect width="37.2637" height="11199.5" transform="matrix(0.52506 0.851065 -0.879796 0.475351 1160.17 -2539.82)" stroke="#1A55F5"/>
<rect width="37.2637" height="11199.5" transform="matrix(0.52506 0.851065 -0.879796 0.475351 5795.08 -2539.82)" stroke="#1A55F5"/>
<rect width="37.2637" height="11199.5" transform="matrix(0.52506 0.851065 -0.879796 0.475351 542.756 -2539.82)" stroke="#1A55F5"/>
<rect width="37.2637" height="11199.5" transform="matrix(0.52506 0.851065 -0.879796 0.475351 10738.7 -2539.82)" stroke="#1A55F5"/>
<rect width="37.2637" height="11199.5" transform="matrix(0.52506 0.851065 -0.879796 0.475351 5177.67 -2539.82)" stroke="#1A55F5"/>
<rect width="37.2637" height="11199.5" transform="matrix(0.52506 0.851065 -0.879796 0.475351 10121.3 -2539.82)" stroke="#1A55F5"/>
<rect width="37.2637" height="11199.5" transform="matrix(0.52506 0.851065 -0.879796 0.475351 4560.25 -2539.82)" stroke="#1A55F5"/>
<rect width="37.2637" height="11199.5" transform="matrix(0.52506 0.851065 -0.879796 0.475351 9503.87 -2539.82)" stroke="#1A55F5"/>
<rect width="37.2637" height="11199.5" transform="matrix(0.52506 0.851065 -0.879796 0.475351 3942.84 -2539.82)" stroke="#1A55F5"/>
<rect width="37.2637" height="11199.5" transform="matrix(0.52506 0.851065 -0.879796 0.475351 8886.45 -2539.82)" stroke="#1A55F5"/>
<rect width="37.2637" height="11199.5" transform="matrix(0.52506 0.851065 -0.879796 0.475351 3325.42 -2539.82)" stroke="#1A55F5"/>
<rect width="37.2637" height="11199.5" transform="matrix(0.52506 0.851065 -0.879796 0.475351 8269.04 -2539.82)" stroke="#1A55F5"/>
<rect width="37.2637" height="11199.5" transform="matrix(0.52506 0.851065 -0.879796 0.475351 2708.01 -2539.82)" stroke="#1A55F5"/>
<rect width="37.2637" height="11199.5" transform="matrix(0.52506 0.851065 -0.879796 0.475351 7492.98 -2539.82)" stroke="#1A55F5"/>
<rect width="37.2637" height="11199.5" transform="matrix(0.52506 0.851065 -0.879796 0.475351 2240.65 -2539.82)" stroke="#1A55F5"/>
<rect width="37.2637" height="11199.5" transform="matrix(0.52506 0.851065 -0.879796 0.475351 6875.56 -2539.82)" stroke="#1A55F5"/>
<rect width="37.2637" height="11199.5" transform="matrix(0.52506 0.851065 -0.879796 0.475351 1623.24 -2539.82)" stroke="#1A55F5"/>
<rect width="37.2637" height="11199.5" transform="matrix(0.52506 0.851065 -0.879796 0.475351 6258.15 -2539.82)" stroke="#1A55F5"/>
<rect width="37.2637" height="11199.5" transform="matrix(0.52506 0.851065 -0.879796 0.475351 1005.82 -2539.82)" stroke="#1A55F5"/>
<rect width="37.2637" height="11199.5" transform="matrix(0.52506 0.851065 -0.879796 0.475351 11201.8 -2539.82)" stroke="#1A55F5"/>
<rect width="37.2637" height="11199.5" transform="matrix(0.52506 0.851065 -0.879796 0.475351 5640.73 -2539.82)" stroke="#1A55F5"/>
<rect width="37.2637" height="11199.5" transform="matrix(0.52506 0.851065 -0.879796 0.475351 388.406 -2539.82)" stroke="#1A55F5"/>
<rect width="37.2637" height="11199.5" transform="matrix(0.52506 0.851065 -0.879796 0.475351 10584.3 -2539.82)" stroke="#1A55F5"/>
<rect width="37.2637" height="11199.5" transform="matrix(0.52506 0.851065 -0.879796 0.475351 5023.31 -2539.82)" stroke="#1A55F5"/>
<rect width="37.2637" height="11199.5" transform="matrix(0.52506 0.851065 -0.879796 0.475351 9966.93 -2539.82)" stroke="#1A55F5"/>
<rect width="37.2637" height="11199.5" transform="matrix(0.52506 0.851065 -0.879796 0.475351 4405.9 -2539.82)" stroke="#1A55F5"/>
<rect width="37.2637" height="11199.5" transform="matrix(0.52506 0.851065 -0.879796 0.475351 9349.52 -2539.82)" stroke="#1A55F5"/>
<rect width="37.2637" height="11199.5" transform="matrix(0.52506 0.851065 -0.879796 0.475351 3788.48 -2539.82)" stroke="#1A55F5"/>
<rect width="37.2637" height="11199.5" transform="matrix(0.52506 0.851065 -0.879796 0.475351 8732.1 -2539.82)" stroke="#1A55F5"/>
<rect width="37.2637" height="11199.5" transform="matrix(0.52506 0.851065 -0.879796 0.475351 3171.06 -2539.82)" stroke="#1A55F5"/>
<rect width="37.2637" height="11199.5" transform="matrix(0.52506 0.851065 -0.879796 0.475351 8114.69 -2539.82)" stroke="#1A55F5"/>
<rect width="37.2637" height="11199.5" transform="matrix(0.52506 0.851065 -0.879796 0.475351 2553.65 -2539.82)" stroke="#1A55F5"/>
</g>
<rect width="1440" height="620.449" transform="matrix(-1 0 0 1 1440 0)" fill="url(#paint0_linear)"/>
<rect x="1440" y="627" width="1440" height="397.724" transform="rotate(-180 1440 627)" fill="url(#paint1_linear)"/>
<rect x="1440" y="14" width="599" height="398" transform="rotate(90 1440 14)" fill="url(#paint2_linear)"/>
<rect width="599" height="398" transform="matrix(-1.19249e-08 1 1 3.18662e-10 0 14)" fill="url(#paint3_linear)"/>
<defs>
<linearGradient id="paint0_linear" x1="450.5" y1="32.2858" x2="455.639" y2="381.443" gradientUnits="userSpaceOnUse">
<stop offset="0.0814163" stop-color="#0D2BD3"/>
<stop offset="1" stop-color="#0D2BD3" stop-opacity="0"/>
</linearGradient>
<linearGradient id="paint1_linear" x1="1806.5" y1="707.481" x2="1827.94" y2="889.054" gradientUnits="userSpaceOnUse">
<stop offset="0.0814163" stop-color="#0D2BD3"/>
<stop offset="1" stop-color="#0D2BD3" stop-opacity="0"/>
</linearGradient>
<linearGradient id="paint2_linear" x1="1592.45" y1="94.5365" x2="1640.89" y2="265.011" gradientUnits="userSpaceOnUse">
<stop offset="0.0814163" stop-color="#0D2BD3"/>
<stop offset="1" stop-color="#0D2BD3" stop-opacity="0"/>
</linearGradient>
<linearGradient id="paint3_linear" x1="152.454" y1="80.5365" x2="200.886" y2="251.011" gradientUnits="userSpaceOnUse">
<stop offset="0.0814163" stop-color="#0D2BD3"/>
<stop offset="1" stop-color="#0D2BD3" stop-opacity="0"/>
</linearGradient>
</defs>
</svg>
