<svg width="300" height="228" viewBox="0 0 300 228" fill="none" xmlns="http://www.w3.org/2000/svg">
<g style="mix-blend-mode:screen">
<path d="M66.9001 33.7493C72.303 30.8868 78.7949 30.988 84.1061 34.0173L288.373 150.526C288.601 150.656 288.844 150.753 289.098 150.817C290.373 151.135 291.267 152.281 291.267 153.595L291.268 162.447C291.268 164.746 290.072 166.878 288.11 168.076L236.627 199.506C228.068 204.731 217.319 204.782 208.71 199.639L14.2026 83.427C10.9278 81.4705 8.92239 77.9368 8.92182 74.1221L8.92076 66.9767C8.92056 65.6071 9.58189 64.3217 10.6964 63.5255L66.9001 33.7493Z" fill="#AEAEAE"/>
<path d="M71.3079 28.3803C76.7217 25.5702 83.1953 25.7181 88.4751 28.7723L287.197 143.729C292.686 146.904 292.723 154.816 287.263 158.042L234.964 188.946C227.747 193.21 218.782 193.211 211.565 188.947L14.1628 72.3315C8.5571 69.0199 8.78148 60.8351 14.5602 57.8356L71.3079 28.3803Z" fill="#EBEBEB"/>
</g>
</svg>
