<svg width="11" height="16" viewBox="0 0 11 16" fill="none" xmlns="http://www.w3.org/2000/svg">
<path d="M5.95 2.43638L6.80356 3.28993L8.97826 5.46464C9.06285 5.54507 9.17543 5.58951 9.29224 5.5885C9.41023 5.58747 9.52309 5.54015 9.60653 5.45671C9.68996 5.37328 9.73729 5.26041 9.73831 5.14242C9.73933 5.02562 9.69489 4.91305 9.61447 4.82846L5.81815 1.03214C5.81813 1.03213 5.81812 1.03211 5.8181 1.03209C5.73372 0.947762 5.6193 0.900391 5.5 0.900391C5.3807 0.900391 5.26629 0.947762 5.18191 1.03209L5.18185 1.03214M5.95 2.43638L1.02835 5.82184C0.850256 5.64369 0.750206 5.40209 0.750206 5.15019C0.750206 4.89828 0.850256 4.65669 1.02835 4.47854L4.82835 0.678538L5.18185 1.03214M5.95 2.43638V3.64349V14.6502C5.95 14.7695 5.90259 14.884 5.8182 14.9684C5.73381 15.0528 5.61935 15.1002 5.5 15.1002C5.38065 15.1002 5.2662 15.0528 5.18181 14.9684C5.09741 14.884 5.05 14.7695 5.05 14.6502V3.64349V2.43638L4.19645 3.28993L2.01815 5.46823L2.37086 5.82105L2.0181 5.46828C1.93372 5.55261 1.8193 5.59999 1.7 5.59999C1.58073 5.59999 1.46634 5.55263 1.38196 5.46834M5.95 2.43638L1.38196 4.83204M5.18185 1.03214L1.38196 4.83204M5.18185 1.03214L1.38196 4.83204M1.38196 4.83204L1.02839 4.47858L1.38191 4.83209C1.29758 4.91647 1.25021 5.03089 1.25021 5.15019C1.25021 5.26951 1.2976 5.38395 1.38196 5.46834M1.38196 5.46834C1.38192 5.4683 1.38189 5.46827 1.38185 5.46823L1.02877 5.82142L1.38196 5.46834Z" stroke="#1C64F2"/>
</svg>
