<svg width="21" height="16" viewBox="0 0 21 16" fill="none" xmlns="http://www.w3.org/2000/svg">
<path d="M17.5991 1.75468C16.2881 1.16064 14.9013 0.738695 13.4753 0.5C13.281 0.84571 13.1048 1.20065 12.9472 1.56349C11.4326 1.33932 9.89175 1.33932 8.3772 1.56349C8.21808 1.20032 8.03972 0.845349 7.84285 0.5C6.41456 0.739114 5.02576 1.1627 3.71355 1.75946C1.38043 5.04131 0.329674 9.02157 0.749699 12.9865C2.27305 14.1014 3.98448 14.9514 5.80779 15.4988C6.21757 14.9523 6.57976 14.3738 6.89064 13.7691C6.29844 13.5506 5.72752 13.2812 5.18468 12.9643C5.32767 12.8616 5.46758 12.754 5.60255 12.6435C7.1799 13.3798 8.9081 13.7622 10.6588 13.7622C12.4095 13.7622 14.1377 13.3798 15.715 12.6435C15.8518 12.754 15.9917 12.8616 16.1329 12.9643C15.5892 13.282 15.0172 13.5518 14.4238 13.7703C14.7347 14.3751 15.0971 14.9537 15.5073 15.5C17.3321 14.953 19.0447 14.1023 20.5685 12.9859C20.9893 9.01883 19.9364 5.0364 17.5991 1.75468ZM7.33994 10.7244C6.83203 10.6888 6.35893 10.4611 6.02271 10.0903C5.68649 9.71957 5.51411 9.23553 5.54278 8.74265C5.51116 8.24896 5.68246 7.76322 6.01923 7.39163C6.356 7.02004 6.83084 6.79282 7.33994 6.75966C7.59259 6.77454 7.8397 6.83776 8.06703 6.94566C8.29436 7.05356 8.49742 7.20402 8.66448 7.38836C8.83154 7.5727 8.95932 7.78727 9.04044 8.01971C9.12156 8.25214 9.15442 8.49785 9.13712 8.74265C9.16905 9.23629 8.99781 9.72207 8.66094 10.0935C8.32408 10.465 7.84904 10.6919 7.33994 10.7244ZM13.9813 10.7244C13.4734 10.6888 13.0003 10.4611 12.6641 10.0903C12.3279 9.71957 12.1555 9.23553 12.1842 8.74265C12.1525 8.24896 12.3239 7.76322 12.6606 7.39163C12.9974 7.02004 13.4722 6.79282 13.9813 6.75966C14.234 6.77454 14.4811 6.83776 14.7084 6.94566C14.9358 7.05356 15.1388 7.20402 15.3059 7.38836C15.473 7.5727 15.6007 7.78727 15.6818 8.01971C15.763 8.25214 15.7958 8.49785 15.7785 8.74265C15.8103 9.23625 15.639 9.72195 15.3022 10.0934C14.9653 10.4648 14.4904 10.6917 13.9813 10.7244Z" fill="#1C64F2"/>
</svg>
