<svg width="17" height="16" viewBox="0 0 17 16" fill="none" xmlns="http://www.w3.org/2000/svg">
<path d="M8.82505 0.0971903C6.73248 0.0922576 4.72224 0.904705 3.23007 2.35844C1.7379 3.81217 0.884025 5.79005 0.853516 7.86337V15.9032L8.82254 15.8957C10.9145 15.8656 12.9101 15.0199 14.3771 13.5418C15.8441 12.0637 16.6641 10.0723 16.6595 7.99919C16.6636 5.92615 15.8439 3.93486 14.3778 2.45606C12.9116 0.97727 10.9169 0.129876 8.82505 0.0971903V0.0971903ZM13.3342 9.8982C13.0719 10.4745 12.6975 10.994 12.2326 11.4269C11.7676 11.8599 11.2211 12.1978 10.6244 12.4214C10.0276 12.6451 9.39218 12.7501 8.75445 12.7304C8.11673 12.7107 7.48917 12.5667 6.9076 12.3067L3.75202 13.0131L4.62966 10.2121C4.23018 9.47816 4.02944 8.65414 4.04704 7.8204C4.06464 6.98667 4.29997 6.17169 4.73008 5.45491C5.16078 4.73866 5.77173 4.14545 6.50316 3.73331C7.23459 3.32117 8.06146 3.10421 8.90287 3.10366V3.10366C9.59239 3.10359 10.274 3.24928 10.9022 3.53103C11.4839 3.79071 12.0083 4.16142 12.4454 4.62198C12.8825 5.08254 13.2238 5.62393 13.4497 6.21522C13.6756 6.80651 13.7817 7.43611 13.762 8.06804C13.7423 8.69998 13.5971 9.32188 13.3347 9.8982H13.3342Z" fill="#1C64F2"/>
</svg>
