<svg width="13" height="13" viewBox="0 0 13 13" fill="none" xmlns="http://www.w3.org/2000/svg">
<path d="M11.375 11.375L8.125 8.125M9.20833 5.41667C9.20833 5.9146 9.11026 6.40765 8.91971 6.86768C8.72916 7.3277 8.44987 7.74569 8.09778 8.09778C7.74569 8.44987 7.3277 8.72916 6.86768 8.91971C6.40765 9.11026 5.9146 9.20833 5.41667 9.20833C4.91874 9.20833 4.42569 9.11026 3.96566 8.91971C3.50563 8.72916 3.08764 8.44987 2.73555 8.09778C2.38346 7.74569 2.10417 7.3277 1.91362 6.86768C1.72307 6.40765 1.625 5.9146 1.625 5.41667C1.625 4.41105 2.02448 3.44663 2.73555 2.73555C3.44663 2.02448 4.41105 1.625 5.41667 1.625C6.42228 1.625 7.3867 2.02448 8.09778 2.73555C8.80886 3.44663 9.20833 4.41105 9.20833 5.41667Z" stroke="#1C64F2" stroke-width="2" stroke-linecap="round" stroke-linejoin="round"/>
</svg>
