<svg width="19" height="15" viewBox="0 0 19 15" fill="none" xmlns="http://www.w3.org/2000/svg">
<path d="M16.7959 3.62109C17.499 3.09375 18.1318 2.46094 18.624 1.72266C17.9912 2.00391 17.2529 2.21484 16.5146 2.28516C17.2881 1.82812 17.8506 1.125 18.1318 0.246094C17.4287 0.667969 16.6201 0.984375 15.8115 1.16016C15.1084 0.421875 14.1592 0 13.1045 0C11.0654 0 9.41309 1.65234 9.41309 3.69141C9.41309 3.97266 9.44824 4.25391 9.51855 4.53516C6.45996 4.35938 3.71777 2.88281 1.88965 0.667969C1.57324 1.19531 1.39746 1.82812 1.39746 2.53125C1.39746 3.79688 2.03027 4.92188 3.0498 5.58984C2.45215 5.55469 1.85449 5.41406 1.3623 5.13281V5.16797C1.3623 6.96094 2.62793 8.4375 4.31543 8.78906C4.03418 8.85938 3.68262 8.92969 3.36621 8.92969C3.12012 8.92969 2.90918 8.89453 2.66309 8.85938C3.12012 10.3359 4.49121 11.3906 6.1084 11.4258C4.84277 12.4102 3.26074 13.0078 1.53809 13.0078C1.22168 13.0078 0.94043 12.9727 0.65918 12.9375C2.27637 13.9922 4.20996 14.5898 6.31934 14.5898C13.1045 14.5898 16.7959 9 16.7959 4.11328C16.7959 3.9375 16.7959 3.79688 16.7959 3.62109Z" fill="#1C64F2"/>
</svg>
