<svg width="16" height="13" viewBox="0 0 16 13" fill="none" xmlns="http://www.w3.org/2000/svg">
<path d="M13.9473 3.18408C14.5332 2.74463 15.0605 2.21729 15.4707 1.60205C14.9434 1.83643 14.3281 2.01221 13.7129 2.0708C14.3574 1.68994 14.8262 1.104 15.0605 0.371582C14.4746 0.723145 13.8008 0.986816 13.127 1.1333C12.541 0.518066 11.75 0.166504 10.8711 0.166504C9.17188 0.166504 7.79492 1.54346 7.79492 3.24268C7.79492 3.47705 7.82422 3.71143 7.88281 3.9458C5.33398 3.79932 3.04883 2.56885 1.52539 0.723145C1.26172 1.1626 1.11523 1.68994 1.11523 2.27588C1.11523 3.33057 1.64258 4.26807 2.49219 4.82471C1.99414 4.79541 1.49609 4.67822 1.08594 4.44385V4.47314C1.08594 5.96729 2.14062 7.19775 3.54688 7.49072C3.3125 7.54932 3.01953 7.60791 2.75586 7.60791C2.55078 7.60791 2.375 7.57861 2.16992 7.54932C2.55078 8.77979 3.69336 9.65869 5.04102 9.68799C3.98633 10.5083 2.66797 11.0063 1.23242 11.0063C0.96875 11.0063 0.734375 10.9771 0.5 10.9478C1.84766 11.8267 3.45898 12.3247 5.2168 12.3247C10.8711 12.3247 13.9473 7.6665 13.9473 3.59424C13.9473 3.44775 13.9473 3.33057 13.9473 3.18408Z" fill="#7D8795"/>
</svg>
