<svg width="103" height="113" viewBox="0 0 103 113" fill="none" xmlns="http://www.w3.org/2000/svg">
<path d="M100.8 49.9859V48.3135H1.65334V49.9802C1.65179 50.5056 1.75491 51.0259 1.95669 51.511C2.15846 51.996 2.45485 52.436 2.82854 52.8052L46.2375 96.2142C46.8924 96.8698 47.6701 97.39 48.5261 97.7449C49.3821 98.0998 50.2997 98.2824 51.2264 98.2824C52.1531 98.2824 53.0707 98.0998 53.9268 97.7449C54.7828 97.39 55.5605 96.8698 56.2154 96.2142L99.6243 52.8052C100.375 52.0565 100.798 51.0404 100.8 49.9802V49.9859Z" fill="#43B649"/>
<path d="M56.2153 2.06825L99.6243 45.4772C100.37 46.2285 100.788 47.2439 100.788 48.3022C100.788 49.3605 100.37 50.3759 99.6243 51.1272L56.2153 94.5361C54.8913 95.8576 53.097 96.5997 51.2264 96.5997C49.3557 96.5997 47.5615 95.8576 46.2374 94.5361L2.82847 51.1498C2.08321 50.3985 1.66504 49.3831 1.66504 48.3248C1.66504 47.2665 2.08321 46.2511 2.82847 45.4998L46.2374 2.06825C46.8923 1.41259 47.67 0.892439 48.526 0.537553C49.3821 0.182666 50.2997 0 51.2264 0C52.1531 0 53.0707 0.182666 53.9267 0.537553C54.7828 0.892439 55.5605 1.41259 56.2153 2.06825V2.06825Z" fill="#3EE028"/>
<path d="M100.8 63.5572V61.8622H1.65332V63.5572C1.65395 64.0822 1.75807 64.6019 1.95972 65.0867C2.16137 65.5714 2.4566 66.0116 2.82852 66.3822L46.2375 109.791C46.8923 110.447 47.67 110.967 48.5261 111.322C49.3821 111.677 50.2997 111.859 51.2264 111.859C52.1531 111.859 53.0707 111.677 53.9268 111.322C54.7828 110.967 55.5605 110.447 56.2154 109.791L99.6243 66.3822C100.375 65.6335 100.798 64.6174 100.8 63.5572Z" fill="#646091"/>
<path d="M46.2358 108.129L2.83647 64.7293C2.08417 63.977 1.66153 62.9566 1.66153 61.8927C1.66153 60.8288 2.08416 59.8085 2.83646 59.0562L46.2478 15.6448C47.5712 14.3214 49.3662 13.5779 51.2378 13.5779C53.1093 13.5779 54.9043 14.3214 56.2277 15.6448L99.6191 59.0362C100.371 59.7885 100.794 60.8088 100.794 61.8728C100.794 62.9367 100.371 63.957 99.6191 64.7093L56.2077 108.121C54.8857 109.443 53.0931 110.186 51.2234 110.188C49.3538 110.189 47.56 109.449 46.2358 108.129V108.129Z" fill="#8277A9"/>
<path d="M70.9339 50.2854C70.8107 45.1419 68.6809 40.2505 64.9996 36.6563C61.3182 33.0621 56.3773 31.05 51.2323 31.05C46.0874 31.05 41.1464 33.0621 37.4651 36.6563C33.7837 40.2505 31.654 45.1419 31.5308 50.2854C31.5308 50.3362 31.5308 50.3927 31.5308 50.4323V86.3663C31.5308 86.9477 31.7617 87.5053 32.1728 87.9164C32.584 88.3275 33.1416 88.5585 33.723 88.5585C34.3044 88.5585 34.862 88.3275 35.2731 87.9164C35.6842 87.5053 35.9152 86.9477 35.9152 86.3663V79.9818C35.9152 79.4019 36.1455 78.8457 36.5556 78.4357C36.9656 78.0256 37.5218 77.7952 38.1017 77.7952C38.6816 77.7952 39.2378 78.0256 39.6478 78.4357C40.0579 78.8457 40.2883 79.4019 40.2883 79.9818V82.9989C40.2883 83.5788 40.5186 84.135 40.9287 84.545C41.3387 84.9551 41.8949 85.1854 42.4748 85.1854C43.0547 85.1854 43.6109 84.9551 44.0209 84.545C44.431 84.135 44.6614 83.5788 44.6614 82.9989V79.9818C44.6614 79.6946 44.7179 79.4103 44.8278 79.145C44.9377 78.8797 45.0987 78.6387 45.3018 78.4357C45.5048 78.2326 45.7459 78.0716 46.0112 77.9617C46.2764 77.8518 46.5608 77.7952 46.8479 77.7952C47.1351 77.7952 47.4194 77.8518 47.6847 77.9617C47.95 78.0716 48.191 78.2326 48.394 78.4357C48.5971 78.6387 48.7581 78.8797 48.868 79.145C48.9779 79.4103 49.0345 79.6946 49.0345 79.9818V80.7954C49.0345 81.3768 49.2654 81.9344 49.6765 82.3455C50.0877 82.7566 50.6453 82.9876 51.2267 82.9876C51.8081 82.9876 52.3657 82.7566 52.7768 82.3455C53.1879 81.9344 53.4189 81.3768 53.4189 80.7954V79.9648C53.4189 79.3849 53.6492 78.8288 54.0593 78.4187C54.4693 78.0087 55.0255 77.7783 55.6054 77.7783C56.1853 77.7783 56.7415 78.0087 57.1515 78.4187C57.5616 78.8288 57.792 79.3849 57.792 79.9648V82.9819C57.7769 83.2781 57.8222 83.5741 57.9251 83.8522C58.0281 84.1303 58.1865 84.3845 58.3908 84.5994C58.595 84.8143 58.8409 84.9854 59.1133 85.1024C59.3858 85.2193 59.6792 85.2796 59.9757 85.2796C60.2722 85.2796 60.5656 85.2193 60.8381 85.1024C61.1105 84.9854 61.3563 84.8143 61.5606 84.5994C61.7649 84.3845 61.9233 84.1303 62.0262 83.8522C62.1292 83.5741 62.1745 83.2781 62.1594 82.9819V79.9648C62.1594 79.3834 62.3904 78.8258 62.8015 78.4147C63.2126 78.0036 63.7702 77.7726 64.3516 77.7726C64.933 77.7726 65.4906 78.0036 65.9017 78.4147C66.3128 78.8258 66.5438 79.3834 66.5438 79.9648V86.338C66.5438 86.9179 66.7742 87.4741 67.1842 87.8842C67.5943 88.2942 68.1505 88.5246 68.7304 88.5246C69.3103 88.5246 69.8664 88.2942 70.2765 87.8842C70.6865 87.4741 70.9169 86.9179 70.9169 86.338V50.4323C70.9345 50.3854 70.9403 50.335 70.9339 50.2854ZM43.9664 53.4324C42.0228 53.4324 40.4634 51.6301 40.4634 49.4096C40.4634 47.1892 42.0398 45.3925 43.9664 45.3925C45.8931 45.3925 47.4638 47.1892 47.4638 49.4096C47.4638 51.6301 45.9044 53.4324 43.9664 53.4324ZM51.3849 59.1107C49.6334 59.1107 48.2039 58.0598 48.2039 56.7659C48.2039 55.4721 49.6334 56.2631 51.3849 56.2631C53.1364 56.2631 54.5715 55.4834 54.5715 56.7659C54.5715 58.0485 53.1477 59.1107 51.3849 59.1107V59.1107ZM58.4982 53.4324C56.5546 53.4324 54.9952 51.6301 54.9952 49.4096C54.9952 47.1892 56.5603 45.3925 58.4982 45.3925C60.4362 45.3925 62.0125 47.1892 62.0125 49.4096C62.0125 51.6301 60.4475 53.4324 58.4982 53.4324Z" fill="white"/>
</svg>
