<svg width="103" height="113" viewBox="0 0 103 113" fill="none" xmlns="http://www.w3.org/2000/svg">
<path d="M101.073 62.376C101.073 62.376 2.49193 62.0257 2.29983 62.4438L1.92693 62.3365V64.0315C1.91396 64.5697 2.01101 65.1048 2.21211 65.6042C2.41322 66.1036 2.71415 66.5566 3.09648 66.9356L46.5054 110.345C47.1603 111 47.938 111.52 48.794 111.875C49.6501 112.23 50.5677 112.413 51.4944 112.413C52.4211 112.413 53.3387 112.23 54.1947 111.875C55.0508 111.52 55.8285 111 56.4833 110.345L99.8923 66.9356C100.266 66.5664 100.562 66.1264 100.764 65.6413C100.966 65.1563 101.069 64.6359 101.067 64.1106L101.073 62.376Z" fill="#BC3C35"/>
<path d="M46.5122 108.617L3.11284 65.2176C2.36053 64.4653 1.93789 63.4449 1.93789 62.381C1.93789 61.3171 2.36053 60.2968 3.11283 59.5444L46.5082 16.1491C47.8316 14.8257 49.6265 14.0822 51.4981 14.0822C53.3697 14.0822 55.1647 14.8257 56.4881 16.1491L99.8794 59.5405C100.632 60.2928 101.054 61.3131 101.054 62.377C101.054 63.4409 100.632 64.4613 99.8794 65.2136L56.4801 108.613C55.1577 109.933 53.3656 110.675 51.497 110.676C49.6283 110.677 47.8356 109.936 46.5122 108.617V108.617Z" fill="#DD463A"/>
<path d="M101.073 50.5506V48.8782H1.92726V50.5449C1.92571 51.0703 2.02884 51.5906 2.23061 52.0757C2.43239 52.5607 2.72877 53.0007 3.10246 53.3699L46.5114 96.7789C47.1663 97.4345 47.944 97.9547 48.8 98.3096C49.6561 98.6644 50.5737 98.8471 51.5004 98.8471C52.4271 98.8471 53.3447 98.6644 54.2007 98.3096C55.0567 97.9547 55.8344 97.4345 56.4893 96.7789L99.8983 53.3699C100.649 52.6212 101.072 51.6051 101.073 50.5449V50.5506Z" fill="#646091"/>
<path d="M46.5107 95.1206L3.11137 51.7212C2.73887 51.3487 2.44338 50.9065 2.24179 50.4198C2.04019 49.9331 1.93643 49.4115 1.93643 48.8847C1.93643 48.3579 2.04019 47.8362 2.24179 47.3495C2.44339 46.8628 2.73886 46.4206 3.11137 46.0481L46.5187 2.64077C47.8421 1.31736 49.6371 0.573873 51.5087 0.573873C53.3803 0.573873 55.1752 1.31736 56.4986 2.64077L99.89 46.0321C100.642 46.7844 101.065 47.8048 101.065 48.8687C101.065 49.9326 100.642 50.953 99.89 51.7053L56.4786 95.1166C55.1562 96.4369 53.3642 97.1788 51.4955 97.1795C49.6268 97.1803 47.8342 96.4398 46.5107 95.1206V95.1206Z" fill="#8277A9"/>
<path d="M71.2073 36.725C71.0841 31.5815 68.9543 26.6901 65.273 23.0959C61.5917 19.5017 56.6507 17.4896 51.5057 17.4896C46.3608 17.4896 41.4198 19.5017 37.7385 23.0959C34.0572 26.6901 31.9274 31.5815 31.8042 36.725C31.8042 36.7758 31.8042 36.8323 31.8042 36.8719V72.8002C31.8042 73.3816 32.0352 73.9392 32.4463 74.3503C32.8574 74.7614 33.415 74.9924 33.9964 74.9924C34.5778 74.9924 35.1354 74.7614 35.5465 74.3503C35.9576 73.9392 36.1886 73.3816 36.1886 72.8002V66.3988C36.1886 65.8188 36.419 65.2627 36.829 64.8526C37.2391 64.4426 37.7952 64.2122 38.3751 64.2122C38.9551 64.2122 39.5112 64.4426 39.9213 64.8526C40.3313 65.2627 40.5617 65.8188 40.5617 66.3988V69.4159C40.5617 69.9958 40.7921 70.5519 41.2021 70.962C41.6122 71.372 42.1683 71.6024 42.7482 71.6024C43.3282 71.6024 43.8843 71.372 44.2944 70.962C44.7044 70.5519 44.9348 69.9958 44.9348 69.4159V66.3988C44.9348 65.8188 45.1652 65.2627 45.5752 64.8526C45.9853 64.4426 46.5414 64.2122 47.1213 64.2122C47.7013 64.2122 48.2574 64.4426 48.6675 64.8526C49.0775 65.2627 49.3079 65.8188 49.3079 66.3988V67.235C49.3079 67.8164 49.5389 68.374 49.95 68.7851C50.3611 69.1962 50.9187 69.4272 51.5001 69.4272C52.0815 69.4272 52.6391 69.1962 53.0502 68.7851C53.4613 68.374 53.6923 67.8164 53.6923 67.235V66.4044C53.6923 65.8245 53.9227 65.2683 54.3327 64.8583C54.7428 64.4482 55.2989 64.2179 55.8788 64.2179C56.4588 64.2179 57.0149 64.4482 57.425 64.8583C57.835 65.2683 58.0654 65.8245 58.0654 66.4044V69.4215C58.0939 69.9815 58.3364 70.5091 58.7428 70.8953C59.1492 71.2816 59.6884 71.4969 60.2491 71.4969C60.8098 71.4969 61.349 71.2816 61.7555 70.8953C62.1619 70.5091 62.4044 69.9815 62.4328 69.4215V66.4044C62.4328 65.823 62.6638 65.2654 63.0749 64.8543C63.486 64.4432 64.0436 64.2122 64.625 64.2122C65.2065 64.2122 65.764 64.4432 66.1752 64.8543C66.5863 65.2654 66.8172 65.823 66.8172 66.4044V72.772C66.8172 73.3519 67.0476 73.908 67.4577 74.3181C67.8677 74.7281 68.4239 74.9585 69.0038 74.9585C69.5837 74.9585 70.1399 74.7281 70.5499 74.3181C70.96 73.908 71.1903 73.3519 71.1903 72.772V36.8493C71.2045 36.8094 71.2103 36.7671 71.2073 36.725V36.725ZM44.2398 39.8438C42.2962 39.8438 40.7368 38.0471 40.7368 35.8266C40.7368 33.6062 42.3132 31.8095 44.2398 31.8095C46.1665 31.8095 47.7372 33.6062 47.7372 35.8266C47.7372 38.0471 46.1778 39.8438 44.2398 39.8438ZM51.6583 45.5277C49.9068 45.5277 48.4773 44.4768 48.4773 43.1829C48.4773 41.8891 49.9068 42.6744 51.6583 42.6744C53.4098 42.6744 54.8449 41.9004 54.8449 43.1829C54.8449 44.4655 53.4211 45.5277 51.6583 45.5277ZM58.7716 39.8438C56.828 39.8438 55.2686 38.0471 55.2686 35.8266C55.2686 33.6062 56.8337 31.8095 58.7716 31.8095C60.7096 31.8095 62.2859 33.6062 62.2859 35.8266C62.2859 38.0471 60.7209 39.8438 58.7716 39.8438Z" fill="white"/>
</svg>
