<svg width="117" height="117" viewBox="0 0 117 117" fill="none" xmlns="http://www.w3.org/2000/svg">
<path d="M58.2629 116.526C90.4406 116.526 116.526 90.4406 116.526 58.2629C116.526 26.0852 90.4406 0 58.2629 0C26.0852 0 0 26.0852 0 58.2629C0 90.4406 26.0852 116.526 58.2629 116.526Z" fill="url(#paint0_linear)"/>
<path opacity="0.3" d="M58.2629 114.773C42.9613 114.777 28.2727 108.76 17.3709 98.0223C6.46904 87.285 0.22935 72.6895 0 57.3896C0 57.6787 0 57.9918 0 58.2628C0 73.7151 6.13839 88.5345 17.0648 99.4609C27.9912 110.387 42.8106 116.526 58.2629 116.526C73.7152 116.526 88.5346 110.387 99.461 99.4609C110.387 88.5345 116.526 73.7151 116.526 58.2628C116.526 57.9678 116.526 57.6606 116.526 57.3896C116.296 72.6895 110.057 87.285 99.1549 98.0223C88.2531 108.76 73.5645 114.777 58.2629 114.773Z" fill="#1F1CC7"/>
<path d="M58.2629 2.19175C73.525 2.1922 88.1777 8.18132 99.0705 18.8715C109.963 29.5616 116.227 44.0992 116.514 59.3586C116.514 58.9913 116.514 58.63 116.514 58.2626C116.294 42.957 110.059 28.3528 99.1577 17.6071C88.2564 6.86138 73.564 0.837402 58.2569 0.837402C42.9497 0.837402 28.2574 6.86138 17.356 17.6071C6.45466 28.3528 0.220077 42.957 0 58.2626C0 58.63 0 58.9913 0 59.3586C0.287141 44.0971 6.55207 29.5577 17.4475 18.8673C28.343 8.17676 42.9986 2.18905 58.2629 2.19175Z" fill="#1F1CC7"/>
<path style="mix-blend-mode:screen" opacity="0.1" d="M58.2634 0.216797C43.1492 0.217525 28.632 6.11647 17.8012 16.6583C6.97033 27.2001 0.68095 41.5524 0.271484 56.661C6.68492 60.4609 16.7718 57.4198 23.3659 54.1198C29.0386 51.5002 36.0121 52.3734 42.1244 52.813C57.3902 54.1197 72.2344 60.6416 87.4882 56.7393C90.5413 55.8661 94.9013 51.9217 97.9544 54.5533C100.48 56.6251 103.546 57.9284 106.791 58.3084C110.035 58.6884 113.32 58.1292 116.255 56.6972C115.855 41.5822 109.57 27.2207 98.7379 16.6712C87.9061 6.1217 73.3836 0.217777 58.2634 0.216797Z" fill="url(#paint1_linear)"/>
<path d="M58.2635 103.386C83.1842 103.386 103.386 83.1837 103.386 58.263C103.386 33.3423 83.1842 13.1401 58.2635 13.1401C33.3428 13.1401 13.1406 33.3423 13.1406 58.263C13.1406 83.1837 33.3428 103.386 58.2635 103.386Z" fill="url(#paint2_linear)"/>
<path d="M58.2629 101.194C81.973 101.194 101.194 81.973 101.194 58.2629C101.194 34.5528 81.973 15.332 58.2629 15.332C34.5528 15.332 15.332 34.5528 15.332 58.2629C15.332 81.973 34.5528 101.194 58.2629 101.194Z" fill="#070569"/>
<path d="M58.0398 99.2185C80.782 99.2185 99.2183 80.7823 99.2183 58.04C99.2183 35.2978 80.782 16.8616 58.0398 16.8616C35.2976 16.8616 16.8613 35.2978 16.8613 58.04C16.8613 80.7823 35.2976 99.2185 58.0398 99.2185Z" fill="url(#paint3_radial)"/>
<path d="M82.8748 51.5243C83.8884 44.5939 78.6278 40.8661 71.3754 38.3909L73.7067 28.9855L67.9697 27.561L65.684 36.7038C64.1635 36.33 62.6431 35.9764 61.0923 35.6279L63.3932 26.4245L57.6815 25L55.3299 34.3853C54.0832 34.1024 52.8567 33.8246 51.6708 33.5266L43.7595 31.5566L42.2391 37.6585C42.2391 37.6585 46.4861 38.6384 46.405 38.6688C47.1993 38.7615 47.9249 39.1622 48.4248 39.7843C48.9247 40.4064 49.1586 41.1997 49.0759 41.9925L42.6293 67.7086C42.5474 67.9691 42.4147 68.211 42.2389 68.4203C42.063 68.6297 41.8475 68.8024 41.6046 68.9286C41.3617 69.0549 41.0961 69.1321 40.8232 69.1559C40.5504 69.1797 40.2754 69.1496 40.0142 69.0674C40.0699 69.1532 35.8432 68.0318 35.8432 68.0318L33 74.5985L40.4602 76.4523C41.8488 76.8009 43.2071 77.1645 44.5451 77.508L42.1681 87.0044L47.9001 88.4289L50.2466 79.0335C51.8127 79.4528 53.3331 79.8468 54.8079 80.2155L52.4867 89.5755L58.2238 91L60.5956 81.5187C70.377 83.3675 77.7257 82.6199 80.8223 73.8055C83.3158 66.7337 80.7006 62.6118 75.5515 59.9447C79.3018 59.081 82.14 56.626 82.8748 51.5546V51.5243ZM69.7739 69.8351C68.0051 76.9069 56.0141 73.0932 52.1269 72.1335L55.2691 59.5507C59.1614 60.5105 71.6288 62.435 69.7739 69.8351ZM71.5477 51.4182C69.931 57.8737 59.952 54.5904 56.7135 53.7872L59.5719 42.3764C62.8053 43.1846 73.2354 44.6848 71.5477 51.4182Z" fill="white"/>
<path opacity="0.25" d="M58.2641 96.3518C35.8863 96.3518 17.6818 79.3818 17.0977 57.1426C17.0977 57.5099 17.0977 57.8712 17.0977 58.2386C17.0977 69.1598 21.4361 79.6337 29.1585 87.3562C36.881 95.0786 47.3549 99.417 58.2761 99.417C69.1973 99.417 79.6712 95.0786 87.3937 87.3562C95.1161 79.6337 99.4546 69.1598 99.4546 58.2386C99.4546 57.8712 99.4546 57.5099 99.4546 57.1426C98.8464 79.4059 80.6418 96.3518 58.2641 96.3518Z" fill="#1F1CC7"/>
<defs>
<linearGradient id="paint0_linear" x1="58.2629" y1="0" x2="58.2629" y2="116.526" gradientUnits="userSpaceOnUse">
<stop stop-color="#050285"/>
<stop offset="0.222211" stop-color="#0500BD"/>
<stop offset="0.597227" stop-color="#611E86"/>
<stop offset="0.894114" stop-color="#C43E4A"/>
<stop offset="1" stop-color="#E6382A"/>
</linearGradient>
<linearGradient id="paint1_linear" x1="56" y1="69" x2="55" y2="4.3666e-07" gradientUnits="userSpaceOnUse">
<stop stop-color="white"/>
<stop offset="1" stop-color="white" stop-opacity="0.5"/>
</linearGradient>
<linearGradient id="paint2_linear" x1="58.2635" y1="103.386" x2="58.2635" y2="-7.48522" gradientUnits="userSpaceOnUse">
<stop stop-color="#0F0B8E"/>
<stop offset="0.305548" stop-color="#0500BD"/>
<stop offset="1" stop-color="#BC392F"/>
</linearGradient>
<radialGradient id="paint3_radial" cx="0" cy="0" r="1" gradientUnits="userSpaceOnUse" gradientTransform="translate(58.4794 22.5584) scale(82.7965)">
<stop offset="0.31" stop-color="#0500BD"/>
<stop offset="1" stop-color="#030072"/>
</radialGradient>
</defs>
</svg>
