<svg width="101" height="113" viewBox="0 0 101 113" fill="none" xmlns="http://www.w3.org/2000/svg">
<path d="M45.6619 108.684L3.61846 66.6401C2.89011 65.9118 2.48093 64.9239 2.48093 63.8939C2.48093 62.8638 2.89011 61.876 3.61846 61.1476L45.674 19.0921C46.9555 17.8106 48.6937 17.0906 50.5061 17.0906C52.3185 17.0906 54.0566 17.8106 55.3382 19.0921L97.3817 61.1356C97.7428 61.4957 98.0295 61.9234 98.2254 62.3943C98.4213 62.8652 98.5225 63.3701 98.5232 63.8801C98.524 64.3902 98.4243 64.8953 98.2298 65.3668C98.0353 65.8383 97.7498 66.2669 97.3897 66.6281L55.3342 108.684C54.0526 109.965 52.3145 110.685 50.5021 110.685C48.6897 110.685 46.9515 109.965 45.67 108.684L45.6619 108.684Z" fill="#BC3C35"/>
<path d="M98.5206 63.8831L98.5092 61.8615L96.0092 62.8695L95.8042 67.653L98.5206 63.8831Z" fill="#BC3C35"/>
<path d="M98.5206 50.7568L98.5092 49.02L96.0092 50.8992L95.8042 54.447L98.5206 50.7568Z" fill="#D37B1C"/>
<path d="M2.48535 63.8831L2.49674 61.8615L4.99672 62.8695L5.20173 67.653L2.48535 63.8831Z" fill="#BC3C35"/>
<path d="M2.48535 50.7568L2.49674 49.02L4.99672 50.8992L5.20173 54.447L2.48535 50.7568Z" fill="#D37B1C"/>
<path d="M45.6673 106.987L3.62385 64.9432C2.8955 64.2148 2.48632 63.2269 2.48632 62.1969C2.48632 61.1669 2.8955 60.179 3.62385 59.4506L45.6753 17.3991C46.9569 16.1176 48.695 15.3976 50.5074 15.3976C52.3198 15.3976 54.058 16.1176 55.3396 17.3991L97.383 59.4426C97.7448 59.8034 98.0319 60.232 98.2278 60.704C98.4237 61.1759 98.5245 61.6819 98.5245 62.1929C98.5245 62.7039 98.4237 63.2098 98.2278 63.6818C98.0319 64.1537 97.7448 64.5824 97.383 64.9431L55.3355 106.991C54.054 108.272 52.3158 108.992 50.5034 108.992C48.691 108.992 46.9529 108.272 45.6713 106.991L45.6673 106.987Z" fill="#DD463A"/>
<path d="M45.6635 95.5271L3.62005 53.4837C2.8917 52.7554 2.48252 51.7675 2.48252 50.7375C2.48252 49.7074 2.8917 48.7196 3.62005 47.9912L45.6715 5.93971C46.9531 4.65815 48.6913 3.93819 50.5037 3.93819C52.3161 3.93819 54.0542 4.65815 55.3358 5.93971L97.3792 47.9831C98.1076 48.7115 98.5168 49.6994 98.5168 50.7294C98.5168 51.7594 98.1076 52.7473 97.3792 53.4756L55.3277 95.5271C54.0462 96.8087 52.308 97.5287 50.4956 97.5287C48.6832 97.5287 46.945 96.8087 45.6635 95.5271Z" fill="#D37B1C"/>
<path d="M45.6643 93.9088L3.62085 51.8653C2.8925 51.137 2.48331 50.1491 2.48332 49.1191C2.48331 48.089 2.89249 47.1012 3.62085 46.3728L45.6723 4.32134C46.9539 3.03978 48.6921 2.3198 50.5044 2.31981C52.3168 2.31981 54.055 3.03978 55.3366 4.32134L97.38 46.3648C97.7432 46.7269 98.0311 47.1574 98.227 47.6314C98.423 48.1054 98.5231 48.6136 98.5216 49.1265C98.5201 49.6394 98.417 50.1469 98.2183 50.6198C98.0196 51.0926 97.7292 51.5214 97.3639 51.8814L55.3325 93.9128C54.051 95.1944 52.3128 95.9143 50.5004 95.9143C48.688 95.9143 46.9499 95.1944 45.6683 93.9128L45.6643 93.9088Z" fill="#F7931A"/>
<path d="M67.5756 42.5508C68.4127 36.9472 64.1587 33.9404 58.316 31.9302L60.2123 24.3391L55.5882 23.2002L53.7488 30.6033C52.5358 30.3015 51.2887 30.0338 50.0473 29.732L51.9037 22.2947L47.2853 21.1558L45.3947 28.7013C44.3867 28.4735 43.4015 28.2457 42.4448 28.0065L36.0725 26.3949L34.8424 31.3208C34.8424 31.3208 38.2592 32.1124 38.2023 32.158C38.8403 32.2352 39.4228 32.5592 39.8251 33.0604C40.2274 33.5617 40.4176 34.2005 40.3549 34.8402L38.1966 43.4961C38.3597 43.5353 38.5196 43.5867 38.6749 43.6499L38.1909 43.5246L35.1613 55.6315C35.0214 56.0524 34.7234 56.4023 34.3302 56.6074C33.937 56.8125 33.4794 56.8567 33.0543 56.7306C33.0998 56.7989 29.6944 55.8935 29.6944 55.8935L27.4165 61.1839L33.4301 62.6816C34.5691 62.9606 35.6453 63.251 36.7216 63.5301L34.7855 71.1838L39.3982 72.3227L41.266 64.7544C42.5302 65.1018 43.7546 65.415 44.9505 65.7111L43.0826 73.2794L47.701 74.4183L49.6145 66.759C57.4902 68.2453 63.4127 67.6473 65.907 60.4948C67.9172 54.7602 65.8045 51.4516 61.6645 49.2933C64.6826 48.5986 66.9548 46.6111 67.5585 42.5109L67.5756 42.5508ZM57.029 57.357C55.5996 63.0916 45.9414 59.988 42.7922 59.2135L45.3263 49.0427C48.4812 49.8229 58.521 51.3662 57.029 57.3513V57.357ZM58.4583 42.4768C57.1542 47.6931 49.1133 45.0394 46.4995 44.3902L48.7773 35.1705C51.414 35.814 59.8137 37.0155 58.4583 42.4711V42.4768Z" fill="white"/>
</svg>
