<svg width="101" height="112" viewBox="0 0 101 112" fill="none" xmlns="http://www.w3.org/2000/svg">
<path d="M45.662 94.4821L3.61053 52.4306C3.24988 52.0699 2.96381 51.6418 2.76863 51.1706C2.57345 50.6994 2.473 50.1943 2.473 49.6843C2.473 49.1743 2.57345 48.6693 2.76863 48.1981C2.96381 47.7269 3.24988 47.2987 3.61053 46.9381L45.662 4.88656C46.9436 3.605 48.6817 2.88504 50.4941 2.88504C52.3065 2.88504 54.0447 3.605 55.3263 4.88656L97.3778 46.9381C98.1061 47.6664 98.5153 48.6543 98.5153 49.6843C98.5153 50.7144 98.1061 51.7022 97.3777 52.4306L55.3263 94.4821C54.0447 95.7636 52.3065 96.4836 50.4941 96.4836C48.6817 96.4836 46.9436 95.7636 45.662 94.4821Z" fill="#43B649"/>
<path d="M98.5147 49.6828L98.4976 47.6612L95.9977 48.6749L95.7983 53.4584L98.5147 49.6828Z" fill="#43B649"/>
<path d="M2.47363 49.6828L2.49072 47.6612L4.99069 48.6749L5.19001 53.4584L2.47363 49.6828Z" fill="#43B649"/>
<path d="M55.326 3.19132L97.3757 45.241C97.7375 45.6013 98.0245 46.0295 98.2204 46.501C98.4162 46.9726 98.517 47.4781 98.517 47.9887C98.517 48.4993 98.4162 49.0048 98.2204 49.4764C98.0245 49.9479 97.7375 50.3761 97.3757 50.7364L55.326 92.7918C54.6911 93.4288 53.9367 93.9343 53.1061 94.2792C52.2755 94.6242 51.3849 94.8017 50.4855 94.8017C49.5861 94.8017 48.6955 94.6242 47.8649 94.2792C47.0342 93.9343 46.2799 93.4288 45.645 92.7918L3.60668 50.7364C3.24492 50.3761 2.95788 49.9479 2.76202 49.4764C2.56616 49.0048 2.46533 48.4993 2.46533 47.9887C2.46533 47.4781 2.56616 46.9726 2.76202 46.501C2.95788 46.0295 3.24492 45.6013 3.60668 45.241L45.6564 3.19132C46.291 2.55595 47.0447 2.05191 47.8743 1.70801C48.7039 1.36411 49.5931 1.1871 50.4912 1.1871C51.3892 1.1871 52.2785 1.36411 53.1081 1.70801C53.9377 2.05191 54.6913 2.55595 55.326 3.19132Z" fill="#3EE028"/>
<path d="M98.5147 62.7807L98.4976 61.0495L95.9977 62.9288L95.7983 66.4709L98.5147 62.7807Z" fill="#D37B1C"/>
<path d="M2.47363 62.7807L2.49072 61.0495L4.99069 62.9287L5.19001 66.4708L2.47363 62.7807Z" fill="#D37B1C"/>
<path d="M45.6591 107.56L3.60761 65.5083C2.87926 64.78 2.47007 63.7921 2.47008 62.7621C2.47007 61.732 2.87925 60.7441 3.60761 60.0158L45.6591 17.9643C46.9406 16.6828 48.6788 15.9628 50.4912 15.9628C52.3036 15.9628 54.0418 16.6828 55.3233 17.9643L97.3748 60.0158C98.1032 60.7442 98.5123 61.732 98.5124 62.762C98.5123 63.7921 98.1032 64.78 97.3748 65.5083L55.3233 107.56C54.0418 108.841 52.3036 109.561 50.4912 109.561C48.6788 109.561 46.9407 108.841 45.6591 107.56Z" fill="#D37B1C"/>
<path d="M45.6562 105.946L3.60466 63.894C2.87631 63.1657 2.46713 62.1778 2.46713 61.1478C2.46713 60.1177 2.87631 59.1299 3.60466 58.4015L45.6602 16.346C46.9417 15.0644 48.6799 14.3445 50.4923 14.3445C52.3047 14.3445 54.0429 15.0644 55.3244 16.346L97.3759 58.3975C98.1043 59.1258 98.5135 60.1137 98.5135 61.1437C98.5135 62.1738 98.1043 63.1616 97.3759 63.89L55.3244 105.941C54.6901 106.577 53.9367 107.081 53.1073 107.425C52.278 107.769 51.389 107.947 50.4911 107.947C49.5932 107.947 48.7041 107.771 47.8745 107.427C47.0449 107.084 46.2911 106.58 45.6562 105.946Z" fill="#F7931A"/>
<path d="M69.3408 54.7341C70.178 49.1305 65.924 46.118 60.0812 44.1077L61.9719 36.5167L57.3535 35.3778L55.5141 42.7809C54.3011 42.4791 53.0483 42.2114 51.8125 41.9096L53.669 34.4723L49.0506 33.3334L47.16 40.8845C46.152 40.6511 45.1668 40.429 44.2101 40.1898L37.8491 38.5725L36.6191 43.5098C36.6191 43.5098 40.0359 44.2957 39.9733 44.3412C40.613 44.4171 41.1973 44.7415 41.6 45.2443C42.0028 45.7472 42.1916 46.3882 42.1259 47.0291L39.9619 55.6737C40.1249 55.7129 40.2849 55.7643 40.4402 55.8274L39.9505 55.7079L36.9266 67.8091C36.7867 68.2299 36.4887 68.5799 36.0955 68.785C35.7023 68.9901 35.2447 69.0343 34.8196 68.9082C34.8651 68.9765 31.4654 68.0711 31.4654 68.0711L29.1875 73.3557L35.1726 74.8534L38.4585 75.7076L36.5507 83.3784L41.1635 84.5173L43.0541 76.9263C44.3183 77.268 45.537 77.5869 46.7386 77.883L44.8707 85.4456L49.4891 86.5845L51.4025 78.9195C59.2783 80.4342 65.1837 79.8648 67.6951 72.7122C69.7053 66.9777 67.5926 63.669 63.4468 61.5108C66.465 60.816 68.7429 58.8342 69.3465 54.7284L69.3408 54.7341ZM58.7886 69.5403C57.3649 75.2805 47.7067 72.1712 44.5518 71.4025L47.0859 61.2317C50.2408 62.0005 60.2806 63.5495 58.7886 69.5289V69.5403ZM60.2179 54.66C58.9195 59.8764 50.8786 57.2283 48.2591 56.5791L50.5369 47.3537C53.1793 47.9745 61.579 49.2045 60.2179 54.6486V54.66Z" fill="white"/>
</svg>
