<svg width="113" height="113" viewBox="0 0 113 113" fill="none" xmlns="http://www.w3.org/2000/svg">
<g clip-path="url(#clip0_269_40870)">
<path d="M52.0048 108.685L9.95331 66.6338C9.22496 65.9054 8.81578 64.9176 8.81577 63.8875C8.81578 62.8575 9.22496 61.8696 9.95331 61.1413L52.0088 19.0858C53.2904 17.8042 55.0285 17.0842 56.8409 17.0842C58.6533 17.0842 60.3915 17.8042 61.6731 19.0858L103.725 61.1373C104.452 61.8649 104.861 62.8516 104.862 63.8807C104.863 64.9097 104.455 65.897 103.729 66.6257L61.6731 108.681C60.3915 109.963 58.6533 110.683 56.8409 110.683C55.0285 110.683 53.2904 109.963 52.0088 108.681L52.0048 108.685Z" fill="#BC3C35"/>
<path d="M104.862 63.8832L104.845 61.8616L102.345 62.8695L102.146 67.6531L104.862 63.8832Z" fill="#BC3C35"/>
<path d="M104.862 50.7569L104.845 49.02L102.345 50.8993L102.146 54.4471L104.862 50.7569Z" fill="#444966"/>
<path d="M8.8208 63.8832L8.83789 61.8616L11.3379 62.8695L11.5372 67.6531L8.8208 63.8832Z" fill="#BC3C35"/>
<path d="M8.8208 50.7569L8.83789 49.02L11.3379 50.8993L11.5372 54.4471L8.8208 50.7569Z" fill="#444966"/>
<path d="M52.0107 106.988L9.95916 64.9368C9.23081 64.2085 8.82162 63.2206 8.82163 62.1906C8.82162 61.1605 9.23081 60.1727 9.95916 59.4443L52.0107 17.3928C53.2922 16.1112 55.0304 15.3913 56.8428 15.3913C58.6552 15.3913 60.3933 16.1112 61.6749 17.3928L103.726 59.4443C104.087 59.8053 104.374 60.2339 104.569 60.7056C104.764 61.1773 104.864 61.6829 104.864 62.1934C104.864 62.7039 104.763 63.2093 104.567 63.6808C104.371 64.1522 104.084 64.5804 103.722 64.9408L61.6749 106.988C60.3933 108.27 58.6552 108.99 56.8428 108.99C55.0304 108.99 53.2922 108.27 52.0107 106.988Z" fill="#DD463A"/>
<path d="M52.0063 95.5346L9.95477 53.4831C9.22642 52.7547 8.81724 51.7669 8.81723 50.7368C8.81724 49.7068 9.22642 48.7189 9.95477 47.9906L52.0063 5.93909C53.2878 4.65753 55.026 3.93756 56.8384 3.93756C58.6508 3.93756 60.3889 4.65753 61.6705 5.93909L103.722 47.9906C104.45 48.7189 104.86 49.7068 104.86 50.7368C104.86 51.7669 104.45 52.7547 103.722 53.4831L61.6705 95.5346C60.3889 96.8161 58.6508 97.5361 56.8384 97.5361C55.026 97.5361 53.2878 96.8161 52.0063 95.5346Z" fill="#444966"/>
<path d="M52.0077 93.9105L9.95617 51.859C9.22782 51.1306 8.81863 50.1428 8.81863 49.1127C8.81863 48.0827 9.22782 47.0948 9.95617 46.3665L52.0077 4.31499C53.2892 3.03343 55.0274 2.31345 56.8398 2.31345C58.6522 2.31345 60.3903 3.03343 61.6719 4.31498L103.723 46.3665C104.086 46.7288 104.373 47.1593 104.568 47.6331C104.763 48.1068 104.863 48.6146 104.861 49.127C104.859 49.6394 104.756 50.1464 104.557 50.6188C104.358 51.0911 104.068 51.5194 103.703 51.8791L61.6719 93.9105C60.3903 95.192 58.6522 95.912 56.8398 95.912C55.0274 95.912 53.2892 95.192 52.0077 93.9105Z" fill="#5F668B"/>
<path d="M46.9471 67.1975C41.9073 60.0677 37.7957 54.2136 37.8356 54.1908C37.8754 54.168 42.0041 56.5655 47.0496 59.521L56.2295 64.8968V72.5277C56.2295 76.7247 56.2295 80.1586 56.1839 80.1586C56.1383 80.1586 51.9926 74.3045 46.9471 67.1975ZM57.4253 72.5619V64.8854L66.628 59.5096C71.6792 56.5541 75.8306 54.1509 75.8534 54.1737C75.8762 54.1965 57.8183 79.7999 57.5791 80.0561C57.4823 80.1529 57.4481 78.0858 57.4481 72.5391L57.4253 72.5619ZM46.9129 55.5404C41.8389 52.5678 37.6704 50.1134 37.6533 50.045C37.6362 49.9767 56.0814 41.839 56.1611 41.9187C56.2408 41.9984 56.1953 46.2353 56.1611 51.4573L56.144 60.9333L46.9129 55.5404ZM57.4197 51.4289C57.4197 46.1783 57.4538 41.8845 57.4937 41.8845C57.5335 41.8845 75.9331 49.9141 76.0243 50.0052C76.1154 50.0963 62.0722 58.3308 58.1372 60.5689L57.4197 60.9732V51.4289ZM66.5312 44.4585L57.4538 40.4722V29.2651C57.4538 23.0863 57.4994 18.0864 57.5506 18.149C57.7898 18.4167 75.7737 48.4448 75.694 48.4391C75.6142 48.4334 71.5197 46.6453 66.5312 44.4528V44.4585ZM38.2342 48.2626C38.2342 48.1943 56.0472 18.2117 56.1668 18.0807C56.1668 18.0522 56.2124 23.0806 56.2067 29.2537V40.4893L47.3343 44.3788C37.323 48.758 38.2228 48.3651 38.2228 48.2683L38.2342 48.2626Z" fill="white"/>
</g>
<defs>
<clipPath id="clip0_269_40870">
<rect width="113" height="113" fill="white"/>
</clipPath>
</defs>
</svg>
