<svg width="100" height="113" viewBox="0 0 100 113" fill="none" xmlns="http://www.w3.org/2000/svg">
<path d="M45.0048 108.685L2.95331 66.6338C2.22496 65.9054 1.81577 64.9176 1.81577 63.8875C1.81577 62.8575 2.22496 61.8696 2.95331 61.1413L45.0088 19.0858C46.2904 17.8042 48.0285 17.0842 49.8409 17.0842C51.6533 17.0842 53.3915 17.8042 54.6731 19.0858L96.7245 61.1373C97.4522 61.8649 97.8613 62.8516 97.8621 63.8807C97.8628 64.9097 97.4552 65.897 96.7286 66.6257L54.6731 108.681C53.3915 109.963 51.6533 110.683 49.8409 110.683C48.0285 110.683 46.2904 109.963 45.0088 108.681L45.0048 108.685Z" fill="#BC3C35"/>
<path d="M97.8619 63.8832L97.8448 61.8616L95.3448 62.8695L95.1455 67.6531L97.8619 63.8832Z" fill="#BC3C35"/>
<path d="M97.8619 50.7569L97.8448 49.02L95.3448 50.8993L95.1455 54.4471L97.8619 50.7569Z" fill="#444966"/>
<path d="M1.8208 63.8832L1.83789 61.8616L4.33786 62.8695L4.53718 67.6531L1.8208 63.8832Z" fill="#BC3C35"/>
<path d="M1.8208 50.7569L1.83789 49.02L4.33786 50.8993L4.53718 54.4471L1.8208 50.7569Z" fill="#444966"/>
<path d="M45.0107 106.988L2.95916 64.9368C2.23081 64.2085 1.82162 63.2206 1.82162 62.1906C1.82162 61.1605 2.23081 60.1727 2.95916 59.4443L45.0107 17.3928C46.2922 16.1112 48.0304 15.3913 49.8428 15.3913C51.6552 15.3913 53.3933 16.1112 54.6749 17.3928L96.7264 59.4443C97.0874 59.8053 97.3736 60.2339 97.5688 60.7056C97.764 61.1773 97.8643 61.6829 97.8639 62.1934C97.8635 62.7039 97.7625 63.2093 97.5666 63.6808C97.3708 64.1522 97.0839 64.5804 96.7224 64.9408L54.6749 106.988C53.3933 108.27 51.6552 108.99 49.8428 108.99C48.0304 108.99 46.2922 108.27 45.0107 106.988V106.988Z" fill="#DD463A"/>
<path d="M45.0063 95.5346L2.95477 53.4831C2.22642 52.7547 1.81723 51.7669 1.81723 50.7368C1.81723 49.7068 2.22642 48.7189 2.95477 47.9906L45.0063 5.93909C46.2878 4.65753 48.026 3.93756 49.8384 3.93756C51.6508 3.93756 53.3889 4.65753 54.6705 5.93909L96.722 47.9906C97.4503 48.7189 97.8595 49.7068 97.8595 50.7368C97.8595 51.7669 97.4503 52.7547 96.722 53.4831L54.6705 95.5346C53.3889 96.8161 51.6508 97.5361 49.8384 97.5361C48.026 97.5361 46.2878 96.8161 45.0063 95.5346V95.5346Z" fill="#444966"/>
<path d="M45.0077 93.9105L2.95617 51.859C2.22782 51.1306 1.81863 50.1428 1.81863 49.1127C1.81863 48.0827 2.22782 47.0948 2.95617 46.3665L45.0076 4.31499C46.2892 3.03343 48.0274 2.31345 49.8398 2.31345C51.6522 2.31345 53.3903 3.03343 54.6719 4.31499L96.7234 46.3665C97.0857 46.7288 97.3728 47.1593 97.568 47.6331C97.7633 48.1068 97.8628 48.6146 97.861 49.127C97.8591 49.6394 97.7558 50.1464 97.5571 50.6188C97.3584 51.0911 97.0682 51.5194 96.7032 51.8791L54.6719 93.9105C53.3903 95.192 51.6522 95.912 49.8398 95.912C48.0274 95.912 46.2892 95.192 45.0077 93.9105V93.9105Z" fill="#5F668B"/>
<path d="M39.9471 67.1975C34.9073 60.0677 30.7957 54.2136 30.8356 54.1908C30.8754 54.168 35.0041 56.5655 40.0496 59.521L49.2295 64.8968V72.5277C49.2295 76.7247 49.2295 80.1586 49.1839 80.1586C49.1383 80.1586 44.9926 74.3045 39.9471 67.1975ZM50.4253 72.5619V64.8854L59.628 59.5096C64.6792 56.5541 68.8306 54.1509 68.8534 54.1737C68.8762 54.1965 50.8183 79.7999 50.5791 80.0561C50.4823 80.1529 50.4481 78.0858 50.4481 72.5391L50.4253 72.5619ZM39.9129 55.5404C34.8389 52.5678 30.6704 50.1134 30.6533 50.045C30.6362 49.9767 49.0814 41.839 49.1611 41.9187C49.2408 41.9984 49.1953 46.2353 49.1611 51.4573L49.144 60.9333L39.9129 55.5404ZM50.4197 51.4289C50.4197 46.1783 50.4538 41.8845 50.4937 41.8845C50.5335 41.8845 68.9331 49.9141 69.0243 50.0052C69.1154 50.0963 55.0722 58.3308 51.1372 60.5689L50.4197 60.9732V51.4289ZM59.5312 44.4585L50.4538 40.4723V29.2651C50.4538 23.0863 50.4994 18.0864 50.5506 18.149C50.7898 18.4167 68.7737 48.4448 68.694 48.4391C68.6142 48.4334 64.5197 46.6453 59.5312 44.4528V44.4585ZM31.2342 48.2626C31.2342 48.1943 49.0472 18.2117 49.1668 18.0807C49.1668 18.0522 49.2124 23.0806 49.2067 29.2537V40.4893L40.3343 44.3788C30.323 48.758 31.2228 48.3651 31.2228 48.2683L31.2342 48.2626Z" fill="white"/>
</svg>
