<svg width="113" height="113" viewBox="0 0 113 113" fill="none" xmlns="http://www.w3.org/2000/svg">
<g clip-path="url(#clip0_269_40963)">
<path d="M51.7748 95.4869L9.72333 53.4354C8.99851 52.7063 8.59233 51.7195 8.59384 50.6915C8.59535 49.6634 9.00442 48.6779 9.73139 47.9509L51.7829 5.89942C53.0644 4.61787 54.8026 3.8979 56.615 3.8979C58.4274 3.8979 60.1655 4.61787 61.4471 5.89942L103.491 47.9429C104.219 48.6712 104.628 49.6591 104.628 50.6891C104.628 51.7192 104.219 52.707 103.491 53.4354L61.439 95.4869C60.1575 96.7684 58.4193 97.4884 56.6069 97.4884C54.7945 97.4884 53.0564 96.7684 51.7748 95.4869Z" fill="#43B649"/>
<path d="M104.629 50.6829L104.612 48.6613L102.112 49.6749L101.913 54.4585L104.629 50.6829Z" fill="#43B649"/>
<path d="M8.5874 50.6829L8.60449 48.6613L11.1045 49.6749L11.3038 54.4585L8.5874 50.6829Z" fill="#43B649"/>
<path d="M61.4402 4.19123L103.49 46.2409C104.218 46.9701 104.627 47.9583 104.627 48.9886C104.627 50.0189 104.218 51.0071 103.49 51.7363L61.4402 93.7917C60.8054 94.4288 60.051 94.9343 59.2203 95.2792C58.3897 95.6241 57.4991 95.8016 56.5997 95.8016C55.7003 95.8016 54.8098 95.6241 53.9791 95.2792C53.1485 94.9343 52.3941 94.4288 51.7592 93.7917L9.72094 51.7363C9.35918 51.376 9.07214 50.9478 8.87628 50.4763C8.68041 50.0047 8.57959 49.4992 8.57959 48.9886C8.57959 48.478 8.68041 47.9725 8.87628 47.501C9.07214 47.0294 9.35918 46.6012 9.72094 46.2409L51.7706 4.19123C52.4053 3.55586 53.159 3.05182 53.9886 2.70792C54.8182 2.36402 55.7074 2.18701 56.6054 2.18701C57.5035 2.18701 58.3927 2.36402 59.2223 2.70792C60.0519 3.05182 60.8056 3.55586 61.4402 4.19123Z" fill="#3EE028"/>
<path d="M104.629 63.7806L104.612 62.0494L102.112 63.9287L101.913 67.4708L104.629 63.7806Z" fill="#05035A"/>
<path d="M8.5874 63.7806L8.60449 62.0494L11.1045 63.9287L11.3038 67.4708L8.5874 63.7806Z" fill="#05035A"/>
<path d="M51.7724 108.559L9.72087 66.5074C8.99605 65.7783 8.58987 64.7916 8.59138 63.7635C8.59289 62.7354 9.00196 61.7499 9.72893 61.023L51.7804 18.9715C53.062 17.6899 54.8002 16.9699 56.6126 16.9699C58.425 16.9699 60.1631 17.6899 61.4447 18.9715L103.488 61.0149C104.216 61.7433 104.626 62.7311 104.626 63.7611C104.626 64.7912 104.216 65.779 103.488 66.5074L61.4366 108.559C60.1551 109.84 58.4169 110.56 56.6045 110.56C54.7921 110.56 53.0539 109.84 51.7724 108.559Z" fill="#05035A"/>
<path d="M51.7685 106.945L9.71699 64.8933C8.99147 64.1635 8.58524 63.1756 8.5875 62.1465C8.58977 61.1175 9.00034 60.1314 9.72907 59.4048L51.7806 17.3533C53.0621 16.0717 54.8003 15.3518 56.6127 15.3518C58.4251 15.3518 60.1632 16.0717 61.4448 17.3533L103.488 59.3967C104.217 60.1251 104.626 61.1129 104.626 62.143C104.626 63.173 104.217 64.1609 103.488 64.8892L61.4367 106.941C60.1552 108.222 58.417 108.942 56.6046 108.942C54.7922 108.942 53.0541 108.222 51.7725 106.941L51.7685 106.945Z" fill="#0500BD"/>
<path d="M70.1639 84.8618L68.9116 79.1747C68.8405 78.8403 68.6616 78.5899 68.3748 78.4236C68.0648 78.2564 67.7549 78.2332 67.4452 78.3525L67.266 78.4236L66.8363 78.5308C66.6452 78.5779 66.4247 78.632 66.1744 78.6915C65.924 78.7511 65.6324 78.8103 65.298 78.8703C64.9654 78.9299 64.612 78.9839 64.2432 79.0315C63.8738 79.0783 63.475 79.1207 63.0454 79.1567C62.6156 79.1919 62.1869 79.2099 61.7573 79.2099C58.7286 79.2099 56.0038 78.3934 53.5837 76.7599C51.1631 75.1259 49.3805 72.9141 48.236 70.1246H62.0785C62.3414 70.1246 62.5798 70.0354 62.7937 69.8561C63.009 69.6777 63.1402 69.4573 63.1869 69.1941L64.0454 65.1878C64.1173 64.8311 64.0454 64.5087 63.8314 64.2223C63.593 63.9359 63.2942 63.7926 62.937 63.7926H46.5193C46.4478 62.1711 46.4478 60.9192 46.5193 60.0367H63.975C64.6195 60.0367 65.0006 59.727 65.1198 59.107L65.9782 55.0291C66.0493 54.6953 65.9671 54.3856 65.7278 54.0992C65.5139 53.8131 65.2158 53.6694 64.8342 53.6694H48.0933C49.2857 50.9986 51.074 48.9002 53.459 47.3739C55.8437 45.8473 58.5384 45.0844 61.543 45.0844C61.6388 45.0368 61.9902 45.0488 62.5978 45.1203C63.2059 45.1914 63.5523 45.2215 63.6353 45.2095C63.7177 45.1977 64.029 45.2336 64.565 45.3166C65.1017 45.4 65.3702 45.4419 65.3702 45.4419L65.9961 45.5669C66.1754 45.603 66.3125 45.6323 66.4077 45.6565L66.5509 45.6921C66.8606 45.7879 67.146 45.7578 67.4094 45.603C67.6719 45.4475 67.839 45.2153 67.9107 44.9054L69.4489 39.218C69.5201 38.9079 69.484 38.6217 69.3418 38.3595C69.1269 38.0728 68.8881 37.8941 68.6258 37.8228C66.4321 37.2744 64.1181 37 61.6863 37C56.3439 37 51.5692 38.5266 47.36 41.5786C43.151 44.6309 40.2475 48.6614 38.6497 53.669H35.1445C34.8105 53.669 34.5365 53.7761 34.3217 53.9907C34.1076 54.2051 34 54.4795 34 54.8135V58.8913C34 59.2251 34.1072 59.4995 34.3217 59.7136C34.5366 59.9285 34.811 60.0353 35.1445 60.0353H37.5412C37.4692 61.1803 37.4578 62.4316 37.5052 63.7916H35.1445C34.8345 63.7916 34.5663 63.9047 34.3398 64.1312C34.1134 64.3576 34 64.626 34 64.9356V68.9778C34 69.2883 34.1134 69.5558 34.3398 69.7831C34.5664 70.0096 34.8345 70.1218 35.1445 70.1218H38.5428C40.0451 75.3919 42.8831 79.5835 47.0563 82.6953C51.2298 85.8082 56.1065 87.3636 61.6863 87.3636C62.1398 87.3636 62.5986 87.3525 63.0638 87.3277C63.5299 87.3038 63.9642 87.2677 64.3698 87.2206C64.775 87.1733 65.1746 87.1202 65.5682 87.0602C65.9613 87.0002 66.3193 86.9416 66.6409 86.8809C66.9629 86.8218 67.2669 86.7623 67.5528 86.703C67.8392 86.6426 68.0956 86.5778 68.3225 86.5058C68.5489 86.4351 68.7388 86.381 68.8944 86.3459C69.0496 86.31 69.1748 86.2675 69.2695 86.2208L69.4488 86.1847C69.7113 86.0895 69.914 85.9163 70.0568 85.6655C70.2 85.4166 70.2351 85.1478 70.1639 84.8618Z" fill="white"/>
</g>
<defs>
<clipPath id="clip0_269_40963">
<rect width="113" height="113" fill="white"/>
</clipPath>
</defs>
</svg>
