<svg width="113" height="113" viewBox="0 0 113 113" fill="none" xmlns="http://www.w3.org/2000/svg">
<g clip-path="url(#clip0_269_40976)">
<path d="M51.6619 108.684L9.61846 66.6401C8.89011 65.9117 8.48093 64.9239 8.48093 63.8938C8.48093 62.8638 8.89011 61.8759 9.61846 61.1476L51.674 19.0921C52.9555 17.8105 54.6937 17.0905 56.5061 17.0905C58.3185 17.0905 60.0566 17.8105 61.3382 19.0921L103.382 61.1355C103.743 61.4956 104.03 61.9233 104.225 62.3943C104.421 62.8652 104.522 63.3701 104.523 63.8801C104.524 64.3901 104.424 64.8953 104.23 65.3668C104.035 65.8383 103.75 66.2668 103.39 66.628L61.3342 108.684C60.0526 109.965 58.3145 110.685 56.5021 110.685C54.6897 110.685 52.9515 109.965 51.67 108.684L51.6619 108.684Z" fill="#BC3C35"/>
<path d="M104.521 63.8832L104.509 61.8616L102.009 62.8695L101.804 67.6531L104.521 63.8832Z" fill="#BC3C35"/>
<path d="M104.521 50.7569L104.509 49.02L102.009 50.8993L101.804 54.4471L104.521 50.7569Z" fill="#05035A"/>
<path d="M8.48535 63.8832L8.49674 61.8616L10.9967 62.8695L11.2017 67.6531L8.48535 63.8832Z" fill="#BC3C35"/>
<path d="M8.48535 50.7569L8.49674 49.02L10.9967 50.8993L11.2017 54.4471L8.48535 50.7569Z" fill="#05035A"/>
<path d="M51.6673 106.987L9.62385 64.9432C8.8955 64.2148 8.48631 63.2269 8.48631 62.1969C8.48631 61.1668 8.8955 60.179 9.62385 59.4506L51.6753 17.3991C52.9569 16.1176 54.695 15.3976 56.5074 15.3976C58.3198 15.3976 60.058 16.1176 61.3396 17.3991L103.383 59.4426C103.745 59.8034 104.032 60.232 104.228 60.704C104.424 61.1759 104.525 61.6819 104.525 62.1929C104.525 62.7039 104.424 63.2098 104.228 63.6818C104.032 64.1537 103.745 64.5824 103.383 64.9431L61.3355 106.991C60.054 108.272 58.3158 108.992 56.5034 108.992C54.691 108.992 52.9529 108.272 51.6713 106.991L51.6673 106.987Z" fill="#DD463A"/>
<path d="M51.6635 95.5271L9.62005 53.4837C8.8917 52.7554 8.48252 51.7675 8.48252 50.7375C8.48252 49.7074 8.8917 48.7196 9.62005 47.9912L51.6715 5.93971C52.9531 4.65815 54.6913 3.93819 56.5037 3.93819C58.3161 3.93819 60.0542 4.65815 61.3358 5.93971L103.379 47.9831C104.108 48.7115 104.517 49.6994 104.517 50.7294C104.517 51.7594 104.108 52.7473 103.379 53.4756L61.3277 95.5271C60.0462 96.8087 58.308 97.5287 56.4956 97.5287C54.6832 97.5287 52.945 96.8087 51.6635 95.5271Z" fill="#05035A"/>
<path d="M51.6643 93.9088L9.62085 51.8653C8.8925 51.137 8.48331 50.1491 8.48332 49.1191C8.48331 48.089 8.89249 47.1012 9.62085 46.3728L51.6723 4.32134C52.9539 3.03978 54.6921 2.3198 56.5044 2.31981C58.3168 2.31981 60.055 3.03978 61.3366 4.32134L103.38 46.3648C103.743 46.7269 104.031 47.1574 104.227 47.6314C104.423 48.1054 104.523 48.6136 104.522 49.1265C104.52 49.6394 104.417 50.1469 104.218 50.6198C104.02 51.0926 103.729 51.5214 103.364 51.8814L61.3325 93.9128C60.051 95.1944 58.3128 95.9143 56.5004 95.9143C54.688 95.9143 52.9499 95.1944 51.6683 93.9128L51.6643 93.9088Z" fill="#0500BD"/>
<path d="M69.1639 71.8618L67.9116 66.1747C67.8405 65.8403 67.6616 65.5899 67.3748 65.4236C67.0648 65.2564 66.7549 65.2332 66.4452 65.3525L66.266 65.4236L65.8363 65.5308C65.6452 65.5779 65.4247 65.632 65.1744 65.6915C64.924 65.7511 64.6324 65.8103 64.298 65.8703C63.9654 65.9299 63.612 65.9839 63.2432 66.0315C62.8738 66.0783 62.475 66.1207 62.0454 66.1567C61.6156 66.1919 61.1869 66.2099 60.7573 66.2099C57.7286 66.2099 55.0038 65.3934 52.5837 63.7599C50.1631 62.1259 48.3805 59.9141 47.236 57.1246H61.0785C61.3414 57.1246 61.5798 57.0354 61.7937 56.8561C62.009 56.6777 62.1402 56.4573 62.1869 56.1941L63.0454 52.1878C63.1173 51.8311 63.0454 51.5087 62.8314 51.2223C62.593 50.9359 62.2942 50.7926 61.937 50.7926H45.5193C45.4478 49.1711 45.4478 47.9192 45.5193 47.0367H62.975C63.6195 47.0367 64.0006 46.727 64.1198 46.107L64.9782 42.0291C65.0493 41.6953 64.9671 41.3856 64.7278 41.0992C64.5139 40.8131 64.2158 40.6694 63.8342 40.6694H47.0933C48.2857 37.9986 50.074 35.9002 52.459 34.3739C54.8437 32.8473 57.5384 32.0844 60.543 32.0844C60.6388 32.0368 60.9902 32.0488 61.5978 32.1203C62.2059 32.1914 62.5523 32.2215 62.6353 32.2095C62.7177 32.1977 63.029 32.2336 63.565 32.3166C64.1017 32.4 64.3702 32.4419 64.3702 32.4419L64.9961 32.5669C65.1754 32.603 65.3125 32.6323 65.4077 32.6565L65.5509 32.6921C65.8606 32.7879 66.146 32.7578 66.4094 32.603C66.6719 32.4475 66.839 32.2153 66.9107 31.9054L68.4489 26.218C68.5201 25.9079 68.484 25.6217 68.3418 25.3595C68.1269 25.0728 67.8881 24.8941 67.6258 24.8228C65.4321 24.2744 63.1181 24 60.6863 24C55.3439 24 50.5692 25.5266 46.36 28.5786C42.151 31.6309 39.2475 35.6614 37.6497 40.669H34.1445C33.8105 40.669 33.5365 40.7761 33.3217 40.9907C33.1076 41.2051 33 41.4795 33 41.8135V45.8913C33 46.2251 33.1072 46.4995 33.3217 46.7136C33.5366 46.9285 33.811 47.0353 34.1445 47.0353H36.5412C36.4692 48.1803 36.4578 49.4316 36.5052 50.7916H34.1445C33.8345 50.7916 33.5663 50.9047 33.3398 51.1312C33.1134 51.3576 33 51.626 33 51.9356V55.9778C33 56.2883 33.1134 56.5558 33.3398 56.7831C33.5664 57.0096 33.8345 57.1218 34.1445 57.1218H37.5428C39.0451 62.3919 41.8831 66.5835 46.0563 69.6953C50.2298 72.8082 55.1065 74.3636 60.6863 74.3636C61.1398 74.3636 61.5986 74.3525 62.0638 74.3277C62.5299 74.3038 62.9642 74.2677 63.3698 74.2206C63.775 74.1733 64.1746 74.1202 64.5682 74.0602C64.9613 74.0002 65.3193 73.9416 65.6409 73.8809C65.9629 73.8218 66.2669 73.7623 66.5528 73.703C66.8392 73.6426 67.0956 73.5778 67.3225 73.5058C67.5489 73.4351 67.7388 73.381 67.8944 73.3459C68.0496 73.31 68.1748 73.2675 68.2695 73.2208L68.4488 73.1847C68.7113 73.0895 68.914 72.9163 69.0568 72.6655C69.2 72.4166 69.2351 72.1478 69.1639 71.8618Z" fill="white"/>
</g>
<defs>
<clipPath id="clip0_269_40976">
<rect width="113" height="113" fill="white"/>
</clipPath>
</defs>
</svg>
