<svg width="101" height="112" viewBox="0 0 101 112" fill="none" xmlns="http://www.w3.org/2000/svg">
<path d="M45.7748 94.4869L3.72333 52.4354C2.99851 51.7063 2.59233 50.7195 2.59384 49.6915C2.59535 48.6634 3.00442 47.6779 3.73139 46.9509L45.7829 4.89942C47.0644 3.61787 48.8026 2.8979 50.615 2.8979C52.4274 2.8979 54.1655 3.61787 55.4471 4.89942L97.4905 46.9429C98.2189 47.6712 98.6281 48.6591 98.6281 49.6891C98.6281 50.7192 98.2189 51.707 97.4905 52.4354L55.439 94.4869C54.1575 95.7684 52.4193 96.4884 50.6069 96.4884C48.7945 96.4884 47.0564 95.7684 45.7748 94.4869Z" fill="#43B649"/>
<path d="M98.629 49.6829L98.6119 47.6613L96.1119 48.6749L95.9126 53.4585L98.629 49.6829Z" fill="#43B649"/>
<path d="M2.5874 49.6829L2.60449 47.6613L5.10446 48.6749L5.30377 53.4585L2.5874 49.6829Z" fill="#43B649"/>
<path d="M55.4402 3.19123L97.4899 45.2409C98.2178 45.9701 98.6266 46.9583 98.6266 47.9886C98.6266 49.0189 98.2178 50.0071 97.4899 50.7363L55.4402 92.7917C54.8054 93.4288 54.051 93.9343 53.2203 94.2792C52.3897 94.6241 51.4991 94.8016 50.5997 94.8016C49.7003 94.8016 48.8098 94.6241 47.9791 94.2792C47.1485 93.9343 46.3941 93.4288 45.7592 92.7917L3.72094 50.7363C3.35918 50.376 3.07214 49.9478 2.87628 49.4763C2.68041 49.0047 2.57959 48.4992 2.57959 47.9886C2.57959 47.478 2.68041 46.9725 2.87628 46.501C3.07214 46.0294 3.35918 45.6012 3.72094 45.2409L45.7706 3.19123C46.4053 2.55586 47.159 2.05182 47.9886 1.70792C48.8182 1.36402 49.7074 1.18701 50.6054 1.18701C51.5035 1.18701 52.3927 1.36402 53.2223 1.70792C54.0519 2.05182 54.8056 2.55586 55.4402 3.19123Z" fill="#3EE028"/>
<path d="M98.629 62.7806L98.6119 61.0494L96.1119 62.9287L95.9126 66.4708L98.629 62.7806Z" fill="#05035A"/>
<path d="M2.5874 62.7806L2.60449 61.0494L5.10446 62.9287L5.30377 66.4708L2.5874 62.7806Z" fill="#05035A"/>
<path d="M45.7724 107.559L3.72087 65.5074C2.99605 64.7783 2.58987 63.7916 2.59138 62.7635C2.59289 61.7354 3.00196 60.7499 3.72893 60.023L45.7804 17.9715C47.062 16.6899 48.8002 15.9699 50.6126 15.9699C52.425 15.9699 54.1631 16.6899 55.4447 17.9715L97.4881 60.0149C98.2165 60.7433 98.6257 61.7311 98.6257 62.7611C98.6257 63.7912 98.2165 64.779 97.4881 65.5074L55.4366 107.559C54.1551 108.84 52.4169 109.56 50.6045 109.56C48.7921 109.56 47.0539 108.84 45.7724 107.559Z" fill="#05035A"/>
<path d="M45.7685 105.945L3.71699 63.8933C2.99147 63.1635 2.58524 62.1756 2.5875 61.1465C2.58977 60.1175 3.00034 59.1314 3.72907 58.4048L45.7806 16.3533C47.0621 15.0717 48.8003 14.3518 50.6127 14.3518C52.4251 14.3518 54.1632 15.0717 55.4448 16.3533L97.4882 58.3967C98.2166 59.1251 98.6257 60.1129 98.6258 61.143C98.6257 62.173 98.2166 63.1609 97.4882 63.8892L55.4367 105.941C54.1552 107.222 52.417 107.942 50.6046 107.942C48.7922 107.942 47.0541 107.222 45.7725 105.941L45.7685 105.945Z" fill="#0500BD"/>
<path d="M64.1639 83.8618L62.9116 78.1747C62.8405 77.8403 62.6616 77.5899 62.3748 77.4236C62.0648 77.2564 61.7549 77.2332 61.4452 77.3525L61.266 77.4236L60.8363 77.5308C60.6452 77.5779 60.4247 77.632 60.1744 77.6915C59.924 77.7511 59.6324 77.8103 59.298 77.8703C58.9654 77.9299 58.612 77.9839 58.2432 78.0315C57.8738 78.0783 57.475 78.1207 57.0454 78.1567C56.6156 78.1919 56.1869 78.2099 55.7573 78.2099C52.7286 78.2099 50.0038 77.3934 47.5837 75.7599C45.1631 74.1259 43.3805 71.9141 42.236 69.1246H56.0785C56.3414 69.1246 56.5798 69.0354 56.7937 68.8561C57.009 68.6777 57.1402 68.4573 57.1869 68.1941L58.0454 64.1878C58.1173 63.8311 58.0454 63.5087 57.8314 63.2223C57.593 62.9359 57.2942 62.7926 56.937 62.7926H40.5193C40.4478 61.1711 40.4478 59.9192 40.5193 59.0367H57.975C58.6195 59.0367 59.0006 58.727 59.1198 58.107L59.9782 54.0291C60.0493 53.6953 59.9671 53.3856 59.7278 53.0992C59.5139 52.8131 59.2158 52.6694 58.8342 52.6694H42.0933C43.2857 49.9986 45.074 47.9002 47.459 46.3739C49.8437 44.8473 52.5384 44.0844 55.543 44.0844C55.6388 44.0368 55.9902 44.0488 56.5978 44.1203C57.2059 44.1914 57.5523 44.2215 57.6353 44.2095C57.7177 44.1977 58.029 44.2336 58.565 44.3166C59.1017 44.4 59.3702 44.4419 59.3702 44.4419L59.9961 44.5669C60.1754 44.603 60.3125 44.6323 60.4077 44.6565L60.5509 44.6921C60.8606 44.7879 61.146 44.7578 61.4094 44.603C61.6719 44.4475 61.839 44.2153 61.9107 43.9054L63.4489 38.218C63.5201 37.9079 63.484 37.6217 63.3418 37.3595C63.1269 37.0728 62.8881 36.8941 62.6258 36.8228C60.4321 36.2744 58.1181 36 55.6863 36C50.3439 36 45.5692 37.5266 41.36 40.5786C37.151 43.6309 34.2475 47.6614 32.6497 52.669H29.1445C28.8105 52.669 28.5365 52.7761 28.3217 52.9907C28.1076 53.2051 28 53.4795 28 53.8135V57.8913C28 58.2251 28.1072 58.4995 28.3217 58.7136C28.5366 58.9285 28.811 59.0353 29.1445 59.0353H31.5412C31.4692 60.1803 31.4578 61.4316 31.5052 62.7916H29.1445C28.8345 62.7916 28.5663 62.9047 28.3398 63.1312C28.1134 63.3576 28 63.626 28 63.9356V67.9778C28 68.2883 28.1134 68.5558 28.3398 68.7831C28.5664 69.0096 28.8345 69.1218 29.1445 69.1218H32.5428C34.0451 74.3919 36.8831 78.5835 41.0563 81.6953C45.2298 84.8082 50.1065 86.3636 55.6863 86.3636C56.1398 86.3636 56.5986 86.3525 57.0638 86.3277C57.5299 86.3038 57.9642 86.2677 58.3698 86.2206C58.775 86.1733 59.1746 86.1202 59.5682 86.0602C59.9613 86.0002 60.3193 85.9416 60.6409 85.8809C60.9629 85.8218 61.2669 85.7623 61.5528 85.703C61.8392 85.6426 62.0956 85.5778 62.3225 85.5058C62.5489 85.4351 62.7388 85.381 62.8944 85.3459C63.0496 85.31 63.1748 85.2675 63.2695 85.2208L63.4488 85.1847C63.7113 85.0895 63.914 84.9163 64.0568 84.6655C64.2 84.4166 64.2351 84.1478 64.1639 83.8618Z" fill="white"/>
</svg>
