<svg width="101" height="113" viewBox="0 0 101 113" fill="none" xmlns="http://www.w3.org/2000/svg">
<path d="M45.6619 108.684L3.61846 66.6401C2.89011 65.9117 2.48093 64.9239 2.48093 63.8938C2.48093 62.8638 2.89011 61.8759 3.61846 61.1476L45.674 19.0921C46.9555 17.8105 48.6937 17.0905 50.5061 17.0905C52.3185 17.0905 54.0566 17.8105 55.3382 19.0921L97.3817 61.1355C97.7428 61.4956 98.0295 61.9233 98.2254 62.3943C98.4213 62.8652 98.5225 63.3701 98.5232 63.8801C98.524 64.3901 98.4243 64.8953 98.2298 65.3668C98.0353 65.8383 97.7498 66.2668 97.3897 66.628L55.3342 108.684C54.0526 109.965 52.3145 110.685 50.5021 110.685C48.6897 110.685 46.9515 109.965 45.67 108.684L45.6619 108.684Z" fill="#BC3C35"/>
<path d="M98.5206 63.8832L98.5092 61.8616L96.0092 62.8695L95.8042 67.6531L98.5206 63.8832Z" fill="#BC3C35"/>
<path d="M98.5206 50.7569L98.5092 49.02L96.0092 50.8993L95.8042 54.4471L98.5206 50.7569Z" fill="#05035A"/>
<path d="M2.48535 63.8832L2.49674 61.8616L4.99672 62.8695L5.20173 67.6531L2.48535 63.8832Z" fill="#BC3C35"/>
<path d="M2.48535 50.7569L2.49674 49.02L4.99672 50.8993L5.20173 54.4471L2.48535 50.7569Z" fill="#05035A"/>
<path d="M45.6673 106.987L3.62385 64.9432C2.8955 64.2148 2.48631 63.2269 2.48631 62.1969C2.48631 61.1668 2.8955 60.179 3.62385 59.4506L45.6753 17.3991C46.9569 16.1176 48.695 15.3976 50.5074 15.3976C52.3198 15.3976 54.058 16.1176 55.3396 17.3991L97.383 59.4426C97.7448 59.8034 98.0319 60.232 98.2278 60.704C98.4237 61.1759 98.5245 61.6819 98.5245 62.1929C98.5245 62.7039 98.4237 63.2098 98.2278 63.6818C98.0319 64.1537 97.7448 64.5824 97.383 64.9431L55.3355 106.991C54.054 108.272 52.3158 108.992 50.5034 108.992C48.691 108.992 46.9529 108.272 45.6713 106.991L45.6673 106.987Z" fill="#DD463A"/>
<path d="M45.6635 95.5271L3.62005 53.4837C2.8917 52.7554 2.48252 51.7675 2.48252 50.7375C2.48252 49.7074 2.8917 48.7196 3.62005 47.9912L45.6715 5.93971C46.9531 4.65815 48.6913 3.93819 50.5037 3.93819C52.3161 3.93819 54.0542 4.65815 55.3358 5.93971L97.3792 47.9831C98.1076 48.7115 98.5168 49.6994 98.5168 50.7294C98.5168 51.7594 98.1076 52.7473 97.3792 53.4756L55.3277 95.5271C54.0462 96.8087 52.308 97.5287 50.4956 97.5287C48.6832 97.5287 46.945 96.8087 45.6635 95.5271Z" fill="#05035A"/>
<path d="M45.6643 93.9088L3.62085 51.8653C2.8925 51.137 2.48331 50.1491 2.48332 49.1191C2.48331 48.089 2.89249 47.1012 3.62085 46.3728L45.6723 4.32134C46.9539 3.03978 48.6921 2.3198 50.5044 2.31981C52.3168 2.31981 54.055 3.03978 55.3366 4.32134L97.38 46.3648C97.7432 46.7269 98.0311 47.1574 98.227 47.6314C98.423 48.1054 98.5231 48.6136 98.5216 49.1265C98.5201 49.6394 98.417 50.1469 98.2183 50.6198C98.0196 51.0926 97.7292 51.5214 97.3639 51.8814L55.3325 93.9128C54.051 95.1944 52.3128 95.9143 50.5004 95.9143C48.688 95.9143 46.9499 95.1944 45.6683 93.9128L45.6643 93.9088Z" fill="#0500BD"/>
<path d="M63.1639 71.8618L61.9116 66.1747C61.8405 65.8403 61.6616 65.5899 61.3748 65.4236C61.0648 65.2564 60.7549 65.2332 60.4452 65.3525L60.266 65.4236L59.8363 65.5308C59.6452 65.5779 59.4247 65.632 59.1744 65.6915C58.924 65.7511 58.6324 65.8103 58.298 65.8703C57.9654 65.9299 57.612 65.9839 57.2432 66.0315C56.8738 66.0783 56.475 66.1207 56.0454 66.1567C55.6156 66.1919 55.1869 66.2099 54.7573 66.2099C51.7286 66.2099 49.0038 65.3934 46.5837 63.7599C44.1631 62.1259 42.3805 59.9141 41.236 57.1246H55.0785C55.3414 57.1246 55.5798 57.0354 55.7937 56.8561C56.009 56.6777 56.1402 56.4573 56.1869 56.1941L57.0454 52.1878C57.1173 51.8311 57.0454 51.5087 56.8314 51.2223C56.593 50.9359 56.2942 50.7926 55.937 50.7926H39.5193C39.4478 49.1711 39.4478 47.9192 39.5193 47.0367H56.975C57.6195 47.0367 58.0006 46.727 58.1198 46.107L58.9782 42.0291C59.0493 41.6953 58.9671 41.3856 58.7278 41.0992C58.5139 40.8131 58.2158 40.6694 57.8342 40.6694H41.0933C42.2857 37.9986 44.074 35.9002 46.459 34.3739C48.8437 32.8473 51.5384 32.0844 54.543 32.0844C54.6388 32.0368 54.9902 32.0488 55.5978 32.1203C56.2059 32.1914 56.5523 32.2215 56.6353 32.2095C56.7177 32.1977 57.029 32.2336 57.565 32.3166C58.1017 32.4 58.3702 32.4419 58.3702 32.4419L58.9961 32.5669C59.1754 32.603 59.3125 32.6323 59.4077 32.6565L59.5509 32.6921C59.8606 32.7879 60.146 32.7578 60.4094 32.603C60.6719 32.4475 60.839 32.2153 60.9107 31.9054L62.4489 26.218C62.5201 25.9079 62.484 25.6217 62.3418 25.3595C62.1269 25.0728 61.8881 24.8941 61.6258 24.8228C59.4321 24.2744 57.1181 24 54.6863 24C49.3439 24 44.5692 25.5266 40.36 28.5786C36.151 31.6309 33.2475 35.6614 31.6497 40.669H28.1445C27.8105 40.669 27.5365 40.7761 27.3217 40.9907C27.1076 41.2051 27 41.4795 27 41.8135V45.8913C27 46.2251 27.1072 46.4995 27.3217 46.7136C27.5366 46.9285 27.811 47.0353 28.1445 47.0353H30.5412C30.4692 48.1803 30.4578 49.4316 30.5052 50.7916H28.1445C27.8345 50.7916 27.5663 50.9047 27.3398 51.1312C27.1134 51.3576 27 51.626 27 51.9356V55.9778C27 56.2883 27.1134 56.5558 27.3398 56.7831C27.5664 57.0096 27.8345 57.1218 28.1445 57.1218H31.5428C33.0451 62.3919 35.8831 66.5835 40.0563 69.6953C44.2298 72.8082 49.1065 74.3636 54.6863 74.3636C55.1398 74.3636 55.5986 74.3525 56.0638 74.3277C56.5299 74.3038 56.9642 74.2677 57.3698 74.2206C57.775 74.1733 58.1746 74.1202 58.5682 74.0602C58.9613 74.0002 59.3193 73.9416 59.6409 73.8809C59.9629 73.8218 60.2669 73.7623 60.5528 73.703C60.8392 73.6426 61.0956 73.5778 61.3225 73.5058C61.5489 73.4351 61.7388 73.381 61.8944 73.3459C62.0496 73.31 62.1748 73.2675 62.2695 73.2208L62.4488 73.1847C62.7113 73.0895 62.914 72.9163 63.0568 72.6655C63.2 72.4166 63.2351 72.1478 63.1639 71.8618Z" fill="white"/>
</svg>
