<svg width="113" height="113" viewBox="0 0 113 113" fill="none" xmlns="http://www.w3.org/2000/svg">
<g clip-path="url(#clip0_269_40914)">
<path d="M51.7748 95.4869L9.72333 53.4354C8.99851 52.7063 8.59233 51.7195 8.59384 50.6915C8.59535 49.6634 9.00442 48.6779 9.73139 47.9509L51.7829 5.89942C53.0644 4.61787 54.8026 3.8979 56.615 3.8979C58.4274 3.8979 60.1655 4.61787 61.4471 5.89942L103.491 47.9429C104.219 48.6712 104.628 49.6591 104.628 50.6891C104.628 51.7192 104.219 52.707 103.491 53.4354L61.439 95.4869C60.1575 96.7684 58.4193 97.4884 56.6069 97.4884C54.7945 97.4884 53.0564 96.7684 51.7748 95.4869Z" fill="#43B649"/>
<path d="M104.629 50.6829L104.612 48.6613L102.112 49.675L101.913 54.4585L104.629 50.6829Z" fill="#43B649"/>
<path d="M8.5874 50.6829L8.60449 48.6613L11.1045 49.675L11.3038 54.4585L8.5874 50.6829Z" fill="#43B649"/>
<path d="M61.4402 4.19135L103.49 46.241C104.218 46.9702 104.627 47.9584 104.627 48.9887C104.627 50.019 104.218 51.0072 103.49 51.7364L61.4402 93.7918C60.8054 94.4289 60.051 94.9344 59.2203 95.2793C58.3897 95.6242 57.4991 95.8017 56.5997 95.8017C55.7003 95.8017 54.8098 95.6242 53.9791 95.2793C53.1485 94.9344 52.3941 94.4289 51.7592 93.7918L9.72094 51.7364C9.35918 51.3761 9.07214 50.9479 8.87628 50.4764C8.68041 50.0049 8.57959 49.4993 8.57959 48.9887C8.57959 48.4782 8.68041 47.9726 8.87628 47.5011C9.07214 47.0296 9.35918 46.6014 9.72094 46.241L51.7706 4.19135C52.4053 3.55598 53.159 3.05194 53.9886 2.70804C54.8182 2.36414 55.7074 2.18713 56.6054 2.18713C57.5035 2.18713 58.3927 2.36414 59.2223 2.70804C60.0519 3.05194 60.8056 3.55598 61.4402 4.19135Z" fill="#3EE028"/>
<path d="M104.629 63.7808L104.612 62.0496L102.112 63.9288L101.913 67.4709L104.629 63.7808Z" fill="#003974"/>
<path d="M8.5874 63.7808L8.60449 62.0496L11.1045 63.9288L11.3038 67.4709L8.5874 63.7808Z" fill="#003974"/>
<path d="M51.7724 108.559L9.72087 66.5075C8.99605 65.7784 8.58987 64.7916 8.59138 63.7636C8.59289 62.7355 9.00196 61.75 9.72893 61.023L51.7804 18.9715C53.062 17.69 54.8002 16.97 56.6126 16.97C58.425 16.97 60.1631 17.69 61.4447 18.9715L103.488 61.015C104.216 61.7433 104.626 62.7312 104.626 63.7612C104.626 64.7913 104.216 65.7791 103.488 66.5075L61.4366 108.559C60.1551 109.84 58.4169 110.56 56.6045 110.56C54.7921 110.56 53.0539 109.84 51.7724 108.559Z" fill="#003974"/>
<path d="M51.7685 106.945L9.71699 64.8933C8.99147 64.1635 8.58524 63.1756 8.5875 62.1466C8.58977 61.1175 9.00034 60.1314 9.72907 59.4048L51.7806 17.3533C53.0621 16.0718 54.8003 15.3518 56.6127 15.3518C58.4251 15.3518 60.1632 16.0718 61.4448 17.3533L103.488 59.3968C104.217 60.1251 104.626 61.113 104.626 62.143C104.626 63.1731 104.217 64.1609 103.488 64.8893L61.4367 106.941C60.1552 108.222 58.417 108.942 56.6046 108.942C54.7922 108.942 53.0541 108.222 51.7725 106.941L51.7685 106.945Z" fill="#375BD2"/>
<path d="M56.6102 47.0099L69.7081 54.5326V69.6634L56.6102 77.2374L43.5124 69.7317V54.6066L56.6102 47.0099ZM56.6102 35.9109L51.821 38.6842L38.7232 46.2866L33.9111 49.06V75.2955L38.7232 78.0745L51.821 85.5972L56.633 88.3762L61.4393 85.5972L74.5372 78.0175L79.3492 75.2442V48.9745L74.5372 46.2012L61.4393 38.6899L56.6273 35.9166L56.6102 35.9109Z" fill="white"/>
</g>
<defs>
<clipPath id="clip0_269_40914">
<rect width="113" height="113" fill="white"/>
</clipPath>
</defs>
</svg>
