<svg width="113" height="113" viewBox="0 0 113 113" fill="none" xmlns="http://www.w3.org/2000/svg">
<g clip-path="url(#clip0_269_40927)">
<path d="M51.6619 108.684L9.61846 66.6401C8.89011 65.9118 8.48093 64.9239 8.48093 63.8939C8.48093 62.8638 8.89011 61.876 9.61846 61.1476L51.674 19.0921C52.9555 17.8106 54.6937 17.0906 56.5061 17.0906C58.3185 17.0906 60.0566 17.8106 61.3382 19.0921L103.382 61.1356C103.743 61.4957 104.03 61.9234 104.225 62.3943C104.421 62.8652 104.522 63.3701 104.523 63.8801C104.524 64.3902 104.424 64.8953 104.23 65.3668C104.035 65.8383 103.75 66.2669 103.39 66.6281L61.3342 108.684C60.0526 109.965 58.3145 110.685 56.5021 110.685C54.6897 110.685 52.9515 109.965 51.67 108.684L51.6619 108.684Z" fill="#BC3C35"/>
<path d="M104.521 63.8831L104.509 61.8615L102.009 62.8695L101.804 67.653L104.521 63.8831Z" fill="#BC3C35"/>
<path d="M104.521 50.7568L104.509 49.02L102.009 50.8992L101.804 54.447L104.521 50.7568Z" fill="#003974"/>
<path d="M8.48535 63.8831L8.49674 61.8615L10.9967 62.8695L11.2017 67.653L8.48535 63.8831Z" fill="#BC3C35"/>
<path d="M8.48535 50.7568L8.49674 49.02L10.9967 50.8992L11.2017 54.447L8.48535 50.7568Z" fill="#003974"/>
<path d="M51.6673 106.987L9.62385 64.9432C8.8955 64.2148 8.48631 63.2269 8.48631 62.1969C8.48631 61.1668 8.8955 60.179 9.62385 59.4506L51.6753 17.3991C52.9569 16.1176 54.695 15.3976 56.5074 15.3976C58.3198 15.3976 60.058 16.1176 61.3396 17.3991L103.383 59.4426C103.745 59.8034 104.032 60.232 104.228 60.704C104.424 61.1759 104.525 61.6819 104.525 62.1929C104.525 62.7039 104.424 63.2098 104.228 63.6818C104.032 64.1537 103.745 64.5824 103.383 64.9431L61.3355 106.991C60.054 108.272 58.3158 108.992 56.5034 108.992C54.691 108.992 52.9529 108.272 51.6713 106.991L51.6673 106.987Z" fill="#DD463A"/>
<path d="M51.6635 95.5271L9.62005 53.4837C8.8917 52.7554 8.48252 51.7675 8.48252 50.7375C8.48252 49.7074 8.8917 48.7196 9.62005 47.9912L51.6715 5.93971C52.9531 4.65815 54.6913 3.93819 56.5037 3.93819C58.3161 3.93819 60.0542 4.65815 61.3358 5.93971L103.379 47.9831C104.108 48.7115 104.517 49.6994 104.517 50.7294C104.517 51.7594 104.108 52.7473 103.379 53.4756L61.3277 95.5271C60.0462 96.8087 58.308 97.5287 56.4956 97.5287C54.6832 97.5287 52.945 96.8087 51.6635 95.5271Z" fill="#003974"/>
<path d="M51.6643 93.9088L9.62085 51.8653C8.8925 51.137 8.48331 50.1491 8.48332 49.1191C8.48331 48.089 8.89249 47.1012 9.62085 46.3728L51.6723 4.32134C52.9539 3.03978 54.6921 2.3198 56.5044 2.31981C58.3168 2.31981 60.055 3.03978 61.3366 4.32134L103.38 46.3648C103.743 46.7269 104.031 47.1574 104.227 47.6314C104.423 48.1054 104.523 48.6136 104.522 49.1265C104.52 49.6394 104.417 50.1469 104.218 50.6198C104.02 51.0926 103.729 51.5214 103.364 51.8814L61.3325 93.9128C60.051 95.1944 58.3128 95.9143 56.5004 95.9143C54.688 95.9143 52.9499 95.1944 51.6683 93.9128L51.6643 93.9088Z" fill="#375BD2"/>
<path d="M55.6848 34.099L69.0186 41.6217V56.7525L55.6848 64.3265L42.3509 56.8208V41.6957L55.6848 34.099ZM55.6848 23L50.8092 25.7733L37.4754 33.3758L32.5767 36.1491V62.3846L37.4754 65.1636L50.8092 72.6863L55.7079 75.4653L60.6009 72.6863L73.9347 65.1066L78.8334 62.3333V36.0637L73.9347 33.2903L60.6009 25.779L55.7021 23.0057L55.6848 23Z" fill="white"/>
</g>
<defs>
<clipPath id="clip0_269_40927">
<rect width="113" height="113" fill="white"/>
</clipPath>
</defs>
</svg>
