<svg width="101" height="113" viewBox="0 0 101 113" fill="none" xmlns="http://www.w3.org/2000/svg">
<path d="M45.6619 108.684L3.61846 66.6401C2.89011 65.9118 2.48093 64.9239 2.48093 63.8939C2.48093 62.8638 2.89011 61.876 3.61846 61.1476L45.674 19.0921C46.9555 17.8106 48.6937 17.0906 50.5061 17.0906C52.3185 17.0906 54.0566 17.8106 55.3382 19.0921L97.3817 61.1356C97.7428 61.4957 98.0295 61.9234 98.2254 62.3943C98.4213 62.8652 98.5225 63.3701 98.5232 63.8801C98.524 64.3902 98.4243 64.8953 98.2298 65.3668C98.0353 65.8383 97.7498 66.2669 97.3897 66.6281L55.3342 108.684C54.0526 109.965 52.3145 110.685 50.5021 110.685C48.6897 110.685 46.9515 109.965 45.67 108.684L45.6619 108.684Z" fill="#BC3C35"/>
<path d="M98.5206 63.8831L98.5092 61.8615L96.0092 62.8695L95.8042 67.653L98.5206 63.8831Z" fill="#BC3C35"/>
<path d="M98.5206 50.7568L98.5092 49.02L96.0092 50.8992L95.8042 54.447L98.5206 50.7568Z" fill="#003974"/>
<path d="M2.48535 63.8831L2.49674 61.8615L4.99672 62.8695L5.20173 67.653L2.48535 63.8831Z" fill="#BC3C35"/>
<path d="M2.48535 50.7568L2.49674 49.02L4.99672 50.8992L5.20173 54.447L2.48535 50.7568Z" fill="#003974"/>
<path d="M45.6673 106.987L3.62385 64.9432C2.8955 64.2148 2.48631 63.2269 2.48631 62.1969C2.48631 61.1668 2.8955 60.179 3.62385 59.4506L45.6753 17.3991C46.9569 16.1176 48.695 15.3976 50.5074 15.3976C52.3198 15.3976 54.058 16.1176 55.3396 17.3991L97.383 59.4426C97.7448 59.8034 98.0319 60.232 98.2278 60.704C98.4237 61.1759 98.5245 61.6819 98.5245 62.1929C98.5245 62.7039 98.4237 63.2098 98.2278 63.6818C98.0319 64.1537 97.7448 64.5824 97.383 64.9431L55.3355 106.991C54.054 108.272 52.3158 108.992 50.5034 108.992C48.691 108.992 46.9529 108.272 45.6713 106.991L45.6673 106.987Z" fill="#DD463A"/>
<path d="M45.6635 95.5271L3.62005 53.4837C2.8917 52.7554 2.48252 51.7675 2.48252 50.7375C2.48252 49.7074 2.8917 48.7196 3.62005 47.9912L45.6715 5.93971C46.9531 4.65815 48.6913 3.93819 50.5037 3.93819C52.3161 3.93819 54.0542 4.65815 55.3358 5.93971L97.3792 47.9831C98.1076 48.7115 98.5168 49.6994 98.5168 50.7294C98.5168 51.7594 98.1076 52.7473 97.3792 53.4756L55.3277 95.5271C54.0462 96.8087 52.308 97.5287 50.4956 97.5287C48.6832 97.5287 46.945 96.8087 45.6635 95.5271Z" fill="#003974"/>
<path d="M45.6643 93.9088L3.62085 51.8653C2.8925 51.137 2.48331 50.1491 2.48332 49.1191C2.48331 48.089 2.89249 47.1012 3.62085 46.3728L45.6723 4.32134C46.9539 3.03978 48.6921 2.3198 50.5044 2.31981C52.3168 2.31981 54.055 3.03978 55.3366 4.32134L97.38 46.3648C97.7432 46.7269 98.0311 47.1574 98.227 47.6314C98.423 48.1054 98.5231 48.6136 98.5216 49.1265C98.5201 49.6394 98.417 50.1469 98.2183 50.6198C98.0196 51.0926 97.7292 51.5214 97.3639 51.8814L55.3325 93.9128C54.051 95.1944 52.3128 95.9143 50.5004 95.9143C48.688 95.9143 46.9499 95.1944 45.6683 93.9128L45.6643 93.9088Z" fill="#375BD2"/>
<path d="M49.6848 34.099L63.0186 41.6217V56.7525L49.6848 64.3265L36.3509 56.8208V41.6957L49.6848 34.099ZM49.6848 23L44.8092 25.7733L31.4754 33.3758L26.5767 36.1491V62.3846L31.4754 65.1636L44.8092 72.6863L49.7079 75.4653L54.6009 72.6863L67.9347 65.1066L72.8334 62.3333V36.0637L67.9347 33.2903L54.6009 25.779L49.7021 23.0057L49.6848 23Z" fill="white"/>
</svg>
