<svg width="101" height="112" viewBox="0 0 101 112" fill="none" xmlns="http://www.w3.org/2000/svg">
<path d="M45.7748 94.4869L3.72333 52.4354C2.99851 51.7063 2.59233 50.7195 2.59384 49.6915C2.59535 48.6634 3.00442 47.6779 3.73139 46.9509L45.7829 4.89942C47.0644 3.61787 48.8026 2.8979 50.615 2.8979C52.4274 2.8979 54.1655 3.61787 55.4471 4.89942L97.4905 46.9429C98.2189 47.6712 98.6281 48.6591 98.6281 49.6891C98.6281 50.7192 98.2189 51.707 97.4905 52.4354L55.439 94.4869C54.1575 95.7684 52.4193 96.4884 50.6069 96.4884C48.7945 96.4884 47.0564 95.7684 45.7748 94.4869Z" fill="#43B649"/>
<path d="M98.629 49.6829L98.6119 47.6613L96.1119 48.675L95.9126 53.4585L98.629 49.6829Z" fill="#43B649"/>
<path d="M2.5874 49.6829L2.60449 47.6613L5.10446 48.675L5.30377 53.4585L2.5874 49.6829Z" fill="#43B649"/>
<path d="M55.4402 3.19135L97.4899 45.241C98.2178 45.9702 98.6266 46.9584 98.6266 47.9887C98.6266 49.019 98.2178 50.0072 97.4899 50.7364L55.4402 92.7918C54.8054 93.4289 54.051 93.9344 53.2203 94.2793C52.3897 94.6242 51.4991 94.8017 50.5997 94.8017C49.7003 94.8017 48.8098 94.6242 47.9791 94.2793C47.1485 93.9344 46.3941 93.4289 45.7592 92.7918L3.72094 50.7364C3.35918 50.3761 3.07214 49.9479 2.87628 49.4764C2.68041 49.0049 2.57959 48.4993 2.57959 47.9887C2.57959 47.4782 2.68041 46.9726 2.87628 46.5011C3.07214 46.0296 3.35918 45.6014 3.72094 45.241L45.7706 3.19135C46.4053 2.55598 47.159 2.05194 47.9886 1.70804C48.8182 1.36414 49.7074 1.18713 50.6054 1.18713C51.5035 1.18713 52.3927 1.36414 53.2223 1.70804C54.0519 2.05194 54.8056 2.55598 55.4402 3.19135Z" fill="#3EE028"/>
<path d="M98.629 62.7808L98.6119 61.0496L96.1119 62.9288L95.9126 66.4709L98.629 62.7808Z" fill="#003974"/>
<path d="M2.5874 62.7808L2.60449 61.0496L5.10446 62.9288L5.30377 66.4709L2.5874 62.7808Z" fill="#003974"/>
<path d="M45.7724 107.559L3.72087 65.5075C2.99605 64.7784 2.58987 63.7916 2.59138 62.7636C2.59289 61.7355 3.00196 60.75 3.72893 60.023L45.7804 17.9715C47.062 16.69 48.8002 15.97 50.6126 15.97C52.425 15.97 54.1631 16.69 55.4447 17.9715L97.4881 60.015C98.2165 60.7433 98.6257 61.7312 98.6257 62.7612C98.6257 63.7913 98.2165 64.7791 97.4881 65.5075L55.4366 107.559C54.1551 108.84 52.4169 109.56 50.6045 109.56C48.7921 109.56 47.0539 108.84 45.7724 107.559Z" fill="#003974"/>
<path d="M45.7685 105.945L3.71699 63.8933C2.99147 63.1635 2.58524 62.1756 2.5875 61.1466C2.58977 60.1175 3.00034 59.1314 3.72907 58.4048L45.7806 16.3533C47.0621 15.0718 48.8003 14.3518 50.6127 14.3518C52.4251 14.3518 54.1632 15.0718 55.4448 16.3533L97.4882 58.3968C98.2166 59.1251 98.6257 60.113 98.6258 61.143C98.6257 62.1731 98.2166 63.1609 97.4882 63.8893L55.4367 105.941C54.1552 107.222 52.417 107.942 50.6046 107.942C48.7922 107.942 47.0541 107.222 45.7725 105.941L45.7685 105.945Z" fill="#375BD2"/>
<path d="M50.6102 46.0099L63.7081 53.5326V68.6634L50.6102 76.2374L37.5124 68.7317V53.6066L50.6102 46.0099ZM50.6102 34.9109L45.821 37.6842L32.7232 45.2866L27.9111 48.06V74.2955L32.7232 77.0745L45.821 84.5972L50.633 87.3762L55.4393 84.5972L68.5372 77.0175L73.3492 74.2442V47.9745L68.5372 45.2012L55.4393 37.6899L50.6273 34.9166L50.6102 34.9109Z" fill="white"/>
</svg>
