<svg width="113" height="113" viewBox="0 0 113 113" fill="none" xmlns="http://www.w3.org/2000/svg">
<g clip-path="url(#clip0_269_40842)">
<path d="M52.001 95.4853L9.9495 53.4338C9.58886 53.0732 9.30278 52.645 9.10761 52.1738C8.91242 51.7026 8.81197 51.1976 8.81197 50.6876C8.81197 50.1776 8.91243 49.6725 9.1076 49.2013C9.30278 48.7301 9.58886 48.302 9.9495 47.9413L52.001 5.88984C53.2826 4.60828 55.0207 3.88832 56.8331 3.88832C58.6455 3.88832 60.3837 4.60829 61.6652 5.88985L103.713 47.9373C104.441 48.6657 104.85 49.6535 104.85 50.6836C104.85 51.7136 104.441 52.7015 103.713 53.4298L61.6612 95.4813C60.3797 96.7629 58.6415 97.4828 56.8291 97.4828C55.0167 97.4828 53.2785 96.7629 51.997 95.4813L52.001 95.4853Z" fill="#43B649"/>
<path d="M104.857 50.6828L104.839 48.6612L102.339 49.6749L102.14 54.4584L104.857 50.6828Z" fill="#43B649"/>
<path d="M8.81543 50.6828L8.83251 48.6612L11.3325 49.6749L11.5318 54.4584L8.81543 50.6828Z" fill="#43B649"/>
<path d="M61.6621 4.19131L103.717 46.241C104.445 46.9702 104.854 47.9584 104.854 48.9887C104.854 50.019 104.445 51.0072 103.717 51.7364L61.6621 93.7918C61.0272 94.4288 60.2728 94.9343 59.4422 95.2792C58.6115 95.6242 57.721 95.8017 56.8216 95.8017C55.9222 95.8017 55.0316 95.6242 54.201 95.2792C53.3703 94.9343 52.616 94.4288 51.9811 93.7918L9.94847 51.7364C9.58672 51.3761 9.29968 50.9479 9.10381 50.4763C8.90795 50.0048 8.80713 49.4993 8.80713 48.9887C8.80713 48.4781 8.90795 47.9726 9.10381 47.501C9.29968 47.0295 9.58672 46.6013 9.94847 46.241L51.9982 4.19131C53.2797 2.90985 55.0178 2.18994 56.8301 2.18994C58.6424 2.18994 60.3805 2.90985 61.6621 4.19131Z" fill="#3EE028"/>
<path d="M104.857 63.7807L104.839 62.0495L102.339 63.9287L102.14 67.4708L104.857 63.7807Z" fill="#7E942C"/>
<path d="M8.81543 63.7807L8.83251 62.0495L11.3325 63.9287L11.5318 67.4708L8.81543 63.7807Z" fill="#7E942C"/>
<path d="M51.9986 108.557L9.94707 66.5059C9.21872 65.7776 8.80954 64.7897 8.80954 63.7597C8.80954 62.7296 9.21873 61.7418 9.94708 61.0134L51.9986 18.9619C53.2801 17.6804 55.0183 16.9604 56.8307 16.9604C58.6431 16.9604 60.3812 17.6804 61.6628 18.9619L103.71 61.0094C104.439 61.7377 104.848 62.7256 104.848 63.7556C104.848 64.7857 104.439 65.7735 103.71 66.5019L61.6588 108.553C60.3772 109.835 58.6391 110.555 56.8267 110.555C55.0143 110.555 53.2761 109.835 51.9945 108.553L51.9986 108.557Z" fill="#7E942C"/>
<path d="M51.9956 106.943L9.94415 64.8916C9.2158 64.1633 8.80662 63.1754 8.80662 62.1454C8.80662 61.1153 9.2158 60.1275 9.94415 59.3991L51.9997 17.3436C53.2812 16.062 55.0194 15.3421 56.8318 15.3421C58.6442 15.3421 60.3823 16.062 61.6639 17.3436L103.711 59.3911C104.44 60.1194 104.849 61.1073 104.849 62.1373C104.849 63.1673 104.44 64.1552 103.711 64.8836L61.6599 106.935C60.3783 108.217 58.6402 108.937 56.8278 108.937C55.0154 108.937 53.2772 108.217 51.9956 106.935L51.9956 106.943Z" fill="#C4FA50"/>
<path fill-rule="evenodd" clip-rule="evenodd" d="M51.5901 46.5V59.1316H83.9867V64.1316H69.1382V76.5H64.0482V64.1316H30.0317V59.1316H46.5V46.5H51.5901Z" fill="black"/>
</g>
<defs>
<clipPath id="clip0_269_40842">
<rect width="113" height="113" fill="white"/>
</clipPath>
</defs>
</svg>
