<svg width="100" height="112" viewBox="0 0 100 112" fill="none" xmlns="http://www.w3.org/2000/svg">
<path d="M45.001 94.4853L2.9495 52.4338C2.58886 52.0732 2.30278 51.645 2.10761 51.1738C1.91242 50.7026 1.81197 50.1976 1.81197 49.6876C1.81197 49.1776 1.91243 48.6725 2.1076 48.2013C2.30278 47.7301 2.58886 47.302 2.9495 46.9413L45.001 4.88984C46.2826 3.60828 48.0207 2.88832 49.8331 2.88832C51.6455 2.88832 53.3837 3.60829 54.6652 4.88985L96.7127 46.9373C97.4411 47.6657 97.8503 48.6535 97.8502 49.6836C97.8503 50.7136 97.4411 51.7015 96.7127 52.4298L54.6612 94.4813C53.3797 95.7629 51.6415 96.4828 49.8291 96.4828C48.0167 96.4828 46.2785 95.7629 44.997 94.4813L45.001 94.4853Z" fill="#43B649"/>
<path d="M97.8565 49.6828L97.8394 47.6612L95.3395 48.6749L95.1401 53.4584L97.8565 49.6828Z" fill="#43B649"/>
<path d="M1.81543 49.6828L1.83251 47.6612L4.33249 48.6749L4.5318 53.4584L1.81543 49.6828Z" fill="#43B649"/>
<path d="M54.6621 3.19131L96.7175 45.241C97.4453 45.9702 97.8541 46.9584 97.8541 47.9887C97.8541 49.019 97.4453 50.0072 96.7175 50.7364L54.6621 92.7918C54.0272 93.4288 53.2728 93.9343 52.4422 94.2792C51.6115 94.6242 50.721 94.8017 49.8216 94.8017C48.9222 94.8017 48.0316 94.6242 47.201 94.2792C46.3703 93.9343 45.616 93.4288 44.9811 92.7918L2.94847 50.7364C2.58672 50.3761 2.29968 49.9479 2.10381 49.4763C1.90795 49.0048 1.80713 48.4993 1.80713 47.9887C1.80713 47.4781 1.90795 46.9726 2.10381 46.501C2.29968 46.0295 2.58672 45.6013 2.94847 45.241L44.9982 3.19131C46.2797 1.90985 48.0178 1.18994 49.8301 1.18994C51.6424 1.18994 53.3805 1.90985 54.6621 3.19131Z" fill="#3EE028"/>
<path d="M97.8565 62.7807L97.8394 61.0495L95.3395 62.9287L95.1401 66.4708L97.8565 62.7807Z" fill="#7E942C"/>
<path d="M1.81543 62.7807L1.83251 61.0495L4.33249 62.9287L4.5318 66.4708L1.81543 62.7807Z" fill="#7E942C"/>
<path d="M44.9986 107.557L2.94707 65.5059C2.21872 64.7776 1.80954 63.7897 1.80954 62.7597C1.80954 61.7296 2.21873 60.7418 2.94708 60.0134L44.9986 17.9619C46.2801 16.6804 48.0183 15.9604 49.8307 15.9604C51.6431 15.9604 53.3812 16.6804 54.6628 17.9619L96.7103 60.0094C97.4386 60.7377 97.8478 61.7256 97.8478 62.7556C97.8478 63.7857 97.4386 64.7735 96.7103 65.5019L54.6588 107.553C53.3772 108.835 51.6391 109.555 49.8267 109.555C48.0143 109.555 46.2761 108.835 44.9945 107.553L44.9986 107.557Z" fill="#7E942C"/>
<path d="M44.9956 105.943L2.94415 63.8916C2.2158 63.1633 1.80662 62.1754 1.80662 61.1454C1.80662 60.1153 2.2158 59.1275 2.94415 58.3991L44.9997 16.3436C46.2812 15.062 48.0194 14.3421 49.8318 14.3421C51.6442 14.3421 53.3823 15.062 54.6639 16.3436L96.7114 58.3911C97.4397 59.1194 97.8489 60.1073 97.8489 61.1373C97.8489 62.1673 97.4397 63.1552 96.7114 63.8836L54.6599 105.935C53.3783 107.217 51.6402 107.937 49.8278 107.937C48.0154 107.937 46.2772 107.217 44.9956 105.935L44.9956 105.943Z" fill="#C4FA50"/>
<path fill-rule="evenodd" clip-rule="evenodd" d="M44.5901 45.5V58.1316H76.9867V63.1316H62.1382V75.5H57.0482V63.1316H23.0317V58.1316H39.5V45.5H44.5901Z" fill="black"/>
</svg>
