<svg width="16" height="16" viewBox="0 0 16 16" fill="none" xmlns="http://www.w3.org/2000/svg">
<path d="M8 0C3.58065 0 0 3.58065 0 8C0 12.4194 3.58065 16 8 16C12.4194 16 16 12.4194 16 8C16 3.58065 12.4194 0 8 0ZM10.9835 10.0968L10.3384 10.9032C10.296 10.9562 10.2437 11.0002 10.1843 11.0329C10.125 11.0656 10.0597 11.0863 9.99235 11.0938C9.92498 11.1013 9.8568 11.0954 9.79169 11.0766C9.72659 11.0577 9.66583 11.0262 9.6129 10.9839L7.45161 9.38C7.3006 9.25909 7.1787 9.10578 7.09495 8.9314C7.01119 8.75701 6.96772 8.56603 6.96774 8.37258V3.35484C6.96774 3.21795 7.02212 3.08667 7.11891 2.98988C7.21571 2.89309 7.34698 2.83871 7.48387 2.83871H8.51613C8.65302 2.83871 8.78429 2.89309 8.88109 2.98988C8.97788 3.08667 9.03226 3.21795 9.03226 3.35484V8L10.9032 9.37097C10.9562 9.41333 11.0003 9.46572 11.033 9.52513C11.0657 9.58454 11.0863 9.64982 11.0938 9.71723C11.1013 9.78463 11.0954 9.85285 11.0764 9.91797C11.0575 9.9831 11.026 10.0439 10.9835 10.0968Z" fill="#A1A1AA"/>
</svg>
