<svg width="120" height="113" viewBox="0 0 120 113" fill="none" xmlns="http://www.w3.org/2000/svg">
<path d="M120 0L63.6223 32.5373L120 65.0747V56.536L78.442 32.5373L120 8.53869V0Z" fill="white"/>
<path d="M63.7841 0H56.3743V65.0747H63.7841V0Z" fill="white"/>
<path d="M0 0V8.53869L41.5579 32.5373L0 56.536V65.0747L56.3743 32.5373L0 0Z" fill="white"/>
<path d="M106.346 87.0886V112.209H112.492V92.8238H120V87.0886H106.346Z" fill="white"/>
<path d="M34.95 87.0886H21.2961V112.209H27.439V92.8238H34.95V87.0886Z" fill="white"/>
<path d="M78.9578 108.961C77.9186 110.211 76.6131 111.212 75.1368 111.892C73.6606 112.572 72.0509 112.913 70.4258 112.89C66.6417 112.89 63.4776 111.07 61.7523 108.961C59.8822 106.602 59.0195 103.495 59.0195 99.863C59.0195 96.2305 59.8822 93.1035 61.7523 90.7649C63.4776 88.6589 66.6417 86.8359 70.4258 86.8359C72.0509 86.8131 73.6606 87.1541 75.1368 87.834C76.6131 88.5138 77.9186 89.5152 78.9578 90.7649C80.1256 92.338 80.7936 94.2258 80.8751 96.1833H74.9782C74.9365 95.368 74.6896 94.5764 74.2605 93.8819C73.5427 92.78 72.2387 92.0117 70.4258 92.0117C69.7453 91.9991 69.0697 92.1289 68.4423 92.393C67.815 92.657 67.2499 93.0494 66.7832 93.5449C65.3444 95.1286 65.0984 97.5244 65.0984 99.8731C65.0984 102.222 65.3343 104.57 66.7832 106.154C67.2462 106.657 67.8096 107.058 68.437 107.33C69.0644 107.603 69.7419 107.74 70.4258 107.734C72.2454 107.734 73.5427 106.966 74.2605 105.864C74.6892 105.171 74.9361 104.38 74.9782 103.566H80.8751C80.7904 105.516 80.1224 107.395 78.9578 108.961Z" fill="white"/>
<path d="M13.6505 81.3568H0V87.0886H7.50758V112.209H13.6505V87.0886H21.2962V81.3568H13.6505Z" fill="white"/>
<path d="M56.4249 107.836V96.8101C56.4249 95.1252 56.3271 93.3528 55.7038 91.7556C54.2649 88.0085 50.6156 86.664 46.3462 86.664C40.7728 86.664 36.308 89.161 35.9711 94.7782H41.7837C41.9286 92.4733 43.5562 91.2266 46.3462 91.2266C49.753 91.2266 50.565 92.8103 50.565 95.1623V96.6989L43.2226 97.2279C38.4646 97.5649 34.7715 100.301 34.7715 105.052C34.7715 109.133 37.8446 112.877 43.7988 112.877C47.2931 112.877 50.3999 110.888 51.5995 108.907V112.193H58.6994V107.812L56.4249 107.836ZM50.5617 102.33C50.5617 106.036 47.9232 108.058 44.1796 108.058C42.306 108.058 40.6279 106.855 40.6279 104.934C40.6279 102.913 42.4037 101.814 44.2267 101.672L50.5617 101.191V102.33Z" fill="white"/>
<path d="M104.57 101.716H87.9547C87.9042 103.627 88.5747 105.443 89.7676 106.585C90.7438 107.562 92.0667 108.112 93.4472 108.115C95.1658 108.115 96.2137 107.778 97.073 106.922C97.655 106.343 98.0685 105.616 98.2692 104.82H103.998C103.853 106.302 102.849 108.26 101.895 109.406C99.7923 111.886 96.6889 112.89 93.5349 112.89C90.145 112.89 87.6649 111.697 85.7038 109.834C83.2237 107.445 81.886 103.96 81.886 99.9C81.886 95.9373 83.0788 92.4026 85.4679 89.9663C87.3313 88.0591 90.0035 86.8157 93.3967 86.8157C97.0696 86.8157 100.416 88.2983 102.468 91.3984C104.284 94.1211 104.712 96.9381 104.618 100.045C104.611 100.045 104.57 101.191 104.57 101.716ZM97.1235 93.0226C96.3115 92.1633 95.068 91.5905 93.3495 91.5905C92.5569 91.562 91.7685 91.719 91.0472 92.0489C90.3259 92.3788 89.6916 92.8726 89.1948 93.491C88.3355 94.5895 87.9547 95.7352 87.9042 97.3593H98.6534C98.6028 95.5128 98.0771 94.0739 97.1235 93.0226Z" fill="white"/>
</svg>
