<?xml version="1.0" encoding="utf-8"?>
<!-- Generator: Adobe Illustrator 26.0.2, SVG Export Plug-In . SVG Version: 6.00 Build 0)  -->
<svg version="1.1" id="Logo" xmlns="http://www.w3.org/2000/svg" xmlns:xlink="http://www.w3.org/1999/xlink" x="0px" y="0px"
	 viewBox="0 0 505.2 482.1" style="enable-background:new 0 0 505.2 482.1;" xml:space="preserve">
<style type="text/css">
	.st0{fill:#0000B0;}
	.st1{fill:#FFFFFF;}
</style>
<rect class="st0" width="505.2" height="482.1"/>
<g id="Guide">
</g>
<g id="Logo_00000066509110430175329310000017680290877236850866_">
	<g>
		<polygon class="st1" points="430.7,74.5 263.4,171.1 430.7,267.7 430.7,242.3 307.3,171.1 430.7,99.9 		"/>
		<rect x="241.8" y="74.5" class="st1" width="22" height="193.1"/>
		<polygon class="st1" points="74.5,74.5 74.5,99.9 197.9,171.1 74.5,242.3 74.5,267.7 241.8,171.1 		"/>
	</g>
	<g>
		<g>
			<polygon class="st1" points="390.2,333 390.2,407.5 408.4,407.5 408.4,350 430.7,350 430.7,333 			"/>
			<polygon class="st1" points="178.3,333 137.7,333 137.7,407.5 156,407.5 156,350 178.3,350 			"/>
			<path class="st1" d="M308.9,397.9c-5.1,6.4-14.1,11.7-25.3,11.7s-20.6-5.4-25.7-11.7c-5.5-7-8.1-16.2-8.1-27s2.6-20.1,8.1-27
				c5.1-6.3,14.5-11.7,25.7-11.7s20.2,5.3,25.3,11.7c3.4,4.4,5.4,10.2,5.7,16.1h-17.5c-0.1-2.7-1-5-2.1-6.8c-2.1-3.3-6-5.5-11.4-5.5
				c-4.8,0-8.4,2-10.8,4.6c-4.3,4.7-5,11.8-5,18.8s0.7,13.9,5,18.6c2.4,2.6,6,4.7,10.8,4.7c5.4,0,9.2-2.3,11.4-5.5
				c1.1-1.8,2-4.1,2.1-6.8h17.5C314.3,387.7,312.3,393.5,308.9,397.9z"/>
			<polygon class="st1" points="115.1,316 74.5,316 74.5,333 96.8,333 96.8,407.5 115.1,407.5 115.1,333 137.7,333 137.7,316 			"/>
			<path class="st1" d="M242,394.6C242,394.6,242,394.5,242,394.6v-32.7c0-5-0.3-10.3-2.1-15c-4.3-11.1-15.1-15.1-27.8-15.1
				c-16.5,0-29.8,7.4-30.8,24.1h17.2c0.4-6.8,5.3-10.5,13.5-10.5c10.1,0,12.5,4.7,12.5,11.7v4.6l-21.8,1.6
				c-14.1,1-25.1,9.1-25.1,23.2c0,12.1,9.1,23.2,26.8,23.2c10.4,0,19.6-5.9,23.1-11.8v9.8h21.1v-13H242V394.6z M224.6,378.2
				c0,11-7.8,17-18.9,17c-5.6,0-10.5-3.6-10.5-9.3c0-6,5.3-9.3,10.7-9.7l18.8-1.4v3.4H224.6z"/>
			<path class="st1" d="M384.9,376.4h-49.3c-0.2,5.7,1.8,11.1,5.4,14.5c2.6,2.4,6.1,4.5,10.9,4.5c5.1,0,8.2-1,10.8-3.5
				c1.6-1.6,2.8-3.5,3.5-6.2h17c-0.4,4.4-3.4,10.2-6.2,13.6c-6.2,7.4-15.5,10.3-24.8,10.3c-10.1,0-17.4-3.5-23.2-9.1
				c-7.4-7.1-11.3-17.4-11.3-29.5c0-11.8,3.5-22.2,10.6-29.5c5.5-5.7,13.5-9.4,23.5-9.4c10.9,0,20.8,4.4,26.9,13.6
				c5.4,8.1,6.7,16.4,6.4,25.7C385,371.4,384.9,374.8,384.9,376.4z M362.8,350.6c-2.4-2.6-6.1-4.3-11.2-4.3c-5.4,0-9.8,2.3-12.3,5.7
				c-2.6,3.3-3.7,6.7-3.8,11.5h31.9C367.2,358,365.6,353.7,362.8,350.6z"/>
		</g>
	</g>
</g>
</svg>
