<svg width="117" height="117" viewBox="0 0 117 117" fill="none" xmlns="http://www.w3.org/2000/svg">
<path d="M58.2629 116.526C90.4406 116.526 116.526 90.4406 116.526 58.2629C116.526 26.0852 90.4406 0 58.2629 0C26.0852 0 0 26.0852 0 58.2629C0 90.4406 26.0852 116.526 58.2629 116.526Z" fill="url(#paint0_linear)"/>
<path opacity="0.3" d="M58.2629 114.773C42.9613 114.777 28.2727 108.76 17.3709 98.0223C6.46904 87.285 0.22935 72.6895 0 57.3896C0 57.6787 0 57.9918 0 58.2628C0 73.7151 6.13839 88.5345 17.0648 99.4609C27.9912 110.387 42.8106 116.526 58.2629 116.526C73.7152 116.526 88.5346 110.387 99.461 99.4609C110.387 88.5345 116.526 73.7151 116.526 58.2628C116.526 57.9678 116.526 57.6606 116.526 57.3896C116.296 72.6895 110.057 87.285 99.1549 98.0223C88.2531 108.76 73.5645 114.777 58.2629 114.773Z" fill="#FDF356"/>
<path d="M58.2629 2.19224C73.525 2.19269 88.1777 8.18181 99.0705 18.872C109.963 29.5621 116.227 44.0997 116.514 59.3591C116.514 58.9918 116.514 58.6305 116.514 58.2631C116.294 42.9575 110.059 28.3533 99.1577 17.6076C88.2564 6.86187 73.564 0.837891 58.2569 0.837891C42.9497 0.837891 28.2574 6.86187 17.356 17.6076C6.45466 28.3533 0.220077 42.9575 0 58.2631C0 58.6305 0 58.9918 0 59.3591C0.287141 44.0976 6.55207 29.5582 17.4475 18.8677C28.343 8.17725 42.9986 2.18953 58.2629 2.19224Z" fill="#FDF356"/>
<path style="mix-blend-mode:screen" d="M58.2634 116.255C90.2914 116.255 116.255 90.2914 116.255 58.2634C116.255 26.2353 90.2914 0.271484 58.2634 0.271484C26.2353 0.271484 0.271484 26.2353 0.271484 58.2634C0.271484 90.2914 26.2353 116.255 58.2634 116.255Z" fill="url(#paint1_radial)"/>
<path style="mix-blend-mode:screen" opacity="0.7" d="M58.2634 0.216797C43.1492 0.217525 28.632 6.11647 17.8012 16.6583C6.97033 27.2001 0.68095 41.5524 0.271484 56.661C6.68492 60.4609 16.7718 57.4198 23.3659 54.1198C29.0386 51.5002 36.0121 52.3734 42.1244 52.813C57.3902 54.1197 72.2344 60.6416 87.4882 56.7393C90.5413 55.8661 94.9012 51.9217 97.9544 54.5533C100.48 56.6251 103.546 57.9284 106.791 58.3084C110.035 58.6884 113.32 58.1292 116.255 56.6972C115.855 41.5822 109.57 27.2207 98.7379 16.6712C87.906 6.1217 73.3836 0.217777 58.2634 0.216797Z" fill="url(#paint2_linear)"/>
<path d="M58.2635 103.386C83.1842 103.386 103.386 83.1842 103.386 58.2635C103.386 33.3428 83.1842 13.1406 58.2635 13.1406C33.3428 13.1406 13.1406 33.3428 13.1406 58.2635C13.1406 83.1842 33.3428 103.386 58.2635 103.386Z" fill="url(#paint3_linear)"/>
<path d="M58.2629 101.194C81.973 101.194 101.194 81.973 101.194 58.2629C101.194 34.5528 81.973 15.332 58.2629 15.332C34.5528 15.332 15.332 34.5528 15.332 58.2629C15.332 81.973 34.5528 101.194 58.2629 101.194Z" fill="#EE9B00"/>
<path d="M58.0398 99.2183C80.782 99.2183 99.2183 80.782 99.2183 58.0398C99.2183 35.2976 80.782 16.8613 58.0398 16.8613C35.2976 16.8613 16.8613 35.2976 16.8613 58.0398C16.8613 80.782 35.2976 99.2183 58.0398 99.2183Z" fill="url(#paint4_radial)"/>
<path opacity="0.25" d="M58.2641 96.3518C35.8863 96.3518 17.6818 79.3818 17.0977 57.1426C17.0977 57.5099 17.0977 57.8712 17.0977 58.2386C17.0977 69.1598 21.4361 79.6337 29.1585 87.3562C36.881 95.0786 47.3549 99.417 58.2761 99.417C69.1973 99.417 79.6712 95.0786 87.3937 87.3562C95.1161 79.6337 99.4546 69.1598 99.4546 58.2386C99.4546 57.8712 99.4546 57.5099 99.4546 57.1426C98.8464 79.4059 80.6418 96.3518 58.2641 96.3518Z" fill="#FDF356"/>
<g filter="url(#filter0_dddi)">
<mask id="path-10-inside-1" fill="white">
<path fill-rule="evenodd" clip-rule="evenodd" d="M73.369 59.4239C72.3041 57.9867 70.6972 56.9995 68.5483 56.4629C71.2848 55.0061 72.4873 52.5334 72.1572 49.0446C72.0468 47.7795 71.7118 46.683 71.1514 45.7536C70.5907 44.824 69.834 44.0767 68.8784 43.5114C67.9236 42.9453 66.8852 42.5144 65.7655 42.2174C64.6455 41.9203 63.3597 41.7046 61.9089 41.5705V34.3252H57.6671V41.3692C56.9326 41.3692 55.8125 41.3884 54.3068 41.4267V34.3252H50.0644V41.5705C49.4582 41.5898 48.5677 41.5995 47.3924 41.5995L41.5527 41.5705V46.2858H44.6102C46.0059 46.2858 46.8231 46.9377 47.0618 48.2409V56.4926C47.2457 56.4926 47.3924 56.5025 47.5027 56.5217H47.0618V68.0792C46.915 69.0565 46.3826 69.5456 45.4642 69.5456H42.407L41.5529 74.8072H47.0623C47.4112 74.8072 47.9159 74.8121 48.5773 74.8207C49.2383 74.8304 49.734 74.8352 50.0646 74.8352V82.1667H54.3076V74.9214C55.0787 74.9411 56.1989 74.9504 57.668 74.9504V82.1667H61.9099V74.8352C63.4161 74.7587 64.752 74.6157 65.9176 74.4041C67.0837 74.1925 68.1997 73.8624 69.2645 73.4117C70.3293 72.9615 71.2199 72.4005 71.9359 71.7297C72.6524 71.0594 73.2442 70.206 73.7132 69.1708C74.1808 68.1356 74.4796 66.9376 74.6077 65.5764C74.8475 62.9128 74.4341 60.8617 73.369 59.4239ZM54.3902 46.6008H54.3905V55.4273C54.4826 55.4273 54.7989 55.4323 55.341 55.4418C55.8829 55.4512 56.3097 55.4512 56.6221 55.4418C56.9341 55.4323 57.3933 55.4128 57.9995 55.3842C58.6056 55.3556 59.1105 55.3027 59.5146 55.2259C59.9184 55.1494 60.3912 55.044 60.9327 54.9097C61.4743 54.7757 61.92 54.5983 62.2686 54.378C62.6176 54.1578 62.958 53.8988 63.2882 53.6016C63.6184 53.3045 63.8669 52.9355 64.0317 52.4947C64.1968 52.0536 64.2793 51.5647 64.2793 51.028C64.2793 50.3955 64.1645 49.8349 63.9347 49.3462C63.7055 48.8574 63.4255 48.4547 63.0947 48.1385C62.7645 47.8223 62.3241 47.5538 61.7727 47.3336C61.2223 47.1131 60.7168 46.9549 60.2578 46.8593C59.7988 46.7636 59.2342 46.6868 58.564 46.6293C57.8934 46.5718 57.3608 46.5478 56.9659 46.5573C56.5711 46.5669 56.0755 46.5764 55.4784 46.5863C54.882 46.5959 54.5194 46.6008 54.3905 46.6008V46.6007H54.3902V46.6008ZM65.2993 67.3314C65.5746 67.0054 65.7992 66.6218 65.9741 66.1807C66.1488 65.7395 66.236 65.2515 66.2361 64.7143C66.2361 64.0241 66.0984 63.4106 65.8223 62.874C65.547 62.3372 65.2075 61.897 64.8034 61.5514C64.3992 61.2064 63.871 60.9142 63.2192 60.6747C62.5668 60.4348 61.9658 60.2578 61.4151 60.1426C60.8637 60.0276 60.1842 59.9417 59.3766 59.8846C58.5683 59.8267 57.9345 59.7984 57.4754 59.7984C57.0163 59.7984 56.4244 59.8073 55.6987 59.8267C54.9732 59.8462 54.537 59.8556 54.3902 59.8556V69.5739C54.5373 69.5739 54.8767 69.5787 55.4096 69.5877C55.9421 69.597 56.383 69.6023 56.732 69.6023C57.0807 69.6023 57.5677 69.5877 58.1918 69.5595C58.8165 69.5305 59.3534 69.4923 59.8031 69.4443C60.2535 69.396 60.7765 69.3151 61.3741 69.2C61.9704 69.0846 62.4802 68.9511 62.9028 68.7972C63.3248 68.6438 63.7614 68.4429 64.211 68.1933C64.6607 67.9445 65.0236 67.6567 65.2993 67.3314Z"/>
</mask>
<path fill-rule="evenodd" clip-rule="evenodd" d="M73.369 59.4239C72.3041 57.9867 70.6972 56.9995 68.5483 56.4629C71.2848 55.0061 72.4873 52.5334 72.1572 49.0446C72.0468 47.7795 71.7118 46.683 71.1514 45.7536C70.5907 44.824 69.834 44.0767 68.8784 43.5114C67.9236 42.9453 66.8852 42.5144 65.7655 42.2174C64.6455 41.9203 63.3597 41.7046 61.9089 41.5705V34.3252H57.6671V41.3692C56.9326 41.3692 55.8125 41.3884 54.3068 41.4267V34.3252H50.0644V41.5705C49.4582 41.5898 48.5677 41.5995 47.3924 41.5995L41.5527 41.5705V46.2858H44.6102C46.0059 46.2858 46.8231 46.9377 47.0618 48.2409V56.4926C47.2457 56.4926 47.3924 56.5025 47.5027 56.5217H47.0618V68.0792C46.915 69.0565 46.3826 69.5456 45.4642 69.5456H42.407L41.5529 74.8072H47.0623C47.4112 74.8072 47.9159 74.8121 48.5773 74.8207C49.2383 74.8304 49.734 74.8352 50.0646 74.8352V82.1667H54.3076V74.9214C55.0787 74.9411 56.1989 74.9504 57.668 74.9504V82.1667H61.9099V74.8352C63.4161 74.7587 64.752 74.6157 65.9176 74.4041C67.0837 74.1925 68.1997 73.8624 69.2645 73.4117C70.3293 72.9615 71.2199 72.4005 71.9359 71.7297C72.6524 71.0594 73.2442 70.206 73.7132 69.1708C74.1808 68.1356 74.4796 66.9376 74.6077 65.5764C74.8475 62.9128 74.4341 60.8617 73.369 59.4239ZM54.3902 46.6008H54.3905V55.4273C54.4826 55.4273 54.7989 55.4323 55.341 55.4418C55.8829 55.4512 56.3097 55.4512 56.6221 55.4418C56.9341 55.4323 57.3933 55.4128 57.9995 55.3842C58.6056 55.3556 59.1105 55.3027 59.5146 55.2259C59.9184 55.1494 60.3912 55.044 60.9327 54.9097C61.4743 54.7757 61.92 54.5983 62.2686 54.378C62.6176 54.1578 62.958 53.8988 63.2882 53.6016C63.6184 53.3045 63.8669 52.9355 64.0317 52.4947C64.1968 52.0536 64.2793 51.5647 64.2793 51.028C64.2793 50.3955 64.1645 49.8349 63.9347 49.3462C63.7055 48.8574 63.4255 48.4547 63.0947 48.1385C62.7645 47.8223 62.3241 47.5538 61.7727 47.3336C61.2223 47.1131 60.7168 46.9549 60.2578 46.8593C59.7988 46.7636 59.2342 46.6868 58.564 46.6293C57.8934 46.5718 57.3608 46.5478 56.9659 46.5573C56.5711 46.5669 56.0755 46.5764 55.4784 46.5863C54.882 46.5959 54.5194 46.6008 54.3905 46.6008V46.6007H54.3902V46.6008ZM65.2993 67.3314C65.5746 67.0054 65.7992 66.6218 65.9741 66.1807C66.1488 65.7395 66.236 65.2515 66.2361 64.7143C66.2361 64.0241 66.0984 63.4106 65.8223 62.874C65.547 62.3372 65.2075 61.897 64.8034 61.5514C64.3992 61.2064 63.871 60.9142 63.2192 60.6747C62.5668 60.4348 61.9658 60.2578 61.4151 60.1426C60.8637 60.0276 60.1842 59.9417 59.3766 59.8846C58.5683 59.8267 57.9345 59.7984 57.4754 59.7984C57.0163 59.7984 56.4244 59.8073 55.6987 59.8267C54.9732 59.8462 54.537 59.8556 54.3902 59.8556V69.5739C54.5373 69.5739 54.8767 69.5787 55.4096 69.5877C55.9421 69.597 56.383 69.6023 56.732 69.6023C57.0807 69.6023 57.5677 69.5877 58.1918 69.5595C58.8165 69.5305 59.3534 69.4923 59.8031 69.4443C60.2535 69.396 60.7765 69.3151 61.3741 69.2C61.9704 69.0846 62.4802 68.9511 62.9028 68.7972C63.3248 68.6438 63.7614 68.4429 64.211 68.1933C64.6607 67.9445 65.0236 67.6567 65.2993 67.3314Z" fill="url(#paint5_linear)"/>
<path d="M68.5483 56.4629L68.4074 56.1981L67.7184 56.5649L68.4757 56.754L68.5483 56.4629ZM73.369 59.4239L73.6101 59.2453L73.61 59.2453L73.369 59.4239ZM72.1572 49.0446L71.8583 49.0707L71.8585 49.0729L72.1572 49.0446ZM71.1514 45.7536L71.4084 45.5987L71.4083 45.5987L71.1514 45.7536ZM68.8784 43.5114L68.7254 43.7694L68.7257 43.7696L68.8784 43.5114ZM65.7655 42.2174L65.8424 41.9274L65.8424 41.9274L65.7655 42.2174ZM61.9089 41.5705H61.6089V41.8441L61.8813 41.8693L61.9089 41.5705ZM61.9089 34.3252H62.2089V34.0252H61.9089V34.3252ZM57.6671 34.3252V34.0252H57.3671V34.3252H57.6671ZM57.6671 41.3692V41.6692H57.9671V41.3692H57.6671ZM54.3068 41.4267H54.0068V41.7345L54.3144 41.7266L54.3068 41.4267ZM54.3068 34.3252H54.6068V34.0252H54.3068V34.3252ZM50.0644 34.3252V34.0252H49.7644V34.3252H50.0644ZM50.0644 41.5705L50.0739 41.8704L50.3644 41.8612V41.5705H50.0644ZM47.3924 41.5995L47.3909 41.8995H47.3924V41.5995ZM41.5527 41.5705L41.5542 41.2705L41.2527 41.269V41.5705H41.5527ZM41.5527 46.2858H41.2527V46.5858H41.5527V46.2858ZM47.0618 48.2409H47.3618V48.2136L47.3569 48.1868L47.0618 48.2409ZM47.0618 56.4926H46.7618V56.7926H47.0618V56.4926ZM47.5027 56.5217V56.8217L47.554 56.2261L47.5027 56.5217ZM47.0618 56.5217V56.2217H46.7618V56.5217H47.0618ZM47.0618 68.0792L47.3585 68.1237L47.3618 68.1016V68.0792H47.0618ZM42.407 69.5456V69.2456H42.1518L42.1109 69.4976L42.407 69.5456ZM41.5529 74.8072L41.2568 74.7592L41.2003 75.1072H41.5529V74.8072ZM48.5773 74.8207L48.5817 74.5208L48.5813 74.5207L48.5773 74.8207ZM50.0646 74.8352H50.3646V74.5352H50.0646V74.8352ZM50.0646 82.1667H49.7646V82.4667H50.0646V82.1667ZM54.3076 82.1667V82.4667H54.6076V82.1667H54.3076ZM54.3076 74.9214L54.3153 74.6215L54.0076 74.6137V74.9214H54.3076ZM57.668 74.9504H57.968V74.6504H57.668V74.9504ZM57.668 82.1667H57.368V82.4667H57.668V82.1667ZM61.9099 82.1667V82.4667H62.2099V82.1667H61.9099ZM61.9099 74.8352L61.8946 74.5356L61.6099 74.5501V74.8352H61.9099ZM65.9176 74.4041L65.864 74.1089L65.864 74.1089L65.9176 74.4041ZM69.2645 73.4117L69.1477 73.1354L69.1476 73.1354L69.2645 73.4117ZM71.9359 71.7297L71.731 71.5106L71.7308 71.5107L71.9359 71.7297ZM73.7132 69.1708L73.9865 69.2946L73.9867 69.2943L73.7132 69.1708ZM74.6077 65.5764L74.9064 65.6045L74.9065 65.6033L74.6077 65.5764ZM54.3902 46.6008H54.0902V46.9008H54.3902V46.6008ZM54.3905 55.4273H54.0905V55.7273H54.3905V55.4273ZM55.341 55.4418L55.3462 55.1418H55.3462L55.341 55.4418ZM56.6221 55.4418L56.6312 55.7416H56.6312L56.6221 55.4418ZM57.9995 55.3842L58.0137 55.6838H58.0137L57.9995 55.3842ZM59.5146 55.2259L59.4587 54.9312L59.4586 54.9312L59.5146 55.2259ZM60.9327 54.9097L60.8606 54.6185L60.8605 54.6186L60.9327 54.9097ZM62.2686 54.378L62.1085 54.1243L62.1084 54.1244L62.2686 54.378ZM63.2882 53.6016L63.0876 53.3786L63.0876 53.3786L63.2882 53.6016ZM64.0317 52.4947L63.7508 52.3895L63.7507 52.3896L64.0317 52.4947ZM63.9347 49.3462L63.663 49.4736L63.6632 49.4739L63.9347 49.3462ZM63.0947 48.1385L62.8872 48.3552L62.8874 48.3554L63.0947 48.1385ZM61.7727 47.3336L61.6612 47.6121L61.6614 47.6122L61.7727 47.3336ZM60.2578 46.8593L60.1966 47.153L60.2578 46.8593ZM58.564 46.6293L58.5896 46.3304L58.5896 46.3304L58.564 46.6293ZM56.9659 46.5573L56.9587 46.2574L56.9586 46.2574L56.9659 46.5573ZM55.4784 46.5863L55.4832 46.8862L55.4833 46.8862L55.4784 46.5863ZM54.3905 46.6007H54.6905V46.3007H54.3905V46.6007ZM54.3902 46.6007V46.3007H54.0902V46.6007H54.3902ZM65.9741 66.1807L66.253 66.2913L66.253 66.2912L65.9741 66.1807ZM65.2993 67.3314L65.5281 67.5254L65.5286 67.525L65.2993 67.3314ZM66.2361 64.7143L66.5361 64.7143V64.7143H66.2361ZM65.8223 62.874L65.5554 63.011L65.5556 63.0113L65.8223 62.874ZM64.8034 61.5514L64.9984 61.3234L64.9982 61.3232L64.8034 61.5514ZM63.2192 60.6747L63.1157 60.9563L63.1158 60.9563L63.2192 60.6747ZM61.4151 60.1426L61.4765 59.8489L61.4764 59.8489L61.4151 60.1426ZM59.3766 59.8846L59.3552 60.1838L59.3555 60.1838L59.3766 59.8846ZM55.6987 59.8267L55.6907 59.5268L55.6906 59.5268L55.6987 59.8267ZM54.3902 59.8556V59.5556H54.0902V59.8556H54.3902ZM54.3902 69.5739H54.0902V69.8739H54.3902V69.5739ZM55.4096 69.5877L55.4148 69.2877L55.4146 69.2877L55.4096 69.5877ZM58.1918 69.5595L58.2054 69.8592L58.2057 69.8592L58.1918 69.5595ZM59.8031 69.4443L59.835 69.7426L59.835 69.7426L59.8031 69.4443ZM61.3741 69.2L61.4309 69.4946L61.4311 69.4945L61.3741 69.2ZM62.9028 68.7972L62.8003 68.5152L62.8001 68.5153L62.9028 68.7972ZM64.211 68.1933L64.0657 67.9309L64.0654 67.931L64.211 68.1933ZM68.4757 56.754C70.5736 57.2778 72.1136 58.2334 73.128 59.6025L73.61 59.2453C72.4947 57.7399 70.8208 56.7211 68.621 56.1719L68.4757 56.754ZM71.8585 49.0729C72.0198 50.7773 71.8045 52.2095 71.233 53.3845C70.6627 54.5567 69.7271 55.4955 68.4074 56.1981L68.6893 56.7278C70.1061 55.9735 71.1399 54.9475 71.7725 53.647C72.4038 52.3492 72.6247 50.8007 72.4558 49.0163L71.8585 49.0729ZM70.8945 45.9085C71.4276 46.7926 71.7512 47.8434 71.8583 49.0707L72.456 49.0185C72.3424 47.7156 71.9961 46.5734 71.4084 45.5987L70.8945 45.9085ZM68.7257 43.7696C69.6394 44.3102 70.36 45.0223 70.8946 45.9086L71.4083 45.5987C70.8214 44.6257 70.0286 43.8433 69.0312 43.2532L68.7257 43.7696ZM65.6886 42.5073C66.7829 42.7977 67.7956 43.2182 68.7254 43.7694L69.0314 43.2533C68.0517 42.6725 66.9875 42.2312 65.8424 41.9274L65.6886 42.5073ZM61.8813 41.8693C63.3195 42.0021 64.5883 42.2155 65.6886 42.5073L65.8424 41.9274C64.7028 41.6251 63.3999 41.407 61.9365 41.2718L61.8813 41.8693ZM61.6089 34.3252V41.5705H62.2089V34.3252H61.6089ZM57.6671 34.6252H61.9089V34.0252H57.6671V34.6252ZM57.9671 41.3692V34.3252H57.3671V41.3692H57.9671ZM54.3144 41.7266C55.8196 41.6883 56.9366 41.6692 57.6671 41.6692V41.0692C56.9286 41.0692 55.8053 41.0885 54.2991 41.1268L54.3144 41.7266ZM54.0068 34.3252V41.4267H54.6068V34.3252H54.0068ZM50.0644 34.6252H54.3068V34.0252H50.0644V34.6252ZM50.3644 41.5705V34.3252H49.7644V41.5705H50.3644ZM47.3924 41.8995C48.5686 41.8995 49.4629 41.8898 50.0739 41.8704L50.0549 41.2707C49.4536 41.2898 48.5668 41.2995 47.3924 41.2995V41.8995ZM41.5512 41.8705L47.3909 41.8995L47.3939 41.2995L41.5542 41.2705L41.5512 41.8705ZM41.8527 46.2858V41.5705H41.2527V46.2858H41.8527ZM44.6102 45.9858H41.5527V46.5858H44.6102V45.9858ZM47.3569 48.1868C47.2281 47.4836 46.936 46.9222 46.4569 46.5401C45.9797 46.1596 45.3532 45.9858 44.6102 45.9858V46.5858C45.2628 46.5858 45.7428 46.738 46.0828 47.0092C46.4209 47.2789 46.6568 47.6949 46.7667 48.2949L47.3569 48.1868ZM47.3618 56.4926V48.2409H46.7618V56.4926H47.3618ZM47.554 56.2261C47.4198 56.2028 47.254 56.1926 47.0618 56.1926V56.7926C47.2374 56.7926 47.365 56.8022 47.4514 56.8172L47.554 56.2261ZM47.0618 56.8217H47.5027V56.2217H47.0618V56.8217ZM47.3618 68.0792V56.5217H46.7618V68.0792H47.3618ZM45.4642 69.8456C45.9775 69.8456 46.4199 69.7078 46.7552 69.3999C47.0878 69.0946 47.2786 68.6555 47.3585 68.1237L46.7651 68.0346C46.6982 68.4802 46.5494 68.7743 46.3495 68.9579C46.1523 69.1389 45.8693 69.2456 45.4642 69.2456V69.8456ZM42.407 69.8456H45.4642V69.2456H42.407V69.8456ZM41.8491 74.8553L42.7031 69.5937L42.1109 69.4976L41.2568 74.7592L41.8491 74.8553ZM47.0623 74.5072H41.5529V75.1072H47.0623V74.5072ZM48.5813 74.5207C47.9198 74.5121 47.4134 74.5072 47.0623 74.5072V75.1072C47.4091 75.1072 47.9121 75.112 48.5734 75.1207L48.5813 74.5207ZM50.0646 74.5352C49.7362 74.5352 49.2424 74.5304 48.5817 74.5208L48.5729 75.1207C49.2343 75.1304 49.7317 75.1352 50.0646 75.1352V74.5352ZM50.3646 82.1667V74.8352H49.7646V82.1667H50.3646ZM54.3076 81.8667H50.0646V82.4667H54.3076V81.8667ZM54.0076 74.9214V82.1667H54.6076V74.9214H54.0076ZM57.668 74.6504C56.1995 74.6504 55.0824 74.6411 54.3153 74.6215L54.3 75.2213C55.075 75.2411 56.1983 75.2504 57.668 75.2504V74.6504ZM57.968 82.1667V74.9504H57.368V82.1667H57.968ZM61.9099 81.8667H57.668V82.4667H61.9099V81.8667ZM61.6099 74.8352V82.1667H62.2099V74.8352H61.6099ZM65.864 74.1089C64.7141 74.3177 63.3914 74.4595 61.8946 74.5356L61.9251 75.1348C63.4407 75.0578 64.7898 74.9137 65.9711 74.6993L65.864 74.1089ZM69.1476 73.1354C68.1038 73.5773 67.0092 73.9012 65.864 74.1089L65.9711 74.6993C67.1583 74.4839 68.2956 74.1476 69.3815 73.688L69.1476 73.1354ZM71.7308 71.5107C71.0447 72.1536 70.1855 72.6966 69.1477 73.1354L69.3814 73.688C70.4731 73.2265 71.395 72.6475 72.1411 71.9486L71.7308 71.5107ZM73.44 69.047C72.9845 70.0521 72.4143 70.8713 71.731 71.5106L72.1409 71.9487C72.8905 71.2474 73.5038 70.3599 73.9865 69.2946L73.44 69.047ZM74.3091 65.5483C74.1834 66.8829 73.8914 68.0476 73.4398 69.0473L73.9867 69.2943C74.4702 68.2236 74.7758 66.9924 74.9064 65.6045L74.3091 65.5483ZM73.1279 59.6025C74.132 60.9579 74.5453 62.924 74.3089 65.5495L74.9065 65.6033C75.1497 62.9017 74.7361 60.7655 73.6101 59.2453L73.1279 59.6025ZM54.3905 46.3008H54.3902V46.9008H54.3905V46.3008ZM54.0905 46.6008V55.4273H54.6905V46.6008H54.0905ZM54.3905 55.7273C54.4792 55.7273 54.7917 55.7322 55.3357 55.7417L55.3462 55.1418C54.8061 55.1324 54.486 55.1273 54.3905 55.1273V55.7273ZM55.3357 55.7417C55.8795 55.7512 56.3118 55.7513 56.6312 55.7416L56.613 55.1419C56.3077 55.1511 55.8863 55.1512 55.3462 55.1418L55.3357 55.7417ZM56.6312 55.7416C56.9459 55.7321 57.4073 55.7124 58.0137 55.6838L57.9854 55.0845C57.3793 55.1131 56.9223 55.1325 56.613 55.1419L56.6312 55.7416ZM58.0137 55.6838C58.628 55.6548 59.148 55.6009 59.5706 55.5207L59.4586 54.9312C59.0731 55.0044 58.5833 55.0563 57.9854 55.0845L58.0137 55.6838ZM59.5705 55.5207C59.9813 55.4428 60.4598 55.3361 61.0049 55.2009L60.8605 54.6186C60.3227 54.7519 59.8555 54.856 59.4587 54.9312L59.5705 55.5207ZM61.0048 55.201C61.5673 55.0617 62.0454 54.8739 62.4288 54.6317L62.1084 54.1244C61.7946 54.3226 61.3812 54.4897 60.8606 54.6185L61.0048 55.201ZM62.4287 54.6317C62.793 54.4018 63.1469 54.1324 63.4889 53.8246L63.0876 53.3786C62.7691 53.6652 62.4422 53.9138 62.1085 54.1243L62.4287 54.6317ZM63.4889 53.8246C63.8568 53.4936 64.1319 53.0833 64.3127 52.5998L63.7507 52.3896C63.6019 52.7876 63.38 53.1155 63.0876 53.3786L63.4889 53.8246ZM64.3127 52.5999C64.492 52.1208 64.5793 51.5956 64.5793 51.028H63.9793C63.9793 51.5338 63.9016 51.9865 63.7508 52.3895L64.3127 52.5999ZM64.5793 51.028C64.5793 50.3589 64.4577 49.7535 64.2061 49.2186L63.6632 49.4739C63.8713 49.9164 63.9793 50.4321 63.9793 51.028H64.5793ZM64.2063 49.2189C63.9642 48.7025 63.664 48.2676 63.302 47.9216L62.8874 48.3554C63.1871 48.6418 63.4468 49.0124 63.663 49.4736L64.2063 49.2189ZM63.3022 47.9218C62.9374 47.5724 62.4611 47.2855 61.884 47.055L61.6614 47.6122C62.1871 47.8221 62.5917 48.0721 62.8872 48.3552L63.3022 47.9218ZM61.8842 47.0551C61.3215 46.8297 60.799 46.6656 60.319 46.5656L60.1966 47.153C60.6346 47.2443 61.123 47.3966 61.6612 47.6121L61.8842 47.0551ZM60.319 46.5656C59.8446 46.4667 59.2673 46.3885 58.5896 46.3304L58.5383 46.9282C59.2012 46.985 59.7531 47.0605 60.1966 47.153L60.319 46.5656ZM58.5896 46.3304C57.9145 46.2725 57.3695 46.2475 56.9587 46.2574L56.9731 46.8572C57.3521 46.8481 57.8723 46.8711 58.5383 46.9282L58.5896 46.3304ZM56.9586 46.2574C56.565 46.267 56.0702 46.2765 55.4734 46.2863L55.4833 46.8862C56.0807 46.8764 56.5773 46.8669 56.9733 46.8572L56.9586 46.2574ZM55.4735 46.2863C54.876 46.296 54.5163 46.3008 54.3905 46.3008L54.3905 46.9008C54.5224 46.9008 54.888 46.8959 55.4832 46.8862L55.4735 46.2863ZM54.0905 46.6007V46.6008H54.6905V46.6007H54.0905ZM54.3902 46.9007H54.3905V46.3007H54.3902V46.9007ZM54.6902 46.6008V46.6007H54.0902V46.6008H54.6902ZM65.6952 66.0701C65.5309 66.4846 65.3221 66.8394 65.0701 67.1379L65.5286 67.525C65.8271 67.1714 66.0675 66.759 66.253 66.2913L65.6952 66.0701ZM65.9361 64.7142C65.936 65.2187 65.8543 65.6686 65.6952 66.0702L66.253 66.2912C66.4434 65.8105 66.536 65.2844 66.5361 64.7143L65.9361 64.7142ZM65.5556 63.0113C65.8068 63.4995 65.9361 64.0648 65.9361 64.7143H66.5361C66.5361 63.9834 66.39 63.3216 66.0891 62.7368L65.5556 63.0113ZM64.6084 61.7794C64.9792 62.0965 65.2956 62.5044 65.5554 63.011L66.0893 62.7371C65.7984 62.17 65.4357 61.6975 64.9984 61.3234L64.6084 61.7794ZM63.1158 60.9563C63.7439 61.1871 64.2384 61.4635 64.6086 61.7796L64.9982 61.3232C64.5601 60.9493 63.9981 60.6412 63.3227 60.3931L63.1158 60.9563ZM61.3537 60.4362C61.8873 60.5479 62.4741 60.7203 63.1157 60.9563L63.3228 60.3931C62.6596 60.1493 62.0444 59.9677 61.4765 59.8489L61.3537 60.4362ZM59.3555 60.1838C60.1549 60.2404 60.8201 60.3249 61.3539 60.4363L61.4764 59.8489C60.9074 59.7302 60.2135 59.643 59.3978 59.5853L59.3555 60.1838ZM57.4754 60.0984C57.9241 60.0984 58.5498 60.1261 59.3552 60.1838L59.3981 59.5853C58.5868 59.5272 57.9449 59.4984 57.4754 59.4984V60.0984ZM55.7067 60.1266C56.4307 60.1073 57.0198 60.0984 57.4754 60.0984V59.4984C57.0127 59.4984 56.418 59.5074 55.6907 59.5268L55.7067 60.1266ZM54.3902 60.1556C54.542 60.1556 54.983 60.1461 55.7068 60.1266L55.6906 59.5268C54.9633 59.5464 54.532 59.5556 54.3902 59.5556V60.1556ZM54.6902 69.5739V59.8556H54.0902V69.5739H54.6902ZM55.4146 69.2877C54.8828 69.2788 54.5404 69.2739 54.3902 69.2739V69.8739C54.5341 69.8739 54.8705 69.8786 55.4045 69.8876L55.4146 69.2877ZM56.732 69.3023C56.3856 69.3023 55.9468 69.2971 55.4148 69.2877L55.4043 69.8876C55.9375 69.897 56.3804 69.9023 56.732 69.9023V69.3023ZM58.1783 69.2598C57.5555 69.2879 57.0739 69.3023 56.732 69.3023V69.9023C57.0876 69.9023 57.5799 69.8874 58.2054 69.8592L58.1783 69.2598ZM59.7712 69.146C59.3294 69.1932 58.7988 69.231 58.1779 69.2598L58.2057 69.8592C58.8341 69.83 59.3774 69.7914 59.835 69.7426L59.7712 69.146ZM61.3174 68.9054C60.7256 69.0194 60.2111 69.0989 59.7711 69.146L59.835 69.7426C60.2958 69.6932 60.8274 69.6108 61.4309 69.4946L61.3174 68.9054ZM62.8001 68.5153C62.3969 68.6622 61.9034 68.792 61.3171 68.9054L61.4311 69.4945C62.0374 69.3772 62.5635 69.2401 63.0055 69.079L62.8001 68.5153ZM64.0654 67.931C63.628 68.1738 63.2058 68.3678 62.8003 68.5152L63.0053 69.0791C63.4438 68.9197 63.8948 68.712 64.3566 68.4557L64.0654 67.931ZM65.0705 67.1374C64.8224 67.4301 64.4898 67.6962 64.0657 67.9309L64.3562 68.4558C64.8316 68.1928 65.2248 67.8833 65.5281 67.5254L65.0705 67.1374Z" fill="#FFE350" fill-opacity="0.5" mask="url(#path-10-inside-1)"/>
</g>
<defs>
<filter id="filter0_dddi" x="41.5527" y="32.8252" width="33.121" height="55.3415" filterUnits="userSpaceOnUse" color-interpolation-filters="sRGB">
<feFlood flood-opacity="0" result="BackgroundImageFix"/>
<feColorMatrix in="SourceAlpha" type="matrix" values="0 0 0 0 0 0 0 0 0 0 0 0 0 0 0 0 0 0 127 0" result="hardAlpha"/>
<feOffset dy="4"/>
<feComposite in2="hardAlpha" operator="out"/>
<feColorMatrix type="matrix" values="0 0 0 0 0.941176 0 0 0 0 0.588235 0 0 0 0 0.0156863 0 0 0 0.8 0"/>
<feBlend mode="normal" in2="BackgroundImageFix" result="effect1_dropShadow"/>
<feColorMatrix in="SourceAlpha" type="matrix" values="0 0 0 0 0 0 0 0 0 0 0 0 0 0 0 0 0 0 127 0" result="hardAlpha"/>
<feOffset dy="-1.5"/>
<feComposite in2="hardAlpha" operator="out"/>
<feColorMatrix type="matrix" values="0 0 0 0 0.988235 0 0 0 0 0.823529 0 0 0 0 0.00392157 0 0 0 1 0"/>
<feBlend mode="normal" in2="effect1_dropShadow" result="effect2_dropShadow"/>
<feColorMatrix in="SourceAlpha" type="matrix" values="0 0 0 0 0 0 0 0 0 0 0 0 0 0 0 0 0 0 127 0" result="hardAlpha"/>
<feOffset dy="6"/>
<feComposite in2="hardAlpha" operator="out"/>
<feColorMatrix type="matrix" values="0 0 0 0 0.933333 0 0 0 0 0.616 0 0 0 0 0 0 0 0 0.5 0"/>
<feBlend mode="normal" in2="effect2_dropShadow" result="effect3_dropShadow"/>
<feBlend mode="normal" in="SourceGraphic" in2="effect3_dropShadow" result="shape"/>
<feColorMatrix in="SourceAlpha" type="matrix" values="0 0 0 0 0 0 0 0 0 0 0 0 0 0 0 0 0 0 127 0" result="hardAlpha"/>
<feOffset dy="1.5"/>
<feComposite in2="hardAlpha" operator="arithmetic" k2="-1" k3="1"/>
<feColorMatrix type="matrix" values="0 0 0 0 0.992157 0 0 0 0 0.952941 0 0 0 0 0.337255 0 0 0 0.75 0"/>
<feBlend mode="normal" in2="shape" result="effect4_innerShadow"/>
</filter>
<linearGradient id="paint0_linear" x1="58.2629" y1="0" x2="58.2629" y2="116.526" gradientUnits="userSpaceOnUse">
<stop stop-color="#F8DF00"/>
<stop offset="0.14" stop-color="#FCE900"/>
<stop offset="0.3" stop-color="#FFEF00"/>
<stop offset="1" stop-color="#F3A700"/>
</linearGradient>
<radialGradient id="paint1_radial" cx="0" cy="0" r="1" gradientUnits="userSpaceOnUse" gradientTransform="translate(57.6792 -8.01479) scale(46.3995)">
<stop stop-color="#FFF77D"/>
<stop offset="1"/>
</radialGradient>
<linearGradient id="paint2_linear" x1="58.2634" y1="106.824" x2="58.2634" y2="22.2754" gradientUnits="userSpaceOnUse">
<stop stop-color="#FFFAB0"/>
<stop offset="1"/>
</linearGradient>
<linearGradient id="paint3_linear" x1="58.2635" y1="103.386" x2="58.2635" y2="-7.48473" gradientUnits="userSpaceOnUse">
<stop stop-color="#FFE100"/>
<stop offset="0.17" stop-color="#FDD600"/>
<stop offset="0.7" stop-color="#F7B900"/>
<stop offset="1" stop-color="#F5AE00"/>
</linearGradient>
<radialGradient id="paint4_radial" cx="0" cy="0" r="1" gradientUnits="userSpaceOnUse" gradientTransform="translate(58.4794 22.5581) scale(82.7965)">
<stop offset="0.31" stop-color="#FFDF00"/>
<stop offset="1" stop-color="#F3A700"/>
</radialGradient>
<linearGradient id="paint5_linear" x1="58.1132" y1="34.3252" x2="58.1132" y2="82.1667" gradientUnits="userSpaceOnUse">
<stop stop-color="#FEE40D"/>
<stop offset="1" stop-color="#FEC90D"/>
</linearGradient>
</defs>
</svg>
