<svg xmlns="http://www.w3.org/2000/svg" width="86.294" height="86.304" viewBox="0 0 86.294 86.304">
  <g id="Group_2711" data-name="Group 2711" transform="translate(-7763.808 5835)">
    <g id="Bitcoin" transform="translate(7763.81 -5835.002)">
      <path id="Path_383" data-name="Path 383" d="M85,53.593a43.136,43.136,0,1,1-31.422-52.3A43.14,43.14,0,0,1,85,53.593Z" transform="translate(0 0)" fill="#f7931a"/>
      <path id="Path_384" data-name="Path 384" d="M46.1,27.444c.637-4.258-2.6-6.547-7.038-8.074L40.5,13.6l-3.511-.875-1.4,5.616c-.923-.23-1.871-.447-2.813-.662l1.41-5.653-3.509-.875-1.439,5.766c-.764-.174-1.514-.346-2.242-.527l0-.018-4.842-1.209-.934,3.75s2.6.6,2.55.634a1.868,1.868,0,0,1,1.636,2.042l-1.638,6.571a2.908,2.908,0,0,1,.365.117l-.371-.092-2.3,9.2a1.278,1.278,0,0,1-1.609.834c.035.051-2.552-.637-2.552-.637l-1.743,4.019,4.569,1.139c.85.213,1.683.436,2.5.646l-1.453,5.834,3.507.875,1.439-5.772c.958.26,1.888.5,2.8.726L27.5,50.8l3.511.875,1.453-5.823c5.987,1.133,10.489.676,12.384-4.739,1.527-4.36-.076-6.875-3.226-8.515,2.294-.529,4.022-2.038,4.483-5.155ZM38.081,38.693c-1.085,4.36-8.426,2-10.806,1.412L29.2,32.376C31.583,32.97,39.215,34.146,38.081,38.693Zm1.086-11.312c-.99,3.966-7.1,1.951-9.082,1.457l1.748-7.01C33.815,22.322,40.2,23.244,39.167,27.381Z" transform="translate(10.403 10.593)" fill="#fff"/>
    </g>
  </g>
</svg>
