<svg width="117" height="117" viewBox="0 0 117 117" fill="none" xmlns="http://www.w3.org/2000/svg">
<path d="M58.2629 116.526C90.4406 116.526 116.526 90.4406 116.526 58.2629C116.526 26.0852 90.4406 0 58.2629 0C26.0852 0 0 26.0852 0 58.2629C0 90.4406 26.0852 116.526 58.2629 116.526Z" fill="url(#paint0_linear)"/>
<path style="mix-blend-mode:screen" d="M58.2634 116.255C90.2914 116.255 116.255 90.2914 116.255 58.2634C116.255 26.2353 90.2914 0.271484 58.2634 0.271484C26.2353 0.271484 0.271484 26.2353 0.271484 58.2634C0.271484 90.2914 26.2353 116.255 58.2634 116.255Z" fill="url(#paint1_radial)"/>
<path opacity="0.4" d="M58.2629 114.773C42.9613 114.777 28.2727 108.76 17.3709 98.0223C6.46904 87.285 0.22935 72.6895 0 57.3896C0 57.6787 0 57.9918 0 58.2628C0 73.7151 6.13839 88.5345 17.0648 99.4609C27.9912 110.387 42.8106 116.526 58.2629 116.526C73.7152 116.526 88.5346 110.387 99.461 99.4609C110.387 88.5345 116.526 73.7151 116.526 58.2628C116.526 57.9678 116.526 57.6606 116.526 57.3896C116.296 72.6895 110.057 87.285 99.1549 98.0223C88.2531 108.76 73.5645 114.777 58.2629 114.773Z" fill="white"/>
<path d="M58.2629 2.19224C73.525 2.19269 88.1777 8.18181 99.0705 18.872C109.963 29.5621 116.227 44.0997 116.514 59.3591C116.514 58.9918 116.514 58.6305 116.514 58.2631C116.294 42.9575 110.059 28.3533 99.1577 17.6076C88.2564 6.86187 73.564 0.837891 58.2569 0.837891C42.9497 0.837891 28.2574 6.86187 17.356 17.6076C6.45466 28.3533 0.220077 42.9575 0 58.2631C0 58.6305 0 58.9918 0 59.3591C0.287141 44.0976 6.55207 29.5582 17.4475 18.8677C28.343 8.17725 42.9986 2.18953 58.2629 2.19224Z" fill="white"/>
<path style="mix-blend-mode:screen" opacity="0.7" d="M58.2634 0.216797C43.1492 0.217525 28.632 6.11647 17.8012 16.6583C6.97033 27.2001 0.68095 41.5524 0.271484 56.661C6.68492 60.4609 16.7718 57.4198 23.3659 54.1198C29.0386 51.5002 36.0121 52.3734 42.1244 52.813C57.3902 54.1197 72.2344 60.6416 87.4882 56.7393C90.5413 55.8661 94.9012 51.9217 97.9544 54.5533C100.48 56.6251 103.546 57.9284 106.791 58.3084C110.035 58.6884 113.32 58.1292 116.255 56.6972C115.855 41.5822 109.57 27.2207 98.7379 16.6712C87.906 6.1217 73.3836 0.217777 58.2634 0.216797Z" fill="url(#paint2_linear)"/>
<path d="M58.2635 103.386C83.1842 103.386 103.386 83.1842 103.386 58.2635C103.386 33.3428 83.1842 13.1406 58.2635 13.1406C33.3428 13.1406 13.1406 33.3428 13.1406 58.2635C13.1406 83.1842 33.3428 103.386 58.2635 103.386Z" fill="url(#paint3_linear)"/>
<path d="M58.2629 101.194C81.973 101.194 101.194 81.973 101.194 58.2629C101.194 34.5528 81.973 15.332 58.2629 15.332C34.5528 15.332 15.332 34.5528 15.332 58.2629C15.332 81.973 34.5528 101.194 58.2629 101.194Z" fill="#A2BCBB"/>
<path d="M58.0398 99.2183C80.782 99.2183 99.2183 80.782 99.2183 58.0398C99.2183 35.2976 80.782 16.8613 58.0398 16.8613C35.2976 16.8613 16.8613 35.2976 16.8613 58.0398C16.8613 80.782 35.2976 99.2183 58.0398 99.2183Z" fill="url(#paint4_radial)"/>
<path opacity="0.25" d="M58.2641 96.3518C35.8863 96.3518 17.6818 79.3818 17.0977 57.1426C17.0977 57.5099 17.0977 57.8712 17.0977 58.2386C17.0977 69.1598 21.4361 79.6337 29.1585 87.3562C36.881 95.0786 47.3549 99.417 58.2761 99.417C69.1973 99.417 79.6712 95.0786 87.3937 87.3562C95.1161 79.6337 99.4546 69.1598 99.4546 58.2386C99.4546 57.8712 99.4546 57.5099 99.4546 57.1426C98.8464 79.4059 80.6418 96.3518 58.2641 96.3518Z" fill="white"/>
<g filter="url(#filter0_ddi)">
<path fill-rule="evenodd" clip-rule="evenodd" d="M59.7146 35.8385C60.3282 34.6729 58.9184 33.2616 57.7633 33.87C56.8238 34.2482 56.5853 35.622 57.3166 36.3171C58.0069 37.0413 59.3582 36.7887 59.7146 35.8385ZM46.855 36.3533C46.9265 35.5809 46.0383 34.9316 45.3367 35.2233C44.36 35.4862 44.2516 37.0398 45.1992 37.4105C45.9143 37.809 46.9294 37.1919 46.855 36.3533ZM70.7813 37.4346C69.6848 37.3008 69.5113 35.5595 70.5669 35.2089C71.3857 34.8056 72.1368 35.5619 72.2566 36.3459C72.0849 37.0152 71.5301 37.6281 70.7813 37.4346ZM50.8344 42.3075C51.0149 40.9313 49.341 39.8152 48.168 40.5646C47.0695 41.132 46.9184 42.8248 47.9152 43.5627C48.9462 44.5022 50.7735 43.6971 50.8344 42.3075ZM66.0717 41.357C66.595 39.9946 68.7155 39.9534 69.3112 41.2796C69.9 42.3116 69.1758 43.5897 68.1268 43.9405C66.7373 44.2026 65.4175 42.6853 66.0717 41.357ZM58.4107 41.7416C57.309 41.8214 56.2531 42.6939 56.2645 43.8648C56.2017 44.8217 56.8784 45.6032 57.6821 46.0017C57.7629 46.0066 57.8449 46.0132 57.9274 46.0198C58.3813 46.0562 58.8528 46.094 59.2613 45.8628C60.3169 45.3912 60.8357 43.9764 60.2515 42.9489C59.938 42.2041 59.1415 41.8896 58.4107 41.7416ZM37.7956 45.5703C38.8671 44.905 40.3128 46.1193 39.9071 47.295C39.6838 48.3121 38.3303 48.7259 37.5566 48.0765C36.7307 47.4682 36.8616 46.0055 37.7956 45.5703ZM79.768 46.8334C79.8764 45.674 78.3761 44.856 77.467 45.569C76.5341 46.1477 76.6356 47.6923 77.6295 48.1435C78.5319 48.6879 79.829 47.8906 79.768 46.8334ZM61.4594 47.6747C62.9597 47.1303 64.7416 47.7817 65.5967 49.1328C66.7246 50.7844 66.1245 53.2998 64.3741 54.2475C62.5604 55.3684 59.912 54.4183 59.2422 52.3724C58.4817 50.5409 59.5896 48.2488 61.4594 47.6747ZM57.3623 49.443C56.5592 47.725 54.3215 47.0599 52.6588 47.8527C50.8867 48.6521 50.0714 51.0104 50.9895 52.7466C51.8083 54.5419 54.1951 55.2777 55.8869 54.3072C57.5767 53.4438 58.3074 51.1153 57.3623 49.443ZM43.8456 50.8976C43.972 49.8155 44.9826 49.1114 46.0022 49.0386C47.1008 49.1724 47.9784 50.0342 48.0979 51.1573C48.0258 52.269 47.1752 53.3557 46.0088 53.349C44.7256 53.4606 43.6005 52.1711 43.8456 50.8976ZM72.967 51.1544C73.0256 49.6256 71.1963 48.498 69.8788 49.2726C68.4644 49.9462 68.3582 52.1744 69.7209 52.9655C71.0328 53.9157 73.0574 52.7742 72.967 51.1544ZM49.0782 54.9839C50.619 54.5556 52.3808 55.2892 53.1365 56.7198C53.9642 58.1597 53.6259 60.1601 52.3402 61.2162C50.6913 62.7654 47.6503 62.1434 46.7727 60.0292C45.7642 58.0912 46.9892 55.494 49.0782 54.9839ZM69.839 56.504C69.0337 55.1256 67.2741 54.5424 65.7762 54.9752C63.6716 55.5574 62.5571 58.2547 63.6647 60.1633C64.5783 62.0084 67.1501 62.628 68.8104 61.448C70.3954 60.4317 70.9036 58.0804 69.839 56.504ZM39.1659 56.7725C40.4968 56.264 41.9721 57.7476 41.4329 59.0804C41.1036 60.2947 39.4094 60.7436 38.5342 59.8483C37.5101 59.0076 37.8892 57.1371 39.1659 56.7725ZM77.1433 56.5461C76.0124 56.6076 75.2056 57.5942 75.244 58.7081C75.465 59.2276 75.7334 59.7699 76.2567 60.0386C77.3733 60.6606 78.9525 59.7608 78.869 58.437C78.9411 57.4347 78.0548 56.692 77.1433 56.5461ZM32.6235 57.4261C33.4243 57.0731 34.4147 57.7741 34.2319 58.6723C34.189 59.6893 32.7025 60.0804 32.1564 59.2306C31.6739 58.6404 31.9627 57.7304 32.6235 57.4261ZM84.8028 57.9596C84.5794 57.2942 83.6748 57.0027 83.111 57.4082C82.1727 57.9138 82.5405 59.6636 83.6772 59.559C84.487 59.6818 85.1817 58.6862 84.8028 57.9596ZM53.4237 62.2892C55.5308 61.7357 57.7957 63.5104 57.809 65.7019C57.9465 67.9164 55.7157 69.8801 53.5589 69.3686C51.8917 69.0975 50.5835 67.4753 50.6376 65.7736C50.6331 64.1461 51.849 62.6334 53.4237 62.2892ZM66.2111 65.7289C66.245 63.4869 63.9125 61.6803 61.7739 62.2841C60.506 62.6023 59.4324 63.6579 59.1523 64.956C58.5975 66.9039 60.0638 69.1093 62.0511 69.3689C64.1629 69.8001 66.3239 67.9025 66.2111 65.7289ZM45.6847 63.6345C47.1645 63.3794 48.5519 65.0471 47.9517 66.4664C47.514 67.9789 45.3349 68.3892 44.3715 67.1537C43.2414 65.9673 44.085 63.7983 45.6847 63.6345ZM72.9944 65.7415C73.0959 64.2949 71.4761 63.1418 70.1566 63.7001C68.5617 64.2122 68.2957 66.6681 69.7573 67.5026C71.0477 68.4321 73.0474 67.334 72.9944 65.7415ZM76.9966 70.6311C76.4799 69.6583 77.4184 68.3687 78.4878 68.5489C78.9907 68.5403 79.3508 68.9179 79.6763 69.2593L79.7332 69.3189L79.7454 69.4175C79.8145 69.9723 79.8938 70.6083 79.4468 71.0275C78.8034 71.85 77.3461 71.6153 76.9966 70.6311ZM39.9985 70.3277C40.2232 69.1474 38.7849 68.145 37.7855 68.8171C36.8334 69.3071 36.7995 70.8381 37.7198 71.3758C38.5772 71.9681 39.879 71.3715 39.9985 70.3277ZM57.531 71.0049C58.8394 70.4217 60.5063 71.5723 60.3823 73.028C60.4793 74.6365 58.4176 75.7505 57.1383 74.7845C55.7173 73.9551 55.9542 71.515 57.531 71.0049ZM50.896 74.8491C50.9975 73.5893 49.502 72.5663 48.3876 73.1586C47.6025 73.4549 47.2824 74.3298 47.2686 75.1154C47.537 75.8361 48.0828 76.5941 48.9199 76.6123C49.9305 76.7651 50.9299 75.8835 50.896 74.8491ZM66.9136 73.1752C68.0596 72.4598 69.6884 73.4872 69.58 74.8346C69.6094 76.2426 67.7687 77.1446 66.7016 76.2196C65.6685 75.4946 65.7946 73.7517 66.9136 73.1752ZM71.0491 79.3274C70.2213 79.5051 69.6212 80.4437 70.131 81.2228C70.6543 82.1275 72.1816 81.8039 72.2785 80.7491C72.4184 79.9697 71.7147 79.4641 71.0491 79.3274ZM44.5646 80.5444C44.7675 79.927 45.2593 79.3133 45.979 79.4738C47.028 79.549 47.3393 81.1461 46.4212 81.6383C45.5956 82.2006 44.6377 81.4306 44.5646 80.5444ZM59.0401 80.3821C58.2686 79.8969 57.0979 80.3412 56.8971 81.2546C56.5301 82.1775 57.4114 83.293 58.3883 83.1774C58.914 83.1911 59.3199 82.8129 59.6358 82.4347C59.6973 82.1796 59.7598 81.9243 59.8297 81.6692L59.8254 81.653C59.6955 81.1668 59.5443 80.6008 59.0401 80.3821Z" fill="url(#paint5_linear)"/>
</g>
<defs>
<filter id="filter0_ddi" x="31.916" y="33.4236" width="52.9931" height="50.7621" filterUnits="userSpaceOnUse" color-interpolation-filters="sRGB">
<feFlood flood-opacity="0" result="BackgroundImageFix"/>
<feColorMatrix in="SourceAlpha" type="matrix" values="0 0 0 0 0 0 0 0 0 0 0 0 0 0 0 0 0 0 127 0" result="hardAlpha"/>
<feOffset dy="1"/>
<feComposite in2="hardAlpha" operator="out"/>
<feColorMatrix type="matrix" values="0 0 0 0 0.496383 0 0 0 0 0.67946 0 0 0 0 0.672418 0 0 0 0.5 0"/>
<feBlend mode="normal" in2="BackgroundImageFix" result="effect1_dropShadow"/>
<feColorMatrix in="SourceAlpha" type="matrix" values="0 0 0 0 0 0 0 0 0 0 0 0 0 0 0 0 0 0 127 0" result="hardAlpha"/>
<feOffset dy="-0.3"/>
<feComposite in2="hardAlpha" operator="out"/>
<feColorMatrix type="matrix" values="0 0 0 0 0.79309 0 0 0 0 0.97946 0 0 0 0 0.970585 0 0 0 0.25 0"/>
<feBlend mode="normal" in2="effect1_dropShadow" result="effect2_dropShadow"/>
<feBlend mode="normal" in="SourceGraphic" in2="effect2_dropShadow" result="shape"/>
<feColorMatrix in="SourceAlpha" type="matrix" values="0 0 0 0 0 0 0 0 0 0 0 0 0 0 0 0 0 0 127 0" result="hardAlpha"/>
<feOffset dy="0.5"/>
<feComposite in2="hardAlpha" operator="arithmetic" k2="-1" k3="1"/>
<feColorMatrix type="matrix" values="0 0 0 0 0.947222 0 0 0 0 0.995202 0 0 0 0 1 0 0 0 1 0"/>
<feBlend mode="normal" in2="shape" result="effect3_innerShadow"/>
</filter>
<linearGradient id="paint0_linear" x1="58.2629" y1="0" x2="58.2629" y2="116.526" gradientUnits="userSpaceOnUse">
<stop stop-color="#DBECEA"/>
<stop offset="0.05" stop-color="#DDEDEB"/>
<stop offset="0.32" stop-color="#E4F2F1"/>
<stop offset="0.62" stop-color="#D1E4E6"/>
<stop offset="1" stop-color="#B2CED4"/>
</linearGradient>
<radialGradient id="paint1_radial" cx="0" cy="0" r="1" gradientUnits="userSpaceOnUse" gradientTransform="translate(57.6792 -8.01479) scale(46.3995)">
<stop stop-color="white"/>
<stop offset="1"/>
</radialGradient>
<linearGradient id="paint2_linear" x1="11221.7" y1="10325.7" x2="11221.7" y2="2153.32" gradientUnits="userSpaceOnUse">
<stop stop-color="white"/>
<stop offset="1"/>
</linearGradient>
<linearGradient id="paint3_linear" x1="58.2635" y1="103.386" x2="58.2635" y2="-7.48473" gradientUnits="userSpaceOnUse">
<stop stop-color="#E4F2F1"/>
<stop offset="0.43" stop-color="#D1E5E6"/>
<stop offset="1" stop-color="#B2D1D4"/>
</linearGradient>
<radialGradient id="paint4_radial" cx="0" cy="0" r="1" gradientUnits="userSpaceOnUse" gradientTransform="translate(58.9431 39.4318) scale(58.1786)">
<stop offset="0.29" stop-color="#E4F2F1"/>
<stop offset="0.6" stop-color="#D1E4E6"/>
<stop offset="1" stop-color="#B2CCD4"/>
</radialGradient>
<linearGradient id="paint5_linear" x1="58.4126" y1="33.7236" x2="58.4126" y2="83.1857" gradientUnits="userSpaceOnUse">
<stop offset="0.336799" stop-color="#F5FAF9"/>
<stop offset="1" stop-color="#84BCBA"/>
</linearGradient>
</defs>
</svg>
