<svg width="117" height="117" viewBox="0 0 117 117" fill="none" xmlns="http://www.w3.org/2000/svg">
<path d="M58.2629 116.526C90.4406 116.526 116.526 90.4406 116.526 58.2629C116.526 26.0852 90.4406 0 58.2629 0C26.0852 0 0 26.0852 0 58.2629C0 90.4406 26.0852 116.526 58.2629 116.526Z" fill="url(#paint0_linear)"/>
<path opacity="0.3" d="M58.2629 114.773C42.9613 114.777 28.2727 108.76 17.3709 98.0223C6.46904 87.285 0.22935 72.6895 0 57.3896C0 57.6787 0 57.9918 0 58.2628C0 73.7151 6.13839 88.5345 17.0648 99.4609C27.9912 110.387 42.8106 116.526 58.2629 116.526C73.7152 116.526 88.5346 110.387 99.461 99.4609C110.387 88.5345 116.526 73.7151 116.526 58.2628C116.526 57.9678 116.526 57.6606 116.526 57.3896C116.296 72.6895 110.057 87.285 99.1549 98.0223C88.2531 108.76 73.5645 114.777 58.2629 114.773Z" fill="#6B8BF6"/>
<path d="M58.2629 2.19224C73.525 2.19269 88.1777 8.18181 99.0705 18.872C109.963 29.5621 116.227 44.0997 116.514 59.3591C116.514 58.9918 116.514 58.6305 116.514 58.2631C116.294 42.9575 110.059 28.3533 99.1577 17.6076C88.2564 6.86187 73.564 0.837891 58.2569 0.837891C42.9497 0.837891 28.2574 6.86187 17.356 17.6076C6.45466 28.3533 0.220077 42.9575 0 58.2631C0 58.6305 0 58.9918 0 59.3591C0.287141 44.0976 6.55207 29.5582 17.4475 18.8677C28.343 8.17725 42.9986 2.18953 58.2629 2.19224Z" fill="#6B8BF6"/>
<path style="mix-blend-mode:screen" d="M58.2634 116.255C90.2914 116.255 116.255 90.2914 116.255 58.2634C116.255 26.2353 90.2914 0.271484 58.2634 0.271484C26.2353 0.271484 0.271484 26.2353 0.271484 58.2634C0.271484 90.2914 26.2353 116.255 58.2634 116.255Z" fill="url(#paint1_radial)"/>
<path style="mix-blend-mode:screen" opacity="0.7" d="M58.2634 0.216797C43.1492 0.217525 28.632 6.11647 17.8012 16.6583C6.97033 27.2001 0.68095 41.5524 0.271484 56.661C6.68492 60.4609 16.7718 57.4198 23.3659 54.1198C29.0386 51.5002 36.0121 52.3734 42.1244 52.813C57.3902 54.1197 72.2344 60.6416 87.4882 56.7393C90.5413 55.8661 94.9012 51.9217 97.9544 54.5533C100.48 56.6251 103.546 57.9284 106.791 58.3084C110.035 58.6884 113.32 58.1292 116.255 56.6972C115.855 41.5822 109.57 27.2207 98.7379 16.6712C87.906 6.1217 73.3836 0.217777 58.2634 0.216797Z" fill="url(#paint2_linear)"/>
<path d="M58.2635 103.386C83.1842 103.386 103.386 83.1842 103.386 58.2635C103.386 33.3428 83.1842 13.1406 58.2635 13.1406C33.3428 13.1406 13.1406 33.3428 13.1406 58.2635C13.1406 83.1842 33.3428 103.386 58.2635 103.386Z" fill="url(#paint3_linear)"/>
<path d="M58.2629 101.194C81.973 101.194 101.194 81.973 101.194 58.2629C101.194 34.5528 81.973 15.332 58.2629 15.332C34.5528 15.332 15.332 34.5528 15.332 58.2629C15.332 81.973 34.5528 101.194 58.2629 101.194Z" fill="#224DDA"/>
<path d="M58.0398 99.2183C80.782 99.2183 99.2183 80.782 99.2183 58.0398C99.2183 35.2976 80.782 16.8613 58.0398 16.8613C35.2976 16.8613 16.8613 35.2976 16.8613 58.0398C16.8613 80.782 35.2976 99.2183 58.0398 99.2183Z" fill="url(#paint4_radial)"/>
<path opacity="0.25" d="M58.2641 96.3518C35.8863 96.3518 17.6818 79.3818 17.0977 57.1426C17.0977 57.5099 17.0977 57.8712 17.0977 58.2386C17.0977 69.1598 21.4361 79.6337 29.1585 87.3562C36.881 95.0786 47.3549 99.417 58.2761 99.417C69.1973 99.417 79.6712 95.0786 87.3937 87.3562C95.1161 79.6337 99.4546 69.1598 99.4546 58.2386C99.4546 57.8712 99.4546 57.5099 99.4546 57.1426C98.8464 79.4059 80.6418 96.3518 58.2641 96.3518Z" fill="#6B8BF6"/>
<g filter="url(#filter0_dddi)">
<path fill-rule="evenodd" clip-rule="evenodd" d="M58.4129 31.917L81.2965 45.1654V71.6622L58.4129 84.9106L35.5293 71.6622V45.1654L58.4129 31.917ZM44.6075 50.4212V66.4064L58.4129 74.399L72.2183 66.4064V50.4212L58.4129 42.4286L44.6075 50.4212Z" fill="#142E83"/>
</g>
<defs>
<filter id="filter0_dddi" x="35.5293" y="30.917" width="45.7672" height="59.9936" filterUnits="userSpaceOnUse" color-interpolation-filters="sRGB">
<feFlood flood-opacity="0" result="BackgroundImageFix"/>
<feColorMatrix in="SourceAlpha" type="matrix" values="0 0 0 0 0 0 0 0 0 0 0 0 0 0 0 0 0 0 127 0" result="hardAlpha"/>
<feOffset dy="3"/>
<feComposite in2="hardAlpha" operator="out"/>
<feColorMatrix type="matrix" values="0 0 0 0 0.0188784 0 0 0 0 0.0509248 0 0 0 0 0.15446 0 0 0 0.8 0"/>
<feBlend mode="normal" in2="BackgroundImageFix" result="effect1_dropShadow"/>
<feColorMatrix in="SourceAlpha" type="matrix" values="0 0 0 0 0 0 0 0 0 0 0 0 0 0 0 0 0 0 127 0" result="hardAlpha"/>
<feOffset dy="-1"/>
<feComposite in2="hardAlpha" operator="out"/>
<feColorMatrix type="matrix" values="0 0 0 0 0.287823 0 0 0 0 0.436528 0 0 0 0 0.91696 0 0 0 0.5 0"/>
<feBlend mode="normal" in2="effect1_dropShadow" result="effect2_dropShadow"/>
<feColorMatrix in="SourceAlpha" type="matrix" values="0 0 0 0 0 0 0 0 0 0 0 0 0 0 0 0 0 0 127 0" result="hardAlpha"/>
<feOffset dy="6"/>
<feComposite in2="hardAlpha" operator="out"/>
<feColorMatrix type="matrix" values="0 0 0 0 0.0784314 0 0 0 0 0.180392 0 0 0 0 0.509804 0 0 0 0.5 0"/>
<feBlend mode="normal" in2="effect2_dropShadow" result="effect3_dropShadow"/>
<feBlend mode="normal" in="SourceGraphic" in2="effect3_dropShadow" result="shape"/>
<feColorMatrix in="SourceAlpha" type="matrix" values="0 0 0 0 0 0 0 0 0 0 0 0 0 0 0 0 0 0 127 0" result="hardAlpha"/>
<feOffset dy="1"/>
<feComposite in2="hardAlpha" operator="arithmetic" k2="-1" k3="1"/>
<feColorMatrix type="matrix" values="0 0 0 0 0.280773 0 0 0 0 0.409714 0 0 0 0 0.808626 0 0 0 0.4 0"/>
<feBlend mode="normal" in2="shape" result="effect4_innerShadow"/>
</filter>
<linearGradient id="paint0_linear" x1="58.2629" y1="0" x2="58.2629" y2="116.526" gradientUnits="userSpaceOnUse">
<stop stop-color="#2E5BEF"/>
<stop offset="0.14" stop-color="#4870F3"/>
<stop offset="0.3" stop-color="#355EE5"/>
<stop offset="1" stop-color="#142E82"/>
</linearGradient>
<radialGradient id="paint1_radial" cx="0" cy="0" r="1" gradientUnits="userSpaceOnUse" gradientTransform="translate(57.6792 -8.01479) scale(46.3995)">
<stop stop-color="#7494FD"/>
<stop offset="1"/>
</radialGradient>
<linearGradient id="paint2_linear" x1="58.2634" y1="106.824" x2="58.2634" y2="22.2754" gradientUnits="userSpaceOnUse">
<stop stop-color="#4E6CC0"/>
<stop offset="1"/>
</linearGradient>
<linearGradient id="paint3_linear" x1="58.2635" y1="103.386" x2="58.2635" y2="-7.48473" gradientUnits="userSpaceOnUse">
<stop stop-color="#4A71F4"/>
<stop offset="0.17" stop-color="#335BE0"/>
<stop offset="0.7" stop-color="#224DDA"/>
<stop offset="1" stop-color="#142E82"/>
</linearGradient>
<radialGradient id="paint4_radial" cx="0" cy="0" r="1" gradientUnits="userSpaceOnUse" gradientTransform="translate(58.4794 22.5581) scale(82.7965)">
<stop offset="0.31" stop-color="#355EE5"/>
<stop offset="1" stop-color="#0C2B92"/>
</radialGradient>
</defs>
</svg>
