<svg xmlns="http://www.w3.org/2000/svg" width="86.294" height="86.304" viewBox="0 0 86.294 86.304">
  <g id="Group_2711" data-name="Group 2711" transform="translate(-7763.807 5835)">
    <g id="Eth" transform="translate(7763.807 -5835)">
      <g id="Bitcoin" transform="translate(0 0)">
        <path id="Path_383" data-name="Path 383" d="M85,53.593a43.137,43.137,0,1,1-31.422-52.3A43.14,43.14,0,0,1,85,53.593Z" transform="translate(0.002 -0.002)" fill="#5f668b"/>
      </g>
      <path id="path4542" d="M19.732,55.4c-5.136-7.261-9.32-13.221-9.3-13.244s4.244,2.42,9.384,5.429l9.346,5.472v7.773c0,4.275-.021,7.773-.047,7.773S24.867,62.657,19.732,55.4ZM30.4,60.857v-7.79l9.349-5.476c5.142-3.012,9.367-5.458,9.39-5.435.042.042-18.361,26.113-18.6,26.355-.1.1-.136-2-.136-7.654ZM19.7,43.549c-5.169-3.027-9.413-5.544-9.429-5.593-.034-.1,18.763-8.358,18.842-8.279.027.027.035,4.4.018,9.713L29.1,49.053Zm10.7-4.188c0-5.346.034-9.719.075-9.719.117,0,18.774,8.176,18.864,8.267.062.062-14.186,8.479-18.21,10.759l-.73.413Zm9.247-7.1L30.4,28.22l0-11.433c0-6.288.044-11.38.1-11.316.243.273,18.556,30.849,18.474,30.845-.05,0-4.249-1.825-9.332-4.05ZM10.86,36.14c0-.069,18.139-30.6,18.256-30.726.026-.028.047,5.092.046,11.378V28.22l-9.039,3.957c-10.191,4.462-9.262,4.064-9.262,3.962Z" transform="translate(13.342 6.413)" fill="#5f668b"/>
      <path id="path4542-2" data-name="path4542" d="M18.934,51.182c-4.7-6.649-8.534-12.106-8.515-12.128s3.886,2.216,8.593,4.971l8.558,5.01v7.117c0,3.914-.019,7.117-.043,7.117S23.637,57.831,18.934,51.182Zm9.768,5V49.05l8.561-5.014c4.709-2.758,8.578-5,8.6-4.977C45.9,39.1,29.048,62.97,28.827,63.192c-.09.09-.124-1.835-.124-7.009Zm-9.8-15.849c-4.734-2.772-8.619-5.076-8.634-5.122-.031-.091,17.181-7.654,17.254-7.581.025.025.032,4.027.016,8.894l-.029,8.849ZM28.7,36.5c0-4.895.031-8.9.069-8.9.107,0,17.191,7.487,17.274,7.57.056.057-12.99,7.765-16.675,9.851L28.7,45.4ZM37.17,30l-8.462-3.7,0-10.469c0-5.758.041-10.421.093-10.362.222.25,16.992,28.248,16.916,28.244-.045,0-3.891-1.671-8.545-3.709ZM10.81,33.549c0-.063,16.61-28.02,16.717-28.136.024-.026.043,4.662.042,10.418V26.3l-8.277,3.624c-9.332,4.086-8.481,3.722-8.481,3.628Z" transform="translate(13.342 5.932)" fill="#fff"/>
    </g>
  </g>
</svg>
