<svg width="174" height="50" viewBox="0 0 174 50" fill="none" xmlns="http://www.w3.org/2000/svg">
<path d="M40.8691 0.779365H47.1251C50.5094 0.779365 52.9458 1.09532 54.4343 1.72724C55.9368 2.34511 57.1164 3.35618 57.973 4.76044C58.8437 6.15066 59.279 7.82173 59.279 9.77365C59.279 11.9362 58.7103 13.7337 57.5728 15.166C56.4494 16.5983 54.9188 17.5954 52.9809 18.1571C51.8434 18.4801 49.7721 18.6415 46.767 18.6415V31.7644H40.8691V0.779365ZM46.767 12.8911H48.6417C50.1162 12.8911 51.1413 12.7858 51.717 12.5751C52.2928 12.3645 52.7422 12.0205 53.0651 11.543C53.4022 11.0515 53.5707 10.4617 53.5707 9.77365C53.5707 8.58003 53.1073 7.70938 52.1805 7.16172C51.5064 6.75449 50.2566 6.55087 48.4311 6.55087H46.767V12.8911Z" fill="white"/>
<path d="M80.358 0C84.7393 0 88.5027 1.58681 91.6483 4.76044C94.8079 7.93407 96.3877 11.8028 96.3877 16.3666C96.3877 20.8884 94.8289 24.715 91.7115 27.8465C88.6081 30.978 84.8376 32.5437 80.4002 32.5437C75.7521 32.5437 71.8904 30.9358 68.815 27.7201C65.7397 24.5043 64.202 20.6847 64.202 16.2613C64.202 13.2983 64.9182 10.5741 66.3506 8.08853C67.7829 5.603 69.7489 3.63703 72.2484 2.19064C74.7621 0.730215 77.4653 0 80.358 0ZM80.2948 5.77151C77.4302 5.77151 75.0219 6.76853 73.0699 8.76258C71.118 10.7566 70.1421 13.2913 70.1421 16.3666C70.1421 19.793 71.3708 22.5033 73.8282 24.4973C75.738 26.056 77.9287 26.8354 80.4002 26.8354C83.1946 26.8354 85.5749 25.8243 87.5408 23.8022C89.5068 21.7801 90.4898 19.2875 90.4898 16.3245C90.4898 13.3756 89.4998 10.883 87.5198 8.84684C85.5398 6.79662 83.1315 5.77151 80.2948 5.77151Z" fill="white"/>
<path d="M102.596 0.779365H108.494V26.1403H117.088V31.7644H102.596V0.779365Z" fill="white"/>
<path d="M122.242 0.779365H128.14V26.1403H136.734V31.7644H122.242V0.779365Z" fill="white"/>
<path d="M156.528 0C160.91 0 164.673 1.58681 167.819 4.76044C170.978 7.93407 172.558 11.8028 172.558 16.3666C172.558 20.8884 170.999 24.715 167.882 27.8465C164.778 30.978 161.008 32.5437 156.571 32.5437C151.922 32.5437 148.061 30.9358 144.985 27.7201C141.91 24.5043 140.372 20.6847 140.372 16.2613C140.372 13.2983 141.089 10.5741 142.521 8.08853C143.953 5.603 145.919 3.63703 148.419 2.19064C150.932 0.730215 153.636 0 156.528 0ZM156.465 5.77151C153.601 5.77151 151.192 6.76853 149.24 8.76258C147.288 10.7566 146.312 13.2913 146.312 16.3666C146.312 19.793 147.541 22.5033 149.999 24.4973C151.908 26.056 154.099 26.8354 156.571 26.8354C159.365 26.8354 161.745 25.8243 163.711 23.8022C165.677 21.7801 166.66 19.2875 166.66 16.3245C166.66 13.3756 165.67 10.883 163.69 8.84684C161.71 6.79662 159.302 5.77151 156.465 5.77151Z" fill="white"/>
<path d="M131.599 41.7795L130.372 42.9503C129.538 42.0696 128.598 41.6292 127.555 41.6292C126.674 41.6292 125.931 41.9297 125.326 42.5308C124.725 43.1318 124.425 43.8727 124.425 44.7534C124.425 45.367 124.558 45.9117 124.825 46.3875C125.092 46.8633 125.47 47.2369 125.958 47.5082C126.447 47.7795 126.989 47.9151 127.586 47.9151C128.095 47.9151 128.561 47.8212 128.982 47.6334C129.404 47.4414 129.867 47.095 130.372 46.5941L131.562 47.8337C130.882 48.4974 130.239 48.9586 129.634 49.2174C129.028 49.472 128.338 49.5993 127.561 49.5993C126.13 49.5993 124.957 49.1464 124.043 48.2407C123.133 47.3308 122.678 46.1663 122.678 44.7471C122.678 43.8289 122.884 43.0129 123.298 42.2991C123.715 41.5854 124.31 41.0115 125.082 40.5774C125.858 40.1433 126.693 39.9263 127.586 39.9263C128.346 39.9263 129.076 40.087 129.778 40.4084C130.483 40.7297 131.09 41.1868 131.599 41.7795Z" fill="white"/>
<path d="M136.137 40.1579H137.915L141.459 49.3677H139.637L138.917 47.4706H135.16L134.409 49.3677H132.587L136.137 40.1579ZM137.038 42.5997L135.811 45.7614H138.259L137.038 42.5997Z" fill="white"/>
<path d="M143.01 40.1579H144.869C145.875 40.1579 146.599 40.2518 147.042 40.4397C147.488 40.6233 147.839 40.9238 148.093 41.3412C148.352 41.7544 148.482 42.2511 148.482 42.8313C148.482 43.4741 148.312 44.0084 147.974 44.4341C147.64 44.8598 147.186 45.1562 146.61 45.3231C146.271 45.4191 145.656 45.4671 144.763 45.4671V49.3677H143.01V40.1579ZM144.763 43.7579H145.32C145.758 43.7579 146.063 43.7266 146.234 43.664C146.405 43.6014 146.539 43.4991 146.635 43.3572C146.735 43.2111 146.785 43.0358 146.785 42.8313C146.785 42.4765 146.647 42.2177 146.372 42.055C146.171 41.9339 145.8 41.8734 145.257 41.8734H144.763V43.7579Z" fill="white"/>
<path d="M150.27 40.1579H152.011V49.3677H150.27V40.1579Z" fill="white"/>
<path d="M153.274 40.1579H158.364V41.8859H156.686V49.3677H154.908V41.8859H153.274V40.1579Z" fill="white"/>
<path d="M162.563 40.1579H164.341L167.885 49.3677H166.063L165.343 47.4706H161.587L160.835 49.3677H159.013L162.563 40.1579ZM163.465 42.5997L162.238 45.7614H164.686L163.465 42.5997Z" fill="white"/>
<path d="M169.442 40.1579H171.195V47.696H173.75V49.3677H169.442V40.1579Z" fill="white"/>
<path d="M17.421 40.6475L22.3518 32.1071H12.4902L17.421 40.6475Z" fill="white"/>
<path fill-rule="evenodd" clip-rule="evenodd" d="M35.1134 31.7642L17.8866 0.772461L0 31.7642H7.49924L17.7804 13.9502L27.6823 31.7642H35.1134Z" fill="white"/>
<circle cx="17.7665" cy="20.1327" r="2.35048" fill="white"/>
</svg>
