<svg width="70" height="78" viewBox="0 0 70 78" fill="none" xmlns="http://www.w3.org/2000/svg">
<path fill-rule="evenodd" clip-rule="evenodd" d="M4.68634 4.68634V34.3905H0V3.90529C0 1.74845 1.74846 0 3.90529 0H39.422C47.8632 0 54.6921 6.86948 54.6421 15.3105C54.608 21.0531 52.0402 26.191 48.0022 29.6666C60.0871 30.6102 69.5995 40.7156 69.5995 53.0427C69.5995 66.7698 58.4715 77.8978 44.7444 77.8978H0V46.6898H12.3506C13.494 46.6898 14.5799 47.1908 15.3219 48.0608L24.1697 58.4344L33.2946 46.6898H39.0293L27.2457 62.0948C25.7158 64.0163 22.813 64.0653 21.2191 62.1966L11.9902 51.3761H4.68634V73.2114H44.7444C55.8833 73.2114 64.9132 64.1816 64.9132 53.0427C64.9132 42.6809 56.5133 34.2809 46.1514 34.2809H35.8913L27.3976 45.6474C25.8083 47.7743 22.6056 47.7293 21.0765 45.5586L13.0328 34.1392C12.1243 32.8494 12.081 31.1397 12.9232 29.8056L20.9683 17.0618C22.4763 14.6729 25.9435 14.6261 27.5154 16.9734L35.9642 29.589C43.6953 29.3752 49.9097 23.0651 49.9558 15.2828C49.9904 9.44071 45.2642 4.68634 39.422 4.68634H4.68634ZM31.8474 31.8637L24.2899 20.579L17.1642 31.8666L24.2879 41.9799L31.8474 31.8637Z" fill="white"/>
</svg>
