<svg width="191" height="29" viewBox="0 0 191 29" fill="none" xmlns="http://www.w3.org/2000/svg">
<rect y="17.4526" width="6.02009" height="11.3825" fill="white"/>
<rect y="5.01953" width="6.02009" height="7.41299" fill="white"/>
<rect x="17.2012" y="12.4326" width="5.01973" height="11.1812" transform="rotate(90 17.2012 12.4326)" fill="white"/>
<rect x="18.3613" width="5.01973" height="12.3404" transform="rotate(90 18.3613 0)" fill="white"/>
<path d="M32.4998 13.4356C31.7708 13.3367 31.1284 13.2873 30.5724 13.2873C28.5463 13.2873 27.2182 13.973 26.5881 15.3443V28.4648H21.2324V8.41344H26.2916L26.4399 10.804C27.5147 8.96321 29.0034 8.0428 30.906 8.0428C31.499 8.0428 32.055 8.12311 32.5739 8.28371L32.4998 13.4356Z" fill="white"/>
<path d="M46.1577 28.4648C45.9106 27.983 45.7315 27.3838 45.6203 26.6673C44.323 28.1127 42.6367 28.8355 40.5611 28.8355C38.5967 28.8355 36.9659 28.2672 35.6687 27.1306C34.3838 25.9939 33.7414 24.5608 33.7414 22.8312C33.7414 20.7062 34.5259 19.0754 36.0949 17.9388C37.6763 16.8022 39.9557 16.2277 42.9332 16.2153H45.3979V15.0664C45.3979 14.1398 45.157 13.3985 44.6751 12.8425C44.2057 12.2866 43.4582 12.0086 42.4328 12.0086C41.5309 12.0086 40.8205 12.2248 40.3016 12.6572C39.7951 13.0896 39.5418 13.6826 39.5418 14.4363H34.1862C34.1862 13.2749 34.5444 12.2001 35.261 11.2117C35.9776 10.2234 36.9906 9.45122 38.3002 8.89526C39.6098 8.32696 41.08 8.0428 42.7108 8.0428C45.1817 8.0428 47.1399 8.6667 48.5854 9.91451C50.0432 11.15 50.7721 12.892 50.7721 15.1405V23.8319C50.7845 25.7345 51.0501 27.1738 51.569 28.1498V28.4648H46.1577ZM41.7286 24.74C42.5193 24.74 43.2482 24.567 43.9153 24.2211C44.5825 23.8628 45.0767 23.3871 45.3979 22.7941V19.3472H43.3965C40.7155 19.3472 39.2886 20.2738 39.1156 22.127L39.0971 22.442C39.0971 23.1092 39.3318 23.6589 39.8013 24.0913C40.2708 24.5237 40.9132 24.74 41.7286 24.74Z" fill="white"/>
<path d="M59.9083 8.41344L60.0751 10.6558C61.4958 8.9138 63.417 8.0428 65.8385 8.0428C68.4206 8.0428 70.1934 9.06205 71.1571 11.1005C72.5655 9.06205 74.5731 8.0428 77.1799 8.0428C79.3543 8.0428 80.9728 8.67906 82.0353 9.95158C83.0978 11.2117 83.629 13.1143 83.629 15.6594V28.4648H78.2548V15.6779C78.2548 14.5413 78.0324 13.7135 77.5876 13.1946C77.1429 12.6634 76.3584 12.3978 75.2341 12.3978C73.628 12.3978 72.5161 13.1638 71.8984 14.6957L71.9169 28.4648H66.5612V15.6964C66.5612 14.5351 66.3326 13.695 65.8755 13.1761C65.4184 12.6572 64.6401 12.3978 63.5405 12.3978C62.0209 12.3978 60.9214 13.0279 60.2419 14.288V28.4648H54.8862V8.41344H59.9083Z" fill="white"/>
<path d="M96.9904 28.8355C94.05 28.8355 91.6533 27.9336 89.8001 26.1298C87.9593 24.3261 87.0388 21.9231 87.0388 18.921V18.4021C87.0388 16.3883 87.428 14.5907 88.2064 13.0093C88.9847 11.4156 90.0842 10.1925 91.505 9.34003C92.9381 8.47521 94.5689 8.0428 96.3974 8.0428C99.1401 8.0428 101.296 8.90762 102.865 10.6373C104.446 12.3669 105.237 14.8193 105.237 17.9944V20.1811H92.4687C92.6416 21.4907 93.1605 22.5408 94.0253 23.3315C94.9025 24.1222 96.0082 24.5176 97.3425 24.5176C99.4057 24.5176 101.018 23.7701 102.179 22.2752L104.811 25.2218C104.008 26.3584 102.921 27.2479 101.549 27.8904C100.178 28.5204 98.6583 28.8355 96.9904 28.8355ZM96.3789 12.3792C95.3164 12.3792 94.4516 12.7375 93.7844 13.4541C93.1296 14.1706 92.7096 15.1961 92.5243 16.5304H99.974V16.1041C99.9493 14.9181 99.6281 14.0039 99.0104 13.3614C98.3927 12.7066 97.5155 12.3792 96.3789 12.3792Z" fill="white"/>
<path d="M125.733 21.1818L128.365 8.41344H133.535L128.42 28.4648H123.936L120.137 15.8447L116.338 28.4648H111.871L106.757 8.41344H111.927L114.54 21.1633L118.209 8.41344H122.082L125.733 21.1818Z" fill="white"/>
<path d="M135.37 18.2538C135.37 16.2647 135.753 14.4919 136.519 12.9352C137.285 11.3785 138.384 10.174 139.817 9.3215C141.263 8.46903 142.937 8.0428 144.84 8.0428C147.545 8.0428 149.75 8.87055 151.455 10.5261C153.173 12.1816 154.13 14.4301 154.328 17.2716L154.365 18.643C154.365 21.7193 153.506 24.1902 151.789 26.0557C150.072 27.9089 147.768 28.8355 144.877 28.8355C141.986 28.8355 139.675 27.9089 137.946 26.0557C136.228 24.2025 135.37 21.6822 135.37 18.4947V18.2538ZM140.725 18.643C140.725 20.5456 141.084 22.0034 141.8 23.0165C142.517 24.0172 143.542 24.5176 144.877 24.5176C146.174 24.5176 147.187 24.0234 147.916 23.035C148.645 22.0343 149.009 20.4406 149.009 18.2538C149.009 16.3883 148.645 14.9428 147.916 13.9174C147.187 12.892 146.161 12.3792 144.84 12.3792C143.53 12.3792 142.517 12.892 141.8 13.9174C141.084 14.9305 140.725 16.5057 140.725 18.643Z" fill="white"/>
<path d="M168.931 13.4356C168.202 13.3367 167.56 13.2873 167.004 13.2873C164.977 13.2873 163.649 13.973 163.019 15.3443V28.4648H157.664V8.41344H162.723L162.871 10.804C163.946 8.96321 165.435 8.0428 167.337 8.0428C167.93 8.0428 168.486 8.12311 169.005 8.28371L168.931 13.4356Z" fill="white"/>
<path d="M178.808 20.422L176.881 22.3493V28.4648H171.525V0H176.881V15.7706L177.919 14.4363L183.052 8.41344H189.483L182.237 16.7713L190.113 28.4648H183.96L178.808 20.422Z" fill="white"/>
</svg>
