<svg width="140" height="50" viewBox="0 0 140 50" fill="none" xmlns="http://www.w3.org/2000/svg">
<circle cx="69.3375" cy="24.9171" r="3.1344" fill="white"/>
<circle cx="69.3375" cy="14.4474" r="3.1344" fill="white"/>
<circle cx="78.5402" cy="19.6059" r="3.1344" transform="rotate(60 78.5402 19.6059)" fill="white"/>
<circle r="3.1344" transform="matrix(-0.5 0.866025 0.866025 0.5 60.3484 19.6059)" fill="white"/>
<circle cx="78.5406" cy="30.2977" r="3.1344" transform="rotate(120 78.5406 30.2977)" fill="white"/>
<circle r="3.1344" transform="matrix(0.5 0.866025 0.866025 -0.5 60.3481 30.2977)" fill="white"/>
<circle cx="69.3375" cy="46.6998" r="3.1344" fill="white"/>
<circle cx="69.3375" cy="3.1344" r="3.1344" fill="white"/>
<circle cx="88.3391" cy="13.9496" r="3.1344" transform="rotate(60 88.3391 13.9496)" fill="white"/>
<circle r="3.1344" transform="matrix(-0.5 0.866025 0.866025 0.5 50.5496 13.9496)" fill="white"/>
<circle cx="80.4133" cy="5.98821" r="3.1344" transform="rotate(60 80.4133 5.98821)" fill="white"/>
<circle r="3.1344" transform="matrix(-0.5 0.866025 0.866025 0.5 58.4734 5.98821)" fill="white"/>
<circle cx="91.3371" cy="24.9169" r="3.1344" transform="rotate(60 91.3371 24.9169)" fill="white"/>
<circle r="3.1344" transform="matrix(-0.5 0.866025 0.866025 0.5 47.5516 24.9169)" fill="white"/>
<circle cx="88.3394" cy="35.9554" r="3.1344" transform="rotate(120 88.3394 35.9554)" fill="white"/>
<circle r="3.1344" transform="matrix(0.5 0.866025 0.866025 -0.5 50.5492 35.9554)" fill="white"/>
<circle cx="80.3726" cy="43.9441" r="3.1344" transform="rotate(120 80.3726 43.9441)" fill="white"/>
<circle r="3.1344" transform="matrix(0.5 0.866025 0.866025 -0.5 58.516 43.9441)" fill="white"/>
<circle cx="69.3375" cy="35.3864" r="3.1344" fill="white"/>
<path d="M0 45.6654V4.45996H8.224V23.4094L30.0333 4.45996H41.7424L22.6146 20.9066L44.2451 45.6654H33.3405L16.5366 25.5545L8.224 32.437V45.6654H0Z" fill="white"/>
<path fill-rule="evenodd" clip-rule="evenodd" d="M131.68 46.27V4.31152H139.032V46.27H131.68Z" fill="white"/>
<path fill-rule="evenodd" clip-rule="evenodd" d="M101.538 11.6642H117.025V32.7914C117.025 36.1751 114.282 38.9182 110.898 38.9182H106.247C102.971 38.9182 99.7196 38.3469 96.6394 37.2299L96.4199 37.1503V44.8845C99.611 45.8028 102.919 46.2704 106.247 46.2704H110.898C118.342 46.2704 124.377 40.2357 124.377 32.7914V4.31201H101.538V11.6642Z" fill="white"/>
</svg>
