<svg width="98" height="67" viewBox="0 0 98 67" fill="none" xmlns="http://www.w3.org/2000/svg">
<path fill-rule="evenodd" clip-rule="evenodd" d="M0.912612 29.5322C1.41663 29.5322 1.82522 29.9408 1.82522 30.4448V60.2672H15.592C16.096 60.2672 16.5046 60.6758 16.5046 61.1798C16.5046 61.6839 16.096 62.0925 15.592 62.0925H1.21682C0.544786 62.0925 0 61.5477 0 60.8756V30.4448C0 29.9408 0.40859 29.5322 0.912612 29.5322Z" fill="white"/>
<path fill-rule="evenodd" clip-rule="evenodd" d="M64.5889 12.3184C64.9249 12.3184 65.1973 12.5908 65.1973 12.9268V15.7912H70.0735C70.4095 15.7912 70.6819 16.0636 70.6819 16.3996C70.6819 16.7356 70.4095 17.008 70.0735 17.008H64.8931C64.3891 17.008 63.9805 16.5994 63.9805 16.0954V12.9268C63.9805 12.5908 64.2529 12.3184 64.5889 12.3184Z" fill="white"/>
<path fill-rule="evenodd" clip-rule="evenodd" d="M61.748 10.3838H69.909C70.245 10.3838 70.5174 10.6562 70.5174 10.9922C70.5174 11.3282 70.245 11.6006 69.909 11.6006H62.9649V18.0244H72.1717C72.5077 18.0244 72.7801 18.2968 72.7801 18.6328C72.7801 18.9688 72.5077 19.2412 72.1717 19.2412H61.748V10.3838Z" fill="white"/>
<path fill-rule="evenodd" clip-rule="evenodd" d="M43.0225 0.263184C43.3585 0.263184 43.6309 0.535577 43.6309 0.871592V9.22272C43.6309 9.55873 43.3585 9.83113 43.0225 9.83113C42.6865 9.83113 42.4141 9.55873 42.4141 9.22272V0.871592C42.4141 0.535577 42.6865 0.263184 43.0225 0.263184Z" fill="white"/>
<path fill-rule="evenodd" clip-rule="evenodd" d="M45.294 0.186523C45.63 0.186523 45.9024 0.458917 45.9024 0.794931V8.1802H52.5625C53.0665 8.1802 53.4751 8.58879 53.4751 9.09281V17.0611C53.4751 17.1814 53.4402 17.2936 53.3799 17.388C53.4402 17.4824 53.4751 17.5946 53.4751 17.7149V18.841C53.4751 19.177 53.2027 19.4494 52.8667 19.4494C52.5307 19.4494 52.2583 19.177 52.2583 18.841V17.7149C52.2583 17.5946 52.2932 17.4824 52.3535 17.388C52.2932 17.2936 52.2583 17.1814 52.2583 17.0611V9.39701H45.5982C45.0941 9.39701 44.6855 8.98842 44.6855 8.4844V0.794931C44.6855 0.458917 44.9579 0.186523 45.294 0.186523Z" fill="white"/>
<path fill-rule="evenodd" clip-rule="evenodd" d="M42.4453 11.3902C42.4453 10.8861 42.8539 10.4775 43.3579 10.4775H51.1903C51.5263 10.4775 51.7987 10.7499 51.7987 11.0859C51.7987 11.422 51.5263 11.6944 51.1903 11.6944H43.6621V18.7867C43.6621 19.1227 43.3897 19.3951 43.0537 19.3951C42.7177 19.3951 42.4453 19.1227 42.4453 18.7867V11.3902Z" fill="white"/>
<path fill-rule="evenodd" clip-rule="evenodd" d="M45.3037 12.7212C45.6397 12.7212 45.9121 12.9936 45.9121 13.3296L45.9121 18.7684C45.9121 19.1044 45.6397 19.3768 45.3037 19.3768C44.9677 19.3768 44.6953 19.1044 44.6953 18.7684L44.6953 13.3296C44.6953 12.9936 44.9677 12.7212 45.3037 12.7212Z" fill="white"/>
<path fill-rule="evenodd" clip-rule="evenodd" d="M5.68019 34.8799C6.18421 34.8799 6.5928 35.2885 6.5928 35.7925V57.0347C6.5928 57.5388 6.18421 57.9474 5.68019 57.9474C5.17617 57.9474 4.76758 57.5388 4.76758 57.0347V35.7925C4.76758 35.2885 5.17617 34.8799 5.68019 34.8799Z" fill="white"/>
<path fill-rule="evenodd" clip-rule="evenodd" d="M40.1161 41.0481C40.5935 41.2099 40.8493 41.728 40.6875 42.2053L33.5662 63.215C33.4044 63.6923 32.8863 63.9481 32.409 63.7863C31.9316 63.6245 31.6758 63.1064 31.8376 62.6291L38.9589 41.6194C39.1207 41.1421 39.6388 40.8863 40.1161 41.0481Z" fill="white"/>
<path fill-rule="evenodd" clip-rule="evenodd" d="M45.0004 33.7625C45.4777 33.6005 45.9959 33.8561 46.1579 34.3334L51.437 49.8857C51.599 50.363 51.3434 50.8812 50.8662 51.0433C50.3889 51.2053 49.8706 50.9497 49.7086 50.4724L44.4295 34.9201C44.2675 34.4428 44.5231 33.9246 45.0004 33.7625Z" fill="white"/>
<path fill-rule="evenodd" clip-rule="evenodd" d="M39.9241 33.4761L45.6527 50.7062C45.8117 51.1845 46.3284 51.4433 46.8066 51.2843C47.2849 51.1253 47.5437 50.6087 47.3847 50.1304L41.1128 31.266C40.7507 30.1771 39.2208 30.1486 38.8185 31.2233L26.0172 65.4186C25.8404 65.8907 26.0799 66.4166 26.5519 66.5933C27.0239 66.77 27.5498 66.5306 27.7265 66.0586L39.9241 33.4761Z" fill="white"/>
<path fill-rule="evenodd" clip-rule="evenodd" d="M19.5117 65.523C19.5117 66.027 19.1031 66.4356 18.5991 66.4356H5.91021C5.40619 66.4356 4.9976 66.027 4.9976 65.523C4.9976 65.0189 5.40619 64.6104 5.91021 64.6104H18.5991C19.1031 64.6104 19.5117 65.0189 19.5117 65.523Z" fill="white"/>
<path fill-rule="evenodd" clip-rule="evenodd" d="M56.3678 66.6121C55.8945 66.7854 55.3703 66.5423 55.197 66.069L51.1496 55.0166H39.447C38.943 55.0166 38.5344 54.608 38.5344 54.104C38.5344 53.6 38.943 53.1914 39.447 53.1914H51.3622C52.0005 53.1914 52.5709 53.59 52.7904 54.1894L56.9109 65.4413C57.0842 65.9146 56.841 66.4388 56.3678 66.6121Z" fill="white"/>
<path fill-rule="evenodd" clip-rule="evenodd" d="M51.2265 64.0757C50.7497 64.239 50.2308 63.9848 50.0675 63.5079L48.6924 59.4917H38.2164C37.7124 59.4917 37.3038 59.0831 37.3038 58.5791C37.3038 58.0751 37.7124 57.6665 38.2164 57.6665H48.9098C49.5599 57.6665 50.1382 58.0797 50.3488 58.6948L51.7943 62.9167C51.9576 63.3935 51.7034 63.9125 51.2265 64.0757Z" fill="white"/>
<path fill-rule="evenodd" clip-rule="evenodd" d="M52.9111 0.308594C53.2472 0.308594 53.5196 0.580987 53.5196 0.917002V6.73275C53.5196 7.06877 53.2472 7.34116 52.9111 7.34116C52.5751 7.34116 52.3027 7.06877 52.3027 6.73275V0.917002C52.3027 0.580987 52.5751 0.308594 52.9111 0.308594Z" fill="white"/>
<path fill-rule="evenodd" clip-rule="evenodd" d="M55.1865 2.08301C55.5225 2.08301 55.7949 2.3554 55.7949 2.69142V18.8164C55.7949 19.1524 55.5225 19.4248 55.1865 19.4248C54.8505 19.4248 54.5781 19.1524 54.5781 18.8164V2.69142C54.5781 2.3554 54.8505 2.08301 55.1865 2.08301Z" fill="white"/>
<path fill-rule="evenodd" clip-rule="evenodd" d="M32.5049 4.25588H37.1763C37.5123 4.25588 37.7847 3.98348 37.7847 3.64747C37.7847 3.31146 37.5123 3.03906 37.1763 3.03906H32.2007C31.6967 3.03906 31.2881 3.44765 31.2881 3.95167V7.76568C31.2881 8.10169 31.5605 8.37409 31.8965 8.37409C32.2325 8.37409 32.5049 8.10169 32.5049 7.76568V4.25588ZM29.3975 11.3811C29.7335 11.3811 30.0059 11.6535 30.0059 11.9895V18.8884C30.0059 19.2244 29.7335 19.4968 29.3975 19.4968C29.0615 19.4968 28.7891 19.2244 28.7891 18.8884V11.9895C28.7891 11.6535 29.0615 11.3811 29.3975 11.3811Z" fill="white"/>
<path fill-rule="evenodd" clip-rule="evenodd" d="M30.8125 1.16603C30.8125 0.830011 31.0849 0.557617 31.4209 0.557617H35.0845C35.4205 0.557617 35.6929 0.830011 35.6929 1.16603C35.6929 1.50204 35.4205 1.77443 35.0845 1.77443H31.4209C31.0849 1.77443 30.8125 1.50204 30.8125 1.16603Z" fill="white"/>
<path fill-rule="evenodd" clip-rule="evenodd" d="M36.0391 1.21388C36.0391 0.877862 36.3115 0.605469 36.6475 0.605469L36.6719 0.605469C37.0079 0.605469 37.2803 0.877862 37.2803 1.21388C37.2803 1.54989 37.0079 1.82228 36.6719 1.82228L36.6475 1.82228C36.3115 1.82228 36.0391 1.54989 36.0391 1.21388Z" fill="white"/>
<path fill-rule="evenodd" clip-rule="evenodd" d="M17.6875 61.1792C17.6875 60.6752 18.0961 60.2666 18.6001 60.2666L18.6245 60.2666C19.1286 60.2666 19.5372 60.6752 19.5372 61.1792C19.5372 61.6832 19.1286 62.0918 18.6245 62.0918L18.6001 62.0918C18.0961 62.0918 17.6875 61.6832 17.6875 61.1792Z" fill="white"/>
<path fill-rule="evenodd" clip-rule="evenodd" d="M30.7871 65.7388C30.7871 65.2348 31.1957 64.8262 31.6997 64.8262L31.7242 64.8262C32.2282 64.8262 32.6368 65.2348 32.6368 65.7388C32.6368 66.2428 32.2282 66.6514 31.7242 66.6514L31.6997 66.6514C31.1957 66.6514 30.7871 66.2428 30.7871 65.7388Z" fill="white"/>
<path fill-rule="evenodd" clip-rule="evenodd" d="M75.4258 31.7124C75.4258 31.2084 75.8344 30.7998 76.3384 30.7998L76.3628 30.7998C76.8669 30.7998 77.2754 31.2084 77.2754 31.7124C77.2754 32.2164 76.8668 32.625 76.3628 32.625L76.3384 32.625C75.8344 32.625 75.4258 32.2164 75.4258 31.7124Z" fill="white"/>
<path fill-rule="evenodd" clip-rule="evenodd" d="M70.8711 16.3994C70.8711 16.0634 71.1435 15.791 71.4795 15.791H71.7362C72.0722 15.791 72.3446 16.0634 72.3446 16.3994C72.3446 16.7354 72.0722 17.0078 71.7362 17.0078H71.4795C71.1435 17.0078 70.8711 16.7354 70.8711 16.3994Z" fill="white"/>
<path fill-rule="evenodd" clip-rule="evenodd" d="M23.2227 3.54493C23.2227 3.20892 23.495 2.93652 23.8311 2.93652H27.3748C27.7108 2.93652 27.9832 3.20892 27.9832 3.54493C27.9832 3.88095 27.7108 4.15334 27.3748 4.15334H23.8311C23.495 4.15334 23.2227 3.88095 23.2227 3.54493Z" fill="white"/>
<path fill-rule="evenodd" clip-rule="evenodd" d="M23.3281 1.30958C23.3281 0.973565 23.6005 0.701172 23.9365 0.701172H29.0088C29.5128 0.701172 29.9214 1.10976 29.9214 1.61378V9.26078H31.5897C32.0937 9.26078 32.5023 9.66937 32.5023 10.1734V16.9663C32.5023 17.3023 32.2299 17.5747 31.8939 17.5747C31.5579 17.5747 31.2855 17.3023 31.2855 16.9663V10.4776H29.6172C29.1132 10.4776 28.7046 10.069 28.7046 9.56498V1.91799H23.9365C23.6005 1.91799 23.3281 1.64559 23.3281 1.30958Z" fill="white"/>
<path fill-rule="evenodd" clip-rule="evenodd" d="M62.3115 0C62.6475 0 62.9199 0.272394 62.9199 0.608408V8.04499H69.8364C70.1724 8.04499 70.4448 8.31739 70.4448 8.6534C70.4448 8.98942 70.1724 9.26181 69.8364 9.26181H61.7031V0.608408C61.7031 0.272394 61.9755 0 62.3115 0Z" fill="white"/>
<path fill-rule="evenodd" clip-rule="evenodd" d="M65.1973 4.10695H72.2001C72.5361 4.10695 72.8085 3.83456 72.8085 3.49854C72.8085 3.16253 72.5361 2.89014 72.2001 2.89014H64.8931C64.3891 2.89014 63.9805 3.29873 63.9805 3.80275V6.86647C63.9805 7.20248 64.2529 7.47488 64.5889 7.47488C64.9249 7.47488 65.1973 7.20248 65.1973 6.86647V4.10695Z" fill="white"/>
<path fill-rule="evenodd" clip-rule="evenodd" d="M63.4805 1.17677C63.4805 0.840753 63.7529 0.568359 64.0889 0.568359H72.1996C72.5356 0.568359 72.808 0.840753 72.808 1.17677C72.808 1.51278 72.5356 1.78518 72.1996 1.78518H64.0889C63.7529 1.78518 63.4805 1.51278 63.4805 1.17677Z" fill="white"/>
<path fill-rule="evenodd" clip-rule="evenodd" d="M81.4075 32.0184C82.0848 32.0636 82.9139 32.1543 83.7518 32.3114C84.8928 32.5253 85.9651 32.8474 86.6985 33.2898C87.1301 33.5502 87.691 33.4113 87.9514 32.9797C88.2117 32.5481 88.0728 31.9872 87.6413 31.7269C86.6285 31.116 85.3023 30.7451 84.0882 30.5174C82.8569 30.2865 81.6534 30.1875 80.8283 30.1627C80.1305 30.1417 79.5823 30.7064 79.5823 31.3754V34.9261C73.0417 35.4313 67.9844 41.3062 67.9844 48.3443C67.9844 55.706 73.5197 61.7977 80.4949 61.7977C87.4701 61.7977 93.0054 55.706 93.0054 48.3443C93.0054 42.8256 89.9091 38.0445 85.425 35.9757C84.9673 35.7646 84.4251 35.9644 84.214 36.4221C84.0028 36.8797 84.2027 37.4219 84.6603 37.6331C88.466 39.3888 91.1802 43.5017 91.1802 48.3443C91.1802 54.8349 86.3304 59.9725 80.4949 59.9725C74.6594 59.9725 69.8096 54.8349 69.8096 48.3443C69.8096 41.9583 74.5068 36.8794 80.2153 36.7201C80.8574 36.7022 81.4075 36.181 81.4075 35.4994V32.0184Z" fill="white"/>
<path fill-rule="evenodd" clip-rule="evenodd" d="M85.9628 31.9817C86.1739 31.524 86.7161 31.3242 87.1738 31.5353C93.2526 34.3399 97.4667 40.8318 97.4667 48.3437C97.4667 58.37 89.9336 66.6219 80.4941 66.6219C71.0545 66.6219 63.5215 58.37 63.5215 48.3437C63.5215 41.3005 67.225 35.157 72.6952 32.1048C73.1353 31.8592 73.6912 32.017 73.9368 32.4571C74.1824 32.8973 74.0247 33.4531 73.5845 33.6987C68.7136 36.4165 65.3467 41.9371 65.3467 48.3437C65.3467 57.4989 72.1943 64.7967 80.4941 64.7967C88.7939 64.7967 95.6414 57.4989 95.6414 48.3437C95.6414 41.5079 91.8095 35.6842 86.4091 33.1927C85.9515 32.9815 85.7516 32.4394 85.9628 31.9817Z" fill="white"/>
</svg>
