<?xml version="1.0" encoding="UTF-8"?><svg xmlns="http://www.w3.org/2000/svg" xmlns:xlink="http://www.w3.org/1999/xlink" viewBox="0 0 841.89 595.28"><defs><style>.x{fill:url(#e);}.y{fill:url(#g);}.a`{fill:url(#o);}.aa{fill:url(#q);}.ab{fill:url(#k);}.ac{fill:url(#m);}.ad{mask:url(#l);}.ae{mask:url(#n);}.af{mask:url(#j);}.ag{mask:url(#f);}.ah{mask:url(#p);}.ai{mask:url(#c);}.aj,.ak,.al{fill:none;}.am{filter:url(#d);}.an,.ao,.ap{fill:#0097ff;}.aq,.ar{fill:#3535e5;}.as,.at{fill:#7c1aff;}.au{opacity:.46;}.ak{stroke:url(#i);}.ak,.al{stroke-width:.52px;}.al{stroke:url(#h);}.ao{opacity:.2;stroke:#0097ff;stroke-width:.17px;}.av{clip-path:url(#b);}.ar,.at,.ap{opacity:.8;}</style><clipPath id="b"><rect class="aj" x="-4.48" y="-2.94" width="854.42" height="601.74"/></clipPath><filter id="d" color-interpolation-filters="sRGB" filterUnits="userSpaceOnUse"><feColorMatrix values="-1 0 0 0 1 0 -1 0 0 1 0 0 -1 0 1 0 0 0 1 0"/></filter><linearGradient id="e" x1="189.7" y1="343.68" x2="1421.4" y2="-813.89" gradientTransform="translate(-153.13 224.85) scale(1 -1)" gradientUnits="userSpaceOnUse"><stop offset=".02" stop-color="#3535e5" stop-opacity="0"/><stop offset=".82" stop-color="#000062"/></linearGradient><mask id="c" x="-122.47" y="-265.64" width="973.15" height="959.35" maskUnits="userSpaceOnUse"><g class="am"><rect class="x" x="-90.53" y="-297.58" width="909.27" height="973.15" transform="translate(553.09 -175.11) rotate(90)"/></g></mask><linearGradient id="g" x1="251.78" y1="401.65" x2="1087.74" y2="-399.16" gradientTransform="translate(-310.52 342.13) scale(1 -1)" gradientUnits="userSpaceOnUse"><stop offset=".06" stop-color="#000"/><stop offset=".34" stop-color="#fff"/><stop offset=".64" stop-color="#fff"/></linearGradient><mask id="f" x="-103.99" y="-221.93" width="1045.55" height="1037.03" maskUnits="userSpaceOnUse"><rect class="y" x="-103.99" y="-121.71" width="896.06" height="896.06" transform="translate(670.37 -17.72) rotate(90)"/></mask><linearGradient id="h" x1="3440.61" y1="-590.13" x2="3737.57" y2="-1687.58" gradientTransform="translate(2017.15 3589.8) rotate(-135) scale(1 -1)" gradientUnits="userSpaceOnUse"><stop offset=".39" stop-color="#3535e5"/><stop offset=".87" stop-color="#3535e5" stop-opacity="0"/></linearGradient><linearGradient id="i" x1="3200.78" y1="-826.31" x2="3443.5" y2="-1723.3" xlink:href="#h"/><linearGradient id="k" x1="847.85" y1="72.81" x2="807.87" y2="-168.75" gradientTransform="translate(-480.54 545.3) scale(1 -1)" gradientUnits="userSpaceOnUse"><stop offset="0" stop-color="#fff"/><stop offset="1" stop-color="#000"/></linearGradient><mask id="j" x="142.06" y="205.3" width="437.13" height="615.25" maskUnits="userSpaceOnUse"><rect class="ab" x="53" y="294.36" width="615.25" height="437.13" transform="translate(873.54 152.3) rotate(90)"/></mask><linearGradient id="m" x1="6657.71" y1="-358.71" x2="6617.73" y2="-600.26" gradientTransform="translate(-6278.48 -110.58) scale(1 -1)" xlink:href="#k"/><mask id="l" x="-4.48" y="-62.17" width="754.04" height="701.47" maskUnits="userSpaceOnUse"><rect class="ac" x="64.92" y="70" width="615.25" height="437.13" transform="translate(528.18 733.34) rotate(-147.05)"/></mask><linearGradient id="o" x1="559.26" y1="361.14" x2="519.28" y2="119.58" gradientTransform="translate(96.38 545.04) scale(1 -1)" xlink:href="#k"/><mask id="n" x="430.39" y="-83.29" width="437.13" height="615.25" maskUnits="userSpaceOnUse"><rect class="a`" x="341.33" y="5.77" width="615.25" height="437.13" transform="translate(873.28 -424.62) rotate(90)"/></mask><linearGradient id="q" x1="559.26" y1="361.14" x2="519.28" y2="119.58" gradientTransform="translate(96.38 545.04) scale(1 -1)" xlink:href="#k"/><mask id="p" x="430.39" y="-83.29" width="437.13" height="615.25" maskUnits="userSpaceOnUse"><rect class="aa" x="341.33" y="5.77" width="615.25" height="437.13" transform="translate(873.28 -424.62) rotate(90)"/></mask></defs><g id="a"><g class="av"><g class="ai"><polygon class="ao" points="-32.66 675.97 -117.93 647.26 800.8 -264.6 849.94 58.8 247.15 661.58 61.25 693.62 -32.66 675.97"/></g><g class="ag"><g class="au"><g><path class="aq" d="M807.83-221.55c73.65,0,133.36,59.71,133.36,133.36s-59.71,133.36-133.36,133.36-133.36-59.71-133.36-133.36,59.71-133.36,133.36-133.36m0-.37c-35.72,0-69.3,13.91-94.56,39.17-25.26,25.26-39.17,58.84-39.17,94.56s13.91,69.3,39.17,94.56c25.26,25.26,58.84,39.17,94.56,39.17s69.3-13.91,94.56-39.17c25.26-25.26,39.17-58.84,39.17-94.56s-13.91-69.3-39.17-94.56c-25.26-25.26-58.84-39.17-94.56-39.17h0Z"/><path class="aq" d="M759.78-173.46c73.65,0,133.35,59.71,133.35,133.36s-59.71,133.36-133.35,133.36-133.36-59.71-133.36-133.36,59.71-133.36,133.36-133.36m0-.37c-35.72,0-69.3,13.91-94.56,39.17-25.26,25.26-39.17,58.84-39.17,94.56s13.91,69.3,39.17,94.56c25.26,25.26,58.84,39.17,94.56,39.17s69.3-13.91,94.56-39.17c25.26-25.26,39.17-58.84,39.17-94.56s-13.91-69.3-39.17-94.56c-25.26-25.26-58.84-39.17-94.56-39.17h0Z"/><path class="aq" d="M711.72-125.36c73.65,0,133.36,59.71,133.36,133.36s-59.71,133.36-133.36,133.36S578.37,81.65,578.37,8s59.71-133.36,133.35-133.36m0-.37c-35.72,0-69.3,13.91-94.56,39.17-25.26,25.26-39.17,58.84-39.17,94.56s13.91,69.3,39.17,94.56c25.26,25.26,58.84,39.17,94.56,39.17s69.3-13.91,94.56-39.17c25.26-25.26,39.17-58.84,39.17-94.56s-13.91-69.3-39.17-94.56c-25.26-25.26-58.84-39.17-94.56-39.17h0Z"/><path class="aq" d="M663.67-77.26c73.65,0,133.36,59.71,133.36,133.36s-59.71,133.36-133.36,133.36-133.36-59.71-133.36-133.36,59.71-133.36,133.36-133.36m0-.37c-35.72,0-69.3,13.91-94.56,39.17-25.26,25.26-39.17,58.84-39.17,94.56s13.91,69.3,39.17,94.56c25.26,25.26,58.84,39.17,94.56,39.17s69.3-13.91,94.56-39.17c25.26-25.26,39.17-58.84,39.17-94.56s-13.91-69.3-39.17-94.56c-25.26-25.26-58.84-39.17-94.56-39.17h0Z"/><path class="aq" d="M615.61-29.16c73.65,0,133.35,59.71,133.35,133.36s-59.71,133.36-133.35,133.36-133.36-59.71-133.36-133.36S541.96-29.16,615.61-29.16m0-.37c-35.72,0-69.3,13.91-94.56,39.17-25.26,25.26-39.17,58.84-39.17,94.56s13.91,69.3,39.17,94.56c25.26,25.26,58.84,39.17,94.56,39.17s69.3-13.91,94.56-39.17c25.26-25.26,39.17-58.84,39.17-94.56s-13.91-69.3-39.17-94.56c-25.26-25.26-58.84-39.17-94.56-39.17h0Z"/><path class="aq" d="M567.56,18.94c73.65,0,133.36,59.71,133.36,133.36s-59.71,133.36-133.36,133.36-133.36-59.71-133.36-133.36S493.91,18.94,567.56,18.94m0-.37c-35.72,0-69.3,13.91-94.56,39.17-25.26,25.26-39.17,58.84-39.17,94.56s13.91,69.3,39.17,94.56c25.26,25.26,58.84,39.17,94.56,39.17s69.3-13.91,94.56-39.17c25.26-25.26,39.17-58.84,39.17-94.56s-13.91-69.3-39.17-94.56c-25.26-25.26-58.84-39.17-94.56-39.17h0Z"/><path class="aq" d="M519.5,67.04c73.65,0,133.35,59.71,133.35,133.36s-59.71,133.36-133.35,133.36-133.36-59.71-133.36-133.36,59.71-133.36,133.36-133.36m0-.37c-35.72,0-69.3,13.91-94.56,39.17s-39.17,58.84-39.17,94.56,13.91,69.3,39.17,94.56c25.26,25.26,58.84,39.17,94.56,39.17s69.3-13.91,94.56-39.17c25.26-25.26,39.17-58.84,39.17-94.56s-13.91-69.3-39.17-94.56-58.84-39.17-94.56-39.17h0Z"/><path class="aq" d="M471.45,115.13c73.65,0,133.36,59.71,133.36,133.36s-59.71,133.36-133.36,133.36-133.36-59.71-133.36-133.36,59.71-133.36,133.36-133.36m0-.37c-35.72,0-69.3,13.91-94.56,39.17-25.26,25.26-39.17,58.84-39.17,94.56s13.91,69.3,39.17,94.56c25.26,25.26,58.84,39.17,94.56,39.17s69.3-13.91,94.56-39.17c25.26-25.26,39.17-58.84,39.17-94.56s-13.91-69.3-39.17-94.56c-25.26-25.26-58.84-39.17-94.56-39.17h0Z"/><path class="aq" d="M423.39,163.23c73.65,0,133.36,59.71,133.36,133.35s-59.71,133.36-133.36,133.36-133.36-59.71-133.36-133.36,59.71-133.35,133.36-133.35m0-.37c-35.72,0-69.3,13.91-94.56,39.17s-39.17,58.84-39.17,94.56,13.91,69.3,39.17,94.56,58.84,39.17,94.56,39.17,69.3-13.91,94.56-39.17c25.26-25.26,39.17-58.84,39.17-94.56s-13.91-69.3-39.17-94.56c-25.26-25.26-58.84-39.17-94.56-39.17h0Z"/><path class="aq" d="M375.34,211.33c73.65,0,133.36,59.71,133.36,133.36s-59.71,133.36-133.36,133.36-133.35-59.71-133.35-133.36,59.71-133.36,133.35-133.36m0-.37c-35.72,0-69.3,13.91-94.56,39.17-25.26,25.26-39.17,58.84-39.17,94.56s13.91,69.3,39.17,94.56c25.26,25.26,58.84,39.17,94.56,39.17s69.3-13.91,94.56-39.17,39.17-58.84,39.17-94.56-13.91-69.3-39.17-94.56c-25.26-25.26-58.84-39.17-94.56-39.17h0Z"/><path class="aq" d="M327.28,259.43c73.65,0,133.36,59.71,133.36,133.36s-59.71,133.36-133.36,133.36-133.35-59.71-133.35-133.36,59.71-133.36,133.35-133.36m0-.37c-35.72,0-69.3,13.91-94.56,39.17-25.26,25.26-39.17,58.84-39.17,94.56s13.91,69.3,39.17,94.56c25.26,25.26,58.84,39.17,94.56,39.17s69.3-13.91,94.56-39.17c25.26-25.26,39.17-58.84,39.17-94.56s-13.91-69.3-39.17-94.56c-25.26-25.26-58.84-39.17-94.56-39.17h0Z"/><path class="aq" d="M279.23,307.53c73.65,0,133.36,59.71,133.36,133.36s-59.71,133.36-133.36,133.36-133.36-59.71-133.36-133.36,59.71-133.36,133.36-133.36m0-.37c-35.72,0-69.3,13.91-94.56,39.17-25.26,25.26-39.17,58.84-39.17,94.56s13.91,69.3,39.17,94.56c25.26,25.26,58.84,39.17,94.56,39.17s69.3-13.91,94.56-39.17c25.26-25.26,39.17-58.84,39.17-94.56s-13.91-69.3-39.17-94.56-58.84-39.17-94.56-39.17h0Z"/><path class="aq" d="M231.17,355.62c73.65,0,133.36,59.71,133.36,133.36s-59.71,133.36-133.36,133.36-133.36-59.71-133.36-133.36,59.71-133.36,133.36-133.36m0-.37c-35.72,0-69.3,13.91-94.56,39.17-25.26,25.26-39.17,58.84-39.17,94.56s13.91,69.3,39.17,94.56c25.26,25.26,58.84,39.17,94.56,39.17s69.3-13.91,94.56-39.17c25.26-25.26,39.17-58.84,39.17-94.56s-13.91-69.3-39.17-94.56c-25.26-25.26-58.84-39.17-94.56-39.17h0Z"/><path class="aq" d="M183.12,403.72c73.65,0,133.36,59.71,133.36,133.36s-59.71,133.35-133.36,133.35-133.36-59.71-133.36-133.35,59.71-133.36,133.36-133.36m0-.37c-35.72,0-69.3,13.91-94.56,39.17-25.26,25.26-39.17,58.84-39.17,94.56s13.91,69.3,39.17,94.56c25.26,25.26,58.84,39.17,94.56,39.17s69.3-13.91,94.56-39.17c25.26-25.26,39.17-58.84,39.17-94.56s-13.91-69.3-39.17-94.56c-25.26-25.26-58.84-39.17-94.56-39.17h0Z"/><path class="aq" d="M135.06,451.82c73.65,0,133.36,59.71,133.36,133.36s-59.71,133.36-133.36,133.36S1.71,658.83,1.71,585.18s59.71-133.36,133.36-133.36m0-.37c-35.72,0-69.3,13.91-94.56,39.17-25.26,25.26-39.17,58.84-39.17,94.56s13.91,69.3,39.17,94.56c25.26,25.26,58.84,39.17,94.56,39.17s69.3-13.91,94.56-39.17c25.26-25.26,39.17-58.84,39.17-94.56s-13.91-69.3-39.17-94.56c-25.26-25.26-58.84-39.17-94.56-39.17h0Z"/><path class="aq" d="M87.01,499.92c73.65,0,133.36,59.71,133.36,133.36s-59.71,133.36-133.36,133.36-133.36-59.71-133.36-133.36S13.36,499.92,87.01,499.92m0-.37c-35.72,0-69.3,13.91-94.56,39.17-25.26,25.26-39.17,58.84-39.17,94.56s13.91,69.3,39.17,94.56c25.26,25.26,58.84,39.17,94.56,39.17s69.3-13.91,94.56-39.17c25.26-25.26,39.17-58.84,39.17-94.56s-13.91-69.3-39.17-94.56c-25.26-25.26-58.84-39.17-94.56-39.17h0Z"/><path class="aq" d="M38.95,548.02c73.65,0,133.36,59.71,133.36,133.36s-59.71,133.35-133.36,133.35-133.36-59.71-133.36-133.35,59.71-133.36,133.36-133.36m0-.37c-35.72,0-69.3,13.91-94.56,39.17-25.26,25.26-39.17,58.84-39.17,94.56s13.91,69.3,39.17,94.56c25.26,25.26,58.84,39.17,94.56,39.17s69.3-13.91,94.56-39.17c25.26-25.26,39.17-58.84,39.17-94.56s-13.91-69.3-39.17-94.56c-25.26-25.26-58.84-39.17-94.56-39.17h0Z"/></g></g></g><line class="al" x1="-131.8" y1="663.01" x2="700.94" y2="-169.73"/><line class="ak" x1="229.16" y1="679.58" x2="909.77" y2="-1.03"/><g><g class="af"><circle class="at" cx="279.23" cy="440.88" r="133.36"/></g><path class="as" d="M279.23,307.53c73.65,0,133.36,59.71,133.36,133.36s-59.71,133.36-133.36,133.36-133.36-59.71-133.36-133.36,59.71-133.36,133.36-133.36m0-.56c-35.77,0-69.4,13.93-94.69,39.22-25.29,25.29-39.22,58.92-39.22,94.69s13.93,69.4,39.22,94.69c25.29,25.29,58.92,39.22,94.69,39.22s69.4-13.93,94.69-39.22c25.29-25.29,39.22-58.92,39.22-94.69s-13.93-69.4-39.22-94.69c-25.29-25.29-58.92-39.22-94.69-39.22h0Z"/></g><g><g class="ad"><circle class="ar" cx="423.39" cy="296.59" r="133.36"/></g><path class="aq" d="M423.52,163.22c24.86,0,50.01,6.94,72.41,21.47,61.8,40.06,79.42,122.64,39.36,184.44-25.54,39.39-68.33,60.83-112.02,60.83-24.86,0-50.01-6.94-72.41-21.47-61.8-40.06-79.42-122.64-39.36-184.44,25.54-39.39,68.33-60.83,112.02-60.83m0-.56c-45.64,0-87.7,22.84-112.49,61.09-19.46,30.01-26.06,65.81-18.6,100.79,7.47,34.98,28.11,64.96,58.12,84.42,21.76,14.11,46.9,21.56,72.72,21.56,45.64,0,87.7-22.84,112.49-61.09,19.46-30.01,26.06-65.81,18.6-100.79-7.47-34.98-28.11-64.96-58.12-84.42-21.76-14.11-46.9-21.56-72.72-21.56h0Z"/></g><g><g class="ae"><circle class="ap" cx="567.56" cy="152.29" r="133.36"/></g><path class="an" d="M567.56,18.94c73.65,0,133.36,59.71,133.36,133.36s-59.71,133.36-133.36,133.36-133.36-59.71-133.36-133.36S493.91,18.94,567.56,18.94m0-.86c-35.85,0-69.55,13.96-94.9,39.31-25.35,25.35-39.31,59.05-39.31,94.9s13.96,69.55,39.31,94.9c25.35,25.35,59.05,39.31,94.9,39.31s69.55-13.96,94.9-39.31c25.35-25.35,39.31-59.05,39.31-94.9s-13.96-69.55-39.31-94.9c-25.35-25.35-59.05-39.31-94.9-39.31h0Z"/></g><g><g class="ah"><circle class="at" cx="567.56" cy="152.29" r="133.36"/></g><path class="as" d="M567.56,18.94c73.65,0,133.36,59.71,133.36,133.36s-59.71,133.36-133.36,133.36-133.36-59.71-133.36-133.36S493.91,18.94,567.56,18.94m0-.86c-35.85,0-69.55,13.96-94.9,39.31-25.35,25.35-39.31,59.05-39.31,94.9s13.96,69.55,39.31,94.9c25.35,25.35,59.05,39.31,94.9,39.31s69.55-13.96,94.9-39.31c25.35-25.35,39.31-59.05,39.31-94.9s-13.96-69.55-39.31-94.9c-25.35-25.35-59.05-39.31-94.9-39.31h0Z"/></g><path class="an" d="M567.56,18.94c73.65,0,133.36,59.71,133.36,133.36s-59.71,133.36-133.36,133.36-133.36-59.71-133.36-133.36S493.91,18.94,567.56,18.94m0-.86c-35.85,0-69.55,13.96-94.9,39.31-25.35,25.35-39.31,59.05-39.31,94.9s13.96,69.55,39.31,94.9c25.35,25.35,59.05,39.31,94.9,39.31s69.55-13.96,94.9-39.31c25.35-25.35,39.31-59.05,39.31-94.9s-13.96-69.55-39.31-94.9c-25.35-25.35-59.05-39.31-94.9-39.31h0Z"/><path class="an" d="M567.56,18.94c73.65,0,133.36,59.71,133.36,133.36s-59.71,133.36-133.36,133.36-133.36-59.71-133.36-133.36S493.91,18.94,567.56,18.94m0-.56c-35.77,0-69.4,13.93-94.69,39.22-25.29,25.29-39.22,58.92-39.22,94.69s13.93,69.4,39.22,94.69c25.29,25.29,58.92,39.22,94.69,39.22s69.4-13.93,94.69-39.22c25.29-25.29,39.22-58.92,39.22-94.69s-13.93-69.4-39.22-94.69c-25.29-25.29-58.92-39.22-94.69-39.22h0Z"/></g></g><g id="r"/><g id="s"/><g id="t"/><g id="u"/><g id="v"/><g id="w"/></svg>