<?xml version="1.0" encoding="UTF-8"?><svg xmlns="http://www.w3.org/2000/svg" xmlns:xlink="http://www.w3.org/1999/xlink" viewBox="0 0 841.89 595.28"><defs><style>.be{fill:url(#u);}.bf{fill:url(#o);}.bg{fill:url(#s);}.bh{fill:url(#q);}.bi{fill:url(#i);}.bj{fill:url(#m);}.bk{fill:url(#w);}.bl{fill:url(#y);}.bm{mask:url(#l);}.bn{mask:url(#n);}.bo{mask:url(#g);}.bp{mask:url(#j);}.bq{mask:url(#p);}.br{mask:url(#r);}.bs{mask:url(#v);}.bt{mask:url(#x);}.bu{mask:url(#t);}.bv,.bw,.bx,.by,.c`,.ca,.cb,.cc,.cd,.ce,.cf,.cg,.ch,.ci,.cj,.ck,.cl,.cm,.cn,.co,.cp,.cq,.cr,.cs,.ct,.cu,.cv,.cw,.cx,.cy,.d`,.da,.db,.dc{fill:none;}.dd{filter:url(#h);}.bw,.cv,.d`,.dc{stroke:#0097ff;stroke-width:.38px;}.bw,.cw,.cx,.cy{opacity:.6;}.de{fill:#00e3ff;stroke:#00e3ff;stroke-width:.13px;}.de,.bx,.cv,.df{opacity:.2;}.dg{opacity:.05;}.dg,.dh,.di,.dj,.df{fill:#0097ff;stroke:#e05cff;stroke-width:.1px;}.dk{filter:url(#k);}.dh,.da,.db,.dc{opacity:.4;}.bx{stroke:url(#a`);}.bx,.by,.c`,.ca,.cb,.cc,.cd,.ce,.cf,.cg,.ch,.ci,.cj,.ck,.cl,.cm,.cn,.co,.cp,.cq,.cr,.cs,.ct,.cu,.cw,.cx,.cy,.da,.db{stroke-width:.35px;}.by{stroke:url(#aq);}.c`{stroke:url(#al);}.ca{stroke:url(#ak);}.cb{stroke:url(#ad);}.cc{stroke:url(#ac);}.cd{stroke:url(#an);}.ce{stroke:url(#am);}.cf{stroke:url(#aw);}.cg{stroke:url(#ar);}.ch{stroke:url(#aj);}.ci{stroke:url(#ae);}.cj{stroke:url(#ap);}.ck{stroke:url(#ao);}.cl{stroke:url(#at);}.cm{stroke:url(#ay);}.cn{stroke:url(#as);}.co{stroke:url(#au);}.cp{stroke:url(#b`);}.cq{stroke:url(#bb);}.cr{stroke:url(#ab);}.cs{stroke:url(#ag);}.ct{stroke:url(#af);}.cu{stroke:url(#aa);}.di{opacity:.3;}.dl{clip-path:url(#f);}.dj{opacity:.1;}.cw{stroke:url(#ah);}.cx{stroke:url(#ax);}.cy{stroke:url(#av);}.da{stroke:url(#ai);}.db{stroke:url(#ba);}</style><clipPath id="f"><rect class="bv" width="841.89" height="595.28"/></clipPath><filter id="h" color-interpolation-filters="sRGB" filterUnits="userSpaceOnUse"><feColorMatrix values="-1 0 0 0 1 0 -1 0 0 1 0 0 -1 0 1 0 0 0 1 0"/></filter><linearGradient id="i" x1="153.72" y1="359.5" x2="689.84" y2="-176.61" gradientTransform="translate(261.95 513.23) rotate(-90)" gradientUnits="userSpaceOnUse"><stop offset=".02" stop-color="#3535e5" stop-opacity="0"/><stop offset=".07" stop-color="#2d2dd2" stop-opacity=".14"/><stop offset=".19" stop-color="#1d1daa" stop-opacity=".45"/><stop offset=".33" stop-color="#10108a" stop-opacity=".69"/><stop offset=".47" stop-color="#070773" stop-opacity=".86"/><stop offset=".63" stop-color="#010166" stop-opacity=".97"/><stop offset=".82" stop-color="#000062"/></linearGradient><mask id="g" x="-213.4" y="-387.2" width="1352.89" height="1151.7" maskUnits="userSpaceOnUse"><g class="dd"><rect class="bi" x="-125.25" y="-423.23" width="1025.68" height="1097.74" transform="translate(513.23 -261.95) rotate(90)"/></g></mask><mask id="j" x="187.9" y="-8490" width="401.12" height="32766" maskUnits="userSpaceOnUse"><g class="dd"><g class="dk"/></g></mask><linearGradient id="m" x1="634.24" y1="2122.28" x2="397.37" y2="1709.66" gradientTransform="translate(-78.85 2189.81) scale(1 -1)" gradientUnits="userSpaceOnUse"><stop offset="0" stop-color="#fff"/><stop offset="1" stop-color="#000"/></linearGradient><mask id="l" x="234.01" y="100.79" width="406.47" height="345.12" maskUnits="userSpaceOnUse"><rect class="bj" x="234.01" y="100.79" width="406.47" height="345.12"/></mask><linearGradient id="o" x1="482.84" y1="1970.88" x2="245.97" y2="1558.26" xlink:href="#m"/><mask id="n" x="82.61" y="252.19" width="406.47" height="345.12" maskUnits="userSpaceOnUse"><rect class="bf" x="82.61" y="252.19" width="406.47" height="345.12"/></mask><linearGradient id="q" x1="513.12" y1="2001.16" x2="276.25" y2="1588.54" xlink:href="#m"/><mask id="p" x="112.89" y="221.91" width="406.47" height="345.12" maskUnits="userSpaceOnUse"><rect class="bh" x="112.89" y="221.91" width="406.47" height="345.12"/></mask><linearGradient id="s" x1="543.4" y1="2031.44" x2="306.53" y2="1618.82" xlink:href="#m"/><mask id="r" x="143.17" y="191.63" width="406.47" height="345.12" maskUnits="userSpaceOnUse"><rect class="bg" x="143.17" y="191.63" width="406.47" height="345.12"/></mask><linearGradient id="u" x1="573.68" y1="2061.72" x2="336.81" y2="1649.1" xlink:href="#m"/><mask id="t" x="173.45" y="161.35" width="406.47" height="345.12" maskUnits="userSpaceOnUse"><rect class="be" x="173.45" y="161.35" width="406.47" height="345.12"/></mask><linearGradient id="w" x1="664.52" y1="2152.82" x2="427.65" y2="1740.21" xlink:href="#m"/><mask id="v" x="264.28" y="70.24" width="406.47" height="345.12" maskUnits="userSpaceOnUse"><rect class="bk" x="264.28" y="70.24" width="406.47" height="345.12"/></mask><linearGradient id="y" x1="603.96" y1="2092" x2="367.09" y2="1679.38" xlink:href="#m"/><mask id="x" x="203.73" y="131.07" width="406.47" height="345.12" maskUnits="userSpaceOnUse"><rect class="bl" x="203.73" y="131.07" width="406.47" height="345.12"/></mask><linearGradient id="a`" x1="354" y1="249.18" x2="385.53" y2="132.64" gradientTransform="matrix(1, 0, 0, 1, 0, 0)" gradientUnits="userSpaceOnUse"><stop offset=".39" stop-color="#0097ff"/><stop offset=".87" stop-color="#0097ff" stop-opacity="0"/></linearGradient><linearGradient id="aa" x1="345.93" y1="1001.78" x2="418.21" y2="734.67" gradientTransform="translate(-12.3 1050.03) scale(1 -1)" gradientUnits="userSpaceOnUse"><stop offset=".02" stop-color="#0097ff" stop-opacity="0"/><stop offset=".11" stop-color="#0097ff"/><stop offset=".82" stop-color="#0097ff"/><stop offset="1" stop-color="#0097ff" stop-opacity="0"/></linearGradient><linearGradient id="ab" x1="255.09" y1="930.19" x2="327.37" y2="663.08" xlink:href="#aa"/><linearGradient id="ac" x1="59.45" y1="-1954.69" x2="155.49" y2="-2309.61" gradientTransform="translate(-1616 219.91) rotate(-90) scale(1 -1)" xlink:href="#aa"/><linearGradient id="ad" x1="-171.77" y1="-2078.47" x2="-96.42" y2="-2356.96" gradientTransform="translate(-1616 219.91) rotate(-90) scale(1 -1)" xlink:href="#aa"/><linearGradient id="ae" x1="-1231.62" y1="2109.59" x2="-970.44" y2="1144.36" gradientTransform="translate(-174.63 2215.49) rotate(45) scale(1 -1)" gradientUnits="userSpaceOnUse"><stop offset=".02" stop-color="#0097ff" stop-opacity="0"/><stop offset=".11" stop-color="#0097ff"/><stop offset=".42" stop-color="#0097ff"/><stop offset=".79" stop-color="#0097ff" stop-opacity="0"/></linearGradient><linearGradient id="af" x1="356.47" y1="-2019.22" x2="407.67" y2="-2208.45" gradientTransform="translate(-12.3 2433.58)" xlink:href="#aa"/><linearGradient id="ag" x1="-171.77" y1="859.18" x2="-96.42" y2="580.69" gradientTransform="translate(-281.7 219.91) rotate(-90)" xlink:href="#aa"/><linearGradient id="ah" x1="-292.89" y1="740.68" x2="-217.54" y2="462.19" gradientTransform="translate(-281.7 219.91) rotate(-90)" gradientUnits="userSpaceOnUse"><stop offset=".02" stop-color="#0097ff" stop-opacity="0"/><stop offset=".11" stop-color="#0097ff"/><stop offset=".82" stop-color="#0097ff" stop-opacity=".6"/><stop offset="1" stop-color="#0097ff" stop-opacity="0"/></linearGradient><linearGradient id="ai" x1="184.26" y1="922.04" x2="277.07" y2="579.04" xlink:href="#aa"/><linearGradient id="aj" x1="585" y1="1024.5" x2="677.82" y2="681.49" xlink:href="#aa"/><linearGradient id="ak" x1="275.1" y1="942.92" x2="367.91" y2="599.91" xlink:href="#aa"/><linearGradient id="al" x1="-31.65" y1="-1867.71" x2="64.39" y2="-2222.63" gradientTransform="translate(-1616 219.91) rotate(-90) scale(1 -1)" xlink:href="#aa"/><linearGradient id="am" x1="-799.52" y1="2084.67" x2="-669.18" y2="1602.97" gradientTransform="translate(-174.63 2215.49) rotate(45) scale(1 -1)" xlink:href="#aa"/><linearGradient id="an" x1="-232.13" y1="-2026.27" x2="-156.78" y2="-2304.76" gradientTransform="translate(-1616 219.91) rotate(-90) scale(1 -1)" xlink:href="#aa"/><linearGradient id="ao" x1="-2479.2" y1="-2117.03" x2="-2406.92" y2="-2384.14" gradientTransform="translate(-1854.23 2638.91) rotate(-180) scale(1 -1)" xlink:href="#aa"/><linearGradient id="ap" x1="1207.72" y1="-2892.39" x2="1315.55" y2="-3290.91" gradientTransform="translate(-2666.29 1404.61) rotate(-90) scale(1 -1)" xlink:href="#aa"/><linearGradient id="aq" x1="-2509.48" y1="-2220.06" x2="-2437.2" y2="-2487.17" gradientTransform="translate(-1854.23 2638.91) rotate(-180) scale(1 -1)" xlink:href="#aa"/><linearGradient id="ar" x1="410.27" y1="1078.27" x2="482.55" y2="811.16" xlink:href="#aa"/><linearGradient id="as" x1="443.87" y1="961.99" x2="516.15" y2="694.88" xlink:href="#aa"/><linearGradient id="at" x1="474.15" y1="922.3" x2="546.43" y2="655.19" xlink:href="#aa"/><linearGradient id="au" x1="-5569.75" y1="-660.44" x2="-5494.39" y2="-938.93" gradientTransform="translate(-5253.15 -449.55) rotate(-180)" xlink:href="#aa"/><linearGradient id="av" x1="-5630.31" y1="-695.24" x2="-5554.95" y2="-973.73" gradientTransform="translate(-5253.15 -449.55) rotate(-180)" xlink:href="#aa"/><linearGradient id="aw" x1="-5693.26" y1="-574.26" x2="-5617.9" y2="-852.75" gradientTransform="translate(-5253.15 -449.55) rotate(-180)" xlink:href="#aa"/><linearGradient id="ax" x1="-292.89" y1="-2062.72" x2="-217.54" y2="-2341.21" gradientTransform="translate(-1616 219.91) rotate(-90) scale(1 -1)" xlink:href="#aa"/><linearGradient id="ay" x1="-51.59" y1="690.74" x2="23.76" y2="412.25" gradientTransform="translate(-281.7 219.91) rotate(-90)" xlink:href="#aa"/><linearGradient id="b`" x1="-3061.16" y1="4109.4" x2="-2965.13" y2="3754.48" gradientTransform="translate(-3407.75 3398.07) rotate(90) scale(1 -1)" xlink:href="#aa"/><linearGradient id="ba" x1="305.38" y1="987.51" x2="398.19" y2="644.51" xlink:href="#aa"/><linearGradient id="bb" x1="620.02" y1="992.15" x2="703.36" y2="684.16" xlink:href="#aa"/></defs><g id="a"/><g id="b"/><g id="c"/><g id="d"/><g id="e"><g class="dl"><g class="bo"><polygon class="de" points="92.29 689.34 -213.25 696.71 834.73 -350.34 1139.39 -136.75 309.2 691.73 145.92 764.42 92.29 689.34"/></g><g class="bp"><g><g class="bm"><rect class="df" x="339.48" y="142.98" width="279.62" height="241.3" rx="2.86" ry="2.86"/></g><g><g class="bn"><rect class="dg" x="188.09" y="294.38" width="279.62" height="241.3" rx="2.86" ry="2.86"/></g><rect class="cv" x="188.09" y="294.38" width="279.62" height="241.1" rx="2.66" ry="2.66"/></g><g><g class="bq"><rect class="dj" x="218.37" y="264.1" width="279.62" height="241.3" rx="2.86" ry="2.86"/></g><rect class="dc" x="218.37" y="264.1" width="279.62" height="241.1" rx="2.66" ry="2.66"/></g><g><g class="br"><rect class="df" x="248.65" y="233.82" width="279.62" height="241.3" rx="2.86" ry="2.86"/></g><rect class="bw" x="248.65" y="233.82" width="279.62" height="241.1" rx="2.66" ry="2.66"/></g><g><g class="bu"><rect class="di" x="278.93" y="203.54" width="279.62" height="241.3" rx="2.86" ry="2.86"/></g><rect class="d`" x="278.93" y="203.54" width="279.62" height="241.1" rx="2.66" ry="2.66"/></g><g class="bs"><rect class="dj" x="369.76" y="112.43" width="279.62" height="241.3" rx="2.86" ry="2.86"/></g><g><g class="bt"><rect class="dh" x="309.2" y="173.26" width="279.62" height="241.3" rx="2.86" ry="2.86"/></g><rect class="d`" x="309.2" y="173.26" width="279.62" height="241.1" rx="2.66" ry="2.66"/></g></g></g><line class="bx" x1="369.76" y1="253.4" x2="369.76" y2="128.42"/><line class="cu" x1="369.76" y1="325.09" x2="369.76" y2="38.52"/><line class="cr" x1="278.93" y1="396.69" x2="278.93" y2="110.11"/><line class="cc" x1="706.56" y1="112.43" x2="325.74" y2="112.43"/><line class="cb" x1="751.11" y1="354" x2="452.32" y2="354"/><line class="ci" x1="-168.94" y1="652.71" x2="563.48" y2="-79.72"/><line class="ct" x1="369.76" y1="218.25" x2="369.76" y2="421.23"/><line class="cs" x1="288.85" y1="354" x2="587.63" y2="354"/><line class="cw" x1="170.34" y1="475.12" x2="469.13" y2="475.12"/><line class="da" x1="218.37" y1="483.51" x2="218.37" y2="115.48"/><line class="ch" x1="619.11" y1="381.05" x2="619.11" y2="13.03"/><line class="ca" x1="309.2" y1="462.63" x2="309.2" y2="94.61"/><line class="c`" x1="619.58" y1="203.54" x2="238.76" y2="203.54"/><line class="ce" x1="426.56" y1="574.85" x2="793.22" y2="210.05"/><line class="cd" x1="698.9" y1="414.36" x2="400.12" y2="414.36"/><line class="ck" x1="588.83" y1="245.04" x2="588.83" y2="531.61"/><line class="cj" x1="639.16" y1="142.98" x2="211.55" y2="142.98"/><line class="by" x1="619.11" y1="142.01" x2="619.11" y2="428.58"/><line class="cg" x1="434.11" y1="248.61" x2="434.11" y2="-37.97"/><line class="cn" x1="467.71" y1="364.89" x2="467.71" y2="78.31"/><line class="cl" x1="497.99" y1="404.57" x2="497.99" y2="118"/><line class="co" x1="278.93" y1="499.52" x2="278.93" y2="200.74"/><line class="cy" x1="339.48" y1="534.32" x2="339.48" y2="235.54"/><line class="cf" x1="402.43" y1="413.35" x2="402.43" y2="114.56"/><line class="cx" x1="735.35" y1="475.12" x2="436.57" y2="475.12"/><line class="cm" x1="120.4" y1="233.82" x2="419.19" y2="233.82"/><line class="cp" x1="333.79" y1="384.93" x2="714.6" y2="384.93"/><line class="db" x1="339.48" y1="418.03" x2="339.48" y2="50.01"/><line class="cq" x1="649.39" y1="377.1" x2="649.39" y2="46.65"/></g></g><g id="bc"/><g id="bd"/></svg>