<svg width="753" height="713" viewBox="0 0 753 713" fill="none" xmlns="http://www.w3.org/2000/svg">
<g style="mix-blend-mode:multiply">
<path d="M447.995 164.493C454.403 161.093 462.06 161.002 468.547 164.248L740.046 300.115C741.363 300.774 742.195 302.121 742.195 303.594L742.195 318.406C742.195 322.128 740.208 325.567 736.984 327.427L327.753 563.463C306.625 575.649 280.593 575.604 259.507 563.345L19.9971 424.086C15.8046 421.648 13.2248 417.165 13.2241 412.315L13.2221 399.161C13.2217 396.999 14.2657 394.97 16.0249 393.713L447.995 164.493Z" fill="#2C2578"/>
<path d="M454.222 149.252C460.948 145.6 469.071 145.629 475.77 149.329L736.454 293.318C743.554 297.24 743.643 307.415 736.612 311.461L327.801 546.666C306.648 558.836 280.601 558.755 259.524 546.455L21.6798 407.648C12.5131 402.298 12.7183 388.983 22.0456 383.919L454.222 149.252Z" fill="#2A3E91"/>
</g>
</svg>
