<svg width="600" height="568" viewBox="0 0 600 568" fill="none" xmlns="http://www.w3.org/2000/svg">
<g style="mix-blend-mode:multiply">
<path d="M356.642 130.951C361.744 128.244 367.839 128.171 373.003 130.755L589.139 238.917C590.187 239.442 590.85 240.514 590.85 241.686L590.85 253.478C590.85 256.441 589.268 259.179 586.702 260.659L260.919 448.564C244.1 458.265 223.376 458.229 206.59 448.47L15.9202 337.608C12.5826 335.667 10.5289 332.098 10.5283 328.238L10.5267 317.766C10.5265 316.045 11.3575 314.43 12.758 313.429L356.642 130.951Z" fill="#0E2569"/>
<path d="M371.819 121.848C377.17 119.066 383.564 119.174 388.819 122.134L586.462 233.469C592.062 236.623 592.098 244.673 586.528 247.877L260.957 435.192C244.118 444.88 223.381 444.816 206.603 435.024L17.615 324.73C10.2418 320.427 10.5043 309.685 18.0788 305.748L371.819 121.848Z" fill="#486DF1"/>
</g>
</svg>
