<svg width="14" height="16" viewBox="0 0 14 16" fill="none" xmlns="http://www.w3.org/2000/svg">
<path d="M14 14.5C14 15.3281 13.3281 16 12.5 16H1.5C0.671875 16 0 15.3281 0 14.5V6H14V14.5ZM12 8.5C12 8.225 11.775 8 11.5 8H8.5C8.225 8 8 8.225 8 8.5V11.5C8 11.775 8.225 12 8.5 12H11.5C11.775 12 12 11.775 12 11.5V8.5ZM1.5 2H3V0.5C3 0.225 3.225 0 3.5 0H4.5C4.775 0 5 0.225 5 0.5V2H9V0.5C9 0.225 9.225 0 9.5 0H10.5C10.775 0 11 0.225 11 0.5V2H12.5C13.3281 2 14 2.67188 14 3.5V5H0V3.5C0 2.67188 0.671875 2 1.5 2Z" fill="#A1A1AA"/>
</svg>
