<svg width="18" height="16" viewBox="0 0 18 16" fill="none" xmlns="http://www.w3.org/2000/svg">
<path d="M9.00015 3.59399L2.17121 9.61606C2.12058 9.66169 2.0559 9.68294 2.00027 9.72075V15.5C2.00027 15.6326 2.05295 15.7598 2.14672 15.8536C2.24048 15.9473 2.36766 16 2.50027 16H6.50019C6.6328 16 6.75997 15.9473 6.85374 15.8536C6.94751 15.7598 7.00018 15.6326 7.00018 15.5V11.5001C7.00018 11.3675 7.05286 11.2403 7.14663 11.1465C7.24039 11.0528 7.36757 11.0001 7.50017 11.0001H10.5001C10.6327 11.0001 10.7599 11.0528 10.8537 11.1465C10.9474 11.2403 11.0001 11.3675 11.0001 11.5001V15.5C11.0001 15.6326 11.0528 15.7598 11.1466 15.8536C11.2403 15.9473 11.3675 16 11.5001 16H15.5C15.6326 16 15.7598 15.9473 15.8536 15.8536C15.9473 15.7598 16 15.6326 16 15.5V9.722C15.9469 9.68575 15.8838 9.66512 15.8356 9.622L9.00015 3.59399ZM17.834 7.38392L9.83607 0.321555C9.60715 0.11459 9.30954 0 9.00093 0C8.69232 0 8.39471 0.11459 8.16579 0.321555L0.165933 7.38392C0.117065 7.4278 0.0773219 7.48088 0.0489734 7.54012C0.0206248 7.59937 0.00422647 7.66362 0.000715104 7.7292C-0.00279626 7.79479 0.00664816 7.86042 0.0285089 7.92235C0.0503695 7.98429 0.0842181 8.04131 0.128121 8.09015L0.797171 8.83451C0.841053 8.88338 0.894132 8.92313 0.953377 8.95147C1.01262 8.97982 1.07687 8.99622 1.14246 8.99973C1.20804 9.00324 1.27367 8.9938 1.33561 8.97194C1.39754 8.95008 1.45456 8.91623 1.50341 8.87233L8.66953 2.5512C8.76087 2.47061 8.87849 2.42615 9.0003 2.42615C9.12211 2.42615 9.23973 2.47061 9.33108 2.5512L16.4972 8.87201C16.546 8.91592 16.6031 8.94976 16.665 8.97163C16.7269 8.99349 16.7926 9.00293 16.8582 8.99942C16.9237 8.99591 16.988 8.97951 17.0472 8.95116C17.1065 8.92281 17.1596 8.88307 17.2034 8.8342L17.8722 8.08984C17.9607 7.99116 18.0064 7.86136 17.9993 7.72899C17.9921 7.59661 17.9327 7.47249 17.834 7.38392V7.38392Z" fill="#A1A1AA"/>
</svg>
