<svg width="19" height="20" viewBox="0 0 19 20" fill="none" xmlns="http://www.w3.org/2000/svg">
<path d="M16.625 17.125L11.875 12.375M13.4583 8.41667C13.4583 9.14441 13.315 9.86503 13.0365 10.5374C12.758 11.2097 12.3498 11.8206 11.8352 12.3352C11.3206 12.8498 10.7097 13.258 10.0374 13.5365C9.36503 13.815 8.64441 13.9583 7.91667 13.9583C7.18892 13.9583 6.46831 13.815 5.79596 13.5365C5.12362 13.258 4.51271 12.8498 3.99812 12.3352C3.48353 11.8206 3.07533 11.2097 2.79683 10.5374C2.51834 9.86503 2.375 9.14441 2.375 8.41667C2.375 6.94693 2.95885 5.53738 3.99812 4.49812C5.03738 3.45885 6.44693 2.875 7.91667 2.875C9.38641 2.875 10.796 3.45885 11.8352 4.49812C12.8745 5.53738 13.4583 6.94693 13.4583 8.41667Z" stroke="currentColor" stroke-width="2" stroke-linecap="round" stroke-linejoin="round"/>
</svg>
