<svg width="23" height="24" viewBox="0 0 23 24" fill="none" xmlns="http://www.w3.org/2000/svg">
<path d="M21.625 22.125L14.875 15.375M17.125 9.75C17.125 10.7842 16.9213 11.8082 16.5256 12.7636C16.1298 13.7191 15.5497 14.5872 14.8185 15.3185C14.0872 16.0497 13.2191 16.6298 12.2636 17.0256C11.3082 17.4213 10.2842 17.625 9.25 17.625C8.21584 17.625 7.19181 17.4213 6.23637 17.0256C5.28093 16.6298 4.4128 16.0497 3.68153 15.3185C2.95027 14.5872 2.3702 13.7191 1.97445 12.7636C1.57869 11.8082 1.375 10.7842 1.375 9.75C1.375 7.66142 2.20469 5.65838 3.68153 4.18153C5.15838 2.70469 7.16142 1.875 9.25 1.875C11.3386 1.875 13.3416 2.70469 14.8185 4.18153C16.2953 5.65838 17.125 7.66142 17.125 9.75Z" stroke="black" stroke-width="2" stroke-linecap="round" stroke-linejoin="round"/>
</svg>
