<svg width="139" height="41" viewBox="0 0 139 41" fill="none" xmlns="http://www.w3.org/2000/svg">
<path d="M32.6973 1.29634H37.702C40.4094 1.29634 42.3585 1.5491 43.5493 2.05463C44.7513 2.54892 45.6949 3.35776 46.3802 4.48116C47.0767 5.59332 47.425 6.93016 47.425 8.49167C47.425 10.2217 46.97 11.6596 46.06 12.8055C45.1613 13.9514 43.9368 14.749 42.3865 15.1983C41.4766 15.4567 39.8196 15.5859 37.4155 15.5859V26.084H32.6973V1.29634ZM37.4155 10.9856H38.9153C40.0948 10.9856 40.9149 10.9014 41.3755 10.7328C41.8361 10.5643 42.1956 10.2891 42.4539 9.90715C42.7236 9.51396 42.8584 9.04214 42.8584 8.49167C42.8584 7.53679 42.4876 6.84029 41.7462 6.40216C41.207 6.07638 40.2072 5.91349 38.7467 5.91349H37.4155V10.9856Z" fill="white"/>
<path d="M64.288 0.672852C67.793 0.672852 70.8037 1.94229 73.3201 4.48116C75.8477 7.02003 77.1116 10.115 77.1116 13.766C77.1116 17.3833 75.8646 20.4446 73.3707 22.9498C70.888 25.4549 67.8716 26.7075 64.3217 26.7075C60.6033 26.7075 57.5139 25.4212 55.0537 22.8487C52.5935 20.2761 51.3634 17.2204 51.3634 13.6818C51.3634 11.3114 51.9363 9.13201 53.0822 7.1436C54.228 5.15519 55.8008 3.58244 57.8004 2.42535C59.8113 1.25702 61.9738 0.672852 64.288 0.672852ZM64.2375 5.29C61.9457 5.29 60.0191 6.08761 58.4576 7.68283C56.8961 9.27805 56.1153 11.3058 56.1153 13.766C56.1153 16.5071 57.0983 18.6752 59.0642 20.2705C60.592 21.5174 62.3445 22.1409 64.3217 22.1409C66.5573 22.1409 68.4614 21.3321 70.0342 19.7144C71.6069 18.0967 72.3933 16.1027 72.3933 13.7323C72.3933 11.3732 71.6013 9.37916 70.0173 7.75024C68.4333 6.11008 66.5067 5.29 64.2375 5.29Z" fill="white"/>
<path d="M82.0779 1.29634H86.7961V21.5848H93.6713V26.084H82.0779V1.29634Z" fill="white"/>
<path d="M97.795 1.29634H102.513V21.5848H109.388V26.084H97.795V1.29634Z" fill="white"/>
<path d="M125.224 0.672852C128.729 0.672852 131.739 1.94229 134.256 4.48116C136.783 7.02003 138.047 10.115 138.047 13.766C138.047 17.3833 136.8 20.4446 134.306 22.9498C131.824 25.4549 128.807 26.7075 125.257 26.7075C121.539 26.7075 118.45 25.4212 115.989 22.8487C113.529 20.2761 112.299 17.2204 112.299 13.6818C112.299 11.3114 112.872 9.13201 114.018 7.1436C115.164 5.15519 116.736 3.58244 118.736 2.42535C120.747 1.25702 122.909 0.672852 125.224 0.672852ZM125.173 5.29C122.881 5.29 120.955 6.08761 119.393 7.68283C117.832 9.27805 117.051 11.3058 117.051 13.766C117.051 16.5071 118.034 18.6752 120 20.2705C121.528 21.5174 123.28 22.1409 125.257 22.1409C127.493 22.1409 129.397 21.3321 130.97 19.7144C132.543 18.0967 133.329 16.1027 133.329 13.7323C133.329 11.3732 132.537 9.37916 130.953 7.75024C129.369 6.11008 127.442 5.29 125.173 5.29Z" fill="white"/>
<path d="M105.28 34.0963L104.298 35.0329C103.63 34.3284 102.879 33.9761 102.044 33.9761C101.34 33.9761 100.745 34.2165 100.261 34.6974C99.7804 35.1782 99.54 35.7709 99.54 36.4754C99.54 36.9663 99.6468 37.402 99.8605 37.7827C100.074 38.1633 100.376 38.4622 100.767 38.6792C101.158 38.8963 101.592 39.0048 102.069 39.0048C102.477 39.0048 102.849 38.9297 103.186 38.7794C103.524 38.6258 103.894 38.3487 104.298 37.948L105.25 38.9397C104.706 39.4706 104.191 39.8396 103.707 40.0466C103.223 40.2503 102.67 40.3521 102.049 40.3521C100.904 40.3521 99.9657 39.9898 99.2345 39.2652C98.5065 38.5373 98.1426 37.6057 98.1426 36.4704C98.1426 35.7358 98.3079 35.083 98.6384 34.512C98.9723 33.9411 99.4482 33.4819 100.066 33.1347C100.687 32.7874 101.355 32.6138 102.069 32.6138C102.677 32.6138 103.261 32.7423 103.822 32.9994C104.387 33.2565 104.873 33.6222 105.28 34.0963Z" fill="white"/>
<path d="M108.91 32.7991H110.332L113.167 40.1668H111.71L111.134 38.6492H108.128L107.527 40.1668H106.07L108.91 32.7991ZM109.631 34.7525L108.649 37.2818H110.608L109.631 34.7525Z" fill="white"/>
<path d="M114.408 32.7991H115.895C116.7 32.7991 117.279 32.8742 117.633 33.0245C117.991 33.1714 118.271 33.4118 118.475 33.7457C118.682 34.0763 118.785 34.4736 118.785 34.9378C118.785 35.452 118.65 35.8794 118.38 36.22C118.113 36.5606 117.749 36.7976 117.288 36.9312C117.017 37.008 116.525 37.0464 115.81 37.0464V40.1668H114.408V32.7991ZM115.81 35.6791H116.256C116.607 35.6791 116.85 35.654 116.987 35.6039C117.124 35.5538 117.231 35.472 117.308 35.3585C117.388 35.2416 117.428 35.1014 117.428 34.9378C117.428 34.654 117.318 34.4469 117.097 34.3167C116.937 34.2199 116.64 34.1715 116.206 34.1715H115.81V35.6791Z" fill="white"/>
<path d="M120.216 32.7991H121.609V40.1668H120.216V32.7991Z" fill="white"/>
<path d="M122.619 32.7991H126.691V34.1815H125.349V40.1668H123.926V34.1815H122.619V32.7991Z" fill="white"/>
<path d="M130.051 32.7991H131.473L134.308 40.1668H132.85L132.274 38.6492H129.269L128.668 40.1668H127.211L130.051 32.7991ZM130.772 34.7525L129.79 37.2818H131.749L130.772 34.7525Z" fill="white"/>
<path d="M135.554 32.7991H136.956V38.8295H139V40.1668H135.554V32.7991Z" fill="white"/>
<path d="M13.9387 33.1904L17.8833 26.3582H9.99414L13.9387 33.1904Z" fill="white"/>
<path fill-rule="evenodd" clip-rule="evenodd" d="M28.0909 26.0841L14.3094 1.29053L0 26.0841H5.99932L14.2244 11.8326L22.1461 26.0841H28.0909Z" fill="white"/>
<circle cx="14.2143" cy="16.7788" r="1.88036" fill="white"/>
</svg>
