<svg width="46" height="53" viewBox="0 0 46 53" fill="none" xmlns="http://www.w3.org/2000/svg">
<path fill-rule="evenodd" clip-rule="evenodd" d="M3.09634 3.64102V23.4698H-0.000976562V3.11964C-0.000976562 1.67986 1.15462 0.512695 2.58012 0.512695H26.054C31.633 0.512695 36.1463 5.09836 36.1133 10.7331C36.0908 14.5665 34.3936 17.9963 31.7248 20.3164C39.712 20.9463 45.999 27.692 45.999 35.9209C45.999 45.0843 38.6443 52.5127 29.5717 52.5127H-0.000976562V31.68H8.16181C8.9175 31.68 9.63523 32.0145 10.1256 32.5953L15.9734 39.5201L22.0042 31.68H25.7944L18.0063 41.9635C16.9952 43.2462 15.0767 43.279 14.0233 42.0315L7.92362 34.8084H3.09634V49.3844H29.5717C36.9337 49.3844 42.9017 43.3566 42.9017 35.9209C42.9017 29.004 37.35 23.3967 30.5016 23.3967H23.7204L18.1068 30.9842C17.0563 32.404 14.9396 32.374 13.929 30.925L8.61272 23.3021C8.01225 22.4411 7.98367 21.2997 8.5403 20.4092L13.8575 11.9021C14.8542 10.3075 17.1457 10.2762 18.1846 11.8431L23.7687 20.2646C28.8783 20.1219 32.9855 15.9096 33.016 10.7146C33.0389 6.81476 29.9152 3.64102 26.054 3.64102H3.09634ZM21.0477 21.783L16.0528 14.25L11.3432 21.785L16.0515 28.536L21.0477 21.783Z" fill="white"/>
</svg>
