<svg width="167" height="53" viewBox="0 0 167 53" fill="none" xmlns="http://www.w3.org/2000/svg">
<path d="M57.3308 26.028C57.2825 24.8349 57.4708 23.6441 57.885 22.5242C58.2992 21.4043 58.9311 20.3775 59.7442 19.503C60.5572 18.6286 61.5354 17.9238 62.6222 17.4293C63.7091 16.9349 64.8831 16.6605 66.0765 16.6221H66.4473C71.0598 16.6221 73.7821 19.3353 74.5871 22.5098L71.7201 23.4685C71.4625 22.2855 70.7882 21.2346 69.8203 20.5074C68.8523 19.7802 67.6552 19.4252 66.4473 19.5072C63.4628 19.5072 60.4692 21.6868 60.4692 26.0822C60.4692 30.4777 63.3904 32.5759 66.4835 32.5759C67.6974 32.6091 68.8874 32.2341 69.863 31.5111C70.8386 30.788 71.5434 29.7585 71.8648 28.5875L74.6775 29.4919C74.192 31.2783 73.1121 32.8458 71.6159 33.9359C70.1196 35.026 68.2966 35.5735 66.4473 35.4881C64.0717 35.5317 61.776 34.6302 60.0648 32.9818C58.3536 31.3333 57.367 29.0729 57.3218 26.6972C57.3128 26.4802 57.3218 26.2541 57.3308 26.028Z" fill="#1C64F2"/>
<path d="M80.2577 35.0727H77.2912V16.5684H80.2577V23.8037C80.6883 23.2929 81.2299 22.8872 81.8412 22.6176C82.4525 22.348 83.1173 22.2216 83.7849 22.2481C86.8509 22.2481 88.307 24.4458 88.307 27.1862V35.0727H85.449V27.7107C85.5346 27.0832 85.3703 26.4471 84.9913 25.9395C84.6124 25.432 84.0492 25.0937 83.4231 24.9975C83.2457 24.9793 83.0669 24.9793 82.8895 24.9975C82.2035 24.9975 81.5456 25.27 81.0605 25.7551C80.5754 26.2402 80.3029 26.8981 80.3029 27.5841C80.2984 27.6594 80.2984 27.7349 80.3029 27.8102L80.2577 35.0727Z" fill="#1C64F2"/>
<path d="M94.9632 27.9456L98.1468 27.4482C98.8703 27.3577 99.0512 26.9869 99.0512 26.5438C99.0512 25.4946 98.3458 24.6535 96.6997 24.6535C96.0781 24.6033 95.4617 24.8001 94.9842 25.2014C94.5068 25.6026 94.2068 26.176 94.1493 26.797V26.9327L91.436 26.3267C91.6621 24.1742 93.6157 22.2568 96.6726 22.2568C100.507 22.2568 101.963 24.4274 101.963 26.9598V33.1369C101.96 33.8063 102.012 34.4747 102.117 35.1357H99.4039C99.3061 34.6111 99.2667 34.0772 99.2863 33.5439C98.8745 34.1777 98.3037 34.6925 97.6308 35.0369C96.958 35.3812 96.2066 35.5432 95.4516 35.5065C94.4205 35.5916 93.3976 35.2643 92.6075 34.5963C91.8174 33.9282 91.3246 32.9741 91.2371 31.9431C91.2371 31.8798 91.2371 31.8165 91.2371 31.7622C91.1918 29.4741 92.8288 28.2441 94.9632 27.9456ZM99.0693 29.9444V29.3746L95.8224 29.863C95.3817 29.8769 94.9634 30.0607 94.6549 30.3759C94.3465 30.6911 94.1718 31.1132 94.1674 31.5542C94.1708 31.7727 94.2178 31.9883 94.3055 32.1885C94.3932 32.3887 94.5199 32.5694 94.6781 32.7201C94.8364 32.8708 95.0231 32.9884 95.2273 33.0662C95.4316 33.144 95.6492 33.1803 95.8677 33.1731H96.0033C96.3735 33.2119 96.7477 33.177 97.1044 33.0705C97.461 32.964 97.7931 32.788 98.0815 32.5526C98.3698 32.3172 98.6087 32.0271 98.7845 31.699C98.9602 31.3709 99.0693 31.0112 99.1055 30.6408C99.1184 30.4076 99.1032 30.1738 99.0602 29.9444H99.0693Z" fill="#1C64F2"/>
<path d="M107.01 16.315C107.265 16.3114 107.518 16.3582 107.755 16.4527C107.992 16.5473 108.207 16.6876 108.39 16.8658C108.572 17.044 108.718 17.2564 108.818 17.4909C108.918 17.7254 108.97 17.9774 108.973 18.2323C108.973 18.614 108.86 18.9871 108.648 19.3047C108.437 19.6224 108.136 19.8704 107.784 20.0177C107.432 20.1649 107.044 20.2048 106.67 20.1323C106.295 20.0598 105.95 19.8782 105.678 19.6102C105.407 19.3422 105.22 18.9999 105.142 18.6263C105.065 18.2526 105.099 17.8644 105.241 17.5103C105.384 17.1562 105.628 16.8521 105.942 16.6362C106.257 16.4203 106.629 16.3022 107.01 16.2969V16.315ZM105.563 35.1268V22.6278H108.53V35.0725L105.563 35.1268Z" fill="#1C64F2"/>
<path d="M115.286 35.0725H112.328V22.6278H115.213V24.2829C115.589 23.6473 116.13 23.1247 116.777 22.7699C117.425 22.415 118.156 22.241 118.894 22.266C121.933 22.266 123.416 24.4638 123.416 27.2041V35.0725H120.459V27.7106C120.459 26.1822 119.762 24.9431 117.899 24.9431C117.555 24.9455 117.214 25.0157 116.897 25.1497C116.58 25.2837 116.292 25.4788 116.05 25.7241C115.808 25.9693 115.617 26.2598 115.487 26.5789C115.358 26.898 115.292 27.2396 115.295 27.584C115.295 27.6835 115.295 27.783 115.295 27.8824L115.286 35.0725Z" fill="#1C64F2"/>
<path d="M126.998 35.0727V16.5684H129.964V35.0727H126.998Z" fill="#1C64F2"/>
<path d="M135.255 16.3145C135.637 16.3127 136.01 16.4244 136.329 16.6354C136.647 16.8463 136.895 17.1471 137.042 17.4995C137.189 17.8519 137.228 18.2399 137.154 18.6145C137.08 18.989 136.896 19.3331 136.626 19.603C136.356 19.873 136.012 20.0566 135.638 20.1307C135.263 20.2047 134.875 20.1658 134.523 20.0189C134.17 19.872 133.869 19.6236 133.659 19.3055C133.448 18.9873 133.336 18.6136 133.338 18.2318C133.342 17.7248 133.546 17.2398 133.904 16.8813C134.263 16.5227 134.748 16.3192 135.255 16.3145ZM133.799 35.1263V22.6273H136.738V35.072L133.799 35.1263Z" fill="#1C64F2"/>
<path d="M143.539 35.0724H140.573V22.6276H143.458V24.2827C143.835 23.6478 144.375 23.1258 145.023 22.771C145.67 22.4162 146.401 22.2418 147.139 22.2659C150.178 22.2659 151.661 24.4636 151.661 27.204V35.0724H148.695V27.7104C148.78 27.0829 148.616 26.4468 148.237 25.9392C147.858 25.4317 147.295 25.0934 146.669 24.9972C146.488 24.9791 146.307 24.9791 146.126 24.9972C145.435 25.0043 144.775 25.2838 144.289 25.7749C143.803 26.266 143.53 26.9291 143.53 27.62C143.521 27.7253 143.521 27.8312 143.53 27.9365L143.539 35.0724Z" fill="#1C64F2"/>
<path d="M161.781 27.8826L167 35.1179H163.382L159.765 29.9899L158.236 31.5997V35.0727H155.297V16.5684H158.236V27.6565L163.011 22.6279H166.946L161.781 27.8826Z" fill="#1C64F2"/>
<path d="M22.2124 11.5571L35.037 18.919V33.7152L22.2486 41.1224L9.43304 33.7785V18.9913L22.2124 11.5571ZM22.2124 0.704102L17.5095 3.41734L4.70295 10.8516L0 13.5649V39.2231L4.70295 41.9363L17.5275 49.2983L22.2305 52.0115L26.9334 49.2983L39.7128 41.8821L44.4158 39.1688V13.4744L39.7128 10.7612L26.8973 3.41734L22.1943 0.704102H22.2124Z" fill="#1C64F2"/>
</svg>
