<svg width="182" height="33" viewBox="0 0 182 33" fill="none" xmlns="http://www.w3.org/2000/svg">
<path d="M49.73 20.3363C49.4155 20.7324 49.0119 21.0486 48.552 21.2591C48.0648 21.4778 47.5356 21.5873 47.0017 21.5801C46.4793 21.5911 45.9612 21.4838 45.4863 21.2661C45.0113 21.0485 44.5917 20.7263 44.2589 20.3235C43.5378 19.4857 43.1772 18.3179 43.1772 16.82C43.1772 15.8025 43.3377 14.9466 43.6587 14.2522C43.9463 13.5946 44.4263 13.0395 45.0357 12.6601C45.6533 12.2887 46.3629 12.0985 47.0835 12.1113C47.9737 12.1113 48.7002 12.3343 49.263 12.7805C49.8257 13.2267 50.1783 13.8863 50.3206 14.7593H54.0118C53.968 13.685 53.6146 12.6461 52.9943 11.7678C52.3676 10.9111 51.5285 10.2324 50.5597 9.79861C49.4666 9.30957 48.2792 9.06737 47.0819 9.08925C45.5476 9.08925 44.214 9.39686 43.0809 10.0121C41.9581 10.6165 41.0373 11.5373 40.4328 12.6601C39.8016 13.8092 39.486 15.1959 39.486 16.82C39.486 18.4067 39.785 19.7794 40.3831 20.9382C40.9564 22.0728 41.8616 23.006 42.9782 23.6135C44.1102 24.2373 45.4524 24.5492 47.0049 24.5492C48.1873 24.5666 49.3597 24.3296 50.4425 23.8542C51.4235 23.4246 52.2826 22.7585 52.943 21.9155C53.595 21.0572 53.9926 20.0328 54.0905 18.9593H50.3992C50.2808 19.4622 50.0522 19.9325 49.73 20.3363Z" fill="#1C64F2"/>
<path d="M63.4917 9.08984C61.9221 9.08984 60.5756 9.40173 59.4522 10.0255C58.3427 10.6358 57.4394 11.562 56.8571 12.6864C56.2504 13.8366 55.9471 15.2232 55.9471 16.8463C55.9471 18.433 56.2504 19.802 56.8571 20.9532C57.4394 22.0776 58.3427 23.0038 59.4522 23.6141C60.5756 24.2379 61.9221 24.5498 63.4917 24.5498C65.0613 24.5498 66.4083 24.2379 67.5328 23.6141C68.6403 23.0059 69.5394 22.0788 70.1134 20.9532C70.7126 19.803 71.0117 18.434 71.0106 16.8463C71.0106 14.4208 70.3462 12.5216 69.0173 11.1489C67.6885 9.7762 65.8466 9.08984 63.4917 9.08984ZM66.3147 20.284C65.6278 21.1335 64.6868 21.5582 63.4917 21.5582C62.2805 21.5582 61.331 21.1345 60.643 20.2872C59.955 19.4398 59.6116 18.2853 59.6127 16.8238C59.6127 15.342 59.9561 14.1827 60.643 13.346C61.3299 12.5093 62.2794 12.0905 63.4917 12.0894C64.6878 12.0894 65.6289 12.5083 66.3147 13.346C67.0005 14.1838 67.3439 15.343 67.345 16.8238C67.345 18.2843 67.0016 19.4376 66.3147 20.284Z" fill="#1C64F2"/>
<path d="M84.1018 11.0154C83.5649 10.4124 82.9034 9.93329 82.1631 9.61109C81.3668 9.25895 80.5044 9.08111 79.6338 9.0895C78.4156 9.06984 77.2208 9.42443 76.2105 10.1054C75.1943 10.8033 74.3818 11.7587 73.8562 12.8738C73.2708 14.1059 72.9775 15.4564 72.9992 16.8203C72.9792 18.1747 73.2725 19.5154 73.8562 20.7378C74.3833 21.8559 75.1952 22.8156 76.2105 23.5207C77.2179 24.209 78.4138 24.5684 79.6338 24.5494C80.5245 24.561 81.4066 24.374 82.2161 24.0021C82.9599 23.6605 83.6216 23.163 84.1564 22.5433L84.2366 24.2284H87.7449V4.48828H84.1018V11.0154ZM84.1018 18.7991C83.8465 19.5757 83.3674 20.2597 82.7248 20.7651C82.1028 21.2516 81.3333 21.5109 80.5438 21.5001C79.8271 21.5106 79.1254 21.2956 78.5376 20.8854C77.9387 20.4631 77.4669 19.8847 77.1735 19.2131C76.8424 18.4595 76.6782 17.6433 76.692 16.8203C76.6761 15.9877 76.8404 15.1616 77.1735 14.3985C77.4649 13.7296 77.9374 13.1554 78.5376 12.7406C79.1286 12.3386 79.8291 12.1285 80.5438 12.1388C81.329 12.1274 82.0959 12.3763 82.7248 12.8465C83.3757 13.3461 83.8566 14.0343 84.1018 14.8174V18.7991Z" fill="#1C64F2"/>
<path d="M103.322 11.2163C102.154 9.78149 100.294 9.06357 97.7433 9.0625C96.1031 9.0625 94.7031 9.3701 93.5433 9.98531C92.4054 10.5803 91.4765 11.5087 90.8808 12.6462C90.2656 13.8071 89.958 15.1894 89.958 16.7933C89.958 18.3971 90.2656 19.7789 90.8808 20.9387C91.4695 22.0714 92.3825 23.0028 93.5032 23.614C94.6363 24.2378 95.9961 24.5497 97.5828 24.5497C99.6339 24.5497 101.302 24.0597 102.587 23.0796C103.872 22.0996 104.621 20.7798 104.834 19.1203H101.142C100.993 19.8422 100.565 20.4763 99.9517 20.8857C99.2557 21.3627 98.4262 21.606 97.5828 21.5806C96.7269 21.5806 96.009 21.3758 95.4291 20.966C94.8433 20.5482 94.3814 19.9798 94.0922 19.321C93.7882 18.6248 93.6298 17.8739 93.6268 17.1142H104.805C104.985 14.6202 104.49 12.6542 103.322 11.2163ZM93.9686 14.5464C94.1164 14.0826 94.3439 13.6481 94.6411 13.2625C95.3183 12.4066 96.3439 11.9786 97.7177 11.9786C98.6624 11.9786 99.4381 12.2193 100.045 12.7008C100.334 12.9182 100.572 13.1959 100.743 13.5146C100.914 13.8333 101.014 14.1854 101.035 14.5464H93.9686Z" fill="#1C64F2"/>
<path d="M132.409 9.08948C131.632 9.07305 130.859 9.22046 130.143 9.52213C129.426 9.8238 128.781 10.273 128.249 10.8404C128.076 11.0186 127.915 11.2111 127.755 11.4134L127.625 9.41046H124.117V24.2284H127.808V14.9072C128.165 14.2305 128.641 13.6234 129.212 13.1145C129.904 12.5065 130.793 12.169 131.714 12.1645C132.48 12.1645 133.061 12.3843 133.452 12.8209L135.33 9.81008C134.438 9.3142 133.429 9.06544 132.409 9.08948Z" fill="#1C64F2"/>
<path d="M148.394 11.2163C147.225 9.78149 145.366 9.06357 142.815 9.0625C141.173 9.0625 139.773 9.3701 138.615 9.98531C137.476 10.5793 136.547 11.508 135.953 12.6462C135.336 13.8071 135.029 15.1894 135.03 16.7933C135.031 18.3971 135.338 19.7789 135.953 20.9387C136.541 22.0714 137.454 23.0028 138.575 23.614C139.707 24.2378 141.067 24.5497 142.655 24.5497C144.706 24.5497 146.373 24.0597 147.657 23.0796C148.941 22.0996 149.69 20.7798 149.904 19.1203H146.211C146.062 19.8427 145.634 20.4771 145.02 20.8857C144.325 21.3628 143.496 21.6061 142.653 21.5806C141.797 21.5806 141.079 21.3758 140.499 20.966C139.914 20.5476 139.451 19.9794 139.161 19.321C138.858 18.6245 138.7 17.8737 138.697 17.1142H149.877C150.056 14.6202 149.562 12.6542 148.394 11.2163ZM139.039 14.5464C139.186 14.0826 139.414 13.6481 139.711 13.2625C140.388 12.4066 141.414 11.9786 142.788 11.9786C143.733 11.9786 144.509 12.2193 145.116 12.7008C145.405 12.9185 145.643 13.1963 145.814 13.515C145.984 13.8336 146.084 14.1856 146.105 14.5464H139.039Z" fill="#1C64F2"/>
<path d="M163.491 9.81204C162.679 9.33058 161.711 9.08984 160.588 9.08984C159.497 9.09053 158.427 9.38134 157.485 9.93241C156.858 10.2975 156.307 10.7803 155.863 11.3543L155.773 9.41082H152.242V24.2288H155.908V15.3216C156.421 14.3122 156.966 13.5563 157.54 13.0619C158.179 12.4861 159.007 12.1666 159.867 12.1648C160.208 12.1525 160.547 12.217 160.86 12.3537C161.172 12.4904 161.45 12.6957 161.673 12.9544C162.128 13.4808 162.356 14.172 162.356 15.0279V24.2288H166.048V14.8177C166.048 13.659 165.825 12.6564 165.378 11.8101C164.951 10.9792 164.296 10.2865 163.491 9.81204Z" fill="#1C64F2"/>
<path d="M181.17 11.5901C180.588 10.7559 179.775 10.1099 178.83 9.7316C177.823 9.30363 176.632 9.08964 175.258 9.08964C174.036 9.06663 172.82 9.2707 171.673 9.69147C170.712 10.0414 169.859 10.6361 169.198 11.4167C168.574 12.1859 168.205 13.1297 168.142 14.1178H171.7C171.733 13.7665 171.843 13.4269 172.024 13.1237C172.204 12.8206 172.45 12.5615 172.743 12.3652C173.35 11.9479 174.144 11.7388 175.125 11.7377C176.123 11.7377 176.908 11.9693 177.479 12.4326C178.05 12.8959 178.336 13.5379 178.335 14.3585V15.3214H175.285C173.18 15.3214 171.538 15.7451 170.361 16.5925C169.184 17.4399 168.596 18.6211 168.596 20.1361C168.579 20.9462 168.792 21.7445 169.212 22.4375C169.631 23.1054 170.229 23.6425 170.938 23.9878C171.742 24.3773 172.627 24.5698 173.52 24.5495C174.839 24.5495 175.962 24.2954 176.89 23.7872C177.476 23.4684 177.987 23.0272 178.387 22.4937L178.469 24.2286H182V14.5736C182 13.3956 181.723 12.4011 181.17 11.5901ZM178.335 19.3497C177.935 19.9665 177.416 20.4978 176.81 20.9129C176.091 21.396 175.241 21.648 174.375 21.6351C173.696 21.6351 173.161 21.4698 172.77 21.1392C172.585 20.9952 172.436 20.8106 172.334 20.5997C172.232 20.3887 172.18 20.157 172.181 19.9226C172.168 19.6239 172.235 19.3272 172.377 19.0636C172.518 18.8001 172.728 18.5795 172.984 18.4253C173.519 18.0861 174.25 17.9165 175.178 17.9165H178.335V19.3497Z" fill="#1C64F2"/>
<path d="M119.963 4.50488H114.954L106.769 18.9986V21.7414H116.36V24.4473H119.969V21.735H122.167V18.4498H119.963V4.50488ZM116.36 14.062V18.4498H110.825L116.442 8.3518L116.36 14.062Z" fill="#1C64F2"/>
<path d="M33.3311 19.7667L31.4903 11.0024C31.4741 10.9245 31.451 10.8483 31.4213 10.7745C31.1597 9.86293 30.8098 9.66553 30.338 9.28196C29.9014 8.95135 29.7137 8.82617 29.7137 8.82617C29.7137 8.82617 28.5196 11.5834 28.1938 11.845C25.0001 14.4128 19.6494 18.4138 18.3414 19.136L18.3173 19.1488C17.8875 19.411 17.4009 19.5662 16.8986 19.6014V32.792C18.0155 32.7628 19.1062 32.4479 20.0667 31.8772C21.5111 31.0748 25.3532 27.9902 29.8565 24.3342L31.6219 22.9027C32.7951 21.9574 33.3584 21.0185 33.3455 20.0283C33.3491 19.9408 33.3442 19.8532 33.3311 19.7667Z" fill="#3535DC"/>
<path d="M15.7511 19.2453L5.44131 11.6542C5.35531 11.5828 5.27873 11.5009 5.21342 11.4102C5.2043 11.1611 5.12903 10.9189 4.99534 10.7085C4.86165 10.4981 4.67435 10.3271 4.4527 10.213L4.5185 8.70117C4.5185 8.70117 4.30344 8.8424 3.81235 9.13931C3.19447 9.51004 2.73065 9.78126 2.41288 11.2401L2.17376 12.4341L0.674788 19.9354C0.653924 20.0411 0.644774 20.1487 0.647504 20.2564C0.682812 21.6125 1.84636 22.5626 2.11277 22.7616L13.8702 31.8068C14.7491 32.4654 15.8213 32.8147 16.9195 32.8002V19.6C16.5001 19.6256 16.0855 19.4998 15.7511 19.2453Z" fill="#2C2CB9"/>
<path d="M30.5673 9.44442C30.5472 9.43 30.5279 9.41446 30.5095 9.39787C30.1468 9.09134 22.9874 4.17396 18.7521 1.27071C18.1916 0.883771 17.524 0.682048 16.843 0.693849C16.1619 0.70565 15.5017 0.930383 14.9549 1.33651L14.4366 1.7281C13.5378 2.40376 11.8687 3.65397 9.8562 5.08714C7.54837 6.73215 5.4251 8.16371 3.53614 9.29837C2.7337 9.77984 1.99224 11.0814 4.01761 12.6686C4.23106 12.8291 14.8859 20.7332 14.8859 20.7332C16.1089 21.6336 17.5565 21.5533 18.9928 20.7204C20.3907 19.9484 25.3402 16.2427 28.4617 13.7696L29.2545 13.1389C29.3283 13.0795 29.3957 13.0217 29.4599 12.9639C30.7936 11.8614 31.9122 10.3736 30.5673 9.44442Z" fill="#1C64F2"/>
<path d="M11.9588 12.299C12.3182 12.6008 12.7493 12.8048 13.2106 12.8912C13.6546 12.9671 14.1092 12.9562 14.549 12.8591C15.0052 12.761 15.4516 12.6219 15.8827 12.4434C16.1925 12.3167 16.5054 12.177 16.8456 12.0165C16.8745 12.0037 17.0061 11.9379 17.0238 11.9572L18.6945 13.2411C18.8116 13.3277 18.8165 13.3695 18.5837 13.4625C18.3814 13.537 18.167 13.5729 17.9514 13.5685H17.9354C17.431 13.5612 16.9422 13.3925 16.5407 13.087C16.4946 13.0519 16.4382 13.0328 16.3802 13.0328C16.3222 13.0328 16.2659 13.0519 16.2197 13.087L14.6566 14.3003C14.6244 14.325 14.5985 14.3568 14.5809 14.3934C14.5634 14.4299 14.5547 14.47 14.5555 14.5105C14.556 14.5523 14.5663 14.5933 14.5856 14.6304C14.6048 14.6674 14.6324 14.6995 14.6662 14.724C15.2036 15.1243 15.8276 15.3926 16.4878 15.5072C16.7464 15.5521 17.0084 15.5747 17.2709 15.5746C17.7794 15.5718 18.2846 15.4934 18.7699 15.3419C19.2915 15.1819 19.7888 14.9513 20.248 14.6566C20.2627 14.646 20.2804 14.6403 20.2986 14.6403C20.3167 14.6403 20.3344 14.646 20.3491 14.6566L21.1516 15.2697C21.1979 15.3043 21.2542 15.323 21.3121 15.323C21.3699 15.323 21.4262 15.3043 21.4725 15.2697L22.2284 14.6726C22.2607 14.6477 22.2867 14.6156 22.3043 14.5788C22.3218 14.542 22.3305 14.5016 22.3296 14.4608C22.3288 14.4205 22.3189 14.3809 22.3005 14.345C22.2822 14.3091 22.2559 14.2779 22.2236 14.2538L21.5383 13.7402C21.5288 13.7326 21.5208 13.7231 21.515 13.7124C21.5092 13.7016 21.5057 13.6898 21.5046 13.6776C21.5032 13.6644 21.5048 13.6511 21.5092 13.6386C21.5137 13.6261 21.5209 13.6147 21.5303 13.6054C21.8441 13.2891 22.1081 12.9271 22.3135 12.5317C22.5722 12.0648 22.6645 11.5237 22.5751 10.9974C22.465 10.4978 22.1623 10.0618 21.7325 9.78414C21.3358 9.49139 20.8802 9.28824 20.3973 9.18872C19.9634 9.10767 19.5183 9.10767 19.0845 9.18872C18.652 9.2685 18.2288 9.39218 17.8214 9.55785C17.4539 9.7071 16.8152 10.0024 16.7333 10.0393C16.6515 10.0762 16.552 10.1051 16.5054 10.0714L15.0369 8.97046C15.0961 8.94199 15.1572 8.91786 15.2199 8.89824C15.4989 8.81079 15.7915 8.7749 16.0833 8.79232C16.327 8.80661 16.5637 8.87926 16.7734 9.00416C16.8183 9.03164 16.8702 9.04524 16.9228 9.04324C16.9753 9.04124 17.0261 9.02374 17.0687 8.99293L18.4618 7.9674C18.4974 7.94106 18.5259 7.90618 18.5446 7.86596C18.5633 7.82575 18.5716 7.78149 18.5687 7.73724C18.5658 7.69299 18.5519 7.65018 18.5281 7.61272C18.5044 7.57526 18.4717 7.54436 18.4329 7.52285C17.97 7.26543 17.4547 7.1167 16.9259 7.08792C16.2743 7.05267 15.6216 7.13642 15 7.33508C14.5809 7.46574 14.176 7.63834 13.7915 7.85025C13.7774 7.85924 13.761 7.86402 13.7442 7.86402C13.7274 7.86402 13.711 7.85924 13.6969 7.85025L13.026 7.34631C12.9807 7.31425 12.9266 7.29704 12.8711 7.29704C12.8157 7.29704 12.7615 7.31425 12.7163 7.34631L12.0101 7.82778C11.9756 7.85105 11.9472 7.88232 11.9274 7.91892C11.9075 7.95553 11.8968 7.99639 11.8962 8.03802C11.8948 8.0797 11.9034 8.12112 11.9212 8.15881C11.9391 8.1965 11.9657 8.22937 11.9989 8.25468L12.4916 8.63343C12.502 8.64108 12.5106 8.65095 12.5167 8.66234C12.5228 8.67372 12.5263 8.68633 12.5269 8.69923C12.5268 8.71284 12.524 8.72629 12.5184 8.73873C12.5129 8.75116 12.5049 8.76231 12.4948 8.77145C12.1951 9.03051 11.9326 9.3297 11.7148 9.66056C11.4188 10.0794 11.2699 10.5845 11.2911 11.0969C11.3127 11.3327 11.3833 11.5614 11.4982 11.7684C11.6132 11.9753 11.77 12.1561 11.9588 12.299ZM13.745 10.0778C13.7807 9.98477 13.8276 9.89639 13.8846 9.81463C13.9777 9.67982 13.9954 9.67661 14.0804 9.74081L15.1557 10.5657C15.2552 10.646 15.3162 10.6781 15.0642 10.7728C14.9142 10.8246 14.7585 10.858 14.6004 10.8723C14.4881 10.8908 14.3732 10.8861 14.2628 10.8585C14.1524 10.8309 14.0488 10.781 13.9584 10.7118C13.854 10.6481 13.7753 10.5496 13.7363 10.4337C13.6972 10.3177 13.7003 10.1917 13.745 10.0778ZM19.8885 11.2992C20.1678 11.5046 20.2705 11.7405 20.2095 12.0214C20.1725 12.1795 20.1001 12.3271 19.9977 12.4531C19.9158 12.5526 19.8693 12.5799 19.789 12.5253L18.4425 11.5158C18.282 11.381 18.282 11.381 18.5565 11.259C18.7647 11.1886 18.9799 11.1407 19.1984 11.1162C19.4432 11.0891 19.6893 11.1543 19.8885 11.2992Z" fill="white"/>
</svg>
