<svg width="147" height="34" viewBox="0 0 147 34" fill="none" xmlns="http://www.w3.org/2000/svg">
<path d="M0 33.4794V29.7074H1.00933C1.58609 29.7074 2.03596 29.8631 2.35895 30.1746C2.68193 30.486 2.84342 30.9532 2.84342 31.5761C2.84342 31.8875 2.80113 32.1625 2.71654 32.4009C2.63579 32.6393 2.51659 32.8392 2.35895 33.0007C2.20514 33.1583 2.01674 33.2775 1.79372 33.3583C1.57455 33.439 1.32462 33.4794 1.04393 33.4794H0ZM0.669041 32.9372H0.963188C1.34769 32.9372 1.64184 32.8277 1.84563 32.6085C2.05326 32.3855 2.15708 32.0413 2.15708 31.5761C2.15708 31.1147 2.05326 30.7782 1.84563 30.5668C1.638 30.3553 1.34385 30.2495 0.963188 30.2495H0.669041V32.9372Z" fill="white"/>
<path d="M5.30619 33.4794V29.7074H5.97523V33.4794H5.30619Z" fill="white"/>
<path d="M10.2157 33.5486C9.96194 33.5486 9.72547 33.5063 9.5063 33.4217C9.29098 33.3371 9.10257 33.2122 8.94108 33.0468C8.78343 32.8815 8.66039 32.6777 8.57195 32.4355C8.48352 32.1932 8.4393 31.9164 8.4393 31.6049C8.4393 31.2973 8.48544 31.0224 8.57772 30.7802C8.67 30.5341 8.79497 30.3265 8.95261 30.1573C9.11411 29.9881 9.30252 29.8593 9.51784 29.7708C9.73701 29.6824 9.97156 29.6382 10.2215 29.6382C10.4906 29.6382 10.7175 29.6882 10.9021 29.7881C11.0905 29.8843 11.2443 29.9939 11.3635 30.1169L11.0059 30.5495C10.9098 30.4572 10.8021 30.3803 10.6829 30.3188C10.5675 30.2534 10.4214 30.2207 10.2446 30.2207C10.0754 30.2207 9.92157 30.2534 9.78315 30.3188C9.64857 30.3803 9.5313 30.4706 9.43133 30.5898C9.3352 30.7052 9.26022 30.8475 9.20639 31.0166C9.15256 31.1858 9.12564 31.3762 9.12564 31.5876C9.12564 32.0183 9.22177 32.3566 9.41402 32.6027C9.61012 32.845 9.8985 32.9661 10.2792 32.9661C10.3868 32.9661 10.4887 32.9526 10.5848 32.9257C10.681 32.895 10.7598 32.8527 10.8213 32.7988V31.9856H10.1061V31.4377H11.4211V33.0987C11.2943 33.2256 11.1251 33.3333 10.9136 33.4217C10.706 33.5063 10.4733 33.5486 10.2157 33.5486Z" fill="white"/>
<path d="M13.9585 33.4794V29.7074H14.6275V33.4794H13.9585Z" fill="white"/>
<path d="M18.049 33.4794V30.2726H16.9589V29.7074H19.8081V30.2726H18.7181V33.4794H18.049Z" fill="white"/>
<path d="M22.6796 31.4723L22.5469 31.9337H23.5101L23.3775 31.4723C23.3159 31.2723 23.2563 31.0666 23.1987 30.8551C23.1448 30.6437 23.091 30.4341 23.0372 30.2265H23.0141C22.9603 30.438 22.9064 30.6494 22.8526 30.8609C22.7988 31.0685 22.7411 31.2723 22.6796 31.4723ZM21.4165 33.4794L22.645 29.7074H23.4294L24.6579 33.4794H23.9542L23.6601 32.4585H22.3912L22.0971 33.4794H21.4165Z" fill="white"/>
<path d="M26.8243 33.4794V29.7074H27.4933V32.9142H29.0621V33.4794H26.8243Z" fill="white"/>
<path d="M35.0497 31.4723L34.9171 31.9337H35.8803L35.7476 31.4723C35.6861 31.2723 35.6265 31.0666 35.5688 30.8551C35.515 30.6437 35.4611 30.4341 35.4073 30.2265H35.3842C35.3304 30.438 35.2766 30.6494 35.2228 30.8609C35.1689 31.0685 35.1112 31.2723 35.0497 31.4723ZM33.7866 33.4794L35.0151 29.7074H35.7995L37.028 33.4794H36.3244L36.0302 32.4585H34.7613L34.4672 33.4794H33.7866Z" fill="white"/>
<path d="M40.296 33.5486C40.0423 33.5486 39.7962 33.5006 39.5578 33.4044C39.3232 33.3083 39.1156 33.1718 38.9349 32.9949L39.3271 32.5393C39.4617 32.6662 39.6155 32.77 39.7885 32.8507C39.9615 32.9276 40.1345 32.9661 40.3076 32.9661C40.5229 32.9661 40.6863 32.9219 40.7978 32.8334C40.9093 32.745 40.9651 32.6277 40.9651 32.4816C40.9651 32.4047 40.9497 32.3393 40.9189 32.2855C40.892 32.2317 40.8516 32.1855 40.7978 32.1471C40.7478 32.1048 40.6863 32.0663 40.6132 32.0317C40.544 31.9971 40.4671 31.9625 40.3825 31.9279L39.8635 31.703C39.7712 31.6645 39.6789 31.6165 39.5866 31.5588C39.4982 31.5011 39.4174 31.4319 39.3444 31.3512C39.2713 31.2704 39.2117 31.1762 39.1656 31.0685C39.1233 30.9609 39.1021 30.8378 39.1021 30.6994C39.1021 30.5495 39.1329 30.411 39.1944 30.2842C39.2598 30.1534 39.3482 30.04 39.4597 29.9439C39.5712 29.8477 39.7039 29.7728 39.8577 29.7189C40.0153 29.6651 40.1864 29.6382 40.371 29.6382C40.5902 29.6382 40.8017 29.6824 41.0054 29.7708C41.2092 29.8554 41.3842 29.9708 41.5303 30.1169L41.19 30.5437C41.067 30.4437 40.9401 30.3649 40.8093 30.3072C40.6786 30.2495 40.5325 30.2207 40.371 30.2207C40.1903 30.2207 40.0461 30.2611 39.9384 30.3418C39.8308 30.4187 39.7769 30.5264 39.7769 30.6648C39.7769 30.7379 39.7923 30.8013 39.8231 30.8551C39.8577 30.9051 39.9019 30.9513 39.9557 30.9936C40.0134 31.032 40.0788 31.0685 40.1518 31.1032C40.2249 31.1339 40.2999 31.1647 40.3768 31.1954L40.8901 31.4088C41.0016 31.455 41.1035 31.5088 41.1958 31.5703C41.2881 31.6318 41.3669 31.703 41.4322 31.7837C41.5015 31.8645 41.5553 31.9587 41.5937 32.0663C41.6322 32.1702 41.6514 32.2913 41.6514 32.4297C41.6514 32.5835 41.6207 32.7277 41.5591 32.8623C41.4976 32.9968 41.4073 33.116 41.2881 33.2199C41.1727 33.3198 41.0304 33.4006 40.8613 33.4621C40.6959 33.5198 40.5075 33.5486 40.296 33.5486Z" fill="white"/>
<path d="M45.0502 33.5486C44.7965 33.5486 44.5504 33.5006 44.312 33.4044C44.0774 33.3083 43.8698 33.1718 43.6891 32.9949L44.0813 32.5393C44.2159 32.6662 44.3697 32.77 44.5427 32.8507C44.7157 32.9276 44.8887 32.9661 45.0618 32.9661C45.2771 32.9661 45.4405 32.9219 45.552 32.8334C45.6635 32.745 45.7193 32.6277 45.7193 32.4816C45.7193 32.4047 45.7039 32.3393 45.6731 32.2855C45.6462 32.2317 45.6059 32.1855 45.552 32.1471C45.502 32.1048 45.4405 32.0663 45.3675 32.0317C45.2982 31.9971 45.2213 31.9625 45.1368 31.9279L44.6177 31.703C44.5254 31.6645 44.4331 31.6165 44.3408 31.5588C44.2524 31.5011 44.1716 31.4319 44.0986 31.3512C44.0255 31.2704 43.9659 31.1762 43.9198 31.0685C43.8775 30.9609 43.8563 30.8378 43.8563 30.6994C43.8563 30.5495 43.8871 30.411 43.9486 30.2842C44.014 30.1534 44.1024 30.04 44.2139 29.9439C44.3254 29.8477 44.4581 29.7728 44.6119 29.7189C44.7696 29.6651 44.9407 29.6382 45.1252 29.6382C45.3444 29.6382 45.5559 29.6824 45.7597 29.7708C45.9634 29.8554 46.1384 29.9708 46.2845 30.1169L45.9442 30.5437C45.8212 30.4437 45.6943 30.3649 45.5636 30.3072C45.4328 30.2495 45.2867 30.2207 45.1252 30.2207C44.9445 30.2207 44.8003 30.2611 44.6926 30.3418C44.585 30.4187 44.5312 30.5264 44.5312 30.6648C44.5312 30.7379 44.5465 30.8013 44.5773 30.8551C44.6119 30.9051 44.6561 30.9513 44.71 30.9936C44.7676 31.032 44.833 31.0685 44.906 31.1032C44.9791 31.1339 45.0541 31.1647 45.131 31.1954L45.6443 31.4088C45.7558 31.455 45.8577 31.5088 45.95 31.5703C46.0423 31.6318 46.1211 31.703 46.1865 31.7837C46.2557 31.8645 46.3095 31.9587 46.3479 32.0663C46.3864 32.1702 46.4056 32.2913 46.4056 32.4297C46.4056 32.5835 46.3749 32.7277 46.3133 32.8623C46.2518 32.9968 46.1615 33.116 46.0423 33.2199C45.9269 33.3198 45.7846 33.4006 45.6155 33.4621C45.4501 33.5198 45.2617 33.5486 45.0502 33.5486Z" fill="white"/>
<path d="M48.793 33.4794V29.7074H51.0654V30.2726H49.462V31.2358H50.8174V31.801H49.462V32.9142H51.1231V33.4794H48.793Z" fill="white"/>
<path d="M54.3592 33.4794V30.2726H53.2691V29.7074H56.1183V30.2726H55.0282V33.4794H54.3592Z" fill="white"/>
<path d="M62.8093 33.5486C62.5709 33.5486 62.3478 33.5063 62.1402 33.4217C61.9326 33.3371 61.7519 33.2122 61.5981 33.0468C61.4481 32.8815 61.3289 32.6777 61.2405 32.4355C61.152 32.1932 61.1078 31.9164 61.1078 31.6049C61.1078 31.2973 61.152 31.0224 61.2405 30.7802C61.3327 30.5341 61.4558 30.3265 61.6096 30.1573C61.7672 29.9881 61.9499 29.8593 62.1575 29.7708C62.369 29.6824 62.5939 29.6382 62.8323 29.6382C63.0707 29.6382 63.2822 29.6862 63.4668 29.7824C63.6513 29.8785 63.8032 29.99 63.9224 30.1169L63.5648 30.5495C63.4648 30.4495 63.3572 30.3707 63.2418 30.313C63.1265 30.2515 62.9957 30.2207 62.8496 30.2207C62.6958 30.2207 62.5536 30.2534 62.4228 30.3188C62.2959 30.3803 62.1844 30.4706 62.0883 30.5898C61.996 30.7052 61.923 30.8475 61.8691 31.0166C61.8191 31.1858 61.7942 31.3762 61.7942 31.5876C61.7942 32.0183 61.8864 32.3566 62.071 32.6027C62.2594 32.845 62.5132 32.9661 62.8323 32.9661C63.0015 32.9661 63.1515 32.9315 63.2822 32.8623C63.4129 32.7892 63.5321 32.695 63.6398 32.5797L63.9974 33.0007C63.8436 33.1776 63.6667 33.3141 63.4668 33.4102C63.2707 33.5025 63.0515 33.5486 62.8093 33.5486Z" fill="white"/>
<path d="M67.1013 31.4723L66.9687 31.9337H67.9319L67.7992 31.4723C67.7377 31.2723 67.6781 31.0666 67.6204 30.8551C67.5666 30.6437 67.5128 30.4341 67.4589 30.2265H67.4359C67.382 30.438 67.3282 30.6494 67.2744 30.8609C67.2205 31.0685 67.1629 31.2723 67.1013 31.4723ZM65.8382 33.4794L67.0667 29.7074H67.8511L69.0796 33.4794H68.376L68.0818 32.4585H66.813L66.5188 33.4794H65.8382Z" fill="white"/>
<path d="M71.246 33.4794V29.7074H72.4342C72.6418 29.7074 72.834 29.7266 73.0109 29.7651C73.1916 29.8035 73.3474 29.8689 73.4781 29.9612C73.6088 30.0535 73.7107 30.1746 73.7838 30.3245C73.8568 30.4706 73.8933 30.6533 73.8933 30.8724C73.8933 31.0801 73.8568 31.2608 73.7838 31.4146C73.7107 31.5684 73.6088 31.6972 73.4781 31.801C73.3512 31.901 73.1993 31.976 73.0224 32.026C72.8494 32.0721 72.661 32.0952 72.4572 32.0952H71.9151V33.4794H71.246ZM71.9151 31.5588H72.4053C72.959 31.5588 73.2358 31.33 73.2358 30.8724C73.2358 30.6341 73.1628 30.4706 73.0167 30.3822C72.8744 30.2899 72.6629 30.2438 72.3822 30.2438H71.9151V31.5588Z" fill="white"/>
<path d="M76.3044 33.4794V29.7074H76.9734V33.4794H76.3044Z" fill="white"/>
<path d="M80.3949 33.4794V30.2726H79.3048V29.7074H82.154V30.2726H81.064V33.4794H80.3949Z" fill="white"/>
<path d="M85.0255 31.4723L84.8928 31.9337H85.856L85.7234 31.4723C85.6618 31.2723 85.6023 31.0666 85.5446 30.8551C85.4907 30.6437 85.4369 30.4341 85.3831 30.2265H85.36C85.3062 30.438 85.2523 30.6494 85.1985 30.8609C85.1447 31.0685 85.087 31.2723 85.0255 31.4723ZM83.7624 33.4794L84.9909 29.7074H85.7753L87.0038 33.4794H86.3001L86.006 32.4585H84.7371L84.443 33.4794H83.7624Z" fill="white"/>
<path d="M89.1702 33.4794V29.7074H89.8392V32.9142H91.408V33.4794H89.1702Z" fill="white"/>
<path d="M96.6228 33.4794V29.7074H97.3783L98.0474 31.553C98.0897 31.6722 98.13 31.7953 98.1685 31.9222C98.2069 32.0452 98.2473 32.1682 98.2896 32.2913H98.3127C98.355 32.1682 98.3934 32.0452 98.428 31.9222C98.4665 31.7953 98.5069 31.6722 98.5491 31.553L99.2009 29.7074H99.9622V33.4794H99.3451V31.7549C99.3451 31.6665 99.347 31.5703 99.3508 31.4665C99.3585 31.3627 99.3662 31.2589 99.3739 31.1551C99.3816 31.0474 99.3912 30.9436 99.4027 30.8436C99.4143 30.7398 99.4239 30.6437 99.4316 30.5552H99.4085L99.1028 31.4319L98.4857 33.1276H98.0877L97.4648 31.4319L97.1649 30.5552H97.1419C97.1495 30.6437 97.1572 30.7398 97.1649 30.8436C97.1765 30.9436 97.1861 31.0474 97.1938 31.1551C97.2053 31.2589 97.213 31.3627 97.2168 31.4665C97.2245 31.5703 97.2284 31.6665 97.2284 31.7549V33.4794H96.6228Z" fill="white"/>
<path d="M103.395 31.4723L103.262 31.9337H104.225L104.092 31.4723C104.031 31.2723 103.971 31.0666 103.914 30.8551C103.86 30.6437 103.806 30.4341 103.752 30.2265H103.729C103.675 30.438 103.621 30.6494 103.568 30.8609C103.514 31.0685 103.456 31.2723 103.395 31.4723ZM102.132 33.4794L103.36 29.7074H104.144L105.373 33.4794H104.669L104.375 32.4585H103.106L102.812 33.4794H102.132Z" fill="white"/>
<path d="M107.539 33.4794V29.7074H108.226L109.402 31.8299L109.789 32.6316H109.812C109.796 32.4355 109.777 32.2259 109.754 32.0029C109.735 31.776 109.725 31.5569 109.725 31.3454V29.7074H110.365V33.4794H109.679L108.502 31.3569L108.116 30.5552H108.093C108.108 30.7552 108.126 30.9647 108.145 31.1839C108.168 31.4031 108.18 31.6184 108.18 31.8299V33.4794H107.539Z" fill="white"/>
<path d="M113.799 31.4723L113.666 31.9337H114.629L114.496 31.4723C114.435 31.2723 114.375 31.0666 114.318 30.8551C114.264 30.6437 114.21 30.4341 114.156 30.2265H114.133C114.079 30.438 114.025 30.6494 113.972 30.8609C113.918 31.0685 113.86 31.2723 113.799 31.4723ZM112.535 33.4794L113.764 29.7074H114.548L115.777 33.4794H115.073L114.779 32.4585H113.51L113.216 33.4794H112.535Z" fill="white"/>
<path d="M119.467 33.5486C119.214 33.5486 118.977 33.5063 118.758 33.4217C118.543 33.3371 118.354 33.2122 118.193 33.0468C118.035 32.8815 117.912 32.6777 117.824 32.4355C117.735 32.1932 117.691 31.9164 117.691 31.6049C117.691 31.2973 117.737 31.0224 117.829 30.7802C117.922 30.5341 118.047 30.3265 118.204 30.1573C118.366 29.9881 118.554 29.8593 118.769 29.7708C118.989 29.6824 119.223 29.6382 119.473 29.6382C119.742 29.6382 119.969 29.6882 120.154 29.7881C120.342 29.8843 120.496 29.9939 120.615 30.1169L120.257 30.5495C120.161 30.4572 120.054 30.3803 119.934 30.3188C119.819 30.2534 119.673 30.2207 119.496 30.2207C119.327 30.2207 119.173 30.2534 119.035 30.3188C118.9 30.3803 118.783 30.4706 118.683 30.5898C118.587 30.7052 118.512 30.8475 118.458 31.0166C118.404 31.1858 118.377 31.3762 118.377 31.5876C118.377 32.0183 118.473 32.3566 118.666 32.6027C118.862 32.845 119.15 32.9661 119.531 32.9661C119.638 32.9661 119.74 32.9526 119.836 32.9257C119.933 32.895 120.011 32.8527 120.073 32.7988V31.9856H119.358V31.4377H120.673V33.0987C120.546 33.2256 120.377 33.3333 120.165 33.4217C119.958 33.5063 119.725 33.5486 119.467 33.5486Z" fill="white"/>
<path d="M123.21 33.4794V29.7074H125.482V30.2726H123.879V31.2358H125.234V31.801H123.879V32.9142H125.54V33.4794H123.21Z" fill="white"/>
<path d="M128.015 33.4794V29.7074H128.77L129.44 31.553C129.482 31.6722 129.522 31.7953 129.561 31.9222C129.599 32.0452 129.639 32.1682 129.682 32.2913H129.705C129.747 32.1682 129.786 32.0452 129.82 31.9222C129.859 31.7953 129.899 31.6722 129.941 31.553L130.593 29.7074H131.354V33.4794H130.737V31.7549C130.737 31.6665 130.739 31.5703 130.743 31.4665C130.751 31.3627 130.758 31.2589 130.766 31.1551C130.774 31.0474 130.783 30.9436 130.795 30.8436C130.806 30.7398 130.816 30.6437 130.824 30.5552H130.801L130.495 31.4319L129.878 33.1276H129.48L128.857 31.4319L128.557 30.5552H128.534C128.542 30.6437 128.549 30.7398 128.557 30.8436C128.569 30.9436 128.578 31.0474 128.586 31.1551C128.597 31.2589 128.605 31.3627 128.609 31.4665C128.617 31.5703 128.621 31.6665 128.621 31.7549V33.4794H128.015Z" fill="white"/>
<path d="M134.014 33.4794V29.7074H136.286V30.2726H134.683V31.2358H136.038V31.801H134.683V32.9142H136.344V33.4794H134.014Z" fill="white"/>
<path d="M138.819 33.4794V29.7074H139.505L140.682 31.8299L141.068 32.6316H141.091C141.076 32.4355 141.057 32.2259 141.034 32.0029C141.014 31.776 141.005 31.5569 141.005 31.3454V29.7074H141.645V33.4794H140.959L139.782 31.3569L139.396 30.5552H139.372C139.388 30.7552 139.405 30.9647 139.424 31.1839C139.447 31.4031 139.459 31.6184 139.459 31.8299V33.4794H138.819Z" fill="white"/>
<path d="M145.067 33.4794V30.2726H143.976V29.7074H146.826V30.2726H145.736V33.4794H145.067Z" fill="white"/>
<path fill-rule="evenodd" clip-rule="evenodd" d="M98.7471 1.18359L108.468 10.6256L118.189 1.18359V21.6884H113.657V11.9018L108.468 16.9426L103.278 11.9018V21.6884H98.7471V1.18359Z" fill="white"/>
<path fill-rule="evenodd" clip-rule="evenodd" d="M30.7734 3.83008H39.0343C43.8123 3.83008 47.6857 7.70344 47.6857 12.4815V12.9794C47.6857 17.7574 43.8123 21.6308 39.0343 21.6308H30.7734V3.83008ZM35.3875 8.44415V17.0167H39.0343C41.264 17.0167 43.0716 15.2091 43.0716 12.9794V12.4815C43.0716 10.2517 41.264 8.44415 39.0343 8.44415H35.3875Z" fill="white"/>
<path fill-rule="evenodd" clip-rule="evenodd" d="M92.2078 2.56002C90.5995 1.54877 88.6961 0.963867 86.656 0.963867C80.8879 0.963867 76.2119 5.63985 76.2119 11.408C76.2119 17.1761 80.8879 21.8521 86.656 21.8521C88.6961 21.8521 90.5995 21.2672 92.2078 20.2559V14.6078C91.1005 16.5248 89.0289 17.8148 86.656 17.8148C83.1176 17.8148 80.2492 14.9463 80.2492 11.408C80.2492 7.8696 83.1176 5.00118 86.656 5.00118C89.0289 5.00118 91.1005 6.29119 92.2078 8.20815V2.56002Z" fill="white"/>
<path fill-rule="evenodd" clip-rule="evenodd" d="M71.9591 21.6887L62.1587 1.12744L53.0762 21.6887H58.1123L62.3184 12.1667L66.857 21.6887H71.9591Z" fill="white"/>
</svg>
