<svg width="199" height="35" viewBox="0 0 199 35" fill="none" xmlns="http://www.w3.org/2000/svg">
<path fill-rule="evenodd" clip-rule="evenodd" d="M17.9565 16.9174C22.3165 16.9174 25.8509 13.3829 25.8509 9.02289C25.8509 4.66289 22.3165 1.12842 17.9565 1.12842C13.5965 1.12842 10.062 4.66289 10.062 9.02289C10.062 13.3829 13.5965 16.9174 17.9565 16.9174ZM17.9565 17.5536C22.6679 17.5536 26.4872 13.7343 26.4872 9.02289C26.4872 4.31151 22.6679 0.492188 17.9565 0.492188C13.2451 0.492188 9.42578 4.31151 9.42578 9.02289C9.42578 13.7343 13.2451 17.5536 17.9565 17.5536Z" fill="white"/>
<path fill-rule="evenodd" clip-rule="evenodd" d="M17.9565 25.1503C22.3165 25.1503 25.8509 21.6158 25.8509 17.2558C25.8509 12.8958 22.3165 9.36133 17.9565 9.36133C13.5965 9.36133 10.062 12.8958 10.062 17.2558C10.062 21.6158 13.5965 25.1503 17.9565 25.1503ZM17.9565 25.7865C22.6679 25.7865 26.4872 21.9672 26.4872 17.2558C26.4872 12.5444 22.6679 8.7251 17.9565 8.7251C13.2451 8.7251 9.42578 12.5444 9.42578 17.2558C9.42578 21.9672 13.2451 25.7865 17.9565 25.7865Z" fill="white"/>
<path fill-rule="evenodd" clip-rule="evenodd" d="M17.9551 33.7501C27.0644 33.7501 34.4489 26.3656 34.4489 17.2564C34.4489 8.14719 27.0644 0.762696 17.9551 0.762696C8.84592 0.762696 1.46143 8.14719 1.46143 17.2564C1.46143 26.3656 8.84592 33.7501 17.9551 33.7501ZM17.9551 34.3864C27.4158 34.3864 35.0851 26.717 35.0851 17.2564C35.0851 7.7958 27.4158 0.126465 17.9551 0.126465C8.49453 0.126465 0.825195 7.7958 0.825195 17.2564C0.825195 26.717 8.49453 34.3864 17.9551 34.3864Z" fill="white"/>
<path fill-rule="evenodd" clip-rule="evenodd" d="M17.9565 33.3837C22.3165 33.3837 25.8509 29.8492 25.8509 25.4892C25.8509 21.1292 22.3165 17.5947 17.9565 17.5947C13.5965 17.5947 10.062 21.1292 10.062 25.4892C10.062 29.8492 13.5965 33.3837 17.9565 33.3837ZM17.9565 34.0199C22.6679 34.0199 26.4872 30.2006 26.4872 25.4892C26.4872 20.7778 22.6679 16.9585 17.9565 16.9585C13.2451 16.9585 9.42578 20.7778 9.42578 25.4892C9.42578 30.2006 13.2451 34.0199 17.9565 34.0199Z" fill="white"/>
<path d="M46.0392 13.1945H48.2033C48.7662 13.1945 49.2489 13.2467 49.6516 13.3511C50.0542 13.4554 50.4195 13.6512 50.7476 13.9382C51.6013 14.6689 52.0281 15.7798 52.0281 17.271C52.0281 17.763 51.9852 18.2123 51.8995 18.6186C51.8137 19.0249 51.6814 19.3921 51.5025 19.7202C51.3235 20.0445 51.0943 20.3353 50.8147 20.5925C50.5947 20.7901 50.3543 20.9485 50.0933 21.0678C49.8324 21.1871 49.5509 21.271 49.2489 21.3195C48.9507 21.3679 48.6133 21.3922 48.2368 21.3922H46.0728C45.7708 21.3922 45.5434 21.3474 45.3905 21.258C45.2377 21.1648 45.137 21.0362 45.0886 20.8721C45.0439 20.7044 45.0215 20.4882 45.0215 20.2235V14.2122C45.0215 13.8543 45.1016 13.5952 45.2619 13.4349C45.4222 13.2746 45.6813 13.1945 46.0392 13.1945ZM46.6823 14.5086V20.0725H47.9404C48.2163 20.0725 48.4325 20.065 48.5891 20.0501C48.7457 20.0352 48.9078 19.9979 49.0756 19.9383C49.2433 19.8786 49.3887 19.7948 49.5118 19.6866C50.0672 19.2169 50.3449 18.408 50.3449 17.2598C50.3449 16.4508 50.2219 15.845 49.9759 15.4424C49.7336 15.0398 49.4335 14.7844 49.0756 14.6763C48.7177 14.5645 48.2853 14.5086 47.7783 14.5086H46.6823Z" fill="white"/>
<path d="M55.1007 20.5198V14.0612C55.1007 13.7257 55.1771 13.4741 55.33 13.3063C55.4828 13.1386 55.6804 13.0547 55.9227 13.0547C56.1725 13.0547 56.3738 13.1386 56.5266 13.3063C56.6832 13.4704 56.7615 13.722 56.7615 14.0612V20.5198C56.7615 20.8591 56.6832 21.1126 56.5266 21.2803C56.3738 21.4481 56.1725 21.532 55.9227 21.532C55.6841 21.532 55.4866 21.4481 55.33 21.2803C55.1771 21.1088 55.1007 20.8553 55.1007 20.5198Z" fill="white"/>
<path d="M66.399 18.9317C66.399 19.4276 66.2704 19.873 66.0131 20.2682C65.7596 20.6634 65.3869 20.9728 64.8948 21.1965C64.4027 21.4201 63.8193 21.532 63.1445 21.532C62.3356 21.532 61.6683 21.3791 61.1426 21.0734C60.7698 20.8535 60.466 20.5608 60.2312 20.1955C60 19.8264 59.8845 19.4686 59.8845 19.1219C59.8845 18.9206 59.9534 18.7491 60.0914 18.6074C60.233 18.462 60.412 18.3893 60.6282 18.3893C60.8034 18.3893 60.9506 18.4453 61.0699 18.5571C61.193 18.6689 61.2973 18.8348 61.3831 19.0548C61.4875 19.3157 61.5993 19.5338 61.7186 19.709C61.8416 19.8842 62.0131 20.0296 62.233 20.1452C62.453 20.257 62.7419 20.3129 63.0998 20.3129C63.5919 20.3129 63.9908 20.1992 64.2964 19.9718C64.6059 19.7407 64.7606 19.4537 64.7606 19.1107C64.7606 18.8385 64.6767 18.6186 64.5089 18.4508C64.3449 18.2794 64.1306 18.1489 63.8659 18.0594C63.6049 17.9699 63.2545 17.8749 62.8146 17.7742C62.2256 17.6363 61.7316 17.476 61.3328 17.2933C60.9376 17.1069 60.6226 16.8553 60.3877 16.5384C60.1566 16.2178 60.041 15.8208 60.041 15.3474C60.041 14.8963 60.164 14.4955 60.4101 14.1451C60.6561 13.7947 61.0121 13.5263 61.4781 13.3399C61.9441 13.1497 62.4921 13.0547 63.1221 13.0547C63.6254 13.0547 64.0597 13.1181 64.4251 13.2448C64.7941 13.3678 65.0998 13.5337 65.3421 13.7425C65.5844 13.9475 65.7615 14.1637 65.8734 14.3911C65.9852 14.6185 66.0411 14.8404 66.0411 15.0566C66.0411 15.2542 65.9703 15.4331 65.8286 15.5934C65.6907 15.75 65.5173 15.8283 65.3086 15.8283C65.1184 15.8283 64.9731 15.7817 64.8724 15.6885C64.7755 15.5915 64.6692 15.435 64.5537 15.2187C64.4046 14.9093 64.2256 14.6689 64.0168 14.4974C63.8081 14.3222 63.4726 14.2346 63.0103 14.2346C62.5816 14.2346 62.2349 14.3296 61.9702 14.5198C61.7093 14.7062 61.5788 14.9317 61.5788 15.1964C61.5788 15.3604 61.6235 15.5021 61.713 15.6214C61.8025 15.7407 61.9255 15.8432 62.0821 15.9289C62.2386 16.0147 62.3971 16.0818 62.5574 16.1302C62.7177 16.1787 62.9824 16.2495 63.3514 16.3427C63.8137 16.4508 64.2312 16.5701 64.604 16.7006C64.9805 16.8311 65.2993 16.9895 65.5602 17.1759C65.8249 17.3623 66.0299 17.599 66.1753 17.8861C66.3244 18.1694 66.399 18.5179 66.399 18.9317Z" fill="white"/>
<path d="M74.6776 14.5645H72.8659V20.5198C72.8659 20.8628 72.7895 21.1182 72.6366 21.2859C72.4838 21.45 72.2862 21.532 72.0439 21.532C71.7978 21.532 71.5965 21.4481 71.4399 21.2803C71.2871 21.1126 71.2107 20.8591 71.2107 20.5198V14.5645H69.3989C69.1156 14.5645 68.905 14.503 68.767 14.38C68.6291 14.2532 68.5601 14.0873 68.5601 13.8823C68.5601 13.6698 68.631 13.502 68.7726 13.379C68.918 13.256 69.1268 13.1945 69.3989 13.1945H74.6776C74.9647 13.1945 75.1772 13.2579 75.3151 13.3846C75.4568 13.5114 75.5276 13.6772 75.5276 13.8823C75.5276 14.0873 75.4568 14.2532 75.3151 14.38C75.1735 14.503 74.961 14.5645 74.6776 14.5645Z" fill="white"/>
<path d="M80.289 17.8861H79.7074V20.5198C79.7074 20.8665 79.631 21.1219 79.4781 21.2859C79.3253 21.45 79.1259 21.532 78.8798 21.532C78.6151 21.532 78.4101 21.4462 78.2647 21.2747C78.1193 21.1033 78.0466 20.8516 78.0466 20.5198V14.2122C78.0466 13.8543 78.1268 13.5952 78.2871 13.4349C78.4474 13.2746 78.7065 13.1945 79.0644 13.1945H81.7652C82.138 13.1945 82.4568 13.2113 82.7214 13.2448C82.9861 13.2746 83.2247 13.338 83.4372 13.4349C83.6944 13.543 83.9218 13.6978 84.1194 13.8991C84.317 14.1004 84.4661 14.3352 84.5668 14.6036C84.6711 14.8683 84.7233 15.1498 84.7233 15.448C84.7233 16.0594 84.55 16.5477 84.2033 16.9131C83.8603 17.2784 83.3384 17.5375 82.6376 17.6903C82.9321 17.8469 83.2135 18.0781 83.4819 18.3837C83.7503 18.6894 83.9889 19.0156 84.1977 19.3623C84.4102 19.7053 84.5742 20.0166 84.6898 20.2962C84.8091 20.572 84.8687 20.7622 84.8687 20.8665C84.8687 20.9746 84.8333 21.0828 84.7625 21.1909C84.6954 21.2952 84.6022 21.3773 84.4829 21.4369C84.3636 21.5003 84.2256 21.532 84.0691 21.532C83.8827 21.532 83.7261 21.4872 83.5994 21.3978C83.4726 21.312 83.3626 21.202 83.2694 21.0678C83.18 20.9336 83.0569 20.7361 82.9004 20.4751L82.2349 19.3679C81.9964 18.9616 81.782 18.6522 81.5919 18.4397C81.4055 18.2272 81.2154 18.0818 81.0215 18.0035C80.8277 17.9252 80.5835 17.8861 80.289 17.8861ZM81.2396 14.4415H79.7074V16.695H81.1949C81.5937 16.695 81.9293 16.6614 82.2014 16.5943C82.4735 16.5235 82.6804 16.4061 82.8221 16.2421C82.9675 16.0743 83.0402 15.845 83.0402 15.5543C83.0402 15.3269 82.9824 15.1274 82.8668 14.9559C82.7513 14.7807 82.591 14.6502 82.3859 14.5645C82.1921 14.4825 81.81 14.4415 81.2396 14.4415Z" fill="white"/>
<path d="M87.9134 20.5198V14.0612C87.9134 13.7257 87.9898 13.4741 88.1426 13.3063C88.2955 13.1386 88.4931 13.0547 88.7354 13.0547C88.9852 13.0547 89.1865 13.1386 89.3393 13.3063C89.4959 13.4704 89.5742 13.722 89.5742 14.0612V20.5198C89.5742 20.8591 89.4959 21.1126 89.3393 21.2803C89.1865 21.4481 88.9852 21.532 88.7354 21.532C88.4968 21.532 88.2992 21.4481 88.1426 21.2803C87.9898 21.1088 87.9134 20.8553 87.9134 20.5198Z" fill="white"/>
<path d="M96.4828 21.3922H93.9776C93.616 21.3922 93.357 21.312 93.2004 21.1517C93.0475 20.9877 92.9711 20.7286 92.9711 20.3744V14.2122C92.9711 13.8506 93.0494 13.5915 93.206 13.4349C93.3663 13.2746 93.6235 13.1945 93.9776 13.1945H96.6338C97.0252 13.1945 97.3645 13.2187 97.6515 13.2672C97.9386 13.3156 98.1958 13.4088 98.4232 13.5468C98.617 13.6623 98.7885 13.8096 98.9376 13.9885C99.0868 14.1637 99.2005 14.3595 99.2787 14.5757C99.357 14.7882 99.3962 15.0137 99.3962 15.2523C99.3962 16.0724 98.9861 16.6726 98.166 17.0529C99.2433 17.3958 99.782 18.0631 99.782 19.0548C99.782 19.5133 99.6646 19.9271 99.4297 20.2962C99.1949 20.6615 98.878 20.9318 98.4791 21.107C98.2293 21.2114 97.9423 21.2859 97.618 21.3307C97.2936 21.3717 96.9152 21.3922 96.4828 21.3922ZM96.3598 17.7519H94.6319V20.1452H96.4157C97.5378 20.1452 98.0989 19.7407 98.0989 18.9317C98.0989 18.5179 97.9535 18.2178 97.6627 18.0315C97.3719 17.8451 96.9376 17.7519 96.3598 17.7519ZM94.6319 14.4415V16.5608H96.1529C96.5667 16.5608 96.8854 16.5216 97.1091 16.4434C97.3365 16.3651 97.5098 16.216 97.6291 15.996C97.7223 15.8394 97.7689 15.6642 97.7689 15.4704C97.7689 15.0566 97.6217 14.7826 97.3272 14.6484C97.0327 14.5104 96.5835 14.4415 95.9795 14.4415H94.6319Z" fill="white"/>
<path d="M102.346 18.0035V14.0612C102.346 13.7257 102.42 13.4741 102.569 13.3063C102.722 13.1386 102.922 13.0547 103.168 13.0547C103.425 13.0547 103.628 13.1386 103.777 13.3063C103.93 13.4741 104.007 13.7257 104.007 14.0612V18.093C104.007 18.5515 104.057 18.9355 104.158 19.2449C104.262 19.5506 104.445 19.7892 104.706 19.9606C104.966 20.1284 105.332 20.2123 105.802 20.2123C106.45 20.2123 106.909 20.0408 107.177 19.6978C107.446 19.3511 107.58 18.8274 107.58 18.1265V14.0612C107.58 13.722 107.654 13.4704 107.803 13.3063C107.953 13.1386 108.152 13.0547 108.402 13.0547C108.652 13.0547 108.853 13.1386 109.006 13.3063C109.162 13.4704 109.241 13.722 109.241 14.0612V18.0035C109.241 18.6447 109.177 19.1797 109.05 19.6084C108.927 20.0371 108.693 20.4136 108.346 20.7379C108.048 21.0138 107.701 21.2151 107.306 21.3418C106.911 21.4686 106.448 21.532 105.919 21.532C105.289 21.532 104.747 21.4649 104.292 21.3307C103.837 21.1927 103.466 20.9821 103.179 20.6988C102.892 20.4117 102.681 20.0464 102.547 19.6028C102.413 19.1554 102.346 18.6223 102.346 18.0035Z" fill="white"/>
<path d="M117.905 14.5645H116.093V20.5198C116.093 20.8628 116.017 21.1182 115.864 21.2859C115.711 21.45 115.514 21.532 115.271 21.532C115.025 21.532 114.824 21.4481 114.667 21.2803C114.515 21.1126 114.438 20.8591 114.438 20.5198V14.5645H112.626C112.343 14.5645 112.132 14.503 111.994 14.38C111.857 14.2532 111.788 14.0873 111.788 13.8823C111.788 13.6698 111.858 13.502 112 13.379C112.145 13.256 112.354 13.1945 112.626 13.1945H117.905C118.192 13.1945 118.405 13.2579 118.543 13.3846C118.684 13.5114 118.755 13.6772 118.755 13.8823C118.755 14.0873 118.684 14.2532 118.543 14.38C118.401 14.503 118.188 14.5645 117.905 14.5645Z" fill="white"/>
<path d="M126.687 14.475H122.946V16.4881H126.391C126.644 16.4881 126.832 16.5459 126.955 16.6614C127.082 16.7733 127.145 16.9224 127.145 17.1088C127.145 17.2952 127.084 17.448 126.961 17.5673C126.838 17.6829 126.648 17.7407 126.391 17.7407H122.946V20.0725H126.816C127.077 20.0725 127.272 20.134 127.403 20.257C127.537 20.3763 127.604 20.5366 127.604 20.7379C127.604 20.9318 127.537 21.0902 127.403 21.2132C127.272 21.3325 127.077 21.3922 126.816 21.3922H122.303C121.941 21.3922 121.68 21.312 121.52 21.1517C121.364 20.9914 121.285 20.7323 121.285 20.3744V14.2122C121.285 13.9736 121.321 13.7798 121.391 13.6307C121.462 13.4778 121.572 13.3678 121.721 13.3007C121.874 13.2299 122.068 13.1945 122.303 13.1945H126.687C126.952 13.1945 127.147 13.2541 127.274 13.3734C127.405 13.489 127.47 13.6418 127.47 13.832C127.47 14.0258 127.405 14.1824 127.274 14.3017C127.147 14.4172 126.952 14.475 126.687 14.475Z" fill="white"/>
<path d="M131.499 13.1945H133.663C134.226 13.1945 134.708 13.2467 135.111 13.3511C135.514 13.4554 135.879 13.6512 136.207 13.9382C137.061 14.6689 137.488 15.7798 137.488 17.271C137.488 17.763 137.445 18.2123 137.359 18.6186C137.273 19.0249 137.141 19.3921 136.962 19.7202C136.783 20.0445 136.554 20.3353 136.274 20.5925C136.054 20.7901 135.814 20.9485 135.553 21.0678C135.292 21.1871 135.01 21.271 134.708 21.3195C134.41 21.3679 134.073 21.3922 133.696 21.3922H131.532C131.23 21.3922 131.003 21.3474 130.85 21.258C130.697 21.1648 130.597 21.0362 130.548 20.8721C130.503 20.7044 130.481 20.4882 130.481 20.2235V14.2122C130.481 13.8543 130.561 13.5952 130.721 13.4349C130.882 13.2746 131.141 13.1945 131.499 13.1945ZM132.142 14.5086V20.0725H133.4C133.676 20.0725 133.892 20.065 134.049 20.0501C134.205 20.0352 134.367 19.9979 134.535 19.9383C134.703 19.8786 134.848 19.7948 134.971 19.6866C135.527 19.2169 135.804 18.408 135.804 17.2598C135.804 16.4508 135.681 15.845 135.435 15.4424C135.193 15.0398 134.893 14.7844 134.535 14.6763C134.177 14.5645 133.745 14.5086 133.238 14.5086H132.142Z" fill="white"/>
<path d="M152.39 18.0594V19.6307C152.39 19.8395 152.369 20.0072 152.328 20.134C152.287 20.257 152.211 20.3689 152.099 20.4695C151.991 20.5702 151.851 20.6671 151.68 20.7603C151.184 21.0287 150.707 21.2244 150.248 21.3474C149.789 21.4705 149.29 21.532 148.749 21.532C148.119 21.532 147.545 21.435 147.027 21.2412C146.509 21.0473 146.067 20.7659 145.702 20.3968C145.336 20.0278 145.055 19.5804 144.857 19.0548C144.664 18.5291 144.567 17.942 144.567 17.2933C144.567 16.6559 144.662 16.0724 144.852 15.5431C145.042 15.0137 145.322 14.5645 145.691 14.1954C146.06 13.8264 146.509 13.5449 147.038 13.3511C147.568 13.1535 148.168 13.0547 148.839 13.0547C149.391 13.0547 149.879 13.1292 150.304 13.2784C150.729 13.4238 151.074 13.6083 151.338 13.832C151.603 14.0556 151.803 14.2924 151.937 14.5421C152.071 14.7919 152.138 15.0137 152.138 15.2076C152.138 15.4163 152.06 15.5953 151.903 15.7444C151.75 15.8898 151.566 15.9625 151.35 15.9625C151.23 15.9625 151.115 15.9345 151.003 15.8786C150.895 15.8227 150.803 15.7444 150.729 15.6437C150.524 15.3231 150.351 15.0808 150.209 14.9168C150.067 14.7528 149.875 14.6148 149.633 14.503C149.394 14.3911 149.089 14.3352 148.716 14.3352C148.332 14.3352 147.989 14.4023 147.687 14.5365C147.385 14.667 147.126 14.859 146.91 15.1125C146.697 15.3623 146.533 15.6698 146.418 16.0352C146.306 16.4005 146.25 16.805 146.25 17.2486C146.25 18.2104 146.47 18.9504 146.91 19.4686C147.353 19.9867 147.97 20.2458 148.761 20.2458C149.145 20.2458 149.504 20.1955 149.84 20.0949C150.179 19.9942 150.522 19.8507 150.869 19.6643V18.3334H149.583C149.273 18.3334 149.038 18.2868 148.878 18.1936C148.721 18.1004 148.643 17.942 148.643 17.7183C148.643 17.5356 148.708 17.3847 148.839 17.2654C148.973 17.1461 149.154 17.0864 149.381 17.0864H151.266C151.497 17.0864 151.693 17.1069 151.853 17.1479C152.013 17.1889 152.142 17.2803 152.239 17.4219C152.339 17.5636 152.39 17.7761 152.39 18.0594Z" fill="white"/>
<path d="M157.145 14.0612V20.0278H160.512C160.78 20.0278 160.985 20.093 161.127 20.2235C161.272 20.3539 161.345 20.518 161.345 20.7156C161.345 20.9169 161.274 21.0809 161.132 21.2076C160.991 21.3307 160.784 21.3922 160.512 21.3922H156.502C156.141 21.3922 155.88 21.312 155.72 21.1517C155.563 20.9914 155.485 20.7323 155.485 20.3744V14.0612C155.485 13.7257 155.559 13.4741 155.708 13.3063C155.861 13.1386 156.061 13.0547 156.307 13.0547C156.556 13.0547 156.758 13.1386 156.911 13.3063C157.067 13.4704 157.145 13.722 157.145 14.0612Z" fill="white"/>
<path d="M167.023 13.0547C167.873 13.0547 168.602 13.228 169.21 13.5747C169.821 13.9177 170.283 14.4079 170.597 15.0454C170.91 15.6791 171.066 16.4247 171.066 17.2821C171.066 17.9159 170.981 18.4919 170.809 19.01C170.638 19.5282 170.38 19.9774 170.037 20.3577C169.694 20.7379 169.273 21.0287 168.774 21.23C168.274 21.4313 167.702 21.532 167.057 21.532C166.416 21.532 165.842 21.4294 165.335 21.2244C164.828 21.0156 164.405 20.723 164.065 20.3465C163.726 19.97 163.469 19.517 163.294 18.9877C163.122 18.4583 163.036 17.8861 163.036 17.271C163.036 16.6409 163.126 16.0631 163.305 15.5375C163.487 15.0118 163.75 14.5645 164.093 14.1954C164.436 13.8264 164.854 13.5449 165.346 13.3511C165.838 13.1535 166.397 13.0547 167.023 13.0547ZM169.383 17.271C169.383 16.6708 169.286 16.1507 169.092 15.7108C168.899 15.2709 168.621 14.9391 168.259 14.7155C167.901 14.4881 167.489 14.3744 167.023 14.3744C166.692 14.3744 166.384 14.4377 166.101 14.5645C165.821 14.6875 165.579 14.8683 165.374 15.1069C165.172 15.3455 165.012 15.6512 164.893 16.024C164.777 16.393 164.72 16.8087 164.72 17.271C164.72 17.7369 164.777 18.1582 164.893 18.5347C165.012 18.9112 165.178 19.2244 165.391 19.4742C165.607 19.7202 165.853 19.9047 166.129 20.0278C166.408 20.1508 166.714 20.2123 167.046 20.2123C167.471 20.2123 167.86 20.106 168.214 19.8935C168.572 19.6811 168.856 19.353 169.064 18.9094C169.277 18.4658 169.383 17.9196 169.383 17.271Z" fill="white"/>
<path d="M177.533 21.3922H175.028C174.666 21.3922 174.407 21.312 174.251 21.1517C174.098 20.9877 174.021 20.7286 174.021 20.3744V14.2122C174.021 13.8506 174.1 13.5915 174.256 13.4349C174.417 13.2746 174.674 13.1945 175.028 13.1945H177.684C178.076 13.1945 178.415 13.2187 178.702 13.2672C178.989 13.3156 179.246 13.4088 179.474 13.5468C179.667 13.6623 179.839 13.8096 179.988 13.9885C180.137 14.1637 180.251 14.3595 180.329 14.5757C180.407 14.7882 180.447 15.0137 180.447 15.2523C180.447 16.0724 180.036 16.6726 179.216 17.0529C180.294 17.3958 180.832 18.0631 180.832 19.0548C180.832 19.5133 180.715 19.9271 180.48 20.2962C180.245 20.6615 179.928 20.9318 179.529 21.107C179.28 21.2114 178.993 21.2859 178.668 21.3307C178.344 21.3717 177.966 21.3922 177.533 21.3922ZM177.41 17.7519H175.682V20.1452H177.466C178.588 20.1452 179.149 19.7407 179.149 18.9317C179.149 18.5179 179.004 18.2178 178.713 18.0315C178.422 17.8451 177.988 17.7519 177.41 17.7519ZM175.682 14.4415V16.5608H177.203C177.617 16.5608 177.936 16.5216 178.159 16.4434C178.387 16.3651 178.56 16.216 178.68 15.996C178.773 15.8394 178.819 15.6642 178.819 15.4704C178.819 15.0566 178.672 14.7826 178.378 14.6484C178.083 14.5104 177.634 14.4415 177.03 14.4415H175.682Z" fill="white"/>
<path d="M188.63 20.4639L188.239 19.435H184.906L184.515 20.4863C184.362 20.8964 184.231 21.1741 184.123 21.3195C184.015 21.4611 183.838 21.532 183.592 21.532C183.383 21.532 183.199 21.4555 183.038 21.3027C182.878 21.1499 182.798 20.9765 182.798 20.7827C182.798 20.6708 182.816 20.5553 182.854 20.436C182.891 20.3167 182.953 20.1508 183.038 19.9383L185.135 14.6148C185.195 14.462 185.266 14.2793 185.348 14.0668C185.433 13.8506 185.523 13.6717 185.616 13.53C185.713 13.3883 185.838 13.2746 185.991 13.1889C186.147 13.0994 186.339 13.0547 186.567 13.0547C186.798 13.0547 186.99 13.0994 187.143 13.1889C187.299 13.2746 187.424 13.3865 187.517 13.5244C187.614 13.6623 187.694 13.8115 187.758 13.9718C187.825 14.1283 187.909 14.339 188.009 14.6036L190.151 19.8935C190.319 20.2962 190.403 20.5888 190.403 20.7715C190.403 20.9616 190.323 21.1368 190.162 21.2971C190.006 21.4537 189.816 21.532 189.592 21.532C189.461 21.532 189.35 21.5077 189.256 21.4593C189.163 21.4145 189.085 21.353 189.022 21.2747C188.958 21.1927 188.889 21.0697 188.815 20.9057C188.744 20.7379 188.682 20.5907 188.63 20.4639ZM185.342 18.188H187.791L186.556 14.8049L185.342 18.188Z" fill="white"/>
<path d="M194.801 14.0612V20.0278H198.167C198.435 20.0278 198.64 20.093 198.782 20.2235C198.927 20.3539 199 20.518 199 20.7156C199 20.9169 198.929 21.0809 198.788 21.2076C198.646 21.3307 198.439 21.3922 198.167 21.3922H194.158C193.796 21.3922 193.535 21.312 193.375 21.1517C193.218 20.9914 193.14 20.7323 193.14 20.3744V14.0612C193.14 13.7257 193.214 13.4741 193.364 13.3063C193.516 13.1386 193.716 13.0547 193.962 13.0547C194.212 13.0547 194.413 13.1386 194.566 13.3063C194.722 13.4704 194.801 13.722 194.801 14.0612Z" fill="white"/>
</svg>
