<svg width="72" height="69" viewBox="0 0 72 69" fill="none" xmlns="http://www.w3.org/2000/svg">
<path d="M48.5056 21.364C19.3966 29.3282 23.3992 36.8607 29.0391 39.6314C8.86575 33.2691 34.5519 23.0397 49.9076 18.5293C49.4463 19.4463 48.6883 21.0042 48.5056 21.364Z" fill="white"/>
<path fill-rule="evenodd" clip-rule="evenodd" d="M25.5677 27.5545C23.5089 23.891 26.8128 18.1956 48.5056 12.2605C48.5836 12.1069 48.7665 11.7347 48.9865 11.2873C49.2816 10.687 49.6433 9.95118 49.9076 9.42578C36.1022 13.4808 13.9471 22.1583 24.2734 28.4925C24.6743 28.1788 25.1069 27.8659 25.5677 27.5545Z" fill="white"/>
<path fill-rule="evenodd" clip-rule="evenodd" d="M25.5674 18.6409C23.5092 14.9774 26.8139 9.28225 48.5056 3.34741C48.5836 3.19378 48.7665 2.82164 48.9865 2.37423C49.2816 1.77392 49.6433 1.0381 49.9076 0.512695C36.1025 4.56767 13.9478 13.2449 24.2729 19.5791C24.6738 19.2653 25.1065 18.9524 25.5674 18.6409Z" fill="white"/>
<path d="M10.6336 55.858V52.687H14.1555V51.1892H10.6336V49.0842H14.4388V47.5729H8.91992V55.858H10.6336Z" fill="white"/>
<path d="M19.1478 55.858V52.687H22.6696V51.1892H19.1478V49.0842H22.953V47.5729H17.4341V55.858H19.1478Z" fill="white"/>
<path d="M27.6754 47.5729H25.9483V55.858H27.6754V47.5729Z" fill="white"/>
<path d="M30.6051 51.7155C30.6051 54.2523 32.2514 55.993 34.4643 55.993C36.4209 55.993 37.6218 54.846 37.9322 53.1728H36.2185C35.9351 53.9419 35.4224 54.4547 34.4643 54.4547C33.1419 54.4547 32.3593 53.2807 32.3593 51.7155C32.3593 50.1367 33.1419 48.9763 34.4643 48.9763C35.4224 48.9763 35.9351 49.489 36.2185 50.2447H37.9322C37.6218 48.5849 36.4209 47.438 34.4643 47.438C32.2514 47.438 30.6051 49.1787 30.6051 51.7155Z" fill="white"/>
<path d="M42.569 47.5729H40.8419V55.858H42.569V47.5729Z" fill="white"/>
<path d="M45.9035 47.5729V55.858H51.5304V54.3332H47.6037V52.3632H51.1661V50.8924H47.6037V49.0842H51.5304V47.5729H45.9035Z" fill="white"/>
<path d="M61.5511 47.5729H59.8914V52.8085L56.2346 47.5729H54.6154V55.858H56.2751V50.3391L60.1882 55.858H61.5511V47.5729Z" fill="white"/>
<path d="M64.45 49.0842H67.1083V55.858H68.8489V49.0842H71.5207V47.5729H64.45V49.0842Z" fill="white"/>
<path d="M1.71369 68.378V65.207H5.23553V63.7092H1.71369V61.6042H5.5189V60.0929H0V68.378H1.71369Z" fill="white"/>
<path d="M11.5367 65.288L13.5878 68.378H15.5309L13.3449 65.1666C14.5053 64.8832 15.234 64.0466 15.234 62.7242C15.234 61.024 14.0735 60.0929 12.3329 60.0929H8.91898V68.378H10.6327V65.288H11.5367ZM10.6327 61.5638H12.2249C13.0885 61.5638 13.5338 62.0225 13.5338 62.7242C13.5338 63.4124 13.0885 63.8712 12.2249 63.8712H10.6327V61.5638Z" fill="white"/>
<path d="M26.1163 64.2355C26.1163 61.7527 24.4971 59.958 22.1896 59.958C19.8822 59.958 18.2765 61.7527 18.2765 64.2355C18.2765 66.7048 19.8822 68.513 22.1896 68.513C24.4971 68.513 26.1163 66.7048 26.1163 64.2355ZM24.3756 64.2355C24.3756 65.8547 23.512 66.9747 22.1896 66.9747C20.8808 66.9747 20.0307 65.8547 20.0307 64.2355C20.0307 62.6163 20.8808 61.4963 22.1896 61.4963C23.512 61.4963 24.3756 62.6163 24.3756 64.2355Z" fill="white"/>
<path d="M36.4072 60.0929H34.7475V65.3285L31.0907 60.0929H29.4715V68.378H31.1312V62.8591L35.0443 68.378H36.4072V60.0929Z" fill="white"/>
<path d="M39.7109 61.6042H42.3692V68.378H44.1098V61.6042H46.7816V60.0929H39.7109V61.6042Z" fill="white"/>
<path d="M51.8039 60.0929H50.0767V68.378H51.8039V60.0929Z" fill="white"/>
<path d="M55.5432 60.0929V68.378H61.17V66.8533H57.2434V64.8832H60.8057V63.4124H57.2434V61.6042H61.17V60.0929H55.5432Z" fill="white"/>
<path d="M67.2776 65.288L69.3286 68.378H71.2717L69.0857 65.1666C70.2462 64.8832 70.9748 64.0466 70.9748 62.7242C70.9748 61.024 69.8144 60.0929 68.0737 60.0929H64.6598V68.378H66.3735V65.288H67.2776ZM66.3735 61.5638H67.9658C68.8293 61.5638 69.2746 62.0225 69.2746 62.7242C69.2746 63.4124 68.8293 63.8712 67.9658 63.8712H66.3735V61.5638Z" fill="white"/>
<path fill-rule="evenodd" clip-rule="evenodd" d="M0 49.0825V47.5732H5.62685V49.0845H2.14966V49.0825H0ZM0 50.8908V55.8583H5.62685V54.3336H1.7002V52.3635H5.26252V50.8927H1.7002V50.8908H0Z" fill="white"/>
</svg>
