<svg width="106" height="49" viewBox="0 0 106 49" fill="none" xmlns="http://www.w3.org/2000/svg">
<path d="M19.5385 37.7936C14.4053 37.7936 9.24131 37.7936 4.10807 37.7936C3.70848 37.7936 3.27815 37.7629 2.90929 37.6399C2.07937 37.3633 1.52609 36.4411 1.64904 35.642C1.80273 34.5969 2.47896 33.9514 3.52405 33.8592C4.78431 33.7669 5.79866 33.2137 6.56711 32.1686C7.05891 31.4616 7.27408 30.6624 7.27408 29.8018C7.27408 27.0353 7.30482 24.2382 7.27408 21.4718C7.27408 18.3672 8.19622 15.6008 10.2249 13.234C11.6389 11.6049 13.3602 10.4369 15.3889 9.72988C15.7885 9.57619 15.9729 9.39176 16.0344 8.96143C16.311 7.08642 17.8479 5.91838 19.8766 5.97985C21.5057 6.04133 22.9197 7.3938 23.1041 9.14586C23.1349 9.45324 23.3193 9.57619 23.5652 9.6684C25.4709 10.3139 27.1308 11.359 28.514 12.8037C30.4812 14.8939 31.7107 17.3836 31.803 20.273C31.9259 23.5005 31.8952 26.728 31.8952 29.9554C31.8952 31.3386 32.4792 32.4145 33.6165 33.2137C34.2313 33.644 34.9075 33.7977 35.6452 33.8899C36.4444 33.9514 37.0591 34.351 37.3358 35.0887C37.6124 35.7957 37.5202 36.4719 37.0591 37.0866C36.6288 37.6399 36.0448 37.7936 35.3993 37.8244C35.2149 37.8244 35.0304 37.8244 34.846 37.8244C29.805 37.7936 24.6718 37.7936 19.5385 37.7936Z" fill="#1C64F2"/>
<path d="M86.9161 27.527C89.4981 20.3651 92.0494 13.3261 94.5699 6.28711C94.6006 6.28711 94.6313 6.31784 94.6621 6.31784C94.4469 7.36293 94.2318 8.40803 94.0166 9.45312C92.8485 15.0782 91.6498 20.7032 90.4817 26.3282C90.0821 28.234 89.6825 30.1397 89.2829 32.0455C89.2215 32.3836 89.0678 32.5373 88.6682 32.5373C87.8997 32.5066 87.1006 32.5066 86.3321 32.5373C85.994 32.5373 85.8096 32.4144 85.7173 32.107C84.703 29.2176 83.6886 26.3282 82.6743 23.4389C82.4284 22.7626 82.1825 22.0557 81.8136 21.3487C79.2624 28.3877 76.7111 35.3959 74.1599 42.4349C74.1291 42.4349 74.0984 42.4349 74.0369 42.4042C74.0677 42.2505 74.0677 42.1275 74.0984 41.9739C74.1291 41.8202 74.1599 41.6665 74.1906 41.482C75.5123 35.2422 76.8033 29.0024 78.1251 22.7626C78.5554 20.7339 78.9857 18.7052 79.4161 16.6765C79.4775 16.3077 79.662 16.1847 80.0308 16.1847C80.7378 16.2155 81.4448 16.2155 82.1517 16.1847C82.6743 16.154 82.8895 16.3692 83.0431 16.8302C83.7809 18.9204 84.5186 21.0413 85.2563 23.1315C85.7173 24.4532 86.2092 25.775 86.6702 27.0967C86.7624 27.1889 86.7932 27.2811 86.9161 27.527Z" fill="#1C64F2"/>
<path d="M49.8155 24.2382C49.8155 21.7177 49.8155 19.1972 49.8155 16.6459C49.8155 15.9082 49.8462 15.9082 50.5225 15.9082C53.5655 15.9082 56.6393 15.9082 59.6824 15.9082C60.2971 15.9082 60.3279 15.9389 60.3279 16.523C60.3279 16.7689 60.2971 17.0455 60.3279 17.2914C60.3586 17.691 60.1742 17.814 59.8053 17.814C57.4692 17.814 55.1332 17.814 52.7971 17.814C52.1516 17.814 52.1516 17.814 52.1516 18.4594C52.1516 19.8119 52.1516 21.1644 52.1516 22.5476C52.1516 22.9472 52.2745 23.1009 52.7049 23.1009C54.7336 23.1009 56.7315 23.1009 58.7602 23.1009C59.3135 23.1009 59.3443 23.1316 59.3443 23.6849C59.3443 25.1603 59.5287 24.9759 58.084 24.9759C56.3012 24.9759 54.5184 24.9759 52.7356 24.9759C52.3053 24.9759 52.1516 25.0988 52.1516 25.5292C52.1823 27.0661 52.1823 28.603 52.1516 30.1399C52.1516 30.5702 52.3053 30.6932 52.7356 30.6932C55.1024 30.6624 57.4692 30.6932 59.8361 30.6932C60.5123 30.6932 60.543 30.6931 60.5123 31.3694C60.5123 32.8141 60.6967 32.5989 59.2828 32.5989C56.3627 32.5989 53.4118 32.5989 50.4917 32.5989C49.877 32.5989 49.8462 32.5682 49.8462 31.9534C49.8155 29.3714 49.8155 26.8202 49.8155 24.2382Z" fill="#1C64F2"/>
<path d="M63.0944 24.2689C63.0944 21.6869 63.0944 19.1357 63.0944 16.5537C63.0944 15.9389 63.1251 15.9082 63.7091 15.9082C65.4919 15.9082 67.2747 15.8775 69.0575 15.9082C70.5637 15.9389 72.0391 16.1848 73.2993 17.1377C74.283 17.9062 74.8362 18.9205 75.0207 20.1193C75.2051 21.1951 75.1129 22.2709 74.6826 23.2853C73.9756 24.9144 72.5924 25.7443 70.9018 25.9595C69.3034 26.1439 67.6743 26.1132 66.0759 26.1439C65.369 26.1747 65.369 26.1439 65.369 26.8509C65.369 28.5722 65.369 30.3243 65.369 32.0456C65.369 32.4452 65.246 32.6296 64.8464 32.5989C64.4468 32.5682 64.0472 32.5682 63.6476 32.5989C63.2173 32.6296 63.1251 32.4452 63.1251 32.0456C63.0944 29.4636 63.0944 26.8509 63.0944 24.2689ZM65.369 21.0414C65.369 21.9328 65.369 22.8242 65.369 23.7156C65.369 24.0845 65.4612 24.2689 65.8608 24.2382C67.0288 24.2074 68.1969 24.2689 69.3649 24.2074C70.2563 24.1767 71.1784 24.0537 71.8854 23.4082C72.9612 22.4246 73.0227 21.1644 72.6539 19.9041C72.285 18.6746 71.3321 18.0291 70.1026 17.9062C68.6887 17.7832 67.244 17.8139 65.7993 17.7832C65.4612 17.7832 65.3997 17.9369 65.3997 18.2135C65.369 19.1972 65.369 20.1193 65.369 21.0414Z" fill="#1C64F2"/>
<path d="M100.318 16.1846C101.855 16.1231 103.207 16.5227 104.375 17.537C105.328 18.367 105.851 19.412 105.943 20.703C105.974 20.9797 105.851 21.0412 105.605 21.0412C105.113 21.0412 104.621 21.0412 104.13 21.0412C103.884 21.0412 103.761 20.9489 103.73 20.6723C103.484 18.951 102.439 18.0288 100.656 17.9981C99.7033 17.9674 98.7811 17.9981 97.982 18.5821C96.7217 19.5043 96.691 21.3485 98.0127 22.1785C98.7504 22.6395 99.6418 22.9162 100.472 23.2543C101.517 23.6846 102.593 23.992 103.607 24.4838C105.482 25.4059 106.281 27.0965 105.912 29.0945C105.697 30.324 104.959 31.1847 103.914 31.7687C101.732 32.9982 97.9819 32.8753 95.861 31.0617C94.9389 30.2625 94.4471 29.2789 94.3241 28.0801C94.2934 27.8035 94.4163 27.6805 94.693 27.6805C95.2155 27.6805 95.7073 27.6498 96.2299 27.7113C96.3528 27.7113 96.568 27.8957 96.568 28.0187C96.6602 29.617 98.0434 30.5699 99.6111 30.7236C100.472 30.8158 101.332 30.8466 102.193 30.5084C103.054 30.1703 103.638 29.617 103.761 28.6642C103.884 27.6191 103.576 26.7277 102.593 26.2666C101.671 25.8363 100.718 25.5289 99.734 25.1908C98.4738 24.7604 97.2442 24.2994 96.2299 23.4387C94.7852 22.2399 94.4163 20.0268 95.4614 18.4592C96.4451 16.953 97.9205 16.369 99.6418 16.1846C99.8262 16.1538 100.072 16.1846 100.318 16.1846Z" fill="#1C64F2"/>
<path d="M19.6002 46.0004C16.6494 46.0926 13.4834 43.818 13.1145 40.1295C13.0838 39.6684 13.1452 39.5762 13.6063 39.5762C17.6022 39.5762 21.6289 39.5762 25.6248 39.5762C25.9937 39.5762 26.1166 39.6684 26.0859 40.068C25.7171 43.2033 23.6884 45.3856 20.6146 45.9082C20.2764 46.0004 19.9383 45.9697 19.6002 46.0004Z" fill="#1C64F2"/>
<path d="M0.020074 14.3405C0.020074 9.26875 3.70863 4.62732 8.6267 3.45928C8.84186 3.3978 9.05703 3.36706 9.24146 3.3978C9.36441 3.42854 9.57957 3.58223 9.57957 3.70518C9.61031 3.82813 9.45662 4.01256 9.33367 4.10477C9.27219 4.16625 9.1185 4.16625 8.99555 4.19699C4.60003 5.30355 1.58771 8.62325 0.942212 13.1417C0.880736 13.6643 0.911475 14.1868 0.880737 14.7094C0.880737 14.8016 0.911475 14.9553 0.880737 15.0167C0.757786 15.2012 0.604095 15.3549 0.481143 15.5393C0.327453 15.3856 0.112287 15.2319 0.0508115 15.0475C-0.0414023 14.8323 0.020074 14.5557 0.020074 14.3405Z" fill="#1C64F2"/>
<path d="M38.3504 14.187C38.3197 9.63777 35.0614 5.45741 30.5737 4.25863C30.3893 4.19716 30.1741 4.19716 30.0204 4.10495C29.8667 4.01273 29.7438 3.79757 29.5901 3.64388C29.7745 3.55166 29.9589 3.3365 30.1126 3.36724C30.7889 3.52093 31.4651 3.64388 32.0799 3.92052C34.6926 4.99635 36.6906 6.77915 37.9815 9.29966C38.6578 10.6214 39.0881 12.0353 39.1496 13.5415C39.1803 14.064 39.1803 14.5866 39.1496 15.1091C39.1496 15.2628 38.9037 15.3858 38.7807 15.5395C38.627 15.3858 38.4119 15.2628 38.3811 15.1091C38.2889 14.8017 38.3504 14.4944 38.3504 14.187Z" fill="#1C64F2"/>
<path d="M78.2174 48.1525C77.1723 48.1525 76.3731 47.384 76.3731 46.3697C76.3731 45.3246 77.1723 44.5254 78.2174 44.5254C79.2625 44.5254 80.0924 45.3553 80.0617 46.3697C80.0617 47.384 79.2625 48.1525 78.2174 48.1525Z" fill="#1C64F2"/>
<path d="M73.6374 48.1525C72.5923 48.1525 71.8239 47.384 71.7932 46.3697C71.7932 45.3246 72.5923 44.5254 73.6374 44.5254C74.6825 44.5254 75.4817 45.3246 75.4817 46.3389C75.5124 47.3533 74.6825 48.1525 73.6374 48.1525Z" fill="#1C64F2"/>
<path d="M69.0268 48.1525C67.951 48.1525 67.1826 47.384 67.2133 46.3082C67.2133 45.2938 68.0125 44.5254 69.0576 44.5254C70.0719 44.5254 70.9018 45.3246 70.9018 46.3389C70.9018 47.3533 70.1027 48.1525 69.0268 48.1525Z" fill="#1C64F2"/>
<path d="M95.5229 0.569859C96.568 0.569859 97.3057 1.30757 97.3057 2.32192C97.3057 3.39775 96.5373 4.1662 95.4922 4.1662C94.4778 4.1662 93.6172 3.33627 93.6479 2.35266C93.6786 1.39978 94.3856 0.477646 95.5229 0.569859Z" fill="#1C64F2"/>
<path d="M36.2601 14.6786C36.2294 14.8323 36.2294 15.0168 36.1679 15.1397C36.1064 15.2934 35.9527 15.3856 35.8605 15.5086C35.7683 15.3856 35.5839 15.2627 35.5839 15.109C35.5224 14.5557 35.5839 13.9717 35.4609 13.4184C34.8462 10.1909 32.8789 8.13145 29.7744 7.14784C29.4978 7.05563 29.006 7.1171 29.1597 6.65603C29.2826 6.25644 29.6822 6.50234 29.9281 6.56382C33.3708 7.42448 35.9527 10.4983 36.1986 14.0331C36.1986 14.2483 36.2294 14.4635 36.2601 14.6786Z" fill="#1C64F2"/>
<path d="M2.97094 14.6172C3.00167 10.8057 5.82957 7.30153 9.54886 6.50234C9.76402 6.44087 10.0407 6.37939 10.0714 6.68677C10.0714 6.80972 9.8255 7.05562 9.64107 7.08636C8.16565 7.48595 6.87466 8.16219 5.82957 9.23802C4.35414 10.7442 3.64717 12.5577 3.5857 14.6479C3.5857 14.8016 3.61643 14.986 3.55496 15.1397C3.52422 15.2627 3.37053 15.3856 3.27832 15.4778C3.1861 15.3856 3.00167 15.2934 2.97094 15.1397C2.9402 15.0168 2.97094 14.8016 2.97094 14.6172Z" fill="#1C64F2"/>
</svg>
