<svg width="75" height="56" viewBox="0 0 75 56" fill="none" xmlns="http://www.w3.org/2000/svg">
<path d="M33.7171 17.1404H31.1337H30.87H30.5537H28.1548C28.3393 16.2441 28.3393 15.3214 28.1548 14.4251C28.3393 13.5288 28.3393 12.6061 28.1548 11.7098C28.3393 10.8135 28.3393 9.89081 28.1548 8.9945C28.3393 8.09819 28.3393 7.17552 28.1548 6.27921C28.3393 5.3829 28.3393 4.46023 28.1548 3.56392C28.3393 2.66761 28.3393 1.74494 28.1548 0.848633H24.9913C24.8068 1.74494 24.8068 2.66761 24.9913 3.56392C24.8068 4.46023 24.8068 5.35654 24.9913 6.27921C24.8068 7.17552 24.8068 8.07183 24.9913 8.9945C24.8068 9.89081 24.8068 10.7871 24.9913 11.7098C24.8068 12.6061 24.8068 13.5288 24.9913 14.4251C24.8068 15.3214 24.8068 16.2177 24.9913 17.1404C24.8068 18.0367 24.8068 18.933 24.9913 19.8557H27.7066H28.1548H30.5537H30.87H31.1337H33.7171H34.2971C34.4816 18.9594 34.4816 18.0367 34.2971 17.1404H33.7171Z" fill="#1C64F2"/>
<path d="M45 3.59029H45.2637H47.8471H48.4271C48.6116 2.69398 48.6116 1.77131 48.4271 0.875H47.8471H45.2637H45H44.6837H42.2848H41.8366H39.1213C38.9368 1.77131 38.9368 2.69398 39.1213 3.59029C38.9368 4.4866 38.9368 5.38291 39.1213 6.30558C38.9368 7.20189 38.9368 8.0982 39.1213 9.02087C38.9368 9.91718 38.9368 10.8135 39.1213 11.7362C38.9368 12.6325 38.9368 13.5551 39.1213 14.4514C38.9368 15.3478 38.9368 16.2441 39.1213 17.1667C38.9368 18.063 38.9368 18.9594 39.1213 19.882H41.8366H42.2848H44.6837H45H45.2637H47.8471H48.4271C48.6116 18.9857 48.6116 18.063 48.4271 17.1667H47.8471H45.2637H45H44.6837H42.2848C42.4693 16.2704 42.4693 15.3478 42.2848 14.4514C42.4693 13.5551 42.4693 12.6325 42.2848 11.7362H44.6837H45H45.2637H47.8471H48.4271C48.6116 10.8398 48.6116 9.91718 48.4271 9.02087H47.8471H45.2637H45H44.6837H42.2848C42.4693 8.12456 42.4693 7.20189 42.2848 6.30558C42.4693 5.40927 42.4693 4.4866 42.2848 3.59029H44.6837H45Z" fill="#1C64F2"/>
<path d="M61.5027 17.1404C61.6872 16.2441 61.6872 15.3214 61.5027 14.4251H60.1319C60.3164 13.5288 60.3164 12.6325 60.1319 11.7098H58.8665C58.9719 11.2616 59.0246 10.8135 59.0246 10.3653C59.0246 9.91718 58.9719 9.46903 58.8665 9.02087H60.1319C60.3164 8.12456 60.3164 7.20189 60.1319 6.30558H61.5027C61.6872 5.40927 61.6872 4.4866 61.5027 3.59029H62.689C62.8735 2.69398 62.8735 1.77131 62.689 0.875H59.5255C59.341 1.77131 59.341 2.69398 59.5255 3.59029H58.3392C58.1547 4.4866 58.1547 5.38291 58.3392 6.30558H57.4429C57.2584 7.20189 57.2584 8.0982 57.4429 9.02087H56.573C56.7575 8.12456 56.7575 7.20189 56.573 6.30558H55.6503C55.8348 5.40927 55.8348 4.4866 55.6503 3.59029H54.464C54.6485 2.69398 54.6485 1.77131 54.464 0.875H51.3006C51.116 1.77131 51.116 2.69398 51.3006 3.59029H52.4869C52.3023 4.4866 52.3023 5.40927 52.4869 6.30558H53.8577C53.6732 7.20189 53.6732 8.0982 53.8577 9.02087H55.044C54.9385 9.46903 54.8858 9.91718 54.8858 10.3653C54.8858 10.8135 54.9385 11.2616 55.044 11.7098H53.8577C53.6732 12.6061 53.6732 13.5288 53.8577 14.4251H52.4869C52.3023 15.3214 52.3023 16.2441 52.4869 17.1404H51.3006C51.116 18.0367 51.116 18.9594 51.3006 19.8557H54.464C54.6485 18.9594 54.6485 18.0367 54.464 17.1404H55.6503C55.8348 16.2441 55.8348 15.3478 55.6503 14.4251H56.5466C56.7311 13.5288 56.7311 12.6325 56.5466 11.7098H57.4166C57.232 12.6061 57.232 13.5288 57.4166 14.4251H58.3129C58.1283 15.3214 58.1283 16.2441 58.3129 17.1404H59.4992C59.3146 18.0367 59.3146 18.9594 59.4992 19.8557H62.6626C62.8471 18.9594 62.8471 18.0367 62.6626 17.1404H61.5027Z" fill="#1C64F2"/>
<path d="M18.5851 3.59029H18.8751H21.4586H22.0386C22.2231 2.69398 22.2231 1.77131 22.0386 0.875H21.4586H18.8751H18.5851H18.2688H15.8698H15.4217H12.7064C12.5219 1.77131 12.5219 2.69398 12.7064 3.59029C12.5219 4.4866 12.5219 5.38291 12.7064 6.30558C12.5219 7.20189 12.5219 8.0982 12.7064 9.02087C12.5219 9.91718 12.5219 10.8135 12.7064 11.7362C12.5219 12.6325 12.5219 13.5551 12.7064 14.4514C12.5219 15.3478 12.5219 16.2441 12.7064 17.1667C12.5219 18.063 12.5219 18.9594 12.7064 19.882H15.8698C16.0544 18.9857 16.0544 18.063 15.8698 17.1667C16.0544 16.2704 16.0544 15.3478 15.8698 14.4514C16.0544 13.5551 16.0544 12.6325 15.8698 11.7362H18.2688H18.5851H18.8751H21.4586H22.0386C22.2231 10.8398 22.2231 9.91718 22.0386 9.02087H21.4586H18.8751H18.5851H18.2688H15.8698C16.0544 8.12456 16.0544 7.20189 15.8698 6.30558C16.0544 5.40927 16.0544 4.4866 15.8698 3.59029H18.2688H18.5851Z" fill="#1C64F2"/>
<path d="M51.6695 34.46H51.5904H50.4041H49.5869C49.7714 35.3563 49.7714 36.2526 49.5869 37.1752C49.7714 38.0716 49.7714 38.9679 49.5869 39.8905H50.4041H51.5904H51.6695H53.4093C53.2248 38.9942 53.2248 38.0716 53.4093 37.1752C53.2248 36.2789 53.2248 35.3563 53.4093 34.46H51.6695Z" fill="#1C64F2"/>
<path d="M38.093 34.46H38.014H36.8277H36.0104C36.195 35.3563 36.195 36.2526 36.0104 37.1752C36.195 38.0716 36.195 38.9679 36.0104 39.8905H36.8277H38.014H38.093H39.8329C39.6484 38.9942 39.6484 38.0716 39.8329 37.1752C39.6484 36.2789 39.6484 35.3563 39.8329 34.46H38.093Z" fill="#1C64F2"/>
<path d="M24.3321 37.1494H23.4622C23.6467 38.0457 23.6467 38.942 23.4622 39.8647H22.3022C22.4868 40.761 22.4868 41.6573 22.3022 42.58H22.8822H23.8312H25.4921C25.3075 41.6837 25.3075 40.7874 25.4921 39.8647H24.3321C24.1476 38.9684 24.1476 38.0457 24.3321 37.1494Z" fill="#1C64F2"/>
<path d="M12.9172 37.1489H11.8891C11.7045 36.2526 11.7045 35.3299 11.8891 34.4336H10.1492H9.99102H8.72564H7.75024C7.93478 35.3299 7.93478 36.2262 7.75024 37.1489C7.93478 38.0452 7.93478 38.9415 7.75024 39.8642C7.93478 40.7605 7.93478 41.6568 7.75024 42.5795C7.93478 43.4758 7.93478 44.3984 7.75024 45.2948C7.93478 46.1911 7.93478 47.0874 7.75024 48.01H10.1492H10.4655H11.8891C11.7045 47.1137 11.7045 46.1911 11.8891 45.2948H12.9172C12.7327 44.3984 12.7327 43.4758 12.9172 42.5795C12.7327 41.6832 12.7327 40.7605 12.9172 39.8642C12.7327 38.9679 12.7327 38.0452 12.9172 37.1489Z" fill="#1C64F2"/>
<path d="M0 26.1299V55.8663H75V26.1299H0ZM16.0808 42.5798C16.2654 43.4761 16.2654 44.3988 16.0808 45.2951H15.0527C15.2373 46.1914 15.2373 47.0877 15.0527 48.0104H13.3128C13.4974 48.9067 13.4974 49.803 13.3128 50.7257H10.4657H10.1494H7.75044H7.30229H4.587C4.40246 49.8294 4.40246 48.9067 4.587 48.0104C4.40246 47.1141 4.40246 46.1914 4.587 45.2951C4.40246 44.3988 4.40246 43.4761 4.587 42.5798C4.40246 41.6835 4.40246 40.7608 4.587 39.8645C4.40246 38.9682 4.40246 38.0455 4.587 37.1492C4.40246 36.2529 4.40246 35.3302 4.587 34.4339C4.40246 33.5376 4.40246 32.6149 4.587 31.7186H6.82777H7.75044H8.72583H9.99121H10.1494H11.8893H13.3128C13.4974 32.6149 13.4974 33.5113 13.3128 34.4339H15.0527C15.2373 35.3302 15.2373 36.2265 15.0527 37.1492H16.0808C16.2654 38.0455 16.2654 38.9682 16.0808 39.8645C16.2917 40.7608 16.2917 41.6571 16.0808 42.5798ZM29.4991 50.6729H26.3357C26.1511 49.7766 26.1511 48.8803 26.3357 47.9576C26.1511 47.0613 26.1511 46.165 26.3357 45.2424H26.0721H25.4921H23.8313H22.8822H22.3023H21.4587C21.6432 46.1387 21.6432 47.035 21.4587 47.9576C21.6432 48.854 21.6432 49.7503 21.4587 50.6729H18.2953C18.1107 49.7766 18.1107 48.8803 18.2953 47.9576C18.1107 47.0613 18.1107 46.165 18.2953 45.2424H19.1388C18.9543 44.3461 18.9543 43.4497 19.1388 42.5271C18.9543 41.6308 18.9543 40.7081 19.1388 39.8118H20.2988C20.1142 38.9155 20.1142 37.9928 20.2988 37.0965H21.1687C20.9842 36.2002 20.9842 35.2775 21.1687 34.3812H22.3286C22.1441 33.4849 22.1441 32.5622 22.3286 31.6659H25.4921C25.6766 32.5622 25.6766 33.4585 25.4921 34.3812H26.652C26.8366 35.2775 26.8366 36.1738 26.652 37.0965H27.522C27.7065 37.9928 27.7065 38.9155 27.522 39.8118H28.6819C28.8664 40.7081 28.8664 41.6044 28.6819 42.5271C28.8664 43.4234 28.8664 44.3197 28.6819 45.2424H29.5255C29.71 46.1387 29.71 47.035 29.5255 47.9576C29.6837 48.8803 29.6837 49.7766 29.4991 50.6729ZM43.0229 39.8645H41.2039C41.3884 40.7608 41.3884 41.6571 41.2039 42.5798H40.0176H38.0931H38.0141H36.8278H36.0105C36.1951 43.4761 36.1951 44.3988 36.0105 45.2951C36.1951 46.1914 36.1951 47.0877 36.0105 48.0104C36.1951 48.9067 36.1951 49.803 36.0105 50.7257H32.8471C32.6626 49.8294 32.6626 48.9067 32.8471 48.0104C32.6626 47.1141 32.6626 46.1914 32.8471 45.2951C32.6626 44.3988 32.6626 43.4761 32.8471 42.5798C32.6626 41.6835 32.6626 40.7608 32.8471 39.8645C32.6626 38.9682 32.6626 38.0455 32.8471 37.1492C32.6626 36.2529 32.6626 35.3302 32.8471 34.4339C32.6626 33.5376 32.6626 32.6149 32.8471 31.7186H34.9033H36.0105H36.8278H38.0141H38.0931H40.0176H41.2039C41.3884 32.6149 41.3884 33.5376 41.2039 34.4339H43.0229C43.2074 35.3302 43.2074 36.2265 43.0229 37.1492C43.2074 38.0455 43.2074 38.9682 43.0229 39.8645ZM56.5729 39.8645H54.754C54.9385 40.7608 54.9385 41.6571 54.754 42.5798H53.5677H51.6432H51.5641H50.3779H49.587C49.7715 43.4761 49.7715 44.3988 49.587 45.2951C49.7715 46.1914 49.7715 47.0877 49.587 48.0104C49.7715 48.9067 49.7715 49.803 49.587 50.7257H46.4235C46.239 49.8294 46.239 48.9067 46.4235 48.0104C46.239 47.1141 46.239 46.1914 46.4235 45.2951C46.239 44.3988 46.239 43.4761 46.4235 42.5798C46.239 41.6835 46.239 40.7608 46.4235 39.8645C46.239 38.9682 46.239 38.0455 46.4235 37.1492C46.239 36.2529 46.239 35.3302 46.4235 34.4339C46.239 33.5376 46.239 32.6149 46.4235 31.7186H48.4798H49.587H50.4042H51.5905H51.6696H53.594H54.7803C54.9649 32.6149 54.9649 33.5376 54.7803 34.4339H56.5993C56.7838 35.3302 56.7838 36.2265 56.5993 37.1492C56.7575 38.0455 56.7575 38.9682 56.5729 39.8645ZM66.7487 34.4339H65.2197H64.007H62.188C62.3726 35.3302 62.3726 36.2265 62.188 37.1492C62.3726 38.0455 62.3726 38.9418 62.188 39.8645H63.1634H65.2197H66.3269H68.3831C68.5677 40.7608 68.5677 41.6835 68.3831 42.5798H70.2021C70.3866 43.4761 70.3866 44.3724 70.2021 45.2951C70.3866 46.1914 70.3866 47.0877 70.2021 48.0104H68.3831C68.5677 48.9067 68.5677 49.803 68.3831 50.7257H65.2197H64.007H62.478H60.8436C60.6591 49.8294 60.6591 48.9067 60.8436 48.0104H59.0246C58.8401 47.1141 58.8401 46.1914 59.0246 45.2951H62.188C62.3726 46.1914 62.3726 47.1141 62.188 48.0104H62.478H64.007H65.6415H67.0387C66.8541 47.1141 66.8541 46.1914 67.0387 45.2951C66.8541 44.3988 66.8541 43.4761 67.0387 42.5798H66.3269H65.2197H64.007H60.8436C60.6591 41.6835 60.6591 40.7608 60.8436 39.8645H59.0246C58.8401 38.9682 58.8401 38.0455 59.0246 37.1492C58.8401 36.2529 58.8401 35.3302 59.0246 34.4339H60.8436C60.6591 33.5376 60.6591 32.6149 60.8436 31.7186H63.5852H65.2197H66.7487H68.3831C68.5677 32.6149 68.5677 33.5376 68.3831 34.4339H70.2021C70.3866 35.3302 70.3866 36.2529 70.2021 37.1492H67.0387C66.8541 36.2529 66.8541 35.3302 67.0387 34.4339H66.7487Z" fill="#1C64F2"/>
</svg>
