<svg width="138" height="22" viewBox="0 0 138 22" fill="none" xmlns="http://www.w3.org/2000/svg">
<rect y="13.459" width="4.36984" height="8.26231" fill="white"/>
<rect y="4.43457" width="4.36984" height="5.38091" fill="white"/>
<rect x="12.4873" y="9.81543" width="3.6437" height="8.11614" transform="rotate(90 12.4873 9.81543)" fill="white"/>
<rect x="13.3271" y="0.791016" width="3.6437" height="8.95758" transform="rotate(90 13.3271 0.791016)" fill="white"/>
<path d="M23.5918 10.5436C23.0627 10.4718 22.5963 10.436 22.1928 10.436C20.7221 10.436 19.758 10.9337 19.3007 11.9291V21.453H15.4131V6.89813H19.0854L19.193 8.63341C19.9732 7.2972 21.0539 6.62909 22.4349 6.62909C22.8654 6.62909 23.2689 6.68739 23.6456 6.80397L23.5918 10.5436Z" fill="white"/>
<path d="M33.5058 21.453C33.3264 21.1032 33.1964 20.6683 33.1156 20.1481C32.174 21.1974 30.9499 21.722 29.4433 21.722C28.0174 21.722 26.8337 21.3095 25.892 20.4844C24.9594 19.6594 24.493 18.6191 24.493 17.3636C24.493 15.8212 25.0625 14.6374 26.2014 13.8124C27.3493 12.9873 29.0039 12.5703 31.1651 12.5613H32.9542V11.7273C32.9542 11.0547 32.7794 10.5167 32.4296 10.1131C32.0888 9.70955 31.5463 9.50778 30.8019 9.50778C30.1473 9.50778 29.6316 9.66472 29.255 9.97859C28.8873 10.2925 28.7035 10.7229 28.7035 11.27H24.8159C24.8159 10.427 25.076 9.64678 25.5961 8.92935C26.1162 8.21192 26.8516 7.65143 27.8022 7.24788C28.7528 6.83535 29.82 6.62909 31.0037 6.62909C32.7973 6.62909 34.2187 7.08197 35.2679 7.98772C36.3261 8.88451 36.8552 10.149 36.8552 11.7811V18.09C36.8642 19.4711 37.057 20.5158 37.4337 21.2243V21.453H33.5058ZM30.2908 18.7492C30.8647 18.7492 31.3938 18.6236 31.8781 18.3725C32.3624 18.1124 32.7211 17.7672 32.9542 17.3367V14.8347H31.5014C29.5554 14.8347 28.5196 15.5073 28.3941 16.8525L28.3806 17.0811C28.3806 17.5654 28.551 17.9645 28.8918 18.2783C29.2326 18.5922 29.6989 18.7492 30.2908 18.7492Z" fill="white"/>
<path d="M43.487 6.89813L43.6081 8.5258C44.6394 7.26133 46.0339 6.62909 47.7916 6.62909C49.6658 6.62909 50.9527 7.36894 51.6522 8.84864C52.6746 7.36894 54.1318 6.62909 56.0241 6.62909C57.6024 6.62909 58.7772 7.09094 59.5484 8.01463C60.3197 8.92935 60.7053 10.3104 60.7053 12.1578V21.453H56.8043V12.1712C56.8043 11.3462 56.6428 10.7453 56.32 10.3687C55.9972 9.98307 55.4277 9.79027 54.6116 9.79027C53.4458 9.79027 52.6387 10.3463 52.1903 11.4583L52.2037 21.453H48.3162V12.1847C48.3162 11.3417 48.1503 10.7319 47.8185 10.3552C47.4867 9.97859 46.9217 9.79027 46.1235 9.79027C45.0205 9.79027 44.2223 10.2476 43.7291 11.1623V21.453H39.8415V6.89813H43.487Z" fill="white"/>
<path d="M70.404 21.722C68.2697 21.722 66.5299 21.0674 65.1847 19.758C63.8485 18.4487 63.1804 16.7045 63.1804 14.5253V14.1486C63.1804 12.6869 63.4629 11.3821 64.0279 10.2342C64.5929 9.07732 65.391 8.1895 66.4223 7.57072C67.4626 6.94297 68.6463 6.62909 69.9736 6.62909C71.9644 6.62909 73.5293 7.25684 74.6682 8.51235C75.8161 9.76785 76.3901 11.548 76.3901 13.8527V15.44H67.1218C67.2473 16.3906 67.624 17.1529 68.2517 17.7268C68.8885 18.3008 69.6911 18.5877 70.6596 18.5877C72.1572 18.5877 73.3275 18.0452 74.1705 16.9601L76.0807 19.0989C75.4978 19.924 74.7086 20.5696 73.7132 21.036C72.7177 21.4933 71.6147 21.722 70.404 21.722ZM69.9601 9.77681C69.1889 9.77681 68.5611 10.0369 68.0769 10.557C67.6016 11.0772 67.2967 11.8215 67.1621 12.79H72.5698V12.4806C72.5518 11.6197 72.3187 10.9561 71.8703 10.4898C71.4219 10.0145 70.7852 9.77681 69.9601 9.77681Z" fill="white"/>
<path d="M91.2678 16.1664L93.1779 6.89813H96.931L93.2183 21.453H89.9629L87.2053 12.2923L84.4477 21.453H81.2058L77.4931 6.89813H81.2462L83.1429 16.153L85.8063 6.89813H88.6178L91.2678 16.1664Z" fill="white"/>
<path d="M98.2627 14.041C98.2627 12.5972 98.5407 11.3103 99.0967 10.1804C99.6527 9.05042 100.451 8.17605 101.491 7.55727C102.54 6.93849 103.756 6.62909 105.137 6.62909C107.101 6.62909 108.701 7.22994 109.939 8.43163C111.185 9.63333 111.88 11.2655 112.024 13.3281L112.051 14.3235C112.051 16.5565 111.428 18.3501 110.181 19.7042C108.934 21.0494 107.262 21.722 105.163 21.722C103.065 21.722 101.388 21.0494 100.132 19.7042C98.886 18.3591 98.2627 16.5296 98.2627 14.2159V14.041ZM102.15 14.3235C102.15 15.7046 102.41 16.7628 102.93 17.4981C103.451 18.2245 104.195 18.5877 105.163 18.5877C106.105 18.5877 106.84 18.229 107.37 17.5116C107.899 16.7852 108.163 15.6283 108.163 14.041C108.163 12.6869 107.899 11.6376 107.37 10.8933C106.84 10.149 106.096 9.77681 105.137 9.77681C104.186 9.77681 103.451 10.149 102.93 10.8933C102.41 11.6287 102.15 12.7721 102.15 14.3235Z" fill="white"/>
<path d="M122.624 10.5436C122.095 10.4718 121.628 10.436 121.225 10.436C119.754 10.436 118.79 10.9337 118.333 11.9291V21.453H114.445V6.89813H118.118L118.225 8.63341C119.005 7.2972 120.086 6.62909 121.467 6.62909C121.897 6.62909 122.301 6.68739 122.678 6.80397L122.624 10.5436Z" fill="white"/>
<path d="M129.794 15.6149L128.395 17.0139V21.453H124.507V0.791016H128.395V12.2385L129.148 11.27L132.874 6.89813H137.542L132.282 12.9649L137.999 21.453H133.533L129.794 15.6149Z" fill="white"/>
</svg>
