<svg width="124" height="43" viewBox="0 0 124 43" fill="none" xmlns="http://www.w3.org/2000/svg">
<path opacity="0.5" d="M5.13087 6.858C10.301 -1.08709 16.4523 -0.855663 18.8916 1.25753C20.8006 2.67209 19.9782 9.0671 12.9917 9.45433C4.52461 9.92362 3.87862 15.1192 5.13087 18.7309C8.17264 30.6038 16.6105 26.3475 25.3538 30.0064C34.0971 33.6653 23.7575 47.629 11.2128 39.5644C-1.33184 31.4998 -1.33184 16.7894 5.13087 6.858Z" fill="white"/>
<path opacity="0.5" d="M10.3462 1.77301C11.6114 1.55691 13.9377 1.66216 13.1209 3.81193C12.1281 6.42496 4.7254 7.21996 2.8421 11.1389C2.76052 11.3242 2.71127 11.4421 2.69681 11.4768L2.69531 11.4804C2.73961 11.364 2.78863 11.2502 2.8421 11.1389C3.53086 9.57512 6.52442 3.21915 10.3462 1.77301Z" fill="white"/>
<ellipse opacity="0.5" cx="10.9726" cy="16.3134" rx="1.88664" ry="1.85298" fill="white"/>
<ellipse opacity="0.5" cx="28.1529" cy="17.2651" rx="3.6461" ry="3.58105" fill="white"/>
<ellipse opacity="0.5" cx="22.4351" cy="5.32303" rx="1.73882" ry="1.70779" fill="white"/>
<path opacity="0.5" d="M9.9109 7.30461C7.37812 6.00982 4.52021 8.64503 3.43623 10.1642C-1.94154 19.833 2.49337 30.1171 3.49332 31.5094C5.05453 33.6832 6.92291 30.2049 6.51118 28.3044C5.89054 25.4396 1.99812 24.7699 2.36044 19.3724C2.81198 12.6458 6.74528 12.4583 7.56926 11.7768C8.39324 11.0953 13.0769 8.92311 9.9109 7.30461Z" fill="white"/>
<path opacity="0.5" d="M30.8271 28.3638C27.9441 40.1892 13.3538 38.9065 7.94141 37.0942C28.6509 54.8288 51.4862 23.9555 41.78 16.9006C39.1298 14.9743 33.89 15.8003 30.8271 28.3638Z" fill="white"/>
<path fill-rule="evenodd" clip-rule="evenodd" d="M56.2598 17.8225C56.2598 12.1242 60.8791 7.50488 66.5774 7.50488H77.2879C77.2879 10.2558 75.0579 12.4858 72.307 12.4858H66.5774C63.63 12.4858 61.2407 14.8751 61.2407 17.8225V24.2115C61.2407 27.1588 63.63 29.5482 66.5774 29.5482H72.179V23.9456H68.5359V18.9647H77.1599V33.5291C77.1599 34.0814 76.7122 34.5291 76.1599 34.5291H66.5774C60.8791 34.5291 56.2598 29.9097 56.2598 24.2115V17.8225Z" fill="white"/>
<path fill-rule="evenodd" clip-rule="evenodd" d="M81.6467 15.6956C81.6467 11.4568 85.083 8.02051 89.3218 8.02051H99.0521C99.0521 10.7714 96.8221 13.0014 94.0712 13.0014H89.3218C87.8339 13.0014 86.6276 14.2077 86.6276 15.6956C86.6276 16.4951 87.0933 17.2214 87.8198 17.5551L94.8812 20.7979C97.3193 21.9175 98.8819 24.3547 98.8819 27.0377C98.8819 31.1751 95.5279 34.5291 91.3905 34.5291H81.042C81.042 31.7782 83.272 29.5482 86.0229 29.5482H91.3905C92.777 29.5482 93.901 28.4242 93.901 27.0377C93.901 26.301 93.4719 25.6317 92.8025 25.3243L85.7411 22.0815C83.246 20.9356 81.6467 18.4414 81.6467 15.6956Z" fill="white"/>
<path fill-rule="evenodd" clip-rule="evenodd" d="M113.674 7.50488H103.025V34.2182H104.885V34.1465H108.006V12.4858H113.674C115.049 12.4858 116.164 13.6008 116.164 14.9762V15.2382C116.164 15.9756 115.838 16.675 115.272 17.1482L112.439 19.5189C110.918 20.7918 110.589 23.0014 111.675 24.6616L117.875 34.1465H123.825L116.363 22.7302L118.468 20.9682C120.165 19.5486 121.145 17.4503 121.145 15.2382V14.9762C121.145 10.8499 117.8 7.50488 113.674 7.50488Z" fill="white"/>
</svg>
