<svg width="187" height="41" viewBox="0 0 187 41" fill="none" xmlns="http://www.w3.org/2000/svg">
<path fill-rule="evenodd" clip-rule="evenodd" d="M10.4146 17.6055L23.3182 30.7407L36.084 17.7458L46.5509 28.4005L34.3897 40.78L31.2612 37.6802L40.3772 28.4005L36.084 24.0302L23.3182 37.0252L10.4146 23.89L6.17365 28.2071L15.4283 37.6279L12.2998 40.7277L0 28.2071L10.4146 17.6055Z" fill="#1C64F2"/>
<path fill-rule="evenodd" clip-rule="evenodd" d="M36.1364 23.8892L23.2328 10.7541L10.4671 23.7491L0.000160217 13.0942L12.1613 0.714844L15.2898 3.81465L6.1738 13.0942L10.4671 17.4646L23.2328 4.46965L36.1364 17.6048L40.3774 13.2876L31.1227 3.86691L34.2512 0.7671L46.551 13.2876L36.1364 23.8892Z" fill="#1C64F2"/>
<path fill-rule="evenodd" clip-rule="evenodd" d="M21.3066 40.471V32.1953H25.5203V40.471H21.3066Z" fill="#1C64F2"/>
<path fill-rule="evenodd" clip-rule="evenodd" d="M21.3066 9.2991V1.02344H25.5203V9.2991H21.3066Z" fill="#1C64F2"/>
<path d="M60.7498 10.4854H56.551V31.6259H60.7498V10.4854Z" fill="#1C64F2"/>
<path d="M82.048 16.0635C80.1394 16.0635 78.319 16.8857 77.4088 18.6768C76.4692 16.8857 74.7075 16.0635 72.6521 16.0635C70.8023 16.0635 69.393 16.7682 68.6589 18.0308L68.2185 16.3572H64.4014V31.6254H68.5121V23.081C68.5121 20.8202 69.6866 19.7338 71.4189 19.7338C73.0632 19.7338 74.179 20.7615 74.179 23.2572V31.6254H78.1428V23.1691C78.2015 20.7908 79.4347 19.7338 81.0496 19.7338C82.7233 19.7338 83.8097 20.7615 83.8097 23.0517V31.6547H87.9497V22.2296C87.9497 18.0014 85.1016 16.0635 82.048 16.0635Z" fill="#1C64F2"/>
<path d="M108.858 16.0635C106.949 16.0635 105.129 16.8857 104.219 18.6768C103.279 16.8857 101.517 16.0635 99.4621 16.0635C97.6123 16.0635 96.2029 16.7682 95.4689 18.0308L95.0284 16.3572H91.2114V31.6254H95.3221V23.081C95.3221 20.8202 96.4965 19.7338 98.2289 19.7338C99.8732 19.7338 100.989 20.7615 100.989 23.2572V31.6254H104.953V23.1691C105.011 20.7908 106.245 19.7338 107.86 19.7338C109.533 19.7338 110.62 20.7615 110.62 23.0517V31.6547H114.76V22.2296C114.76 18.0014 111.912 16.0635 108.858 16.0635Z" fill="#1C64F2"/>
<path d="M128.034 16.3574V24.7255C128.034 26.9864 126.977 28.337 124.951 28.3664C123.013 28.4251 121.78 27.28 121.78 24.9017V16.3574H117.875V25.4302C117.875 29.3353 120.135 31.9192 124.041 31.9192C125.861 31.9192 127.182 31.097 127.975 29.9519L128.181 31.6256H131.939V16.3574H128.034Z" fill="#1C64F2"/>
<path d="M144.002 16.0635C141.712 16.0635 140.185 16.915 139.392 18.1776L139.157 16.3572H135.34V31.6254H139.451V23.5508C139.451 21.0844 140.625 19.587 142.798 19.587C144.795 19.587 145.999 20.8789 145.999 23.404V31.6254H150.139V22.5525C150.139 18.6474 147.907 16.0635 144.002 16.0635Z" fill="#1C64F2"/>
<path d="M168.116 23.7564C168.116 19.0878 165.091 16.0635 160.54 16.0635C155.989 16.0635 152.936 19.2346 152.936 23.9913C152.936 28.7773 155.989 31.9483 160.57 31.9483C164.416 31.9483 167.323 29.8049 167.998 26.6338H163.858C163.389 27.9551 162.185 28.6304 160.687 28.6304C158.72 28.6304 157.134 27.3679 157.076 25.107H168.116V23.7564ZM160.54 19.264C162.331 19.264 163.829 20.2917 164.005 22.4057H157.105C157.281 20.2917 158.779 19.264 160.54 19.264Z" fill="#1C64F2"/>
<path d="M169.721 16.3579V19.94H172.07V31.6261H176.21V19.94H179.704V16.3579H176.21V14.8017C176.21 13.7153 176.503 12.8932 178.177 12.8932H179.704V9.5459H177.267C173.42 9.5459 172.07 11.4251 172.07 14.3906V16.3579H169.721Z" fill="#1C64F2"/>
<path d="M182.419 14.0089H186.588L186.647 9.5459H182.478L182.419 14.0089ZM182.478 31.6261H186.588V16.3579H182.478V31.6261Z" fill="#1C64F2"/>
</svg>
