<svg width="79" height="55" viewBox="0 0 79 55" fill="none" xmlns="http://www.w3.org/2000/svg">
<path fill-rule="evenodd" clip-rule="evenodd" d="M0.739683 24.4312C1.1482 24.4312 1.47937 24.7623 1.47937 25.1708V49.3423H12.6375C13.046 49.3423 13.3772 49.6734 13.3772 50.0819C13.3772 50.4904 13.046 50.8216 12.6375 50.8216H0.986244C0.441556 50.8216 0 50.3801 0 49.8354V25.1708C0 24.7623 0.331167 24.4312 0.739683 24.4312Z" fill="white"/>
<path fill-rule="evenodd" clip-rule="evenodd" d="M52.3505 10.4795C52.6229 10.4795 52.8437 10.7003 52.8437 10.9726V13.2943H56.7959C57.0682 13.2943 57.289 13.515 57.289 13.7874C57.289 14.0597 57.0682 14.2805 56.7959 14.2805H52.5971C52.1886 14.2805 51.8574 13.9493 51.8574 13.5408V10.9726C51.8574 10.7003 52.0782 10.4795 52.3505 10.4795Z" fill="white"/>
<path fill-rule="evenodd" clip-rule="evenodd" d="M50.0488 8.91113H56.6634C56.9357 8.91113 57.1565 9.13191 57.1565 9.40426C57.1565 9.6766 56.9357 9.89738 56.6634 9.89738H51.0351V15.1039H58.4973C58.7696 15.1039 58.9904 15.3247 58.9904 15.5971C58.9904 15.8694 58.7696 16.0902 58.4973 16.0902H50.0488V8.91113Z" fill="white"/>
<path fill-rule="evenodd" clip-rule="evenodd" d="M34.8701 0.708984C35.1424 0.708984 35.3632 0.929763 35.3632 1.20211V7.9708C35.3632 8.24314 35.1424 8.46392 34.8701 8.46392C34.5977 8.46392 34.377 8.24314 34.377 7.9708V1.20211C34.377 0.929763 34.5977 0.708984 34.8701 0.708984Z" fill="white"/>
<path fill-rule="evenodd" clip-rule="evenodd" d="M36.7128 0.646484C36.9852 0.646484 37.206 0.867263 37.206 1.13961V7.12545H42.6041C43.0126 7.12545 43.3438 7.45662 43.3438 7.86514V14.3235C43.3438 14.421 43.3155 14.512 43.2666 14.5885C43.3155 14.665 43.3438 14.7559 43.3438 14.8535V15.7661C43.3438 16.0385 43.123 16.2593 42.8506 16.2593C42.5783 16.2593 42.3575 16.0385 42.3575 15.7661V14.8535C42.3575 14.7559 42.3858 14.665 42.4347 14.5885C42.3858 14.512 42.3575 14.421 42.3575 14.3235V8.1117H36.9594C36.5509 8.1117 36.2197 7.78053 36.2197 7.37202V1.13961C36.2197 0.867263 36.4405 0.646484 36.7128 0.646484Z" fill="white"/>
<path fill-rule="evenodd" clip-rule="evenodd" d="M34.4023 9.72699C34.4023 9.31847 34.7335 8.9873 35.142 8.9873H41.4903C41.7626 8.9873 41.9834 9.20808 41.9834 9.48043C41.9834 9.75277 41.7626 9.97355 41.4903 9.97355H35.3886V15.722C35.3886 15.9943 35.1678 16.2151 34.8955 16.2151C34.6231 16.2151 34.4023 15.9943 34.4023 15.722V9.72699Z" fill="white"/>
<path fill-rule="evenodd" clip-rule="evenodd" d="M36.7197 10.8052C36.992 10.8052 37.2128 11.026 37.2128 11.2983L37.2128 15.7065C37.2128 15.9788 36.992 16.1996 36.7197 16.1996C36.4473 16.1996 36.2266 15.9788 36.2266 15.7065L36.2266 11.2983C36.2266 11.026 36.4473 10.8052 36.7197 10.8052Z" fill="white"/>
<path fill-rule="evenodd" clip-rule="evenodd" d="M4.60199 28.7656C5.0105 28.7656 5.34167 29.0968 5.34167 29.5053V46.7224C5.34167 47.1309 5.0105 47.4621 4.60199 47.4621C4.19347 47.4621 3.8623 47.1309 3.8623 46.7224V29.5053C3.8623 29.0968 4.19347 28.7656 4.60199 28.7656Z" fill="white"/>
<path fill-rule="evenodd" clip-rule="evenodd" d="M32.5148 33.7654C32.9017 33.8966 33.109 34.3165 32.9779 34.7034L27.206 51.732C27.0749 52.1189 26.655 52.3262 26.2681 52.1951C25.8812 52.0639 25.6738 51.644 25.805 51.2571L31.5768 34.2285C31.708 33.8416 32.1279 33.6343 32.5148 33.7654Z" fill="white"/>
<path fill-rule="evenodd" clip-rule="evenodd" d="M36.4748 27.8603C36.8616 27.7289 37.2817 27.9361 37.413 28.3229L41.6917 40.9283C41.8231 41.3151 41.6159 41.7352 41.2291 41.8665C40.8422 41.9978 40.4222 41.7906 40.2909 41.4038L36.0121 28.7984C35.8808 28.4116 36.0879 27.9916 36.4748 27.8603Z" fill="white"/>
<path fill-rule="evenodd" clip-rule="evenodd" d="M32.3609 27.6285L37.004 41.5937C37.1329 41.9814 37.5516 42.1912 37.9393 42.0623C38.3269 41.9334 38.5367 41.5146 38.4078 41.127L33.3243 25.8372C33.0309 24.9546 31.7909 24.9315 31.4648 25.8026L21.0891 53.5183C20.9459 53.9009 21.14 54.3272 21.5225 54.4704C21.9051 54.6136 22.3314 54.4196 22.4746 54.037L32.3609 27.6285Z" fill="white"/>
<path fill-rule="evenodd" clip-rule="evenodd" d="M15.8145 53.6025C15.8145 54.011 15.4833 54.3422 15.0748 54.3422H4.79027C4.38175 54.3422 4.05058 54.011 4.05058 53.6025C4.05058 53.194 4.38175 52.8628 4.79027 52.8628H15.0748C15.4833 52.8628 15.8145 53.194 15.8145 53.6025Z" fill="white"/>
<path fill-rule="evenodd" clip-rule="evenodd" d="M45.6883 54.4851C45.3047 54.6255 44.8798 54.4284 44.7394 54.0448L41.4589 45.0868H31.9738C31.5653 45.0868 31.2341 44.7556 31.2341 44.3471C31.2341 43.9386 31.5653 43.6074 31.9738 43.6074H41.6312C42.1486 43.6074 42.6109 43.9305 42.7888 44.4163L46.1285 53.5361C46.269 53.9197 46.0719 54.3446 45.6883 54.4851Z" fill="white"/>
<path fill-rule="evenodd" clip-rule="evenodd" d="M41.5193 52.4291C41.1328 52.5615 40.7122 52.3554 40.5798 51.9689L39.4653 48.7137H30.9744C30.5659 48.7137 30.2347 48.3826 30.2347 47.9741C30.2347 47.5655 30.5659 47.2344 30.9744 47.2344H39.6415C40.1684 47.2344 40.6371 47.5693 40.8078 48.0678L41.9794 51.4897C42.1118 51.8762 41.9057 52.2968 41.5193 52.4291Z" fill="white"/>
<path fill-rule="evenodd" clip-rule="evenodd" d="M42.8867 0.745117C43.159 0.745117 43.3798 0.965895 43.3798 1.23824V5.95198C43.3798 6.22432 43.159 6.4451 42.8867 6.4451C42.6143 6.4451 42.3936 6.22432 42.3936 5.95198V1.23824C42.3936 0.965895 42.6143 0.745117 42.8867 0.745117Z" fill="white"/>
<path fill-rule="evenodd" clip-rule="evenodd" d="M44.7295 2.18359C45.0018 2.18359 45.2226 2.40437 45.2226 2.67672V15.7462C45.2226 16.0185 45.0018 16.2393 44.7295 16.2393C44.4571 16.2393 44.2363 16.0185 44.2363 15.7462V2.67672C44.2363 2.40437 44.4571 2.18359 44.7295 2.18359Z" fill="white"/>
<path fill-rule="evenodd" clip-rule="evenodd" d="M26.3457 3.94474H30.1319C30.4043 3.94474 30.625 3.72396 30.625 3.45162C30.625 3.17927 30.4043 2.9585 30.1319 2.9585H26.0992C25.6907 2.9585 25.3595 3.28966 25.3595 3.69818V6.78948C25.3595 7.06182 25.5803 7.2826 25.8526 7.2826C26.125 7.2826 26.3457 7.06182 26.3457 6.78948V3.94474ZM23.8271 9.71979C24.0995 9.71979 24.3202 9.94057 24.3202 10.2129V15.8045C24.3202 16.0769 24.0995 16.2977 23.8271 16.2977C23.5548 16.2977 23.334 16.0769 23.334 15.8045V10.2129C23.334 9.94057 23.5548 9.71979 23.8271 9.71979Z" fill="white"/>
<path fill-rule="evenodd" clip-rule="evenodd" d="M24.9736 1.44039C24.9736 1.16804 25.1944 0.947266 25.4668 0.947266H28.4361C28.7085 0.947266 28.9292 1.16804 28.9292 1.44039C28.9292 1.71273 28.7085 1.93351 28.4361 1.93351H25.4668C25.1944 1.93351 24.9736 1.71273 24.9736 1.44039Z" fill="white"/>
<path fill-rule="evenodd" clip-rule="evenodd" d="M29.21 1.47896C29.21 1.20662 29.4307 0.98584 29.7031 0.98584L29.7229 0.98584C29.9952 0.98584 30.216 1.20662 30.216 1.47896C30.216 1.75131 29.9952 1.97208 29.7229 1.97208L29.7031 1.97208C29.4307 1.97208 29.21 1.75131 29.21 1.47896Z" fill="white"/>
<path fill-rule="evenodd" clip-rule="evenodd" d="M14.3359 50.0815C14.3359 49.673 14.6671 49.3418 15.0756 49.3418L15.0954 49.3418C15.5039 49.3418 15.8351 49.673 15.8351 50.0815C15.8351 50.49 15.5039 50.8212 15.0954 50.8212L15.0756 50.8212C14.6671 50.8212 14.3359 50.49 14.3359 50.0815Z" fill="white"/>
<path fill-rule="evenodd" clip-rule="evenodd" d="M24.9551 53.7773C24.9551 53.3688 25.2862 53.0376 25.6948 53.0376L25.7146 53.0376C26.1231 53.0376 26.4542 53.3688 26.4542 53.7773C26.4542 54.1858 26.1231 54.517 25.7146 54.517L25.6948 54.517C25.2862 54.517 24.9551 54.1858 24.9551 53.7773Z" fill="white"/>
<path fill-rule="evenodd" clip-rule="evenodd" d="M61.1338 26.1982C61.1338 25.7897 61.465 25.4585 61.8735 25.4585L61.8933 25.4585C62.3018 25.4585 62.633 25.7897 62.633 26.1982C62.633 26.6067 62.3018 26.9379 61.8933 26.9379L61.8735 26.9379C61.465 26.9379 61.1338 26.6067 61.1338 26.1982Z" fill="white"/>
<path fill-rule="evenodd" clip-rule="evenodd" d="M57.4414 13.7871C57.4414 13.5147 57.6622 13.2939 57.9345 13.2939H58.1426C58.4149 13.2939 58.6357 13.5147 58.6357 13.7871C58.6357 14.0594 58.4149 14.2802 58.1426 14.2802H57.9345C57.6622 14.2802 57.4414 14.0594 57.4414 13.7871Z" fill="white"/>
<path fill-rule="evenodd" clip-rule="evenodd" d="M18.8223 3.36812C18.8223 3.09578 19.043 2.875 19.3154 2.875H22.1876C22.46 2.875 22.6808 3.09578 22.6808 3.36812C22.6808 3.64047 22.46 3.86124 22.1876 3.86124H19.3154C19.043 3.86124 18.8223 3.64047 18.8223 3.36812Z" fill="white"/>
<path fill-rule="evenodd" clip-rule="evenodd" d="M18.9082 1.5566C18.9082 1.28425 19.129 1.06348 19.4013 1.06348H23.5124C23.921 1.06348 24.2521 1.39464 24.2521 1.80316V8.00114H25.6043C26.0128 8.00114 26.344 8.33231 26.344 8.74083V14.2466C26.344 14.5189 26.1232 14.7397 25.8509 14.7397C25.5785 14.7397 25.3577 14.5189 25.3577 14.2466V8.98739H24.0056C23.597 8.98739 23.2659 8.65622 23.2659 8.2477V2.04972H19.4013C19.129 2.04972 18.9082 1.82894 18.9082 1.5566Z" fill="white"/>
<path fill-rule="evenodd" clip-rule="evenodd" d="M50.5039 0.495117C50.7762 0.495117 50.997 0.715895 50.997 0.988239V7.01568H56.6028C56.8752 7.01568 57.096 7.23646 57.096 7.5088C57.096 7.78115 56.8752 8.00193 56.6028 8.00193H50.0107V0.988239C50.0107 0.715895 50.2315 0.495117 50.5039 0.495117Z" fill="white"/>
<path fill-rule="evenodd" clip-rule="evenodd" d="M52.8437 3.82413H58.5195C58.7918 3.82413 59.0126 3.60336 59.0126 3.33101C59.0126 3.05867 58.7918 2.83789 58.5195 2.83789H52.5971C52.1886 2.83789 51.8574 3.16906 51.8574 3.57757V6.06076C51.8574 6.3331 52.0782 6.55388 52.3505 6.55388C52.6229 6.55388 52.8437 6.3331 52.8437 6.06076V3.82413Z" fill="white"/>
<path fill-rule="evenodd" clip-rule="evenodd" d="M51.4521 1.44869C51.4521 1.17634 51.6729 0.955566 51.9453 0.955566H58.5191C58.7915 0.955566 59.0122 1.17634 59.0122 1.44869C59.0122 1.72103 58.7915 1.94181 58.5191 1.94181H51.9453C51.6729 1.94181 51.4521 1.72103 51.4521 1.44869Z" fill="white"/>
<path fill-rule="evenodd" clip-rule="evenodd" d="M65.9812 26.4464C66.5301 26.4831 67.2021 26.5566 67.8813 26.6839C68.806 26.8573 69.6751 27.1184 70.2696 27.477C70.6194 27.688 71.0741 27.5754 71.2851 27.2256C71.496 26.8758 71.3835 26.4212 71.0337 26.2102C70.2129 25.7151 69.1379 25.4144 68.1539 25.2299C67.156 25.0427 66.1805 24.9625 65.5117 24.9424C64.9461 24.9253 64.5018 25.3831 64.5018 25.9253V28.8032C59.2006 29.2126 55.1016 33.9743 55.1016 39.6788C55.1016 45.6455 59.588 50.583 65.2415 50.583C70.895 50.583 75.3814 45.6455 75.3814 39.6788C75.3814 35.2058 72.8719 31.3307 69.2374 29.6539C68.8664 29.4828 68.427 29.6447 68.2558 30.0157C68.0847 30.3866 68.2467 30.8261 68.6176 30.9972C71.7022 32.4203 73.9021 35.7538 73.9021 39.6788C73.9021 44.9395 69.9712 49.1036 65.2415 49.1036C60.5118 49.1036 56.5809 44.9395 56.5809 39.6788C56.5809 34.5029 60.388 30.3864 65.0149 30.2572C65.5353 30.2427 65.9812 29.8203 65.9812 29.2678V26.4464Z" fill="white"/>
<path fill-rule="evenodd" clip-rule="evenodd" d="M69.6753 26.4163C69.8464 26.0454 70.2859 25.8834 70.6568 26.0545C75.5838 28.3276 78.9993 33.5894 78.9993 39.678C78.9993 47.8044 72.8937 54.4927 65.2428 54.4927C57.5919 54.4927 51.4863 47.8044 51.4863 39.678C51.4863 33.9693 54.4881 28.9899 58.9217 26.5161C59.2785 26.3171 59.729 26.4449 59.9281 26.8017C60.1271 27.1584 59.9993 27.609 59.6425 27.808C55.6946 30.0108 52.9657 34.4853 52.9657 39.678C52.9657 47.0984 58.5157 53.0133 65.2428 53.0133C71.9699 53.0133 77.5199 47.0984 77.5199 39.678C77.5199 34.1375 74.4141 29.4172 70.0371 27.3978C69.6661 27.2267 69.5041 26.7873 69.6753 26.4163Z" fill="white"/>
</svg>
