<svg width="100" height="67" viewBox="0 0 100 67" fill="none" xmlns="http://www.w3.org/2000/svg">
<path d="M58.1946 6.17084L56.775 6.7615C56.4042 6.91577 55.9793 6.73335 55.8357 6.3583C55.7183 6.05157 55.8258 5.70432 56.0959 5.5175L62.1285 1.34527C62.7918 0.886543 63.6974 1.36128 63.6974 2.16773V25.2144C63.6974 26.319 64.5928 27.2144 65.6974 27.2144H66.5993C67.1148 27.2144 67.5327 27.6323 67.5327 28.1478C67.5327 28.6633 67.1148 29.0812 66.5993 29.0812H57.4217C56.9062 29.0812 56.4883 28.6633 56.4883 28.1478C56.4883 27.6323 56.9062 27.2144 57.4217 27.2144H58.9629C60.0675 27.2144 60.9629 26.319 60.9629 25.2144V8.01738C60.9629 6.59065 59.5118 5.62276 58.1946 6.17084Z" fill="white"/>
<path d="M40.9529 6.17084L42.3725 6.7615C42.7432 6.91577 43.1682 6.73335 43.3117 6.3583C43.4291 6.05157 43.3217 5.70432 43.0515 5.5175L37.0189 1.34527C36.3556 0.886543 35.4501 1.36128 35.4501 2.16773V25.2144C35.4501 26.319 34.5547 27.2144 33.4501 27.2144H32.5481C32.0326 27.2144 31.6147 27.6323 31.6147 28.1478C31.6147 28.6633 32.0326 29.0812 32.5481 29.0812H41.7258C42.2413 29.0812 42.6592 28.6633 42.6592 28.1478C42.6592 27.6323 42.2413 27.2144 41.7258 27.2144H40.1846C39.08 27.2144 38.1846 26.319 38.1846 25.2144V8.01738C38.1846 6.59065 39.6356 5.62276 40.9529 6.17084Z" fill="white"/>
<path d="M18.8755 61.717L18.4013 62.0808C18.1397 61.7401 17.8249 61.4826 17.457 61.3082C17.0918 61.131 16.6898 61.0425 16.2511 61.0425C15.7714 61.0425 15.3272 61.1583 14.9184 61.3899C14.5096 61.6189 14.1921 61.9282 13.9659 62.3179C13.7424 62.7049 13.6307 63.1409 13.6307 63.626C13.6307 64.3591 13.8814 64.9709 14.3829 65.4615C14.8871 65.952 15.522 66.1973 16.2878 66.1973C17.13 66.1973 17.8344 65.8676 18.4013 65.208L18.8755 65.5678C18.5757 65.9493 18.201 66.245 17.7513 66.4549C17.3044 66.662 16.8043 66.7655 16.2511 66.7655C15.1991 66.7655 14.3692 66.4153 13.7615 65.7149C13.2519 65.1236 12.9971 64.4095 12.9971 63.5729C12.9971 62.6926 13.305 61.9527 13.9209 61.3531C14.5396 60.7509 15.3136 60.4497 16.2429 60.4497C16.8043 60.4497 17.3112 60.5614 17.7636 60.7849C18.216 61.0057 18.5866 61.3163 18.8755 61.717Z" fill="white"/>
<path d="M29.24 60.601L32.0443 66.6143H31.3984L30.4541 64.6357H27.8624L26.9222 66.6143H26.2517L29.0928 60.601H29.24ZM29.1664 61.8764L28.1322 64.0553H30.1884L29.1664 61.8764Z" fill="white"/>
<path d="M39.674 60.601H40.8718C41.5585 60.601 42.0218 60.6309 42.2617 60.6909C42.6051 60.7754 42.8858 60.9498 43.1038 61.2141C43.3218 61.4758 43.4308 61.8055 43.4308 62.2034C43.4308 62.604 43.3245 62.9352 43.112 63.1968C42.8994 63.4557 42.6064 63.6301 42.2331 63.72C41.9605 63.7854 41.4509 63.8182 40.7042 63.8182H40.2749V66.6143H39.674V60.601ZM40.2749 61.1855V63.2295L41.2928 63.2418C41.7043 63.2418 42.0055 63.205 42.1963 63.1314C42.387 63.0551 42.5369 62.9338 42.6459 62.7676C42.7549 62.5986 42.8095 62.4105 42.8095 62.2034C42.8095 62.0018 42.7549 61.8178 42.6459 61.6516C42.5369 61.4826 42.3925 61.3627 42.2126 61.2918C42.0355 61.221 41.7439 61.1855 41.3378 61.1855H40.2749Z" fill="white"/>
<path d="M51.2445 60.601H51.8454V66.6143H51.2445V60.601Z" fill="white"/>
<path d="M59.3279 61.1855V60.601H62.6269V61.1855H61.286V66.6143H60.6728V61.1855H59.3279Z" fill="white"/>
<path d="M72.6439 60.601L75.4482 66.6143H74.8023L73.858 64.6357H71.2663L70.3261 66.6143H69.6556L72.4967 60.601H72.6439ZM72.5703 61.8764L71.5361 64.0553H73.5923L72.5703 61.8764Z" fill="white"/>
<path d="M83.082 60.601H83.687V66.0338H85.9967V66.6143H83.082V60.601Z" fill="white"/>
<path d="M-0.000976562 54.3788V42.0898L0.744811 42.0898L5.74057 52.1733L10.6862 42.0898L11.5551 42.0898V54.3788H10.2351V45.5902L5.89095 54.3788H5.58184L1.17922 45.5234V54.3788H-0.000976562Z" fill="white"/>
<path d="M25.3597 42.0898L31.0906 54.3788H29.7707L27.8409 50.3354H22.5444L20.6229 54.3788H19.2529L25.059 42.0898H25.3597ZM25.2093 44.6963L23.0958 49.1491H27.2979L25.2093 44.6963Z" fill="white"/>
<path d="M37.3265 42.0898H38.6632L42.7316 51.5885L46.8752 42.0898H48.2119L42.8653 54.3788H42.5979L37.3265 42.0898Z" fill="white"/>
<path d="M55.5421 42.0898H62.5847V43.3012H56.7702V47.1441H62.5345V48.3471H56.7702V53.1674H62.5345V54.3788H55.5421V42.0898Z" fill="white"/>
<path d="M69.9734 54.3788V42.0898H70.2407L78.411 51.4966V42.0898H79.6224V54.3788H79.3467L71.2432 45.089V54.3788H69.9734Z" fill="white"/>
<path d="M86.7943 41.0347H89.4158V54.378H88.0915V42.3409H85.9961L86.7943 41.0347Z" fill="white"/>
<path d="M97.3775 41.0347H99.999V54.378H98.6747V42.3409H96.5793L97.3775 41.0347Z" fill="white"/>
</svg>
