<svg width="181" height="39" viewBox="0 0 181 39" fill="none" xmlns="http://www.w3.org/2000/svg">
<path d="M69.4642 31.4868V11.8329L62.2168 31.1797H59.9444L52.697 11.7101V31.5482H49.9332V8.20923H54.1096L61.1113 27.1875L68.1744 8.20923H72.2895V31.4868H69.4642ZM90.4079 14.9038H87.4598L82.792 27.9859L77.8785 14.9038H74.7462L81.3794 31.5482L80.3353 34.312C79.8439 35.5404 79.0455 35.9703 77.8171 35.9703C76.7116 35.9703 75.8517 35.7247 75.8517 35.7247V38.1814C76.0974 38.2428 77.0187 38.4885 78.3699 38.4885C80.888 38.4885 82.055 37.0759 82.8534 34.9262L90.4079 14.9038ZM103.306 30.1356C104.411 29.0301 105.087 27.6789 105.271 25.9591H102.446C102.323 27.0647 101.893 27.8017 101.34 28.4159C100.665 29.0915 99.6821 29.5214 98.5151 29.5214C97.2253 29.5214 96.3655 29.0915 95.6284 28.4159C94.3387 27.3103 93.9701 25.2221 93.9701 23.1953C93.9701 21.1685 94.3387 19.0803 95.6284 17.9748C96.3655 17.3606 97.2253 16.8692 98.5151 16.8692C99.6206 16.8692 100.542 17.2377 101.218 17.9133C101.832 18.5275 102.262 19.3874 102.384 20.4929H105.21C105.087 18.7118 104.35 17.2991 103.244 16.1936C102.077 15.0881 100.48 14.4125 98.5151 14.4125C95.5056 14.4125 93.6631 15.7637 92.4961 17.5448C91.6363 18.8346 91.1449 20.6772 91.1449 23.1339C91.1449 25.652 91.6363 27.4332 92.4961 28.723C93.6631 30.4427 95.567 31.8553 98.5765 31.8553C100.542 31.9167 102.139 31.3025 103.306 30.1356ZM121.731 22.4583C121.793 20.2472 120.994 18.0976 119.643 16.6235C118.415 15.3338 116.695 14.4739 114.607 14.4739C111.72 14.4739 109.509 15.9479 108.342 17.9748C107.421 19.5102 107.052 21.2913 107.052 23.3181C107.052 25.7135 107.728 27.8631 109.14 29.5214C110.43 31.0569 112.334 32.0396 114.668 32.0396C116.265 32.0396 117.739 31.6096 118.906 30.8112C120.257 29.8899 121.24 28.3545 121.486 26.6962H118.783C118.538 27.556 118.23 28.0474 117.8 28.4773C117.125 29.2143 116.019 29.5828 114.73 29.5828C113.44 29.5828 112.457 29.1529 111.659 28.4159C110.615 27.3718 110.062 25.7749 110.062 24.2394H121.793L121.731 22.4583ZM117.862 18.3433C118.538 19.2031 118.906 20.4929 118.906 21.7213H110.062C110.123 19.2645 111.597 16.8078 114.607 16.8078C116.081 16.8078 117.186 17.422 117.862 18.3433ZM128.487 31.671C129.838 31.671 130.453 31.4868 130.453 31.4868V29.0915C130.453 29.0915 130.207 29.1529 129.286 29.1529C128.119 29.1529 127.75 28.5387 127.75 27.4332V7.7793H124.986V27.6174C125.048 30.2584 126.092 31.671 128.487 31.671ZM133.155 11.0959H136.41V7.7793H133.155V11.0959ZM133.401 31.4868H136.287V14.9038H133.401V31.4868ZM153.362 31.4868V14.9038H150.598V23.5638C150.598 25.2835 150.291 27.0647 149.247 28.1702C148.51 28.9072 147.588 29.3986 146.483 29.3986C143.842 29.3986 142.921 27.9245 142.921 25.4064V14.9038H140.157V25.8363C140.157 29.7057 142.061 31.9781 145.869 31.9781C147.834 31.9781 149.922 30.934 150.782 29.0301L151.028 31.5482H153.362V31.4868ZM181 31.4868V20.5543C181 16.8692 179.219 14.4125 175.472 14.4125C173.384 14.4125 171.234 15.518 170.375 17.5448C169.638 15.518 167.856 14.4125 165.4 14.4125C163.557 14.4125 161.592 15.3338 160.732 17.1763L160.486 14.781H158.03V31.4254H160.793V22.6425C160.793 21.2913 161.1 19.5102 161.899 18.4661C162.574 17.6062 163.557 16.9921 164.724 16.9921C167.365 16.9921 168.102 18.5889 168.102 20.9228V31.4868H170.866V22.6425C170.866 20.9228 171.173 19.2031 172.279 18.0976C172.954 17.422 173.753 16.9921 174.797 16.9921C177.438 16.9921 178.175 18.5889 178.175 20.9228V31.4868H181Z" fill="#1C64F2"/>
<path d="M2.88666 20.8007H0C0.429929 26.6969 3.62369 31.8561 8.23006 35.0498L9.7041 32.5317C5.89616 29.8907 3.31659 25.6528 2.88666 20.8007ZM35.1313 20.8007C34.7014 25.6528 32.1218 29.8907 28.3753 32.5317L29.8493 35.0498C34.4557 31.8561 37.5881 26.6969 38.0794 20.8007H35.1313ZM29.8493 3.6036L28.3753 6.06033C32.1218 8.70132 34.7014 12.9392 35.1313 17.7912H38.0794C37.5881 11.8951 34.4557 6.73594 29.8493 3.6036ZM8.23006 3.6036C3.56227 6.73594 0.429929 11.8951 0 17.7912H2.88666C3.31659 12.9392 5.89617 8.70132 9.64269 6.06033L8.23006 3.6036ZM19.0397 0.225586C16.0916 0.225586 13.3278 0.901188 10.8096 2.06814L12.2837 4.58629C14.3719 3.6036 16.6444 3.11225 19.0397 3.11225C21.435 3.11225 23.7689 3.66502 25.7957 4.58629L27.2698 2.06814C24.7516 0.901188 21.9264 0.225586 19.0397 0.225586ZM25.7957 34.0057C23.7075 34.9884 21.435 35.4797 19.0397 35.4797C16.6444 35.4797 14.3105 34.927 12.2837 34.0057L10.8096 36.5239C13.3278 37.7522 16.0916 38.3664 19.0397 38.3664C21.9878 38.3664 24.7516 37.6908 27.2698 36.5239L25.7957 34.0057ZM5.89616 17.7912H8.78283C9.45843 13.3077 13.0207 9.74544 17.5042 9.13125V6.24459C11.4238 6.85877 6.57177 11.7108 5.89616 17.7912ZM29.2351 20.8007C28.5595 25.2843 24.9973 28.8466 20.5137 29.5222V32.4088C26.5942 31.7332 31.4462 26.8812 32.1218 20.8007H29.2351ZM20.5137 6.18317V9.13125C24.9973 9.80686 28.5595 13.3691 29.2351 17.8527H32.1218C31.4462 11.7108 26.5942 6.85877 20.5137 6.18317ZM8.78283 20.8007H5.89616C6.57177 26.8812 11.4238 31.7332 17.5042 32.4088V29.5222C13.0207 28.8466 9.45843 25.2843 8.78283 20.8007ZM23.2161 20.8007C22.602 22.5205 20.9437 23.7488 19.0397 23.7488C17.1357 23.7488 15.4774 22.5205 14.8632 20.8007H11.8537C12.5294 24.1173 15.4774 26.6355 19.0397 26.6355C22.602 26.6355 25.55 24.1173 26.2256 20.8007H23.2161ZM19.0397 11.9565C15.5389 11.9565 12.5294 14.4747 11.8537 17.7912H14.8632C15.4774 16.0715 17.1357 14.8432 19.0397 14.8432C20.9437 14.8432 22.602 16.0715 23.2161 17.7912H26.2256C25.4886 14.4747 22.5405 11.9565 19.0397 11.9565Z" fill="#1C64F2"/>
</svg>
