<svg width="357" height="41" viewBox="0 0 357 41" fill="none" xmlns="http://www.w3.org/2000/svg">
<path d="M9.696 12.536C8.952 12.44 8.376 12.44 7.536 12.44H2.4V29H4.464V22.232H7.536C8.376 22.232 8.952 22.232 9.696 22.136C12.096 21.824 13.992 20.144 13.992 17.336C13.992 14.528 12.336 12.872 9.696 12.536ZM9.576 20.384C9.12 20.48 8.472 20.504 7.728 20.504H4.464V14.168H7.728C8.472 14.168 9.12 14.192 9.576 14.288C10.752 14.552 11.784 15.416 11.784 17.336C11.784 19.256 10.752 20.12 9.576 20.384ZM21.3758 15.944C17.0558 15.944 15.0638 19.04 15.0638 22.64C15.0638 26.216 17.0558 29.336 21.3758 29.336C25.6958 29.336 27.6878 26.216 27.6878 22.64C27.6878 19.04 25.6958 15.944 21.3758 15.944ZM21.3758 27.752C18.8078 27.752 17.3198 25.616 17.3198 22.64C17.3198 19.64 18.8078 17.528 21.3758 17.528C23.9438 17.528 25.4318 19.64 25.4318 22.64C25.4318 25.616 23.9438 27.752 21.3758 27.752ZM47.1023 16.28H44.8943L41.9423 26.96L39.1103 16.28H36.5423L33.7583 27.032L30.8063 16.28H28.4303L32.4863 29H34.9343L37.7663 18.296L40.5983 29H43.0463L47.1023 16.28ZM59.466 22.28C59.466 18.56 57.522 15.944 54.018 15.944C50.538 15.944 47.97 18.56 47.97 22.688C47.97 27.176 50.442 29.336 53.754 29.336C56.37 29.336 58.794 27.968 59.298 24.896H57.138C56.85 26.72 55.506 27.752 53.85 27.752C51.978 27.752 50.394 26.624 50.202 23.264H59.418C59.466 22.808 59.466 22.472 59.466 22.28ZM53.97 17.528C56.058 17.528 57.186 19.04 57.378 21.68H50.226C50.466 18.968 51.954 17.528 53.97 17.528ZM67.1899 15.992C66.5899 15.992 65.9419 16.208 65.4139 16.568L64.2619 18.272V16.28H62.1979V29H64.2619V21.752C64.2619 18.848 65.8939 17.576 68.0539 17.72V16.16C67.8139 16.04 67.5259 15.992 67.1899 15.992ZM80.2785 22.28C80.2785 18.56 78.3345 15.944 74.8305 15.944C71.3505 15.944 68.7825 18.56 68.7825 22.688C68.7825 27.176 71.2545 29.336 74.5665 29.336C77.1825 29.336 79.6065 27.968 80.1105 24.896H77.9505C77.6625 26.72 76.3185 27.752 74.6625 27.752C72.7905 27.752 71.2065 26.624 71.0145 23.264H80.2305C80.2785 22.808 80.2785 22.472 80.2785 22.28ZM74.7825 17.528C76.8705 17.528 77.9985 19.04 78.1905 21.68H71.0385C71.2785 18.968 72.7665 17.528 74.7825 17.528ZM94.1224 11.36H92.0584V18.032L91.2184 16.784C90.5704 16.256 89.2264 15.944 88.1704 15.944C84.8824 15.944 81.9544 18.128 81.9544 22.832C81.9544 26.552 84.0184 29.336 87.7384 29.336C89.0344 29.336 90.3784 28.928 91.0984 28.328L92.0584 26.96V29H94.1224V11.36ZM88.0504 27.752C85.5064 27.752 84.2104 25.472 84.2104 22.592C84.2104 19.256 85.9384 17.528 88.1704 17.528C89.9944 17.528 92.0584 18.776 92.0584 22.064V22.76C92.0584 26.408 90.1624 27.752 88.0504 27.752ZM109.34 15.944C108.044 15.944 106.7 16.352 105.98 16.952L105.02 18.32V11.36H102.956V29H105.02V27.248L105.86 28.496C106.508 29.024 107.852 29.336 108.908 29.336C112.196 29.336 115.124 27.152 115.124 22.448C115.124 18.728 113.06 15.944 109.34 15.944ZM108.908 27.752C107.084 27.752 105.02 26.504 105.02 23.216V22.52C105.02 18.872 106.916 17.528 109.028 17.528C111.572 17.528 112.868 19.808 112.868 22.688C112.868 26.024 111.14 27.752 108.908 27.752ZM128.02 16.28H125.764L121.996 27.464L118.204 16.28H115.876L120.94 29.648L120.772 30.104C120.124 31.784 119.284 32.336 118.012 32.336C117.796 32.336 117.58 32.336 117.268 32.312V33.992C117.58 34.04 117.868 34.04 118.324 34.04C120.388 34.04 121.756 32.768 122.788 30.08L128.02 16.28Z" fill="#0094F8"/>
<path d="M156.754 26.0734L162.321 34.4456L167.463 31.5911L160.157 20.5557L156.754 26.0734Z" fill="#0094F8"/>
<path d="M172.139 28.2342V25.9458L164.151 14.0254L161.189 18.8414L168.894 30.7858L171.682 29.2389C171.956 29.0236 172.123 28.7127 172.139 28.3778V28.2342Z" fill="#0094F8"/>
<path d="M138.681 30.387L142.617 32.5638L155.714 12.4385L153.492 12.3827C151.595 12.3588 149.556 12.8292 148.624 14.2964L141.185 25.3397L138.681 29.0235V30.387Z" fill="#0094F8"/>
<path d="M163.277 12.4385L157.419 12.4544L144.164 33.4169L148.791 35.9684L150.055 33.9192L163.277 12.4385Z" fill="#0094F8"/>
<path d="M174.611 12.4065C174.561 11.2344 173.895 10.158 172.863 9.52807L158.302 1.4987C157.27 1.00434 155.988 1.00434 154.957 1.4987C154.832 1.55451 140.794 9.36062 140.794 9.36062C140.603 9.44833 140.411 9.55996 140.237 9.67956C139.313 10.3174 138.747 11.3062 138.689 12.3906V29.0234L141.194 25.3396L141.16 12.5102C141.16 12.4623 141.169 12.4145 141.177 12.3746C141.235 12.0716 141.41 11.8005 141.676 11.6251C141.743 11.5773 156.022 3.65953 156.072 3.63561C156.404 3.47614 156.837 3.47614 157.17 3.62764L171.549 11.5533C171.89 11.7607 172.098 12.1115 172.123 12.4942V28.3855C172.106 28.7204 171.965 29.0314 171.69 29.2467L168.903 30.7935L167.463 31.5909L162.321 34.4454L157.112 37.3398C156.829 37.4355 156.504 37.4275 156.221 37.3239L150.056 33.9271L148.799 35.9763L154.341 39.0302C154.524 39.1339 154.69 39.2216 154.823 39.2933C155.031 39.405 155.173 39.4767 155.223 39.5006C155.614 39.684 156.18 39.7877 156.696 39.7877C157.162 39.7877 157.619 39.708 158.052 39.5405L173.196 31.1364C174.062 30.4905 174.578 29.5178 174.619 28.4653L174.611 12.4065Z" fill="#0094F8"/>
<path d="M347.914 20.7151C347.914 22.3098 347.914 23.9125 347.914 25.5072C347.914 25.9218 347.814 26.0254 347.381 26.0254C346.89 26.0334 346.399 26.0254 345.908 26.0254C345.525 26.0254 345.426 25.9298 345.426 25.563C345.426 24.1836 345.426 22.8041 345.426 21.4247C345.426 20.0931 345.426 18.7536 345.426 17.422C345.426 17.3343 345.417 17.2466 345.426 17.1589C345.434 17.0233 345.384 16.9276 345.251 16.8878C345.101 16.8399 344.96 16.9037 344.876 17.0472C344.785 17.2147 344.693 17.3741 344.61 17.5496C344.394 18.0041 344.194 18.4665 343.978 18.929C343.62 19.7024 343.27 20.4759 342.913 21.2493C342.788 21.5284 342.655 21.7995 342.522 22.0706C342.081 22.9795 341.64 23.8885 341.19 24.7975C341.057 25.0766 340.874 25.3158 340.649 25.5391C340.408 25.7862 340.108 25.8739 339.776 25.9457C339.293 26.0494 338.81 26.0334 338.319 26.0095C338.028 25.9936 337.729 25.9617 337.437 25.858C336.98 25.6906 336.697 25.3477 336.489 24.965C336.156 24.343 335.865 23.6972 335.557 23.0593C335.357 22.6447 335.157 22.2221 334.958 21.8074C334.625 21.1058 334.284 20.3961 333.951 19.6944C333.56 18.8732 333.185 18.0439 332.794 17.2226C332.761 17.1429 332.719 17.0632 332.669 16.9914C332.603 16.8957 332.411 16.8399 332.303 16.8957C332.203 16.9436 332.145 17.0233 332.154 17.1429C332.162 17.2705 332.154 17.406 332.154 17.5416C332.154 20.1649 332.154 22.7882 332.154 25.4115C332.154 25.4832 332.154 25.555 332.154 25.6347C332.145 25.9377 332.07 26.0254 331.771 26.0334C331.23 26.0414 330.697 26.0414 330.156 26.0334C329.782 26.0254 329.666 25.9138 329.666 25.563C329.666 22.3496 329.666 19.1443 329.674 15.9309C329.674 15.7077 329.724 15.4764 329.79 15.2532C329.882 14.9502 330.107 14.7269 330.423 14.6392C330.639 14.5754 330.864 14.5276 331.08 14.5276C331.804 14.5116 332.52 14.5116 333.244 14.5276C333.485 14.5356 333.726 14.5754 333.951 14.6392C334.209 14.711 334.4 14.9023 334.533 15.1176C334.725 15.4366 334.891 15.7794 335.049 16.1143C335.216 16.4652 335.365 16.824 335.524 17.1828C335.873 17.9562 336.231 18.7296 336.58 19.5111C336.988 20.42 337.379 21.329 337.795 22.238C338.003 22.6925 338.261 23.139 338.419 23.6174C338.461 23.745 338.577 23.8646 338.769 23.8566C338.968 23.8487 339.11 23.7849 339.193 23.6015C339.451 23.0354 339.717 22.4772 339.975 21.9111C340.125 21.5842 340.267 21.2493 340.416 20.9224C340.957 19.7263 341.506 18.5383 342.047 17.3422C342.297 16.7921 342.53 16.2339 342.788 15.6838C342.938 15.3648 343.121 15.0698 343.395 14.8306C343.537 14.711 343.695 14.6472 343.878 14.6153C344.818 14.4558 345.767 14.5595 346.715 14.5515C346.898 14.5515 347.098 14.6233 347.273 14.695C347.564 14.8067 347.714 15.0538 347.797 15.309C347.872 15.5562 347.897 15.8193 347.897 16.0745C347.914 17.6054 347.914 19.1602 347.914 20.7151Z" fill="#0094F8"/>
<path d="M228.398 20.229C228.398 18.5146 228.398 16.8003 228.398 15.078C228.398 14.8867 228.423 14.7272 228.598 14.6235C228.681 14.5677 228.781 14.5438 228.881 14.5119C228.939 14.496 229.006 14.5039 229.064 14.5039C232.376 14.5039 235.696 14.496 239.008 14.5119C239.623 14.5119 240.239 14.5837 240.805 14.8548C241.379 15.1259 241.754 15.5644 241.928 16.1465C242.012 16.4096 242.037 16.6807 242.028 16.9598C242.02 17.3665 242.02 17.7811 242.028 18.1877C242.037 18.8336 241.829 19.3758 241.313 19.8064C241.213 19.8941 241.121 19.9898 241.021 20.0854C241.13 20.1652 241.238 20.2369 241.338 20.3246C241.779 20.7233 242.095 21.1938 242.111 21.7918C242.128 22.4376 242.145 23.0835 242.111 23.7294C242.053 24.7181 241.596 25.4756 240.539 25.8184C240.131 25.954 239.715 26.0018 239.299 26.0098C235.896 26.0257 232.484 26.0178 229.081 26.0178C228.989 26.0178 228.898 26.0257 228.806 26.0018C228.523 25.9301 228.407 25.7706 228.407 25.4517C228.407 24.5586 228.407 23.6656 228.407 22.7646C228.39 21.9273 228.39 21.0742 228.398 20.229C228.39 20.229 228.39 20.229 228.398 20.229ZM234.922 23.7533C236.012 23.7533 237.094 23.7533 238.184 23.7533C238.325 23.7533 238.467 23.7692 238.6 23.7453C238.949 23.6735 239.341 23.6257 239.474 23.235C239.582 22.9081 239.657 22.5652 239.607 22.2144C239.59 22.0868 239.549 21.9592 239.532 21.8396C239.499 21.5765 239.374 21.3851 239.116 21.2655C238.866 21.1539 238.608 21.0981 238.334 21.0981C236.17 21.0981 234.015 21.0981 231.852 21.0981C231.652 21.0981 231.452 21.1061 231.252 21.0981C231.086 21.0901 231.044 21.1459 231.044 21.2974C231.053 22.031 231.044 22.7646 231.053 23.4902C231.053 23.7453 231.061 23.7453 231.344 23.7453C232.534 23.7533 233.732 23.7533 234.922 23.7533ZM234.964 16.7924C234.165 16.7924 233.366 16.7924 232.567 16.7924C232.134 16.7924 231.71 16.7924 231.277 16.7924C231.053 16.7924 231.053 16.8003 231.044 17.0156C231.044 17.7013 231.036 18.395 231.044 19.0808C231.044 19.2881 231.069 19.2881 231.311 19.2721C231.436 19.2642 231.552 19.2721 231.677 19.2721C233.824 19.2721 235.97 19.2721 238.117 19.2721C238.3 19.2721 238.483 19.2801 238.667 19.2642C239.207 19.2243 239.524 18.9054 239.524 18.395C239.524 18.1718 239.515 17.9565 239.524 17.7332C239.549 17.3027 239.357 17.0236 238.933 16.8641C238.766 16.8003 238.608 16.7924 238.442 16.7924C237.294 16.7924 236.129 16.7924 234.964 16.7924Z" fill="#0094F8"/>
<path d="M206.115 20.1014C206.115 18.5146 206.115 16.9359 206.115 15.3491C206.115 15.1897 206.14 15.0382 206.173 14.8787C206.223 14.6156 206.397 14.5598 206.605 14.5119C206.68 14.496 206.755 14.5039 206.838 14.5039C209.892 14.5039 212.946 14.5039 216 14.5119C216.682 14.5119 217.348 14.6076 217.98 14.8628C218.604 15.1179 219.029 15.5804 219.278 16.1864C219.478 16.6728 219.578 17.1751 219.561 17.7013C219.545 18.2595 219.578 18.8176 219.545 19.3758C219.495 20.1732 219.245 20.8987 218.596 21.4569C218.188 21.8077 217.706 21.9752 217.181 22.0788C217.057 22.1028 217.032 22.1586 217.115 22.2543C217.706 22.94 218.288 23.6177 218.879 24.3035C219.228 24.7181 219.578 25.1407 219.919 25.5633C220.102 25.7786 220.019 25.9859 219.736 26.0337C219.678 26.0417 219.611 26.0337 219.553 26.0337C218.879 26.0337 218.205 26.0257 217.531 26.0417C217.34 26.0497 217.206 25.9779 217.098 25.8503C216.84 25.5473 216.591 25.2364 216.341 24.9254C215.975 24.4709 215.609 24.0084 215.243 23.546C215.018 23.2589 214.785 22.9719 214.577 22.6768C214.444 22.4855 214.286 22.4217 214.044 22.4217C212.513 22.4297 210.974 22.4297 209.443 22.4297C209.318 22.4297 209.193 22.4376 209.077 22.4297C208.786 22.4137 208.777 22.4057 208.777 22.6689C208.777 23.6257 208.777 24.5746 208.777 25.5314C208.777 25.938 208.669 26.0337 208.236 26.0417C207.696 26.0497 207.163 26.0417 206.622 26.0417C206.564 26.0417 206.497 26.0497 206.439 26.0337C206.273 25.9939 206.206 25.9061 206.189 25.7307C206.073 24.7101 206.123 23.6895 206.115 22.6689C206.106 21.8077 206.115 20.9546 206.115 20.1014ZM212.23 20.4044C213.287 20.4044 214.352 20.4124 215.409 20.3964C215.784 20.3964 216.166 20.3326 216.474 20.1173C216.815 19.8781 216.957 19.5353 216.965 19.1366C216.973 18.8176 216.957 18.4907 216.973 18.1718C216.99 17.8528 216.874 17.5817 216.74 17.3027C216.641 17.0874 216.466 16.9598 216.241 16.888C216.058 16.8322 215.858 16.7924 215.667 16.7924C215.035 16.7764 214.411 16.7844 213.778 16.7844C212.197 16.7844 210.616 16.7844 209.035 16.7844C208.777 16.7844 208.769 16.7924 208.769 17.0156C208.769 18.0681 208.769 19.1286 208.769 20.1811C208.769 20.3884 208.777 20.3964 209.002 20.3964C210.084 20.4044 211.157 20.4044 212.23 20.4044Z" fill="#0094F8"/>
<path d="M284.282 20.2684C284.282 18.578 284.282 16.8956 284.282 15.2052C284.282 15.1175 284.282 15.0298 284.282 14.9421C284.299 14.671 284.474 14.5275 284.74 14.5035C284.798 14.4956 284.865 14.5035 284.923 14.5035C288.01 14.5035 291.089 14.4956 294.176 14.5115C294.891 14.5195 295.615 14.6072 296.273 14.9421C296.764 15.1893 297.113 15.58 297.33 16.0424C297.604 16.6245 297.721 17.2464 297.721 17.8843C297.721 18.1793 297.704 18.4744 297.721 18.7614C297.746 19.2558 297.662 19.7581 297.513 20.2126C297.246 20.994 296.78 21.6638 295.857 21.895C295.682 21.9349 295.524 22.0146 295.349 22.0625C295.224 22.0944 295.208 22.1581 295.274 22.2458C295.424 22.4452 295.565 22.6445 295.732 22.8359C296.156 23.3462 296.597 23.8406 297.022 24.3509C297.354 24.7416 297.679 25.1402 298.004 25.5469C298.195 25.7941 298.103 25.9854 297.779 26.0173C297.504 26.0413 297.23 26.0253 296.947 26.0253C296.531 26.0253 296.115 26.0253 295.707 26.0253C295.482 26.0253 295.324 25.9695 295.183 25.7781C294.509 24.909 293.81 24.0558 293.119 23.1947C292.936 22.9635 292.753 22.7322 292.57 22.509C292.537 22.4691 292.478 22.4292 292.428 22.4213C292.337 22.4053 292.245 22.4133 292.154 22.4133C290.531 22.4133 288.9 22.4133 287.278 22.4133C287.22 22.4133 287.153 22.4133 287.095 22.4133C286.878 22.4213 286.87 22.4213 286.87 22.6445C286.87 23.5854 286.87 24.5183 286.87 25.4592C286.87 26.0253 286.87 26.0253 286.288 26.0253C285.83 26.0253 285.364 26.0253 284.906 26.0253C284.831 26.0253 284.748 26.0333 284.673 26.0253C284.39 25.9854 284.282 25.8738 284.282 25.5947C284.282 24.4067 284.282 23.2186 284.282 22.0306C284.282 21.4405 284.282 20.8585 284.282 20.2684ZM290.581 16.792C290.581 16.784 290.581 16.784 290.581 16.792C289.475 16.792 288.368 16.792 287.269 16.792C286.903 16.792 286.87 16.8238 286.87 17.1587C286.87 18.1235 286.87 19.0963 286.87 20.0611C286.87 20.38 286.903 20.4119 287.236 20.4119C289.341 20.4119 291.438 20.4119 293.543 20.404C293.785 20.404 294.034 20.38 294.259 20.3083C294.525 20.2126 294.758 20.0691 294.891 19.798C295 19.5667 295.083 19.3515 295.075 19.0963C295.058 18.7295 295.075 18.3627 295.066 17.996C295.05 17.2145 294.45 16.784 293.81 16.7999C292.728 16.7999 291.655 16.792 290.581 16.792Z" fill="#0094F8"/>
<path d="M306.283 18.6981C306.283 17.4622 306.283 16.2343 306.283 14.9984C306.283 14.5917 306.375 14.512 306.791 14.504C307.315 14.504 307.831 14.504 308.355 14.504C308.771 14.504 308.863 14.5917 308.863 14.9904C308.863 17.2071 308.863 19.4237 308.863 21.6324C308.863 21.9912 308.929 22.35 309.046 22.6929C309.212 23.1713 309.562 23.4424 310.069 23.5699C310.311 23.6337 310.544 23.6497 310.785 23.6497C312.674 23.6497 314.563 23.6497 316.452 23.6417C316.701 23.6417 316.967 23.6018 317.209 23.5301C317.683 23.3786 317.958 23.0357 318.091 22.5732C318.182 22.2543 318.182 21.9433 318.182 21.6244C318.182 19.4955 318.182 17.3745 318.182 15.2456C318.182 15.1419 318.174 15.0383 318.182 14.9346C318.199 14.6396 318.349 14.504 318.632 14.504C319.247 14.4961 319.863 14.4961 320.471 14.504C320.695 14.504 320.82 14.6396 320.837 14.8628C320.837 14.9187 320.837 14.9824 320.837 15.0383C320.837 17.3825 320.845 19.7347 320.828 22.0789C320.82 22.6769 320.712 23.2749 320.504 23.849C320.179 24.7739 319.514 25.348 318.582 25.667C318.082 25.8344 317.567 25.9062 317.042 25.9461C314.995 26.0976 312.94 25.9939 310.893 26.0019C310.119 26.0019 309.337 25.9221 308.58 25.675C307.432 25.3082 306.757 24.5507 306.475 23.4424C306.35 22.948 306.283 22.4536 306.292 21.9433C306.292 20.8749 306.292 19.7825 306.283 18.6981C306.292 18.6981 306.283 18.6981 306.283 18.6981Z" fill="#0094F8"/>
<path d="M196.495 26.0259C196.188 26.0259 195.88 26.0259 195.572 26.0259C195.305 26.0259 195.131 25.9302 194.998 25.691C194.673 25.093 194.307 24.5109 193.991 23.9129C193.883 23.7056 193.749 23.6577 193.533 23.6577C192.659 23.6657 191.786 23.6577 190.912 23.6577C189.331 23.6577 187.75 23.6657 186.169 23.6497C185.845 23.6497 185.686 23.7374 185.553 24.0245C185.295 24.5747 184.954 25.085 184.671 25.6272C184.521 25.9063 184.305 26.0259 183.989 26.0259C183.39 26.0179 182.791 26.0259 182.192 26.0259C182.117 26.0259 182.033 26.0338 181.959 26.0259C181.709 25.986 181.626 25.8425 181.734 25.6192C181.959 25.1807 182.208 24.7501 182.45 24.3275C182.691 23.9129 182.94 23.5062 183.182 23.0916C183.473 22.5893 183.748 22.079 184.039 21.5686C184.663 20.4842 185.295 19.4078 185.919 18.3234C186.177 17.8689 186.419 17.4065 186.677 16.952C186.976 16.4177 187.259 15.8755 187.609 15.3732C187.975 14.847 188.474 14.4881 189.19 14.5121C189.481 14.52 189.772 14.5041 190.063 14.5121C190.346 14.528 190.646 14.536 190.912 14.6077C191.295 14.7194 191.611 14.9586 191.819 15.2935C192.11 15.748 192.393 16.2025 192.659 16.6649C192.951 17.1673 193.225 17.6776 193.516 18.1799C194.041 19.0809 194.582 19.9819 195.114 20.8829C195.314 21.2178 195.497 21.5686 195.688 21.9115C196.104 22.6451 196.52 23.3786 196.945 24.1042C197.219 24.5826 197.502 25.0531 197.785 25.5315C197.827 25.6033 197.877 25.683 197.885 25.7707C197.893 25.8265 197.843 25.9142 197.793 25.9302C197.685 25.978 197.569 26.0099 197.452 26.0099C197.136 26.0338 196.82 26.0259 196.495 26.0259ZM189.714 21.8079C190.554 21.8079 191.395 21.8079 192.243 21.8079C192.759 21.8079 192.768 21.7999 192.51 21.3454C192.11 20.6357 191.711 19.9341 191.311 19.2244C190.904 18.5068 190.496 17.7892 190.097 17.0636C190.013 16.9041 189.905 16.8722 189.739 16.8643C189.564 16.8563 189.539 16.9679 189.481 17.0636C189.19 17.5978 188.898 18.1321 188.607 18.6583C188.05 19.6391 187.492 20.6198 186.935 21.6085C186.843 21.776 186.86 21.7999 187.059 21.7999C187.933 21.8079 188.823 21.8079 189.714 21.8079Z" fill="#0094F8"/>
<path d="M268.855 14.5123C270.969 14.5123 273.091 14.5123 275.204 14.5123C275.312 14.5123 275.42 14.5044 275.529 14.5123C275.845 14.5363 275.97 14.6878 275.978 14.9429C275.986 15.4452 275.986 15.9396 275.978 16.4419C275.97 16.7848 275.753 16.8645 275.537 16.8805C275.445 16.8885 275.354 16.8805 275.262 16.8805C273.715 16.8805 272.167 16.8805 270.611 16.8805C270.553 16.8805 270.486 16.8805 270.428 16.8805C270.186 16.8885 270.186 16.8885 270.186 17.1277C270.186 17.2154 270.186 17.3031 270.186 17.3908C270.186 20.0141 270.186 22.6374 270.186 25.2687C270.186 25.3404 270.178 25.4202 270.186 25.4919C270.236 25.8587 269.97 26.058 269.621 26.0421C269.113 26.0182 268.605 26.0421 268.098 26.0341C267.665 26.0341 267.532 25.9065 267.532 25.4999C267.532 24.6228 267.532 23.7377 267.532 22.8606C267.532 21.0267 267.532 19.1928 267.532 17.3589C267.532 17.2552 267.524 17.1516 267.532 17.0479C267.54 16.9044 267.466 16.8805 267.332 16.8805C266.459 16.8805 265.585 16.8805 264.711 16.8805C263.912 16.8805 263.114 16.8645 262.315 16.8885C261.932 16.9044 261.691 16.6891 261.716 16.3144C261.749 15.9077 261.716 15.4931 261.724 15.0864C261.724 14.6399 261.849 14.5203 262.315 14.5203C264.37 14.5203 266.425 14.5203 268.481 14.5203C268.614 14.5123 268.73 14.5123 268.855 14.5123Z" fill="#0094F8"/>
<path d="M250.849 20.2447C250.849 18.4985 250.849 16.7603 250.849 15.0141C250.849 14.5436 250.874 14.5197 251.365 14.5117C251.889 14.5117 252.405 14.5117 252.929 14.5117C253.345 14.5117 253.436 14.5994 253.436 15.0061C253.436 18.0201 253.436 21.0421 253.436 24.0561C253.436 24.5664 253.436 25.0846 253.436 25.595C253.436 25.89 253.32 26.0175 253.004 26.0255C252.438 26.0415 251.872 26.0415 251.306 26.0255C250.965 26.0175 250.865 25.89 250.865 25.5631C250.849 23.785 250.849 22.0148 250.849 20.2447Z" fill="#0094F8"/>
</svg>
