<svg width="64" height="63" viewBox="0 0 64 63" fill="none" xmlns="http://www.w3.org/2000/svg">
<path d="M39.7289 36.7285H39.5352C38.9672 36.7285 38.0506 36.806 38.0506 37.4288C38.0506 37.7258 38.2701 38.0065 38.7219 38.0065C39.3061 38.0065 39.7256 37.3772 39.7256 36.835V36.7317L39.7289 36.7285Z" fill="#1C64F2"/>
<path d="M17.1741 24.8003C17.1741 24.355 16.9127 24.0322 16.3866 24.0322H15.3119V25.5975H16.4028C16.8933 25.5975 17.1709 25.2489 17.1709 24.8036L17.1741 24.8003Z" fill="#1C64F2"/>
<path d="M41.6931 45.1582C41.1156 45.1582 40.5768 45.5776 40.5768 46.5649C40.5768 47.2553 40.9446 47.936 41.6867 47.936C42.2997 47.936 42.803 47.4392 42.803 46.5552C42.803 45.6712 42.3481 45.1582 41.6931 45.1582Z" fill="#1C64F2"/>
<path d="M24.2229 25.6494C23.497 25.6494 22.8969 26.2172 22.8969 27.0367C22.8969 27.8562 23.5002 28.424 24.2229 28.424C24.9456 28.424 25.5424 27.8659 25.5424 27.0367C25.5424 26.2076 24.9391 25.6494 24.2229 25.6494Z" fill="#1C64F2"/>
<path d="M28.5364 15.48C28.5364 14.8863 28.2815 14.5186 27.4008 14.5186H26.5458V16.4575H27.5589C28.1622 16.4575 28.5364 16.0994 28.5364 15.48Z" fill="#1C64F2"/>
<path d="M16.5185 26.5039H15.3119V28.2945H16.5185C17.096 28.2945 17.4187 27.9202 17.4187 27.3944C17.4187 26.8685 17.0864 26.5039 16.5185 26.5039Z" fill="#1C64F2"/>
<path d="M29.4398 37.925C30.156 37.925 30.7593 37.3668 30.7593 36.5377C30.7593 35.7085 30.156 35.1504 29.4398 35.1504C28.7235 35.1504 28.1138 35.7182 28.1138 36.5377C28.1138 37.3572 28.7171 37.925 29.4398 37.925Z" fill="#1C64F2"/>
<path d="M63.4607 25.7202C62.9316 22.8488 61.996 20.1226 60.7249 17.5125C59.3731 14.7412 57.5534 12.2698 55.5015 9.98565C53.5012 7.7563 51.1558 5.92701 48.578 4.40421C46.0873 2.93303 43.4514 1.80061 40.6413 1.07147C38.1668 0.429445 35.66 0.0293949 33.1048 0.0100373C30.4044 -0.0125466 27.704 0.0100373 25.0069 0.0100373C24.3487 0.0100373 24.3552 0.0100262 24.3552 0.684316C24.3616 2.55232 24.3584 4.4171 24.3616 6.28511C24.3616 6.62064 24.2745 6.84004 23.8648 6.83681C19.5932 6.82068 15.3184 6.82069 11.0436 6.80455C10.6242 6.80455 10.4693 6.95297 10.4693 7.37238C10.479 11.6601 10.4693 15.951 10.4758 20.2387C10.4758 20.9872 10.4241 21.055 9.66919 21.055C6.61714 21.055 3.56186 21.0614 0.506589 21.0453C0.112984 21.0453 -0.00316125 21.1679 6.50123e-05 21.5486C0.0129701 24.8039 0.00651755 28.0592 0.00651755 31.3145C0.00651755 31.3145 0.0129701 31.3145 0.0129701 31.3113C0.0129701 34.3343 0.0129701 37.3605 0.0129701 40.3835C0.0129701 41.6902 0.0065176 41.6902 1.29057 41.6869C4.11356 41.6837 6.93654 41.6805 9.76275 41.6805C10.3693 41.6805 10.4919 41.7934 10.4919 42.3096C10.4854 46.6457 10.4822 50.9818 10.479 55.3147C10.479 55.8632 10.5371 55.9277 11.0823 55.9277C15.2797 55.9277 19.477 55.9277 23.6744 55.9277C24.2971 55.9277 24.3681 55.9987 24.3681 56.6149C24.3648 58.4668 24.3681 60.3186 24.3519 62.1705C24.3487 62.5738 24.4907 62.7061 24.8939 62.7029C26.8071 62.6867 28.7203 62.6738 30.6335 62.7093C34.1791 62.7738 37.6409 62.2963 41.035 61.2768C43.0933 60.6574 45.0839 59.8702 46.9681 58.8507C50.3911 56.9956 53.4658 54.692 56.0403 51.7271C58.4632 48.9331 60.4635 45.9004 61.8508 42.4612C62.9445 39.7544 63.6317 36.954 63.8866 34.0504C64.1318 31.2532 63.9737 28.4786 63.4672 25.7137L63.4607 25.7202ZM51.8429 23.0617H52.9431V24.049H51.8429V23.0617ZM40.7801 13.5474H45.9776V14.5153H43.9418V19.7451H42.8159V14.5153H40.7801V13.5474ZM40.8736 25.3653L40.3832 26.1267C40.3832 26.1267 39.9219 25.6459 39.2218 25.6459C38.4023 25.6459 37.8668 26.2654 37.8668 27.0268C37.8668 27.7882 38.4088 28.4238 39.2541 28.4238C40.0058 28.4238 40.5639 27.8559 40.5639 27.8559L40.993 28.6432C40.993 28.6432 40.3542 29.3691 39.1605 29.3691C37.6861 29.3691 36.7408 28.3302 36.7408 27.0365C36.7408 25.7427 37.6829 24.7039 39.1605 24.7039C40.3219 24.7039 40.8736 25.3685 40.8736 25.3685V25.3653ZM38.8314 13.5474H39.9574V19.7483H38.8314V13.5474ZM31.4788 13.5474H32.6854L33.8985 16.6124C34.0372 16.9802 34.2114 17.5222 34.2114 17.5222H34.2275C34.2275 17.5222 34.3921 16.9802 34.534 16.6124L35.7471 13.5474H36.9537L37.4506 19.7483H36.3343L36.073 16.2801C36.0471 15.8704 36.0633 15.3187 36.0633 15.3187H36.0471C36.0471 15.3187 35.8632 15.922 35.7148 16.2801L34.7115 18.6804H33.7242L32.7273 16.2801C32.5789 15.922 32.3853 15.3122 32.3853 15.3122H32.3692C32.3692 15.3122 32.3853 15.8704 32.3595 16.2801L32.0982 19.7483H30.9722L31.4788 13.5474ZM33.9759 26.3783L35.0502 24.8071H36.2827L34.876 26.7977V26.8138L36.4569 29.2594H35.1825L34.0049 27.3107H33.4274V29.2594H32.3176V23.0585H33.4274V26.3783H33.9791H33.9759ZM29.7495 28.4205C30.5012 28.4205 31.0593 27.8527 31.0593 27.8527L31.4884 28.6399C31.4884 28.6399 30.8496 29.3658 29.6559 29.3658C28.1815 29.3658 27.2362 28.327 27.2362 27.0333C27.2362 25.7395 28.1783 24.7006 29.6559 24.7006C30.8174 24.7006 31.3691 25.3653 31.3691 25.3653L30.8787 26.1267C30.8787 26.1267 30.4173 25.6459 29.7172 25.6459C28.8977 25.6459 28.3622 26.2654 28.3622 27.0268C28.3622 27.7882 28.9042 28.4238 29.7495 28.4238V28.4205ZM25.4198 13.5442H27.4201C28.0912 13.5442 28.3977 13.5958 28.6687 13.7184C29.2881 13.9991 29.6817 14.5928 29.6817 15.4122C29.6817 16.1543 29.2881 16.8447 28.6332 17.106V17.1221C28.6332 17.1221 28.7203 17.2093 28.8429 17.4286L30.1173 19.7419H28.859L27.6266 17.4286H26.5426V19.7419H25.4166V13.541L25.4198 13.5442ZM15.2151 38.7575H14.0892V32.5566H15.2151V38.7575ZM14.1892 29.2594V23.0585H16.4089C17.5251 23.0585 18.322 23.636 18.322 24.6555C18.322 25.233 18.0413 25.7298 17.5703 25.9815V25.9976C18.2511 26.1976 18.5737 26.8268 18.5737 27.4559C18.5737 28.6948 17.5768 29.2561 16.4347 29.2561H14.1892V29.2594ZM20.8063 38.7575H19.7061V36.1216C19.7061 35.5796 19.5674 35.2118 18.9996 35.2118C18.4317 35.2118 17.9704 35.5861 17.8026 36.1216C17.7413 36.3055 17.7252 36.5056 17.7252 36.7153V38.7575H16.6153V34.302H17.68V34.8182C17.68 34.9828 17.6639 35.1247 17.6639 35.1247H17.68C17.8736 34.7505 18.3607 34.1988 19.2609 34.1988C20.2481 34.1988 20.8063 34.715 20.8063 35.8926V38.7575V38.7575ZM21.2805 29.2755C21.2805 29.2755 21.116 29.3013 20.9321 29.3013C20.3223 29.3013 19.5609 29.1432 19.5609 27.8688V23.0553H20.6611V27.7011C20.6611 28.1915 20.8256 28.3108 21.116 28.3108C21.2031 28.3108 21.2805 28.3012 21.2805 28.3012V29.2691V29.2755ZM26.1586 38.7575H25.0585V36.1216C25.0585 35.5796 24.9197 35.2118 24.3519 35.2118C23.7841 35.2118 23.3227 35.5861 23.155 36.1216C23.0937 36.3055 23.0776 36.5056 23.0776 36.7153V38.7575H21.9677V34.302H23.0324V34.8182C23.0324 34.9828 23.0163 35.1247 23.0163 35.1247H23.0324C23.226 34.7505 23.7131 34.1988 24.6133 34.1988C25.6005 34.1988 26.1586 34.715 26.1586 35.8926V38.7575V38.7575ZM24.2229 29.3626C22.8614 29.3626 21.7677 28.4012 21.7677 27.03C21.7677 25.6589 22.8582 24.6974 24.2132 24.6974C25.5682 24.6974 26.6684 25.6653 26.6684 27.03C26.6684 28.3947 25.5779 29.3626 24.2229 29.3626ZM29.4333 34.1988C30.7948 34.1988 31.8885 35.1667 31.8885 36.5314C31.8885 37.8961 30.798 38.864 29.443 38.864C28.0879 38.864 26.9878 37.9025 26.9878 36.5314C26.9878 35.1602 28.0783 34.1988 29.4333 34.1988ZM32.7886 48.7589H31.6626V46.1553H28.8235V48.7589H27.6976V42.558H28.8235V45.1874H31.6626V42.558H32.7886V48.7589ZM32.1659 34.302H33.3371L34.263 37.0605C34.3501 37.3218 34.4114 37.7315 34.4211 37.7315H34.4372C34.4372 37.7315 34.5082 37.3218 34.5953 37.0605L35.5213 34.302H36.6924L35.0954 38.7575H33.7855L32.1692 34.302H32.1659ZM38.2829 48.7589H37.2183V48.2524C37.2183 48.0782 37.2344 47.9395 37.2344 47.9395H37.2183C36.9989 48.404 36.4311 48.8654 35.6729 48.8654C34.7211 48.8654 34.1275 48.3847 34.1275 47.1716V44.3067H35.2374V46.9458C35.2374 47.4878 35.3761 47.8523 35.9278 47.8523C36.7311 47.8523 37.1763 47.1458 37.1763 46.3489V44.3067H38.2862V48.7622L38.2829 48.7589ZM36.9344 37.4734C36.9344 36.0603 38.8475 35.9636 39.5702 35.9636H39.7186V35.9023C39.7186 35.3183 39.3508 35.115 38.8637 35.115C38.2249 35.115 37.6409 35.5441 37.6409 35.5441L37.2215 34.7505C37.2215 34.7505 37.9119 34.1988 38.9669 34.1988C40.1381 34.1988 40.8188 34.844 40.8188 35.9732V38.7575H39.7961V38.3897C39.7961 38.2155 39.8122 38.0768 39.8122 38.0768H39.7961C39.7961 38.0768 39.4541 38.864 38.441 38.864C37.6474 38.864 36.9311 38.3671 36.9311 37.4767L36.9344 37.4734ZM41.8802 48.8654C40.9543 48.8654 40.5542 48.2008 40.5542 48.2008H40.5381C40.5381 48.2008 40.5542 48.3331 40.5542 48.5073V48.7622H39.5057V42.5613H40.6155V44.4744C40.6155 44.6938 40.5994 44.8487 40.5994 44.8487H40.6155C40.6155 44.8487 41.0091 44.2034 41.9512 44.2034C43.1578 44.2034 43.9257 45.1552 43.9257 46.536C43.9257 47.9169 43.061 48.8686 41.8835 48.8686L41.8802 48.8654ZM44.3322 38.7769C44.3322 38.7769 44.1999 38.8027 43.9902 38.8027C43.3708 38.8027 42.1383 38.6188 42.1383 37.125V35.257H41.5608V34.3762H42.1641V33.0922H43.2482V34.3762H44.2612V35.257H43.2482V36.9863C43.2482 37.7186 43.8257 37.8251 44.1289 37.8251C44.2515 37.8251 44.329 37.809 44.329 37.809V38.7769H44.3322ZM44.2128 25.7137C43.6289 25.7137 43.174 26.0976 43.0062 26.6396C42.9546 26.8139 42.9352 27.0074 42.9352 27.2171V29.2594H41.8254V23.0585H42.9352V25.2072C42.9352 25.4266 42.9191 25.5814 42.9191 25.5814H42.9352C43.1546 25.1523 43.6934 24.7006 44.4709 24.7006C45.4582 24.7006 46.0163 25.2169 46.0163 26.3944V29.2594H44.9162V26.6235C44.9162 26.0815 44.7774 25.7137 44.2096 25.7137H44.2128ZM46.3389 32.5598V33.5471H45.2388V32.5598H46.3389ZM46.3486 38.7607H45.2388V34.3052H46.3486V38.7607ZM46.8067 27.9785C46.8067 26.5654 48.7199 26.4687 49.4426 26.4687H49.591V26.4074C49.591 25.8234 49.2232 25.6201 48.7361 25.6201C48.0973 25.6201 47.5133 26.0492 47.5133 26.0492L47.0939 25.2556C47.0939 25.2556 47.7843 24.7039 48.8393 24.7039C50.0104 24.7039 50.6912 25.3491 50.6912 26.4783V29.2626H49.6684V28.8948C49.6684 28.7206 49.6846 28.5819 49.6846 28.5819H49.6684C49.6684 28.5819 49.3265 29.3691 48.3134 29.3691C47.5197 29.3691 46.8035 28.8722 46.8035 27.9818L46.8067 27.9785ZM49.6943 38.8672C48.3328 38.8672 47.2391 37.9058 47.2391 36.5346C47.2391 35.1634 48.3295 34.202 49.6846 34.202C51.0396 34.202 52.1398 35.1699 52.1398 36.5346C52.1398 37.8993 51.0493 38.8672 49.6943 38.8672ZM52.956 29.2626H51.8462V24.8071H52.956V29.2626ZM57.2244 38.7607H56.1242V36.1249C56.1242 35.5829 55.9855 35.2151 55.4177 35.2151C54.8498 35.2151 54.3885 35.5893 54.2207 36.1249C54.1594 36.3088 54.1433 36.5088 54.1433 36.7185V38.7607H53.0334V34.3052H54.0981V34.8214C54.0981 34.986 54.082 35.1279 54.082 35.1279H54.0981C54.2917 34.7537 54.7788 34.202 55.679 34.202C56.6662 34.202 57.2244 34.7182 57.2244 35.8958V38.7607V38.7607ZM58.3729 29.2626H57.2728V26.6267C57.2728 26.0847 57.134 25.7169 56.5662 25.7169C55.9984 25.7169 55.537 26.0912 55.3693 26.6267C55.308 26.8106 55.2918 27.0107 55.2918 27.2204V29.2626H54.182V24.8071H55.2467V25.3233C55.2467 25.4879 55.2305 25.6298 55.2305 25.6298H55.2467C55.4402 25.2556 55.9274 24.7039 56.8275 24.7039C57.8148 24.7039 58.3729 25.2201 58.3729 26.3977V29.2626V29.2626Z" fill="#1C64F2"/>
<path d="M49.691 35.1475C48.9651 35.1475 48.365 35.7153 48.365 36.5348C48.365 37.3542 48.9683 37.9221 49.691 37.9221C50.4137 37.9221 51.0106 37.3639 51.0106 36.5348C51.0106 35.7056 50.4072 35.1475 49.691 35.1475Z" fill="#1C64F2"/>
<path d="M48.5944 28.5053C49.1786 28.5053 49.5981 27.8759 49.5981 27.3337V27.2305H49.4045C48.8365 27.2305 47.9199 27.3079 47.9199 27.9308C47.9199 28.2277 48.1394 28.5085 48.5912 28.5085L48.5944 28.5053Z" fill="#1C64F2"/>
</svg>
