<svg width="169" height="32" viewBox="0 0 169 32" fill="none" xmlns="http://www.w3.org/2000/svg">
<path d="M60.5049 14.6121H57.5618V4.08176H60.2663V5.59692C60.7436 4.87722 61.1413 4.42267 61.539 4.1954C61.9368 3.96813 62.3345 3.85449 62.8118 3.85449C63.4879 3.85449 64.1243 4.04389 64.7209 4.3848L63.8061 6.80904C63.3288 6.50601 62.8515 6.35449 62.414 6.35449C62.0163 6.35449 61.6584 6.46813 61.3799 6.6954C61.1015 6.92267 60.8629 7.30146 60.7038 7.86964C60.5447 8.43782 60.4652 9.61207 60.4652 11.3924V14.6121H60.5049Z" fill="#1C64F2"/>
<path d="M73.3117 14.6104V13.0195C72.9139 13.5877 72.3969 14.0422 71.7207 14.3452C71.0446 14.6861 70.3685 14.8377 69.6526 14.8377C68.8969 14.8377 68.2605 14.6861 67.6639 14.3831C67.0673 14.0801 66.6298 13.6255 66.3912 13.0573C66.1128 12.4892 65.9935 11.7316 65.9935 10.7089V4.08008H68.9367V8.92856C68.9367 10.4058 68.9764 11.3149 69.0957 11.6558C69.2151 11.9967 69.4139 12.2619 69.6923 12.4513C69.9707 12.6407 70.3287 12.7543 70.7662 12.7543C71.2832 12.7543 71.7207 12.6407 72.1185 12.3755C72.5162 12.1104 72.7946 11.8073 72.9139 11.3907C73.073 11.0119 73.1526 10.0649 73.1526 8.54977V4.08008H76.0957V14.6104H73.3117Z" fill="#1C64F2"/>
<path d="M89.1413 14.6121H86.1981V9.23328C86.1981 8.09692 86.1186 7.37722 85.9992 7.03631C85.8799 6.6954 85.6811 6.43025 85.4026 6.24086C85.1242 6.05146 84.7663 5.9757 84.3686 5.9757C83.8515 5.9757 83.414 6.08934 83.0163 6.35449C82.6186 6.61964 82.3401 6.96055 82.1811 7.4151C82.022 7.86964 81.9424 8.6651 81.9424 9.83934V14.6121H78.9992V4.08176H81.7038V5.6348C82.6583 4.46055 83.8913 3.85449 85.3629 3.85449C85.9992 3.85449 86.5958 3.96813 87.1526 4.1954C87.7095 4.42267 88.1072 4.68783 88.3856 5.02873C88.664 5.36964 88.8629 5.74843 88.9424 6.20298C89.0617 6.65752 89.1015 7.26358 89.1015 8.09692V14.6121H89.1413Z" fill="#1C64F2"/>
<path d="M97.1755 4.08008V6.31493H95.1868V10.5574C95.1868 11.4286 95.1868 11.921 95.2266 12.0725C95.2664 12.224 95.3459 12.3377 95.505 12.4134C95.6243 12.4892 95.8232 12.5649 95.9823 12.5649C96.2607 12.5649 96.6584 12.4892 97.1755 12.2998L97.4141 14.4589C96.738 14.724 95.9425 14.8755 95.1073 14.8755C94.5902 14.8755 94.113 14.7998 93.6755 14.6104C93.238 14.4589 92.9596 14.2316 92.7607 13.9664C92.5618 13.7013 92.4425 13.3225 92.363 12.868C92.2834 12.527 92.2834 11.8831 92.2834 10.8983V6.27705H90.9312V4.0422H92.2834V1.95887L95.2266 0.330078V4.0422H97.1755V4.08008Z" fill="#1C64F2"/>
<path d="M99.2437 2.64119V0.0654297H102.187V2.64119H99.2437ZM99.2437 14.6109V4.08058H102.187V14.6109H99.2437Z" fill="#1C64F2"/>
<path d="M104.931 4.08177H107.636V5.52116C108.59 4.3848 109.744 3.85449 111.096 3.85449C111.812 3.85449 112.408 4.00601 112.926 4.27116C113.443 4.53631 113.88 4.95298 114.198 5.52116C114.676 4.95298 115.193 4.53631 115.789 4.27116C116.346 4.00601 116.943 3.85449 117.579 3.85449C118.374 3.85449 119.09 4.00601 119.647 4.30904C120.204 4.61207 120.641 5.06661 120.92 5.71055C121.119 6.1651 121.238 6.88479 121.238 7.90752V14.6499H118.295V8.58934C118.295 7.52873 118.176 6.88479 117.977 6.58176C117.698 6.20298 117.301 5.9757 116.744 5.9757C116.346 5.9757 115.948 6.08934 115.59 6.31661C115.232 6.54389 114.954 6.92267 114.795 7.37722C114.636 7.83176 114.556 8.55146 114.556 9.57419V14.6499H111.613V8.81661C111.613 7.79389 111.573 7.11207 111.454 6.84692C111.335 6.54389 111.176 6.31661 110.977 6.1651C110.778 6.01358 110.46 5.93783 110.102 5.93783C109.664 5.93783 109.227 6.05146 108.869 6.27873C108.511 6.50601 108.232 6.84692 108.073 7.26358C107.914 7.68025 107.835 8.43783 107.835 9.42267V14.5363H104.891V4.08177H104.931Z" fill="#1C64F2"/>
<path d="M130.545 11.2397L133.448 11.6942C133.09 12.7169 132.494 13.4745 131.658 14.0048C130.863 14.5351 129.829 14.8003 128.636 14.8003C126.726 14.8003 125.295 14.1942 124.38 13.02C123.664 12.073 123.266 10.8609 123.266 9.38361C123.266 7.64119 123.744 6.27755 124.698 5.2927C125.653 4.30785 126.886 3.81543 128.317 3.81543C129.948 3.81543 131.261 4.34573 132.215 5.36846C133.17 6.39119 133.607 7.9821 133.567 10.1412H126.209C126.249 10.9745 126.448 11.6185 126.925 12.073C127.363 12.5276 127.959 12.7548 128.596 12.7548C129.073 12.7548 129.431 12.6412 129.749 12.4139C130.067 12.1866 130.386 11.77 130.545 11.2397ZM130.704 8.43664C130.664 7.64119 130.465 6.99725 130.028 6.58058C129.63 6.16391 129.113 5.93664 128.516 5.93664C127.88 5.93664 127.363 6.16391 126.925 6.61846C126.528 7.07301 126.289 7.67907 126.329 8.43664H130.704Z" fill="#1C64F2"/>
<path d="M60.7436 31.1268L56.2891 20.5965H59.3516L61.4198 25.9753L62.0164 27.7556C62.1755 27.301 62.2948 26.998 62.3345 26.8465C62.4141 26.5434 62.5334 26.2404 62.6527 25.9374L64.7607 20.5586H67.7834L63.3686 31.0889H60.7436V31.1268Z" fill="#1C64F2"/>
<path d="M76.0166 27.7543L78.92 28.2089C78.562 29.2316 77.9654 29.9892 77.1302 30.5195C76.3348 31.0498 75.3007 31.3149 74.1075 31.3149C72.1984 31.3149 70.7666 30.7089 69.8518 29.5346C69.1359 28.5877 68.7382 27.3755 68.7382 25.8983C68.7382 24.1558 69.2154 22.7922 70.17 21.8073C71.1245 20.8225 72.3575 20.3301 73.7893 20.3301C75.42 20.3301 76.7325 20.8604 77.687 21.8831C78.6416 22.9058 79.0791 24.4967 79.0393 26.6558H71.6813C71.7211 27.4892 71.92 28.1331 72.3972 28.5877C72.8348 29.0422 73.4313 29.2695 74.0677 29.2695C74.545 29.2695 74.9029 29.1558 75.2211 28.9286C75.5393 28.7013 75.8575 28.2846 76.0166 27.7543ZM76.1757 24.9513C76.1359 24.1558 75.937 23.5119 75.4995 23.0952C75.1018 22.6786 74.5848 22.4513 73.9882 22.4513C73.3518 22.4513 72.8348 22.6786 72.3972 23.1331C71.9995 23.5877 71.7609 24.1937 71.8007 24.9513H76.1757Z" fill="#1C64F2"/>
<path d="M84.2891 31.1267H81.3459V20.5964H84.0505V22.1116C84.5277 21.3919 84.9255 20.9373 85.3232 20.71C85.6811 20.4828 86.1187 20.3691 86.5959 20.3691C87.2721 20.3691 87.9084 20.5585 88.505 20.8994L87.5902 23.3237C87.113 23.0207 86.6357 22.8691 86.1982 22.8691C85.8005 22.8691 85.4425 22.9828 85.1641 23.2101C84.8857 23.4373 84.6471 23.8161 84.488 24.3843C84.3289 24.9525 84.2493 26.1267 84.2493 27.907V31.1267H84.2891Z" fill="#1C64F2"/>
<path d="M89.7779 19.1558V16.5801H92.7211V19.1558H89.7779ZM89.7779 31.1255V20.5952H92.7211V31.1255H89.7779Z" fill="#1C64F2"/>
<path d="M94.4311 20.5959H96.0618V19.8005C96.0618 18.9293 96.1414 18.2475 96.3402 17.8308C96.5391 17.4141 96.897 17.0353 97.4538 16.7702C97.9709 16.505 98.647 16.3535 99.4823 16.3535C100.317 16.3535 101.153 16.4672 101.948 16.6944L101.55 18.6262C101.073 18.5126 100.636 18.4747 100.198 18.4747C99.7607 18.4747 99.4823 18.5505 99.2834 18.7399C99.0845 18.9293 99.005 19.3081 99.005 19.8384V20.5959H101.192V22.7929H99.005V31.1262H96.0618V22.7929H94.4311V20.5959Z" fill="#1C64F2"/>
<path d="M102.823 19.1558V16.5801H105.766V19.1558H102.823ZM102.823 31.1255V20.5952H105.766V31.1255H102.823Z" fill="#1C64F2"/>
<path d="M118.414 23.7021L115.511 24.1945C115.431 23.6263 115.193 23.2475 114.835 22.9445C114.477 22.6793 114.039 22.5278 113.482 22.5278C112.767 22.5278 112.17 22.7551 111.732 23.2475C111.295 23.7399 111.096 24.5354 111.096 25.6718C111.096 26.9218 111.335 27.793 111.772 28.3233C112.21 28.8536 112.806 29.0808 113.562 29.0808C114.119 29.0808 114.556 28.9293 114.914 28.6263C115.272 28.3233 115.511 27.793 115.67 27.0733L118.534 27.5278C118.215 28.7778 117.659 29.7248 116.823 30.3687C115.988 31.0127 114.835 31.3157 113.403 31.3157C111.772 31.3157 110.5 30.8233 109.545 29.8384C108.59 28.8536 108.113 27.5278 108.113 25.7854C108.113 24.043 108.59 22.6793 109.545 21.7324C110.5 20.7475 111.812 20.293 113.482 20.293C114.835 20.293 115.909 20.5581 116.704 21.1263C117.5 21.7324 118.056 22.5657 118.414 23.7021Z" fill="#1C64F2"/>
<path d="M122.829 23.777L120.164 23.3225C120.482 22.2998 120.959 21.5422 121.715 21.0498C122.431 20.5574 123.545 20.3301 124.977 20.3301C126.289 20.3301 127.244 20.4816 127.88 20.7846C128.516 21.0877 128.954 21.4664 129.232 21.921C129.511 22.3755 129.63 23.2089 129.63 24.421L129.59 27.6786C129.59 28.5877 129.63 29.3074 129.749 29.724C129.829 30.1786 130.028 30.6331 130.266 31.1255H127.363C127.283 30.9361 127.204 30.671 127.084 30.2922C127.045 30.1407 127.005 30.027 126.965 29.9513C126.448 30.4058 125.931 30.7467 125.374 31.0119C124.817 31.2392 124.181 31.3528 123.545 31.3528C122.391 31.3528 121.516 31.0498 120.84 30.4816C120.164 29.8755 119.846 29.1558 119.846 28.2467C119.846 27.6407 120.005 27.1104 120.283 26.6558C120.602 26.2013 120.999 25.8225 121.556 25.5952C122.113 25.368 122.869 25.1407 123.903 24.9513C125.255 24.724 126.209 24.4967 126.766 24.2695V24.0043C126.766 23.474 126.647 23.0952 126.369 22.868C126.09 22.6407 125.573 22.527 124.778 22.527C124.261 22.527 123.863 22.6407 123.545 22.8301C123.227 22.9437 122.988 23.3225 122.829 23.777ZM126.727 26.0498C126.369 26.1634 125.772 26.3149 124.937 26.4664C124.141 26.618 123.584 26.8074 123.346 26.9589C122.948 27.224 122.789 27.527 122.789 27.9437C122.789 28.3225 122.948 28.6634 123.266 28.9664C123.584 29.2695 123.942 29.3831 124.42 29.3831C124.937 29.3831 125.454 29.2316 125.931 28.8907C126.289 28.6255 126.528 28.3225 126.647 27.9816C126.727 27.7543 126.766 27.2998 126.766 26.618V26.0498H126.727Z" fill="#1C64F2"/>
<path d="M137.585 20.5959V22.8308H135.596V27.0353C135.596 27.9065 135.596 28.3989 135.636 28.5505C135.676 28.702 135.755 28.8156 135.914 28.8914C136.034 28.9671 136.232 29.0429 136.391 29.0429C136.67 29.0429 137.068 28.9671 137.585 28.7777L137.823 30.9368C137.147 31.202 136.352 31.3535 135.516 31.3535C134.999 31.3535 134.522 31.2777 134.085 31.0883C133.647 30.9368 133.369 30.7095 133.17 30.4444C132.971 30.1792 132.852 29.8005 132.772 29.3459C132.693 29.005 132.693 28.3611 132.693 27.3762V22.7929H131.34V20.5959H132.693V18.5126L135.636 16.8838V20.5959H137.585Z" fill="#1C64F2"/>
<path d="M139.613 19.1558V16.5801H142.556V19.1558H139.613ZM139.613 31.1255V20.5952H142.556V31.1255H139.613Z" fill="#1C64F2"/>
<path d="M144.863 25.71C144.863 24.801 145.101 23.8919 145.579 23.0207C146.056 22.1494 146.732 21.5055 147.607 21.051C148.482 20.5964 149.476 20.3691 150.55 20.3691C152.221 20.3691 153.613 20.8994 154.687 21.9222C155.761 22.9449 156.278 24.2707 156.278 25.8616C156.278 27.4525 155.721 28.7782 154.647 29.8388C153.573 30.8994 152.221 31.4297 150.55 31.4297C149.516 31.4297 148.562 31.2025 147.647 30.7858C146.732 30.3691 146.016 29.7252 145.539 28.854C145.101 27.9449 144.863 26.9222 144.863 25.71ZM147.886 25.8616C147.886 26.9222 148.164 27.7176 148.681 28.2479C149.198 28.8161 149.834 29.0813 150.59 29.0813C151.346 29.0813 151.982 28.8161 152.499 28.2479C153.016 27.6797 153.295 26.8843 153.295 25.8237C153.295 24.801 153.016 24.0055 152.499 23.4373C151.982 22.8691 151.346 22.604 150.59 22.604C149.834 22.604 149.198 22.8691 148.681 23.4373C148.124 24.0055 147.886 24.801 147.886 25.8616Z" fill="#1C64F2"/>
<path d="M168.647 31.1255H165.704V25.7467C165.704 24.6104 165.624 23.8907 165.505 23.5498C165.386 23.2089 165.187 22.9437 164.908 22.7543C164.63 22.5649 164.272 22.4892 163.874 22.4892C163.357 22.4892 162.92 22.6028 162.522 22.868C162.124 23.1331 161.846 23.474 161.687 23.9286C161.528 24.3831 161.448 25.1786 161.448 26.3528V31.1255H158.505V20.5952H161.209V22.1104C162.164 20.9361 163.397 20.3301 164.869 20.3301C165.505 20.3301 166.101 20.4437 166.658 20.671C167.175 20.8983 167.613 21.1634 167.891 21.5043C168.17 21.8452 168.369 22.224 168.448 22.6786C168.567 23.1331 168.607 23.7392 168.607 24.5725V31.1255H168.647Z" fill="#1C64F2"/>
<path d="M42.4879 2.52684C40.0618 1.08745 36.8402 0.291992 33.38 0.291992C29.9197 0.291992 26.6981 1.08745 24.272 2.52684C23.3572 3.05714 22.6015 3.6632 22.005 4.34502C19.6981 1.73139 16.9538 0.291992 14.0504 0.291992C10.3913 0.291992 6.97086 2.56472 4.46518 6.65563C1.99928 10.6708 0.647003 15.9738 0.647003 21.5799C0.647003 24.4587 2.11859 26.8829 4.94246 28.5874C7.36859 30.0268 10.5902 30.8223 14.0504 30.8223C17.5106 30.8223 20.7322 30.0268 23.1584 28.5874C24.0731 28.0571 24.8288 27.4511 25.4254 26.7693C27.6925 29.4208 30.4368 30.8223 33.3402 30.8223C36.9993 30.8223 40.4197 28.5496 42.9254 24.4587C45.3913 20.4435 46.7436 15.1405 46.7436 9.53442C46.7834 6.65563 45.3118 4.23139 42.4879 2.52684ZM26.7379 26.0874C28.1697 25.595 29.2038 24.2693 29.2038 22.7162C29.2038 21.4284 28.4879 20.292 27.414 19.6481C27.2152 16.2011 26.4993 12.9056 25.3061 9.98896C25.5447 9.49654 25.7038 8.96624 25.7038 8.39805C25.7038 6.8829 24.7095 5.59502 23.2777 5.06472C25.147 3.1329 28.4481 1.69351 33.3402 1.69351C36.522 1.69351 39.5049 2.4132 41.6924 3.73896C43.3629 4.72381 45.3118 6.54199 45.3118 9.5723C45.3118 20.5571 39.9424 29.4965 33.3402 29.4965C30.914 29.4587 28.647 28.2087 26.7379 26.0874ZM14.0504 29.4587C5.81746 29.4587 2.07882 25.4056 2.07882 21.6178C2.07882 10.6329 7.44814 1.69351 14.0504 1.69351C16.5163 1.69351 18.7834 2.94351 20.6925 5.06472C19.2606 5.55714 18.2265 6.8829 18.2265 8.43593C18.2265 9.72381 18.9425 10.8602 20.0163 11.5041C20.255 11.6556 20.4936 11.7693 20.772 11.845C21.0106 11.9208 21.2493 11.9965 21.5277 11.9965C21.6868 11.9965 21.8459 12.0344 22.005 12.0344C22.88 12.0344 23.6754 11.7693 24.3118 11.2768C25.1868 13.6632 25.7436 16.3526 25.9822 19.2314C25.8231 19.2314 25.664 19.1935 25.505 19.1935C24.63 19.1935 23.8345 19.4587 23.1981 19.9511C22.9993 20.1026 22.8004 20.292 22.6413 20.4814C22.4425 20.7087 22.2834 20.9359 22.1243 21.2011C21.8856 21.6935 21.7265 22.2238 21.7265 22.8299C21.7265 24.345 22.7209 25.6329 24.1129 26.1632C22.2038 28.0193 18.9027 29.4587 14.0504 29.4587ZM27.772 22.7541C27.772 23.4359 27.4538 24.042 26.9368 24.4208C26.6584 24.6481 26.3004 24.8374 25.9027 24.9132C25.8629 24.9132 25.8231 24.9132 25.7436 24.9511C25.6243 24.9511 25.5447 24.989 25.4254 24.989C25.2663 24.989 25.147 24.989 24.9879 24.9511C24.9481 24.9511 24.9084 24.9511 24.8686 24.9132C23.8743 24.6859 23.1186 23.8147 23.1186 22.792C23.1186 22.5268 23.1584 22.2996 23.2379 22.0723C23.3175 21.8071 23.4765 21.542 23.6754 21.3526C24.1129 20.8981 24.7095 20.595 25.3856 20.595C25.5845 20.595 25.7436 20.6329 25.9425 20.6708C26.2209 20.7465 26.4595 20.8223 26.6981 20.9738C27.0163 21.1632 27.255 21.4284 27.414 21.7314C27.6527 21.9965 27.772 22.3374 27.772 22.7541ZM24.272 8.39805C24.272 8.66321 24.2322 8.89048 24.1527 9.11775C24.0731 9.3829 23.914 9.64805 23.7152 9.83745C23.2777 10.292 22.6811 10.595 21.9652 10.595C21.7663 10.595 21.6072 10.5571 21.4084 10.5193C21.13 10.4435 20.8913 10.3678 20.6527 10.2162C20.3345 10.0268 20.0959 9.76169 19.9368 9.45866C19.7379 9.15563 19.6584 8.77684 19.6584 8.39805C19.6584 7.71624 19.9765 7.11017 20.4936 6.73139C20.772 6.50411 21.13 6.31472 21.5277 6.23896C21.5675 6.23896 21.6072 6.23896 21.6868 6.20108C21.8061 6.20108 21.8856 6.1632 22.005 6.1632C22.164 6.1632 22.2834 6.1632 22.4425 6.20108C22.4822 6.20108 22.522 6.23896 22.6015 6.23896C23.5163 6.50411 24.272 7.37533 24.272 8.39805Z" fill="#1C64F2"/>
<path d="M22.6017 20.407C22.7608 20.2176 22.9597 20.0282 23.1585 19.8767C23.7949 19.4222 24.5904 19.1191 25.4654 19.1191C25.6244 19.1191 25.7835 19.1191 25.9426 19.157C25.7438 16.2782 25.1472 13.5888 24.2722 11.2025C23.6358 11.657 22.8403 11.96 21.9653 11.96C21.8063 11.96 21.6472 11.96 21.4881 11.9222C21.2494 11.8843 20.971 11.8464 20.7324 11.7707C20.454 11.6949 20.2153 11.5813 19.9767 11.4297C18.9028 10.7858 18.1869 9.64944 18.1869 8.36157C18.1869 6.80854 19.221 5.48278 20.6529 4.99035C18.7438 2.86914 16.4767 1.61914 14.0108 1.61914C7.40853 1.61914 2.03922 10.5585 2.03922 21.5434C2.03922 25.3313 5.77785 29.3843 14.0108 29.3843C18.8631 29.3843 22.1642 27.9449 24.0335 26.0131C22.6415 25.4828 21.6472 24.1949 21.6472 22.6797C21.6472 22.1116 21.8063 21.5434 22.0449 21.051C22.2438 20.8616 22.4028 20.6343 22.6017 20.407Z" fill="#9BC2FC"/>
<path d="M25.7436 8.39867C25.7436 8.96686 25.5845 9.53504 25.3459 9.98958C26.539 12.8684 27.2549 16.2017 27.414 19.6866C28.4879 20.3305 29.2038 21.4669 29.2038 22.7547C29.2038 24.3078 28.1697 25.6335 26.7379 26.1259C28.647 28.2472 30.914 29.4593 33.3799 29.4593C39.9822 29.4593 45.3515 20.5199 45.3515 9.53504C45.3515 6.50473 43.3629 4.72443 41.7322 3.7017C39.5447 2.37595 36.6015 1.65625 33.3799 1.65625C28.4879 1.69413 25.1868 3.09564 23.3174 5.06534C24.7095 5.59564 25.7436 6.88352 25.7436 8.39867Z" fill="#C8DCFA"/>
</svg>
