<svg width="107" height="21" viewBox="0 0 107 21" fill="none" xmlns="http://www.w3.org/2000/svg">
<path d="M38.2505 9.58797H36.3857V2.91597H38.0993V3.87597C38.4017 3.41997 38.6537 3.13197 38.9057 2.98797C39.1577 2.84397 39.4097 2.77197 39.7121 2.77197C40.1405 2.77197 40.5437 2.89197 40.9217 3.10797L40.3421 4.64397C40.0397 4.45197 39.7373 4.35597 39.4601 4.35597C39.2081 4.35597 38.9813 4.42797 38.8049 4.57197C38.6285 4.71597 38.4773 4.95597 38.3765 5.31597C38.2757 5.67597 38.2253 6.41997 38.2253 7.54797V9.58797H38.2505Z" fill="black"/>
<path d="M46.3648 9.58801V8.58001C46.1128 8.94001 45.7852 9.22801 45.3568 9.42001C44.9284 9.63601 44.5 9.73201 44.0464 9.73201C43.5676 9.73201 43.1644 9.63601 42.7864 9.44401C42.4084 9.25201 42.1312 8.96401 41.98 8.60401C41.8036 8.24401 41.728 7.76402 41.728 7.11602V2.91602H43.5928V5.98802C43.5928 6.92402 43.618 7.50002 43.6936 7.71601C43.7692 7.93201 43.8952 8.10001 44.0716 8.22001C44.248 8.34001 44.4748 8.41201 44.752 8.41201C45.0796 8.41201 45.3568 8.34001 45.6088 8.17201C45.8608 8.00401 46.0372 7.81202 46.1128 7.54802C46.2136 7.30801 46.264 6.70802 46.264 5.74802V2.91602H48.1288V9.58801H46.3648Z" fill="black"/>
<path d="M56.3943 9.58797H54.5295V6.17997C54.5295 5.45997 54.4791 5.00397 54.4035 4.78797C54.3279 4.57197 54.2019 4.40397 54.0255 4.28397C53.8491 4.16397 53.6223 4.11597 53.3703 4.11597C53.0427 4.11597 52.7655 4.18797 52.5135 4.35597C52.2615 4.52397 52.0851 4.73997 51.9843 5.02797C51.8835 5.31597 51.8331 5.81997 51.8331 6.56397V9.58797H49.9683V2.91597H51.6819V3.89997C52.2867 3.15597 53.0679 2.77197 54.0003 2.77197C54.4035 2.77197 54.7815 2.84397 55.1343 2.98797C55.4871 3.13197 55.7391 3.29997 55.9155 3.51597C56.0919 3.73197 56.2179 3.97197 56.2683 4.25997C56.3439 4.54797 56.3691 4.93197 56.3691 5.45997V9.58797H56.3943Z" fill="black"/>
<path d="M61.4847 2.91604V4.33204H60.2247V7.02004C60.2247 7.57204 60.2247 7.88404 60.2499 7.98004C60.2751 8.07604 60.3255 8.14804 60.4263 8.19604C60.5019 8.24404 60.6279 8.29204 60.7287 8.29204C60.9051 8.29204 61.1571 8.24404 61.4847 8.12404L61.6359 9.49204C61.2075 9.66004 60.7035 9.75604 60.1743 9.75604C59.8467 9.75604 59.5443 9.70804 59.2671 9.58804C58.9899 9.49204 58.8135 9.34804 58.6875 9.18004C58.5615 9.01204 58.4859 8.77204 58.4355 8.48404C58.3851 8.26804 58.3851 7.86004 58.3851 7.23604V4.30804H57.5283V2.89204H58.3851V1.57204L60.2499 0.540039V2.89204H61.4847V2.91604Z" fill="black"/>
<path d="M62.7949 2.00407V0.37207H64.6597V2.00407H62.7949ZM62.7949 9.58807V2.91607H64.6597V9.58807H62.7949Z" fill="black"/>
<path d="M66.3987 2.91597H68.1123V3.82797C68.7171 3.10797 69.4479 2.77197 70.3047 2.77197C70.7583 2.77197 71.1363 2.86797 71.4639 3.03597C71.7915 3.20397 72.0687 3.46797 72.2703 3.82797C72.5727 3.46797 72.9003 3.20397 73.2783 3.03597C73.6311 2.86797 74.0091 2.77197 74.4123 2.77197C74.9163 2.77197 75.3699 2.86797 75.7227 3.05997C76.0755 3.25197 76.3527 3.53997 76.5291 3.94797C76.6551 4.23597 76.7307 4.69197 76.7307 5.33997V9.61197H74.8659V5.77197C74.8659 5.09997 74.7903 4.69197 74.6643 4.49997C74.4879 4.25997 74.2359 4.11597 73.8831 4.11597C73.6311 4.11597 73.3791 4.18797 73.1523 4.33197C72.9255 4.47597 72.7491 4.71597 72.6483 5.00397C72.5475 5.29197 72.4971 5.74797 72.4971 6.39597V9.61197H70.6323V5.91597C70.6323 5.26797 70.6071 4.83597 70.5315 4.66797C70.4559 4.47597 70.3551 4.33197 70.2291 4.23597C70.1031 4.13997 69.9015 4.09197 69.6747 4.09197C69.3975 4.09197 69.1203 4.16397 68.8935 4.30797C68.6667 4.45197 68.4903 4.66797 68.3895 4.93197C68.2887 5.19597 68.2383 5.67597 68.2383 6.29997V9.53997H66.3735V2.91597H66.3987Z" fill="black"/>
<path d="M82.6277 7.45205L84.4673 7.74005C84.2405 8.38805 83.8625 8.86805 83.3333 9.20405C82.8293 9.54005 82.1741 9.70805 81.4181 9.70805C80.2085 9.70805 79.3013 9.32405 78.7217 8.58005C78.2681 7.98005 78.0161 7.21205 78.0161 6.27605C78.0161 5.17205 78.3185 4.30805 78.9233 3.68405C79.5281 3.06005 80.3093 2.74805 81.2165 2.74805C82.2497 2.74805 83.0813 3.08405 83.6861 3.73205C84.2909 4.38005 84.5681 5.38805 84.5429 6.75605H79.8809C79.9061 7.28405 80.0321 7.69205 80.3345 7.98005C80.6117 8.26805 80.9897 8.41205 81.3929 8.41205C81.6953 8.41205 81.9221 8.34005 82.1237 8.19605C82.3253 8.05205 82.5269 7.78805 82.6277 7.45205ZM82.7285 5.67605C82.7033 5.17205 82.5773 4.76405 82.3001 4.50005C82.0481 4.23605 81.7205 4.09205 81.3425 4.09205C80.9393 4.09205 80.6117 4.23605 80.3345 4.52405C80.0825 4.81205 79.9313 5.19605 79.9565 5.67605H82.7285Z" fill="black"/>
<path d="M38.4015 20.052L35.5791 13.38H37.5195L38.8299 16.788L39.2079 17.916C39.3087 17.628 39.3843 17.436 39.4095 17.34C39.4599 17.148 39.5355 16.956 39.6111 16.764L40.9467 13.356H42.8619L40.0647 20.028H38.4015V20.052Z" fill="black"/>
<path d="M48.0784 17.9159L49.918 18.2039C49.6912 18.8519 49.3132 19.3319 48.784 19.6679C48.28 20.0039 47.6248 20.1719 46.8688 20.1719C45.6592 20.1719 44.752 19.7879 44.1724 19.0439C43.7188 18.4439 43.4668 17.6759 43.4668 16.7399C43.4668 15.6359 43.7692 14.7719 44.374 14.1479C44.9788 13.5239 45.76 13.2119 46.6672 13.2119C47.7004 13.2119 48.532 13.5479 49.1368 14.1959C49.7416 14.8439 50.0188 15.8519 49.9936 17.2199H45.3316C45.3568 17.7479 45.4828 18.1559 45.7852 18.4439C46.0624 18.7319 46.4404 18.8759 46.8436 18.8759C47.146 18.8759 47.3728 18.8039 47.5744 18.6599C47.776 18.5159 47.9776 18.2519 48.0784 17.9159ZM48.1792 16.1399C48.154 15.6359 48.028 15.2279 47.7508 14.9639C47.4988 14.6999 47.1712 14.5559 46.7932 14.5559C46.39 14.5559 46.0624 14.6999 45.7852 14.9879C45.5332 15.2759 45.382 15.6599 45.4072 16.1399H48.1792Z" fill="black"/>
<path d="M53.3199 20.0518H51.4551V13.3798H53.1687V14.3398C53.4711 13.8838 53.7231 13.5958 53.9751 13.4518C54.2019 13.3078 54.4791 13.2358 54.7815 13.2358C55.2099 13.2358 55.6131 13.3558 55.9911 13.5718L55.4115 15.1078C55.1091 14.9158 54.8067 14.8198 54.5295 14.8198C54.2775 14.8198 54.0507 14.8918 53.8743 15.0358C53.6979 15.1798 53.5467 15.4198 53.4459 15.7798C53.3451 16.1398 53.2947 16.8838 53.2947 18.0118V20.0518H53.3199Z" fill="black"/>
<path d="M56.7974 12.4679V10.8359H58.6622V12.4679H56.7974ZM56.7974 20.0519V13.3799H58.6622V20.0519H56.7974Z" fill="black"/>
<path d="M59.7461 13.3799H60.7793V12.8759C60.7793 12.3239 60.8297 11.8919 60.9557 11.6279C61.0817 11.3639 61.3085 11.1239 61.6613 10.9559C61.9889 10.7879 62.4173 10.6919 62.9465 10.6919C63.4757 10.6919 64.0049 10.7639 64.5089 10.9079L64.2569 12.1319C63.9545 12.0599 63.6773 12.0359 63.4001 12.0359C63.1229 12.0359 62.9465 12.0839 62.8205 12.2039C62.6945 12.3239 62.6441 12.5639 62.6441 12.8999V13.3799H64.0301V14.7719H62.6441V20.0519H60.7793V14.7719H59.7461V13.3799Z" fill="black"/>
<path d="M65.063 12.4679V10.8359H66.9278V12.4679H65.063ZM65.063 20.0519V13.3799H66.9278V20.0519H65.063Z" fill="black"/>
<path d="M74.9413 15.348L73.1017 15.66C73.0513 15.3 72.9001 15.06 72.6733 14.868C72.4465 14.7 72.1693 14.604 71.8165 14.604C71.3629 14.604 70.9849 14.748 70.7077 15.06C70.4305 15.372 70.3045 15.876 70.3045 16.596C70.3045 17.388 70.4557 17.94 70.7329 18.276C71.0101 18.612 71.3881 18.756 71.8669 18.756C72.2197 18.756 72.4969 18.66 72.7237 18.468C72.9505 18.276 73.1017 17.94 73.2025 17.484L75.0169 17.772C74.8153 18.564 74.4625 19.164 73.9333 19.572C73.4041 19.98 72.6733 20.172 71.7661 20.172C70.7329 20.172 69.9265 19.86 69.3217 19.236C68.7169 18.612 68.4146 17.772 68.4146 16.668C68.4146 15.564 68.7169 14.7 69.3217 14.1C69.9265 13.476 70.7581 13.188 71.8165 13.188C72.6733 13.188 73.3537 13.356 73.8577 13.716C74.3617 14.1 74.7145 14.628 74.9413 15.348Z" fill="black"/>
<path d="M77.7386 15.3959L76.0502 15.1079C76.2518 14.4599 76.5542 13.9799 77.033 13.6679C77.4866 13.3559 78.1922 13.2119 79.0994 13.2119C79.931 13.2119 80.5358 13.3079 80.939 13.4999C81.3422 13.6919 81.6194 13.9319 81.7958 14.2199C81.9722 14.5079 82.0478 15.0359 82.0478 15.8039L82.0226 17.8679C82.0226 18.4439 82.0478 18.8999 82.1234 19.1639C82.1738 19.4519 82.2998 19.7399 82.451 20.0519H80.6114C80.561 19.9319 80.5106 19.7639 80.435 19.5239C80.4098 19.4279 80.3846 19.3559 80.3594 19.3079C80.0318 19.5959 79.7042 19.8119 79.3514 19.9799C78.9986 20.1239 78.5954 20.1959 78.1922 20.1959C77.4614 20.1959 76.907 20.0039 76.4786 19.6439C76.0502 19.2599 75.8486 18.8039 75.8486 18.2279C75.8486 17.8439 75.9494 17.5079 76.1258 17.2199C76.3274 16.9319 76.5794 16.6919 76.9322 16.5479C77.285 16.4039 77.7638 16.2599 78.419 16.1399C79.2758 15.9959 79.8806 15.8519 80.2334 15.7079V15.5399C80.2334 15.2039 80.1578 14.9639 79.9814 14.8199C79.805 14.6759 79.4774 14.6039 78.9734 14.6039C78.6458 14.6039 78.3938 14.6759 78.1922 14.7959C77.9906 14.8679 77.8394 15.1079 77.7386 15.3959ZM80.2082 16.8359C79.9814 16.9079 79.6034 17.0039 79.0742 17.0999C78.5702 17.1959 78.2174 17.3159 78.0662 17.4119C77.8142 17.5799 77.7134 17.7719 77.7134 18.0359C77.7134 18.2759 77.8142 18.4919 78.0158 18.6839C78.2174 18.8759 78.4442 18.9479 78.7466 18.9479C79.0742 18.9479 79.4018 18.8519 79.7042 18.6359C79.931 18.4679 80.0822 18.2759 80.1578 18.0599C80.2082 17.9159 80.2334 17.6279 80.2334 17.1959V16.8359H80.2082Z" fill="black"/>
<path d="M87.0877 13.3798V14.7958H85.8277V17.4598C85.8277 18.0118 85.8277 18.3238 85.8529 18.4198C85.8781 18.5158 85.9285 18.5878 86.0293 18.6358C86.1049 18.6838 86.2309 18.7318 86.3317 18.7318C86.5081 18.7318 86.7601 18.6838 87.0877 18.5638L87.2389 19.9318C86.8105 20.0998 86.3065 20.1958 85.7773 20.1958C85.4497 20.1958 85.1473 20.1478 84.8701 20.0278C84.5929 19.9318 84.4165 19.7878 84.2905 19.6198C84.1645 19.4518 84.0889 19.2118 84.0385 18.9238C83.9881 18.7078 83.9881 18.2998 83.9881 17.6758V14.7718H83.1313V13.3798H83.9881V12.0598L85.8529 11.0278V13.3798H87.0877Z" fill="black"/>
<path d="M88.373 12.4679V10.8359H90.2378V12.4679H88.373ZM88.373 20.0519V13.3799H90.2378V20.0519H88.373Z" fill="black"/>
<path d="M91.6997 16.6198C91.6997 16.0438 91.8509 15.4678 92.1533 14.9158C92.4557 14.3638 92.8841 13.9558 93.4385 13.6678C93.9929 13.3798 94.6229 13.2358 95.3033 13.2358C96.3617 13.2358 97.2437 13.5718 97.9241 14.2198C98.6045 14.8678 98.9321 15.7078 98.9321 16.7158C98.9321 17.7238 98.5793 18.5638 97.8989 19.2358C97.2185 19.9078 96.3617 20.2438 95.3033 20.2438C94.6481 20.2438 94.0433 20.0998 93.4637 19.8358C92.8841 19.5718 92.4305 19.1638 92.1281 18.6118C91.8509 18.0358 91.6997 17.3878 91.6997 16.6198ZM93.6149 16.7158C93.6149 17.3878 93.7913 17.8918 94.1189 18.2278C94.4465 18.5878 94.8497 18.7558 95.3285 18.7558C95.8073 18.7558 96.2105 18.5878 96.5381 18.2278C96.8657 17.8678 97.0421 17.3638 97.0421 16.6918C97.0421 16.0438 96.8657 15.5398 96.5381 15.1798C96.2105 14.8198 95.8073 14.6518 95.3285 14.6518C94.8497 14.6518 94.4465 14.8198 94.1189 15.1798C93.7661 15.5398 93.6149 16.0438 93.6149 16.7158Z" fill="black"/>
<path d="M106.769 20.0519H104.904V16.6439C104.904 15.9239 104.854 15.4679 104.778 15.2519C104.703 15.0359 104.577 14.8679 104.4 14.7479C104.224 14.6279 103.997 14.5799 103.745 14.5799C103.418 14.5799 103.14 14.6519 102.888 14.8199C102.636 14.9879 102.46 15.2039 102.359 15.4919C102.258 15.7799 102.208 16.2839 102.208 17.0279V20.0519H100.343V13.3799H102.057V14.3399C102.662 13.5959 103.443 13.2119 104.375 13.2119C104.778 13.2119 105.156 13.2839 105.509 13.4279C105.837 13.5719 106.114 13.7399 106.29 13.9559C106.467 14.1719 106.593 14.4119 106.643 14.6999C106.719 14.9879 106.744 15.3719 106.744 15.8999V20.0519H106.769Z" fill="black"/>
<path d="M26.8346 1.93211C25.2974 1.02011 23.2562 0.516113 21.0638 0.516113C18.8714 0.516113 16.8302 1.02011 15.293 1.93211C14.7134 2.26811 14.2346 2.65211 13.8566 3.08411C12.395 1.42811 10.6562 0.516113 8.81662 0.516113C6.49822 0.516113 4.33102 1.95611 2.74342 4.54811C1.18102 7.09211 0.324219 10.4521 0.324219 14.0041C0.324219 15.8281 1.25662 17.3641 3.04582 18.4441C4.58302 19.3561 6.62422 19.8601 8.81662 19.8601C11.009 19.8601 13.0502 19.3561 14.5874 18.4441C15.167 18.1081 15.6458 17.7241 16.0238 17.2921C17.4602 18.9721 19.199 19.8601 21.0386 19.8601C23.357 19.8601 25.5242 18.4201 27.1118 15.8281C28.6742 13.2841 29.531 9.92411 29.531 6.37211C29.5562 4.54811 28.6238 3.01211 26.8346 1.93211ZM16.8554 16.8601C17.7626 16.5481 18.4178 15.7081 18.4178 14.7241C18.4178 13.9081 17.9642 13.1881 17.2838 12.7801C17.1578 10.5961 16.7042 8.50811 15.9482 6.66011C16.0994 6.34811 16.2002 6.01211 16.2002 5.65211C16.2002 4.69211 15.5702 3.87611 14.663 3.54011C15.8474 2.31611 17.939 1.40411 21.0386 1.40411C23.0546 1.40411 24.9446 1.86011 26.3306 2.70011C27.389 3.32411 28.6238 4.47611 28.6238 6.39611C28.6238 13.3561 25.2218 19.0201 21.0386 19.0201C19.5014 18.9961 18.065 18.2041 16.8554 16.8601ZM8.81662 18.9961C3.60022 18.9961 1.23142 16.4281 1.23142 14.0281C1.23142 7.06811 4.63342 1.40411 8.81662 1.40411C10.379 1.40411 11.8154 2.19611 13.025 3.54011C12.1178 3.85211 11.4626 4.69211 11.4626 5.67611C11.4626 6.49211 11.9162 7.21211 12.5966 7.62011C12.7478 7.71611 12.899 7.78811 13.0754 7.83611C13.2266 7.88411 13.3778 7.93211 13.5542 7.93211C13.655 7.93211 13.7558 7.95611 13.8566 7.95611C14.411 7.95611 14.915 7.78811 15.3182 7.47611C15.8726 8.98811 16.2254 10.6921 16.3766 12.5161C16.2758 12.5161 16.175 12.4921 16.0742 12.4921C15.5198 12.4921 15.0158 12.6601 14.6126 12.9721C14.4866 13.0681 14.3606 13.1881 14.2598 13.3081C14.1338 13.4521 14.033 13.5961 13.9322 13.7641C13.781 14.0761 13.6802 14.4121 13.6802 14.7961C13.6802 15.7561 14.3102 16.5721 15.1922 16.9081C13.9826 18.0841 11.891 18.9961 8.81662 18.9961ZM17.5106 14.7481C17.5106 15.1801 17.309 15.5641 16.9814 15.8041C16.805 15.9481 16.5782 16.0681 16.3262 16.1161C16.301 16.1161 16.2758 16.1161 16.2254 16.1401C16.1498 16.1401 16.0994 16.1641 16.0238 16.1641C15.923 16.1641 15.8474 16.1641 15.7466 16.1401C15.7214 16.1401 15.6962 16.1401 15.671 16.1161C15.041 15.9721 14.5622 15.4201 14.5622 14.7721C14.5622 14.6041 14.5874 14.4601 14.6378 14.3161C14.6882 14.1481 14.789 13.9801 14.915 13.8601C15.1922 13.5721 15.5702 13.3801 15.9986 13.3801C16.1246 13.3801 16.2254 13.4041 16.3514 13.4281C16.5278 13.4761 16.679 13.5241 16.8302 13.6201C17.0318 13.7401 17.183 13.9081 17.2838 14.1001C17.435 14.2681 17.5106 14.4841 17.5106 14.7481ZM15.293 5.65211C15.293 5.82011 15.2678 5.96411 15.2174 6.10811C15.167 6.27611 15.0662 6.44411 14.9402 6.56411C14.663 6.85211 14.285 7.04411 13.8314 7.04411C13.7054 7.04411 13.6046 7.02011 13.4786 6.99611C13.3022 6.94811 13.151 6.90011 12.9998 6.80411C12.7982 6.68411 12.647 6.51611 12.5462 6.32411C12.4202 6.13211 12.3698 5.89211 12.3698 5.65211C12.3698 5.22011 12.5714 4.83611 12.899 4.59611C13.0754 4.45211 13.3022 4.33211 13.5542 4.28411C13.5794 4.28411 13.6046 4.28411 13.655 4.26011C13.7306 4.26011 13.781 4.23611 13.8566 4.23611C13.9574 4.23611 14.033 4.23611 14.1338 4.26011C14.159 4.26011 14.1842 4.28411 14.2346 4.28411C14.8142 4.45211 15.293 5.00411 15.293 5.65211Z" fill="black"/>
<path d="M14.2345 13.26C14.3353 13.14 14.4613 13.02 14.5873 12.924C14.9905 12.636 15.4945 12.444 16.0489 12.444C16.1497 12.444 16.2505 12.444 16.3513 12.468C16.2253 10.644 15.8473 8.93996 15.2929 7.42796C14.8897 7.71596 14.3857 7.90796 13.8313 7.90796C13.7305 7.90796 13.6297 7.90796 13.5289 7.88396C13.3777 7.85996 13.2013 7.83596 13.0501 7.78796C12.8737 7.73996 12.7225 7.66796 12.5713 7.57196C11.8909 7.16396 11.4373 6.44396 11.4373 5.62796C11.4373 4.64396 12.0925 3.80396 12.9997 3.49196C11.7901 2.14796 10.3537 1.35596 8.79125 1.35596C4.60805 1.35596 1.20605 7.01996 1.20605 13.98C1.20605 16.38 3.57485 18.948 8.79125 18.948C11.8657 18.948 13.9573 18.036 15.1417 16.812C14.2597 16.476 13.6297 15.66 13.6297 14.7C13.6297 14.34 13.7305 13.98 13.8817 13.668C14.0077 13.548 14.1085 13.404 14.2345 13.26Z" fill="#0097CB"/>
<path d="M16.2252 5.65188C16.2252 6.01188 16.1244 6.37188 15.9732 6.65988C16.7292 8.48388 17.1828 10.5959 17.2836 12.8039C17.964 13.2119 18.4176 13.9319 18.4176 14.7479C18.4176 15.7319 17.7624 16.5719 16.8552 16.8839C18.0648 18.2279 19.5012 18.9959 21.0636 18.9959C25.2468 18.9959 28.6488 13.3319 28.6488 6.37188C28.6488 4.45188 27.3888 3.32388 26.3556 2.67588C24.9696 1.83588 23.1048 1.37988 21.0636 1.37988C17.964 1.40388 15.8724 2.29188 14.688 3.53988C15.57 3.87588 16.2252 4.69188 16.2252 5.65188Z" fill="#FFCC07"/>
</svg>
