<svg width="167" height="31" viewBox="0 0 167 31" fill="none" xmlns="http://www.w3.org/2000/svg">
<path d="M4.74551 19.7812C4.95346 20.1372 5.22172 20.4287 5.54973 20.6545C5.87831 20.8809 6.25572 21.0484 6.68253 21.1566C7.10934 21.2641 7.5528 21.3179 8.01236 21.3179C8.34094 21.3179 8.6856 21.2811 9.04692 21.2047C9.40767 21.1294 9.73625 21.0105 10.0315 20.8492C10.3274 20.6873 10.5732 20.4717 10.7702 20.2017C10.9673 19.9323 11.0655 19.5927 11.0655 19.1823C11.0655 18.4924 10.6002 17.9751 9.67019 17.6298C8.7396 17.2851 7.44251 16.9399 5.77951 16.5946C5.10109 16.444 4.43876 16.2663 3.79309 16.0609C3.14685 15.8565 2.57241 15.5871 2.0692 15.252C1.56541 14.9181 1.16043 14.4976 0.854254 13.9904C0.547503 13.4833 0.394702 12.8635 0.394702 12.13C0.394702 11.0523 0.608394 10.1677 1.0352 9.47713C1.46201 8.78718 2.02554 8.24269 2.72578 7.84309C3.42602 7.44463 4.21416 7.16389 5.0896 7.00258C5.96505 6.8407 6.86233 6.75977 7.78201 6.75977C8.70111 6.75977 9.59264 6.8458 10.4578 7.01843C11.3223 7.19162 12.0938 7.48198 12.7722 7.89177C13.4506 8.30212 14.0141 8.84661 14.4633 9.52581C14.9114 10.205 15.1802 11.0625 15.2675 12.0977H10.8352C10.7697 11.2136 10.4296 10.6154 9.81725 10.3018C9.20432 9.98936 8.48168 9.83315 7.65046 9.83315C7.38737 9.83315 7.10302 9.849 6.79684 9.88182C6.49009 9.91409 6.21091 9.98427 5.95931 10.0918C5.7077 10.1999 5.49401 10.3561 5.31938 10.561C5.1436 10.7659 5.05629 11.041 5.05629 11.3857C5.05629 11.796 5.20909 12.1294 5.51584 12.3886C5.82202 12.6473 6.22183 12.8573 6.71412 13.0192C7.20642 13.1805 7.76994 13.3265 8.4047 13.4556C9.03888 13.5852 9.68513 13.7255 10.3417 13.8761C11.0201 14.0272 11.6819 14.2106 12.3281 14.4262C12.9738 14.6419 13.5482 14.9277 14.052 15.2837C14.5552 15.6397 14.9602 16.0818 15.267 16.6099C15.5731 17.1391 15.7265 17.7911 15.7265 18.5671C15.7265 19.6668 15.5019 20.5889 15.0538 21.3337C14.6046 22.0774 14.0193 22.6757 13.2972 23.1291C12.5751 23.5819 11.7485 23.9 10.8185 24.0833C9.88791 24.2662 8.94123 24.3584 7.97847 24.3584C6.99387 24.3584 6.02996 24.2611 5.08903 24.0669C4.14752 23.8728 3.31056 23.5496 2.57758 23.0962C1.84402 22.6434 1.242 22.0452 0.771535 21.3009C0.300493 20.5572 0.0437185 19.6244 6.10352e-05 18.5026H4.43244C4.43359 18.9995 4.53757 19.4252 4.74551 19.7812Z" fill="#1C64F2"/>
<path d="M17.2242 4.63544V0.769531H21.717V4.63544H17.2242ZM21.7175 7.27823V24.3592H17.2248V7.27823H21.7175Z" fill="#1C64F2"/>
<path d="M40.9097 25.5412C40.7236 26.4208 40.3236 27.2409 39.711 28.0003C39.0978 28.7598 38.2111 29.4037 37.0509 29.9315C35.89 30.46 34.3356 30.7239 32.3869 30.7239C31.5542 30.7239 30.706 30.6188 29.8411 30.4103C28.9757 30.2012 28.1878 29.8761 27.4764 29.436C26.7643 28.9954 26.173 28.4294 25.7029 27.7364C25.2317 27.0434 24.9639 26.2123 24.8984 25.2444H29.5296C29.748 26.124 30.1756 26.735 30.8106 27.0769C31.4456 27.4176 32.1788 27.5885 33.0115 27.5885C34.3252 27.5885 35.2832 27.1918 35.8854 26.4C36.4877 25.6077 36.7773 24.6062 36.7561 23.3963V21.1515H36.6888C36.1848 22.0536 35.4677 22.7195 34.5373 23.1486C33.6063 23.5777 32.6265 23.7919 31.5973 23.7919C30.3273 23.7919 29.2325 23.5661 28.3131 23.1151C27.393 22.6646 26.6379 22.0478 26.0466 21.267C25.4553 20.4862 25.0225 19.5726 24.749 18.5273C24.4749 17.482 24.3387 16.376 24.3387 15.21C24.3387 14.1098 24.4973 13.0478 24.8151 12.0244C25.1323 11.0016 25.5978 10.099 26.2109 9.31759C26.8235 8.53621 27.585 7.91422 28.4941 7.45279C29.4026 6.9902 30.4485 6.75977 31.6306 6.75977C32.7472 6.75977 33.727 6.96883 34.57 7.38695C35.4125 7.80507 36.1188 8.50907 36.6888 9.49893H36.7543V7.22178H41.1885V23.1982C41.189 23.8797 41.0954 24.6605 40.9097 25.5412ZM34.5212 19.8637C35.0246 19.5997 35.4412 19.248 35.7694 18.8074C36.0975 18.3673 36.344 17.8666 36.5084 17.3052C36.6727 16.7439 36.7549 16.156 36.7549 15.5392C36.7549 14.8352 36.6894 14.1693 36.5578 13.5421C36.4262 12.915 36.2073 12.3594 35.901 11.8748C35.5941 11.3915 35.1889 11.0063 34.6855 10.7198C34.1816 10.4339 33.5466 10.2907 32.7805 10.2907C32.1237 10.2907 31.5594 10.423 31.0893 10.6869C30.6181 10.9514 30.2238 11.3089 29.9066 11.7599C29.5888 12.211 29.359 12.7284 29.217 13.3111C29.0739 13.895 29.0032 14.5054 29.0032 15.1436C29.0032 15.7598 29.063 16.3702 29.1837 16.9755C29.3038 17.5813 29.5118 18.1253 29.8078 18.6093C30.1032 19.0938 30.4916 19.4894 30.9738 19.7978C31.4553 20.1062 32.0576 20.2604 32.7805 20.2604C33.4374 20.2598 34.0172 20.1276 34.5212 19.8637Z" fill="#1C64F2"/>
<path d="M48.2547 7.21378V9.48443H48.3209C48.9397 8.62009 49.6862 7.94929 50.5604 7.47314C51.434 6.99756 52.4347 6.75977 53.5632 6.75977C54.6463 6.75977 55.6366 6.96521 56.5323 7.37609C57.4285 7.78698 58.1083 8.51113 58.5727 9.54912C59.0817 8.81419 59.7725 8.16551 60.6467 7.60253C61.5197 7.04069 62.5541 6.75977 63.7488 6.75977C64.6555 6.75977 65.496 6.86759 66.2703 7.08382C67.0441 7.30004 67.7082 7.64623 68.2614 8.12181C68.814 8.59796 69.2447 9.21996 69.5553 9.98668C69.8646 10.7551 70.0202 11.679 70.0202 12.7601V23.9834H65.3091V14.4792C65.3091 13.9173 65.2864 13.3873 65.2429 12.8895C65.1982 12.3924 65.0769 11.9599 64.8778 11.5922C64.6787 11.225 64.385 10.9333 63.9984 10.7165C63.6112 10.5003 63.0859 10.3925 62.4224 10.3925C61.7583 10.3925 61.2225 10.5173 60.8133 10.7653C60.4041 11.0139 60.0836 11.3385 59.8514 11.7386C59.6193 12.1387 59.4643 12.5933 59.3865 13.1007C59.3087 13.6092 59.271 14.1228 59.271 14.6415V23.9834H54.5593V14.5768C54.5593 14.0796 54.5477 13.5876 54.5262 13.1007C54.5041 12.6143 54.4101 12.166 54.2441 11.7545C54.078 11.3436 53.8012 11.0139 53.4146 10.7653C53.0274 10.5167 52.4579 10.3925 51.7062 10.3925C51.4851 10.3925 51.1919 10.4413 50.8268 10.5383C50.4617 10.6359 50.1076 10.8198 49.7651 11.0899C49.4221 11.3606 49.1289 11.75 48.8857 12.2579C48.6419 12.7664 48.5206 13.431 48.5206 14.2533V23.984H43.8094V7.21378H48.2547Z" fill="#1C64F2"/>
<path d="M72.0395 12.3558C72.1047 11.2776 72.3775 10.3827 72.8574 9.67071C73.3361 8.95924 73.9464 8.38758 74.6876 7.95629C75.4283 7.525 76.2622 7.21766 77.1882 7.03428C78.1142 6.85146 79.0465 6.75977 79.984 6.75977C80.8334 6.75977 81.6942 6.8192 82.5664 6.93749C83.4375 7.05578 84.2337 7.28784 84.9532 7.6331C85.6721 7.97836 86.2607 8.45777 86.7183 9.07244C87.1764 9.68712 87.4046 10.5016 87.4046 11.5147V20.217C87.4046 20.9726 87.4481 21.6943 87.5356 22.3848C87.622 23.0753 87.7747 23.5926 87.9932 23.9373H83.2859C83.199 23.6787 83.1275 23.4143 83.0737 23.1449C83.0188 22.8755 82.9805 22.6004 82.9593 22.3203C82.2181 23.0753 81.3464 23.6039 80.3438 23.9051C79.3411 24.2067 78.3173 24.3584 77.2712 24.3584C76.4647 24.3584 75.7126 24.2611 75.0154 24.0669C74.3181 23.8728 73.7079 23.5711 73.1851 23.1608C72.6617 22.7515 72.2534 22.2337 71.9588 21.6082C71.6642 20.9834 71.5178 20.2391 71.5178 19.3765C71.5178 18.4273 71.6866 17.6451 72.0246 17.0304C72.3626 16.4157 72.7984 15.9256 73.3321 15.5582C73.8663 15.192 74.4766 14.917 75.1629 14.7336C75.8493 14.5508 76.5408 14.4047 77.2386 14.2972C77.9364 14.1897 78.6227 14.1031 79.2988 14.038C79.9743 13.9734 80.5737 13.8767 81.097 13.747C81.6198 13.6174 82.0339 13.4289 82.3393 13.1805C82.6442 12.9326 82.7855 12.5715 82.7643 12.0972C82.7643 11.6013 82.6819 11.2074 82.5189 10.9165C82.3553 10.625 82.1369 10.3986 81.8646 10.2367C81.5918 10.0754 81.276 9.96729 80.9169 9.91352C80.5571 9.85975 80.1699 9.83258 79.7563 9.83258C78.8406 9.83258 78.1223 10.0267 77.5989 10.4144C77.0761 10.8033 76.7707 11.4496 76.6832 12.3558H72.0395ZM82.7626 15.7524C82.5658 15.9256 82.321 16.0597 82.027 16.1571C81.7325 16.2544 81.4168 16.3348 81.0787 16.3999C80.7407 16.465 80.3867 16.5187 80.0166 16.5618C79.646 16.6048 79.2753 16.6585 78.9053 16.7231C78.5569 16.7876 78.2132 16.8748 77.8757 16.9817C77.5371 17.0898 77.2432 17.2359 76.9926 17.4187C76.7421 17.6021 76.5402 17.8336 76.3881 18.1143C76.2348 18.395 76.1593 18.7505 76.1593 19.1818C76.1593 19.5921 76.2354 19.9374 76.3881 20.217C76.5402 20.4977 76.7473 20.7185 77.0092 20.8803C77.2706 21.0422 77.5755 21.1554 77.9244 21.2205C78.2733 21.2856 78.6324 21.3173 79.0036 21.3173C79.9194 21.3173 80.6269 21.1667 81.1285 20.8645C81.6295 20.5628 81.9996 20.2011 82.2398 19.7806C82.4795 19.3601 82.6265 18.9344 82.6808 18.5026C82.7351 18.0713 82.7631 17.7266 82.7631 17.4674V15.7524H82.7626Z" fill="#1C64F2"/>
<path d="M95.9434 11.0102H96.0412C96.1722 10.596 96.3896 10.1389 96.6957 9.63721C97.0007 9.13609 97.4035 8.67215 97.9058 8.24712C98.407 7.82208 99.0118 7.46855 99.7207 7.1848C100.428 6.90221 101.241 6.75977 102.157 6.75977C103.443 6.75977 104.56 7.00003 105.508 7.47941C106.457 7.95937 107.241 8.60236 107.863 9.40839C108.484 10.215 108.948 11.1526 109.253 12.2201C109.558 13.2887 109.711 14.411 109.711 15.5883C109.711 16.8749 109.558 18.0522 109.252 19.1196C108.946 20.1877 108.481 21.1093 107.858 21.8821C107.235 22.6567 106.448 23.2613 105.498 23.6972C104.548 24.1332 103.428 24.3511 102.139 24.3511C100.74 24.3511 99.4941 24.0456 98.4019 23.4358C97.3091 22.826 96.5115 21.8335 96.0086 20.4605H95.9445L95.9434 29.975H94.7333V7.15277H95.9434V11.0102ZM102.14 23.2716C103.232 23.2716 104.178 23.0651 104.976 22.6504C105.774 22.2362 106.429 21.6807 106.943 20.9828C107.456 20.2855 107.839 19.4737 108.091 18.547C108.342 17.6208 108.468 16.6341 108.468 15.5878C108.468 14.6284 108.347 13.6862 108.107 12.7595C107.866 11.8333 107.495 11.0056 106.992 10.2745C106.489 9.54454 105.839 8.95589 105.041 8.50912C104.243 8.06234 103.277 7.83867 102.14 7.83867C101.025 7.83867 100.075 8.05662 99.2875 8.49253C98.5008 8.92901 97.8612 9.50621 97.3691 10.2253C96.8777 10.9449 96.5224 11.7676 96.3038 12.6937C96.0847 13.6205 95.976 14.5855 95.976 15.5878C95.976 16.5906 96.0744 17.5551 96.2712 18.4818C96.468 19.4085 96.801 20.226 97.2713 20.9336C97.741 21.6424 98.375 22.2088 99.1725 22.6344C99.9707 23.0588 100.96 23.2716 102.14 23.2716Z" fill="#1C64F2"/>
<path d="M113.213 10.9509H113.312C113.466 10.4081 113.747 9.89731 114.155 9.419C114.562 8.94125 115.058 8.5285 115.641 8.18073C116.225 7.83354 116.875 7.5673 117.591 7.38259C118.306 7.19845 119.05 7.11692 119.821 7.13802V8.37628C119.16 8.29019 118.406 8.35519 117.557 8.57183C116.709 8.7896 115.9 9.26735 115.129 10.0062C114.82 10.3317 114.551 10.647 114.32 10.9509C114.089 11.2553 113.896 11.5917 113.741 11.9605C113.587 12.3299 113.466 12.7427 113.378 13.1988C113.29 13.6554 113.234 14.1982 113.213 14.8281V23.9845H111.957V7.23608H113.213V10.9509Z" fill="#1C64F2"/>
<path d="M122.816 4.17243V0.769531H124.314V4.17243H122.816ZM122.816 24.3592V7.37765H124.314V24.3592H122.816Z" fill="#1C64F2"/>
<path d="M127.684 7.15389H128.936V10.5916H129.001C129.133 10.068 129.364 9.57194 129.693 9.10162C130.023 8.63245 130.423 8.22343 130.896 7.87341C131.367 7.52511 131.895 7.25128 132.477 7.05479C133.058 6.8583 133.667 6.75977 134.305 6.75977C135.117 6.75977 135.82 6.86403 136.413 7.07083C137.006 7.27878 137.511 7.55146 137.928 7.89002C138.346 8.22858 138.675 8.61011 138.917 9.03574C139.158 9.46138 139.323 9.89274 139.411 10.3293H139.476C139.981 9.15032 140.657 8.26123 141.503 7.66088C142.348 7.06052 143.462 6.76034 144.846 6.76034C145.614 6.76034 146.323 6.87491 146.971 7.10463C147.619 7.33435 148.179 7.68322 148.651 8.15239C149.123 8.62156 149.491 9.21619 149.755 9.93685C150.018 10.6569 150.15 11.5082 150.15 12.4907V23.9834H148.898V12.458C148.898 11.3891 148.734 10.5481 148.404 9.93743C148.075 9.32676 147.685 8.86217 147.235 8.54537C146.785 8.22915 146.335 8.03266 145.885 7.95647C145.435 7.87971 145.088 7.8419 144.847 7.8419C144.078 7.8419 143.37 7.97309 142.722 8.23488C142.073 8.49668 141.514 8.89024 141.042 9.41383C140.57 9.938 140.202 10.5876 139.938 11.3616C139.675 12.1372 139.543 13.0263 139.543 14.0305V23.984H138.291V12.4586C138.291 11.4108 138.132 10.5762 137.813 9.95404C137.494 9.33191 137.121 8.86789 136.693 8.56199C136.266 8.25665 135.826 8.06016 135.376 7.97309C134.926 7.88601 134.569 7.8419 134.305 7.8419C133.713 7.8419 133.097 7.9622 132.461 8.20223C131.824 8.44226 131.242 8.8129 130.715 9.31473C130.188 9.8177 129.76 10.461 129.431 11.247C129.102 12.0324 128.937 12.9604 128.937 14.0299V23.9834H127.685V7.15389H127.684Z" fill="#1C64F2"/>
<path d="M153.273 15.7231V15.9194C153.273 16.9008 153.405 17.8388 153.67 18.7328C153.933 19.6267 154.324 20.4124 154.841 21.0878C155.358 21.7636 156.007 22.2976 156.789 22.6902C157.569 23.0833 158.477 23.2791 159.512 23.2791C161.206 23.2791 162.548 22.8378 163.539 21.9548C164.529 21.0712 165.211 19.8442 165.585 18.2743H166.836C166.463 20.2373 165.656 21.7419 164.417 22.7886C163.177 23.8353 161.536 24.3584 159.496 24.3584C158.245 24.3584 157.153 24.1347 156.22 23.6883C155.287 23.2413 154.508 22.6301 153.883 21.8563C153.257 21.0826 152.791 20.1669 152.483 19.1088C152.176 18.0512 152.022 16.9117 152.022 15.6899C152.022 14.5121 152.181 13.3841 152.5 12.3047C152.818 11.2248 153.295 10.2765 153.932 9.45871C154.567 8.6409 155.363 7.98677 156.318 7.49574C157.273 7.00528 158.397 6.75977 159.692 6.75977C160.877 6.75977 161.925 6.97838 162.836 7.41447C163.746 7.85113 164.509 8.4446 165.124 9.19717C165.738 9.94917 166.204 10.8219 166.523 11.8137C166.841 12.8061 167 13.8694 167 15.0025C167 15.1118 166.994 15.2372 166.984 15.3785C166.972 15.521 166.968 15.6349 166.968 15.7225H153.273V15.7231ZM165.716 14.6443C165.672 13.728 165.518 12.8616 165.254 12.0438C164.989 11.2254 164.599 10.506 164.082 9.88507C163.565 9.26356 162.938 8.76795 162.201 8.39653C161.463 8.02626 160.622 7.84026 159.676 7.84026C158.663 7.84026 157.772 8.03141 157.002 8.41255C156.231 8.79428 155.582 9.29561 155.055 9.91712C154.527 10.5386 154.119 11.2643 153.834 12.0924C153.548 12.9217 153.371 13.7721 153.305 14.6443H165.716Z" fill="#1C64F2"/>
</svg>
