<svg width="123" height="25" viewBox="0 0 123 25" fill="none" xmlns="http://www.w3.org/2000/svg">
<path d="M14.5154 17.9708C11.5586 17.9599 8.80332 18.4285 6.72009 20.7825C6.27208 20.5645 5.82408 20.3575 5.38727 20.1395C4.53606 19.7254 3.67365 19.333 2.84484 18.8862C2.67684 18.799 2.48643 18.5266 2.50883 18.374C2.92324 15.595 1.91523 13.252 0.201603 11.116C0.145602 11.0397 0.100801 10.9634 0.0448006 10.8871C0.0224003 10.8544 0.0224003 10.8217 0 10.7236C4.79366 7.18178 9.60973 3.62903 14.5154 0C14.5154 6.03749 14.5154 11.966 14.5154 17.9708ZM12.309 4.47908C12.1634 4.55536 12.085 4.57716 12.0402 4.60985C9.15052 6.74586 6.26088 8.88187 3.36004 11.007C3.02404 11.2576 3.18084 11.4647 3.31524 11.6936C4.24486 13.2738 4.83846 14.9738 4.81606 16.8047C4.80486 17.5676 5.40967 17.5676 5.81288 17.8509C6.17128 18.1016 6.44008 17.9817 6.75369 17.7637C8.24331 16.6957 9.92333 16.1181 11.749 15.9111C12.2082 15.8566 12.365 15.6931 12.3538 15.2245C12.3314 11.8352 12.3426 8.43505 12.3426 5.04577C12.3426 4.8823 12.3314 4.72973 12.309 4.47908Z" fill="#231F20"/>
<path d="M88.2012 19.2239C88.2012 14.5378 88.2012 9.91702 88.2012 5.23088C88.47 5.23088 88.7052 5.23088 88.9404 5.23088C90.5644 5.23088 92.1884 5.20908 93.8125 5.23088C96.9373 5.27447 98.7853 8.33681 97.2957 10.985C97.1501 11.2466 96.9373 11.4754 96.7245 11.7697C97.5645 12.4562 98.0909 13.3172 98.2925 14.3852C98.7741 16.9462 96.9597 19.2021 94.2829 19.2566C92.3788 19.3002 90.4748 19.2675 88.5708 19.2675C88.4588 19.2675 88.358 19.2457 88.2012 19.2239ZM90.4076 17.1969C91.7852 17.1969 93.1293 17.2732 94.4621 17.1751C95.5709 17.0988 96.1421 16.2705 96.1533 15.05C96.1533 13.9493 95.5485 13.0774 94.4957 12.9902C93.1517 12.8813 91.7964 12.9685 90.4076 12.9685C90.4076 14.3852 90.4076 15.7583 90.4076 17.1969ZM90.4076 10.8433C91.7068 10.8433 92.9612 10.9087 94.2045 10.8215C95.1565 10.7562 95.5933 10.135 95.6269 9.11056C95.6605 8.23872 95.1453 7.44317 94.2717 7.37778C93.006 7.2797 91.718 7.35599 90.4076 7.35599C90.4076 8.50028 90.4076 9.63367 90.4076 10.8433Z" fill="#231F20"/>
<path d="M85.5132 19.2678C84.7292 19.2678 84.0796 19.2896 83.4299 19.246C83.2731 19.2351 83.0603 19.039 82.9819 18.8755C82.2203 17.328 81.4475 15.7805 80.7419 14.2003C80.4955 13.6663 80.2267 13.372 79.5883 13.4701C79.1851 13.5246 78.7707 13.481 78.3115 13.481C78.3115 15.4099 78.3115 17.2844 78.3115 19.2133C77.5611 19.2133 76.8667 19.2133 76.1274 19.2133C76.1274 14.5817 76.1274 9.95004 76.1274 5.2857C76.2282 5.2748 76.3402 5.24211 76.441 5.24211C77.9195 5.24211 79.3867 5.22031 80.8651 5.24211C82.6571 5.2639 84.326 6.40819 84.8412 7.90122C85.4684 9.72119 84.9532 11.5085 83.4971 12.6527C83.4635 12.6745 83.4411 12.7072 83.4075 12.729C83.1611 12.8925 82.7243 13.0342 82.7131 13.2085C82.6907 13.5137 82.9147 13.8406 83.0603 14.1567C83.8555 15.8241 84.662 17.4915 85.5132 19.2678ZM78.3115 7.36722C78.3115 8.69677 78.3115 10.0372 78.3115 11.3777C79.3419 11.3777 80.3499 11.4649 81.3355 11.3559C82.3995 11.236 82.9035 10.4949 82.9035 9.38335C82.9035 8.35894 82.2987 7.49799 81.3131 7.38901C80.3499 7.28003 79.3531 7.36722 78.3115 7.36722Z" fill="#231F20"/>
<path d="M34.765 8.55478C33.9586 8.72915 33.3314 8.85993 32.6818 9.0016C32.6146 8.88172 32.5362 8.77274 32.4914 8.66376C31.8082 7.09445 29.6689 6.46237 28.2017 7.3887C27.1489 8.05348 27.1601 9.33944 28.2913 9.88434C29.1649 10.2985 30.1282 10.5709 31.0466 10.8979C32.021 11.2466 32.9842 11.5735 33.813 12.2601C35.213 13.4262 35.2914 15.9654 34.6194 17.1969C33.757 18.7444 32.357 19.3874 30.6546 19.54C28.7953 19.7034 27.0593 19.3983 25.7825 17.9271C24.9649 16.9789 24.5841 15.8128 24.4385 14.5269C25.1105 14.407 25.7601 14.2871 26.4881 14.1564C26.5217 14.3743 26.5553 14.5378 26.5777 14.7121C26.9697 16.8809 28.4593 17.7636 30.733 17.4584C31.629 17.3386 32.3906 16.9898 32.7266 16.0962C33.197 14.8647 32.6146 13.6768 31.2594 13.1755C30.2738 12.8159 29.2545 12.5217 28.2465 12.1838C27.8657 12.053 27.4961 11.8569 27.1265 11.6825C25.7601 11.0504 25.2113 9.92793 25.2673 8.54389C25.3345 7.08356 26.0849 5.99376 27.4849 5.41616C29.7809 4.47893 32.1442 4.91485 33.5666 6.56045C34.0482 7.10535 34.3394 7.81372 34.765 8.55478Z" fill="#231F20"/>
<path d="M50.994 5.26367C53.9061 5.26367 56.7733 5.26367 59.7077 5.26367C59.7077 5.86306 59.7301 6.44066 59.6853 7.01825C59.6741 7.11633 59.3717 7.2689 59.1925 7.2689C57.4229 7.2907 55.6421 7.2798 53.8725 7.2798C53.1108 7.2798 53.1108 7.2798 53.1108 8.03176C53.1108 8.79462 53.1332 9.55748 53.0996 10.3203C53.0884 10.7563 53.2452 10.887 53.682 10.887C55.2501 10.8652 56.8181 10.8761 58.3861 10.8761C58.6101 10.8761 58.8229 10.8761 59.0805 10.8761C59.0805 11.5845 59.0805 12.2275 59.0805 12.925C57.1093 12.925 55.1605 12.925 53.1556 12.925C53.1556 14.3635 53.1556 15.7475 53.1556 17.2079C55.3173 17.2079 57.4677 17.2079 59.6965 17.2079C59.6965 17.8509 59.7189 18.4284 59.6741 18.9951C59.6629 19.0932 59.3605 19.2458 59.1925 19.2458C57.7141 19.2676 56.2469 19.2567 54.7685 19.2567C53.7605 19.2567 52.7524 19.2567 51.7444 19.2567C50.9492 19.2567 50.9492 19.2567 50.9492 18.5047C50.9492 15.268 50.9492 12.0422 50.9492 8.80552C50.9492 7.8247 50.9492 6.84388 50.9492 5.86306C50.9604 5.6778 50.9828 5.48163 50.994 5.26367Z" fill="#231F20"/>
<path d="M38.0693 5.26397C39.951 5.26397 41.7878 5.17679 43.6022 5.28577C45.551 5.39475 47.1303 6.87688 47.4663 8.66415C47.8359 10.6585 46.9623 12.5656 45.159 13.4048C44.5094 13.699 43.7254 13.7644 42.9974 13.8298C42.2358 13.8952 41.4742 13.8625 40.7014 13.8407C40.3094 13.8298 40.1862 13.9824 40.1974 14.3529C40.2198 15.7478 40.2086 17.1428 40.2086 18.5486C40.2086 18.7666 40.2086 18.9737 40.2086 19.2352C39.4806 19.2352 38.7973 19.2352 38.0693 19.2352C38.0693 14.5818 38.0693 9.95011 38.0693 5.26397ZM40.2086 11.7483C41.407 11.7483 42.527 11.8246 43.6246 11.7265C44.6438 11.6393 45.383 10.5931 45.3718 9.51419C45.3494 8.34811 44.6886 7.48716 43.5798 7.36729C42.583 7.2692 41.575 7.291 40.567 7.3019C40.4438 7.3019 40.231 7.53076 40.2198 7.65063C40.1974 8.99109 40.2086 10.3315 40.2086 11.7483Z" fill="#231F20"/>
<path d="M73.6073 19.2569C72.8905 19.2569 72.2409 19.2787 71.5913 19.2351C71.4793 19.2242 71.3225 19.0171 71.2665 18.8755C70.9977 18.1235 70.7625 17.3606 70.5273 16.5978C70.4377 16.2926 70.2921 16.1619 69.9336 16.1619C68.4552 16.1837 66.988 16.1837 65.5096 16.1619C65.1624 16.1619 65.0168 16.2926 64.9272 16.5978C64.692 17.3606 64.412 18.1126 64.1656 18.8646C64.076 19.137 63.9528 19.2787 63.6168 19.2678C63.0568 19.2351 62.4967 19.2569 61.8359 19.2569C63.4936 14.5381 65.1288 9.89551 66.7528 5.27476C68.6344 5.08949 68.6344 5.08949 69.2168 6.73509C70.6057 10.6802 71.9945 14.6252 73.3833 18.5594C73.4617 18.7774 73.5177 18.9735 73.6073 19.2569ZM69.7432 14.2765C69.0712 12.2822 68.4216 10.3859 67.7832 8.48967C67.7384 8.48967 67.6936 8.50056 67.6376 8.50056C67.0104 10.4077 66.3832 12.3258 65.7336 14.2765C67.1224 14.2765 68.3768 14.2765 69.7432 14.2765Z" fill="#231F20"/>
<path d="M106.446 17.2077C107.544 17.2077 108.608 17.2077 109.716 17.2077C109.716 17.8943 109.716 18.5372 109.716 19.2129C106.804 19.2129 103.881 19.2129 100.868 19.2129C100.868 18.6353 100.846 18.0686 100.891 17.491C100.902 17.393 101.16 17.2295 101.316 17.2295C102.246 17.2077 103.176 17.2186 104.15 17.2186C104.15 13.9056 104.15 10.6362 104.15 7.26873C103.276 7.26873 102.403 7.23603 101.54 7.27962C100.992 7.30142 100.812 7.12705 100.857 6.60395C100.902 6.15713 100.868 5.71031 100.868 5.2417C103.87 5.2417 106.782 5.2417 109.728 5.2417C109.728 5.90648 109.728 6.53856 109.728 7.25783C108.787 7.25783 107.857 7.26873 106.928 7.24693C106.547 7.23603 106.401 7.35591 106.401 7.73734C106.412 10.767 106.412 13.7966 106.412 16.8263C106.401 16.9461 106.424 17.0333 106.446 17.2077Z" fill="#231F20"/>
<path d="M123 5.27441C123 5.95009 123 6.59307 123 7.29054C121.555 7.29054 120.166 7.29054 118.677 7.29054C118.677 11.301 118.677 15.2679 118.677 19.2456C117.915 19.2456 117.243 19.2456 116.493 19.2456C116.493 18.995 116.493 18.7661 116.493 18.5373C116.493 15.0172 116.481 11.4972 116.504 7.96622C116.504 7.39952 116.336 7.25785 115.776 7.26875C114.589 7.31234 113.39 7.27964 112.158 7.27964C112.158 6.58217 112.158 5.93919 112.158 5.27441C115.776 5.27441 119.349 5.27441 123 5.27441Z" fill="#231F20"/>
<path d="M4.30106 24.9998C2.99065 24.3568 1.74743 23.7356 0.437012 23.0926C0.739416 22.5041 1.01942 21.9374 1.32182 21.3271C2.59864 21.9592 3.84186 22.5695 5.18587 23.2343C4.89467 23.8119 4.61467 24.3568 4.30106 24.9998Z" fill="#231F20"/>
</svg>
