<svg width="102" height="30" viewBox="0 0 102 30" fill="none" xmlns="http://www.w3.org/2000/svg">
<path d="M47.8152 0L38.2871 5.5L47.8152 11V9.55722L40.7919 5.5L47.8152 1.44335V0Z" fill="white"/>
<path d="M38.3149 0H37.0625V11H38.3149V0Z" fill="white"/>
<path d="M27.5332 0V1.44335L34.5571 5.5L27.5332 9.55722V11L37.0618 5.5L27.5332 0Z" fill="white"/>
<path d="M71.7441 3.51172V8.5213H72.9697V4.65489H74.467V3.51172H71.7441Z" fill="white"/>
<path d="M57.5065 3.51172H54.7842V8.5213H56.0092V4.65489H57.5065V3.51172Z" fill="white"/>
<path d="M53.26 2.36816H50.5371V3.51191H52.0344V8.52149H53.26V3.51191H54.784V2.36816H53.26Z" fill="white"/>
<path d="M64.5852 4.46482C64.8848 4.43748 65.1843 4.57361 65.3472 4.84588C65.4286 4.98201 65.4833 5.14549 65.4833 5.30896H66.6537C66.6263 4.9279 66.4902 4.54684 66.2727 4.2199C65.8643 3.73005 65.2384 3.43044 64.5846 3.45778C63.9314 3.45778 63.3049 3.73005 62.8698 4.24724C62.1345 5.3363 62.1345 6.75231 62.8698 7.86872C63.3055 8.35857 63.9314 8.65817 64.5846 8.65817C65.2379 8.65817 65.8643 8.38591 66.2727 7.89606C66.5176 7.59645 66.6537 7.21539 66.6537 6.80699H65.4833C65.4833 6.97047 65.4286 7.13394 65.3472 7.27007C65.1838 7.515 64.8842 7.65113 64.5852 7.65113C64.313 7.65113 64.0407 7.54234 63.8499 7.32418C63.5777 6.97047 63.4689 6.50739 63.523 6.07165C63.4684 5.63591 63.6045 5.1734 63.8499 4.81911C64.0407 4.57418 64.313 4.46539 64.5852 4.46539" fill="white"/>
<path d="M68.0425 5.55391C68.0425 5.28165 68.124 5.00938 68.2874 4.7918C68.4782 4.54687 68.8046 4.3834 69.1041 4.41074C69.3764 4.3834 69.6486 4.49219 69.8661 4.71035C70.0837 4.95527 70.1931 5.25488 70.1931 5.58182L68.0425 5.55448V5.55391ZM69.1588 3.45724C68.5597 3.45724 68.0152 3.67482 67.5801 4.08322C67.0903 4.62775 66.8448 5.33576 66.8722 6.07054C66.8448 6.80588 67.1171 7.51332 67.6342 8.05785C68.0425 8.46625 68.6143 8.68383 69.2129 8.65706C69.8388 8.6844 70.4653 8.43948 70.8736 7.94906C71.0912 7.67679 71.2273 7.37719 71.282 7.05081H70.1384C70.111 7.21428 70.0296 7.35041 69.8935 7.45921C69.7027 7.65002 69.4305 7.73147 69.1582 7.70413C68.886 7.70413 68.6138 7.59534 68.423 7.37719C68.1781 7.10492 68.042 6.7512 68.0693 6.39691H71.3908V6.06997C71.4454 5.47075 71.282 4.84477 70.9551 4.35492C70.5467 3.7557 69.8661 3.42933 69.1582 3.45667" fill="white"/>
<path d="M60.6102 6.53398C60.6102 7.26932 60.093 7.67772 59.3578 7.67772C59.0041 7.70506 58.6772 7.4328 58.6499 7.07851V7.05117C58.6772 6.69745 59.0035 6.39784 59.3578 6.42518L60.6102 6.31639V6.53398ZM61.7805 6.83358V5.44491C61.8079 5.11796 61.7532 4.76425 61.6444 4.4373C61.3722 3.70195 60.6369 3.42969 59.7935 3.42969C58.6772 3.42969 57.8064 3.91954 57.7517 5.03594H58.8953C58.9227 4.57286 59.249 4.32794 59.7935 4.32794C60.474 4.32794 60.6375 4.65488 60.6375 5.11739V5.44434L59.1949 5.55313C58.2421 5.63459 57.5342 6.15235 57.5342 7.10528C57.5342 7.92208 58.1601 8.65742 59.331 8.65742C59.9302 8.68476 60.5014 8.4125 60.8283 7.92208V8.60274H62.2441V7.73126H61.8084L61.7811 6.83301L61.7805 6.83358Z" fill="white"/>
<path d="M7.49025 21.0229C6.90031 21.6129 6.00001 21.9391 4.78935 21.9391H2.07261V26.2079H0.691406V15.2021H4.77351C6.06152 15.2021 6.97767 15.5591 7.56762 16.1957C8.09512 16.7699 8.40547 17.5621 8.40547 18.524C8.40547 19.595 8.07927 20.4338 7.48932 21.0229H7.49025ZM4.74275 16.4586H2.07261V20.6808H4.75766C6.23207 20.6808 6.97766 19.9976 6.97766 18.5231C6.97766 17.1259 6.10812 16.4586 4.74275 16.4586Z" fill="white"/>
<path d="M15.8567 22.7157H10.3001C10.3001 23.4297 10.5797 24.2061 11.0607 24.687C11.4176 25.044 11.8985 25.2463 12.5043 25.2463C13.1101 25.2463 13.6376 25.0757 13.9638 24.7336C14.1809 24.5165 14.3207 24.2993 14.4298 23.8799H15.7178C15.6088 24.6563 15.1437 25.3861 14.5071 25.8204C13.948 26.1933 13.2499 26.4104 12.5043 26.4104C11.4018 26.4104 10.5024 25.9444 9.8966 25.2304C9.24421 24.4699 8.91895 23.4297 8.91895 22.3121C8.91895 21.3652 9.0895 20.5272 9.52474 19.7974C10.0839 18.8505 11.124 18.1523 12.4894 18.1523C13.4987 18.1523 14.3058 18.5401 14.8799 19.1618C15.5165 19.8608 15.8893 20.8693 15.8734 21.9253L15.8576 22.7167L15.8567 22.7157ZM14.0402 19.9838C13.714 19.5495 13.1865 19.2699 12.4885 19.2699C11.0606 19.2699 10.3617 20.434 10.3309 21.5833H14.5221C14.5221 20.9933 14.3515 20.4033 14.0412 19.9848L14.0402 19.9838Z" fill="white"/>
<path d="M20.8244 19.5798C20.2037 19.5798 19.6911 19.8595 19.3342 20.2006C18.6976 20.8064 18.6203 21.8923 18.6203 22.7153V26.2077H17.3164V18.3532H18.4805L18.5895 19.7346C18.9931 18.7717 19.94 18.3066 20.9335 18.3066C21.1357 18.3066 21.3529 18.3225 21.5542 18.3532V19.6414C21.3212 19.5948 21.0574 19.5789 20.8244 19.5789V19.5798Z" fill="white"/>
<path d="M28.3359 25.6337C27.8233 26.1147 27.0945 26.425 26.1784 26.425C25.3247 26.425 24.3153 26.0214 23.8969 25.3075V29.5763H22.5771V18.3683H23.7412L23.8344 19.3926C24.2846 18.6013 25.2939 18.166 26.1784 18.166C27.1411 18.166 27.8858 18.4922 28.3984 19.0198C29.143 19.7803 29.5317 20.9753 29.5317 22.2801C29.5317 23.585 29.1281 24.8722 28.3369 25.6328L28.3359 25.6337ZM25.9612 19.2845C25.3871 19.2845 24.9985 19.5175 24.6881 19.7971C24.0357 20.3713 23.8186 21.3183 23.8186 22.296C23.8186 23.2737 24.0357 24.2207 24.6881 24.7948C24.9985 25.0745 25.3871 25.3075 25.9612 25.3075C27.7152 25.3075 28.1812 23.7398 28.1812 22.296C28.1812 20.8522 27.7152 19.2845 25.9612 19.2845Z" fill="white"/>
<path d="M37.3547 22.7157H31.7982C31.7982 23.4297 32.0778 24.2061 32.5587 24.687C32.9156 25.044 33.3966 25.2463 34.0023 25.2463C34.6081 25.2463 35.1356 25.0757 35.4618 24.7336C35.679 24.5165 35.8188 24.2993 35.9278 23.8799H37.2158C37.1068 24.6563 36.6417 25.3861 36.0052 25.8204C35.446 26.1933 34.7479 26.4104 34.0023 26.4104C32.8998 26.4104 32.0004 25.9444 31.3946 25.2304C30.7423 24.4699 30.417 23.4297 30.417 22.3121C30.417 21.3652 30.5875 20.5272 31.0228 19.7974C31.582 18.8505 32.6221 18.1523 33.9874 18.1523C34.9968 18.1523 35.8039 18.5401 36.378 19.1618C37.0145 19.8608 37.3873 20.8693 37.3715 21.9253L37.3556 22.7167L37.3547 22.7157ZM35.5383 19.9838C35.2121 19.5495 34.6846 19.2699 33.9865 19.2699C32.5587 19.2699 31.8597 20.434 31.829 21.5833H36.0201C36.0201 20.9933 35.8495 20.4033 35.5392 19.9848L35.5383 19.9838Z" fill="white"/>
<path d="M41.5458 26.317C39.8542 26.317 39.3882 25.246 39.3882 24.19V19.4868H37.8672V18.3534H39.3882V16.3504L40.7079 16.04V18.3534H43.036V19.4868H40.7079V24.0353C40.7079 24.7958 41.0341 25.1062 41.7639 25.1062C42.3231 25.1062 43.1143 24.9664 43.1143 24.9664V26.0998C42.7574 26.193 42.2765 26.317 41.5467 26.317H41.5458Z" fill="white"/>
<path d="M49.3224 26.208L49.2134 25.0131C48.8098 25.9135 47.8005 26.3944 46.8853 26.3944C45.1005 26.3944 44.2002 25.3235 44.2002 23.5069V18.3535H45.5199V23.3214C45.5199 24.5014 45.9542 25.1995 47.1965 25.1995C47.724 25.1995 48.1593 24.9665 48.5004 24.6095C48.9971 24.0969 49.1528 23.2431 49.1528 22.436V18.3535H50.4725V26.208H49.3243H49.3224Z" fill="white"/>
<path d="M58.2937 26.3173C57.5947 26.3173 57.1604 25.7897 57.1604 25.1224H57.1297C56.6795 25.9137 55.7019 26.4105 54.5993 26.4105C52.7987 26.4105 51.8984 25.1997 51.8984 23.989C51.8984 22.9795 52.5508 21.6607 54.6925 21.5358L57.0831 21.396V20.8218C57.0831 20.4341 57.0365 19.9522 56.6795 19.6269C56.4158 19.379 56.0271 19.2233 55.3915 19.2233C54.6776 19.2233 54.2275 19.4256 53.9637 19.6894C53.7149 19.9373 53.576 20.2486 53.576 20.6363H52.288C52.3039 19.9224 52.5676 19.4097 52.9712 18.9912C53.4987 18.432 54.4306 18.1533 55.3924 18.1533C56.9134 18.1533 57.783 18.8058 58.1558 19.6595C58.3114 20.0165 58.3888 20.4201 58.3888 20.8703V24.6731C58.3888 25.0925 58.5593 25.2006 58.8231 25.2006C58.9629 25.2006 59.1642 25.154 59.1642 25.154V26.1318C58.8846 26.2716 58.6208 26.3182 58.2946 26.3182L58.2937 26.3173ZM57.0831 22.4212L54.9721 22.5452C54.1809 22.5918 53.2489 22.9646 53.2489 23.9582C53.2489 24.6563 53.6832 25.3088 54.8016 25.3088C55.4074 25.3088 55.9964 25.1065 56.4158 24.6722C56.8817 24.1912 57.0831 23.5388 57.0831 22.8873V22.4212Z" fill="white"/>
<path d="M62.0815 26.3013C60.9333 26.3013 60.4365 25.6181 60.4365 24.3766V15H61.7562V24.2983C61.7562 24.8258 61.9268 25.1054 62.4701 25.1054C62.9044 25.1054 63.0135 25.0896 63.0135 25.0896V26.2071C63.0135 26.2071 62.719 26.3003 62.0824 26.3003L62.0815 26.3013Z" fill="white"/>
<path d="M73.9248 21.0229C73.3349 21.6129 72.4346 21.9391 71.2239 21.9391H68.5072V26.2079H67.126V15.2021H71.2081C72.4961 15.2021 73.4123 15.5591 74.0022 16.1957C74.5297 16.7699 74.8401 17.5621 74.8401 18.524C74.8401 19.595 74.5139 20.4338 73.9239 21.0229H73.9248ZM71.1773 16.4586H68.5072V20.6808H71.1922C72.6667 20.6808 73.4123 19.9976 73.4123 18.5231C73.4123 17.1259 72.5427 16.4586 71.1773 16.4586Z" fill="white"/>
<path d="M81.236 25.4941C80.6619 26.0534 79.8548 26.4103 78.8613 26.4103C77.8678 26.4103 77.0607 26.0534 76.4866 25.4941C75.6329 24.6562 75.3691 23.5228 75.3691 22.2804C75.3691 21.0379 75.6329 19.9055 76.4866 19.0666C77.0607 18.5074 77.8678 18.1504 78.8613 18.1504C79.8548 18.1504 80.6619 18.5074 81.236 19.0666C82.0897 19.9045 82.3535 21.0379 82.3535 22.2804C82.3535 23.5228 82.0897 24.6553 81.236 25.4941ZM80.2733 19.8439C79.9471 19.5177 79.482 19.2847 78.8604 19.2847C78.2387 19.2847 77.7737 19.5177 77.4475 19.8439C76.8883 20.4181 76.7177 21.3651 76.7177 22.2813C76.7177 23.1975 76.8883 24.1445 77.4475 24.7186C77.7737 25.0449 78.2387 25.2779 78.8604 25.2779C79.482 25.2779 79.9471 25.0449 80.2733 24.7186C80.8325 24.1445 81.003 23.1975 81.003 22.2813C81.003 21.3651 80.8325 20.4181 80.2733 19.8439Z" fill="white"/>
<path d="M89.1218 25.4941C88.5477 26.0534 87.7406 26.4103 86.7471 26.4103C85.7536 26.4103 84.9464 26.0534 84.3723 25.4941C83.5186 24.6562 83.2549 23.5228 83.2549 22.2804C83.2549 21.0379 83.5186 19.9055 84.3723 19.0666C84.9464 18.5074 85.7536 18.1504 86.7471 18.1504C87.7406 18.1504 88.5477 18.5074 89.1218 19.0666C89.9755 19.9045 90.2392 21.0379 90.2392 22.2804C90.2392 23.5228 89.9755 24.6553 89.1218 25.4941ZM88.159 19.8439C87.8328 19.5177 87.3678 19.2847 86.7461 19.2847C86.1245 19.2847 85.6594 19.5177 85.3332 19.8439C84.774 20.4181 84.6035 21.3651 84.6035 22.2813C84.6035 23.1975 84.774 24.1445 85.3332 24.7186C85.6594 25.0449 86.1245 25.2779 86.7461 25.2779C87.3678 25.2779 87.8328 25.0449 88.159 24.7186C88.7182 24.1445 88.8888 23.1975 88.8888 22.2813C88.8888 21.3651 88.7182 20.4181 88.159 19.8439Z" fill="white"/>
<path d="M93.3432 26.3013C92.195 26.3013 91.6982 25.6181 91.6982 24.3766V15H93.0179V24.2983C93.0179 24.8258 93.1885 25.1054 93.7318 25.1054C94.1662 25.1054 94.2752 25.0896 94.2752 25.0896V26.2071C94.2752 26.2071 93.9807 26.3003 93.3441 26.3003L93.3432 26.3013Z" fill="white"/>
<path d="M100.685 25.5249C100.079 26.1457 99.1484 26.4094 98.1241 26.4094C97.0999 26.4094 96.2462 26.1764 95.5789 25.5249C95.098 25.0589 94.8184 24.3915 94.8184 23.7242H96.1381C96.1539 24.2676 96.4018 24.6711 96.7746 24.9508C97.1316 25.2145 97.6908 25.3077 98.1875 25.3077C98.7309 25.3077 99.2276 25.2145 99.6312 24.8734C99.8483 24.7028 100.019 24.3766 100.019 24.0196C100.019 23.4296 99.5995 23.0102 98.7924 22.9021C98.4513 22.8555 97.5659 22.7464 97.0225 22.6691C95.8426 22.4827 95.098 21.7529 95.098 20.558C95.098 19.9521 95.3934 19.378 95.7504 19.021C96.2629 18.4934 97.085 18.1514 98.0636 18.1514C99.1037 18.1514 100.035 18.4776 100.562 19.1449C100.903 19.5644 101.121 20.0146 101.121 20.6512H99.8017C99.7859 20.2476 99.5846 19.8748 99.3516 19.6734C99.0254 19.3789 98.5911 19.254 98.0636 19.254C97.7532 19.254 97.5202 19.254 97.1474 19.4097C96.6507 19.6119 96.3561 20.0304 96.3561 20.4657C96.3561 21.1181 96.7597 21.3968 97.4121 21.49C97.8464 21.5525 98.468 21.614 99.3059 21.7538C100.423 21.9402 101.309 22.7474 101.309 23.9274C101.309 24.6106 101.06 25.1381 100.688 25.5258L100.685 25.5249Z" fill="white"/>
</svg>
