<svg width="162" height="23" viewBox="0 0 162 23" fill="none" xmlns="http://www.w3.org/2000/svg">
<path d="M42.4124 0L22.4863 11.5L42.4124 23V19.9821L27.7242 11.5L42.4124 3.01792V0Z" fill="white"/>
<path d="M22.5442 0H19.9253V23H22.5442V0Z" fill="white"/>
<path d="M0 0V3.01792L14.6882 11.5L0 19.9821V23L19.9249 11.5L0 0Z" fill="white"/>
<path d="M92.4536 7.34375V17.8195H95.0154V9.73522H98.1465V7.34375H92.4536Z" fill="white"/>
<path d="M62.6792 7.34375H56.9863V17.8195H59.5481V9.73522H62.6792V7.34375Z" fill="white"/>
<path d="M53.7978 4.9541H48.105V7.34438H51.236V17.8201H53.7978V7.34438H56.986V4.9541H53.7978Z" fill="white"/>
<path d="M77.4814 9.33529C77.7962 9.30275 78.1138 9.36052 78.397 9.50182C78.6803 9.64312 78.9175 9.86213 79.0808 10.1332C79.2601 10.4245 79.3584 10.7584 79.3655 11.1003H81.8081C81.7418 10.2856 81.4674 9.50154 81.0114 8.82317C80.5832 8.30624 80.0426 7.89397 79.4308 7.6178C78.819 7.34163 78.1523 7.20887 77.4814 7.22965C76.7991 7.22452 76.124 7.36977 75.5042 7.65506C74.8845 7.94036 74.3351 8.3587 73.8953 8.88034C72.3578 11.1575 72.3578 14.1206 73.8953 16.4525C74.3439 16.9637 74.895 17.3747 75.5128 17.6589C76.1306 17.9431 76.8013 18.0941 77.4814 18.102C78.8486 18.102 80.1575 17.5327 81.0114 16.5073C81.533 15.8636 81.8146 15.0586 81.8081 14.2302H79.3607C79.3536 14.5725 79.2554 14.9067 79.0761 15.1984C78.7343 15.7105 78.1078 15.9952 77.4814 15.9952C77.1914 15.9977 76.9043 15.938 76.6393 15.8203C76.3743 15.7026 76.1376 15.5296 75.945 15.3128C75.3853 14.5614 75.1401 13.6217 75.2614 12.6926C75.168 11.7656 75.4106 10.8358 75.945 10.0725C76.1259 9.83816 76.359 9.6492 76.6257 9.52062C76.8923 9.39203 77.1853 9.32735 77.4814 9.33171" fill="white"/>
<path d="M84.7102 11.6134C84.7055 11.041 84.885 10.4823 85.2223 10.0199C85.6213 9.50776 86.3049 9.16595 86.9302 9.22312C87.4995 9.16595 88.0688 9.39343 88.5249 9.84957C88.9704 10.351 89.2122 11.001 89.2026 11.6718L84.7055 11.6146L84.7102 11.6134ZM87.0445 7.23063C85.8156 7.22325 84.6317 7.69288 83.742 8.54069C82.7249 9.67978 82.194 11.1717 82.2628 12.6972C82.2363 13.4612 82.3637 14.2229 82.6374 14.9367C82.9112 15.6505 83.3257 16.302 83.8563 16.8525C84.2896 17.2791 84.807 17.6107 85.3757 17.826C85.9444 18.0413 86.5517 18.1357 87.1589 18.103C87.8124 18.1393 88.4655 18.0248 89.0677 17.7683C89.6699 17.5118 90.2051 17.1202 90.6317 16.6238C91.0752 16.0824 91.3696 15.4346 91.4856 14.7445H89.0942C89.0384 15.0842 88.8553 15.39 88.5821 15.5996C88.3796 15.7934 88.1367 15.9399 87.8708 16.0284C87.605 16.117 87.3227 16.1454 87.0445 16.1117C86.7549 16.1136 86.4682 16.0536 86.2036 15.9357C85.9391 15.8178 85.7028 15.6447 85.5106 15.4281C85.2555 15.1539 85.0585 14.831 84.9314 14.4788C84.8043 14.1266 84.7497 13.7523 84.771 13.3784H91.7167V12.696C91.8223 11.432 91.5016 10.1691 90.8056 9.10879C90.3904 8.50236 89.8275 8.01171 89.1701 7.68311C88.5127 7.35451 87.7824 7.19878 87.0481 7.23063" fill="white"/>
<path d="M69.1697 13.6634C69.1697 15.201 68.0883 16.0549 66.5496 16.0549C66.1882 16.0802 65.8313 15.9633 65.5548 15.7293C65.2783 15.4953 65.104 15.1626 65.0692 14.802V14.7448C65.1264 14.0052 65.8088 13.3788 66.5496 13.4348L69.1697 13.2073V13.6622V13.6634ZM71.6184 14.2923V11.3863C71.6661 10.6729 71.5714 9.95708 71.3397 9.28065C70.7644 7.74192 69.2269 7.17383 67.4619 7.17383C65.1288 7.17383 63.3066 8.19806 63.1923 10.5324H65.5837C65.6409 9.56529 66.3233 9.05199 67.4619 9.05199C68.8851 9.05199 69.2269 9.7356 69.2269 10.7039V11.3863L66.2102 11.6138C64.2177 11.7912 62.7373 12.8631 62.7373 14.8592C62.7373 16.567 64.0474 18.1045 66.4948 18.1045C67.1049 18.1396 67.7138 18.0165 68.2623 17.7471C68.8109 17.4778 69.2806 17.0713 69.6259 16.567V17.9962H72.5854V16.1692H71.6755L71.6184 14.2923Z" fill="white"/>
<path d="M103.862 17.8188V3.75586H105.666V17.8188H103.862Z" fill="white"/>
<path d="M114.929 17.8201V11.4532C114.929 9.94544 114.316 9.05221 112.728 9.05221C111.756 9.05221 110.982 9.687 110.546 10.6005C110.209 11.3353 110.189 12.3869 110.189 13.1599V17.8213H108.504V7.78264H109.971L110.111 9.29041C110.626 8.13993 112.016 7.52539 113.145 7.52539C115.426 7.52539 116.617 8.89381 116.617 11.2174V17.8225L114.929 17.8201Z" fill="white"/>
<path d="M125.74 17.8195L125.621 16.5094C125.045 17.5205 123.756 18.0755 122.625 18.0755C121.395 18.0755 120.444 17.6599 119.789 16.9846C118.836 16.0128 118.34 14.4835 118.34 12.8162C118.34 11.0905 118.856 9.50291 119.868 8.5287C120.522 7.91416 121.455 7.51757 122.625 7.51757C123.716 7.51757 125.007 8.03326 125.541 8.94673V3.49805H127.227V17.8195H125.74ZM124.53 9.60772C124.094 9.18449 123.51 8.94925 122.903 8.95269C120.662 8.95269 120.066 10.9559 120.066 12.8007C120.066 14.6455 120.662 16.6487 122.903 16.6487C123.51 16.652 124.094 16.4173 124.53 15.9949C125.363 15.2601 125.64 14.05 125.64 12.8007C125.64 11.5514 125.362 10.3414 124.53 9.60772Z" fill="white"/>
<path d="M129.806 5.47863V3.49805H131.77V5.47863H129.806ZM129.925 17.8159V7.78196H131.651V17.8195L129.925 17.8159Z" fill="white"/>
<path d="M140.974 16.9865C140.26 17.6808 139.307 18.0774 138.078 18.0774C136.272 18.0774 135.122 17.2437 134.408 16.1933C133.872 15.4001 133.575 14.3092 133.575 12.8014C133.575 11.2936 133.872 10.2027 134.408 9.4095C135.123 8.35788 136.253 7.52539 138.058 7.52539C139.248 7.52539 140.22 7.92198 140.916 8.59726C141.627 9.27365 142.053 10.1959 142.107 11.1757H140.401C140.354 10.5861 140.101 10.0318 139.687 9.60959C139.243 9.20358 138.661 8.98319 138.06 8.99386C137.416 8.9828 136.792 9.21697 136.315 9.64889C135.522 10.323 135.303 11.5735 135.303 12.8026C135.303 14.0317 135.522 15.2822 136.315 15.9563C136.792 16.3887 137.416 16.623 138.06 16.6113C138.375 16.6191 138.689 16.5634 138.982 16.4476C139.275 16.3318 139.542 16.1582 139.767 15.9372C140.152 15.5312 140.39 15.0072 140.441 14.4497H142.146C142.095 15.4142 141.675 16.3222 140.974 16.9865Z" fill="white"/>
<path d="M151.982 13.3576H144.881C144.881 14.2699 145.238 15.2631 145.853 15.8765C146.309 16.3326 146.925 16.591 147.698 16.591C148.491 16.591 149.146 16.3731 149.562 15.9372C149.863 15.6403 150.071 15.2607 150.157 14.8463H151.803C151.727 15.343 151.551 15.819 151.285 16.2452C151.018 16.6713 150.668 17.0387 150.255 17.3247C149.495 17.8221 148.605 18.0844 147.697 18.0786C147.064 18.0898 146.437 17.9605 145.86 17.6999C145.283 17.4394 144.772 17.0542 144.362 16.572C143.528 15.6002 143.111 14.271 143.111 12.8431C143.111 11.633 143.33 10.5612 143.885 9.62745C144.6 8.41743 145.928 7.52539 147.674 7.52539C148.964 7.52539 149.995 8.02083 150.729 8.81521C151.542 9.70725 152.019 10.9971 151.998 12.3452L151.982 13.3576ZM149.662 9.86565C149.245 9.31065 148.57 8.95336 147.678 8.95336C145.853 8.95336 144.96 10.4409 144.92 11.9093H150.28C150.276 11.1555 150.062 10.4016 149.662 9.86565Z" fill="white"/>
<path d="M160.491 16.9471C159.718 17.7403 158.527 18.0774 157.219 18.0774C155.969 18.0774 154.819 17.7808 153.966 16.9471C153.66 16.6469 153.416 16.289 153.25 15.894C153.083 15.4991 152.996 15.0749 152.994 14.6462H154.679C154.683 14.9529 154.758 15.2545 154.899 15.5268C155.041 15.799 155.244 16.0342 155.493 16.2135C155.949 16.5506 156.664 16.6697 157.298 16.6697C157.993 16.6697 158.627 16.5506 159.143 16.1147C159.3 15.9795 159.425 15.812 159.511 15.6236C159.596 15.4353 159.64 15.2306 159.639 15.0237C159.639 14.2698 159.103 13.7339 158.071 13.5946C157.635 13.535 156.505 13.3969 155.808 13.298C154.301 13.0598 153.348 12.1273 153.348 10.5993C153.365 9.8626 153.663 9.16037 154.182 8.63657C154.837 7.96129 155.887 7.52539 157.138 7.52539C158.465 7.52539 159.656 7.94223 160.331 8.79496C160.766 9.3309 161.045 9.90614 161.045 10.7184H159.359C159.338 10.2426 159.132 9.79383 158.783 9.46905C158.367 9.09271 157.812 8.93312 157.138 8.93312C156.737 8.90799 156.336 8.97607 155.967 9.13201C155.332 9.39045 154.954 9.92519 154.954 10.4814C154.954 11.3151 155.471 11.6723 156.304 11.7914C156.859 11.87 157.653 11.9498 158.724 12.1285C160.153 12.3667 161.282 13.3981 161.282 14.9058C161.291 15.2814 161.226 15.6549 161.09 16.0052C160.954 16.3555 160.751 16.6755 160.491 16.9471Z" fill="white"/>
</svg>
