<svg width="112" height="27" viewBox="0 0 112 27" fill="none" xmlns="http://www.w3.org/2000/svg">
<path d="M48.2524 0L25.583 13.0759L48.2524 26.1653V22.7236L31.5315 13.0759L48.2524 3.42818V0Z" fill="#1C64F2"/>
<path d="M25.65 0H22.6689V26.1653H25.65V0Z" fill="#1C64F2"/>
<path d="M0 0V3.42818L16.7073 13.0759L0 22.7236V26.1653L22.6694 13.0759L0 0Z" fill="#1C64F2"/>
<path d="M105.176 8.34668V20.2708H108.103V11.0703H111.653V8.34668H105.176Z" fill="#1C64F2"/>
<path d="M71.3002 8.34668H64.8232V20.2708H67.7501V11.0703H71.3002V8.34668Z" fill="#1C64F2"/>
<path d="M92.1815 18.7258C91.3685 19.7557 89.9322 20.5958 88.13 20.5958C86.3278 20.5958 84.8373 19.7286 84.0108 18.7258C83.13 17.6147 82.71 16.1378 82.71 14.4034C82.71 12.6689 83.1165 11.192 84.0108 10.0809C84.8238 9.07814 86.3278 8.21094 88.13 8.21094C89.9322 8.21094 91.3549 9.05104 92.1815 10.0809C92.7235 10.7855 93.0487 11.7204 93.0894 12.6554H90.298C90.2709 12.2218 90.1354 11.8559 89.9593 11.5578C89.6205 11.0294 88.9972 10.6771 88.1436 10.6771C87.3712 10.6771 86.8021 11.0023 86.4091 11.4088C85.7316 12.154 85.6097 13.2922 85.6097 14.4169C85.6097 15.528 85.7181 16.6391 86.4091 17.3979C86.8021 17.8044 87.3712 18.1432 88.1436 18.1432C89.0108 18.1432 89.6205 17.7773 89.9593 17.2624C90.1354 16.9643 90.2845 16.5985 90.298 16.1784H93.0894C93.0487 17.0863 92.7371 18.0212 92.1815 18.7258Z" fill="#1C64F2"/>
<path d="M61.2055 5.62305H54.7285V8.34662H58.2922V20.2707H61.2055V8.34662H64.8234V5.62305H61.2055Z" fill="#1C64F2"/>
<path d="M81.5034 18.1975C81.5034 18.184 81.5034 18.184 81.5034 18.1975V12.9672C81.5034 12.1677 81.4628 11.3276 81.1647 10.5823C80.4872 8.80727 78.7527 8.17041 76.7202 8.17041C74.0779 8.17041 71.9641 9.34927 71.8015 12.0186H74.5522C74.62 10.9211 75.3923 10.3384 76.7202 10.3384C78.3327 10.3384 78.7256 11.0837 78.7256 12.2084V12.9401L75.2433 13.184C72.9804 13.3466 71.2324 14.6474 71.2324 16.8967C71.2324 18.8344 72.6958 20.6094 75.5143 20.6094C77.1674 20.6094 78.6443 19.6609 79.2134 18.726V20.2842H82.5874V18.2111H81.5034V18.1975ZM78.7121 15.5823C78.7121 17.3303 77.4655 18.2924 75.6769 18.2924C74.7826 18.2924 73.9966 17.7233 73.9966 16.8154C73.9966 15.8533 74.8368 15.3384 75.704 15.2707L78.7121 15.0403V15.5823Z" fill="#1C64F2"/>
<path d="M104.336 15.2842H96.4496C96.4225 16.1921 96.7477 17.0458 97.3033 17.6013C97.7098 17.9807 98.2789 18.333 99.0513 18.333C99.8643 18.333 100.366 18.1704 100.772 17.7639C101.016 17.52 101.219 17.1948 101.341 16.7612H104.065C103.997 17.4658 103.523 18.3872 103.062 18.9428C102.059 20.1216 100.596 20.5959 99.0919 20.5959C97.4795 20.5959 96.3006 20.0268 95.3792 19.146C94.2003 18.0078 93.5635 16.3547 93.5635 14.4306C93.5635 12.5471 94.1326 10.8669 95.2572 9.71513C96.138 8.80727 97.4117 8.22461 99.0242 8.22461C100.772 8.22461 102.357 8.92922 103.333 10.4062C104.2 11.6934 104.404 13.0349 104.349 14.5119C104.363 14.4983 104.336 15.0403 104.336 15.2842ZM100.813 11.165C100.433 10.7585 99.8372 10.4875 99.0242 10.4875C98.1705 10.4875 97.4659 10.8533 97.0594 11.3953C96.6529 11.9102 96.4767 12.4658 96.4496 13.2246H101.544C101.504 12.3439 101.26 11.6663 100.813 11.165Z" fill="#1C64F2"/>
</svg>
