<svg width="124" height="20" viewBox="0 0 124 20" fill="none" xmlns="http://www.w3.org/2000/svg">
<g clip-path="url(#clip0_1269_19183)">
<path d="M36.8808 0L19.5537 10L36.8808 20V17.3757L24.1084 10L36.8808 2.62324V0Z" fill="#1C64F2"/>
<path d="M19.6033 0H17.3259V20H19.6033V0Z" fill="#1C64F2"/>
<path d="M0 0V2.62324L12.7724 10L0 17.3757V20L17.326 10L0 0Z" fill="#1C64F2"/>
<path d="M80.3945 6.38574V15.4951H82.6222V8.46528H85.3448V6.38574H80.3945Z" fill="#1C64F2"/>
<path d="M54.504 6.38574H49.5537V15.4951H51.7813V8.46528H54.504V6.38574Z" fill="#1C64F2"/>
<path d="M46.7813 4.30762H41.8311V6.38612H44.5537V15.4955H46.7813V6.38612H49.5537V4.30762H46.7813Z" fill="#1C64F2"/>
<path d="M67.3747 8.1183C67.9195 8.06859 68.4642 8.31611 68.7604 8.81114C68.9085 9.05865 69.0079 9.35587 69.0079 9.6531H71.1361C71.0864 8.96027 70.8389 8.26743 70.4433 7.67298C69.7007 6.78234 68.5626 6.23761 67.3737 6.28732C66.1858 6.28732 65.0466 6.78234 64.2554 7.72269C62.9184 9.70281 62.9184 12.2774 64.2554 14.3072C65.0477 15.1978 66.1858 15.7426 67.3737 15.7426C68.5616 15.7426 69.7007 15.2475 70.4433 14.3569C70.8886 13.8122 71.1361 13.1193 71.1361 12.3768H69.0079C69.0079 12.674 68.9085 12.9712 68.7604 13.2188C68.4632 13.6641 67.9184 13.9116 67.3747 13.9116C66.8797 13.9116 66.3847 13.7138 66.0377 13.3171C65.5427 12.674 65.3449 11.8321 65.4433 11.0398C65.3439 10.2475 65.5914 9.40662 66.0377 8.76246C66.3847 8.31714 66.8797 8.11934 67.3747 8.11934" fill="#1C64F2"/>
<path d="M73.662 10.0993C73.662 9.60424 73.8101 9.10921 74.1073 8.7136C74.4542 8.26828 75.0476 7.97106 75.5924 8.02077C76.0874 7.97106 76.5824 8.16886 76.9781 8.5655C77.3737 9.01082 77.5725 9.55556 77.5725 10.15L73.662 10.1003V10.0993ZM75.6918 6.28713C74.6023 6.28713 73.6123 6.68274 72.8211 7.42528C71.9304 8.41534 71.4841 9.70262 71.5338 11.0386C71.4841 12.3756 71.9791 13.6618 72.9194 14.6519C73.662 15.3944 74.7018 15.79 75.7902 15.7414C76.9283 15.7911 78.0675 15.3457 78.8101 14.4541C79.2057 13.959 79.4532 13.4143 79.5526 12.8209H77.4731C77.4234 13.1181 77.2753 13.3656 77.0278 13.5634C76.6808 13.9104 76.1858 14.0585 75.6908 14.0088C75.1957 14.0088 74.7007 13.8109 74.3538 13.4143C73.9085 12.9193 73.6609 12.2762 73.7107 11.632H79.7504V11.0375C79.8498 9.94807 79.5526 8.80991 78.9582 7.91927C78.2156 6.8298 76.9781 6.23638 75.6908 6.28609" fill="#1C64F2"/>
<path d="M60.1471 11.8815C60.1471 13.2185 59.2068 13.961 57.8698 13.961C57.2267 14.0107 56.6322 13.5157 56.5825 12.8715V12.8218C56.6322 12.1787 57.2256 11.6339 57.8698 11.6837L60.1471 11.4859V11.8815ZM62.2753 12.4262V9.90135C62.325 9.3069 62.2256 8.66378 62.0278 8.06933C61.5328 6.73233 60.1958 6.2373 58.662 6.2373C56.6322 6.2373 55.0487 7.12794 54.9493 9.15777H57.0289C57.0786 8.3158 57.672 7.87049 58.662 7.87049C59.8996 7.87049 60.1968 8.46493 60.1968 9.30586V9.90031L57.5736 10.0981C55.841 10.2462 54.5537 11.1876 54.5537 12.9202C54.5537 14.4053 55.6919 15.7423 57.8211 15.7423C58.9106 15.792 59.9493 15.297 60.5438 14.4053V15.6429H63.1183V14.0583H62.3261L62.2764 12.4252L62.2753 12.4262Z" fill="#1C64F2"/>
<path d="M97.7829 14.2702C96.9202 15.0976 95.7645 15.4953 94.5745 15.4953H90.314V3.26562H94.5745C95.7645 3.26562 96.9202 3.67988 97.7829 4.50734C99.1282 5.78323 99.3529 7.61215 99.3529 9.37167C99.3529 11.1312 99.1116 12.9943 97.7829 14.2702ZM96.7483 5.52536C96.1787 4.95577 95.3689 4.68029 94.5745 4.68029H91.8488V14.0807H94.5745C95.3678 14.0807 96.1787 13.8042 96.7483 13.2356C97.7145 12.2528 97.8005 10.6828 97.8005 9.37167C97.8005 8.06057 97.7145 6.52577 96.7483 5.52536Z" fill="#1C64F2"/>
<path d="M104.906 8.12951C104.216 8.12951 103.647 8.4402 103.25 8.81924C102.543 9.49239 102.457 10.6989 102.457 11.6134V15.4938H101.008V6.76663H102.301L102.422 8.30142C102.871 7.23162 103.923 6.71484 105.027 6.71484C105.252 6.71484 105.493 6.73245 105.717 6.76663V8.19786C105.458 8.14608 105.165 8.12847 104.906 8.12847V8.12951Z" fill="#1C64F2"/>
<path d="M112.616 14.7017C111.978 15.3231 111.081 15.7197 109.977 15.7197C108.873 15.7197 107.977 15.3231 107.339 14.7017C106.39 13.7707 106.097 12.5113 106.097 11.1308C106.097 9.75036 106.39 8.49208 107.339 7.56001C107.977 6.93864 108.873 6.54199 109.977 6.54199C111.081 6.54199 111.978 6.93864 112.616 7.56001C113.565 8.49104 113.858 9.75036 113.858 11.1308C113.858 12.5113 113.565 13.7696 112.616 14.7017ZM111.546 8.42372C111.184 8.06125 110.667 7.80235 109.976 7.80235C109.286 7.80235 108.769 8.06125 108.406 8.42372C107.785 9.06167 107.595 10.1139 107.595 11.1319C107.595 12.1499 107.785 13.2021 108.406 13.84C108.769 14.2025 109.286 14.4614 109.976 14.4614C110.667 14.4614 111.184 14.2025 111.546 13.84C112.168 13.2021 112.357 12.1499 112.357 11.1319C112.357 10.1139 112.168 9.06167 111.546 8.42372Z" fill="#1C64F2"/>
<path d="M121.931 14.857C121.361 15.3914 120.551 15.7362 119.533 15.7362C118.585 15.7362 117.463 15.2878 116.998 14.4945V19.2377H115.531V6.7843H116.825L116.929 7.92245C117.429 7.04321 118.55 6.55957 119.533 6.55957C120.603 6.55957 121.43 6.92204 122 7.5082C122.827 8.35327 123.259 9.68095 123.259 11.1308C123.259 12.5807 122.811 14.0109 121.932 14.856L121.931 14.857ZM119.292 7.80232C118.654 7.80232 118.222 8.06123 117.877 8.37191C117.152 9.00986 116.911 10.0621 116.911 11.1484C116.911 12.2348 117.152 13.287 117.877 13.9249C118.222 14.2356 118.654 14.4945 119.292 14.4945C121.241 14.4945 121.759 12.7526 121.759 11.1484C121.759 9.54424 121.241 7.80232 119.292 7.80232Z" fill="#1C64F2"/>
</g>
<defs>
<clipPath id="clip0_1269_19183">
<rect width="123.258" height="20" fill="white"/>
</clipPath>
</defs>
</svg>
