<svg width="141" height="18" viewBox="0 0 141 18" fill="none" xmlns="http://www.w3.org/2000/svg">
<path d="M33.5826 0L17.9912 9L33.5826 18V15.6391L22.0899 9L33.5826 2.36185V0Z" fill="#1C64F2"/>
<path d="M18.0366 0H15.9873V18H18.0366V0Z" fill="#1C64F2"/>
<path d="M0.394531 0V2.36185L11.8882 9L0.394531 15.6391V18L15.9868 9L0.394531 0Z" fill="#1C64F2"/>
<path d="M72.7402 5.74707V13.9446H74.7458V7.61772H77.1958V5.74707H72.7402Z" fill="#1C64F2"/>
<path d="M49.441 5.74707H44.9863V13.9446H46.9909V7.61772H49.441V5.74707Z" fill="#1C64F2"/>
<path d="M42.4927 3.87598H38.0371V5.74756H40.4872V13.945H42.4927V5.74756H44.9866V3.87598H42.4927Z" fill="#1C64F2"/>
<path d="M61.0248 7.30696C61.515 7.26222 62.0052 7.48498 62.2717 7.93051C62.405 8.15327 62.4945 8.42078 62.4945 8.68828H64.4096C64.3649 8.06473 64.1421 7.44118 63.7861 6.90617C63.1179 6.1046 62.0937 5.61433 61.0239 5.65907C59.9549 5.65907 58.9298 6.1046 58.2178 6.95091C57.0146 8.73302 57.0146 11.0501 58.2178 12.877C58.9307 13.6785 59.9549 14.1688 61.0239 14.1688C62.0928 14.1688 63.1179 13.7233 63.7861 12.9217C64.1869 12.4314 64.4096 11.8079 64.4096 11.1396H62.4945C62.4945 11.4071 62.405 11.6746 62.2717 11.8974C62.0043 12.2982 61.5141 12.5209 61.0248 12.5209C60.5793 12.5209 60.1339 12.3429 59.8217 11.9859C59.3762 11.4071 59.1982 10.6493 59.2867 9.93631C59.1973 9.22328 59.42 8.46645 59.8217 7.8867C60.1339 7.48592 60.5793 7.30789 61.0248 7.30789" fill="#1C64F2"/>
<path d="M66.6822 9.08876C66.6822 8.64323 66.8154 8.1977 67.0829 7.84165C67.3951 7.44087 67.9291 7.17337 68.4193 7.2181C68.8648 7.17337 69.3103 7.35139 69.6663 7.70837C70.0223 8.10916 70.2012 8.59942 70.2012 9.13443L66.6822 9.08969V9.08876ZM68.5088 5.65783C67.5284 5.65783 66.6374 6.01388 65.9254 6.68217C65.124 7.57322 64.7223 8.73177 64.767 9.93414C64.7223 11.1374 65.1678 12.2951 66.014 13.1861C66.6822 13.8544 67.6179 14.2104 68.5973 14.1666C69.6215 14.2114 70.6467 13.8106 71.3149 13.0081C71.6709 12.5626 71.8936 12.0723 71.9831 11.5382H70.1117C70.067 11.8057 69.9337 12.0285 69.711 12.2065C69.3988 12.5187 68.9533 12.652 68.5079 12.6073C68.0624 12.6073 67.6169 12.4293 67.3047 12.0723C66.904 11.6268 66.6813 11.048 66.726 10.4682H72.1611V9.93321C72.2505 8.95267 71.9831 7.92834 71.4481 7.12676C70.7799 6.14623 69.6663 5.61216 68.5079 5.6569" fill="#1C64F2"/>
<path d="M54.5207 10.693C54.5207 11.8963 53.6745 12.5646 52.4714 12.5646C51.8927 12.6093 51.3577 12.1638 51.313 11.5841V11.5393C51.3577 10.9605 51.8917 10.4703 52.4714 10.515L54.5207 10.337V10.693V10.693ZM56.4359 11.1833V8.91092C56.4806 8.37592 56.3911 7.79711 56.2131 7.2621C55.7677 6.05881 54.5645 5.61328 53.1843 5.61328C51.3577 5.61328 49.9328 6.41486 49.8433 8.2417H51.7147C51.7594 7.48393 52.2934 7.08315 53.1843 7.08315C54.298 7.08315 54.5655 7.61815 54.5655 8.37498V8.90999L52.2049 9.08801C50.6457 9.2213 49.4873 10.0685 49.4873 11.6279C49.4873 12.9645 50.5115 14.1678 52.4276 14.1678C53.408 14.2125 54.3427 13.767 54.8777 12.9645V14.0783H57.1945V12.6522H56.4815L56.4368 11.1824L56.4359 11.1833Z" fill="#1C64F2"/>
<path d="M83.0481 4.21265V7.7983H88.1701V9.10225H83.0481V13.9453H81.667V2.93945H88.7917V4.21265H83.0491H83.0481Z" fill="#1C64F2"/>
<path d="M95.6049 14.0546C94.9069 14.0546 94.4717 13.527 94.4717 12.8597H94.4409C93.9908 13.651 93.0132 14.1478 91.9107 14.1478C90.1102 14.1478 89.21 12.937 89.21 11.7263C89.21 10.7168 89.8623 9.39798 92.0039 9.27308L94.3943 9.13327V8.55912C94.3943 8.17138 94.3478 7.68951 93.9908 7.36422C93.7271 7.11629 93.3385 6.96063 92.7029 6.96063C91.989 6.96063 91.5389 7.16289 91.2751 7.42667C91.0263 7.67459 90.8875 7.9859 90.8875 8.37364H89.5995C89.6154 7.65968 89.8791 7.14705 90.2826 6.72855C90.8101 6.16931 91.742 5.89062 92.7038 5.89062C94.2247 5.89062 95.0942 6.54307 95.467 7.39684C95.6226 7.75382 95.7 8.1574 95.7 8.60759V12.4104C95.7 12.8298 95.8705 12.938 96.1343 12.938C96.2741 12.938 96.4754 12.8914 96.4754 12.8914V13.8691C96.1958 14.0089 95.932 14.0555 95.6059 14.0555L95.6049 14.0546ZM94.3943 10.1585L92.2835 10.2825C91.4923 10.3291 90.5603 10.7019 90.5603 11.6955C90.5603 12.3936 90.9946 13.0461 92.113 13.0461C92.7187 13.0461 93.3077 12.8438 93.7271 12.4095C94.193 11.9285 94.3943 11.2761 94.3943 10.6246V10.1585Z" fill="#1C64F2"/>
<path d="M102.978 13.294C102.419 13.8374 101.674 14.1477 100.711 14.1477C99.2984 14.1477 98.3981 13.4953 97.8399 12.6732C97.4205 12.0524 97.1885 11.1987 97.1885 10.0187C97.1885 8.8387 97.4215 7.98493 97.8399 7.36417C98.3991 6.54116 99.2835 5.88965 100.696 5.88965C101.627 5.88965 102.388 6.20003 102.931 6.72757C103.459 7.24021 103.801 7.89172 103.862 8.74549H102.528C102.465 8.2021 102.264 7.81436 101.968 7.51889C101.658 7.22436 101.208 7.03795 100.695 7.03795C100.09 7.03795 99.6712 7.25512 99.3292 7.55059C98.7085 8.07813 98.5379 9.0568 98.5379 10.0187C98.5379 10.9806 98.7085 11.9592 99.3292 12.4868C99.6703 12.7813 100.09 12.9994 100.695 12.9994C101.239 12.9994 101.72 12.7972 102.03 12.4719C102.31 12.1773 102.496 11.8194 102.557 11.3077H103.892C103.83 12.1457 103.504 12.7823 102.976 13.2949L102.978 13.294Z" fill="#1C64F2"/>
<path d="M107.774 14.0543C106.083 14.0543 105.617 12.9833 105.617 11.9273V7.22411H104.096V6.09072H105.617V4.08772L106.936 3.77734V6.09072H109.264V7.22411H106.936V11.7726C106.936 12.5331 107.262 12.8435 107.992 12.8435C108.551 12.8435 109.343 12.7037 109.343 12.7037V13.8371C108.986 13.9303 108.505 14.0543 107.775 14.0543H107.774Z" fill="#1C64F2"/>
<path d="M115.737 13.2314C115.163 13.7907 114.356 14.1476 113.362 14.1476C112.369 14.1476 111.562 13.7907 110.988 13.2314C110.134 12.3935 109.87 11.2601 109.87 10.0177C109.87 8.77523 110.134 7.64277 110.988 6.80391C111.562 6.24468 112.369 5.8877 113.362 5.8877C114.356 5.8877 115.163 6.24468 115.737 6.80391C116.59 7.64184 116.854 8.77523 116.854 10.0177C116.854 11.2601 116.59 12.3926 115.737 13.2314ZM114.774 7.58125C114.448 7.25503 113.983 7.02202 113.361 7.02202C112.74 7.02202 112.275 7.25503 111.948 7.58125C111.389 8.1554 111.219 9.10238 111.219 10.0186C111.219 10.9348 111.389 11.8818 111.948 12.4559C112.275 12.7822 112.74 13.0152 113.361 13.0152C113.983 13.0152 114.448 12.7822 114.774 12.4559C115.333 11.8818 115.504 10.9348 115.504 10.0186C115.504 9.10238 115.333 8.1554 114.774 7.58125Z" fill="#1C64F2"/>
<path d="M121.867 7.31714C121.247 7.31714 120.734 7.59676 120.377 7.9379C119.741 8.54374 119.663 9.62959 119.663 10.4526V13.945H118.359V6.09055H119.523L119.632 7.47186C120.036 6.50904 120.983 6.04395 121.976 6.04395C122.178 6.04395 122.396 6.05979 122.597 6.09055V7.37866C122.364 7.33205 122.1 7.31621 121.867 7.31621V7.31714Z" fill="#1C64F2"/>
<path d="M123.45 4.29012V2.7373H124.987V4.29012H123.45ZM123.543 13.9454V6.09087H124.894V13.9454H123.543Z" fill="#1C64F2"/>
<path d="M133.322 10.453H127.766C127.766 11.167 128.045 11.9434 128.526 12.4243C128.883 12.7813 129.364 12.9836 129.97 12.9836C130.576 12.9836 131.103 12.813 131.429 12.4709C131.647 12.2538 131.786 12.0366 131.895 11.6172H133.183C133.074 12.3936 132.609 13.1234 131.973 13.5577C131.414 13.9306 130.716 14.1477 129.97 14.1477C128.867 14.1477 127.968 13.6817 127.362 12.9677C126.71 12.2072 126.385 11.167 126.385 10.0494C126.385 9.10247 126.555 8.26454 126.991 7.53474C127.55 6.58776 128.59 5.88965 129.955 5.88965C130.964 5.88965 131.771 6.27739 132.345 6.89907C132.982 7.59812 133.355 8.60661 133.339 9.66264L133.323 10.454L133.322 10.453ZM131.506 7.72115C131.18 7.28681 130.652 7.00719 129.954 7.00719C128.526 7.00719 127.827 8.17134 127.797 9.32057H131.988C131.988 8.73058 131.817 8.14058 131.507 7.72208L131.506 7.72115Z" fill="#1C64F2"/>
<path d="M139.982 13.2622C139.376 13.883 138.445 14.1467 137.421 14.1467C136.397 14.1467 135.543 13.9137 134.876 13.2622C134.395 12.7962 134.115 12.1288 134.115 11.4615H135.435C135.451 12.0049 135.699 12.4085 136.071 12.6881C136.428 12.9518 136.987 13.0451 137.484 13.0451C138.028 13.0451 138.524 12.9518 138.928 12.6107C139.145 12.4401 139.315 12.1139 139.315 11.7569C139.315 11.1669 138.896 10.7475 138.089 10.6394C137.748 10.5928 136.863 10.4837 136.319 10.4064C135.139 10.22 134.395 9.49016 134.395 8.29526C134.395 7.68942 134.69 7.11527 135.047 6.75829C135.56 6.23074 136.382 5.88867 137.36 5.88867C138.4 5.88867 139.331 6.21489 139.859 6.88225C140.2 7.30168 140.418 7.75187 140.418 8.38846H139.098C139.082 7.98488 138.881 7.61206 138.648 7.41073C138.322 7.1162 137.888 6.9913 137.36 6.9913C137.05 6.9913 136.817 6.9913 136.444 7.14696C135.947 7.34921 135.653 7.76771 135.653 8.20298C135.653 8.85543 136.056 9.13411 136.709 9.22732C137.143 9.28977 137.765 9.35129 138.603 9.49109C139.72 9.67751 140.605 10.4847 140.605 11.6647C140.605 12.3479 140.356 12.8754 139.985 13.2632L139.982 13.2622Z" fill="#1C64F2"/>
</svg>
