<svg width="60" height="27" viewBox="0 0 60 27" fill="none" xmlns="http://www.w3.org/2000/svg">
<path d="M26.8152 0.576172L17.2871 6.07617L26.8152 11.5762V10.1334L19.7919 6.07617L26.8152 2.01952V0.576172Z" fill="white"/>
<path d="M17.3149 0.576172H16.0625V11.5762H17.3149V0.576172Z" fill="white"/>
<path d="M6.5332 0.576172V2.01952L13.5571 6.07617L6.5332 10.1334V11.5762L16.0618 6.07617L6.5332 0.576172Z" fill="white"/>
<path d="M50.7441 4.08789V9.09747H51.9697V5.23107H53.467V4.08789H50.7441Z" fill="white"/>
<path d="M36.5065 4.08789H33.7842V9.09747H35.0092V5.23107H36.5065V4.08789Z" fill="white"/>
<path d="M32.26 2.94434H29.5371V4.08808H31.0344V9.09766H32.26V4.08808H33.784V2.94434H32.26Z" fill="white"/>
<path d="M43.5852 5.04099C43.8848 5.01365 44.1843 5.14979 44.3472 5.42205C44.4286 5.55819 44.4833 5.72166 44.4833 5.88513H45.6537C45.6263 5.50407 45.4902 5.12302 45.2727 4.79607C44.8643 4.30622 44.2384 4.00661 43.5846 4.03395C42.9314 4.03395 42.3049 4.30622 41.8698 4.82341C41.1345 5.91247 41.1345 7.32848 41.8698 8.44489C42.3055 8.93474 42.9314 9.23435 43.5846 9.23435C44.2379 9.23435 44.8643 8.96208 45.2727 8.47223C45.5176 8.17262 45.6537 7.79156 45.6537 7.38317H44.4833C44.4833 7.54664 44.4286 7.71011 44.3472 7.84625C44.1838 8.09117 43.8842 8.2273 43.5852 8.2273C43.313 8.2273 43.0407 8.11851 42.8499 7.90036C42.5777 7.54664 42.4689 7.08356 42.523 6.64782C42.4684 6.21208 42.6045 5.74957 42.8499 5.39528C43.0407 5.15036 43.313 5.04156 43.5852 5.04156" fill="white"/>
<path d="M47.0425 6.13009C47.0425 5.85782 47.124 5.58555 47.2874 5.36797C47.4782 5.12304 47.8046 4.95957 48.1041 4.98691C48.3764 4.95957 48.6486 5.06836 48.8661 5.28652C49.0837 5.53144 49.1931 5.83105 49.1931 6.158L47.0425 6.13066V6.13009ZM48.1588 4.03341C47.5597 4.03341 47.0152 4.25099 46.5801 4.65939C46.0903 5.20393 45.8448 5.91193 45.8722 6.64671C45.8448 7.38205 46.1171 8.08949 46.6342 8.63402C47.0425 9.04242 47.6143 9.26001 48.2129 9.23324C48.8388 9.26058 49.4653 9.01565 49.8736 8.52523C50.0912 8.25296 50.2273 7.95336 50.282 7.62698H49.1384C49.111 7.79045 49.0296 7.92659 48.8935 8.03538C48.7027 8.22619 48.4305 8.30764 48.1582 8.2803C47.886 8.2803 47.6138 8.17151 47.423 7.95336C47.1781 7.68109 47.042 7.32737 47.0693 6.97309H50.3908V6.64614C50.4454 6.04693 50.282 5.42094 49.9551 4.93109C49.5467 4.33188 48.8661 4.0055 48.1582 4.03284" fill="white"/>
<path d="M39.6102 7.11015C39.6102 7.84549 39.093 8.25389 38.3578 8.25389C38.0041 8.28123 37.6772 8.00897 37.6499 7.65468V7.62734C37.6772 7.27362 38.0035 6.97401 38.3578 7.00136L39.6102 6.89256V7.11015ZM40.7805 7.40975V6.02108C40.8079 5.69414 40.7532 5.34042 40.6444 5.01347C40.3722 4.27813 39.6369 4.00586 38.7935 4.00586C37.6772 4.00586 36.8064 4.49571 36.7517 5.61212H37.8953C37.9227 5.14904 38.249 4.90411 38.7935 4.90411C39.474 4.90411 39.6375 5.23106 39.6375 5.69357V6.02051L38.1949 6.12931C37.2421 6.21076 36.5342 6.72852 36.5342 7.68145C36.5342 8.49825 37.1601 9.23359 38.331 9.23359C38.9302 9.26093 39.5014 8.98867 39.8283 8.49825V9.17891H41.2441V8.30743H40.8084L40.7811 7.40918L40.7805 7.40975Z" fill="white"/>
<path d="M1.91238 17.0515V20.6372H7.03433V21.9411H1.91238V26.7841H0.53125V15.7783H7.65592V17.0515H1.91331H1.91238Z" fill="white"/>
<path d="M14.4692 26.8934C13.7712 26.8934 13.336 26.3659 13.336 25.6985H13.3052C12.8551 26.4899 11.8775 26.9866 10.775 26.9866C8.97447 26.9866 8.07422 25.7759 8.07422 24.5651C8.07422 23.5557 8.72657 22.2368 10.8682 22.112L13.2586 21.9721V21.398C13.2586 21.0103 13.212 20.5284 12.8551 20.2031C12.5913 19.9552 12.2027 19.7995 11.5671 19.7995C10.8533 19.7995 10.4031 20.0018 10.1394 20.2655C9.89057 20.5135 9.75171 20.8248 9.75171 21.2125H8.46377C8.47962 20.4985 8.74335 19.9859 9.14688 19.5674C9.67436 19.0082 10.6063 18.7295 11.5681 18.7295C13.089 18.7295 13.9585 19.3819 14.3313 20.2357C14.4869 20.5927 14.5642 20.9963 14.5642 21.4465V25.2493C14.5642 25.6687 14.7348 25.7768 14.9985 25.7768C15.1383 25.7768 15.3396 25.7302 15.3396 25.7302V26.708C15.06 26.8478 14.7963 26.8944 14.4701 26.8944L14.4692 26.8934ZM13.2586 22.9974L11.1478 23.1214C10.3565 23.168 9.4246 23.5408 9.4246 24.5344C9.4246 25.2325 9.85889 25.8849 10.9772 25.8849C11.583 25.8849 12.172 25.6827 12.5913 25.2483C13.0573 24.7674 13.2586 24.115 13.2586 23.4634V22.9974Z" fill="white"/>
<path d="M21.842 26.1328C21.2828 26.6762 20.5382 26.9866 19.5755 26.9866C18.1627 26.9866 17.2624 26.3342 16.7042 25.5121C16.2848 24.8913 16.0527 24.0375 16.0527 22.8576C16.0527 21.6776 16.2857 20.8238 16.7042 20.203C17.2633 19.38 18.1478 18.7285 19.5606 18.7285C20.4916 18.7285 21.2521 19.0389 21.7954 19.5664C22.3229 20.0791 22.6649 20.7306 22.7264 21.5844H21.3919C21.3294 21.041 21.1281 20.6532 20.8327 20.3578C20.5224 20.0632 20.0722 19.8768 19.5597 19.8768C18.9539 19.8768 18.5355 20.094 18.1934 20.3895C17.5728 20.917 17.4022 21.8957 17.4022 22.8576C17.4022 23.8194 17.5728 24.7981 18.1934 25.3257C18.5345 25.6202 18.9539 25.8383 19.5597 25.8383C20.103 25.8383 20.5839 25.636 20.8942 25.3107C21.1738 25.0162 21.3602 24.6583 21.4217 24.1466H22.7562C22.6938 24.9845 22.3686 25.6211 21.8401 26.1338L21.842 26.1328Z" fill="white"/>
<path d="M26.6383 26.8931C24.9469 26.8931 24.4809 25.8222 24.4809 24.7662V20.063H22.96V18.9296H24.4809V16.9266L25.8005 16.6162V18.9296H28.1285V20.063H25.8005V24.6114C25.8005 25.372 26.1267 25.6824 26.8564 25.6824C27.4156 25.6824 28.2068 25.5426 28.2068 25.5426V26.676C27.8499 26.7692 27.369 26.8931 26.6393 26.8931H26.6383Z" fill="white"/>
<path d="M34.6009 26.0703C34.0269 26.6295 33.2198 26.9865 32.2263 26.9865C31.2329 26.9865 30.4258 26.6295 29.8518 26.0703C28.9981 25.2324 28.7344 24.099 28.7344 22.8565C28.7344 21.6141 28.9981 20.4816 29.8518 19.6428C30.4258 19.0835 31.2329 18.7266 32.2263 18.7266C33.2198 18.7266 34.0269 19.0835 34.6009 19.6428C35.4546 20.4807 35.7183 21.6141 35.7183 22.8565C35.7183 24.099 35.4546 25.2314 34.6009 26.0703ZM33.6382 20.4201C33.3121 20.0939 32.847 19.8609 32.2254 19.8609C31.6038 19.8609 31.1388 20.0939 30.8126 20.4201C30.2534 20.9943 30.0829 21.9412 30.0829 22.8575C30.0829 23.7737 30.2534 24.7207 30.8126 25.2948C31.1388 25.621 31.6038 25.854 32.2254 25.854C32.847 25.854 33.3121 25.621 33.6382 25.2948C34.1974 24.7207 34.3679 23.7737 34.3679 22.8575C34.3679 21.9412 34.1974 20.9943 33.6382 20.4201Z" fill="white"/>
<path d="M40.7315 20.156C40.1108 20.156 39.5982 20.4356 39.2413 20.7768C38.6048 21.3826 38.5274 22.4685 38.5274 23.2915V26.7839H37.2236V18.9294H38.3876L38.4967 20.3107C38.9002 19.3479 39.8471 18.8828 40.8405 18.8828C41.0427 18.8828 41.2599 18.8987 41.4612 18.9294V20.2175C41.2282 20.1709 40.9645 20.1551 40.7315 20.1551V20.156Z" fill="white"/>
<path d="M42.3145 17.129V15.5762H43.8512V17.129H42.3145ZM42.4076 26.7842V18.9297H43.758V26.7842H42.4076Z" fill="white"/>
<path d="M52.1864 23.2919H46.6302C46.6302 24.0059 46.9097 24.7823 47.3906 25.2632C47.7476 25.6202 48.2284 25.8224 48.8342 25.8224C49.44 25.8224 49.9675 25.6519 50.2936 25.3098C50.5108 25.0926 50.6506 24.8755 50.7596 24.456H52.0476C51.9385 25.2325 51.4735 25.9623 50.837 26.3966C50.2778 26.7694 49.5798 26.9866 48.8342 26.9866C47.7317 26.9866 46.8324 26.5206 46.2266 25.8066C45.5743 25.046 45.249 24.0059 45.249 22.8883C45.249 21.9413 45.4196 21.1034 45.8548 20.3736C46.414 19.4266 47.454 18.7285 48.8193 18.7285C49.8286 18.7285 50.6357 19.1163 51.2097 19.7379C51.8463 20.437 52.219 21.4455 52.2032 22.5015L52.1873 23.2928L52.1864 23.2919ZM50.3701 20.56C50.0439 20.1257 49.5164 19.8461 48.8184 19.8461C47.3906 19.8461 46.6917 21.0102 46.6609 22.1594H50.8519C50.8519 21.5694 50.6813 20.9794 50.371 20.561L50.3701 20.56Z" fill="white"/>
<path d="M58.8461 26.1011C58.2403 26.7218 57.3093 26.9856 56.2851 26.9856C55.2609 26.9856 54.4072 26.7526 53.7399 26.1011C53.2591 25.6351 52.9795 24.9677 52.9795 24.3003H54.2991C54.315 24.8437 54.5629 25.2473 54.9356 25.5269C55.2926 25.7907 55.8517 25.8839 56.3484 25.8839C56.8918 25.8839 57.3885 25.7907 57.792 25.4496C58.0092 25.279 58.1797 24.9528 58.1797 24.5958C58.1797 24.0058 57.7603 23.5864 56.9533 23.4783C56.6122 23.4317 55.7268 23.3226 55.1835 23.2452C54.0037 23.0588 53.2591 22.329 53.2591 21.1341C53.2591 20.5283 53.5545 19.9541 53.9114 19.5972C54.424 19.0696 55.246 18.7275 56.2245 18.7275C57.2645 18.7275 58.1955 19.0538 58.723 19.7211C59.0641 20.1405 59.2822 20.5907 59.2822 21.2273H57.9626C57.9467 20.8237 57.7454 20.4509 57.5124 20.2496C57.1863 19.9551 56.752 19.8302 56.2245 19.8302C55.9142 19.8302 55.6812 19.8302 55.3084 19.9858C54.8117 20.1881 54.5172 20.6066 54.5172 21.0419C54.5172 21.6943 54.9207 21.973 55.5731 22.0662C56.0074 22.1286 56.629 22.1902 57.4668 22.33C58.5842 22.5164 59.4695 23.3235 59.4695 24.5035C59.4695 25.1867 59.2207 25.7143 58.8488 26.102L58.8461 26.1011Z" fill="white"/>
</svg>
