<svg width="183" height="18" viewBox="0 0 183 18" fill="none" xmlns="http://www.w3.org/2000/svg">
<path d="M33.7426 0L18.1504 9L33.7426 18V15.6391L22.2493 9L33.7426 2.36185V0Z" fill="#1C64F2"/>
<path d="M18.195 0H16.1455V18H18.195V0Z" fill="#1C64F2"/>
<path d="M0.552734 0V2.36185L12.047 9L0.552734 15.6391V18L16.1459 9L0.552734 0Z" fill="#1C64F2"/>
<path d="M72.9014 5.74707V13.9446H74.907V7.61772H77.3572V5.74707H72.9014Z" fill="#1C64F2"/>
<path d="M49.6024 5.74707H45.1475V13.9446H47.1522V7.61772H49.6024V5.74707Z" fill="#1C64F2"/>
<path d="M42.6531 3.87598H38.1973V5.74756H40.6475V13.945H42.6531V5.74756H45.1471V3.87598H42.6531Z" fill="#1C64F2"/>
<path d="M61.1861 7.30696C61.6763 7.26222 62.1666 7.48498 62.4331 7.93051C62.5664 8.15327 62.6559 8.42078 62.6559 8.68828H64.5711C64.5264 8.06473 64.3036 7.44118 63.9476 6.90617C63.2794 6.1046 62.2551 5.61433 61.1852 5.65907C60.1162 5.65907 59.091 6.1046 58.379 6.95091C57.1758 8.73302 57.1758 11.0501 58.379 12.877C59.0919 13.6785 60.1162 14.1688 61.1852 14.1688C62.2542 14.1688 63.2794 13.7233 63.9476 12.9217C64.3484 12.4314 64.5711 11.8079 64.5711 11.1396H62.6559C62.6559 11.4071 62.5664 11.6746 62.4331 11.8974C62.1656 12.2982 61.6754 12.5209 61.1861 12.5209C60.7406 12.5209 60.2951 12.3429 59.9829 11.9859C59.5374 11.4071 59.3594 10.6493 59.448 9.93631C59.3585 9.22328 59.5812 8.46645 59.9829 7.8867C60.2951 7.48592 60.7406 7.30789 61.1861 7.30789" fill="#1C64F2"/>
<path d="M66.8434 9.08876C66.8434 8.64323 66.9767 8.1977 67.2442 7.84165C67.5564 7.44087 68.0904 7.17337 68.5806 7.2181C69.0261 7.17337 69.4716 7.35139 69.8276 7.70837C70.1837 8.10916 70.3626 8.59942 70.3626 9.13443L66.8434 9.08969V9.08876ZM68.6701 5.65783C67.6897 5.65783 66.7987 6.01388 66.0866 6.68217C65.2851 7.57322 64.8834 8.73178 64.9282 9.93414C64.8834 11.1374 65.3289 12.2951 66.1752 13.1861C66.8434 13.8544 67.7791 14.2104 68.7586 14.1666C69.7829 14.2114 70.8081 13.8106 71.4763 13.0081C71.8323 12.5626 72.0551 12.0723 72.1446 11.5382H70.2731C70.2284 11.8057 70.0951 12.0285 69.8724 12.2065C69.5602 12.5187 69.1147 12.652 68.6692 12.6073C68.2237 12.6073 67.7782 12.4293 67.466 12.0723C67.0652 11.6268 66.8425 11.048 66.8872 10.4682H72.3226V9.93321C72.412 8.95267 72.1446 7.92834 71.6096 7.12676C70.9414 6.14623 69.8276 5.61216 68.6692 5.6569" fill="#1C64F2"/>
<path d="M54.6811 10.693C54.6811 11.8963 53.8349 12.5646 52.6317 12.5646C52.0529 12.6093 51.518 12.1638 51.4732 11.5841V11.5393C51.518 10.9605 52.052 10.4703 52.6317 10.515L54.6811 10.337V10.693ZM56.5964 11.1833V8.91092C56.6411 8.37592 56.5516 7.79711 56.3736 7.2621C55.9281 6.05881 54.7249 5.61328 53.3447 5.61328C51.518 5.61328 50.093 6.41486 50.0035 8.2417H51.8749C51.9197 7.48393 52.4537 7.08315 53.3447 7.08315C54.4584 7.08315 54.7259 7.61815 54.7259 8.37498V8.90999L52.3651 9.08801C50.8059 9.2213 49.6475 10.0685 49.6475 11.6279C49.6475 12.9645 50.6717 14.1678 52.5879 14.1678C53.5683 14.2125 54.5031 13.767 55.0381 12.9645V14.0783H57.355V12.6522H56.6421L56.5973 11.1824L56.5964 11.1833Z" fill="#1C64F2"/>
<path d="M88.6279 8.76019C88.038 9.35018 87.1377 9.6764 85.927 9.6764H83.2103V13.9453H81.8291V2.93945H85.9112C87.1992 2.93945 88.1154 3.29643 88.7053 3.93303C89.2328 4.50718 89.5432 5.29944 89.5432 6.26133C89.5432 7.33227 89.217 8.17112 88.627 8.76019H88.6279ZM85.8805 4.19587H83.2103V8.41812H85.8954C87.3698 8.41812 88.1154 7.73492 88.1154 6.26039C88.1154 4.86323 87.2458 4.19587 85.8805 4.19587Z" fill="#1C64F2"/>
<path d="M96.9944 10.453H91.4378C91.4378 11.167 91.7174 11.9434 92.1983 12.4243C92.5553 12.7813 93.0362 12.9836 93.642 12.9836C94.2478 12.9836 94.7753 12.813 95.1015 12.4709C95.3186 12.2538 95.4584 12.0366 95.5675 11.6172H96.8555C96.7465 12.3936 96.2814 13.1234 95.6448 13.5577C95.0856 13.9306 94.3876 14.1477 93.642 14.1477C92.5395 14.1477 91.6401 13.6817 91.0343 12.9677C90.3819 12.2072 90.0566 11.167 90.0566 10.0494C90.0566 9.10247 90.2272 8.26454 90.6624 7.53474C91.2216 6.58776 92.2617 5.88965 93.6271 5.88965C94.6364 5.88965 95.4435 6.27739 96.0176 6.89907C96.6542 7.59812 97.027 8.60661 97.0111 9.66264L96.9953 10.454L96.9944 10.453ZM95.1779 7.72115C94.8517 7.28681 94.3242 7.00719 93.6262 7.00719C92.1983 7.00719 91.4994 8.17134 91.4686 9.32057H95.6598C95.6598 8.73058 95.4892 8.14058 95.1788 7.72208L95.1779 7.72115Z" fill="#1C64F2"/>
<path d="M101.962 7.31714C101.341 7.31714 100.829 7.59676 100.472 7.9379C99.8353 8.54374 99.758 9.62959 99.758 10.4526V13.945H98.4541V6.09055H99.6182L99.7272 7.47186C100.131 6.50904 101.078 6.04395 102.071 6.04395C102.273 6.04395 102.491 6.05979 102.692 6.09055V7.37866C102.459 7.33205 102.195 7.31621 101.962 7.31621V7.31714Z" fill="#1C64F2"/>
<path d="M109.474 13.371C108.961 13.852 108.232 14.1623 107.316 14.1623C106.462 14.1623 105.453 13.7587 105.035 13.0448V17.3136H103.715V6.10558H104.879L104.972 7.12992C105.422 6.33859 106.432 5.90332 107.316 5.90332C108.279 5.90332 109.023 6.22954 109.536 6.75709C110.281 7.51765 110.669 8.71256 110.669 10.0174C110.669 11.3223 110.266 12.6095 109.475 13.3701L109.474 13.371ZM107.099 7.0218C106.525 7.0218 106.136 7.25481 105.826 7.53443C105.173 8.10858 104.956 9.05556 104.956 10.0333C104.956 11.011 105.173 11.958 105.826 12.5322C106.136 12.8118 106.525 13.0448 107.099 13.0448C108.853 13.0448 109.319 11.4771 109.319 10.0333C109.319 8.58953 108.853 7.0218 107.099 7.0218Z" fill="#1C64F2"/>
<path d="M118.492 10.453H112.936C112.936 11.167 113.215 11.9434 113.696 12.4243C114.053 12.7813 114.534 12.9836 115.14 12.9836C115.746 12.9836 116.273 12.813 116.6 12.4709C116.817 12.2538 116.956 12.0366 117.066 11.6172H118.354C118.244 12.3936 117.779 13.1234 117.143 13.5577C116.584 13.9306 115.886 14.1477 115.14 14.1477C114.037 14.1477 113.138 13.6817 112.532 12.9677C111.88 12.2072 111.555 11.167 111.555 10.0494C111.555 9.10247 111.725 8.26454 112.16 7.53474C112.72 6.58776 113.76 5.88965 115.125 5.88965C116.134 5.88965 116.942 6.27739 117.516 6.89907C118.152 7.59812 118.525 8.60661 118.509 9.66264L118.493 10.454L118.492 10.453ZM116.676 7.72115C116.35 7.28681 115.822 7.00719 115.124 7.00719C113.696 7.00719 112.997 8.17134 112.967 9.32057H117.158C117.158 8.73058 116.987 8.14058 116.677 7.72208L116.676 7.72115Z" fill="#1C64F2"/>
<path d="M122.683 14.0543C120.992 14.0543 120.526 12.9833 120.526 11.9273V7.22411H119.005V6.09072H120.526V4.08772L121.846 3.77734V6.09072H124.174V7.22411H121.846V11.7726C121.846 12.5331 122.172 12.8435 122.902 12.8435C123.461 12.8435 124.252 12.7037 124.252 12.7037V13.8371C123.895 13.9303 123.414 14.0543 122.684 14.0543H122.683Z" fill="#1C64F2"/>
<path d="M130.46 13.9453L130.351 12.7504C129.948 13.6508 128.938 14.1317 128.023 14.1317C126.238 14.1317 125.338 13.0608 125.338 11.2442V6.09082H126.658V11.0587C126.658 12.2387 127.092 12.9368 128.334 12.9368C128.862 12.9368 129.297 12.7038 129.638 12.3468C130.135 11.8342 130.29 10.9804 130.29 10.1733V6.09082H131.61V13.9453H130.462H130.46Z" fill="#1C64F2"/>
<path d="M139.431 14.0546C138.732 14.0546 138.298 13.527 138.298 12.8597H138.267C137.817 13.651 136.84 14.1478 135.737 14.1478C133.936 14.1478 133.036 12.937 133.036 11.7263C133.036 10.7168 133.689 9.39798 135.83 9.27308L138.221 9.13327V8.55912C138.221 8.17138 138.174 7.68951 137.817 7.36422C137.553 7.11629 137.165 6.96063 136.529 6.96063C135.815 6.96063 135.365 7.16289 135.101 7.42667C134.853 7.67459 134.714 7.9859 134.714 8.37364H133.426C133.442 7.65968 133.705 7.14705 134.109 6.72855C134.636 6.16931 135.568 5.89062 136.53 5.89062C138.051 5.89062 138.921 6.54307 139.293 7.39684C139.449 7.75382 139.526 8.1574 139.526 8.60759V12.4104C139.526 12.8298 139.697 12.938 139.961 12.938C140.101 12.938 140.302 12.8914 140.302 12.8914V13.8691C140.022 14.0089 139.759 14.0555 139.432 14.0555L139.431 14.0546ZM138.221 10.1585L136.11 10.2825C135.319 10.3291 134.387 10.7019 134.387 11.6955C134.387 12.3936 134.821 13.0461 135.939 13.0461C136.545 13.0461 137.134 12.8438 137.553 12.4095C138.019 11.9285 138.221 11.2761 138.221 10.6246V10.1585Z" fill="#1C64F2"/>
<path d="M143.219 14.0386C142.071 14.0386 141.574 13.3554 141.574 12.1139V2.7373H142.894V12.0356C142.894 12.5631 143.064 12.8427 143.608 12.8427C144.042 12.8427 144.151 12.8269 144.151 12.8269V13.9444C144.151 13.9444 143.857 14.0376 143.22 14.0376L143.219 14.0386Z" fill="#1C64F2"/>
<path d="M155.063 8.76019C154.473 9.35018 153.572 9.6764 152.362 9.6764H149.645V13.9453H148.264V2.93945H152.346C153.634 2.93945 154.55 3.29643 155.14 3.93303C155.667 4.50718 155.978 5.29944 155.978 6.26133C155.978 7.33227 155.652 8.17112 155.062 8.76019H155.063ZM152.315 4.19587H149.645V8.41812H152.33C153.804 8.41812 154.55 7.73492 154.55 6.26039C154.55 4.86323 153.68 4.19587 152.315 4.19587Z" fill="#1C64F2"/>
<path d="M162.374 13.2314C161.8 13.7907 160.993 14.1476 159.999 14.1476C159.005 14.1476 158.198 13.7907 157.624 13.2314C156.771 12.3935 156.507 11.2601 156.507 10.0177C156.507 8.77523 156.771 7.64277 157.624 6.80391C158.198 6.24468 159.005 5.8877 159.999 5.8877C160.993 5.8877 161.8 6.24468 162.374 6.80391C163.227 7.64184 163.491 8.77523 163.491 10.0177C163.491 11.2601 163.227 12.3926 162.374 13.2314ZM161.411 7.58125C161.085 7.25503 160.62 7.02202 159.998 7.02202C159.376 7.02202 158.911 7.25503 158.585 7.58125C158.026 8.1554 157.855 9.10238 157.855 10.0186C157.855 10.9348 158.026 11.8818 158.585 12.4559C158.911 12.7822 159.376 13.0152 159.998 13.0152C160.62 13.0152 161.085 12.7822 161.411 12.4559C161.97 11.8818 162.141 10.9348 162.141 10.0186C162.141 9.10238 161.97 8.1554 161.411 7.58125Z" fill="#1C64F2"/>
<path d="M170.259 13.2314C169.685 13.7907 168.878 14.1476 167.885 14.1476C166.891 14.1476 166.084 13.7907 165.51 13.2314C164.656 12.3935 164.393 11.2601 164.393 10.0177C164.393 8.77523 164.656 7.64277 165.51 6.80391C166.084 6.24468 166.891 5.8877 167.885 5.8877C168.878 5.8877 169.685 6.24468 170.259 6.80391C171.113 7.64184 171.377 8.77523 171.377 10.0177C171.377 11.2601 171.113 12.3926 170.259 13.2314ZM169.297 7.58125C168.971 7.25503 168.505 7.02202 167.884 7.02202C167.262 7.02202 166.797 7.25503 166.471 7.58125C165.912 8.1554 165.741 9.10238 165.741 10.0186C165.741 10.9348 165.912 11.8818 166.471 12.4559C166.797 12.7822 167.262 13.0152 167.884 13.0152C168.505 13.0152 168.971 12.7822 169.297 12.4559C169.856 11.8818 170.026 10.9348 170.026 10.0186C170.026 9.10238 169.856 8.1554 169.297 7.58125Z" fill="#1C64F2"/>
<path d="M174.481 14.0386C173.333 14.0386 172.836 13.3554 172.836 12.1139V2.7373H174.156V12.0356C174.156 12.5631 174.326 12.8427 174.87 12.8427C175.304 12.8427 175.413 12.8269 175.413 12.8269V13.9444C175.413 13.9444 175.118 14.0376 174.482 14.0376L174.481 14.0386Z" fill="#1C64F2"/>
<path d="M181.823 13.2622C181.217 13.883 180.286 14.1467 179.262 14.1467C178.238 14.1467 177.384 13.9137 176.717 13.2622C176.236 12.7962 175.956 12.1288 175.956 11.4615H177.276C177.292 12.0049 177.54 12.4085 177.912 12.6881C178.269 12.9518 178.828 13.0451 179.325 13.0451C179.869 13.0451 180.365 12.9518 180.769 12.6107C180.986 12.4401 181.157 12.1139 181.157 11.7569C181.157 11.1669 180.737 10.7475 179.93 10.6394C179.589 10.5928 178.704 10.4837 178.16 10.4064C176.98 10.22 176.236 9.49016 176.236 8.29526C176.236 7.68942 176.531 7.11527 176.888 6.75829C177.401 6.23074 178.223 5.88867 179.201 5.88867C180.241 5.88867 181.172 6.21489 181.7 6.88225C182.041 7.30168 182.259 7.75187 182.259 8.38846H180.939C180.924 7.98488 180.722 7.61206 180.489 7.41073C180.163 7.1162 179.729 6.9913 179.201 6.9913C178.891 6.9913 178.658 6.9913 178.285 7.14696C177.788 7.34921 177.494 7.76771 177.494 8.20298C177.494 8.85543 177.897 9.13411 178.55 9.22732C178.984 9.28977 179.606 9.35129 180.444 9.49109C181.561 9.67751 182.446 10.4847 182.446 11.6647C182.446 12.3479 182.198 12.8754 181.826 13.2632L181.823 13.2622Z" fill="#1C64F2"/>
</svg>
