<svg width="127" height="18" viewBox="0 0 127 18" fill="none" xmlns="http://www.w3.org/2000/svg">
<path d="M33.5826 0L17.9883 9L33.5826 18V15.6382L22.0875 9L33.5826 2.36185V0Z" fill="#1C64F2"/>
<path d="M18.033 0H15.9834V18H18.033V0Z" fill="#1C64F2"/>
<path d="M0.389648 0V2.36185L11.8848 9L0.389648 15.6382V18L15.9831 9L0.389648 0Z" fill="#1C64F2"/>
<path d="M72.7451 5.74707V13.9455H74.75V7.61865H77.2004V5.74707H72.7451Z" fill="#1C64F2"/>
<path d="M49.4435 5.74707H44.9883V13.9455H46.9931V7.61865H49.4435V5.74707Z" fill="#1C64F2"/>
<path d="M42.4924 3.87598H38.0371V5.74663H40.4875V13.9451H42.4924V5.74663H44.9875V3.87598H42.4924Z" fill="#1C64F2"/>
<path d="M61.0273 7.30677C61.2737 7.28131 61.5222 7.32651 61.7439 7.4371C61.9656 7.54768 62.1512 7.71908 62.279 7.93125C62.4193 8.1592 62.4962 8.42047 62.5018 8.68808H64.4135C64.3615 8.05048 64.1468 7.43688 63.7899 6.90598C63.4548 6.50143 63.0317 6.17878 62.5529 5.96265C62.0742 5.74651 61.5523 5.64262 61.0273 5.65888C60.4933 5.65486 59.965 5.76853 59.48 5.99181C58.9949 6.21508 58.565 6.54248 58.2208 6.95072C57.0175 8.73282 57.0175 11.0518 58.2208 12.8768C58.5719 13.2768 59.0031 13.5985 59.4867 13.8209C59.9702 14.0433 60.4951 14.1615 61.0273 14.1677C62.0973 14.1677 63.1216 13.7222 63.7899 12.9197C64.1981 12.4159 64.4185 11.7859 64.4135 11.1375H62.4981C62.4925 11.4055 62.4156 11.667 62.2753 11.8953C62.0078 12.2961 61.5175 12.5189 61.0273 12.5189C60.8004 12.5208 60.5756 12.4741 60.3683 12.382C60.1609 12.2899 59.9756 12.1545 59.8249 11.9848C59.3869 11.3968 59.195 10.6613 59.2899 9.93425C59.2168 9.20872 59.4067 8.48105 59.8249 7.88371C59.9665 7.70032 60.1489 7.55244 60.3576 7.45181C60.5663 7.35118 60.7956 7.30056 61.0273 7.30397" fill="#1C64F2"/>
<path d="M66.6847 9.08845C66.681 8.6405 66.8215 8.20326 67.0855 7.84135C67.3977 7.44056 67.9327 7.17306 68.4221 7.2178C68.8676 7.17306 69.3131 7.35108 69.6701 7.70806C70.0188 8.1005 70.2079 8.60921 70.2004 9.13412L66.681 9.08938L66.6847 9.08845ZM68.5115 5.65845C67.5497 5.65268 66.6232 6.02022 65.9269 6.68372C65.131 7.57518 64.7155 8.74274 64.7693 9.93662C64.7486 10.5346 64.8483 11.1306 65.0625 11.6893C65.2767 12.2479 65.6011 12.7578 66.0164 13.1886C66.3555 13.5225 66.7605 13.782 67.2055 13.9505C67.6505 14.119 68.1258 14.1928 68.601 14.1673C69.1125 14.1957 69.6236 14.106 70.0949 13.9053C70.5662 13.7046 70.985 13.3981 71.3189 13.0096C71.666 12.586 71.8963 12.0789 71.9872 11.5388H70.1156C70.072 11.8048 69.9286 12.0441 69.7148 12.2081C69.5564 12.3597 69.3663 12.4744 69.1582 12.5437C68.9501 12.613 68.7293 12.6352 68.5115 12.6088C68.2849 12.6103 68.0605 12.5634 67.8535 12.4711C67.6464 12.3788 67.4615 12.2434 67.311 12.0738C67.1114 11.8593 66.9572 11.6066 66.8577 11.3309C66.7583 11.0553 66.7156 10.7623 66.7322 10.4698H72.168V9.93569C72.2507 8.94652 71.9996 7.95816 71.455 7.12832C71.13 6.65373 70.6895 6.26974 70.175 6.01257C69.6605 5.7554 69.089 5.63353 68.5143 5.65845" fill="#1C64F2"/>
<path d="M54.5224 10.6931C54.5224 11.8964 53.676 12.5647 52.4718 12.5647C52.189 12.5844 51.9096 12.493 51.6932 12.3099C51.4768 12.1267 51.3405 11.8663 51.3133 11.5841V11.5394C51.358 10.9606 51.8921 10.4703 52.4718 10.5141L54.5224 10.3361V10.6921V10.6931ZM56.4387 11.1852V8.91096C56.4761 8.35264 56.4019 7.79245 56.2206 7.26308C55.7704 6.05885 54.5671 5.61426 53.1858 5.61426C51.3599 5.61426 49.9338 6.41583 49.8443 8.24268H51.7159C51.7606 7.48584 52.2947 7.08412 53.1858 7.08412C54.2996 7.08412 54.5671 7.61913 54.5671 8.37689V8.91096L52.2062 9.08899C50.6468 9.22787 49.4883 10.0667 49.4883 11.6289C49.4883 12.9654 50.5135 14.1687 52.4289 14.1687C52.9064 14.1962 53.3829 14.0998 53.8122 13.889C54.2415 13.6782 54.6091 13.3601 54.8793 12.9654V14.0839H57.1955V12.6541H56.4834L56.4387 11.1852Z" fill="#1C64F2"/>
<path d="M81.6729 13.9462V2.94043H83.0849V13.9462H81.6729Z" fill="#1C64F2"/>
<path d="M90.3341 13.9454V8.96262C90.3341 7.78262 89.8541 7.08358 88.6117 7.08358C87.8511 7.08358 87.2453 7.58037 86.9042 8.29526C86.6404 8.87034 86.6245 9.69335 86.6245 10.2983V13.9464H85.3057V6.09H86.454L86.563 7.26999C86.9666 6.36962 88.0543 5.88867 88.9379 5.88867C90.7228 5.88867 91.6549 6.95961 91.6549 8.77807V13.9473L90.3341 13.9454Z" fill="#1C64F2"/>
<path d="M98.7948 13.9454L98.7016 12.9201C98.2514 13.7114 97.242 14.1458 96.3575 14.1458C95.3946 14.1458 94.6499 13.8205 94.1373 13.292C93.3916 12.5314 93.0039 11.3347 93.0039 10.0298C93.0039 8.67921 93.4075 7.43677 94.1997 6.67434C94.7114 6.19339 95.4412 5.88302 96.3575 5.88302C97.2112 5.88302 98.2216 6.2866 98.6392 7.00149V2.7373H99.959V13.9454H98.7948ZM97.8478 7.51879C97.5071 7.18756 97.0498 7.00346 96.5746 7.00615C94.8205 7.00615 94.3545 8.57388 94.3545 10.0176C94.3545 11.4614 94.8205 13.0291 96.5746 13.0291C97.0496 13.0317 97.5067 12.848 97.8478 12.5174C98.5003 11.9424 98.7165 10.9954 98.7165 10.0176C98.7165 9.03992 98.4993 8.09294 97.8478 7.51879Z" fill="#1C64F2"/>
<path d="M101.978 4.28733V2.7373H103.515V4.28733H101.978ZM102.071 13.9426V6.08993H103.421V13.9454L102.071 13.9426Z" fill="#1C64F2"/>
<path d="M110.717 13.293C110.157 13.8364 109.412 14.1467 108.45 14.1467C107.037 14.1467 106.137 13.4943 105.578 12.6722C105.159 12.0515 104.926 11.1977 104.926 10.0177C104.926 8.83772 105.159 7.98395 105.578 7.3632C106.137 6.54018 107.022 5.88867 108.434 5.88867C109.366 5.88867 110.127 6.19905 110.671 6.72753C111.227 7.25687 111.561 7.97863 111.603 8.74545H110.268C110.231 8.28399 110.033 7.85021 109.709 7.51978C109.362 7.20204 108.906 7.02956 108.436 7.03791C107.932 7.02925 107.444 7.21252 107.07 7.55054C106.45 8.07809 106.278 9.05675 106.278 10.0186C106.278 10.9805 106.45 11.9592 107.07 12.4867C107.444 12.8252 107.932 13.0085 108.436 12.9994C108.683 13.0055 108.928 12.9619 109.157 12.8713C109.387 12.7807 109.596 12.6448 109.772 12.4718C110.073 12.1541 110.259 11.744 110.299 11.3077H111.634C111.594 12.0625 111.265 12.7732 110.717 13.293Z" fill="#1C64F2"/>
<path d="M119.332 10.453H113.775C113.775 11.1669 114.054 11.9443 114.535 12.4243C114.892 12.7813 115.374 12.9835 115.979 12.9835C116.6 12.9835 117.112 12.813 117.438 12.4718C117.674 12.2395 117.836 11.9424 117.904 11.6181H119.192C119.132 12.0068 118.994 12.3793 118.786 12.7129C118.578 13.0464 118.303 13.3339 117.98 13.5577C117.385 13.947 116.689 14.1522 115.978 14.1477C115.483 14.1565 114.992 14.0553 114.541 13.8514C114.089 13.6475 113.689 13.346 113.368 12.9686C112.716 12.2081 112.39 11.1679 112.39 10.0503C112.39 9.10336 112.561 8.2645 112.995 7.53376C113.555 6.58679 114.594 5.88867 115.96 5.88867C116.97 5.88867 117.777 6.27641 118.351 6.8981C118.988 7.59621 119.361 8.60564 119.345 9.66073L119.332 10.453ZM117.516 7.72018C117.19 7.28583 116.661 7.00622 115.963 7.00622C114.535 7.00622 113.836 8.17036 113.805 9.3196H118C117.997 8.7296 117.829 8.1396 117.516 7.72018Z" fill="#1C64F2"/>
<path d="M125.991 13.2622C125.386 13.883 124.454 14.1467 123.43 14.1467C122.452 14.1467 121.552 13.9147 120.885 13.2622C120.645 13.0273 120.454 12.7471 120.324 12.438C120.193 12.1289 120.125 11.797 120.124 11.4615H121.443C121.446 11.7015 121.504 11.9376 121.615 12.1506C121.726 12.3637 121.885 12.5478 122.079 12.6881C122.436 12.9518 122.996 13.0451 123.493 13.0451C124.036 13.0451 124.533 12.9518 124.936 12.6107C125.059 12.5049 125.157 12.3738 125.224 12.2264C125.291 12.079 125.325 11.9188 125.324 11.7569C125.324 11.1669 124.905 10.7475 124.097 10.6385C123.756 10.5919 122.872 10.4837 122.326 10.4064C121.146 10.22 120.401 9.49016 120.401 8.29433C120.414 7.71779 120.648 7.16822 121.053 6.75829C121.566 6.22981 122.388 5.88867 123.367 5.88867C124.406 5.88867 125.338 6.21489 125.866 6.88225C126.207 7.30168 126.425 7.75187 126.425 8.38753H125.105C125.089 8.01516 124.927 7.66397 124.655 7.4098C124.329 7.11527 123.894 6.99037 123.367 6.99037C123.053 6.97071 122.74 7.02399 122.45 7.14602C121.954 7.34828 121.658 7.76678 121.658 8.20205C121.658 8.8545 122.063 9.13411 122.714 9.22732C123.149 9.28884 123.77 9.35129 124.608 9.4911C125.727 9.67751 126.61 10.4847 126.61 11.6647C126.617 11.9586 126.566 12.2509 126.46 12.525C126.354 12.7992 126.194 13.0497 125.991 13.2622Z" fill="#1C64F2"/>
</svg>
