<svg width="153" height="18" viewBox="0 0 153 18" fill="none" xmlns="http://www.w3.org/2000/svg">
<path d="M33.193 0L17.5996 9L33.193 18V15.6391L21.6988 9L33.193 2.36185V0Z" fill="white"/>
<path d="M17.6443 0H15.5947V18H17.6443V0Z" fill="white"/>
<path d="M0 0V2.36185L11.4951 9L0 15.6391V18L15.5943 9L0 0Z" fill="white"/>
<path d="M72.3545 5.74805V13.9455H74.3603V7.6187H76.8107V5.74805H72.3545Z" fill="white"/>
<path d="M49.0529 5.74805H44.5977V13.9455H46.6025V7.6187H49.0529V5.74805Z" fill="white"/>
<path d="M42.1036 3.87646H37.6475V5.74805H40.0978V13.9455H42.1036V5.74805H44.5978V3.87646H42.1036Z" fill="white"/>
<path d="M60.6376 7.30745C61.1278 7.26271 61.6181 7.48547 61.8847 7.931C62.018 8.15376 62.1074 8.42126 62.1074 8.68877H64.0228C63.9781 8.06522 63.7553 7.44167 63.3993 6.90666C62.731 6.10509 61.7067 5.61482 60.6366 5.65956C59.5676 5.65956 58.5423 6.10509 57.8302 6.9514C56.6269 8.73351 56.6269 11.0506 57.8302 12.8775C58.5432 13.679 59.5676 14.1693 60.6366 14.1693C61.7057 14.1693 62.731 13.7238 63.3993 12.9222C63.8001 12.4319 64.0228 11.8084 64.0228 11.1401H62.1074C62.1074 11.4076 62.018 11.6751 61.8847 11.8979C61.6172 12.2986 61.1269 12.5214 60.6376 12.5214C60.1921 12.5214 59.7465 12.3434 59.4343 11.9864C58.9888 11.4076 58.8107 10.6498 58.8993 9.9368C58.8098 9.22377 59.0326 8.46694 59.4343 7.88719C59.7465 7.48641 60.1921 7.30838 60.6376 7.30838" fill="white"/>
<path d="M66.2967 9.08973C66.2967 8.64421 66.43 8.19868 66.6975 7.84263C67.0097 7.44184 67.5438 7.17434 68.0341 7.21908C68.4796 7.17434 68.9251 7.35237 69.2812 7.70935C69.6372 8.11013 69.8162 8.6004 69.8162 9.1354L66.2967 9.09066V9.08973ZM68.1235 5.65881C67.143 5.65881 66.252 6.01485 65.5399 6.68314C64.7383 7.5742 64.3366 8.73275 64.3813 9.93511C64.3366 11.1384 64.7821 12.296 65.6284 13.1871C66.2967 13.8554 67.2325 14.2114 68.2121 14.1676C69.2364 14.2124 70.2617 13.8116 70.93 13.0091C71.286 12.5635 71.5088 12.0733 71.5983 11.5392H69.7267C69.6819 11.8067 69.5487 12.0295 69.3259 12.2075C69.0137 12.5197 68.5681 12.653 68.1226 12.6083C67.6771 12.6083 67.2316 12.4302 66.9193 12.0733C66.5185 11.6277 66.2958 11.0489 66.3405 10.4692H71.7763V9.93418C71.8658 8.95365 71.5983 7.92931 71.0633 7.12774C70.395 6.14721 69.2812 5.61314 68.1226 5.65787" fill="white"/>
<path d="M54.1327 10.6935C54.1327 11.8968 53.2864 12.5651 52.0831 12.5651C51.5043 12.6098 50.9693 12.1643 50.9245 11.5846V11.5398C50.9693 10.961 51.5034 10.4708 52.0831 10.5155L54.1327 10.3375V10.6935ZM56.0481 11.1838V8.91141C56.0928 8.3764 56.0033 7.79759 55.8253 7.26259C55.3798 6.0593 54.1765 5.61377 52.7961 5.61377C50.9693 5.61377 49.5442 6.41534 49.4547 8.24219H51.3263C51.371 7.48442 51.9051 7.08363 52.7961 7.08363C53.9099 7.08363 54.1774 7.61864 54.1774 8.37547V8.91048L51.8165 9.0885C50.2572 9.22179 49.0986 10.069 49.0986 11.6284C49.0986 12.965 50.123 14.1682 52.0393 14.1682C53.0198 14.213 53.9547 13.7675 54.4897 12.965V14.0788H56.8068V12.6527H56.0938L56.049 11.1828L56.0481 11.1838Z" fill="white"/>
<path d="M88.0043 12.8436C87.2279 13.5883 86.1877 13.9462 85.1167 13.9462H81.2822V2.93945H85.1167C86.1877 2.93945 87.2279 3.31228 88.0043 4.057C89.2151 5.2053 89.4173 6.85132 89.4173 8.4349C89.4173 10.0185 89.2001 11.6953 88.0043 12.8436ZM87.0732 4.97322C86.5605 4.46058 85.8316 4.21265 85.1167 4.21265H82.6636V12.673H85.1167C85.8307 12.673 86.5605 12.4241 87.0732 11.9124C87.9428 11.0279 88.0201 9.61489 88.0201 8.4349C88.0201 7.25491 87.9428 5.87359 87.0732 4.97322Z" fill="white"/>
<path d="M96.6204 14.0546C95.9214 14.0546 95.487 13.527 95.487 12.8597H95.4563C95.0061 13.651 94.0284 14.1478 92.9257 14.1478C91.125 14.1478 90.2246 12.937 90.2246 11.7263C90.2246 10.7168 90.8771 9.39798 93.0189 9.27308L95.4097 9.13327V8.55912C95.4097 8.17138 95.3631 7.68951 95.0061 7.36422C94.7423 7.11629 94.3536 6.96063 93.718 6.96063C93.004 6.96063 92.5538 7.16289 92.2901 7.42667C92.0412 7.67459 91.9023 7.9859 91.9023 8.37364H90.6142C90.6301 7.65968 90.8938 7.14705 91.2974 6.72855C91.825 6.16931 92.757 5.89062 93.7189 5.89062C95.24 5.89062 96.1097 6.54307 96.4825 7.39684C96.6381 7.75382 96.7155 8.1574 96.7155 8.60759V12.4104C96.7155 12.8298 96.8861 12.938 97.1498 12.938C97.2897 12.938 97.491 12.8914 97.491 12.8914V13.8691C97.2114 14.0089 96.9476 14.0555 96.6214 14.0555L96.6204 14.0546ZM95.4097 10.1585L93.2986 10.2825C92.5072 10.3291 91.5752 10.7019 91.5752 11.6955C91.5752 12.3936 92.0095 13.0461 93.128 13.0461C93.7338 13.0461 94.3229 12.8438 94.7423 12.4095C95.2084 11.9285 95.4097 11.2761 95.4097 10.6246V10.1585Z" fill="white"/>
<path d="M101.309 14.0543C99.617 14.0543 99.151 12.9833 99.151 11.9273V7.22411H97.6299V6.09072H99.151V4.08772L100.471 3.77734V6.09072H102.799V7.22411H100.471V11.7726C100.471 12.5331 100.797 12.8435 101.527 12.8435C102.086 12.8435 102.877 12.7037 102.877 12.7037V13.8371C102.52 13.9303 102.039 14.0543 101.31 14.0543H101.309Z" fill="white"/>
<path d="M109.722 14.0546C109.024 14.0546 108.589 13.527 108.589 12.8597H108.558C108.108 13.651 107.13 14.1478 106.027 14.1478C104.227 14.1478 103.326 12.937 103.326 11.7263C103.326 10.7168 103.979 9.39798 106.12 9.27308L108.511 9.13327V8.55912C108.511 8.17138 108.465 7.68951 108.108 7.36422C107.844 7.11629 107.455 6.96063 106.82 6.96063C106.106 6.96063 105.655 7.16289 105.392 7.42667C105.143 7.67459 105.004 7.9859 105.004 8.37364H103.716C103.732 7.65968 103.995 7.14705 104.399 6.72855C104.927 6.16931 105.859 5.89062 106.82 5.89062C108.342 5.89062 109.211 6.54307 109.584 7.39684C109.74 7.75382 109.817 8.1574 109.817 8.60759V12.4104C109.817 12.8298 109.988 12.938 110.251 12.938C110.391 12.938 110.593 12.8914 110.593 12.8914V13.8691C110.313 14.0089 110.049 14.0555 109.723 14.0555L109.722 14.0546ZM108.511 10.1585L106.4 10.2825C105.609 10.3291 104.677 10.7019 104.677 11.6955C104.677 12.3936 105.111 13.0461 106.23 13.0461C106.835 13.0461 107.424 12.8438 107.844 12.4095C108.31 11.9285 108.511 11.2761 108.511 10.6246V10.1585Z" fill="white"/>
<path d="M116.196 4.21265V7.7983H121.318V9.10225H116.196V13.9453H114.814V2.93945H121.94V4.21265H116.197H116.196Z" fill="white"/>
<path d="M129.359 10.453H123.802C123.802 11.167 124.082 11.9434 124.563 12.4243C124.92 12.7813 125.401 12.9836 126.007 12.9836C126.612 12.9836 127.14 12.813 127.466 12.4709C127.683 12.2538 127.823 12.0366 127.932 11.6172H129.22C129.111 12.3936 128.646 13.1234 128.01 13.5577C127.45 13.9306 126.752 14.1477 126.007 14.1477C124.904 14.1477 124.004 13.6817 123.399 12.9677C122.746 12.2072 122.421 11.167 122.421 10.0494C122.421 9.10247 122.591 8.26454 123.027 7.53474C123.586 6.58776 124.626 5.88965 125.992 5.88965C127.001 5.88965 127.808 6.27739 128.382 6.89907C129.019 7.59812 129.392 8.60661 129.376 9.66264L129.36 10.454L129.359 10.453ZM127.543 7.72115C127.216 7.28681 126.689 7.00719 125.991 7.00719C124.563 7.00719 123.864 8.17134 123.833 9.32057H128.024C128.024 8.73058 127.854 8.14058 127.543 7.72208L127.543 7.72115Z" fill="white"/>
<path d="M137.137 10.453H131.58C131.58 11.167 131.859 11.9434 132.34 12.4243C132.697 12.7813 133.178 12.9836 133.784 12.9836C134.39 12.9836 134.917 12.813 135.243 12.4709C135.461 12.2538 135.6 12.0366 135.71 11.6172H136.998C136.889 12.3936 136.423 13.1234 135.787 13.5577C135.228 13.9306 134.53 14.1477 133.784 14.1477C132.681 14.1477 131.782 13.6817 131.176 12.9677C130.524 12.2072 130.198 11.167 130.198 10.0494C130.198 9.10247 130.369 8.26454 130.804 7.53474C131.363 6.58776 132.404 5.88965 133.769 5.88965C134.778 5.88965 135.586 6.27739 136.16 6.89907C136.796 7.59812 137.169 8.60661 137.153 9.66264L137.137 10.454L137.137 10.453ZM135.32 7.72115C134.994 7.28681 134.466 7.00719 133.768 7.00719C132.34 7.00719 131.641 8.17134 131.61 9.32057H135.802C135.802 8.73058 135.631 8.14058 135.321 7.72208L135.32 7.72115Z" fill="white"/>
<path d="M143.781 13.9454L143.688 12.9211C143.238 13.7124 142.228 14.1477 141.344 14.1477C140.381 14.1477 139.636 13.8214 139.124 13.2939C138.379 12.5333 137.99 11.3375 137.99 10.0335C137.99 8.72958 138.394 7.44147 139.185 6.68091C139.698 6.19996 140.427 5.88959 141.343 5.88959C142.197 5.88959 143.206 6.29317 143.625 7.00713V2.73828H144.944V13.9463H143.78L143.781 13.9454ZM142.834 7.51883C142.524 7.23921 142.136 7.0062 141.561 7.0062C139.807 7.0062 139.341 8.57393 139.341 10.0177C139.341 11.4615 139.807 13.0292 141.561 13.0292C142.135 13.0292 142.524 12.7962 142.834 12.5166C143.487 11.9424 143.704 10.9954 143.704 10.0177C143.704 9.03996 143.487 8.09298 142.834 7.51883Z" fill="white"/>
<path d="M152.256 13.2622C151.65 13.883 150.719 14.1467 149.695 14.1467C148.67 14.1467 147.817 13.9137 147.149 13.2622C146.668 12.7962 146.389 12.1288 146.389 11.4615H147.708C147.724 12.0049 147.972 12.4085 148.345 12.6881C148.702 12.9518 149.261 13.0451 149.758 13.0451C150.301 13.0451 150.798 12.9518 151.202 12.6107C151.419 12.4401 151.59 12.1139 151.59 11.7569C151.59 11.1669 151.17 10.7475 150.363 10.6394C150.022 10.5928 149.136 10.4837 148.593 10.4064C147.413 10.22 146.668 9.49016 146.668 8.29526C146.668 7.68942 146.964 7.11527 147.321 6.75829C147.833 6.23074 148.655 5.88867 149.634 5.88867C150.674 5.88867 151.605 6.21489 152.133 6.88225C152.474 7.30168 152.692 7.75187 152.692 8.38846H151.372C151.357 7.98488 151.155 7.61206 150.922 7.41073C150.596 7.1162 150.162 6.9913 149.634 6.9913C149.324 6.9913 149.091 6.9913 148.718 7.14696C148.221 7.34921 147.927 7.76771 147.927 8.20298C147.927 8.85543 148.33 9.13411 148.983 9.22732C149.417 9.28977 150.039 9.35129 150.877 9.49109C151.994 9.67751 152.88 10.4847 152.88 11.6647C152.88 12.3479 152.631 12.8754 152.259 13.2632L152.256 13.2622Z" fill="white"/>
</svg>
