<svg width="72" height="27" viewBox="0 0 72 27" fill="none" xmlns="http://www.w3.org/2000/svg">
<path d="M32.8152 0.576172L23.2871 6.07617L32.8152 11.5762V10.1334L25.7919 6.07617L32.8152 2.01952V0.576172Z" fill="white"/>
<path d="M23.3149 0.576172H22.0625V11.5762H23.3149V0.576172Z" fill="white"/>
<path d="M12.5332 0.576172V2.01952L19.5571 6.07617L12.5332 10.1334V11.5762L22.0618 6.07617L12.5332 0.576172Z" fill="white"/>
<path d="M56.7441 4.08789V9.09747H57.9697V5.23107H59.467V4.08789H56.7441Z" fill="white"/>
<path d="M42.5065 4.08789H39.7842V9.09747H41.0092V5.23107H42.5065V4.08789Z" fill="white"/>
<path d="M38.26 2.94434H35.5371V4.08808H37.0344V9.09766H38.26V4.08808H39.784V2.94434H38.26Z" fill="white"/>
<path d="M49.5852 5.04099C49.8848 5.01365 50.1843 5.14979 50.3472 5.42205C50.4286 5.55819 50.4833 5.72166 50.4833 5.88513H51.6537C51.6263 5.50407 51.4902 5.12302 51.2727 4.79607C50.8643 4.30622 50.2384 4.00661 49.5846 4.03395C48.9314 4.03395 48.3049 4.30622 47.8698 4.82341C47.1345 5.91247 47.1345 7.32848 47.8698 8.44489C48.3055 8.93474 48.9314 9.23435 49.5846 9.23435C50.2379 9.23435 50.8643 8.96208 51.2727 8.47223C51.5176 8.17262 51.6537 7.79156 51.6537 7.38317H50.4833C50.4833 7.54664 50.4286 7.71011 50.3472 7.84625C50.1838 8.09117 49.8842 8.2273 49.5852 8.2273C49.313 8.2273 49.0407 8.11851 48.8499 7.90036C48.5777 7.54664 48.4689 7.08356 48.523 6.64782C48.4684 6.21208 48.6045 5.74957 48.8499 5.39528C49.0407 5.15036 49.313 5.04156 49.5852 5.04156" fill="white"/>
<path d="M53.0425 6.13009C53.0425 5.85782 53.124 5.58555 53.2874 5.36797C53.4782 5.12304 53.8046 4.95957 54.1041 4.98691C54.3764 4.95957 54.6486 5.06836 54.8661 5.28652C55.0837 5.53144 55.1931 5.83105 55.1931 6.158L53.0425 6.13066V6.13009ZM54.1588 4.03341C53.5597 4.03341 53.0152 4.25099 52.5801 4.65939C52.0903 5.20393 51.8448 5.91193 51.8722 6.64671C51.8448 7.38205 52.1171 8.08949 52.6342 8.63402C53.0425 9.04242 53.6143 9.26001 54.2129 9.23324C54.8388 9.26058 55.4653 9.01565 55.8736 8.52523C56.0912 8.25296 56.2273 7.95336 56.282 7.62698H55.1384C55.111 7.79045 55.0296 7.92659 54.8935 8.03538C54.7027 8.22619 54.4305 8.30764 54.1582 8.2803C53.886 8.2803 53.6138 8.17151 53.423 7.95336C53.1781 7.68109 53.042 7.32737 53.0693 6.97309H56.3908V6.64614C56.4454 6.04693 56.282 5.42094 55.9551 4.93109C55.5467 4.33188 54.8661 4.0055 54.1582 4.03284" fill="white"/>
<path d="M45.6102 7.11015C45.6102 7.84549 45.093 8.25389 44.3578 8.25389C44.0041 8.28123 43.6772 8.00897 43.6499 7.65468V7.62734C43.6772 7.27362 44.0035 6.97401 44.3578 7.00136L45.6102 6.89256V7.11015ZM46.7805 7.40975V6.02108C46.8079 5.69414 46.7532 5.34042 46.6444 5.01347C46.3722 4.27813 45.6369 4.00586 44.7935 4.00586C43.6772 4.00586 42.8064 4.49571 42.7517 5.61212H43.8953C43.9227 5.14904 44.249 4.90411 44.7935 4.90411C45.474 4.90411 45.6375 5.23106 45.6375 5.69357V6.02051L44.1949 6.12931C43.2421 6.21076 42.5342 6.72852 42.5342 7.68145C42.5342 8.49825 43.1601 9.23359 44.331 9.23359C44.9302 9.26093 45.5014 8.98867 45.8283 8.49825V9.17891H47.2441V8.30743H46.8084L46.7811 7.40918L46.7805 7.40975Z" fill="white"/>
<path d="M6.9907 25.6814C6.21608 26.4262 5.1783 26.7841 4.10983 26.7841H0.28418V15.7773H4.10983C5.1783 15.7773 6.21608 16.1502 6.9907 16.8949C8.19865 18.0432 8.40044 19.6892 8.40044 21.2728C8.40044 22.8564 8.18377 24.5331 6.9907 25.6814ZM6.06172 17.8111C5.55027 17.2985 4.82307 17.0505 4.10983 17.0505H1.66231V25.5109H4.10983C4.82214 25.5109 5.55027 25.262 6.06172 24.7503C6.92932 23.8658 7.00651 22.4528 7.00651 21.2728C7.00651 20.0928 6.92932 18.7115 6.06172 17.8111Z" fill="white"/>
<path d="M15.5871 26.8925C14.8897 26.8925 14.4563 26.3649 14.4563 25.6976H14.4256C13.9765 26.4889 13.001 26.9857 11.9009 26.9857C10.1043 26.9857 9.20605 25.7749 9.20605 24.5642C9.20605 23.5547 9.85699 22.2359 11.9939 22.111L14.3791 21.9712V21.397C14.3791 21.0093 14.3326 20.5274 13.9765 20.2021C13.7133 19.9542 13.3256 19.7985 12.6914 19.7985C11.979 19.7985 11.5299 20.0008 11.2667 20.2646C11.0185 20.5125 10.8799 20.8238 10.8799 21.2115H9.59476C9.61057 20.4976 9.87373 19.9849 10.2764 19.5664C10.8027 19.0072 11.7326 18.7285 12.6923 18.7285C14.2099 18.7285 15.0775 19.381 15.4495 20.2347C15.6048 20.5917 15.6819 20.9953 15.6819 21.4455V25.2483C15.6819 25.6677 15.8521 25.7758 16.1153 25.7758C16.2548 25.7758 16.4556 25.7292 16.4556 25.7292V26.707C16.1767 26.8468 15.9135 26.8934 15.588 26.8934L15.5871 26.8925ZM14.3791 22.9964L12.2729 23.1204C11.4834 23.167 10.5535 23.5398 10.5535 24.5334C10.5535 25.2315 10.9868 25.884 12.1027 25.884C12.7072 25.884 13.2949 25.6817 13.7133 25.2474C14.1783 24.7664 14.3791 24.114 14.3791 23.4625V22.9964Z" fill="white"/>
<path d="M20.2641 26.8922C18.5763 26.8922 18.1114 25.8212 18.1114 24.7652V20.062H16.5938V18.9286H18.1114V16.9256L19.4281 16.6152V18.9286H21.751V20.062H19.4281V24.6105C19.4281 25.371 19.7536 25.6814 20.4817 25.6814C21.0396 25.6814 21.8291 25.5416 21.8291 25.5416V26.675C21.473 26.7682 20.9931 26.8922 20.265 26.8922H20.2641Z" fill="white"/>
<path d="M28.6584 26.8925C27.9619 26.8925 27.5276 26.3649 27.5276 25.6976H27.4969C27.0478 26.4889 26.0723 26.9857 24.9722 26.9857C23.1756 26.9857 22.2773 25.7749 22.2773 24.5642C22.2773 23.5547 22.9283 22.2359 25.0652 22.111L27.4504 21.9712V21.397C27.4504 21.0093 27.4039 20.5274 27.0478 20.2021C26.7846 19.9542 26.3968 19.7985 25.7626 19.7985C25.0503 19.7985 24.6012 20.0008 24.338 20.2646C24.0897 20.5125 23.9512 20.8238 23.9512 21.2115H22.666C22.6818 20.4976 22.945 19.9849 23.3477 19.5664C23.874 19.0072 24.8039 18.7285 25.7636 18.7285C27.2812 18.7285 28.1488 19.381 28.5208 20.2347C28.676 20.5917 28.7532 20.9953 28.7532 21.4455V25.2483C28.7532 25.6677 28.9234 25.7758 29.1866 25.7758C29.326 25.7758 29.5269 25.7292 29.5269 25.7292V26.707C29.2479 26.8468 28.9848 26.8934 28.6593 26.8934L28.6584 26.8925ZM27.4504 22.9964L25.3442 23.1204C24.5547 23.167 23.6248 23.5398 23.6248 24.5334C23.6248 25.2315 24.0581 25.884 25.174 25.884C25.7785 25.884 26.3661 25.6817 26.7846 25.2474C27.2496 24.7664 27.4504 24.114 27.4504 23.4625V22.9964Z" fill="white"/>
<path d="M35.1164 17.0505V20.6362H40.2272V21.9401H35.1164V26.7831H33.7383V15.7773H40.8474V17.0505H35.1173H35.1164Z" fill="white"/>
<path d="M48.2494 23.2909H42.7053C42.7053 24.0049 42.9842 24.7813 43.4641 25.2622C43.8202 25.6192 44.3001 25.8215 44.9045 25.8215C45.5089 25.8215 46.0353 25.6509 46.3607 25.3088C46.5774 25.0917 46.7169 24.8745 46.8257 24.4551H48.1108C48.002 25.2315 47.538 25.9613 46.9029 26.3956C46.3449 26.7684 45.6484 26.9856 44.9045 26.9856C43.8044 26.9856 42.9071 26.5196 42.3026 25.8056C41.6517 25.0451 41.3271 24.0049 41.3271 22.8873C41.3271 21.9404 41.4973 21.1024 41.9316 20.3726C42.4895 19.4257 43.5273 18.7275 44.8896 18.7275C45.8967 18.7275 46.702 19.1153 47.2748 19.737C47.91 20.436 48.2819 21.4445 48.2661 22.5005L48.2503 23.2919L48.2494 23.2909ZM46.437 20.559C46.1115 20.1247 45.5852 19.8451 44.8887 19.8451C43.4641 19.8451 42.7666 21.0092 42.736 22.1585H46.9177C46.9177 21.5685 46.7476 20.9785 46.4379 20.56L46.437 20.559Z" fill="white"/>
<path d="M56.0092 23.2909H50.465C50.465 24.0049 50.744 24.7813 51.2239 25.2622C51.58 25.6192 52.0598 25.8215 52.6643 25.8215C53.2687 25.8215 53.795 25.6509 54.1205 25.3088C54.3372 25.0917 54.4767 24.8745 54.5855 24.4551H55.8706C55.7618 25.2315 55.2978 25.9613 54.6626 26.3956C54.1047 26.7684 53.4082 26.9856 52.6643 26.9856C51.5642 26.9856 50.6668 26.5196 50.0624 25.8056C49.4115 25.0451 49.0869 24.0049 49.0869 22.8873C49.0869 21.9404 49.2571 21.1024 49.6914 20.3726C50.2493 19.4257 51.2871 18.7275 52.6494 18.7275C53.6565 18.7275 54.4618 19.1153 55.0346 19.737C55.6697 20.436 56.0417 21.4445 56.0259 22.5005L56.0101 23.2919L56.0092 23.2909ZM54.1968 20.559C53.8713 20.1247 53.345 19.8451 52.6485 19.8451C51.2238 19.8451 50.5264 21.0092 50.4957 22.1585H54.6775C54.6775 21.5685 54.5074 20.9785 54.1977 20.56L54.1968 20.559Z" fill="white"/>
<path d="M62.6379 26.7833L62.5449 25.759C62.0958 26.5503 61.0887 26.9856 60.2062 26.9856C59.2456 26.9856 58.5026 26.6593 57.9911 26.1318C57.2481 25.3712 56.8604 24.1754 56.8604 22.8714C56.8604 21.5675 57.263 20.2794 58.0525 19.5188C58.5639 19.0379 59.2911 18.7275 60.2052 18.7275C61.057 18.7275 62.0641 19.1311 62.4817 19.845V15.5762H63.7984V26.7842H62.637L62.6379 26.7833ZM61.6931 20.3567C61.3834 20.0771 60.9966 19.8441 60.4228 19.8441C58.6727 19.8441 58.2078 21.4118 58.2078 22.8556C58.2078 24.2993 58.6727 25.8671 60.4228 25.8671C60.9957 25.8671 61.3834 25.6341 61.6931 25.3544C62.344 24.7803 62.5607 23.8333 62.5607 22.8556C62.5607 21.8778 62.344 20.9309 61.6931 20.3567Z" fill="white"/>
<path d="M71.094 26.1001C70.4896 26.7209 69.5606 26.9846 68.5386 26.9846C67.5167 26.9846 66.6648 26.7516 65.999 26.1001C65.5192 25.6341 65.2402 24.9667 65.2402 24.2994H66.557C66.5728 24.8428 66.8201 25.2463 67.1921 25.526C67.5483 25.7897 68.1062 25.8829 68.6018 25.8829C69.144 25.8829 69.6396 25.7897 70.0423 25.4486C70.259 25.278 70.4291 24.9518 70.4291 24.5948C70.4291 24.0048 70.0107 23.5854 69.2054 23.4773C68.865 23.4307 67.9816 23.3216 67.4395 23.2443C66.2622 23.0579 65.5192 22.3281 65.5192 21.1331C65.5192 20.5273 65.814 19.9532 66.1701 19.5962C66.6816 19.0686 67.5018 18.7266 68.4782 18.7266C69.516 18.7266 70.4449 19.0528 70.9713 19.7201C71.3116 20.1396 71.5292 20.5898 71.5292 21.2264H70.2125C70.1966 20.8228 69.9958 20.4499 69.7633 20.2486C69.4378 19.9541 69.0045 19.8292 68.4782 19.8292C68.1685 19.8292 67.936 19.8292 67.5641 19.9848C67.0684 20.1871 66.7746 20.6056 66.7746 21.0409C66.7746 21.6933 67.1772 21.972 67.8282 22.0652C68.2615 22.1277 68.8818 22.1892 69.7177 22.329C70.8327 22.5154 71.7161 23.3226 71.7161 24.5026C71.7161 25.1858 71.4678 25.7133 71.0968 26.101L71.094 26.1001Z" fill="white"/>
</svg>
