<svg width="1437" height="573" viewBox="0 0 1437 573" fill="none" xmlns="http://www.w3.org/2000/svg">
<mask id="mask0" style="mask-type:alpha" maskUnits="userSpaceOnUse" x="0" y="0" width="1437" height="574">
<rect y="0.477051" width="1437" height="573" fill="#C4C4C4"/>
</mask>
<g mask="url(#mask0)">
<path d="M-3 -987.538C-3 -1002.08 4.16315 -1015.69 16.1507 -1023.92L92.5135 -1076.36C107.567 -1086.7 127.433 -1086.7 142.486 -1076.36L218.849 -1023.92C230.837 -1015.69 238 -1002.08 238 -987.538V184.429C238 199.284 230.527 213.143 218.115 221.306L141.753 271.527C127.033 281.207 107.967 281.207 93.2474 271.527L16.8846 221.306C4.47288 213.143 -3 199.284 -3 184.429V-987.538Z" fill="#0019A5"/>
<path d="M236.979 -887.059C236.979 -901.245 243.797 -914.566 255.304 -922.862L331.667 -977.915C347.081 -989.027 367.876 -989.027 383.29 -977.915L459.653 -922.862C471.16 -914.566 477.979 -901.245 477.979 -887.059V347.211C477.979 361.518 471.044 374.937 459.374 383.213L383.011 437.369C367.717 448.216 347.24 448.216 331.946 437.369L255.583 383.213C243.913 374.937 236.979 361.518 236.979 347.211V-887.059Z" fill="#0019A5"/>
<path d="M475.971 -920.237C475.971 -934.888 483.241 -948.585 495.377 -956.794L572.239 -1008.79C587.178 -1018.9 606.763 -1018.9 621.702 -1008.79L698.565 -956.794C710.7 -948.585 717.971 -934.888 717.971 -920.237V240.428C717.971 254.109 711.627 267.016 700.795 275.373L623.932 334.676C608.047 346.931 585.894 346.931 570.009 334.676L493.147 275.373C482.315 267.016 475.971 254.109 475.971 240.428V-920.237Z" fill="#0019A5"/>
<path d="M715.973 -900.948C715.973 -916.338 723.989 -930.617 737.128 -938.63L813.991 -985.507C828.103 -994.114 845.842 -994.114 859.954 -985.507L936.817 -938.63C949.956 -930.617 957.973 -916.338 957.973 -900.948V136.94C957.973 152.108 950.184 166.213 937.348 174.293L860.485 222.676C846.115 231.722 827.83 231.722 813.46 222.676L736.597 174.293C723.761 166.213 715.973 152.108 715.973 136.94V-900.948Z" fill="#0019A5"/>
<path d="M955.971 -1071.01C955.971 -1085.19 962.784 -1098.5 974.284 -1106.8L1050.65 -1161.89C1066.07 -1173.02 1086.88 -1173.02 1102.29 -1161.89L1178.66 -1106.8C1190.16 -1098.5 1196.97 -1085.19 1196.97 -1071.01V164.044C1196.97 178.436 1189.95 191.924 1178.17 200.185L1101.81 253.717C1086.6 264.378 1066.34 264.378 1051.14 253.717L974.772 200.185C962.988 191.924 955.971 178.436 955.971 164.044V-1071.01Z" fill="#0019A5"/>
<path d="M1224.21 -439.236C1236.62 -446.353 1251.72 -447.01 1264.7 -440.999L1531.88 -317.326C1548.8 -309.494 1558.98 -291.872 1557.3 -273.301L1530.82 19.8439C1529.53 34.1368 1521.37 46.9097 1508.94 54.0896L1035.77 327.495C1023.15 334.786 1007.75 335.379 994.608 329.08L729.491 202C714.177 194.659 704.432 179.182 704.432 162.199L704.433 -115.685C704.433 -131.502 712.896 -146.109 726.618 -153.976L1224.21 -439.236Z" fill="#0019A5"/>
<path d="M1195.97 -1155.97C1195.97 -1170.88 1203.5 -1184.78 1215.98 -1192.93L1292.35 -1242.78C1307.01 -1252.34 1325.94 -1252.34 1340.6 -1242.78L1416.96 -1192.93C1429.44 -1184.78 1436.97 -1170.88 1436.97 -1155.97V-43.8495C1436.97 -29.6499 1430.14 -16.3175 1418.61 -8.02368L1342.25 46.9261C1326.85 58.0079 1306.09 58.0081 1290.69 46.9261L1214.33 -8.02368C1202.8 -16.3174 1195.97 -29.6499 1195.97 -43.8495V-1155.97Z" fill="#0019A5"/>
</g>
</svg>
