<svg width="1440" height="244" viewBox="0 0 1440 244" fill="none" xmlns="http://www.w3.org/2000/svg">
<rect width="1440" height="244" fill="#E5E5E5"/>
<g clip-path="url(#clip0)">
<rect width="1440" height="6612" transform="translate(0 -6368)" fill="#0000B0"/>
<rect width="1440" height="244" fill="#0000B0"/>
<mask id="mask0" mask-type="alpha" maskUnits="userSpaceOnUse" x="0" y="0" width="1440" height="219">
<rect width="1440" height="219" fill="#0000B0"/>
</mask>
<g mask="url(#mask0)">
<rect x="2464.09" y="-171" width="9.12662" height="2653.61" transform="rotate(60 2464.09 -171)" stroke="#1A55F5"/>
<rect x="3617.09" y="-171" width="9.12662" height="2653.61" transform="rotate(60 3617.09 -171)" stroke="#1A55F5"/>
<rect x="2320.09" y="-171" width="9.12662" height="2653.61" transform="rotate(60 2320.09 -171)" stroke="#1A55F5"/>
<rect x="1095.09" y="-171" width="9.12662" height="2653.61" transform="rotate(60 1095.09 -171)" stroke="#1A55F5"/>
<rect x="3473.09" y="-171" width="9.12662" height="2653.61" transform="rotate(60 3473.09 -171)" stroke="#1A55F5"/>
<rect x="2176.09" y="-171" width="9.12662" height="2653.61" transform="rotate(60 2176.09 -171)" stroke="#1A55F5"/>
<rect x="951.09" y="-171" width="9.12662" height="2653.61" transform="rotate(60 951.09 -171)" stroke="#1A55F5"/>
<rect x="3329.09" y="-171" width="9.12662" height="2653.61" transform="rotate(60 3329.09 -171)" stroke="#1A55F5"/>
<rect x="2032.09" y="-171" width="9.12662" height="2653.61" transform="rotate(60 2032.09 -171)" stroke="#1A55F5"/>
<rect x="807.09" y="-171" width="9.12662" height="2653.61" transform="rotate(60 807.09 -171)" stroke="#1A55F5"/>
<rect x="3185.09" y="-171" width="9.12662" height="2653.61" transform="rotate(60 3185.09 -171)" stroke="#1A55F5"/>
<rect x="1888.09" y="-171" width="9.12662" height="2653.61" transform="rotate(60 1888.09 -171)" stroke="#1A55F5"/>
<rect x="663.09" y="-171" width="9.12662" height="2653.61" transform="rotate(60 663.09 -171)" stroke="#1A55F5"/>
<rect x="3041.09" y="-171" width="9.12662" height="2653.61" transform="rotate(60 3041.09 -171)" stroke="#1A55F5"/>
<rect x="1744.09" y="-171" width="9.12662" height="2653.61" transform="rotate(60 1744.09 -171)" stroke="#1A55F5"/>
<rect x="519.09" y="-171" width="9.12662" height="2653.61" transform="rotate(60 519.09 -171)" stroke="#1A55F5"/>
<rect x="2897.09" y="-171" width="9.12662" height="2653.61" transform="rotate(60 2897.09 -171)" stroke="#1A55F5"/>
<rect x="1600.09" y="-171" width="9.12662" height="2653.61" transform="rotate(60 1600.09 -171)" stroke="#1A55F5"/>
<rect x="375.09" y="-171" width="9.12662" height="2653.61" transform="rotate(60 375.09 -171)" stroke="#1A55F5"/>
<rect x="2753.09" y="-171" width="9.12662" height="2653.61" transform="rotate(60 2753.09 -171)" stroke="#1A55F5"/>
<rect x="1456.09" y="-171" width="9.12662" height="2653.61" transform="rotate(60 1456.09 -171)" stroke="#1A55F5"/>
<rect x="231.09" y="-171" width="9.12662" height="2653.61" transform="rotate(60 231.09 -171)" stroke="#1A55F5"/>
<rect x="2609.09" y="-171" width="9.12662" height="2653.61" transform="rotate(60 2609.09 -171)" stroke="#1A55F5"/>
<rect x="1312.09" y="-171" width="9.12662" height="2653.61" transform="rotate(60 1312.09 -171)" stroke="#1A55F5"/>
<rect x="87.0898" y="-171" width="9.12662" height="2653.61" transform="rotate(60 87.0898 -171)" stroke="#1A55F5"/>
<rect x="3725.09" y="-171" width="9.12662" height="2653.61" transform="rotate(60 3725.09 -171)" stroke="#1A55F5"/>
<rect x="2428.09" y="-171" width="9.12662" height="2653.61" transform="rotate(60 2428.09 -171)" stroke="#1A55F5"/>
<rect x="3581.09" y="-171" width="9.12662" height="2653.61" transform="rotate(60 3581.09 -171)" stroke="#1A55F5"/>
<rect x="2284.09" y="-171" width="9.12662" height="2653.61" transform="rotate(60 2284.09 -171)" stroke="#1A55F5"/>
<rect x="1059.09" y="-171" width="9.12662" height="2653.61" transform="rotate(60 1059.09 -171)" stroke="#1A55F5"/>
<rect x="3437.09" y="-171" width="9.12662" height="2653.61" transform="rotate(60 3437.09 -171)" stroke="#1A55F5"/>
<rect x="2140.09" y="-171" width="9.12662" height="2653.61" transform="rotate(60 2140.09 -171)" stroke="#1A55F5"/>
<rect x="915.09" y="-171" width="9.12662" height="2653.61" transform="rotate(60 915.09 -171)" stroke="#1A55F5"/>
<rect x="3293.09" y="-171" width="9.12662" height="2653.61" transform="rotate(60 3293.09 -171)" stroke="#1A55F5"/>
<rect x="1996.09" y="-171" width="9.12662" height="2653.61" transform="rotate(60 1996.09 -171)" stroke="#1A55F5"/>
<rect x="771.09" y="-171" width="9.12662" height="2653.61" transform="rotate(60 771.09 -171)" stroke="#1A55F5"/>
<rect x="3149.09" y="-171" width="9.12662" height="2653.61" transform="rotate(60 3149.09 -171)" stroke="#1A55F5"/>
<rect x="1852.09" y="-171" width="9.12662" height="2653.61" transform="rotate(60 1852.09 -171)" stroke="#1A55F5"/>
<rect x="627.09" y="-171" width="9.12662" height="2653.61" transform="rotate(60 627.09 -171)" stroke="#1A55F5"/>
<rect x="3005.09" y="-171" width="9.12662" height="2653.61" transform="rotate(60 3005.09 -171)" stroke="#1A55F5"/>
<rect x="1708.09" y="-171" width="9.12662" height="2653.61" transform="rotate(60 1708.09 -171)" stroke="#1A55F5"/>
<rect x="483.09" y="-171" width="9.12662" height="2653.61" transform="rotate(60 483.09 -171)" stroke="#1A55F5"/>
<rect x="2861.09" y="-171" width="9.12662" height="2653.61" transform="rotate(60 2861.09 -171)" stroke="#1A55F5"/>
<rect x="1564.09" y="-171" width="9.12662" height="2653.61" transform="rotate(60 1564.09 -171)" stroke="#1A55F5"/>
<rect x="339.09" y="-171" width="9.12662" height="2653.61" transform="rotate(60 339.09 -171)" stroke="#1A55F5"/>
<rect x="2717.09" y="-171" width="9.12662" height="2653.61" transform="rotate(60 2717.09 -171)" stroke="#1A55F5"/>
<rect x="1420.09" y="-171" width="9.12662" height="2653.61" transform="rotate(60 1420.09 -171)" stroke="#1A55F5"/>
<rect x="195.09" y="-171" width="9.12662" height="2653.61" transform="rotate(60 195.09 -171)" stroke="#1A55F5"/>
<rect x="2573.09" y="-171" width="9.12662" height="2653.61" transform="rotate(60 2573.09 -171)" stroke="#1A55F5"/>
<rect x="1276.09" y="-171" width="9.12662" height="2653.61" transform="rotate(60 1276.09 -171)" stroke="#1A55F5"/>
<rect x="51.0898" y="-171" width="9.12662" height="2653.61" transform="rotate(60 51.0898 -171)" stroke="#1A55F5"/>
<rect x="3689.09" y="-171" width="9.12662" height="2653.61" transform="rotate(60 3689.09 -171)" stroke="#1A55F5"/>
<rect x="2392.09" y="-171" width="9.12662" height="2653.61" transform="rotate(60 2392.09 -171)" stroke="#1A55F5"/>
<rect x="1167.09" y="-171" width="9.12662" height="2653.61" transform="rotate(60 1167.09 -171)" stroke="#1A55F5"/>
<rect x="3545.09" y="-171" width="9.12662" height="2653.61" transform="rotate(60 3545.09 -171)" stroke="#1A55F5"/>
<rect x="2248.09" y="-171" width="9.12662" height="2653.61" transform="rotate(60 2248.09 -171)" stroke="#1A55F5"/>
<rect x="1023.09" y="-171" width="9.12662" height="2653.61" transform="rotate(60 1023.09 -171)" stroke="#1A55F5"/>
<rect x="3401.09" y="-171" width="9.12662" height="2653.61" transform="rotate(60 3401.09 -171)" stroke="#1A55F5"/>
<rect x="2104.09" y="-171" width="9.12662" height="2653.61" transform="rotate(60 2104.09 -171)" stroke="#1A55F5"/>
<rect x="879.09" y="-171" width="9.12662" height="2653.61" transform="rotate(60 879.09 -171)" stroke="#1A55F5"/>
<rect x="3257.09" y="-171" width="9.12662" height="2653.61" transform="rotate(60 3257.09 -171)" stroke="#1A55F5"/>
<rect x="1960.09" y="-171" width="9.12662" height="2653.61" transform="rotate(60 1960.09 -171)" stroke="#1A55F5"/>
<rect x="735.09" y="-171" width="9.12662" height="2653.61" transform="rotate(60 735.09 -171)" stroke="#1A55F5"/>
<rect x="3113.09" y="-171" width="9.12662" height="2653.61" transform="rotate(60 3113.09 -171)" stroke="#1A55F5"/>
<rect x="1816.09" y="-171" width="9.12662" height="2653.61" transform="rotate(60 1816.09 -171)" stroke="#1A55F5"/>
<rect x="591.09" y="-171" width="9.12662" height="2653.61" transform="rotate(60 591.09 -171)" stroke="#1A55F5"/>
<rect x="2969.09" y="-171" width="9.12662" height="2653.61" transform="rotate(60 2969.09 -171)" stroke="#1A55F5"/>
<rect x="1672.09" y="-171" width="9.12662" height="2653.61" transform="rotate(60 1672.09 -171)" stroke="#1A55F5"/>
<rect x="447.09" y="-171" width="9.12662" height="2653.61" transform="rotate(60 447.09 -171)" stroke="#1A55F5"/>
<rect x="2825.09" y="-171" width="9.12662" height="2653.61" transform="rotate(60 2825.09 -171)" stroke="#1A55F5"/>
<rect x="1528.09" y="-171" width="9.12662" height="2653.61" transform="rotate(60 1528.09 -171)" stroke="#1A55F5"/>
<rect x="303.09" y="-171" width="9.12662" height="2653.61" transform="rotate(60 303.09 -171)" stroke="#1A55F5"/>
<rect x="2681.09" y="-171" width="9.12662" height="2653.61" transform="rotate(60 2681.09 -171)" stroke="#1A55F5"/>
<rect x="1384.09" y="-171" width="9.12662" height="2653.61" transform="rotate(60 1384.09 -171)" stroke="#1A55F5"/>
<rect x="159.09" y="-171" width="9.12662" height="2653.61" transform="rotate(60 159.09 -171)" stroke="#1A55F5"/>
<rect x="2537.09" y="-171" width="9.12662" height="2653.61" transform="rotate(60 2537.09 -171)" stroke="#1A55F5"/>
<rect x="1240.09" y="-171" width="9.12662" height="2653.61" transform="rotate(60 1240.09 -171)" stroke="#1A55F5"/>
<rect x="15.0898" y="-171" width="9.12662" height="2653.61" transform="rotate(60 15.0898 -171)" stroke="#1A55F5"/>
<rect x="3653.09" y="-171" width="9.12662" height="2653.61" transform="rotate(60 3653.09 -171)" stroke="#1A55F5"/>
<rect x="2356.09" y="-171" width="9.12662" height="2653.61" transform="rotate(60 2356.09 -171)" stroke="#1A55F5"/>
<rect x="1131.09" y="-171" width="9.12662" height="2653.61" transform="rotate(60 1131.09 -171)" stroke="#1A55F5"/>
<rect x="3509.09" y="-171" width="9.12662" height="2653.61" transform="rotate(60 3509.09 -171)" stroke="#1A55F5"/>
<rect x="2212.09" y="-171" width="9.12662" height="2653.61" transform="rotate(60 2212.09 -171)" stroke="#1A55F5"/>
<rect x="987.09" y="-171" width="9.12662" height="2653.61" transform="rotate(60 987.09 -171)" stroke="#1A55F5"/>
<rect x="3365.09" y="-171" width="9.12662" height="2653.61" transform="rotate(60 3365.09 -171)" stroke="#1A55F5"/>
<rect x="2068.09" y="-171" width="9.12662" height="2653.61" transform="rotate(60 2068.09 -171)" stroke="#1A55F5"/>
<rect x="843.09" y="-171" width="9.12662" height="2653.61" transform="rotate(60 843.09 -171)" stroke="#1A55F5"/>
<rect x="3221.09" y="-171" width="9.12662" height="2653.61" transform="rotate(60 3221.09 -171)" stroke="#1A55F5"/>
<rect x="1924.09" y="-171" width="9.12662" height="2653.61" transform="rotate(60 1924.09 -171)" stroke="#1A55F5"/>
<rect x="699.09" y="-171" width="9.12662" height="2653.61" transform="rotate(60 699.09 -171)" stroke="#1A55F5"/>
<rect x="3077.09" y="-171" width="9.12662" height="2653.61" transform="rotate(60 3077.09 -171)" stroke="#1A55F5"/>
<rect x="1780.09" y="-171" width="9.12662" height="2653.61" transform="rotate(60 1780.09 -171)" stroke="#1A55F5"/>
<rect x="555.09" y="-171" width="9.12662" height="2653.61" transform="rotate(60 555.09 -171)" stroke="#1A55F5"/>
<rect x="2933.09" y="-171" width="9.12662" height="2653.61" transform="rotate(60 2933.09 -171)" stroke="#1A55F5"/>
<rect x="1636.09" y="-171" width="9.12662" height="2653.61" transform="rotate(60 1636.09 -171)" stroke="#1A55F5"/>
<rect x="411.09" y="-171" width="9.12662" height="2653.61" transform="rotate(60 411.09 -171)" stroke="#1A55F5"/>
<rect x="2789.09" y="-171" width="9.12662" height="2653.61" transform="rotate(60 2789.09 -171)" stroke="#1A55F5"/>
<rect x="1492.09" y="-171" width="9.12662" height="2653.61" transform="rotate(60 1492.09 -171)" stroke="#1A55F5"/>
<rect x="267.09" y="-171" width="9.12662" height="2653.61" transform="rotate(60 267.09 -171)" stroke="#1A55F5"/>
<rect x="2645.09" y="-171" width="9.12662" height="2653.61" transform="rotate(60 2645.09 -171)" stroke="#1A55F5"/>
<rect x="1348.09" y="-171" width="9.12662" height="2653.61" transform="rotate(60 1348.09 -171)" stroke="#1A55F5"/>
<rect x="123.09" y="-171" width="9.12662" height="2653.61" transform="rotate(60 123.09 -171)" stroke="#1A55F5"/>
<rect x="2501.09" y="-171" width="9.12662" height="2653.61" transform="rotate(60 2501.09 -171)" stroke="#1A55F5"/>
<rect x="1204.09" y="-171" width="9.12662" height="2653.61" transform="rotate(60 1204.09 -171)" stroke="#1A55F5"/>
<rect width="9.12662" height="2653.61" transform="matrix(-0.5 0.866025 0.866025 0.5 -1017.44 -321)" stroke="#1A55F5"/>
<rect width="9.12662" height="2653.61" transform="matrix(-0.5 0.866025 0.866025 0.5 -2170.44 -321)" stroke="#1A55F5"/>
<rect width="9.12662" height="2653.61" transform="matrix(-0.5 0.866025 0.866025 0.5 -873.438 -321)" stroke="#1A55F5"/>
<rect width="9.12662" height="2653.61" transform="matrix(-0.5 0.866025 0.866025 0.5 351.562 -321)" stroke="#1A55F5"/>
<rect width="9.12662" height="2653.61" transform="matrix(-0.5 0.866025 0.866025 0.5 -2026.44 -321)" stroke="#1A55F5"/>
<rect width="9.12662" height="2653.61" transform="matrix(-0.5 0.866025 0.866025 0.5 -729.438 -321)" stroke="#1A55F5"/>
<rect width="9.12662" height="2653.61" transform="matrix(-0.5 0.866025 0.866025 0.5 495.562 -321)" stroke="#1A55F5"/>
<rect width="9.12662" height="2653.61" transform="matrix(-0.5 0.866025 0.866025 0.5 -1882.44 -321)" stroke="#1A55F5"/>
<rect width="9.12662" height="2653.61" transform="matrix(-0.5 0.866025 0.866025 0.5 -585.438 -321)" stroke="#1A55F5"/>
<rect width="9.12662" height="2653.61" transform="matrix(-0.5 0.866025 0.866025 0.5 639.562 -321)" stroke="#1A55F5"/>
<rect width="9.12662" height="2653.61" transform="matrix(-0.5 0.866025 0.866025 0.5 -1738.44 -321)" stroke="#1A55F5"/>
<rect width="9.12662" height="2653.61" transform="matrix(-0.5 0.866025 0.866025 0.5 -441.438 -321)" stroke="#1A55F5"/>
<rect width="9.12662" height="2653.61" transform="matrix(-0.5 0.866025 0.866025 0.5 783.562 -321)" stroke="#1A55F5"/>
<rect width="9.12662" height="2653.61" transform="matrix(-0.5 0.866025 0.866025 0.5 -1594.44 -321)" stroke="#1A55F5"/>
<rect width="9.12662" height="2653.61" transform="matrix(-0.5 0.866025 0.866025 0.5 -297.438 -321)" stroke="#1A55F5"/>
<rect width="9.12662" height="2653.61" transform="matrix(-0.5 0.866025 0.866025 0.5 927.562 -321)" stroke="#1A55F5"/>
<rect width="9.12662" height="2653.61" transform="matrix(-0.5 0.866025 0.866025 0.5 -1450.44 -321)" stroke="#1A55F5"/>
<rect width="9.12662" height="2653.61" transform="matrix(-0.5 0.866025 0.866025 0.5 -153.438 -321)" stroke="#1A55F5"/>
<rect width="9.12662" height="2653.61" transform="matrix(-0.5 0.866025 0.866025 0.5 1071.56 -321)" stroke="#1A55F5"/>
<rect width="9.12662" height="2653.61" transform="matrix(-0.5 0.866025 0.866025 0.5 -1306.44 -321)" stroke="#1A55F5"/>
<rect width="9.12662" height="2653.61" transform="matrix(-0.5 0.866025 0.866025 0.5 -9.4375 -321)" stroke="#1A55F5"/>
<rect width="9.12662" height="2653.61" transform="matrix(-0.5 0.866025 0.866025 0.5 1215.56 -321)" stroke="#1A55F5"/>
<rect width="9.12662" height="2653.61" transform="matrix(-0.5 0.866025 0.866025 0.5 -1162.44 -321)" stroke="#1A55F5"/>
<rect width="9.12662" height="2653.61" transform="matrix(-0.5 0.866025 0.866025 0.5 134.562 -321)" stroke="#1A55F5"/>
<rect width="9.12662" height="2653.61" transform="matrix(-0.5 0.866025 0.866025 0.5 1359.56 -321)" stroke="#1A55F5"/>
<rect width="9.12662" height="2653.61" transform="matrix(-0.5 0.866025 0.866025 0.5 -2278.44 -321)" stroke="#1A55F5"/>
<rect width="9.12662" height="2653.61" transform="matrix(-0.5 0.866025 0.866025 0.5 -981.438 -321)" stroke="#1A55F5"/>
<rect width="9.12662" height="2653.61" transform="matrix(-0.5 0.866025 0.866025 0.5 -2134.44 -321)" stroke="#1A55F5"/>
<rect width="9.12662" height="2653.61" transform="matrix(-0.5 0.866025 0.866025 0.5 -837.438 -321)" stroke="#1A55F5"/>
<rect width="9.12662" height="2653.61" transform="matrix(-0.5 0.866025 0.866025 0.5 387.562 -321)" stroke="#1A55F5"/>
<rect width="9.12662" height="2653.61" transform="matrix(-0.5 0.866025 0.866025 0.5 -1990.44 -321)" stroke="#1A55F5"/>
<rect width="9.12662" height="2653.61" transform="matrix(-0.5 0.866025 0.866025 0.5 -693.438 -321)" stroke="#1A55F5"/>
<rect width="9.12662" height="2653.61" transform="matrix(-0.5 0.866025 0.866025 0.5 531.562 -321)" stroke="#1A55F5"/>
<rect width="9.12662" height="2653.61" transform="matrix(-0.5 0.866025 0.866025 0.5 -1846.44 -321)" stroke="#1A55F5"/>
<rect width="9.12662" height="2653.61" transform="matrix(-0.5 0.866025 0.866025 0.5 -549.438 -321)" stroke="#1A55F5"/>
<rect width="9.12662" height="2653.61" transform="matrix(-0.5 0.866025 0.866025 0.5 675.562 -321)" stroke="#1A55F5"/>
<rect width="9.12662" height="2653.61" transform="matrix(-0.5 0.866025 0.866025 0.5 -1702.44 -321)" stroke="#1A55F5"/>
<rect width="9.12662" height="2653.61" transform="matrix(-0.5 0.866025 0.866025 0.5 -405.438 -321)" stroke="#1A55F5"/>
<rect width="9.12662" height="2653.61" transform="matrix(-0.5 0.866025 0.866025 0.5 819.562 -321)" stroke="#1A55F5"/>
<rect width="9.12662" height="2653.61" transform="matrix(-0.5 0.866025 0.866025 0.5 -1558.44 -321)" stroke="#1A55F5"/>
<rect width="9.12662" height="2653.61" transform="matrix(-0.5 0.866025 0.866025 0.5 -261.438 -321)" stroke="#1A55F5"/>
<rect width="9.12662" height="2653.61" transform="matrix(-0.5 0.866025 0.866025 0.5 963.562 -321)" stroke="#1A55F5"/>
<rect width="9.12662" height="2653.61" transform="matrix(-0.5 0.866025 0.866025 0.5 -1414.44 -321)" stroke="#1A55F5"/>
<rect width="9.12662" height="2653.61" transform="matrix(-0.5 0.866025 0.866025 0.5 -117.438 -321)" stroke="#1A55F5"/>
<rect width="9.12662" height="2653.61" transform="matrix(-0.5 0.866025 0.866025 0.5 1107.56 -321)" stroke="#1A55F5"/>
<rect width="9.12662" height="2653.61" transform="matrix(-0.5 0.866025 0.866025 0.5 -1270.44 -321)" stroke="#1A55F5"/>
<rect width="9.12662" height="2653.61" transform="matrix(-0.5 0.866025 0.866025 0.5 26.5625 -321)" stroke="#1A55F5"/>
<rect width="9.12662" height="2653.61" transform="matrix(-0.5 0.866025 0.866025 0.5 1251.56 -321)" stroke="#1A55F5"/>
<rect width="9.12662" height="2653.61" transform="matrix(-0.5 0.866025 0.866025 0.5 -1126.44 -321)" stroke="#1A55F5"/>
<rect width="9.12662" height="2653.61" transform="matrix(-0.5 0.866025 0.866025 0.5 170.562 -321)" stroke="#1A55F5"/>
<rect width="9.12662" height="2653.61" transform="matrix(-0.5 0.866025 0.866025 0.5 1395.56 -321)" stroke="#1A55F5"/>
<rect width="9.12662" height="2653.61" transform="matrix(-0.5 0.866025 0.866025 0.5 -2242.44 -321)" stroke="#1A55F5"/>
<rect width="9.12662" height="2653.61" transform="matrix(-0.5 0.866025 0.866025 0.5 -945.438 -321)" stroke="#1A55F5"/>
<rect width="9.12662" height="2653.61" transform="matrix(-0.5 0.866025 0.866025 0.5 279.562 -321)" stroke="#1A55F5"/>
<rect width="9.12662" height="2653.61" transform="matrix(-0.5 0.866025 0.866025 0.5 -2098.44 -321)" stroke="#1A55F5"/>
<rect width="9.12662" height="2653.61" transform="matrix(-0.5 0.866025 0.866025 0.5 -801.438 -321)" stroke="#1A55F5"/>
<rect width="9.12662" height="2653.61" transform="matrix(-0.5 0.866025 0.866025 0.5 423.562 -321)" stroke="#1A55F5"/>
<rect width="9.12662" height="2653.61" transform="matrix(-0.5 0.866025 0.866025 0.5 -1954.44 -321)" stroke="#1A55F5"/>
<rect width="9.12662" height="2653.61" transform="matrix(-0.5 0.866025 0.866025 0.5 -657.438 -321)" stroke="#1A55F5"/>
<rect width="9.12662" height="2653.61" transform="matrix(-0.5 0.866025 0.866025 0.5 567.562 -321)" stroke="#1A55F5"/>
<rect width="9.12662" height="2653.61" transform="matrix(-0.5 0.866025 0.866025 0.5 -1810.44 -321)" stroke="#1A55F5"/>
<rect width="9.12662" height="2653.61" transform="matrix(-0.5 0.866025 0.866025 0.5 -513.438 -321)" stroke="#1A55F5"/>
<rect width="9.12662" height="2653.61" transform="matrix(-0.5 0.866025 0.866025 0.5 711.562 -321)" stroke="#1A55F5"/>
<rect width="9.12662" height="2653.61" transform="matrix(-0.5 0.866025 0.866025 0.5 -1666.44 -321)" stroke="#1A55F5"/>
<rect width="9.12662" height="2653.61" transform="matrix(-0.5 0.866025 0.866025 0.5 -369.438 -321)" stroke="#1A55F5"/>
<rect width="9.12662" height="2653.61" transform="matrix(-0.5 0.866025 0.866025 0.5 855.562 -321)" stroke="#1A55F5"/>
<rect width="9.12662" height="2653.61" transform="matrix(-0.5 0.866025 0.866025 0.5 -1522.44 -321)" stroke="#1A55F5"/>
<rect width="9.12662" height="2653.61" transform="matrix(-0.5 0.866025 0.866025 0.5 -225.438 -321)" stroke="#1A55F5"/>
<rect width="9.12662" height="2653.61" transform="matrix(-0.5 0.866025 0.866025 0.5 999.562 -321)" stroke="#1A55F5"/>
<rect width="9.12662" height="2653.61" transform="matrix(-0.5 0.866025 0.866025 0.5 -1378.44 -321)" stroke="#1A55F5"/>
<rect width="9.12662" height="2653.61" transform="matrix(-0.5 0.866025 0.866025 0.5 -81.4375 -321)" stroke="#1A55F5"/>
<rect width="9.12662" height="2653.61" transform="matrix(-0.5 0.866025 0.866025 0.5 1143.56 -321)" stroke="#1A55F5"/>
<rect width="9.12662" height="2653.61" transform="matrix(-0.5 0.866025 0.866025 0.5 -1234.44 -321)" stroke="#1A55F5"/>
<rect width="9.12662" height="2653.61" transform="matrix(-0.5 0.866025 0.866025 0.5 62.5625 -321)" stroke="#1A55F5"/>
<rect width="9.12662" height="2653.61" transform="matrix(-0.5 0.866025 0.866025 0.5 1287.56 -321)" stroke="#1A55F5"/>
<rect width="9.12662" height="2653.61" transform="matrix(-0.5 0.866025 0.866025 0.5 -1090.44 -321)" stroke="#1A55F5"/>
<rect width="9.12662" height="2653.61" transform="matrix(-0.5 0.866025 0.866025 0.5 206.562 -321)" stroke="#1A55F5"/>
<rect width="9.12662" height="2653.61" transform="matrix(-0.5 0.866025 0.866025 0.5 1431.56 -321)" stroke="#1A55F5"/>
<rect width="9.12662" height="2653.61" transform="matrix(-0.5 0.866025 0.866025 0.5 -2206.44 -321)" stroke="#1A55F5"/>
<rect width="9.12662" height="2653.61" transform="matrix(-0.5 0.866025 0.866025 0.5 -909.438 -321)" stroke="#1A55F5"/>
<rect width="9.12662" height="2653.61" transform="matrix(-0.5 0.866025 0.866025 0.5 315.562 -321)" stroke="#1A55F5"/>
<rect width="9.12662" height="2653.61" transform="matrix(-0.5 0.866025 0.866025 0.5 -2062.44 -321)" stroke="#1A55F5"/>
<rect width="9.12662" height="2653.61" transform="matrix(-0.5 0.866025 0.866025 0.5 -765.438 -321)" stroke="#1A55F5"/>
<rect width="9.12662" height="2653.61" transform="matrix(-0.5 0.866025 0.866025 0.5 459.562 -321)" stroke="#1A55F5"/>
<rect width="9.12662" height="2653.61" transform="matrix(-0.5 0.866025 0.866025 0.5 -1918.44 -321)" stroke="#1A55F5"/>
<rect width="9.12662" height="2653.61" transform="matrix(-0.5 0.866025 0.866025 0.5 -621.438 -321)" stroke="#1A55F5"/>
<rect width="9.12662" height="2653.61" transform="matrix(-0.5 0.866025 0.866025 0.5 603.562 -321)" stroke="#1A55F5"/>
<rect width="9.12662" height="2653.61" transform="matrix(-0.5 0.866025 0.866025 0.5 -1774.44 -321)" stroke="#1A55F5"/>
<rect width="9.12662" height="2653.61" transform="matrix(-0.5 0.866025 0.866025 0.5 -477.438 -321)" stroke="#1A55F5"/>
<rect width="9.12662" height="2653.61" transform="matrix(-0.5 0.866025 0.866025 0.5 747.562 -321)" stroke="#1A55F5"/>
<rect width="9.12662" height="2653.61" transform="matrix(-0.5 0.866025 0.866025 0.5 -1630.44 -321)" stroke="#1A55F5"/>
<rect width="9.12662" height="2653.61" transform="matrix(-0.5 0.866025 0.866025 0.5 -333.438 -321)" stroke="#1A55F5"/>
<rect width="9.12662" height="2653.61" transform="matrix(-0.5 0.866025 0.866025 0.5 891.562 -321)" stroke="#1A55F5"/>
<rect width="9.12662" height="2653.61" transform="matrix(-0.5 0.866025 0.866025 0.5 -1486.44 -321)" stroke="#1A55F5"/>
<rect width="9.12662" height="2653.61" transform="matrix(-0.5 0.866025 0.866025 0.5 -189.438 -321)" stroke="#1A55F5"/>
<rect width="9.12662" height="2653.61" transform="matrix(-0.5 0.866025 0.866025 0.5 1035.56 -321)" stroke="#1A55F5"/>
<rect width="9.12662" height="2653.61" transform="matrix(-0.5 0.866025 0.866025 0.5 -1342.44 -321)" stroke="#1A55F5"/>
<rect width="9.12662" height="2653.61" transform="matrix(-0.5 0.866025 0.866025 0.5 -45.4375 -321)" stroke="#1A55F5"/>
<rect width="9.12662" height="2653.61" transform="matrix(-0.5 0.866025 0.866025 0.5 1179.56 -321)" stroke="#1A55F5"/>
<rect width="9.12662" height="2653.61" transform="matrix(-0.5 0.866025 0.866025 0.5 -1198.44 -321)" stroke="#1A55F5"/>
<rect width="9.12662" height="2653.61" transform="matrix(-0.5 0.866025 0.866025 0.5 98.5625 -321)" stroke="#1A55F5"/>
<rect width="9.12662" height="2653.61" transform="matrix(-0.5 0.866025 0.866025 0.5 1323.56 -321)" stroke="#1A55F5"/>
<rect width="9.12662" height="2653.61" transform="matrix(-0.5 0.866025 0.866025 0.5 -1054.44 -321)" stroke="#1A55F5"/>
<rect width="9.12662" height="2653.61" transform="matrix(-0.5 0.866025 0.866025 0.5 242.562 -321)" stroke="#1A55F5"/>
<rect x="-1.36719" y="-183.412" width="1440" height="934.4" fill="url(#paint0_linear)"/>
</g>
</g>
<defs>
<linearGradient id="paint0_linear" x1="719" y1="-111" x2="719" y2="408.5" gradientUnits="userSpaceOnUse">
<stop stop-color="#0000B0" stop-opacity="0"/>
<stop offset="0.56874" stop-color="#0000B0"/>
</linearGradient>
<clipPath id="clip0">
<rect width="1440" height="6612" fill="white" transform="translate(0 -6368)"/>
</clipPath>
</defs>
</svg>
