<svg id="Group_5" data-name="Group 5" xmlns="http://www.w3.org/2000/svg" width="113.266" height="26.588" viewBox="0 0 113.266 26.588">
  <g id="Group_3" data-name="Group 3" transform="translate(55.363 5.701)">
    <path id="Path_9" data-name="Path 9" d="M718.85,748.882v12.125h2.977v-9.351h3.649v-2.775Z" transform="translate(-667.573 -746.124)" fill="#fff"/>
    <path id="Path_10" data-name="Path 10" d="M481.576,748.882H474.95v12.125h2.977v-9.351h3.649Z" transform="translate(-464.691 -746.124)" fill="#fff"/>
    <path id="Path_11" data-name="Path 11" d="M420.559,732.482H413.95v2.758H417.6v12.125h2.96V735.24h3.649v-2.758Z" transform="translate(-413.95 -732.482)" fill="#fff"/>
    <path id="Path_12" data-name="Path 12" d="M589.033,750.571a2.084,2.084,0,0,1,1.833.891,2.274,2.274,0,0,1,.336,1.11h2.825a4.751,4.751,0,0,0-.925-2.607,5.183,5.183,0,0,0-4.087-1.883,5.437,5.437,0,0,0-4.154,1.883,7.944,7.944,0,0,0,0,8.745,5.438,5.438,0,0,0,4.154,1.883,5.235,5.235,0,0,0,4.087-1.883,4.658,4.658,0,0,0,.925-2.607H591.2a2.467,2.467,0,0,1-.336,1.11,2.126,2.126,0,0,1-1.833.891,2.4,2.4,0,0,1-1.749-.757,4.386,4.386,0,0,1-.807-3.01,4.5,4.5,0,0,1,.807-3.044A2.348,2.348,0,0,1,589.033,750.571Z" transform="translate(-555.028 -745.459)" fill="#fff"/>
    <path id="Path_13" data-name="Path 13" d="M654.2,748.082a5.223,5.223,0,0,0-3.818,1.513,6.747,6.747,0,0,0-1.732,4.776,6.464,6.464,0,0,0,1.833,4.776,5.235,5.235,0,0,0,3.767,1.48,5.125,5.125,0,0,0,4.019-1.682,4.8,4.8,0,0,0,1.009-2.2h-2.741a2.185,2.185,0,0,1-.572,1.009,2.227,2.227,0,0,1-1.749.572,2.526,2.526,0,0,1-1.766-.74,3.212,3.212,0,0,1-.875-2.354h8.005c0-.252.017-.807.017-.807a6.714,6.714,0,0,0-1.043-4.171A5.1,5.1,0,0,0,654.2,748.082Zm-2.64,5.1a2.9,2.9,0,0,1,.622-1.867,2.456,2.456,0,0,1,2-.925,2.377,2.377,0,0,1,1.816.689,3.187,3.187,0,0,1,.74,2.085h-5.18Z" transform="translate(-609.179 -745.459)" fill="#fff"/>
    <path id="Path_14" data-name="Path 14" d="M524.41,756.389h0l.017-3.363a6.476,6.476,0,0,0-.353-2.4c-.69-1.8-2.438-2.438-4.474-2.438-2.674,0-4.81,1.194-4.961,3.885h2.775c.067-1.11.858-1.7,2.186-1.7,1.631,0,2.018.757,2.018,1.884v.74l-3.515.252c-2.27.168-4.053,1.48-4.053,3.75,0,1.951,1.48,3.75,4.322,3.75a4.16,4.16,0,0,0,3.633-1.8v1.615h3.448v-2.069H524.41Zm-2.809-.723c0,1.766-1.261,2.741-3.061,2.741a1.582,1.582,0,0,1-1.7-1.5,1.673,1.673,0,0,1,1.715-1.564l3.027-.235v.555Z" transform="translate(-497.216 -745.542)" fill="#fff"/>
  </g>
  <g id="Group_4" data-name="Group 4">
    <path id="Path_15" data-name="Path 15" d="M262.573,698.582l-23.023,13.3,23.023,13.286v-3.481l-16.969-9.8,16.969-9.8Z" transform="translate(-213.516 -698.582)" fill="#fff"/>
    <rect id="Rectangle_2" data-name="Rectangle 2" width="3.027" height="26.588" transform="translate(23.023)" fill="#fff"/>
    <path id="Path_16" data-name="Path 16" d="M84.75,702.08l16.969,9.8-16.969,9.8v3.481l23.023-13.286-23.023-13.3Z" transform="translate(-84.75 -698.582)" fill="#fff"/>
  </g>
</svg>
