<?xml version="1.0" encoding="utf-8"?>
<!-- Generator: Adobe Illustrator 25.2.1, SVG Export Plug-In . SVG Version: 6.00 Build 0)  -->
<svg version="1.1" id="Layer_1" xmlns="http://www.w3.org/2000/svg" xmlns:xlink="http://www.w3.org/1999/xlink" x="0px" y="0px"
	 viewBox="0 0 112 113" style="enable-background:new 0 0 112 113;" xml:space="preserve">
<style type="text/css">
	.st0{fill:#FFFFFF;}
	.st1{fill-rule:evenodd;clip-rule:evenodd;fill:#0019A5;}
</style>
<circle class="st0" cx="56" cy="56.6" r="55.7"/>
<path class="st1" d="M46.3,15.7h10.8C79.7,15.7,98,34,98,56.6S79.7,97.6,57.1,97.6H46.3v-9.1H28.2v-18H14.5V42.8h13.7v-18h18.2V15.7
	z"/>
<path class="st0" d="M48.9,41.6v-7H52c0.7,0,1.2,0.2,1.7,0.6c0.4,0.4,0.7,0.9,0.7,1.5c0,0.5-0.1,0.8-0.4,1.2c-0.2,0.3-0.6,0.6-1,0.7
	l1.5,3h-1.3l-1.3-2.8h-1.7v2.8H48.9z M51.9,35.7h-1.8v2.2h1.8c0.4,0,0.7-0.1,0.9-0.3c0.2-0.2,0.3-0.5,0.3-0.8S53,36.2,52.7,36
	C52.5,35.8,52.2,35.7,51.9,35.7z"/>
<path class="st0" d="M59.2,41.1l-2.5-5v5.5h-1.1v-7h1.6l2,4.2l2-4.2h1.6v7h-1.1v-5.4L59.2,41.1z"/>
<path class="st0" d="M64.5,41.6v-7h1.2v7H64.5z"/>
<path class="st0" d="M66.8,35.7v-1h5.9v1h-2.3v5.9h-1.2v-5.9H66.8z"/>
<path class="st0" d="M35.8,47.6h3.1c0.7,0,1.2,0.2,1.6,0.5c0.4,0.3,0.6,0.8,0.6,1.3c0,0.3-0.1,0.7-0.3,0.9c-0.2,0.3-0.5,0.5-0.8,0.6
	c0.4,0.1,0.7,0.3,1,0.6c0.2,0.3,0.4,0.6,0.4,1c0,0.6-0.2,1-0.6,1.4c-0.4,0.4-1,0.5-1.7,0.5h-3.2V47.6z M38.8,48.6H37v2h1.8
	c0.3,0,0.6-0.1,0.8-0.3c0.2-0.2,0.3-0.4,0.3-0.7c0-0.3-0.1-0.5-0.3-0.7C39.4,48.7,39.1,48.6,38.8,48.6z M38.9,53.7
	c0.4,0,0.7-0.1,0.9-0.3c0.2-0.2,0.3-0.5,0.3-0.8c0-0.3-0.1-0.6-0.3-0.8c-0.2-0.2-0.5-0.3-0.9-0.3H37v2.1H38.9z"/>
<path class="st0" d="M43.8,47.3v7.3h-1.1v-7.1L43.8,47.3z"/>
<path class="st0" d="M45,52.1c0-0.4,0.1-0.7,0.2-1c0.1-0.3,0.3-0.6,0.5-0.8c0.2-0.2,0.5-0.4,0.8-0.5c0.3-0.1,0.6-0.2,1-0.2
	c0.4,0,0.7,0.1,1,0.2c0.3,0.1,0.6,0.3,0.8,0.5c0.2,0.2,0.4,0.5,0.5,0.8c0.1,0.3,0.2,0.7,0.2,1s-0.1,0.7-0.2,1
	c-0.1,0.3-0.3,0.6-0.5,0.8c-0.2,0.2-0.5,0.4-0.8,0.5c-0.3,0.1-0.6,0.2-1,0.2c-0.4,0-0.7-0.1-1-0.2c-0.3-0.1-0.6-0.3-0.8-0.5
	c-0.2-0.2-0.4-0.5-0.5-0.8C45,52.8,45,52.5,45,52.1z M47.5,53.7c0.4,0,0.7-0.2,1-0.5c0.3-0.3,0.4-0.7,0.4-1.1c0-0.5-0.1-0.9-0.4-1.2
	c-0.3-0.3-0.6-0.5-1-0.5c-0.4,0-0.7,0.2-1,0.5c-0.3,0.3-0.4,0.7-0.4,1.2c0,0.5,0.1,0.9,0.4,1.2C46.7,53.6,47.1,53.7,47.5,53.7z"/>
<path class="st0" d="M53.6,53.7c0.2,0,0.5,0,0.7-0.1c0.2-0.1,0.4-0.2,0.5-0.4l0.7,0.7c-0.2,0.3-0.5,0.5-0.9,0.6
	c-0.3,0.2-0.7,0.2-1.1,0.2c-0.4,0-0.7-0.1-1-0.2c-0.3-0.1-0.6-0.3-0.8-0.5c-0.2-0.2-0.4-0.5-0.5-0.8c-0.1-0.3-0.2-0.7-0.2-1
	s0.1-0.7,0.2-1c0.1-0.3,0.3-0.6,0.5-0.8c0.2-0.2,0.5-0.4,0.8-0.5c0.3-0.1,0.6-0.2,1-0.2c0.4,0,0.8,0.1,1.1,0.2
	c0.4,0.1,0.7,0.4,0.9,0.6l-0.7,0.7c-0.2-0.2-0.4-0.3-0.6-0.4s-0.4-0.1-0.7-0.1c-0.4,0-0.7,0.2-1,0.5c-0.3,0.3-0.4,0.7-0.4,1.1
	c0,0.5,0.1,0.8,0.4,1.1S53.2,53.7,53.6,53.7z"/>
<path class="st0" d="M56.5,54.6v-7.1l1.1-0.2v4.5l2.1-2.1H61l-2.3,2.3l2.4,2.7h-1.4l-2.1-2.3v2.3H56.5z"/>
<path class="st0" d="M64,53.7c0.2,0,0.5,0,0.7-0.1c0.2-0.1,0.4-0.2,0.5-0.4l0.7,0.7c-0.2,0.3-0.5,0.5-0.9,0.6
	c-0.3,0.2-0.7,0.2-1.1,0.2c-0.4,0-0.7-0.1-1-0.2c-0.3-0.1-0.6-0.3-0.8-0.5c-0.2-0.2-0.4-0.5-0.5-0.8c-0.1-0.3-0.2-0.7-0.2-1
	s0.1-0.7,0.2-1c0.1-0.3,0.3-0.6,0.5-0.8c0.2-0.2,0.5-0.4,0.8-0.5c0.3-0.1,0.6-0.2,1-0.2c0.4,0,0.8,0.1,1.1,0.2
	c0.4,0.1,0.7,0.4,0.9,0.6l-0.7,0.7c-0.2-0.2-0.4-0.3-0.6-0.4c-0.2-0.1-0.4-0.1-0.7-0.1c-0.4,0-0.7,0.2-1,0.5
	c-0.3,0.3-0.4,0.7-0.4,1.1c0,0.5,0.1,0.8,0.4,1.1C63.2,53.6,63.6,53.7,64,53.7z"/>
<path class="st0" d="M66.9,54.6v-7.1l1.1-0.2v3.1c0.2-0.3,0.4-0.5,0.7-0.7c0.3-0.2,0.6-0.2,0.9-0.2c0.5,0,0.9,0.2,1.2,0.5
	c0.3,0.3,0.5,0.8,0.5,1.3v3.3h-1.1v-3c0-0.4-0.1-0.6-0.3-0.9c-0.2-0.2-0.5-0.3-0.8-0.3c-0.2,0-0.4,0.1-0.6,0.2
	c-0.2,0.1-0.3,0.2-0.5,0.4v3.6H66.9z"/>
<path class="st0" d="M74.3,54.7c-0.5,0-0.9-0.1-1.3-0.4c-0.3-0.3-0.5-0.7-0.5-1.1c0-0.4,0.2-0.8,0.5-1.1c0.3-0.3,0.8-0.4,1.4-0.4
	c0.2,0,0.5,0,0.7,0.1c0.2,0,0.4,0.1,0.7,0.2v-0.5c0-0.3-0.1-0.6-0.3-0.7c-0.2-0.2-0.5-0.3-0.9-0.3c-0.2,0-0.4,0-0.7,0.1
	c-0.2,0.1-0.5,0.2-0.8,0.3l-0.4-0.8c0.4-0.2,0.7-0.3,1.1-0.4c0.3-0.1,0.7-0.1,1-0.1c0.6,0,1.1,0.2,1.5,0.5c0.4,0.3,0.5,0.8,0.5,1.3
	v3.3h-1.1v-0.5c-0.2,0.2-0.5,0.4-0.7,0.4C74.8,54.7,74.6,54.7,74.3,54.7z M73.6,53.2c0,0.2,0.1,0.4,0.3,0.5c0.2,0.1,0.4,0.2,0.7,0.2
	c0.2,0,0.4,0,0.6-0.1c0.2-0.1,0.4-0.2,0.5-0.3v-0.8c-0.2-0.1-0.4-0.1-0.5-0.2c-0.2,0-0.4-0.1-0.6-0.1c-0.3,0-0.6,0.1-0.8,0.2
	C73.7,52.8,73.6,53,73.6,53.2z"/>
<path class="st0" d="M78.9,48.6c-0.2,0-0.4-0.1-0.5-0.2c-0.1-0.1-0.2-0.3-0.2-0.5c0-0.2,0.1-0.3,0.2-0.5c0.1-0.1,0.3-0.2,0.5-0.2
	c0.2,0,0.4,0.1,0.5,0.2c0.1,0.1,0.2,0.3,0.2,0.5c0,0.2-0.1,0.4-0.2,0.5C79.2,48.5,79.1,48.6,78.9,48.6z M79.4,49.6v5h-1.1v-5H79.4z"
	/>
<path class="st0" d="M80.9,54.6v-5H82v0.8c0.2-0.3,0.4-0.5,0.7-0.7c0.3-0.2,0.6-0.2,0.9-0.2c0.5,0,0.9,0.2,1.2,0.5
	c0.3,0.3,0.5,0.8,0.5,1.3v3.3h-1.1v-3c0-0.4-0.1-0.6-0.3-0.9c-0.2-0.2-0.5-0.3-0.8-0.3c-0.2,0-0.4,0.1-0.6,0.2
	c-0.2,0.1-0.3,0.2-0.5,0.4v3.6H80.9z"/>
<path class="st0" d="M36.3,67.6v-7h1.2v7H36.3z"/>
<path class="st0" d="M39.1,67.6v-5h1.1v0.8c0.2-0.3,0.4-0.5,0.7-0.7c0.3-0.2,0.6-0.2,0.9-0.2c0.5,0,0.9,0.2,1.2,0.5
	c0.3,0.3,0.5,0.8,0.5,1.3v3.3h-1.1v-3c0-0.4-0.1-0.6-0.3-0.9c-0.2-0.2-0.5-0.3-0.8-0.3c-0.2,0-0.4,0.1-0.6,0.2
	c-0.2,0.1-0.3,0.2-0.5,0.4v3.6H39.1z"/>
<path class="st0" d="M44.9,67.6v-5H46v0.8c0.2-0.3,0.4-0.5,0.7-0.7c0.3-0.2,0.6-0.2,0.9-0.2c0.5,0,0.9,0.2,1.2,0.5
	c0.3,0.3,0.5,0.8,0.5,1.3v3.3h-1.1v-3c0-0.4-0.1-0.6-0.3-0.9c-0.2-0.2-0.5-0.3-0.8-0.3c-0.2,0-0.4,0.1-0.6,0.2
	c-0.2,0.1-0.3,0.2-0.5,0.4v3.6H44.9z"/>
<path class="st0" d="M50.5,65.1c0-0.4,0.1-0.7,0.2-1c0.1-0.3,0.3-0.6,0.5-0.8c0.2-0.2,0.5-0.4,0.8-0.5c0.3-0.1,0.6-0.2,1-0.2
	c0.4,0,0.7,0.1,1,0.2c0.3,0.1,0.6,0.3,0.8,0.5c0.2,0.2,0.4,0.5,0.5,0.8c0.1,0.3,0.2,0.7,0.2,1s-0.1,0.7-0.2,1
	c-0.1,0.3-0.3,0.6-0.5,0.8c-0.2,0.2-0.5,0.4-0.8,0.5c-0.3,0.1-0.6,0.2-1,0.2c-0.4,0-0.7-0.1-1-0.2c-0.3-0.1-0.6-0.3-0.8-0.5
	c-0.2-0.2-0.4-0.5-0.5-0.8C50.6,65.8,50.5,65.5,50.5,65.1z M53.1,66.7c0.4,0,0.7-0.2,1-0.5c0.3-0.3,0.4-0.7,0.4-1.1
	c0-0.5-0.1-0.9-0.4-1.2c-0.3-0.3-0.6-0.5-1-0.5c-0.4,0-0.7,0.2-1,0.5c-0.3,0.3-0.4,0.7-0.4,1.2c0,0.5,0.1,0.9,0.4,1.2
	C52.3,66.6,52.7,66.7,53.1,66.7z"/>
<path class="st0" d="M58.1,67.6l-2-5h1.2l1.4,3.7l1.4-3.7h1.2l-2.1,5H58.1z"/>
<path class="st0" d="M63.6,67.7c-0.5,0-0.9-0.1-1.3-0.4c-0.3-0.3-0.5-0.7-0.5-1.1s0.2-0.8,0.5-1.1c0.3-0.3,0.8-0.4,1.4-0.4
	c0.2,0,0.5,0,0.7,0.1c0.2,0,0.4,0.1,0.7,0.2v-0.5c0-0.3-0.1-0.6-0.3-0.7c-0.2-0.2-0.5-0.3-0.9-0.3c-0.2,0-0.4,0-0.7,0.1
	c-0.2,0.1-0.5,0.2-0.8,0.3l-0.4-0.8c0.4-0.2,0.7-0.3,1.1-0.4c0.3-0.1,0.7-0.1,1-0.1c0.6,0,1.1,0.2,1.5,0.5c0.4,0.3,0.5,0.8,0.5,1.3
	v3.3h-1.1v-0.5c-0.2,0.2-0.5,0.4-0.7,0.4C64.2,67.7,63.9,67.7,63.6,67.7z M62.9,66.2c0,0.2,0.1,0.4,0.3,0.5c0.2,0.1,0.4,0.2,0.7,0.2
	c0.2,0,0.4,0,0.6-0.1c0.2-0.1,0.4-0.2,0.5-0.3v-0.8c-0.2-0.1-0.4-0.1-0.5-0.2c-0.2,0-0.4-0.1-0.6-0.1c-0.3,0-0.6,0.1-0.8,0.2
	C63,65.8,62.9,66,62.9,66.2z"/>
<path class="st0" d="M68.1,66.3v-2.8h-1v-0.9h1v-1.4l1.1-0.2v1.6h1.4v0.9h-1.4v2.5c0,0.2,0.1,0.4,0.2,0.5c0.1,0.1,0.3,0.1,0.5,0.1
	c0.1,0,0.2,0,0.3,0c0.1,0,0.2-0.1,0.4-0.1v0.9c-0.1,0-0.3,0.1-0.5,0.1c-0.2,0-0.3,0-0.5,0c-0.5,0-0.9-0.1-1.1-0.3
	C68.2,67.1,68.1,66.8,68.1,66.3z"/>
<path class="st0" d="M72.2,61.6c-0.2,0-0.4-0.1-0.5-0.2c-0.1-0.1-0.2-0.3-0.2-0.5c0-0.2,0.1-0.3,0.2-0.5c0.1-0.1,0.3-0.2,0.5-0.2
	c0.2,0,0.4,0.1,0.5,0.2c0.1,0.1,0.2,0.3,0.2,0.5c0,0.2-0.1,0.4-0.2,0.5C72.6,61.5,72.4,61.6,72.2,61.6z M72.8,62.6v5h-1.1v-5H72.8z"
	/>
<path class="st0" d="M74,65.1c0-0.4,0.1-0.7,0.2-1c0.1-0.3,0.3-0.6,0.5-0.8c0.2-0.2,0.5-0.4,0.8-0.5c0.3-0.1,0.6-0.2,1-0.2
	c0.4,0,0.7,0.1,1,0.2c0.3,0.1,0.6,0.3,0.8,0.5c0.2,0.2,0.4,0.5,0.5,0.8c0.1,0.3,0.2,0.7,0.2,1s-0.1,0.7-0.2,1
	c-0.1,0.3-0.3,0.6-0.5,0.8c-0.2,0.2-0.5,0.4-0.8,0.5c-0.3,0.1-0.6,0.2-1,0.2c-0.4,0-0.7-0.1-1-0.2c-0.3-0.1-0.6-0.3-0.8-0.5
	c-0.2-0.2-0.4-0.5-0.5-0.8C74.1,65.8,74,65.5,74,65.1z M76.5,66.7c0.4,0,0.7-0.2,1-0.5c0.3-0.3,0.4-0.7,0.4-1.1
	c0-0.5-0.1-0.9-0.4-1.2c-0.3-0.3-0.6-0.5-1-0.5c-0.4,0-0.7,0.2-1,0.5c-0.3,0.3-0.4,0.7-0.4,1.2c0,0.5,0.1,0.9,0.4,1.2
	C75.8,66.6,76.1,66.7,76.5,66.7z"/>
<path class="st0" d="M80.3,67.6v-5h1.1v0.8c0.2-0.3,0.4-0.5,0.7-0.7c0.3-0.2,0.6-0.2,0.9-0.2c0.5,0,0.9,0.2,1.2,0.5
	c0.3,0.3,0.5,0.8,0.5,1.3v3.3h-1.1v-3c0-0.4-0.1-0.6-0.3-0.9c-0.2-0.2-0.5-0.3-0.8-0.3c-0.2,0-0.4,0.1-0.6,0.2
	c-0.2,0.1-0.3,0.2-0.5,0.4v3.6H80.3z"/>
<path class="st0" d="M51.5,80.6v-7h1.2v2.9h3.5v-2.9h1.2v7h-1.2v-3h-3.5v3H51.5z"/>
<path class="st0" d="M60,75.6v3c0,0.4,0.1,0.6,0.3,0.9c0.2,0.2,0.5,0.3,0.8,0.3c0.2,0,0.4,0,0.6-0.1c0.2-0.1,0.3-0.3,0.5-0.5v-3.6
	h1.1v5h-1.1v-0.8c-0.2,0.3-0.4,0.5-0.7,0.7c-0.3,0.2-0.6,0.2-0.9,0.2c-0.5,0-0.9-0.2-1.2-0.5c-0.3-0.3-0.5-0.8-0.5-1.3v-3.3H60z"/>
<path class="st0" d="M69.7,78.1c0,0.4-0.1,0.7-0.2,1c-0.1,0.3-0.3,0.6-0.5,0.8c-0.2,0.2-0.5,0.4-0.7,0.5c-0.3,0.1-0.6,0.2-0.9,0.2
	c-0.3,0-0.6-0.1-0.8-0.2c-0.3-0.1-0.5-0.3-0.6-0.5v0.6h-1.1v-7.1l1.1-0.2v3c0.2-0.2,0.4-0.4,0.7-0.5c0.3-0.1,0.6-0.2,0.9-0.2
	c0.3,0,0.6,0.1,0.9,0.2c0.3,0.1,0.5,0.3,0.7,0.5c0.2,0.2,0.4,0.5,0.5,0.8C69.6,77.5,69.7,77.8,69.7,78.1z M67.1,76.5
	c-0.2,0-0.5,0-0.7,0.1c-0.2,0.1-0.4,0.2-0.5,0.4v2.1c0.1,0.2,0.3,0.3,0.5,0.4c0.2,0.1,0.4,0.1,0.7,0.1c0.4,0,0.8-0.1,1.1-0.4
	c0.3-0.3,0.4-0.7,0.4-1.1c0-0.5-0.1-0.8-0.4-1.1C67.9,76.7,67.5,76.5,67.1,76.5z"/>
</svg>
