<svg id="Logo" xmlns="http://www.w3.org/2000/svg" viewBox="0 0 1000 369.02"><defs><style>.cls-1{fill:#0000b0;}.cls-2{fill:#fff;}</style></defs><rect class="cls-1" width="1000" height="369.02"/><g id="Logo-2" data-name="Logo"><polygon class="cls-2" points="444.07 87.95 276.77 184.51 444.07 281.07 444.07 255.74 320.75 184.51 444.07 113.29 444.07 87.95"/><rect class="cls-2" x="255.26" y="87.95" width="21.99" height="193.12"/><polygon class="cls-2" points="87.95 87.95 87.95 113.29 211.28 184.51 87.95 255.74 87.95 281.07 255.26 184.51 87.95 87.95"/><polygon class="cls-2" points="864.25 149.62 864.25 237.57 885.75 237.57 885.75 169.69 912.05 169.69 912.05 149.62 864.25 149.62"/><polygon class="cls-2" points="614.25 149.62 566.44 149.62 566.44 237.57 587.95 237.57 587.95 169.69 614.25 169.69 614.25 149.62"/><path class="cls-2" d="M768.35,226.2A38.17,38.17,0,0,1,738.48,240c-13.26,0-24.34-6.37-30.38-13.76-6.55-8.22-9.57-19.13-9.57-31.89s3-23.66,9.57-31.89c6-7.38,17.12-13.76,30.38-13.76a38.17,38.17,0,0,1,29.87,13.76,34.19,34.19,0,0,1,6.71,19H754.41a17,17,0,0,0-2.51-8.06c-2.52-3.86-7.06-6.54-13.42-6.54a17.07,17.07,0,0,0-12.77,5.37c-5,5.53-5.86,13.93-5.86,22.15s.83,16.45,5.86,22a17.16,17.16,0,0,0,12.77,5.53c6.36,0,10.9-2.68,13.42-6.54a17,17,0,0,0,2.51-8h20.65A34.13,34.13,0,0,1,768.35,226.2Z"/><polygon class="cls-2" points="539.67 129.54 491.87 129.54 491.87 149.62 518.16 149.62 518.16 237.57 539.67 237.57 539.67 149.62 566.44 149.62 566.44 129.54 539.67 129.54"/><path class="cls-2" d="M689.47,222.27s0,0,0-.06V183.65c0-5.88-.34-12.1-2.53-17.65-5-13.11-17.81-17.82-32.77-17.82-19.5,0-35.14,8.74-36.31,28.41h20.34c.51-8.07,6.21-12.43,16-12.43,11.94,0,14.79,5.54,14.79,13.78v5.38l-25.72,1.85c-16.65,1.17-29.59,10.75-29.59,27.4,0,14.28,10.76,27.39,31.61,27.39,12.24,0,23.11-7,27.31-13.9v11.5h24.86V222.27ZM669,203c0,12.94-9.24,20-22.35,20-6.56,0-12.45-4.21-12.45-10.93,0-7.06,6.23-10.93,12.61-11.43L669,199Z"/><path class="cls-2" d="M858,200.84H799.85c-.18,6.68,2.16,13,6.34,17a18.31,18.31,0,0,0,12.88,5.35c6,0,9.7-1.17,12.71-4.18A15.74,15.74,0,0,0,836,211.7H856c-.51,5.19-4,12.05-7.35,16.06-7.37,8.69-18.24,12.2-29.28,12.2-11.87,0-20.56-4.18-27.42-10.7-8.69-8.36-13.37-20.57-13.37-34.78,0-13.88,4.18-26.25,12.54-34.78,6.52-6.69,15.89-11,27.76-11,12.87,0,24.58,5.19,31.77,16.05,6.36,9.54,7.85,19.4,7.53,30.27C858.21,195,858,199,858,200.84ZM832,170.4c-2.84-3-7.2-5-13.22-5-6.34,0-11.53,2.68-14.54,6.69-3,3.85-4.34,7.86-4.52,13.55h37.64C837.13,179.1,835.29,174.08,832,170.4Z"/></g></svg>