<svg width="250" height="59" viewBox="0 0 250 59" fill="none" xmlns="http://www.w3.org/2000/svg">
<path d="M108.04 0L57.2808 29.2782L108.04 58.5868V50.8804L70.6001 29.2782L108.04 7.67605V0Z" fill="black"/>
<path d="M57.4321 0H50.7573V58.5868H57.4321V0Z" fill="black"/>
<path d="M0 0V7.67605L37.4094 29.2782L0 50.8804V58.5868L50.759 29.2782L0 0Z" fill="black"/>
<path d="M235.494 18.6894V45.3887H242.048V24.7878H249.997V18.6894H235.494Z" fill="black"/>
<path d="M159.644 18.6894H145.142V45.3887H151.695V24.7878H159.644V18.6894Z" fill="black"/>
<path d="M206.399 41.9294C204.578 44.2352 201.362 46.1163 197.327 46.1163C193.292 46.1163 189.954 44.1746 188.104 41.9294C186.131 39.4415 185.191 36.1344 185.191 32.2509C185.191 28.3674 186.101 25.0603 188.104 22.5724C189.924 20.3272 193.292 18.3855 197.327 18.3855C201.362 18.3855 204.548 20.2666 206.399 22.5724C207.612 24.1501 208.34 26.2436 208.431 28.337H202.181C202.121 27.3661 201.817 26.547 201.423 25.8795C200.664 24.6962 199.269 23.9074 197.357 23.9074C195.628 23.9074 194.354 24.6355 193.474 25.5457C191.957 27.2144 191.684 29.763 191.684 32.2812C191.684 34.7691 191.926 37.257 193.474 38.9561C194.354 39.8663 195.628 40.6248 197.357 40.6248C199.299 40.6248 200.664 39.8056 201.423 38.6527C201.817 37.9852 202.151 37.166 202.181 36.2255H208.431C208.34 38.2582 207.643 40.3517 206.399 41.9294Z" fill="black"/>
<path d="M137.042 12.5907H122.539V18.6891H130.519V45.3884H137.042V18.6891H145.142V12.5907H137.042Z" fill="black"/>
<path d="M182.49 40.7468C182.49 40.7165 182.49 40.7165 182.49 40.7468V29.0355C182.49 27.2455 182.399 25.3644 181.732 23.6957C180.215 19.7211 176.331 18.2951 171.78 18.2951C165.864 18.2951 161.131 20.9347 160.767 26.9117H166.926C167.078 24.4542 168.807 23.1496 171.78 23.1496C175.391 23.1496 176.271 24.8183 176.271 27.3365V28.9749L168.473 29.521C163.407 29.8851 159.493 32.7977 159.493 37.8342C159.493 42.1728 162.769 46.1474 169.08 46.1474C172.782 46.1474 176.089 44.0236 177.363 41.9301V45.4192H184.918V40.7772H182.49V40.7468ZM176.24 34.8912C176.24 38.8051 173.449 40.9592 169.444 40.9592C167.442 40.9592 165.682 39.6849 165.682 37.6521C165.682 35.498 167.563 34.3451 169.505 34.1934L176.24 33.6776V34.8912Z" fill="black"/>
<path d="M233.614 34.2232H215.956C215.895 36.256 216.623 38.1674 217.867 39.4113C218.777 40.2609 220.052 41.0497 221.781 41.0497C223.601 41.0497 224.724 40.6856 225.634 39.7754C226.18 39.2293 226.635 38.5011 226.908 37.5303H233.007C232.855 39.1079 231.793 41.1711 230.762 42.415C228.516 45.0546 225.24 46.1165 221.872 46.1165C218.261 46.1165 215.622 44.8422 213.559 42.8701C210.919 40.3216 209.493 36.6201 209.493 32.3118C209.493 28.0945 210.767 24.3323 213.286 21.7534C215.258 19.7206 218.11 18.416 221.72 18.416C225.634 18.416 229.184 19.9937 231.368 23.3007C233.31 26.1831 233.765 29.1867 233.644 32.4938C233.674 32.4635 233.614 33.6771 233.614 34.2232ZM225.725 24.9998C224.876 24.0896 223.541 23.4828 221.72 23.4828C219.809 23.4828 218.231 24.302 217.321 25.5156C216.411 26.6685 216.016 27.9124 215.956 29.6115H227.364C227.272 27.6394 226.726 26.1224 225.725 24.9998Z" fill="black"/>
</svg>
