<svg width="227" height="51" viewBox="0 0 227 51" fill="none" xmlns="http://www.w3.org/2000/svg">
<path d="M0 50.2304V44.4033H1.55925C2.45024 44.4033 3.14522 44.6439 3.64418 45.125C4.14314 45.6062 4.39262 46.3279 4.39262 47.2901C4.39262 47.7713 4.32728 48.196 4.1966 48.5643C4.07186 48.9325 3.88772 49.2414 3.64418 49.4909C3.40658 49.7344 3.11552 49.9186 2.771 50.0433C2.43242 50.1681 2.04632 50.2304 1.61271 50.2304H0ZM1.03356 49.3929H1.48797C2.08196 49.3929 2.53637 49.2236 2.85119 48.885C3.17195 48.5405 3.33233 48.0089 3.33233 47.2901C3.33233 46.5773 3.17195 46.0576 2.85119 45.7309C2.53043 45.4042 2.07602 45.2408 1.48797 45.2408H1.03356V49.3929Z" fill="white"/>
<path d="M8.19718 50.2304V44.4033H9.23073V50.2304H8.19718Z" fill="white"/>
<path d="M15.7816 50.3373C15.3895 50.3373 15.0242 50.272 14.6857 50.1413C14.353 50.0106 14.062 49.8176 13.8125 49.5622C13.5689 49.3068 13.3789 48.9919 13.2422 48.6177C13.1056 48.2435 13.0373 47.8158 13.0373 47.3347C13.0373 46.8595 13.1086 46.4348 13.2512 46.0606C13.3937 45.6804 13.5868 45.3596 13.8303 45.0983C14.0798 44.8369 14.3708 44.6379 14.7035 44.5013C15.0421 44.3647 15.4044 44.2964 15.7905 44.2964C16.2063 44.2964 16.5568 44.3736 16.8419 44.528C17.1329 44.6765 17.3705 44.8458 17.5547 45.0359L17.0022 45.7042C16.8538 45.5616 16.6874 45.4428 16.5033 45.3478C16.3251 45.2468 16.0994 45.1963 15.8261 45.1963C15.5648 45.1963 15.3272 45.2468 15.1133 45.3478C14.9054 45.4428 14.7243 45.5824 14.5698 45.7665C14.4213 45.9447 14.3055 46.1645 14.2223 46.4259C14.1392 46.6872 14.0976 46.9813 14.0976 47.308C14.0976 47.9732 14.2461 48.496 14.5431 48.8761C14.846 49.2503 15.2915 49.4374 15.8796 49.4374C16.0459 49.4374 16.2033 49.4167 16.3518 49.3751C16.5003 49.3276 16.6221 49.2622 16.7171 49.1791V47.9227H15.6123V47.0763H17.6438V49.6424C17.4477 49.8384 17.1864 50.0047 16.8597 50.1413C16.5389 50.272 16.1796 50.3373 15.7816 50.3373Z" fill="white"/>
<path d="M21.5635 50.2304V44.4033H22.5971V50.2304H21.5635Z" fill="white"/>
<path d="M27.8827 50.2304V45.2765H26.1987V44.4033H30.6003V45.2765H28.9163V50.2304H27.8827Z" fill="white"/>
<path d="M35.0362 47.1298L34.8312 47.8426H36.3192L36.1143 47.1298C36.0192 46.8209 35.9272 46.5031 35.8381 46.1764C35.7549 45.8497 35.6718 45.526 35.5886 45.2052H35.553C35.4698 45.5319 35.3866 45.8586 35.3035 46.1853C35.2203 46.5061 35.1312 46.8209 35.0362 47.1298ZM33.0849 50.2304L34.9827 44.4033H36.1945L38.0923 50.2304H37.0053L36.5509 48.6534H34.5907L34.1363 50.2304H33.0849Z" fill="white"/>
<path d="M41.439 50.2304V44.4033H42.4726V49.3573H44.8961V50.2304H41.439Z" fill="white"/>
<path d="M54.146 47.1298L53.941 47.8426H55.429L55.2241 47.1298C55.129 46.8209 55.037 46.5031 54.9479 46.1764C54.8647 45.8497 54.7816 45.526 54.6984 45.2052H54.6628C54.5796 45.5319 54.4964 45.8586 54.4133 46.1853C54.3301 46.5061 54.241 46.8209 54.146 47.1298ZM52.1947 50.2304L54.0925 44.4033H55.3043L57.2021 50.2304H56.1151L55.6607 48.6534H53.7005L53.2461 50.2304H52.1947Z" fill="white"/>
<path d="M62.2506 50.3373C61.8586 50.3373 61.4785 50.2631 61.1102 50.1146C60.7478 49.9661 60.4271 49.7552 60.1479 49.482L60.7538 48.7781C60.9617 48.9741 61.1993 49.1345 61.4666 49.2592C61.7339 49.378 62.0012 49.4374 62.2685 49.4374C62.6011 49.4374 62.8536 49.3691 63.0258 49.2325C63.1981 49.0959 63.2842 48.9147 63.2842 48.689C63.2842 48.5702 63.2604 48.4692 63.2129 48.3861C63.1713 48.3029 63.109 48.2316 63.0258 48.1722C62.9486 48.1069 62.8536 48.0475 62.7407 47.994C62.6338 47.9406 62.515 47.8871 62.3843 47.8336L61.5824 47.4862C61.4398 47.4268 61.2973 47.3525 61.1547 47.2634C61.0181 47.1743 60.8934 47.0674 60.7805 46.9426C60.6676 46.8179 60.5756 46.6724 60.5043 46.5061C60.439 46.3397 60.4063 46.1497 60.4063 45.9358C60.4063 45.7042 60.4538 45.4903 60.5488 45.2943C60.6498 45.0923 60.7864 44.9171 60.9587 44.7686C61.131 44.6201 61.3359 44.5043 61.5735 44.4211C61.817 44.338 62.0814 44.2964 62.3665 44.2964C62.7051 44.2964 63.0318 44.3647 63.3466 44.5013C63.6614 44.632 63.9317 44.8102 64.1574 45.0359L63.6317 45.6953C63.4416 45.5408 63.2456 45.419 63.0436 45.3299C62.8417 45.2408 62.616 45.1963 62.3665 45.1963C62.0873 45.1963 61.8646 45.2587 61.6982 45.3834C61.5319 45.5022 61.4487 45.6685 61.4487 45.8824C61.4487 45.9952 61.4725 46.0932 61.52 46.1764C61.5735 46.2536 61.6418 46.3249 61.725 46.3902C61.8141 46.4496 61.915 46.5061 62.0279 46.5595C62.1408 46.607 62.2566 46.6546 62.3754 46.7021L63.1684 47.0317C63.3406 47.103 63.498 47.1862 63.6406 47.2812C63.7832 47.3763 63.9049 47.4862 64.0059 47.6109C64.1128 47.7356 64.196 47.8812 64.2554 48.0475C64.3148 48.2079 64.3445 48.395 64.3445 48.6088C64.3445 48.8464 64.297 49.0692 64.2019 49.2771C64.1069 49.485 63.9673 49.6691 63.7832 49.8295C63.605 49.9839 63.3852 50.1087 63.1238 50.2037C62.8684 50.2928 62.5773 50.3373 62.2506 50.3373Z" fill="white"/>
<path d="M69.5951 50.3373C69.2031 50.3373 68.8229 50.2631 68.4546 50.1146C68.0923 49.9661 67.7715 49.7552 67.4924 49.482L68.0982 48.7781C68.3061 48.9741 68.5437 49.1345 68.811 49.2592C69.0783 49.378 69.3456 49.4374 69.6129 49.4374C69.9456 49.4374 70.198 49.3691 70.3703 49.2325C70.5425 49.0959 70.6287 48.9147 70.6287 48.689C70.6287 48.5702 70.6049 48.4692 70.5574 48.3861C70.5158 48.3029 70.4534 48.2316 70.3703 48.1722C70.2931 48.1069 70.198 48.0475 70.0852 47.994C69.9782 47.9406 69.8594 47.8871 69.7288 47.8336L68.9269 47.4862C68.7843 47.4268 68.6417 47.3525 68.4992 47.2634C68.3626 47.1743 68.2378 47.0674 68.125 46.9426C68.0121 46.8179 67.92 46.6724 67.8488 46.5061C67.7834 46.3397 67.7507 46.1497 67.7507 45.9358C67.7507 45.7042 67.7983 45.4903 67.8933 45.2943C67.9943 45.0923 68.1309 44.9171 68.3032 44.7686C68.4754 44.6201 68.6804 44.5043 68.918 44.4211C69.1615 44.338 69.4258 44.2964 69.7109 44.2964C70.0495 44.2964 70.3762 44.3647 70.691 44.5013C71.0059 44.632 71.2761 44.8102 71.5018 45.0359L70.9762 45.6953C70.7861 45.5408 70.5901 45.419 70.3881 45.3299C70.1861 45.2408 69.9604 45.1963 69.7109 45.1963C69.4318 45.1963 69.209 45.2587 69.0427 45.3834C68.8764 45.5022 68.7932 45.6685 68.7932 45.8824C68.7932 45.9952 68.817 46.0932 68.8645 46.1764C68.918 46.2536 68.9863 46.3249 69.0694 46.3902C69.1585 46.4496 69.2595 46.5061 69.3724 46.5595C69.4852 46.607 69.601 46.6546 69.7198 46.7021L70.5128 47.0317C70.6851 47.103 70.8425 47.1862 70.9851 47.2812C71.1276 47.3763 71.2494 47.4862 71.3504 47.6109C71.4573 47.7356 71.5405 47.8812 71.5999 48.0475C71.6592 48.2079 71.6889 48.395 71.6889 48.6088C71.6889 48.8464 71.6414 49.0692 71.5464 49.2771C71.4514 49.485 71.3118 49.6691 71.1276 49.8295C70.9494 49.9839 70.7296 50.1087 70.4683 50.2037C70.2129 50.2928 69.9218 50.3373 69.5951 50.3373Z" fill="white"/>
<path d="M75.377 50.2304V44.4033H78.8875V45.2765H76.4105V46.7644H78.5044V47.6376H76.4105V49.3573H78.9766V50.2304H75.377Z" fill="white"/>
<path d="M83.9759 50.2304V45.2765H82.2919V44.4033H86.6934V45.2765H85.0094V50.2304H83.9759Z" fill="white"/>
<path d="M97.0298 50.3373C96.6616 50.3373 96.317 50.272 95.9963 50.1413C95.6755 50.0106 95.3963 49.8176 95.1587 49.5622C94.9271 49.3068 94.7429 48.9919 94.6063 48.6177C94.4697 48.2435 94.4014 47.8158 94.4014 47.3347C94.4014 46.8595 94.4697 46.4348 94.6063 46.0606C94.7489 45.6804 94.939 45.3596 95.1766 45.0983C95.4201 44.8369 95.7022 44.6379 96.023 44.5013C96.3497 44.3647 96.6972 44.2964 97.0655 44.2964C97.4337 44.2964 97.7604 44.3706 98.0456 44.5191C98.3307 44.6676 98.5653 44.8399 98.7495 45.0359L98.197 45.7042C98.0426 45.5497 97.8763 45.428 97.6981 45.3389C97.5199 45.2438 97.3179 45.1963 97.0922 45.1963C96.8546 45.1963 96.6348 45.2468 96.4329 45.3478C96.2368 45.4428 96.0646 45.5824 95.9161 45.7665C95.7735 45.9447 95.6607 46.1645 95.5775 46.4259C95.5003 46.6872 95.4617 46.9813 95.4617 47.308C95.4617 47.9732 95.6042 48.496 95.8894 48.8761C96.1804 49.2503 96.5724 49.4374 97.0655 49.4374C97.3268 49.4374 97.5585 49.384 97.7604 49.2771C97.9624 49.1642 98.1465 49.0187 98.3129 48.8405L98.8653 49.4909C98.6277 49.7641 98.3544 49.975 98.0456 50.1235C97.7426 50.2661 97.404 50.3373 97.0298 50.3373Z" fill="white"/>
<path d="M103.66 47.1298L103.455 47.8426H104.943L104.738 47.1298C104.643 46.8209 104.551 46.5031 104.462 46.1764C104.379 45.8497 104.296 45.526 104.213 45.2052H104.177C104.094 45.5319 104.011 45.8586 103.928 46.1853C103.845 46.5061 103.755 46.8209 103.66 47.1298ZM101.709 50.2304L103.607 44.4033H104.819L106.716 50.2304H105.629L105.175 48.6534H103.215L102.76 50.2304H101.709Z" fill="white"/>
<path d="M110.063 50.2304V44.4033H111.899C112.219 44.4033 112.516 44.433 112.79 44.4924C113.069 44.5518 113.309 44.6528 113.511 44.7953C113.713 44.9379 113.871 45.125 113.984 45.3567C114.096 45.5824 114.153 45.8645 114.153 46.2031C114.153 46.5239 114.096 46.8031 113.984 47.0407C113.871 47.2783 113.713 47.4772 113.511 47.6376C113.315 47.7921 113.081 47.9079 112.808 47.9851C112.54 48.0564 112.249 48.092 111.934 48.092H111.097V50.2304H110.063ZM111.097 47.2634H111.854C112.709 47.2634 113.137 46.91 113.137 46.2031C113.137 45.8348 113.024 45.5824 112.799 45.4458C112.579 45.3032 112.252 45.2319 111.819 45.2319H111.097V47.2634Z" fill="white"/>
<path d="M117.878 50.2304V44.4033H118.911V50.2304H117.878Z" fill="white"/>
<path d="M124.197 50.2304V45.2765H122.513V44.4033H126.914V45.2765H125.23V50.2304H124.197Z" fill="white"/>
<path d="M131.35 47.1298L131.145 47.8426H132.633L132.428 47.1298C132.333 46.8209 132.241 46.5031 132.152 46.1764C132.069 45.8497 131.986 45.526 131.903 45.2052H131.867C131.784 45.5319 131.701 45.8586 131.618 46.1853C131.534 46.5061 131.445 46.8209 131.35 47.1298ZM129.399 50.2304L131.297 44.4033H132.509L134.406 50.2304H133.319L132.865 48.6534H130.905L130.45 50.2304H129.399Z" fill="white"/>
<path d="M137.753 50.2304V44.4033H138.787V49.3573H141.21V50.2304H137.753Z" fill="white"/>
<path d="M149.266 50.2304V44.4033H150.433L151.467 47.2545C151.532 47.4386 151.595 47.6287 151.654 47.8247C151.713 48.0148 151.776 48.2049 151.841 48.395H151.877C151.942 48.2049 152.001 48.0148 152.055 47.8247C152.114 47.6287 152.177 47.4386 152.242 47.2545L153.249 44.4033H154.425V50.2304H153.472V47.5663C153.472 47.4297 153.475 47.2812 153.48 47.1208C153.492 46.9605 153.504 46.8001 153.516 46.6397C153.528 46.4734 153.543 46.313 153.561 46.1586C153.578 45.9982 153.593 45.8497 153.605 45.7131H153.57L153.097 47.0674L152.144 49.6869H151.529L150.567 47.0674L150.104 45.7131H150.068C150.08 45.8497 150.092 45.9982 150.104 46.1586C150.121 46.313 150.136 46.4734 150.148 46.6397C150.166 46.8001 150.178 46.9605 150.184 47.1208C150.196 47.2812 150.202 47.4297 150.202 47.5663V50.2304H149.266Z" fill="white"/>
<path d="M159.727 47.1298L159.523 47.8426H161.01L160.806 47.1298C160.711 46.8209 160.618 46.5031 160.529 46.1764C160.446 45.8497 160.363 45.526 160.28 45.2052H160.244C160.161 45.5319 160.078 45.8586 159.995 46.1853C159.912 46.5061 159.822 46.8209 159.727 47.1298ZM157.776 50.2304L159.674 44.4033H160.886L162.784 50.2304H161.697L161.242 48.6534H159.282L158.828 50.2304H157.776Z" fill="white"/>
<path d="M166.13 50.2304V44.4033H167.191L169.008 47.6822L169.605 48.9207H169.641C169.617 48.6177 169.587 48.294 169.552 47.9495C169.522 47.599 169.507 47.2604 169.507 46.9337V44.4033H170.496V50.2304H169.436L167.618 46.9516L167.021 45.7131H166.986C167.009 46.022 167.036 46.3457 167.066 46.6843C167.101 47.0228 167.119 47.3555 167.119 47.6822V50.2304H166.13Z" fill="white"/>
<path d="M175.8 47.1298L175.595 47.8426H177.083L176.878 47.1298C176.783 46.8209 176.691 46.5031 176.602 46.1764C176.519 45.8497 176.435 45.526 176.352 45.2052H176.317C176.233 45.5319 176.15 45.8586 176.067 46.1853C175.984 46.5061 175.895 46.8209 175.8 47.1298ZM173.849 50.2304L175.746 44.4033H176.958L178.856 50.2304H177.769L177.315 48.6534H175.354L174.9 50.2304H173.849Z" fill="white"/>
<path d="M184.557 50.3373C184.165 50.3373 183.8 50.272 183.461 50.1413C183.128 50.0106 182.837 49.8176 182.588 49.5622C182.344 49.3068 182.154 48.9919 182.018 48.6177C181.881 48.2435 181.813 47.8158 181.813 47.3347C181.813 46.8595 181.884 46.4348 182.027 46.0606C182.169 45.6804 182.362 45.3596 182.606 45.0983C182.855 44.8369 183.146 44.6379 183.479 44.5013C183.817 44.3647 184.18 44.2964 184.566 44.2964C184.982 44.2964 185.332 44.3736 185.617 44.528C185.908 44.6765 186.146 44.8458 186.33 45.0359L185.778 45.7042C185.629 45.5616 185.463 45.4428 185.279 45.3478C185.101 45.2468 184.875 45.1963 184.602 45.1963C184.34 45.1963 184.103 45.2468 183.889 45.3478C183.681 45.4428 183.5 45.5824 183.345 45.7665C183.197 45.9447 183.081 46.1645 182.998 46.4259C182.915 46.6872 182.873 46.9813 182.873 47.308C182.873 47.9732 183.022 48.496 183.319 48.8761C183.621 49.2503 184.067 49.4374 184.655 49.4374C184.821 49.4374 184.979 49.4167 185.127 49.3751C185.276 49.3276 185.398 49.2622 185.493 49.1791V47.9227H184.388V47.0763H186.419V49.6424C186.223 49.8384 185.962 50.0047 185.635 50.1413C185.314 50.272 184.955 50.3373 184.557 50.3373Z" fill="white"/>
<path d="M190.339 50.2304V44.4033H193.85V45.2765H191.373V46.7644H193.466V47.6376H191.373V49.3573H193.939V50.2304H190.339Z" fill="white"/>
<path d="M197.762 50.2304V44.4033H198.929L199.963 47.2545C200.028 47.4386 200.09 47.6287 200.15 47.8247C200.209 48.0148 200.271 48.2049 200.337 48.395H200.372C200.438 48.2049 200.497 48.0148 200.551 47.8247C200.61 47.6287 200.672 47.4386 200.738 47.2545L201.745 44.4033H202.921V50.2304H201.967V47.5663C201.967 47.4297 201.97 47.2812 201.976 47.1208C201.988 46.9605 202 46.8001 202.012 46.6397C202.024 46.4734 202.039 46.313 202.056 46.1586C202.074 45.9982 202.089 45.8497 202.101 45.7131H202.065L201.593 47.0674L200.64 49.6869H200.025L199.063 47.0674L198.599 45.7131H198.564C198.576 45.8497 198.587 45.9982 198.599 46.1586C198.617 46.313 198.632 46.4734 198.644 46.6397C198.662 46.8001 198.674 46.9605 198.679 47.1208C198.691 47.2812 198.697 47.4297 198.697 47.5663V50.2304H197.762Z" fill="white"/>
<path d="M207.029 50.2304V44.4033H210.54V45.2765H208.063V46.7644H210.157V47.6376H208.063V49.3573H210.629V50.2304H207.029Z" fill="white"/>
<path d="M214.452 50.2304V44.4033H215.512L217.33 47.6822L217.927 48.9207H217.962C217.939 48.6177 217.909 48.294 217.873 47.9495C217.844 47.599 217.829 47.2604 217.829 46.9337V44.4033H218.818V50.2304H217.758L215.94 46.9516L215.343 45.7131H215.307C215.331 46.022 215.358 46.3457 215.387 46.6843C215.423 47.0228 215.441 47.3555 215.441 47.6822V50.2304H214.452Z" fill="white"/>
<path d="M224.104 50.2304V45.2765H222.42V44.4033H226.821V45.2765H225.137V50.2304H224.104Z" fill="white"/>
<path fill-rule="evenodd" clip-rule="evenodd" d="M152.545 0.339844L167.562 14.9262L182.579 0.339844V32.0164H175.579V16.8977L167.562 24.6848L159.545 16.8977V32.0164H152.545V0.339844Z" fill="white"/>
<path fill-rule="evenodd" clip-rule="evenodd" d="M47.5371 4.42773H60.2987C67.68 4.42773 73.6637 10.4114 73.6637 17.7927V18.5619C73.6637 25.9431 67.68 31.9268 60.2987 31.9268H47.5371V4.42773ZM54.6651 11.5557V24.7989H60.2987C63.7433 24.7989 66.5357 22.0065 66.5357 18.5619V17.7927C66.5357 14.3481 63.7433 11.5557 60.2987 11.5557H54.6651Z" fill="white"/>
<path fill-rule="evenodd" clip-rule="evenodd" d="M142.443 2.46529C139.958 0.90338 137.018 0 133.867 0C124.956 0 117.732 7.22362 117.732 16.1344C117.732 25.0452 124.956 32.2688 133.867 32.2688C137.018 32.2688 139.958 31.3654 142.443 29.8035V21.079C140.732 24.0396 137.532 26.0318 133.867 26.0318C128.401 26.0318 123.969 21.6006 123.969 16.1344C123.969 10.6682 128.401 6.23698 133.867 6.23698C137.532 6.23698 140.732 8.2292 142.443 11.1898V2.46529Z" fill="white"/>
<path fill-rule="evenodd" clip-rule="evenodd" d="M111.163 32.0164L96.0233 0.252441L81.9922 32.0164H89.7721L96.27 17.3063L103.281 32.0164H111.163Z" fill="white"/>
</svg>
