<svg width="223" height="39" viewBox="0 0 223 39" fill="none" xmlns="http://www.w3.org/2000/svg">
<path fill-rule="evenodd" clip-rule="evenodd" d="M19.2475 18.867C24.1466 18.867 28.118 14.8956 28.118 9.99653C28.118 5.09749 24.1466 1.12602 19.2475 1.12602C14.3485 1.12602 10.377 5.09749 10.377 9.99653C10.377 14.8956 14.3485 18.867 19.2475 18.867ZM19.2475 19.5819C24.5414 19.5819 28.8329 15.2904 28.8329 9.99653C28.8329 4.70266 24.5414 0.411133 19.2475 0.411133C13.9536 0.411133 9.66211 4.70266 9.66211 9.99653C9.66211 15.2904 13.9536 19.5819 19.2475 19.5819Z" fill="white"/>
<path fill-rule="evenodd" clip-rule="evenodd" d="M19.2475 28.1185C24.1466 28.1185 28.118 24.147 28.118 19.248C28.118 14.349 24.1466 10.3775 19.2475 10.3775C14.3485 10.3775 10.377 14.349 10.377 19.248C10.377 24.147 14.3485 28.1185 19.2475 28.1185ZM19.2475 28.8334C24.5414 28.8334 28.8329 24.5419 28.8329 19.248C28.8329 13.9541 24.5414 9.6626 19.2475 9.6626C13.9536 9.6626 9.66211 13.9541 9.66211 19.248C9.66211 24.5419 13.9536 28.8334 19.2475 28.8334Z" fill="white"/>
<path fill-rule="evenodd" clip-rule="evenodd" d="M19.2478 37.7808C29.4833 37.7808 37.7808 29.4833 37.7808 19.2478C37.7808 9.01237 29.4833 0.714892 19.2478 0.714892C9.01237 0.714892 0.714892 9.01237 0.714892 19.2478C0.714892 29.4833 9.01237 37.7808 19.2478 37.7808ZM19.2478 38.4957C29.8781 38.4957 38.4957 29.8781 38.4957 19.2478C38.4957 8.61755 29.8781 0 19.2478 0C8.61755 0 0 8.61755 0 19.2478C0 29.8781 8.61755 38.4957 19.2478 38.4957Z" fill="white"/>
<path fill-rule="evenodd" clip-rule="evenodd" d="M19.2475 37.3695C24.1466 37.3695 28.118 33.398 28.118 28.499C28.118 23.5999 24.1466 19.6285 19.2475 19.6285C14.3485 19.6285 10.377 23.5999 10.377 28.499C10.377 33.398 14.3485 37.3695 19.2475 37.3695ZM19.2475 38.0844C24.5414 38.0844 28.8329 33.7928 28.8329 28.499C28.8329 23.2051 24.5414 18.9136 19.2475 18.9136C13.9536 18.9136 9.66211 23.2051 9.66211 28.499C9.66211 33.7928 13.9536 38.0844 19.2475 38.0844Z" fill="white"/>
<path d="M50.8018 14.6834H53.2334C53.8659 14.6834 54.4083 14.7421 54.8607 14.8594C55.3131 14.9767 55.7236 15.1966 56.0922 15.5191C57.0515 16.3401 57.5311 17.5884 57.5311 19.2639C57.5311 19.8168 57.4829 20.3216 57.3866 20.7782C57.2902 21.2348 57.1415 21.6474 56.9405 22.016C56.7394 22.3804 56.4818 22.7071 56.1676 22.9962C55.9205 23.2182 55.6503 23.3962 55.3571 23.5302C55.0639 23.6643 54.7476 23.7585 54.4083 23.813C54.0732 23.8674 53.6941 23.8947 53.2711 23.8947H50.8395C50.5002 23.8947 50.2446 23.8444 50.0729 23.7439C49.9012 23.6391 49.7881 23.4946 49.7336 23.3103C49.6833 23.1218 49.6582 22.8789 49.6582 22.5815V15.827C49.6582 15.4249 49.7483 15.1337 49.9284 14.9536C50.1085 14.7735 50.3996 14.6834 50.8018 14.6834ZM51.5243 16.16V22.4118H52.938C53.248 22.4118 53.491 22.4034 53.6669 22.3867C53.8428 22.3699 54.025 22.328 54.2135 22.261C54.402 22.194 54.5654 22.0998 54.7036 21.9783C55.3278 21.4505 55.6398 20.5415 55.6398 19.2514C55.6398 18.3424 55.5016 17.6617 55.2251 17.2093C54.9529 16.7569 54.6157 16.47 54.2135 16.3485C53.8114 16.2228 53.3255 16.16 52.7558 16.16H51.5243Z" fill="white"/>
<path d="M60.9836 22.9145V15.6573C60.9836 15.2804 61.0695 14.9976 61.2412 14.8091C61.413 14.6206 61.635 14.5264 61.9072 14.5264C62.1879 14.5264 62.4141 14.6206 62.5858 14.8091C62.7618 14.9934 62.8497 15.2762 62.8497 15.6573V22.9145C62.8497 23.2957 62.7618 23.5805 62.5858 23.769C62.4141 23.9575 62.1879 24.0517 61.9072 24.0517C61.6391 24.0517 61.4171 23.9575 61.2412 23.769C61.0695 23.5763 60.9836 23.2915 60.9836 22.9145Z" fill="white"/>
<path d="M73.6787 21.13C73.6787 21.6872 73.5342 22.1877 73.2452 22.6317C72.9604 23.0757 72.5415 23.4234 71.9885 23.6747C71.4356 23.9261 70.7801 24.0517 70.0219 24.0517C69.1129 24.0517 68.3631 23.88 67.7725 23.5365C67.3536 23.2894 67.0122 22.9606 66.7483 22.55C66.4886 22.1354 66.3588 21.7332 66.3588 21.3437C66.3588 21.1175 66.4363 20.9248 66.5913 20.7656C66.7504 20.6022 66.9515 20.5206 67.1944 20.5206C67.3913 20.5206 67.5568 20.5834 67.6908 20.7091C67.829 20.8347 67.9463 21.0211 68.0427 21.2683C68.16 21.5615 68.2856 21.8065 68.4197 22.0034C68.5579 22.2003 68.7506 22.3636 68.9977 22.4935C69.2449 22.6192 69.5695 22.682 69.9716 22.682C70.5246 22.682 70.9728 22.5542 71.3162 22.2987C71.6639 22.039 71.8377 21.7165 71.8377 21.3311C71.8377 21.0253 71.7435 20.7782 71.555 20.5897C71.3707 20.397 71.1298 20.2504 70.8324 20.1499C70.5392 20.0493 70.1455 19.9425 69.6512 19.8294C68.9894 19.6744 68.4343 19.4943 67.9861 19.2891C67.5421 19.0796 67.1882 18.7969 66.9243 18.4408C66.6646 18.0806 66.5347 17.6345 66.5347 17.1025C66.5347 16.5956 66.6729 16.1453 66.9494 15.7516C67.2259 15.3578 67.6259 15.0563 68.1495 14.8468C68.6731 14.6332 69.2889 14.5264 69.9968 14.5264C70.5623 14.5264 71.0502 14.5976 71.4608 14.74C71.8754 14.8782 72.2189 15.0646 72.4912 15.2992C72.7635 15.5296 72.9624 15.7725 73.0881 16.0281C73.2138 16.2836 73.2766 16.5328 73.2766 16.7758C73.2766 16.9978 73.197 17.1988 73.0378 17.379C72.8829 17.5549 72.6881 17.6428 72.4535 17.6428C72.2399 17.6428 72.0765 17.5905 71.9634 17.4858C71.8545 17.3769 71.7351 17.2009 71.6053 16.958C71.4377 16.6103 71.2367 16.3401 71.0021 16.1474C70.7675 15.9506 70.3905 15.8521 69.8711 15.8521C69.3894 15.8521 68.9998 15.9589 68.7024 16.1726C68.4092 16.382 68.2626 16.6354 68.2626 16.9328C68.2626 17.1172 68.3129 17.2763 68.4134 17.4104C68.5139 17.5444 68.6522 17.6596 68.8281 17.7559C69.004 17.8523 69.182 17.9277 69.3622 17.9821C69.5423 18.0366 69.8397 18.1162 70.2544 18.2209C70.7738 18.3424 71.2429 18.4764 71.6618 18.623C72.0849 18.7696 72.443 18.9477 72.7362 19.1571C73.0337 19.3665 73.264 19.6325 73.4274 19.9551C73.595 20.2734 73.6787 20.6651 73.6787 21.13Z" fill="white"/>
<path d="M82.9809 16.2228H80.9452V22.9145C80.9452 23.2998 80.8593 23.5868 80.6875 23.7753C80.5158 23.9596 80.2938 24.0517 80.0215 24.0517C79.7451 24.0517 79.5189 23.9575 79.3429 23.769C79.1712 23.5805 79.0853 23.2957 79.0853 22.9145V16.2228H77.0496C76.7312 16.2228 76.4945 16.1537 76.3396 16.0155C76.1846 15.8731 76.1071 15.6867 76.1071 15.4563C76.1071 15.2175 76.1867 15.029 76.3458 14.8908C76.5092 14.7526 76.7438 14.6834 77.0496 14.6834H82.9809C83.3035 14.6834 83.5422 14.7547 83.6972 14.8971C83.8564 15.0395 83.936 15.2259 83.936 15.4563C83.936 15.6867 83.8564 15.8731 83.6972 16.0155C83.538 16.1537 83.2993 16.2228 82.9809 16.2228Z" fill="white"/>
<path d="M89.286 19.9551H88.6326V22.9145C88.6326 23.304 88.5467 23.591 88.375 23.7753C88.2032 23.9596 87.9791 24.0517 87.7026 24.0517C87.4052 24.0517 87.1749 23.9554 87.0115 23.7627C86.8481 23.57 86.7664 23.2873 86.7664 22.9145V15.827C86.7664 15.4249 86.8565 15.1337 87.0366 14.9536C87.2167 14.7735 87.5079 14.6834 87.91 14.6834H90.9448C91.3637 14.6834 91.7218 14.7023 92.0192 14.74C92.3166 14.7735 92.5847 14.8447 92.8235 14.9536C93.1125 15.0751 93.368 15.2489 93.59 15.4751C93.812 15.7013 93.9796 15.9652 94.0927 16.2668C94.21 16.5642 94.2686 16.8805 94.2686 17.2156C94.2686 17.9026 94.0738 18.4513 93.6843 18.8618C93.2989 19.2723 92.7125 19.5634 91.925 19.7352C92.2559 19.9111 92.5722 20.1708 92.8737 20.5143C93.1753 20.8578 93.4434 21.2243 93.678 21.6138C93.9168 21.9992 94.1011 22.349 94.2309 22.6631C94.365 22.9731 94.432 23.1868 94.432 23.304C94.432 23.4255 94.3922 23.547 94.3126 23.6685C94.2372 23.7858 94.1325 23.8779 93.9984 23.9449C93.8644 24.0161 93.7094 24.0517 93.5335 24.0517C93.324 24.0517 93.1481 24.0015 93.0057 23.9009C92.8633 23.8046 92.7397 23.681 92.635 23.5302C92.5345 23.3794 92.3962 23.1574 92.2203 22.8642L91.4726 21.6201C91.2045 21.1636 90.9636 20.8159 90.75 20.5771C90.5406 20.3384 90.3269 20.175 90.1091 20.087C89.8913 19.9991 89.6169 19.9551 89.286 19.9551ZM90.3542 16.0846H88.6326V18.6167H90.3039C90.7521 18.6167 91.1291 18.579 91.4349 18.5037C91.7407 18.4241 91.9731 18.2921 92.1323 18.1078C92.2957 17.9193 92.3774 17.6617 92.3774 17.335C92.3774 17.0795 92.3124 16.8554 92.1826 16.6627C92.0527 16.4658 91.8726 16.3192 91.6422 16.2228C91.4244 16.1307 90.9951 16.0846 90.3542 16.0846Z" fill="white"/>
<path d="M97.8531 22.9145V15.6573C97.8531 15.2804 97.9389 14.9976 98.1107 14.8091C98.2824 14.6206 98.5044 14.5264 98.7767 14.5264C99.0574 14.5264 99.2836 14.6206 99.4553 14.8091C99.6312 14.9934 99.7192 15.2762 99.7192 15.6573V22.9145C99.7192 23.2957 99.6312 23.5805 99.4553 23.769C99.2836 23.9575 99.0574 24.0517 98.7767 24.0517C98.5086 24.0517 98.2866 23.9575 98.1107 23.769C97.9389 23.5763 97.8531 23.2915 97.8531 22.9145Z" fill="white"/>
<path d="M107.482 23.8947H104.667C104.261 23.8947 103.97 23.8046 103.794 23.6245C103.622 23.4402 103.536 23.1491 103.536 22.7511V15.827C103.536 15.4207 103.624 15.1296 103.8 14.9536C103.98 14.7735 104.269 14.6834 104.667 14.6834H107.652C108.091 14.6834 108.473 14.7107 108.795 14.7651C109.118 14.8196 109.407 14.9243 109.662 15.0793C109.88 15.2091 110.073 15.3746 110.24 15.5757C110.408 15.7725 110.536 15.9925 110.624 16.2354C110.712 16.4742 110.756 16.7276 110.756 16.9957C110.756 17.9172 110.295 18.5916 109.373 19.0189C110.584 19.4042 111.189 20.154 111.189 21.2683C111.189 21.7835 111.057 22.2485 110.793 22.6631C110.529 23.0737 110.173 23.3773 109.725 23.5742C109.444 23.6915 109.122 23.7753 108.757 23.8255C108.393 23.8716 107.968 23.8947 107.482 23.8947ZM107.344 19.8043H105.402V22.4935H107.407C108.667 22.4935 109.298 22.039 109.298 21.13C109.298 20.6651 109.134 20.3279 108.808 20.1184C108.481 19.909 107.993 19.8043 107.344 19.8043ZM105.402 16.0846V18.466H107.111C107.576 18.466 107.934 18.422 108.186 18.334C108.441 18.246 108.636 18.0785 108.77 17.8313C108.875 17.6554 108.927 17.4585 108.927 17.2407C108.927 16.7758 108.762 16.4679 108.431 16.3171C108.1 16.1621 107.595 16.0846 106.917 16.0846H105.402Z" fill="white"/>
<path d="M114.07 20.087V15.6573C114.07 15.2804 114.154 14.9976 114.321 14.8091C114.493 14.6206 114.717 14.5264 114.993 14.5264C115.283 14.5264 115.511 14.6206 115.678 14.8091C115.85 14.9976 115.936 15.2804 115.936 15.6573V20.1876C115.936 20.7028 115.993 21.1342 116.106 21.4819C116.223 21.8254 116.428 22.0935 116.721 22.2862C117.015 22.4747 117.425 22.5689 117.953 22.5689C118.682 22.5689 119.197 22.3762 119.499 21.9908C119.8 21.6013 119.951 21.0128 119.951 20.2253V15.6573C119.951 15.2762 120.035 14.9934 120.202 14.8091C120.37 14.6206 120.594 14.5264 120.875 14.5264C121.155 14.5264 121.381 14.6206 121.553 14.8091C121.729 14.9934 121.817 15.2762 121.817 15.6573V20.087C121.817 20.8075 121.746 21.4086 121.603 21.8903C121.465 22.372 121.201 22.7951 120.812 23.1595C120.477 23.4695 120.087 23.6957 119.643 23.8381C119.199 23.9805 118.68 24.0517 118.085 24.0517C117.377 24.0517 116.767 23.9763 116.256 23.8255C115.745 23.6706 115.329 23.4339 115.006 23.1155C114.684 22.793 114.447 22.3825 114.296 21.884C114.145 21.3814 114.07 20.7824 114.07 20.087Z" fill="white"/>
<path d="M131.553 16.2228H129.517V22.9145C129.517 23.2998 129.431 23.5868 129.259 23.7753C129.088 23.9596 128.866 24.0517 128.593 24.0517C128.317 24.0517 128.091 23.9575 127.915 23.769C127.743 23.5805 127.657 23.2957 127.657 22.9145V16.2228H125.621C125.303 16.2228 125.066 16.1537 124.911 16.0155C124.756 15.8731 124.679 15.6867 124.679 15.4563C124.679 15.2175 124.759 15.029 124.918 14.8908C125.081 14.7526 125.316 14.6834 125.621 14.6834H131.553C131.875 14.6834 132.114 14.7547 132.269 14.8971C132.428 15.0395 132.508 15.2259 132.508 15.4563C132.508 15.6867 132.428 15.8731 132.269 16.0155C132.11 16.1537 131.871 16.2228 131.553 16.2228Z" fill="white"/>
<path d="M141.42 16.1223H137.217V18.3843H141.087C141.372 18.3843 141.584 18.4492 141.722 18.579C141.864 18.7047 141.936 18.8723 141.936 19.0817C141.936 19.2911 141.867 19.4629 141.728 19.5969C141.59 19.7268 141.376 19.7917 141.087 19.7917H137.217V22.4118H141.565C141.858 22.4118 142.078 22.4809 142.225 22.6192C142.376 22.7532 142.451 22.9333 142.451 23.1595C142.451 23.3773 142.376 23.5554 142.225 23.6936C142.078 23.8276 141.858 23.8947 141.565 23.8947H136.494C136.088 23.8947 135.795 23.8046 135.615 23.6245C135.439 23.4444 135.351 23.1532 135.351 22.7511V15.827C135.351 15.5589 135.391 15.3411 135.47 15.1735C135.55 15.0018 135.673 14.8782 135.841 14.8028C136.013 14.7232 136.231 14.6834 136.494 14.6834H141.42C141.718 14.6834 141.938 14.7505 142.08 14.8845C142.227 15.0144 142.3 15.1861 142.3 15.3997C142.3 15.6176 142.227 15.7935 142.08 15.9275C141.938 16.0574 141.718 16.1223 141.42 16.1223Z" fill="white"/>
<path d="M146.827 14.6834H149.259C149.891 14.6834 150.434 14.7421 150.886 14.8594C151.338 14.9767 151.749 15.1966 152.118 15.5191C153.077 16.3401 153.556 17.5884 153.556 19.2639C153.556 19.8168 153.508 20.3216 153.412 20.7782C153.316 21.2348 153.167 21.6474 152.966 22.016C152.765 22.3804 152.507 22.7071 152.193 22.9962C151.946 23.2182 151.676 23.3962 151.382 23.5302C151.089 23.6643 150.773 23.7585 150.434 23.813C150.099 23.8674 149.719 23.8947 149.296 23.8947H146.865C146.525 23.8947 146.27 23.8444 146.098 23.7439C145.926 23.6391 145.813 23.4946 145.759 23.3103C145.709 23.1218 145.684 22.8789 145.684 22.5815V15.827C145.684 15.4249 145.774 15.1337 145.954 14.9536C146.134 14.7735 146.425 14.6834 146.827 14.6834ZM147.55 16.16V22.4118H148.963C149.273 22.4118 149.516 22.4034 149.692 22.3867C149.868 22.3699 150.05 22.328 150.239 22.261C150.427 22.194 150.591 22.0998 150.729 21.9783C151.353 21.4505 151.665 20.5415 151.665 19.2514C151.665 18.3424 151.527 17.6617 151.25 17.2093C150.978 16.7569 150.641 16.47 150.239 16.3485C149.837 16.2228 149.351 16.16 148.781 16.16H147.55Z" fill="white"/>
<path d="M170.301 20.1499V21.9154C170.301 22.15 170.278 22.3385 170.232 22.4809C170.186 22.6192 170.1 22.7448 169.974 22.8579C169.853 22.971 169.696 23.0799 169.503 23.1847C168.946 23.4863 168.41 23.7062 167.894 23.8444C167.379 23.9826 166.818 24.0517 166.211 24.0517C165.503 24.0517 164.858 23.9428 164.275 23.725C163.693 23.5072 163.197 23.1909 162.786 22.7762C162.376 22.3616 162.059 21.8589 161.837 21.2683C161.62 20.6776 161.511 20.0179 161.511 19.2891C161.511 18.5728 161.618 17.9172 161.831 17.3224C162.045 16.7276 162.359 16.2228 162.774 15.8081C163.188 15.3935 163.693 15.0772 164.288 14.8594C164.883 14.6374 165.557 14.5264 166.311 14.5264C166.931 14.5264 167.48 14.6101 167.957 14.7777C168.435 14.9411 168.822 15.1484 169.12 15.3997C169.417 15.6511 169.641 15.9171 169.792 16.1977C169.943 16.4784 170.018 16.7276 170.018 16.9454C170.018 17.18 169.93 17.381 169.754 17.5486C169.583 17.712 169.375 17.7936 169.132 17.7936C168.998 17.7936 168.868 17.7622 168.743 17.6994C168.621 17.6366 168.519 17.5486 168.435 17.4355C168.204 17.0753 168.01 16.803 167.851 16.6187C167.691 16.4344 167.476 16.2794 167.203 16.1537C166.935 16.0281 166.592 15.9652 166.173 15.9652C165.741 15.9652 165.356 16.0406 165.017 16.1914C164.677 16.338 164.386 16.5538 164.143 16.8386C163.905 17.1192 163.72 17.4648 163.59 17.8753C163.465 18.2858 163.402 18.7403 163.402 19.2388C163.402 20.3195 163.649 21.151 164.143 21.7332C164.642 22.3155 165.335 22.6066 166.223 22.6066C166.655 22.6066 167.059 22.55 167.436 22.437C167.817 22.3239 168.202 22.1626 168.592 21.9531V20.4577H167.147C166.799 20.4577 166.535 20.4054 166.355 20.3007C166.179 20.1959 166.091 20.0179 166.091 19.7666C166.091 19.5613 166.165 19.3917 166.311 19.2576C166.462 19.1236 166.665 19.0566 166.921 19.0566H169.038C169.298 19.0566 169.518 19.0796 169.698 19.1257C169.878 19.1718 170.022 19.2744 170.131 19.4336C170.244 19.5927 170.301 19.8315 170.301 20.1499Z" fill="white"/>
<path d="M175.645 15.6573V22.3616H179.427C179.729 22.3616 179.959 22.4349 180.118 22.5815C180.282 22.7281 180.363 22.9124 180.363 23.1344C180.363 23.3606 180.284 23.5449 180.125 23.6873C179.965 23.8255 179.733 23.8947 179.427 23.8947H174.922C174.516 23.8947 174.223 23.8046 174.042 23.6245C173.867 23.4444 173.779 23.1532 173.779 22.7511V15.6573C173.779 15.2804 173.862 14.9976 174.03 14.8091C174.202 14.6206 174.426 14.5264 174.702 14.5264C174.983 14.5264 175.209 14.6206 175.381 14.8091C175.557 14.9934 175.645 15.2762 175.645 15.6573Z" fill="white"/>
<path d="M186.744 14.5264C187.699 14.5264 188.518 14.7211 189.201 15.1107C189.888 15.4961 190.407 16.0469 190.759 16.7632C191.111 17.4753 191.287 18.3131 191.287 19.2765C191.287 19.9886 191.19 20.6358 190.998 21.218C190.805 21.8003 190.516 22.305 190.131 22.7323C189.745 23.1595 189.272 23.4863 188.711 23.7124C188.149 23.9386 187.506 24.0517 186.782 24.0517C186.061 24.0517 185.416 23.9365 184.846 23.7062C184.277 23.4716 183.801 23.1428 183.42 22.7197C183.039 22.2966 182.75 21.7877 182.553 21.1929C182.36 20.5981 182.264 19.9551 182.264 19.2639C182.264 18.556 182.365 17.9067 182.566 17.3161C182.771 16.7255 183.066 16.2228 183.452 15.8081C183.837 15.3935 184.306 15.0772 184.859 14.8594C185.412 14.6374 186.04 14.5264 186.744 14.5264ZM189.395 19.2639C189.395 18.5895 189.287 18.0052 189.069 17.5109C188.851 17.0166 188.539 16.6438 188.133 16.3925C187.73 16.137 187.268 16.0092 186.744 16.0092C186.371 16.0092 186.026 16.0804 185.707 16.2228C185.393 16.3611 185.121 16.5642 184.89 16.8323C184.664 17.1004 184.484 17.4439 184.35 17.8628C184.22 18.2775 184.155 18.7445 184.155 19.2639C184.155 19.7875 184.22 20.2609 184.35 20.6839C184.484 21.107 184.67 21.4589 184.909 21.7395C185.152 22.016 185.429 22.2233 185.739 22.3616C186.053 22.4998 186.396 22.5689 186.769 22.5689C187.247 22.5689 187.684 22.4495 188.082 22.2108C188.484 21.972 188.803 21.6034 189.037 21.1049C189.276 20.6064 189.395 19.9928 189.395 19.2639Z" fill="white"/>
<path d="M198.553 23.8947H195.738C195.332 23.8947 195.041 23.8046 194.865 23.6245C194.693 23.4402 194.607 23.1491 194.607 22.7511V15.827C194.607 15.4207 194.695 15.1296 194.871 14.9536C195.051 14.7735 195.34 14.6834 195.738 14.6834H198.723C199.163 14.6834 199.544 14.7107 199.866 14.7651C200.189 14.8196 200.478 14.9243 200.733 15.0793C200.951 15.2091 201.144 15.3746 201.311 15.5757C201.479 15.7725 201.607 15.9925 201.695 16.2354C201.783 16.4742 201.827 16.7276 201.827 16.9957C201.827 17.9172 201.366 18.5916 200.444 19.0189C201.655 19.4042 202.26 20.154 202.26 21.2683C202.26 21.7835 202.128 22.2485 201.864 22.6631C201.6 23.0737 201.244 23.3773 200.796 23.5742C200.516 23.6915 200.193 23.7753 199.829 23.8255C199.464 23.8716 199.039 23.8947 198.553 23.8947ZM198.415 19.8043H196.473V22.4935H198.478C199.739 22.4935 200.369 22.039 200.369 21.13C200.369 20.6651 200.206 20.3279 199.879 20.1184C199.552 19.909 199.064 19.8043 198.415 19.8043ZM196.473 16.0846V18.466H198.182C198.647 18.466 199.006 18.422 199.257 18.334C199.512 18.246 199.707 18.0785 199.841 17.8313C199.946 17.6554 199.998 17.4585 199.998 17.2407C199.998 16.7758 199.833 16.4679 199.502 16.3171C199.171 16.1621 198.666 16.0846 197.988 16.0846H196.473Z" fill="white"/>
<path d="M211.022 22.8516L210.582 21.6955H206.837L206.398 22.8768C206.226 23.3375 206.079 23.6496 205.958 23.813C205.836 23.9722 205.637 24.0517 205.361 24.0517C205.126 24.0517 204.919 23.9659 204.739 23.7941C204.559 23.6224 204.469 23.4276 204.469 23.2098C204.469 23.0841 204.49 22.9543 204.531 22.8202C204.573 22.6862 204.642 22.4998 204.739 22.261L207.095 16.2794C207.162 16.1076 207.242 15.9024 207.334 15.6636C207.43 15.4207 207.531 15.2196 207.635 15.0604C207.744 14.9013 207.885 14.7735 208.056 14.6772C208.232 14.5766 208.448 14.5264 208.704 14.5264C208.963 14.5264 209.179 14.5766 209.351 14.6772C209.527 14.7735 209.667 14.8992 209.772 15.0542C209.881 15.2091 209.971 15.3767 210.042 15.5568C210.117 15.7327 210.212 15.9694 210.325 16.2668L212.731 22.2108C212.92 22.6631 213.014 22.992 213.014 23.1972C213.014 23.4109 212.924 23.6077 212.744 23.7878C212.568 23.9638 212.354 24.0517 212.103 24.0517C211.956 24.0517 211.831 24.0245 211.726 23.9701C211.621 23.9198 211.533 23.8507 211.462 23.7627C211.391 23.6706 211.313 23.5323 211.229 23.348C211.15 23.1595 211.081 22.9941 211.022 22.8516ZM207.328 20.2944H210.08L208.691 16.493L207.328 20.2944Z" fill="white"/>
<path d="M217.955 15.6573V22.3616H221.738C222.04 22.3616 222.27 22.4349 222.429 22.5815C222.592 22.7281 222.674 22.9124 222.674 23.1344C222.674 23.3606 222.595 23.5449 222.435 23.6873C222.276 23.8255 222.044 23.8947 221.738 23.8947H217.233C216.827 23.8947 216.533 23.8046 216.353 23.6245C216.177 23.4444 216.089 23.1532 216.089 22.7511V15.6573C216.089 15.2804 216.173 14.9976 216.341 14.8091C216.512 14.6206 216.737 14.5264 217.013 14.5264C217.294 14.5264 217.52 14.6206 217.692 14.8091C217.868 14.9934 217.955 15.2762 217.955 15.6573Z" fill="white"/>
</svg>
