<svg width="113" height="108" viewBox="0 0 113 108" fill="none" xmlns="http://www.w3.org/2000/svg">
<path d="M76.426 32.8536C30.5613 45.4022 36.8678 57.2705 45.7542 61.6361C13.9687 51.6115 54.4403 35.4939 78.635 28.3872C77.9082 29.832 76.7138 32.2868 76.426 32.8536Z" fill="white"/>
<path fill-rule="evenodd" clip-rule="evenodd" d="M40.2844 42.6075C37.041 36.8352 42.2473 27.8616 76.426 18.5104C76.5489 18.2683 76.8371 17.682 77.1836 16.9771C77.6486 16.0312 78.2185 14.8718 78.635 14.0439C56.8832 20.4331 21.9756 34.1053 38.2449 44.0855C38.8766 43.5912 39.5583 43.0982 40.2844 42.6075Z" fill="white"/>
<path fill-rule="evenodd" clip-rule="evenodd" d="M40.2843 28.5634C37.0411 22.7911 42.2476 13.8176 76.426 4.46643C76.5489 4.22437 76.8371 3.63805 77.1836 2.93312C77.6486 1.98725 78.2185 0.827848 78.635 0C56.8833 6.38913 21.9758 20.0613 38.2448 30.0415C38.8765 29.5472 39.5582 29.0542 40.2843 28.5634Z" fill="white"/>
<path d="M16.7568 87.2033V82.207H22.3058V79.847H16.7568V76.5303H22.7523V74.1491H14.0566V87.2033H16.7568Z" fill="white"/>
<path d="M30.1718 87.2033V82.207H35.7209V79.847H30.1718V76.5303H36.1674V74.1491H27.4717V87.2033H30.1718Z" fill="white"/>
<path d="M43.6082 74.1491H40.8868V87.2033H43.6082V74.1491Z" fill="white"/>
<path d="M48.2243 80.6762C48.2243 84.6732 50.8181 87.4159 54.3049 87.4159C57.3877 87.4159 59.2799 85.6087 59.7689 82.9724H57.0688C56.6223 84.1842 55.8144 84.9922 54.3049 84.9922C52.2213 84.9922 50.9882 83.1425 50.9882 80.6762C50.9882 78.1887 52.2213 76.3603 54.3049 76.3603C55.8144 76.3603 56.6223 77.1682 57.0688 78.3588H59.7689C59.2799 75.7437 57.3877 73.9365 54.3049 73.9365C50.8181 73.9365 48.2243 76.6792 48.2243 80.6762Z" fill="white"/>
<path d="M67.0748 74.1491H64.3534V87.2033H67.0748V74.1491Z" fill="white"/>
<path d="M72.3287 74.1491V87.2033H81.1945V84.8008H75.0076V81.6967H80.6205V79.3793H75.0076V76.5303H81.1945V74.1491H72.3287Z" fill="white"/>
<path d="M96.9833 74.1491H94.3682V82.3983L88.6066 74.1491H86.0553V87.2033H88.6703V78.5076L94.836 87.2033H96.9833V74.1491Z" fill="white"/>
<path d="M101.551 76.5303H105.739V87.2033H108.482V76.5303H112.692V74.1491H101.551V76.5303Z" fill="white"/>
<path d="M2.70012 106.93V101.934H8.2492V99.5736H2.70012V96.2569H8.69568V93.8757H0V106.93H2.70012Z" fill="white"/>
<path d="M18.1775 102.061L21.4092 106.93H24.4707L21.0265 101.87C22.8549 101.423 24.003 100.105 24.003 98.0216C24.003 95.3427 22.1745 93.8757 19.4319 93.8757H14.0529V106.93H16.753V102.061H18.1775ZM16.753 96.1931H19.2618C20.6225 96.1931 21.3241 96.916 21.3241 98.0216C21.3241 99.1059 20.6225 99.8287 19.2618 99.8287H16.753V96.1931Z" fill="white"/>
<path d="M41.1493 100.403C41.1493 96.4908 38.598 93.6631 34.9624 93.6631C31.3268 93.6631 28.7968 96.4908 28.7968 100.403C28.7968 104.293 31.3268 107.142 34.9624 107.142C38.598 107.142 41.1493 104.293 41.1493 100.403ZM38.4067 100.403C38.4067 102.954 37.046 104.719 34.9624 104.719C32.9001 104.719 31.5607 102.954 31.5607 100.403C31.5607 97.8515 32.9001 96.0868 34.9624 96.0868C37.046 96.0868 38.4067 97.8515 38.4067 100.403Z" fill="white"/>
<path d="M57.3639 93.8757H54.7488V102.125L48.9871 93.8757H46.4358V106.93H49.0509V98.2342L55.2165 106.93H57.3639V93.8757Z" fill="white"/>
<path d="M62.5693 96.2569H66.7577V106.93H69.5003V96.2569H73.71V93.8757H62.5693V96.2569Z" fill="white"/>
<path d="M81.6231 93.8757H78.9017V106.93H81.6231V93.8757Z" fill="white"/>
<path d="M87.5149 93.8757V106.93H96.3806V104.527H90.1937V101.423H95.8066V99.1059H90.1937V96.2569H96.3806V93.8757H87.5149Z" fill="white"/>
<path d="M106.004 102.061L109.235 106.93H112.297L108.853 101.87C110.681 101.423 111.829 100.105 111.829 98.0216C111.829 95.3427 110.001 93.8757 107.258 93.8757H101.879V106.93H104.579V102.061H106.004ZM104.579 96.1931H107.088C108.449 96.1931 109.15 96.916 109.15 98.0216C109.15 99.1059 108.449 99.8287 107.088 99.8287H104.579V96.1931Z" fill="white"/>
<path fill-rule="evenodd" clip-rule="evenodd" d="M0 76.5275V74.1494H8.86576V76.5306H3.38765V76.5275H0ZM0 79.3768V87.2036H8.86576V84.8011H2.67886V81.697H8.29172V79.3796H2.67886V79.3768H0Z" fill="white"/>
</svg>
