<svg width="173" height="60" viewBox="0 0 173 60" fill="none" xmlns="http://www.w3.org/2000/svg">
<path opacity="0.5" d="M6.05126 9.638C13.3172 -1.52777 21.962 -1.20252 25.3901 1.76729C28.0729 3.75527 26.9172 12.7426 17.0985 13.2868C5.19925 13.9463 4.29139 21.248 6.05126 26.3238C10.3261 43.0096 22.1844 37.0278 34.4719 42.17C46.7593 47.3121 32.2285 66.9362 14.5987 55.6025C-3.03121 44.2688 -3.03121 23.5952 6.05126 9.638Z" fill="white"/>
<path opacity="0.5" d="M13.3812 2.49152C15.1593 2.18782 18.4285 2.33573 17.2806 5.35695C15.8854 9.02921 5.48192 10.1465 2.8352 15.6541C2.72054 15.9144 2.65133 16.0802 2.63101 16.1289L2.62891 16.1339C2.69116 15.9703 2.76005 15.8104 2.8352 15.6541C3.80317 13.4563 8.0102 4.52387 13.3812 2.49152Z" fill="white"/>
<ellipse opacity="0.5" cx="14.2627" cy="22.9264" rx="2.65142" ry="2.60412" fill="white"/>
<ellipse opacity="0.5" cx="38.4053" cy="24.2636" rx="5.1241" ry="5.03268" fill="white"/>
<ellipse opacity="0.5" cx="30.3695" cy="7.48113" rx="2.44367" ry="2.40008" fill="white"/>
<path opacity="0.5" d="M12.7687 10.2661C9.20925 8.44645 5.19285 12.1499 3.66946 14.2848C-3.88828 27.8731 2.3444 42.3259 3.74969 44.2827C5.94376 47.3377 8.56953 42.4494 7.99089 39.7785C7.11866 35.7524 1.64839 34.8112 2.15758 27.2258C2.79216 17.7724 8.31989 17.5089 9.47788 16.5512C10.6359 15.5934 17.2181 12.5407 12.7687 10.2661Z" fill="white"/>
<path opacity="0.5" d="M42.1628 39.8618C38.1111 56.4809 17.6065 54.6783 10 52.1312C39.1044 77.0549 71.1964 33.6666 57.5556 23.7519C53.8312 21.0447 46.4673 22.2056 42.1628 39.8618Z" fill="white"/>
<path fill-rule="evenodd" clip-rule="evenodd" d="M77.9082 25.0464C77.9082 17.0383 84.4001 10.5464 92.4082 10.5464H107.46C107.46 14.4124 104.326 17.5464 100.46 17.5464H92.4082C88.2661 17.5464 84.9082 20.9043 84.9082 25.0464V34.0253C84.9082 38.1674 88.2661 41.5252 92.4082 41.5252H100.281V33.6516H95.1607V26.6516H107.281V47.5252C107.281 48.0775 106.833 48.5252 106.281 48.5252H92.4082C84.4001 48.5252 77.9082 42.0334 77.9082 34.0253V25.0464Z" fill="white"/>
<path fill-rule="evenodd" clip-rule="evenodd" d="M113.582 22.0574C113.582 16.1002 118.412 11.271 124.369 11.271H138.043C138.043 15.137 134.909 18.271 131.043 18.271H124.369C122.277 18.271 120.582 19.9662 120.582 22.0574C120.582 23.181 121.237 24.2016 122.258 24.6705L132.182 29.2279C135.608 30.8014 137.804 34.2266 137.804 37.997C137.804 43.8116 133.09 48.5252 127.276 48.5252H112.732C112.732 44.6593 115.866 41.5252 119.732 41.5252H127.276C129.224 41.5252 130.804 39.9456 130.804 37.997C130.804 36.9617 130.201 36.0212 129.26 35.5891L119.336 31.0318C115.83 29.4214 113.582 25.9161 113.582 22.0574Z" fill="white"/>
<path fill-rule="evenodd" clip-rule="evenodd" d="M158.594 10.5464H143.629V48.0884H146.242V47.9875H150.629V17.5464H158.594C160.527 17.5464 162.094 19.1134 162.094 21.0464V21.4146C162.094 22.4508 161.635 23.4338 160.84 24.0988L156.858 27.4305C154.72 29.2193 154.259 32.3246 155.784 34.6579L164.497 47.9875H172.86L162.373 31.9435L165.332 29.4673C167.716 27.4723 169.094 24.5233 169.094 21.4146V21.0464C169.094 15.2474 164.393 10.5464 158.594 10.5464Z" fill="white"/>
</svg>
