<svg width="156" height="104" viewBox="0 0 156 104" fill="none" xmlns="http://www.w3.org/2000/svg">
<path d="M86.7384 9.57132L86.6693 9.39085C86.5046 8.96041 86.6554 8.47311 87.0344 8.21094L97.3378 1.08501C98.0011 0.626289 98.9066 1.10103 98.9066 1.90747V39.854C98.9066 40.9585 99.8021 41.854 100.907 41.854H103.862C104.414 41.854 104.862 42.3017 104.862 42.854V43.7527C104.862 44.305 104.414 44.7527 103.862 44.7527H88.7125C88.1602 44.7527 87.7125 44.305 87.7125 43.7527V42.854C87.7125 42.3017 88.1602 41.854 88.7125 41.854H92.6606C93.7652 41.854 94.6606 40.9585 94.6606 39.854V10.3877C94.6606 8.96096 93.2095 7.99306 91.8923 8.54115L88.0565 10.1371C87.5362 10.3536 86.9399 10.0976 86.7384 9.57132Z" fill="white"/>
<path d="M67.2167 9.57132L67.2857 9.39085C67.4505 8.96041 67.2997 8.47311 66.9206 8.21094L56.6173 1.08501C55.954 0.626289 55.0484 1.10103 55.0484 1.90747V39.854C55.0484 40.9585 54.153 41.854 53.0484 41.854H50.0929C49.5407 41.854 49.0929 42.3017 49.0929 42.854V43.7527C49.0929 44.305 49.5407 44.7527 50.0929 44.7527H65.2426C65.7949 44.7527 66.2426 44.305 66.2426 43.7527V42.854C66.2426 42.3017 65.7949 41.854 65.2426 41.854H61.2945C60.1899 41.854 59.2945 40.9585 59.2945 39.854V10.3877C59.2945 8.96096 60.7455 7.99306 62.0628 8.54115L65.8986 10.1371C66.4189 10.3536 67.0152 10.0976 67.2167 9.57132Z" fill="white"/>
<path d="M29.3115 95.4287L28.5752 95.9937C28.1689 95.4647 27.6802 95.0648 27.1089 94.7939C26.5418 94.5189 25.9176 94.3813 25.2363 94.3813C24.4915 94.3813 23.8018 94.5612 23.167 94.9209C22.5322 95.2764 22.0392 95.7567 21.688 96.3618C21.341 96.9627 21.1675 97.6398 21.1675 98.3931C21.1675 99.5314 21.5568 100.481 22.3354 101.243C23.1183 102.005 24.1043 102.386 25.2935 102.386C26.6011 102.386 27.695 101.874 28.5752 100.85L29.3115 101.408C28.846 102.001 28.2642 102.46 27.5659 102.786C26.8719 103.107 26.0954 103.268 25.2363 103.268C23.6029 103.268 22.3143 102.724 21.3706 101.637C20.5793 100.718 20.1836 99.6097 20.1836 98.3105C20.1836 96.9437 20.6618 95.7948 21.6182 94.8638C22.5788 93.9285 23.7806 93.4609 25.2236 93.4609C26.0954 93.4609 26.8825 93.6344 27.585 93.9814C28.2874 94.3242 28.863 94.8066 29.3115 95.4287Z" fill="white"/>
<path d="M45.4054 93.6958L49.7599 103.033H48.7569L47.2906 99.9609H43.2662L41.8062 103.033H40.7652L45.1769 93.6958H45.4054ZM45.2911 95.6763L43.6852 99.0596H46.878L45.2911 95.6763Z" fill="white"/>
<path d="M61.6071 93.6958H63.467C64.5334 93.6958 65.2528 93.7424 65.6252 93.8354C66.1584 93.9666 66.5943 94.2375 66.9328 94.6479C67.2714 95.0542 67.4406 95.5662 67.4406 96.1841C67.4406 96.8062 67.2756 97.3203 66.9455 97.7266C66.6154 98.1286 66.1605 98.3994 65.5808 98.5391C65.1576 98.6406 64.3662 98.6914 63.2067 98.6914H62.5402V103.033H61.6071V93.6958ZM62.5402 94.6035V97.7773L64.1208 97.7964C64.7598 97.7964 65.2274 97.7393 65.5236 97.625C65.8199 97.5065 66.0526 97.3182 66.2219 97.0601C66.3911 96.7977 66.4758 96.5057 66.4758 96.1841C66.4758 95.8709 66.3911 95.5853 66.2219 95.3271C66.0526 95.0648 65.8283 94.8786 65.549 94.7686C65.274 94.6585 64.8212 94.6035 64.1906 94.6035H62.5402Z" fill="white"/>
<path d="M79.5735 93.6958H80.5066V103.033H79.5735V93.6958Z" fill="white"/>
<path d="M92.1254 94.6035V93.6958H97.2479V94.6035H95.1659V103.033H94.2138V94.6035H92.1254Z" fill="white"/>
<path d="M112.802 93.6958L117.157 103.033H116.154L114.688 99.9609H110.663L109.203 103.033H108.162L112.574 93.6958H112.802ZM112.688 95.6763L111.082 99.0596H114.275L112.688 95.6763Z" fill="white"/>
<path d="M129.01 93.6958H129.95V102.132H133.536V103.033H129.01V93.6958Z" fill="white"/>
<path d="M0 84.0327V64.9507L1.15805 64.9507L8.91539 80.6081L16.5949 64.9507L17.944 64.9507V84.0327H15.8944V70.386L9.14889 84.0327H8.66892L1.8326 70.2822V84.0327H0Z" fill="white"/>
<path d="M39.3797 64.9507L48.2786 84.0327H46.229L43.2324 77.7542H35.0081L32.0245 84.0327H29.897L38.9127 64.9507H39.3797ZM39.1462 68.998L35.8642 75.9121H42.3892L39.1462 68.998Z" fill="white"/>
<path d="M57.9615 64.9507H60.037L66.3545 79.7L72.7886 64.9507H74.8642L66.562 84.0327H66.1469L57.9615 64.9507Z" fill="white"/>
<path d="M86.2465 64.9507H97.182V66.8316H88.1534V72.7988H97.1041V74.6668H88.1534V82.1517H97.1041V84.0327H86.2465V64.9507Z" fill="white"/>
<path d="M108.655 84.0327V64.9507H109.07L121.757 79.5573V64.9507H123.638V84.0327H123.21L110.627 69.6077V84.0327H108.655Z" fill="white"/>
<path d="M134.775 63.3135H138.845V84.0327H136.789V65.3417H133.535L134.775 63.3135Z" fill="white"/>
<path d="M151.208 63.3135H155.279V84.0327H153.222V65.3417H149.969L151.208 63.3135Z" fill="white"/>
</svg>
