<?xml version="1.0" encoding="utf-8"?>
<!-- Generator: Adobe Illustrator 25.4.1, SVG Export Plug-In . SVG Version: 6.00 Build 0)  -->
<svg version="1.1" xmlns="http://www.w3.org/2000/svg" xmlns:xlink="http://www.w3.org/1999/xlink" x="0px" y="0px"
	 viewBox="0 0 78.5 85.3" style="enable-background:new 0 0 78.5 85.3;" xml:space="preserve">
<style type="text/css">
	.st0{fill:url(#SVGID_1_);}
	.st1{fill:url(#SVGID_00000051362685229486968180000001491319858136725121_);}
	.st2{fill:url(#SVGID_00000094578581611570626850000001059983033393989806_);}
	.st3{fill:url(#SVGID_00000002361841695248915380000004621622436323883923_);}
	.st4{fill:url(#SVGID_00000094592302906526238030000010521447527371277997_);}
	.st5{fill:none;stroke:#60FFEA;stroke-width:0.5;stroke-miterlimit:10;}
	.st6{fill:#FFFFFF;}
</style>
<g id="Layer_1">
</g>
<g id="tokens">
	<g>
		<linearGradient id="SVGID_1_" gradientUnits="userSpaceOnUse" x1="11.0589" y1="9.0464" x2="80.2507" y2="62.6568">
			<stop  offset="0" style="stop-color:#1F4BFF;stop-opacity:0.8"/>
			<stop  offset="0.4067" style="stop-color:#1924FF;stop-opacity:0.5"/>
			<stop  offset="0.5451" style="stop-color:#0078FF;stop-opacity:0.4"/>
			<stop  offset="0.6994" style="stop-color:#00A5FF;stop-opacity:0.7"/>
			<stop  offset="0.8605" style="stop-color:#00A5FF;stop-opacity:0.5"/>
			<stop  offset="1" style="stop-color:#1946FF;stop-opacity:0.7"/>
		</linearGradient>
		<path class="st0" d="M72.5,60.2c0,0.1-0.1,0.2-0.1,0.3c-1.3,3.5-3.6,6.2-6.5,7.9c-4.9,2.9-11.2,3-17.5-1c-13.8-8.8-25-28.7-26-45
			C22,14.8,25.3,9.3,30.3,6.6h0c2.9-1.6,6.4-2.2,10-1.6c0.1,0,0.2,0,0.3,0.1c2.2,0.4,4.5,1.4,6.8,2.8c13.8,8.8,25,28.7,26,45
			C73.6,55.6,73.3,58,72.5,60.2z"/>
	</g>
	<g>
		
			<linearGradient id="SVGID_00000010271662409680045130000008829417020175776399_" gradientUnits="userSpaceOnUse" x1="38.2211" y1="0.5427" x2="78.7005" y2="74.8557" gradientTransform="matrix(-1 0 0 -1 88.1632 83.1036)">
			<stop  offset="0.1221" style="stop-color:#1924FF"/>
			<stop  offset="0.5395" style="stop-color:#1F4BFF"/>
			<stop  offset="0.6992" style="stop-color:#00A5FF"/>
		</linearGradient>
		<path style="fill:url(#SVGID_00000010271662409680045130000008829417020175776399_);" d="M13,16.6l16.9-9.8
			c-2.9,1.7-5.2,4.4-6.5,7.9c-0.8,2.2-1.2,4.8-1,7.7c1,16.3,12.2,36.2,26,45c2.4,1.5,4.8,2.5,7.1,2.9c3.6,0.6,7.1,0,10-1.6
			l-16.9,9.8c-4.9,2.9-11.2,3-17.5-1c-13.8-8.8-25-28.7-26-45C4.6,24.8,8,19.3,13,16.6z"/>
		
			<linearGradient id="SVGID_00000080905077270359866920000005767186116095185030_" gradientUnits="userSpaceOnUse" x1="28.5709" y1="2.6388" x2="69.0503" y2="76.9517">
			<stop  offset="0.1221" style="stop-color:#1924FF"/>
			<stop  offset="0.5395" style="stop-color:#1F4BFF"/>
			<stop  offset="0.6992" style="stop-color:#00A5FF"/>
		</linearGradient>
		<path style="fill:url(#SVGID_00000080905077270359866920000005767186116095185030_);" d="M65.5,68.6l-16.9,9.8
			c2.9-1.7,5.2-4.4,6.5-7.9c0.8-2.2,1.2-4.8,1-7.7c-1-16.3-12.2-36.2-26-45c-2.4-1.5-4.8-2.5-7.1-2.9c-3.6-0.6-7.1,0-10,1.6
			l16.9-9.8c4.9-2.9,11.2-3,17.5,1c13.8,8.8,25,28.7,26,45C73.9,60.4,70.5,65.9,65.5,68.6z"/>
	</g>
	<g>
		
			<linearGradient id="SVGID_00000168082374640511428270000017709550661082527114_" gradientUnits="userSpaceOnUse" x1="-6.2563" y1="19.0449" x2="62.9355" y2="72.6554">
			<stop  offset="0" style="stop-color:#1F4BFF;stop-opacity:0.8"/>
			<stop  offset="0.4067" style="stop-color:#1924FF;stop-opacity:0.5"/>
			<stop  offset="0.5451" style="stop-color:#0078FF;stop-opacity:0.4"/>
			<stop  offset="0.6994" style="stop-color:#00A5FF;stop-opacity:0.7"/>
			<stop  offset="0.8605" style="stop-color:#00A5FF;stop-opacity:0.5"/>
			<stop  offset="1" style="stop-color:#1946FF;stop-opacity:0.7"/>
		</linearGradient>
		<path style="fill:url(#SVGID_00000168082374640511428270000017709550661082527114_);" d="M55.2,70.2c0,0.1-0.1,0.2-0.1,0.3
			c-1.3,3.5-3.6,6.2-6.5,7.9c-4.9,2.9-11.2,3-17.5-1c-13.8-8.8-25-28.7-26-45C4.6,24.8,8,19.3,13,16.6h0C16,15,19.4,14.3,23,15
			c0.1,0,0.2,0,0.3,0.1c2.2,0.4,4.5,1.4,6.8,2.8c13.8,8.8,25,28.7,26,45C56.3,65.6,55.9,68,55.2,70.2z"/>
	</g>
	<g>
		<g>
			
				<linearGradient id="SVGID_00000002381752363744334480000011031625291624043937_" gradientUnits="userSpaceOnUse" x1="-6.2563" y1="19.0449" x2="62.9355" y2="72.6554">
				<stop  offset="0" style="stop-color:#1F4BFF;stop-opacity:0.8"/>
				<stop  offset="0.4067" style="stop-color:#1924FF;stop-opacity:0.5"/>
				<stop  offset="0.5451" style="stop-color:#0078FF;stop-opacity:0.4"/>
				<stop  offset="0.6994" style="stop-color:#00A5FF;stop-opacity:0.7"/>
				<stop  offset="0.8605" style="stop-color:#00A5FF;stop-opacity:0.5"/>
				<stop  offset="1" style="stop-color:#1946FF;stop-opacity:0.7"/>
			</linearGradient>
			<path style="fill:url(#SVGID_00000002381752363744334480000011031625291624043937_);" d="M55.2,70.2c0,0.1-0.1,0.2-0.1,0.3
				c-1.3,3.5-3.6,6.2-6.5,7.9c-4.9,2.9-11.2,3-17.5-1c-13.8-8.8-25-28.7-26-45C4.6,24.8,8,19.3,13,16.6h0C16,15,19.4,14.3,23,15
				c0.1,0,0.2,0,0.3,0.1c2.2,0.4,4.5,1.4,6.8,2.8c13.8,8.8,25,28.7,26,45C56.3,65.6,55.9,68,55.2,70.2z"/>
		</g>
		<g>
			<path class="st5" d="M55.2,70.2c0,0.1-0.1,0.2-0.1,0.3c-1.3,3.5-3.6,6.2-6.5,7.9c-4.9,2.9-11.2,3-17.5-1c-13.8-8.8-25-28.7-26-45
				C4.6,24.8,8,19.3,13,16.6h0C16,15,19.4,14.3,23,15c0.1,0,0.2,0,0.3,0.1c2.2,0.4,4.5,1.4,6.8,2.8c13.8,8.8,25,28.7,26,45
				C56.3,65.6,55.9,68,55.2,70.2z"/>
		</g>
	</g>
	<g id="Layer_1_00000176741881441293164400000013856301531462657685_">
		<path id="Path_382_00000171681676700197166830000016701784723376075904_" class="st6" d="M29.4,30.3l-3.2,0l-8.7,0l-3.2,0v17.4
			l3.2,3.7l8.8,10.1l3.2,3.7l3.2,0l8.6,0l3.2,0V47.7L41.3,44L32.6,34L29.4,30.3z M20.7,47.6v-10l8.7,0l8.7,10.1v10l-8.7,0L20.7,47.6
			z"/>
	</g>
</g>
</svg>
