<?xml version="1.0" encoding="utf-8"?>
<!-- Generator: Adobe Illustrator 25.4.1, SVG Export Plug-In . SVG Version: 6.00 Build 0)  -->
<svg version="1.1" xmlns="http://www.w3.org/2000/svg" xmlns:xlink="http://www.w3.org/1999/xlink" x="0px" y="0px"
	 viewBox="0 0 78.5 85.3" style="enable-background:new 0 0 78.5 85.3;" xml:space="preserve">
<style type="text/css">
	.st0{fill:url(#SVGID_1_);}
	.st1{fill:url(#SVGID_00000105418874326910564940000018349303478198249127_);}
	.st2{fill:url(#SVGID_00000145746457681064523840000015006168639414495396_);}
	.st3{fill:url(#SVGID_00000047047389889859080260000017714518121295602864_);}
	.st4{fill:url(#SVGID_00000080189764331601514160000002726165543110684551_);}
	.st5{fill:none;stroke:#60FFEA;stroke-width:0.5;stroke-miterlimit:10;}
	.st6{fill:#FFFFFF;}
</style>
<g id="Layer_1">
</g>
<g id="tokens">
	<g>
		
			<linearGradient id="SVGID_1_" gradientUnits="userSpaceOnUse" x1="11.0589" y1="9.0464" x2="80.2507" y2="62.6568" gradientTransform="matrix(-1 0 0 1 78.513 0)">
			<stop  offset="0" style="stop-color:#1F4BFF;stop-opacity:0.8"/>
			<stop  offset="0.4067" style="stop-color:#1924FF;stop-opacity:0.5"/>
			<stop  offset="0.5451" style="stop-color:#0078FF;stop-opacity:0.4"/>
			<stop  offset="0.6994" style="stop-color:#00A5FF;stop-opacity:0.7"/>
			<stop  offset="0.8605" style="stop-color:#00A5FF;stop-opacity:0.5"/>
			<stop  offset="1" style="stop-color:#1946FF;stop-opacity:0.7"/>
		</linearGradient>
		<path class="st0" d="M6,60.2c0,0.1,0.1,0.2,0.1,0.3c1.3,3.5,3.6,6.2,6.5,7.9c4.9,2.9,11.2,3,17.5-1c13.8-8.8,25-28.7,26-45
			c0.5-7.6-2.9-13.1-7.9-15.8h0C45.2,5,41.8,4.3,38.2,5C38.1,5,38,5,37.9,5c-2.2,0.4-4.5,1.4-6.8,2.8c-13.8,8.8-25,28.7-26,45
			C4.9,55.6,5.3,58,6,60.2z"/>
	</g>
	<g>
		
			<linearGradient id="SVGID_00000006699965511505399470000018068590491181460665_" gradientUnits="userSpaceOnUse" x1="38.2211" y1="0.5427" x2="78.7005" y2="74.8557" gradientTransform="matrix(1 0 0 -1 -9.6502 83.1036)">
			<stop  offset="0.3008" style="stop-color:#00A5FF"/>
			<stop  offset="0.4605" style="stop-color:#1F4BFF"/>
			<stop  offset="0.8779" style="stop-color:#1924FF"/>
		</linearGradient>
		<path style="fill:url(#SVGID_00000006699965511505399470000018068590491181460665_);" d="M65.5,16.6L48.6,6.8
			c2.9,1.7,5.2,4.4,6.5,7.9c0.8,2.2,1.2,4.8,1,7.7c-1,16.3-12.2,36.2-26,45c-2.4,1.5-4.8,2.5-7.1,2.9c-3.6,0.6-7.1,0-10-1.6
			l16.9,9.8c4.9,2.9,11.2,3,17.5-1c13.8-8.8,25-28.7,26-45C73.9,24.8,70.5,19.3,65.5,16.6z"/>
		
			<linearGradient id="SVGID_00000042718097994237737050000017206935446117742464_" gradientUnits="userSpaceOnUse" x1="28.5709" y1="2.6388" x2="69.0503" y2="76.9517" gradientTransform="matrix(-1 0 0 1 78.513 0)">
			<stop  offset="0.3008" style="stop-color:#00A5FF"/>
			<stop  offset="0.4605" style="stop-color:#1F4BFF"/>
			<stop  offset="0.8779" style="stop-color:#1924FF"/>
		</linearGradient>
		<path style="fill:url(#SVGID_00000042718097994237737050000017206935446117742464_);" d="M13,68.6l16.9,9.8
			c-2.9-1.7-5.2-4.4-6.5-7.9c-0.8-2.2-1.2-4.8-1-7.7c1-16.3,12.2-36.2,26-45c2.4-1.5,4.8-2.5,7.1-2.9c3.6-0.6,7.1,0,10,1.6L48.6,6.8
			c-4.9-2.9-11.2-3-17.5,1c-13.8,8.8-25,28.7-26,45C4.6,60.4,8,65.9,13,68.6z"/>
	</g>
	<g>
		
			<linearGradient id="SVGID_00000083798769168403072310000011998807995642962321_" gradientUnits="userSpaceOnUse" x1="-6.2563" y1="19.0449" x2="62.9355" y2="72.6554" gradientTransform="matrix(-1 0 0 1 78.513 0)">
			<stop  offset="0" style="stop-color:#1946FF;stop-opacity:0.7"/>
			<stop  offset="0.1395" style="stop-color:#00A5FF;stop-opacity:0.5"/>
			<stop  offset="0.3006" style="stop-color:#00A5FF;stop-opacity:0.7"/>
			<stop  offset="0.4549" style="stop-color:#0078FF;stop-opacity:0.4"/>
			<stop  offset="0.5933" style="stop-color:#1924FF;stop-opacity:0.5"/>
			<stop  offset="1" style="stop-color:#1F4BFF;stop-opacity:0.8"/>
		</linearGradient>
		<path style="fill:url(#SVGID_00000083798769168403072310000011998807995642962321_);" d="M23.3,70.2c0,0.1,0.1,0.2,0.1,0.3
			c1.3,3.5,3.6,6.2,6.5,7.9c4.9,2.9,11.2,3,17.5-1c13.8-8.8,25-28.7,26-45c0.5-7.6-2.9-13.1-7.9-15.8h0c-2.9-1.6-6.4-2.2-10-1.6
			c-0.1,0-0.2,0-0.3,0.1c-2.2,0.4-4.5,1.4-6.8,2.8c-13.8,8.8-25,28.7-26,45C22.2,65.6,22.6,68,23.3,70.2z"/>
	</g>
	<g>
		<g>
			
				<linearGradient id="SVGID_00000123399082639558226300000011398295571304082109_" gradientUnits="userSpaceOnUse" x1="-6.2563" y1="19.0449" x2="62.9355" y2="72.6554" gradientTransform="matrix(-1 0 0 1 78.513 0)">
				<stop  offset="0" style="stop-color:#1F4BFF;stop-opacity:0.8"/>
				<stop  offset="0.4067" style="stop-color:#1924FF;stop-opacity:0.5"/>
				<stop  offset="0.5451" style="stop-color:#0078FF;stop-opacity:0.4"/>
				<stop  offset="0.6994" style="stop-color:#00A5FF;stop-opacity:0.7"/>
				<stop  offset="0.8605" style="stop-color:#00A5FF;stop-opacity:0.5"/>
				<stop  offset="1" style="stop-color:#1946FF;stop-opacity:0.7"/>
			</linearGradient>
			<path style="fill:url(#SVGID_00000123399082639558226300000011398295571304082109_);" d="M23.3,70.2c0,0.1,0.1,0.2,0.1,0.3
				c1.3,3.5,3.6,6.2,6.5,7.9c4.9,2.9,11.2,3,17.5-1c13.8-8.8,25-28.7,26-45c0.5-7.6-2.9-13.1-7.9-15.8h0c-2.9-1.6-6.4-2.2-10-1.6
				c-0.1,0-0.2,0-0.3,0.1c-2.2,0.4-4.5,1.4-6.8,2.8c-13.8,8.8-25,28.7-26,45C22.2,65.6,22.6,68,23.3,70.2z"/>
		</g>
		<g>
			<path class="st5" d="M23.3,70.2c0,0.1,0.1,0.2,0.1,0.3c1.3,3.5,3.6,6.2,6.5,7.9c4.9,2.9,11.2,3,17.5-1c13.8-8.8,25-28.7,26-45
				c0.5-7.6-2.9-13.1-7.9-15.8h0c-2.9-1.6-6.4-2.2-10-1.6c-0.1,0-0.2,0-0.3,0.1c-2.2,0.4-4.5,1.4-6.8,2.8c-13.8,8.8-25,28.7-26,45
				C22.2,65.6,22.6,68,23.3,70.2z"/>
		</g>
	</g>
	<g id="Layer_1_00000176741881441293164400000013856301531462657685_">
		<path id="Path_382_00000171681676700197166830000016701784723376075904_" class="st6" d="M45.9,34L37.2,44L34,47.7v17.4l3.2,0
			l8.6,0l3.2,0l3.2-3.7L61,51.3l3.2-3.7V30.2l-3.2,0l-8.7,0l-3.2,0L45.9,34z M49.1,57.7l-8.7,0v-10l8.7-10.1l8.7,0v10L49.1,57.7z"/>
	</g>
</g>
</svg>
