<svg width="100" height="100" viewBox="0 0 100 100" fill="none" xmlns="http://www.w3.org/2000/svg">
<g style="mix-blend-mode:multiply">
<path d="M78.1399 43.2734H83.0933V73.2801H78.1399C77.1933 73.2801 76.4266 72.5134 76.4266 71.5668V44.9868C76.4266 44.0401 77.1933 43.2734 78.1399 43.2734ZM40.7599 73.2934H57.3999L51.6399 81.9468C50.2333 83.9934 49.5799 85.1068 49.5799 86.8801C49.5799 90.1468 53.4399 92.1134 56.0733 92.1134C56.8333 92.1134 57.5599 91.7734 58.0466 91.1934L71.4933 75.1934C72.5266 73.9668 73.0933 72.4134 73.0933 70.8068V44.9801C73.0933 44.0401 72.3266 43.2734 71.3866 43.2734H54.0533C50.1799 43.2734 46.7333 45.7534 45.5066 49.4268L39.7666 66.5734C39.2333 68.1601 38.9666 69.8268 38.9666 71.5068C38.9666 72.5001 39.7666 73.3001 40.7599 73.3001V73.2934Z" fill="url(#paint0_linear_1269_18417)" stroke="#7223FF" stroke-width="1.28" stroke-miterlimit="10"/>
<path d="M21.3799 56.6066H16.4266V26.6066H21.3799C22.3266 26.6066 23.0932 27.3733 23.0932 28.3199V54.8999C23.0932 55.8466 22.3266 56.6133 21.3799 56.6133V56.6066ZM58.7666 26.5866H42.1266L47.8866 17.9333C49.2932 15.8866 49.9466 14.7733 49.9466 12.9999C49.9466 9.73327 46.0866 7.7666 43.4532 7.7666C42.6932 7.7666 41.9666 8.1066 41.4799 8.6866L28.0266 24.6866C26.9932 25.9133 26.4266 27.4666 26.4266 29.0733V54.8999C26.4266 55.8399 27.1932 56.6066 28.1332 56.6066H45.4666C49.3399 56.6066 52.7866 54.1266 54.0132 50.4533L59.7532 33.3066C60.2866 31.7199 60.5532 30.0533 60.5532 28.3733C60.5532 27.3799 59.7532 26.5799 58.7599 26.5799L58.7666 26.5866Z" fill="url(#paint1_linear_1269_18417)" stroke="#0094F8" stroke-width="1.28" stroke-miterlimit="10"/>
<path d="M54.0532 43.2666C50.1732 43.2666 46.7332 45.7466 45.5066 49.4199L43.0999 56.6066H45.4666C49.3399 56.6066 52.7866 54.1266 54.0132 50.4533L56.4199 43.2666H54.0532Z" fill="white"/>
<path d="M78.1399 43.2734H83.0933V73.2801H78.1399C77.1933 73.2801 76.4266 72.5134 76.4266 71.5668V44.9868C76.4266 44.0401 77.1933 43.2734 78.1399 43.2734V43.2734ZM40.7599 73.2934H57.3999L51.6399 81.9468C50.2333 83.9934 49.5799 85.1068 49.5799 86.8801C49.5799 90.1468 53.4399 92.1134 56.0733 92.1134C56.8333 92.1134 57.5599 91.7734 58.0466 91.1934L71.4933 75.1934C72.5266 73.9668 73.0933 72.4134 73.0933 70.8068V44.9801C73.0933 44.0401 72.3266 43.2734 71.3866 43.2734H54.0533C50.1799 43.2734 46.7333 45.7534 45.5066 49.4268L39.7666 66.5734C39.2333 68.1601 38.9666 69.8268 38.9666 71.5068C38.9666 72.5001 39.7666 73.3001 40.7599 73.3001V73.2934Z" stroke="#7223FF" stroke-width="1.28" stroke-miterlimit="10"/>
<path d="M21.3799 56.6066H16.4266V26.6066H21.3799C22.3266 26.6066 23.0932 27.3733 23.0932 28.3199V54.8999C23.0932 55.8466 22.3266 56.6133 21.3799 56.6133V56.6066ZM58.7666 26.5866H42.1266L47.8866 17.9333C49.2932 15.8866 49.9466 14.7733 49.9466 12.9999C49.9466 9.73327 46.0866 7.7666 43.4532 7.7666C42.6932 7.7666 41.9666 8.1066 41.4799 8.6866L28.0266 24.6866C26.9932 25.9133 26.4266 27.4666 26.4266 29.0733V54.8999C26.4266 55.8399 27.1932 56.6066 28.1332 56.6066H45.4666C49.3399 56.6066 52.7866 54.1266 54.0132 50.4533L59.7532 33.3066C60.2866 31.7199 60.5532 30.0533 60.5532 28.3733C60.5532 27.3799 59.7532 26.5799 58.7599 26.5799L58.7666 26.5866Z" stroke="#0094F8" stroke-width="1.28" stroke-miterlimit="10"/>
</g>
<defs>
<linearGradient id="paint0_linear_1269_18417" x1="83.0933" y1="67.6934" x2="38.9666" y2="67.6934" gradientUnits="userSpaceOnUse">
<stop stop-color="#F8F4FF"/>
<stop offset="0.72" stop-color="#EDE2FF"/>
</linearGradient>
<linearGradient id="paint1_linear_1269_18417" x1="16.4266" y1="32.1799" x2="60.5599" y2="32.1799" gradientUnits="userSpaceOnUse">
<stop stop-color="#F2FAFF"/>
<stop offset="0.72" stop-color="#DEF1FE"/>
</linearGradient>
</defs>
</svg>
