<svg width="100" height="100" viewBox="0 0 100 100" fill="none" xmlns="http://www.w3.org/2000/svg">
<g style="mix-blend-mode:multiply">
<path d="M93.26 49.9999C93.26 55.6199 91.7067 60.8799 89.0133 65.3666C87.8 67.3999 86.3467 69.2666 84.7 70.9466C79.2733 76.4866 71.7067 79.9199 63.3333 79.9199C54.96 79.9199 47.4933 76.5332 42.08 71.0599C40.38 69.3532 38.8933 67.4399 37.6533 65.3666C34.9533 60.8799 33.4067 55.6199 33.4067 49.9999C33.4067 33.4732 46.8 20.0732 63.3333 20.0732C79.8667 20.0732 93.26 33.4732 93.26 49.9999V49.9999Z" stroke="#0094F8" stroke-width="1.14" stroke-miterlimit="10"/>
<path d="M40 47.993V51.9997C40 52.733 39.4 53.333 38.6667 53.333H26.6667V65.333C26.6667 66.0663 26.0667 66.6663 25.3334 66.6663H21.3267C20.5934 66.6663 19.9934 66.0663 19.9934 65.333V53.333H8.00002C7.26669 53.333 6.66669 52.733 6.66669 51.9997V47.993C6.66669 47.2597 7.26669 46.6597 8.00002 46.6597H19.9734V34.6663C19.9734 33.933 20.5734 33.333 21.3067 33.333H25.3134C26.0467 33.333 26.6467 33.933 26.6467 34.6663V46.6597H38.6667C39.4 46.6597 40 47.2597 40 47.993Z" fill="url(#paint0_linear_1269_18411)" stroke="#7223FF" stroke-miterlimit="10"/>
<path d="M63.3333 53.5399C69.8245 53.5399 75.0867 48.2777 75.0867 41.7865C75.0867 35.2954 69.8245 30.0332 63.3333 30.0332C56.8422 30.0332 51.58 35.2954 51.58 41.7865C51.58 48.2777 56.8422 53.5399 63.3333 53.5399Z" fill="url(#paint1_linear_1269_18411)" stroke="#0094F8" stroke-miterlimit="10"/>
<path d="M84.7 70.9465C79.2734 76.4865 71.7067 79.9199 63.3334 79.9199C54.96 79.9199 47.4934 76.5332 42.08 71.0599L43.9 65.2465C44.8734 62.1465 47.7467 60.0332 50.9934 60.0332H75.82C79.0734 60.0332 81.94 62.1465 82.9134 65.2465L84.7 70.9465Z" fill="url(#paint2_linear_1269_18411)" stroke="#0094F8" stroke-miterlimit="10"/>
</g>
<defs>
<linearGradient id="paint0_linear_1269_18411" x1="6.66669" y1="49.9997" x2="40" y2="49.9997" gradientUnits="userSpaceOnUse">
<stop stop-color="white"/>
<stop offset="0.72" stop-color="#EDE2FF"/>
</linearGradient>
<linearGradient id="paint1_linear_1269_18411" x1="51.58" y1="41.7865" x2="75.0867" y2="41.7865" gradientUnits="userSpaceOnUse">
<stop stop-color="white"/>
<stop offset="0.72" stop-color="#DEF1FE"/>
</linearGradient>
<linearGradient id="paint2_linear_1269_18411" x1="42.08" y1="69.9732" x2="84.7" y2="69.9732" gradientUnits="userSpaceOnUse">
<stop stop-color="white"/>
<stop offset="0.72" stop-color="#DEF1FE"/>
</linearGradient>
</defs>
</svg>
