<svg width="108" height="12" viewBox="0 0 108 12" fill="none" xmlns="http://www.w3.org/2000/svg">
<path d="M2.97087 2.6602V4.52427H8.81554V7.18447H2.97087V9.28155H9.39806V11.9417H0V0H9.39806V2.6602H2.97087Z" fill="white"/>
<path d="M14.2131 2.6602H10.582V0H20.7956V2.6602H17.184V11.9417H14.2131V2.6602Z" fill="white"/>
<path d="M33.2042 0V11.9417H30.2333V7.18447H25.3595V11.9417H22.3887V0H25.3595V4.52427H30.2333V0H33.2042Z" fill="white"/>
<path d="M35.4746 0H39.8435C43.9406 0 46.8338 2.46602 46.8338 5.96117C46.8338 9.45631 43.9406 11.9417 39.8435 11.9417H35.4746V0ZM40.2901 9.24271C42.329 9.24271 43.7853 7.86408 43.7853 5.96117C43.7853 4.05825 42.329 2.69902 40.2901 2.69902H38.4455V9.24271H40.2901Z" fill="white"/>
<path d="M51.6115 2.6602V4.52427H57.4562V7.18447H51.6115V9.28155H58.0387V11.9417H48.6406V0H58.0387V2.6602H51.6115Z" fill="white"/>
<path d="M59.9023 0H62.8732L68.0771 7.04854V0H71.048V11.9417H68.0771L62.8732 4.89321V11.9417H59.9023V0Z" fill="white"/>
<path d="M85.1263 0L80.4079 11.9417H77.0681L72.3496 0H75.6894L78.738 7.72815L81.7865 0H85.1263Z" fill="white"/>
<path d="M89.3205 2.6602V4.52427H95.1651V7.18447H89.3205V9.28155H95.7477V11.9417H86.3496V0H95.7477V2.6602H89.3205Z" fill="white"/>
<path d="M104.621 11.9417L101.999 8.21359H100.543V11.9417H97.5723V0H103.106C105.728 0 107.65 1.68932 107.65 4.09708C107.65 5.82524 106.66 7.20388 105.106 7.82524L107.999 11.9223H104.621V11.9417ZM100.543 5.49514H102.834C103.864 5.49514 104.582 4.93203 104.582 4.09708C104.582 3.26213 103.844 2.69902 102.834 2.69902H100.543V5.49514Z" fill="white"/>
</svg>
