<svg width="120" height="120" viewBox="0 0 120 120" fill="none" xmlns="http://www.w3.org/2000/svg">
<g style="mix-blend-mode:multiply">
<path d="M54.568 97.6638C36 89.9358 24 71.9198 24 51.7598V30.9438C35.968 27.0478 48.048 20.9758 60 12.8638C71.952 20.9838 84.032 27.0478 96 30.9438V51.7598C96 71.9198 84 89.9358 65.424 97.6638L60 99.9038L54.568 97.6558V97.6638Z" fill="url(#paint0_linear_1268_17771)"/>
<path d="M60 12.8799C70.64 19.6879 85.368 27.4799 96 30.9439V51.7599C96 71.9199 84 89.9359 65.424 97.6639L60 99.9199V12.8799Z" fill="url(#paint1_linear_1268_17771)"/>
<path d="M54.56 97.5999C36 89.9199 24 71.9199 24 51.7599V30.9599C35.92 27.1199 48 21.0399 60 12.8799C72 21.0399 84.08 27.1199 96 30.9599V51.7599C96 71.9199 84 89.9199 65.44 97.6799L60 99.9199L54.56 97.5999V97.5999Z" stroke="#7223FF" stroke-miterlimit="10"/>
<path d="M87.9999 84.0799C94.6715 84.0799 100.08 78.6715 100.08 71.9999C100.08 65.3283 94.6715 59.9199 87.9999 59.9199C81.3283 59.9199 75.9199 65.3283 75.9199 71.9999C75.9199 78.6715 81.3283 84.0799 87.9999 84.0799Z" fill="white" stroke="#3535DC" stroke-width="1.01" stroke-miterlimit="10"/>
<path d="M107.432 52.5681L88.568 71.4321C88.256 71.7441 87.752 71.7441 87.44 71.4321L84.568 68.5601C84.256 68.2481 83.752 68.2481 83.44 68.5601L80.568 71.4321C80.256 71.7441 80.256 72.2481 80.568 72.5601L87.44 79.4321C87.752 79.7441 88.256 79.7441 88.568 79.4321L111.44 56.6321C111.752 56.3201 111.752 55.8161 111.44 55.5041L108.56 52.5681C108.248 52.2481 107.736 52.2481 107.424 52.5681H107.432Z" fill="#3535DC"/>
</g>
<defs>
<linearGradient id="paint0_linear_1268_17771" x1="26.296" y1="109.656" x2="83.424" y2="4.67177" gradientUnits="userSpaceOnUse">
<stop stop-color="white"/>
<stop offset="0.72" stop-color="#E3D3FF"/>
</linearGradient>
<linearGradient id="paint1_linear_1268_17771" x1="75.64" y1="79.9839" x2="79.712" y2="-1.08812" gradientUnits="userSpaceOnUse">
<stop stop-color="white"/>
<stop offset="0.72" stop-color="#E3D3FF"/>
</linearGradient>
</defs>
</svg>
