<svg width="120" height="120" viewBox="0 0 120 120" fill="none" xmlns="http://www.w3.org/2000/svg">
<g style="mix-blend-mode:multiply">
<path opacity="0.2" d="M60.0001 107.984C86.5009 107.984 107.984 86.5009 107.984 60.0001C107.984 33.4993 86.5009 12.0161 60.0001 12.0161C33.4993 12.0161 12.0161 33.4993 12.0161 60.0001C12.0161 86.5009 33.4993 107.984 60.0001 107.984Z" fill="url(#paint0_linear_1269_18116)"/>
<path opacity="0.2" d="M60 96.104C79.9397 96.104 96.104 79.9397 96.104 60C96.104 40.0603 79.9397 23.896 60 23.896C40.0603 23.896 23.896 40.0603 23.896 60C23.896 79.9397 40.0603 96.104 60 96.104Z" fill="url(#paint1_linear_1269_18116)"/>
<path opacity="0.2" d="M59.9998 83.9918C73.2502 83.9918 83.9918 73.2502 83.9918 59.9998C83.9918 46.7494 73.2502 36.0078 59.9998 36.0078C46.7494 36.0078 36.0078 46.7494 36.0078 59.9998C36.0078 73.2502 46.7494 83.9918 59.9998 83.9918Z" fill="url(#paint2_linear_1269_18116)"/>
<path d="M60.0001 107.984C86.5009 107.984 107.984 86.5009 107.984 60.0001C107.984 33.4993 86.5009 12.0161 60.0001 12.0161C33.4993 12.0161 12.0161 33.4993 12.0161 60.0001C12.0161 86.5009 33.4993 107.984 60.0001 107.984Z" stroke="#7223FF" stroke-miterlimit="10"/>
<path d="M60 96.104C79.9397 96.104 96.104 79.9397 96.104 60C96.104 40.0603 79.9397 23.896 60 23.896C40.0603 23.896 23.896 40.0603 23.896 60C23.896 79.9397 40.0603 96.104 60 96.104Z" stroke="#7223FF" stroke-miterlimit="10"/>
<path d="M59.9998 83.9918C73.2502 83.9918 83.9918 73.2502 83.9918 59.9998C83.9918 46.7494 73.2502 36.0078 59.9998 36.0078C46.7494 36.0078 36.0078 46.7494 36.0078 59.9998C36.0078 73.2502 46.7494 83.9918 59.9998 83.9918Z" stroke="#7223FF" stroke-miterlimit="10"/>
<path opacity="0.2" d="M60 72C66.6274 72 72 66.6274 72 60C72 53.3726 66.6274 48 60 48C53.3726 48 48 53.3726 48 60C48 66.6274 53.3726 72 60 72Z" fill="url(#paint3_linear_1269_18116)"/>
<path d="M60 72C66.6274 72 72 66.6274 72 60C72 53.3726 66.6274 48 60 48C53.3726 48 48 53.3726 48 60C48 66.6274 53.3726 72 60 72Z" stroke="#7223FF" stroke-miterlimit="10"/>
<path d="M60 64C62.2091 64 64 62.2091 64 60C64 57.7909 62.2091 56 60 56C57.7909 56 56 57.7909 56 60C56 62.2091 57.7909 64 60 64Z" fill="#7223FF"/>
</g>
<defs>
<linearGradient id="paint0_linear_1269_18116" x1="20.3201" y1="20.3201" x2="71.2961" y2="71.2961" gradientUnits="userSpaceOnUse">
<stop stop-color="white"/>
<stop offset="0.09" stop-color="#FAF7FF"/>
<stop offset="0.22" stop-color="#ECE2FF"/>
<stop offset="0.38" stop-color="#D7C0FF"/>
<stop offset="0.56" stop-color="#B891FF"/>
<stop offset="0.76" stop-color="#9255FF"/>
<stop offset="0.91" stop-color="#7223FF"/>
</linearGradient>
<linearGradient id="paint1_linear_1269_18116" x1="35.896" y1="35.896" x2="85.76" y2="85.76" gradientUnits="userSpaceOnUse">
<stop stop-color="white"/>
<stop offset="0.72" stop-color="#7223FF"/>
</linearGradient>
<linearGradient id="paint2_linear_1269_18116" x1="50.6478" y1="50.6478" x2="97.9838" y2="97.9838" gradientUnits="userSpaceOnUse">
<stop stop-color="white"/>
<stop offset="0.72" stop-color="#7223FF"/>
</linearGradient>
<linearGradient id="paint3_linear_1269_18116" x1="39.976" y1="39.976" x2="81.4" y2="81.4" gradientUnits="userSpaceOnUse">
<stop offset="0.26" stop-color="white"/>
<stop offset="0.72" stop-color="#7223FF"/>
</linearGradient>
</defs>
</svg>
