<?xml version="1.0" encoding="utf-8"?>
<!-- Generator: Adobe Illustrator 26.2.1, SVG Export Plug-In . SVG Version: 6.00 Build 0)  -->
<svg version="1.1" xmlns="http://www.w3.org/2000/svg" xmlns:xlink="http://www.w3.org/1999/xlink" x="0px" y="0px"
	 viewBox="0 0 1334.4 369" style="enable-background:new 0 0 1334.4 369;" xml:space="preserve">
<style type="text/css">
	.st0{fill:#0000B8;}
	.st1{fill:#FFFFFF;}
</style>
<g id="Layer_2">
	<rect class="st0" width="1334.4" height="369"/>
</g>
<g id="Logo">
	<g id="Guide">
	</g>
	<g id="Logo_00000077297195218992323060000015299151815966716576_">
		<g>
			<polygon class="st1" points="444.1,88 276.8,184.5 444.1,281.1 444.1,255.7 320.7,184.5 444.1,113.3 			"/>
			<rect x="255.3" y="88" class="st1" width="22" height="193.1"/>
			<polygon class="st1" points="88,88 88,113.3 211.3,184.5 88,255.7 88,281.1 255.3,184.5 			"/>
		</g>
		<g>
			<g>
				<polygon class="st1" points="864.2,149.6 864.2,237.6 885.8,237.6 885.8,169.7 912,169.7 912,149.6 				"/>
				<polygon class="st1" points="614.2,149.6 566.4,149.6 566.4,237.6 588,237.6 588,169.7 614.2,169.7 				"/>
				<polygon class="st1" points="539.7,129.5 491.9,129.5 491.9,149.6 518.2,149.6 518.2,237.6 539.7,237.6 539.7,149.6 
					566.4,149.6 566.4,129.5 				"/>
				<path class="st1" d="M738.5,166.3c5.3-0.5,10.5,1.9,13.4,6.7c1.4,2.4,2.4,5.3,2.4,8.1h20.6c-0.5-6.7-2.9-13.4-6.7-19.1
					c-7.2-8.6-18.2-13.9-29.6-13.4c-11.5,0-22.5,4.8-30.1,13.9c-12.9,19.1-12.9,44,0,63.6c7.6,8.6,18.6,13.9,30.1,13.9
					s22.5-4.8,29.6-13.4c4.3-5.3,6.7-12,6.7-19.1h-20.6c0,2.9-1,5.7-2.4,8.1c-2.9,4.3-8.1,6.7-13.4,6.7c-4.8,0-9.6-1.9-12.9-5.7
					c-4.8-6.2-6.7-14.3-5.7-22c-1-7.6,1.4-15.8,5.7-22C729,168.3,733.7,166.3,738.5,166.3"/>
				<path class="st1" d="M799.2,185.5c0-4.8,1.4-9.6,4.3-13.4c3.3-4.3,9.1-7.2,14.3-6.7c4.8-0.5,9.6,1.4,13.4,5.3
					c3.8,4.3,5.7,9.6,5.7,15.3L799.2,185.5L799.2,185.5z M818.8,148.7c-10.5,0-20.1,3.8-27.7,11c-8.6,9.6-12.9,22-12.4,34.9
					c-0.5,12.9,4.3,25.3,13.4,34.9c7.2,7.2,17.2,11,27.7,10.5c11,0.5,22-3.8,29.2-12.4c3.8-4.8,6.2-10,7.2-15.8H836
					c-0.5,2.9-1.9,5.3-4.3,7.2c-3.3,3.3-8.1,4.8-12.9,4.3c-4.8,0-9.6-1.9-12.9-5.7c-4.3-4.8-6.7-11-6.2-17.2H858v-5.7
					c1-10.5-1.9-21.5-7.6-30.1C843.2,153.9,831.3,148.2,818.8,148.7"/>
				<path class="st1" d="M668.7,202.7c0,12.9-9.1,20.1-22,20.1c-6.2,0.5-12-4.3-12.4-10.5l0,0v-0.5c0.5-6.2,6.2-11.5,12.4-11l22-1.9
					V202.7L668.7,202.7z M689.3,207.9L689.3,207.9v-24.4c0.5-5.7-0.5-12-2.4-17.7c-4.8-12.9-17.7-17.7-32.5-17.7
					c-19.6,0-34.9,8.6-35.9,28.2h20.1c0.5-8.1,6.2-12.4,15.8-12.4c12,0,14.8,5.7,14.8,13.9v5.7l-25.3,1.9
					c-16.7,1.4-29.2,10.5-29.2,27.2c0,14.3,11,27.2,31.5,27.2c10.5,0.5,20.6-4.3,26.3-12.9v12h24.9v-15.3h-7.6L689.3,207.9z"/>
			</g>
			<g>
				<path class="st1" d="M1098.5,133.8l-20.6,61.2h41.6L1098.5,133.8z M1133.8,237.1l-9.6-27.7h-51.1l-9.6,27.7h-14.8l41.6-117.6
					h17.2l41.6,117.6H1133.8z"/>
				<path class="st1" d="M1221.1,140.1c-5.7-5.7-13.4-8.6-21.5-8.6s-15.8,2.9-21.5,8.6c-9.6,10-10,25.8-10,38.2s0.5,28.2,10,38.2
					c5.7,5.7,13.4,8.6,21.5,8.6s15.8-2.9,21.5-8.6c9.6-10,10-25.8,10-38.2S1230.7,149.6,1221.1,140.1 M1231.1,226.6
					c-8.6,8.1-20.1,12.4-31.5,12.4c-12,0-23.4-4.3-31.5-12.4c-12.9-12.4-15.3-29.6-15.3-48.8c0-18.6,2.4-35.9,15.3-48.8
					c8.6-8.1,20.1-12.4,31.5-12.4c12,0,23.4,4.3,31.5,12.4c12.9,12.4,15.3,29.6,15.3,48.8S1244,214.1,1231.1,226.6"/>
				<path class="st1" d="M1022,141c-5.3-5.3-13.4-8.1-21-8.1h-26.3v90.3h26.3c7.6,0,15.3-2.9,21-8.1c9.1-9.6,10-24.4,10-37.3
					S1031.5,150.6,1022,141 M1032,225.1c-8.1,8.1-19.6,12-31.1,12h-41.1V119h41.1c11.5,0,22.5,3.8,31.1,12
					c12.9,12.4,15.3,30.1,15.3,46.8C1047.3,195,1044.9,212.7,1032,225.1"/>
			</g>
		</g>
	</g>
</g>
</svg>
