<svg width="18" height="18" viewBox="0 0 18 18" fill="none" xmlns="http://www.w3.org/2000/svg">
<path d="M9.21875 0C4.40234 0 0.5 3.9375 0.5 8.71875C0.5 13.5352 4.40234 17.4375 9.21875 17.4375C14 17.4375 17.9375 13.5352 17.9375 8.71875C17.9375 3.9375 14 0 9.21875 0ZM14.9492 4.04297C16.0039 5.30859 16.6367 6.92578 16.6367 8.68359C16.3906 8.61328 13.9297 8.12109 11.4688 8.4375C11.2578 7.94531 11.082 7.52344 10.8008 6.96094C13.5781 5.83594 14.8086 4.25391 14.9492 4.04297ZM14.1406 3.16406C14 3.375 12.875 4.88672 10.2383 5.87109C9.00781 3.62109 7.67188 1.79297 7.46094 1.51172C9.81641 0.949219 12.3125 1.54688 14.1406 3.16406ZM6.01953 2.00391C6.23047 2.28516 7.56641 4.11328 8.79688 6.32812C5.31641 7.24219 2.25781 7.24219 1.90625 7.20703C2.39844 4.92188 3.94531 2.98828 6.01953 2.00391ZM1.76562 8.75391C1.76562 8.68359 1.76562 8.61328 1.76562 8.50781C2.08203 8.54297 5.70312 8.57812 9.39453 7.45312C9.64062 7.875 9.81641 8.29688 10.0273 8.71875C7.32031 9.49219 4.85938 11.6719 3.66406 13.7109C2.46875 12.4102 1.76562 10.6523 1.76562 8.75391ZM4.61328 14.625C5.42188 13.043 7.53125 10.9688 10.5195 9.94922C11.5742 12.6562 11.9961 14.9414 12.1016 15.6094C9.71094 16.6289 6.82812 16.3477 4.61328 14.625ZM13.3672 14.9062C13.2969 14.4844 12.875 12.3047 11.9258 9.59766C14.2461 9.24609 16.2852 9.84375 16.5664 9.91406C16.2148 11.9883 15.0195 13.7812 13.3672 14.9062Z" fill="white"/>
</svg>
