<svg width="25" height="24" viewBox="0 0 25 24" fill="none" xmlns="http://www.w3.org/2000/svg">
<path d="M9.30078 16.7109C9.30078 16.6406 9.23047 16.5703 9.125 16.5703C9.01953 16.5703 8.94922 16.6406 8.94922 16.7109C8.94922 16.7812 9.01953 16.8516 9.125 16.8164C9.23047 16.8164 9.30078 16.7812 9.30078 16.7109ZM8.21094 16.5352C8.21094 16.6055 8.28125 16.7109 8.38672 16.7109C8.45703 16.7461 8.5625 16.7109 8.59766 16.6406C8.59766 16.5703 8.5625 16.5 8.45703 16.4648C8.35156 16.4297 8.24609 16.4648 8.21094 16.5352ZM9.79297 16.5C9.6875 16.5 9.61719 16.5703 9.61719 16.6758C9.61719 16.7461 9.72266 16.7812 9.82812 16.7461C9.93359 16.7109 10.0039 16.6758 9.96875 16.6055C9.96875 16.5352 9.86328 16.4648 9.79297 16.5ZM12.0781 3C7.22656 3 3.5 6.72656 3.5 11.5781C3.5 15.4805 5.92578 18.8203 9.44141 20.0156C9.89844 20.0859 10.0391 19.8047 10.0391 19.5938C10.0391 19.3477 10.0391 18.1523 10.0391 17.4141C10.0391 17.4141 7.57812 17.9414 7.05078 16.3594C7.05078 16.3594 6.66406 15.3398 6.10156 15.0938C6.10156 15.0938 5.29297 14.5312 6.13672 14.5312C6.13672 14.5312 7.01562 14.6016 7.50781 15.4453C8.28125 16.8164 9.54688 16.4297 10.0742 16.1836C10.1445 15.6211 10.3555 15.2344 10.6367 14.9883C8.66797 14.7773 6.66406 14.4961 6.66406 11.1211C6.66406 10.1367 6.94531 9.67969 7.50781 9.04688C7.40234 8.80078 7.12109 7.88672 7.61328 6.65625C8.31641 6.44531 10.0391 7.60547 10.0391 7.60547C10.7422 7.39453 11.4805 7.32422 12.2188 7.32422C12.9922 7.32422 13.7305 7.39453 14.4336 7.60547C14.4336 7.60547 16.1211 6.41016 16.8594 6.65625C17.3516 7.88672 17.0352 8.80078 16.9648 9.04688C17.5273 9.67969 17.8789 10.1367 17.8789 11.1211C17.8789 14.4961 15.8047 14.7773 13.8359 14.9883C14.1523 15.2695 14.4336 15.7969 14.4336 16.6406C14.4336 17.8008 14.3984 19.2773 14.3984 19.5586C14.3984 19.8047 14.5742 20.0859 15.0312 19.9805C18.5469 18.8203 20.9375 15.4805 20.9375 11.5781C20.9375 6.72656 16.9648 3 12.0781 3ZM6.91016 15.1289C6.83984 15.1641 6.875 15.2695 6.91016 15.3398C6.98047 15.375 7.05078 15.4102 7.12109 15.375C7.15625 15.3398 7.15625 15.2344 7.08594 15.1641C7.01562 15.1289 6.94531 15.0938 6.91016 15.1289ZM6.52344 14.8477C6.48828 14.918 6.52344 14.9531 6.59375 14.9883C6.66406 15.0234 6.73438 15.0234 6.76953 14.9531C6.76953 14.918 6.73438 14.8828 6.66406 14.8477C6.59375 14.8125 6.55859 14.8125 6.52344 14.8477ZM7.64844 16.1133C7.61328 16.1484 7.61328 16.2539 7.71875 16.3242C7.78906 16.3945 7.89453 16.4297 7.92969 16.3594C7.96484 16.3242 7.96484 16.2188 7.89453 16.1484C7.82422 16.0781 7.71875 16.043 7.64844 16.1133ZM7.26172 15.5859C7.19141 15.6211 7.19141 15.7266 7.26172 15.7969C7.33203 15.8672 7.40234 15.9023 7.47266 15.8672C7.50781 15.832 7.50781 15.7266 7.47266 15.6562C7.40234 15.5859 7.33203 15.5508 7.26172 15.5859Z" fill="white"/>
</svg>
