<svg width="222" height="47" viewBox="0 0 222 47" fill="none" xmlns="http://www.w3.org/2000/svg">
<path d="M84.3285 37.6719V13.3765L75.4222 37.2923H72.6295L63.7232 13.2246V37.7478H60.3267V8.89702H65.4592L74.0636 32.3573L82.7435 8.89702H87.8005V37.6719H84.3285ZM110.066 17.1726H106.443L100.707 33.3442L94.6689 17.1726H90.8196L98.9711 37.7478L97.688 41.1643C97.0842 42.6828 96.103 43.2142 94.5934 43.2142C93.2348 43.2142 92.1781 42.9106 92.1781 42.9106V45.9475C92.4801 46.0234 93.6122 46.3271 95.2727 46.3271C98.3673 46.3271 99.8014 44.5809 100.783 41.9236L110.066 17.1726ZM125.917 36.0016C127.275 34.6349 128.105 32.9646 128.332 30.8388H124.86C124.709 32.2054 124.181 33.1165 123.501 33.8757C122.671 34.7109 121.463 35.2423 120.029 35.2423C118.444 35.2423 117.388 34.7109 116.482 33.8757C114.897 32.5091 114.444 29.9277 114.444 27.4223C114.444 24.9168 114.897 22.3354 116.482 20.9688C117.388 20.2096 118.444 19.6022 120.029 19.6022C121.388 19.6022 122.52 20.0577 123.35 20.8929C124.105 21.6521 124.633 22.715 124.784 24.0816H128.256C128.105 21.8799 127.2 20.1336 125.841 18.767C124.407 17.4004 122.445 16.5653 120.029 16.5653C116.331 16.5653 114.067 18.2356 112.633 20.4373C111.576 22.0317 110.972 24.3094 110.972 27.3463C110.972 30.4592 111.576 32.6609 112.633 34.2553C114.067 36.3812 116.406 38.1274 120.105 38.1274C122.52 38.2033 124.482 37.4441 125.917 36.0016ZM148.56 26.5112C148.635 23.7779 147.654 21.1206 145.993 19.2985C144.484 17.7041 142.371 16.6412 139.804 16.6412C136.257 16.6412 133.54 18.4633 132.106 20.9688C130.973 22.8669 130.521 25.0686 130.521 27.5741C130.521 30.5351 131.351 33.1924 133.087 35.2423C134.672 37.1404 137.012 38.3552 139.88 38.3552C141.842 38.3552 143.654 37.8237 145.088 36.8367C146.748 35.6979 147.956 33.7998 148.258 31.7499H144.937C144.635 32.8128 144.258 33.4202 143.729 33.9516C142.899 34.8627 141.54 35.3183 139.955 35.3183C138.37 35.3183 137.163 34.7868 136.181 33.8757C134.898 32.585 134.219 30.611 134.219 28.7129H148.635L148.56 26.5112ZM143.805 21.4243C144.635 22.4873 145.088 24.0816 145.088 25.6001H134.219C134.294 22.5632 136.106 19.5263 139.804 19.5263C141.616 19.5263 142.974 20.2855 143.805 21.4243ZM156.862 37.8996C158.523 37.8996 159.277 37.6719 159.277 37.6719V34.7109C159.277 34.7109 158.976 34.7868 157.843 34.7868C156.409 34.7868 155.956 34.0276 155.956 32.6609V8.36556H152.56V32.8887C152.635 36.1534 153.919 37.8996 156.862 37.8996ZM162.598 12.4654H166.599V8.36556H162.598V12.4654ZM162.9 37.6719H166.448V17.1726H162.9V37.6719ZM187.431 37.6719V17.1726H184.034V27.8778C184.034 30.0036 183.657 32.2054 182.374 33.572C181.468 34.4831 180.336 35.0905 178.977 35.0905C175.732 35.0905 174.599 33.2683 174.599 30.1555V17.1726H171.203V30.6869C171.203 35.4701 173.543 38.2792 178.222 38.2792C180.638 38.2792 183.204 36.9886 184.26 34.6349L184.562 37.7478H187.431V37.6719ZM221.395 37.6719V24.1576C221.395 19.6022 219.206 16.5653 214.602 16.5653C212.036 16.5653 209.394 17.9319 208.338 20.4373C207.432 17.9319 205.243 16.5653 202.224 16.5653C199.96 16.5653 197.545 17.7041 196.488 19.9818L196.186 17.0208H193.167V37.5959H196.563V26.7389C196.563 25.0686 196.941 22.8669 197.922 21.5762C198.752 20.5133 199.96 19.754 201.394 19.754C204.639 19.754 205.545 21.728 205.545 24.6131V37.6719H208.942V26.7389C208.942 24.6131 209.319 22.4872 210.678 21.1206C211.508 20.2855 212.489 19.754 213.772 19.754C217.018 19.754 217.923 21.728 217.923 24.6131V37.6719H221.395Z" fill="white"/>
<path d="M4.06818 24.962H0.604645C1.12049 32.0284 4.95249 38.2115 10.4794 42.0391L12.248 39.0212C7.6791 35.856 4.58403 30.7771 4.06818 24.962ZM42.7566 24.962C42.2408 30.7771 39.1457 35.856 34.6505 39.0212L36.4191 42.0391C41.946 38.2115 45.7043 32.0284 46.2939 24.962H42.7566ZM36.4191 4.35177L34.6505 7.29609C39.1457 10.4612 42.2408 15.5402 42.7566 21.3552H46.2939C45.7043 14.2889 41.946 8.10578 36.4191 4.35177ZM10.4794 4.35177C4.8788 8.10578 1.12049 14.2889 0.604645 21.3552H4.06818C4.58403 15.5402 7.6791 10.4612 12.1743 7.29609L10.4794 4.35177ZM23.4493 0.303322C19.912 0.303322 16.5959 1.11301 13.5745 2.51156L15.3431 5.5295C17.8486 4.35177 20.5753 3.7629 23.4493 3.7629C26.3233 3.7629 29.1236 4.42538 31.5554 5.5295L33.324 2.51156C30.3026 1.11301 26.9128 0.303322 23.4493 0.303322ZM31.5554 40.7878C29.0499 41.9655 26.3233 42.5544 23.4493 42.5544C20.5753 42.5544 17.7749 41.8919 15.3431 40.7878L13.5745 43.8057C16.5959 45.2779 19.912 46.014 23.4493 46.014C26.9865 46.014 30.3026 45.2043 33.324 43.8057L31.5554 40.7878ZM7.6791 21.3552H11.1426C11.9533 15.9818 16.2274 11.7126 21.6069 10.9765V7.51692C14.3114 8.253 8.48972 14.068 7.6791 21.3552ZM35.6822 24.962C34.8716 30.3354 30.5974 34.6047 25.2179 35.4144V38.874C32.5134 38.0643 38.3351 32.2492 39.1457 24.962H35.6822ZM25.2179 7.44331V10.9765C30.5974 11.7862 34.8716 16.0555 35.6822 21.4288H39.1457C38.3351 14.068 32.5134 8.253 25.2179 7.44331ZM11.1426 24.962H7.6791C8.48972 32.2492 14.3114 38.0643 21.6069 38.874V35.4144C16.2274 34.6047 11.9533 30.3354 11.1426 24.962ZM28.4603 24.962C27.7234 27.0231 25.7337 28.4952 23.4493 28.4952C21.1648 28.4952 19.1751 27.0231 18.4382 24.962H14.8273C15.6379 28.9369 19.1751 31.9548 23.4493 31.9548C27.7234 31.9548 31.2606 28.9369 32.0712 24.962H28.4603ZM23.4493 14.3625C19.2488 14.3625 15.6379 17.3804 14.8273 21.3552H18.4382C19.1751 19.2942 21.1648 17.8221 23.4493 17.8221C25.7337 17.8221 27.7234 19.2942 28.4603 21.3552H32.0712C31.1869 17.3804 27.6497 14.3625 23.4493 14.3625Z" fill="white"/>
</svg>
