<svg width="123" height="26" viewBox="0 0 123 26" fill="none" xmlns="http://www.w3.org/2000/svg">
<path d="M46.2678 21.172V7.73196L41.3465 20.962H39.8034L34.8821 7.64796V21.214H33.0054V5.25396H35.8414L40.5958 18.232L45.392 5.25396H48.1862V21.172H46.2678ZM60.4894 9.83196H58.4876L55.3179 18.778L51.9815 9.83196H49.8545L54.3587 21.214L53.6497 23.104C53.3161 23.944 52.7739 24.238 51.9398 24.238C51.1891 24.238 50.6052 24.07 50.6052 24.07V25.75C50.772 25.792 51.3976 25.96 52.3151 25.96C54.0251 25.96 54.8175 24.994 55.3596 23.524L60.4894 9.83196ZM69.2476 20.248C69.9983 19.492 70.4571 18.568 70.5822 17.392H68.6638C68.5803 18.148 68.2884 18.652 67.9131 19.072C67.4543 19.534 66.787 19.828 65.9946 19.828C65.1188 19.828 64.5349 19.534 64.0344 19.072C63.1586 18.316 62.9084 16.888 62.9084 15.502C62.9084 14.116 63.1586 12.688 64.0344 11.932C64.5349 11.512 65.1188 11.176 65.9946 11.176C66.7453 11.176 67.3709 11.428 67.8296 11.89C68.2467 12.31 68.5386 12.898 68.6221 13.654H70.5405C70.4571 12.436 69.9566 11.47 69.2059 10.714C68.4135 9.95796 67.3292 9.49596 65.9946 9.49596C63.951 9.49596 62.6998 10.42 61.9074 11.638C61.3236 12.52 60.9899 13.78 60.9899 15.46C60.9899 17.182 61.3236 18.4 61.9074 19.282C62.6998 20.458 63.9927 21.424 66.0363 21.424C67.3709 21.466 68.4552 21.046 69.2476 20.248ZM81.7593 14.998C81.8011 13.486 81.2589 12.016 80.3414 11.008C79.5072 10.126 78.3395 9.53796 76.9215 9.53796C74.9613 9.53796 73.4599 10.546 72.6675 11.932C72.0419 12.982 71.7917 14.2 71.7917 15.586C71.7917 17.224 72.2504 18.694 73.2097 19.828C74.0855 20.878 75.3784 21.55 76.9632 21.55C78.0475 21.55 79.0485 21.256 79.8409 20.71C80.7584 20.08 81.4257 19.03 81.5925 17.896H79.7575C79.5907 18.484 79.3821 18.82 79.0902 19.114C78.6314 19.618 77.8807 19.87 77.0049 19.87C76.1291 19.87 75.4618 19.576 74.9196 19.072C74.2106 18.358 73.8353 17.266 73.8353 16.216H81.8011L81.7593 14.998ZM79.1319 12.184C79.5907 12.772 79.8409 13.654 79.8409 14.494H73.8353C73.877 12.814 74.8779 11.134 76.9215 11.134C77.9224 11.134 78.6731 11.554 79.1319 12.184ZM86.347 21.298C87.2645 21.298 87.6816 21.172 87.6816 21.172V19.534C87.6816 19.534 87.5147 19.576 86.8892 19.576C86.0967 19.576 85.8465 19.156 85.8465 18.4V4.95996H83.9698V18.526C84.0115 20.332 84.7205 21.298 86.347 21.298ZM89.5166 7.22796H91.727V4.95996H89.5166V7.22796ZM89.6834 21.172H91.6436V9.83196H89.6834V21.172ZM103.238 21.172V9.83196H101.361V15.754C101.361 16.93 101.153 18.148 100.444 18.904C99.943 19.408 99.3175 19.744 98.5668 19.744C96.7734 19.744 96.1478 18.736 96.1478 17.014V9.83196H94.2711V17.308C94.2711 19.954 95.5639 21.508 98.1497 21.508C99.4843 21.508 100.902 20.794 101.486 19.492L101.653 21.214H103.238V21.172ZM122.005 21.172V13.696C122.005 11.176 120.796 9.49596 118.252 9.49596C116.834 9.49596 115.374 10.252 114.79 11.638C114.29 10.252 113.08 9.49596 111.412 9.49596C110.161 9.49596 108.826 10.126 108.242 11.386L108.076 9.74796H106.407V21.13H108.284V15.124C108.284 14.2 108.493 12.982 109.035 12.268C109.494 11.68 110.161 11.26 110.953 11.26C112.747 11.26 113.247 12.352 113.247 13.948V21.172H115.124V15.124C115.124 13.948 115.332 12.772 116.083 12.016C116.542 11.554 117.084 11.26 117.793 11.26C119.586 11.26 120.087 12.352 120.087 13.948V21.172H122.005Z" fill="#C2E31C"/>
<path d="M1.91918 14.141H0.00537109C0.290407 18.05 2.40781 21.4705 5.46177 23.5879L6.43903 21.9184C3.91443 20.1675 2.20422 17.3578 1.91918 14.141ZM23.2969 14.141C23.0118 17.3578 21.3016 20.1675 18.8177 21.9184L19.795 23.5879C22.8489 21.4705 24.9256 18.05 25.2514 14.141H23.2969ZM19.795 2.73957L18.8177 4.36834C21.3016 6.11927 23.0118 8.92891 23.2969 12.1457H25.2514C24.9256 8.23668 22.8489 4.81625 19.795 2.73957ZM5.46177 2.73957C2.3671 4.81625 0.290407 8.23668 0.00537109 12.1457H1.91918C2.20422 8.92891 3.91443 6.11927 6.39831 4.36834L5.46177 2.73957ZM12.6284 0.5C10.6738 0.5 8.84147 0.947913 7.17198 1.72158L8.14925 3.39108C9.5337 2.73957 11.0403 2.41381 12.6284 2.41381C14.2164 2.41381 15.7638 2.78028 17.1075 3.39108L18.0848 1.72158C16.4153 0.947913 14.5422 0.5 12.6284 0.5ZM17.1075 22.8957C15.7231 23.5472 14.2164 23.8729 12.6284 23.8729C11.0403 23.8729 9.49299 23.5064 8.14925 22.8957L7.17198 24.5651C8.84147 25.3795 10.6738 25.7867 12.6284 25.7867C14.5829 25.7867 16.4153 25.3388 18.0848 24.5651L17.1075 22.8957ZM3.91443 12.1457H5.82824C6.27615 9.17323 8.63788 6.8115 11.6104 6.40431V4.4905C7.57917 4.89769 4.36234 8.11452 3.91443 12.1457ZM19.3878 14.141C18.9399 17.1135 16.5782 19.4752 13.6056 19.9231V21.837C17.6369 21.389 20.8537 18.1722 21.3016 14.141H19.3878ZM13.6056 4.44978V6.40431C16.5782 6.85222 18.9399 9.21395 19.3878 12.1865H21.3016C20.8537 8.11452 17.6369 4.89769 13.6056 4.44978ZM5.82824 14.141H3.91443C4.36234 18.1722 7.57917 21.389 11.6104 21.837V19.9231C8.63788 19.4752 6.27615 17.1135 5.82824 14.141ZM15.3973 14.141C14.9901 15.2811 13.8907 16.0955 12.6284 16.0955C11.3661 16.0955 10.2667 15.2811 9.85946 14.141H7.86421C8.31212 16.3398 10.2667 18.0093 12.6284 18.0093C14.9901 18.0093 16.9446 16.3398 17.3925 14.141H15.3973ZM12.6284 8.2774C10.3074 8.2774 8.31212 9.94689 7.86421 12.1457H9.85946C10.2667 11.0056 11.3661 10.1912 12.6284 10.1912C13.8907 10.1912 14.9901 11.0056 15.3973 12.1457H17.3925C16.9039 9.94689 14.9494 8.2774 12.6284 8.2774Z" fill="#C2E31C"/>
</svg>
