<svg width="300" height="51" viewBox="0 0 300 51" fill="none" xmlns="http://www.w3.org/2000/svg">
<path d="M92.222 0L48.895 24.9914L92.222 50.0086V43.4306L60.2642 24.9914L92.222 6.55214V0Z" fill="#0000B0"/>
<path d="M49.0244 0H43.3269V50.0086H49.0244V0Z" fill="#0000B0"/>
<path d="M0 0V6.55214L31.932 24.9914L0 43.4306V50.0086L43.327 24.9914L0 0Z" fill="#0000B0"/>
<path d="M201.019 15.953V38.7431H206.612V21.1585H213.398V15.953H201.019Z" fill="#0000B0"/>
<path d="M136.274 15.953H123.895V38.7431H129.489V21.1585H136.274V15.953Z" fill="#0000B0"/>
<path d="M116.98 10.7476H104.601V15.953H111.412V38.7431H116.98V15.953H123.895V10.7476H116.98Z" fill="#0000B0"/>
<path d="M168.465 20.2779C169.838 20.1485 171.184 20.77 171.935 22.0131C172.298 22.6346 172.557 23.3857 172.557 24.1108H177.892C177.762 22.3757 177.141 20.6405 176.157 19.1643C174.292 16.9371 171.443 15.5645 168.491 15.694C165.513 15.694 162.664 16.9371 160.696 19.2938C157.355 24.2403 157.355 30.6889 160.696 35.7648C162.664 37.992 165.513 39.3646 168.491 39.3646C171.469 39.3646 174.318 38.1215 176.157 35.8943C177.27 34.5217 177.892 32.7866 177.892 30.9478H172.557C172.557 31.6989 172.298 32.424 171.935 33.0456C171.184 34.1592 169.838 34.7807 168.465 34.7807C167.222 34.7807 165.979 34.2886 165.124 33.3045C163.881 31.6989 163.389 29.6011 163.648 27.607C163.389 25.6388 164.011 23.5152 165.124 21.9095C166.005 20.7959 167.222 20.2779 168.465 20.2779Z" fill="#0000B0"/>
<path d="M184.185 25.2503C184.185 24.0072 184.547 22.7642 185.299 21.78C186.153 20.6664 187.655 19.9154 189.002 20.0449C190.245 19.9154 191.488 20.4075 192.472 21.4175C193.456 22.5311 193.948 23.9037 193.948 25.3798L184.185 25.2503ZM189.261 15.7199C186.542 15.7199 184.055 16.7041 182.087 18.5687C179.86 21.0549 178.746 24.2662 178.876 27.607C178.746 30.9479 179.989 34.1592 182.346 36.6454C184.211 38.51 186.801 39.4941 189.52 39.3646C192.369 39.4941 195.217 38.3805 197.082 36.1533C198.066 34.9102 198.688 33.5635 198.947 32.0615H193.715C193.586 32.8125 193.223 33.434 192.602 33.9261C191.747 34.7807 190.504 35.1692 189.261 35.0397C188.018 35.0397 186.775 34.5476 185.92 33.5635C184.806 32.3204 184.185 30.7148 184.314 29.1091H199.413V27.6329C199.672 24.9137 198.921 22.0649 197.445 19.8377C195.58 17.0666 192.498 15.5905 189.261 15.7199Z" fill="#0000B0"/>
<path d="M150.388 29.7048C150.388 33.0456 148.032 34.9102 144.691 34.9102C143.085 35.0397 141.583 33.7966 141.48 32.191V32.0615C141.609 30.4558 143.085 29.0832 144.691 29.2127L150.388 28.7206V29.7048ZM155.723 31.0514V24.7324C155.853 23.2562 155.594 21.6247 155.102 20.1485C153.859 16.8077 150.518 15.5646 146.685 15.5646C141.609 15.5646 137.647 17.7918 137.388 22.8678H142.593C142.723 20.77 144.199 19.6564 146.685 19.6564C149.793 19.6564 150.518 21.1326 150.518 23.2562V24.7324L143.966 25.2244C139.641 25.587 136.404 27.9437 136.404 32.2687C136.404 35.972 139.252 39.3128 144.561 39.3128C147.281 39.4423 149.896 38.1992 151.372 35.972V39.0798H157.821V35.1174H155.853L155.723 31.0514Z" fill="#0000B0"/>
<path d="M261.697 11.8612L256.362 27.7106H267.136L261.697 11.8612ZM270.839 38.6136L268.353 31.4399H255.119L252.633 38.6136H248.8L259.574 8.15778H264.028L274.801 38.6136H270.839Z" fill="#0000B0"/>
<path d="M293.448 13.4927C291.972 12.0165 289.977 11.2655 287.88 11.2655C285.782 11.2655 283.788 12.0165 282.312 13.4927C279.825 16.0825 279.722 20.1744 279.722 23.3857C279.722 26.597 279.851 30.6889 282.312 33.2786C283.788 34.7548 285.782 35.5058 287.88 35.5058C289.977 35.5058 291.972 34.7548 293.448 33.2786C295.934 30.6889 296.037 26.597 296.037 23.3857C296.037 20.1744 295.934 15.953 293.448 13.4927ZM296.037 35.8943C293.81 37.992 290.832 39.1056 287.88 39.1056C284.772 39.1056 281.82 37.992 279.722 35.8943C276.381 32.683 275.76 28.2286 275.76 23.2562C275.76 18.4392 276.381 13.9589 279.722 10.6181C281.949 8.52034 284.927 7.40674 287.88 7.40674C290.987 7.40674 293.94 8.52034 296.037 10.6181C299.378 13.8294 300 18.2838 300 23.2562C300 28.2286 299.378 32.6571 296.037 35.8943Z" fill="#0000B0"/>
<path d="M241.885 13.7258C240.513 12.3532 238.415 11.6281 236.447 11.6281H229.636V35.0138H236.447C238.415 35.0138 240.409 34.2627 241.885 32.916C244.242 30.4298 244.475 26.597 244.475 23.2562C244.475 19.9153 244.346 16.212 241.885 13.7258ZM244.475 35.5058C242.377 37.6035 239.399 38.6136 236.421 38.6136H225.777V8.02826H236.421C239.399 8.02826 242.248 9.01238 244.475 11.136C247.816 14.3473 248.437 18.9312 248.437 23.2562C248.437 27.7106 247.816 32.2945 244.475 35.5058Z" fill="#0000B0"/>
</svg>
