<svg width="20" height="19" viewBox="0 0 20 19" fill="none" xmlns="http://www.w3.org/2000/svg">
<path d="M9.68971 10.7638L9.33615 10.4103L6.20786 7.28197C6.20784 7.28195 6.20782 7.28193 6.2078 7.28191C6.12342 7.19758 6.00901 7.15021 5.88971 7.15021C5.77043 7.15021 5.65604 7.19756 5.57166 7.28186C5.57165 7.28188 5.57163 7.2819 5.57161 7.28191C5.57159 7.28193 5.57158 7.28195 5.57156 7.28197C5.48726 7.36634 5.43991 7.48074 5.43991 7.60001C5.43991 7.71931 5.48728 7.83372 5.57161 7.91811L5.21813 8.27159L5.57166 7.91816L9.68971 10.7638ZM9.68971 10.7638L10.0433 10.4103M9.68971 10.7638L10.0433 10.4103M10.0433 10.4103L13.1716 7.28191L13.1717 7.28197M10.0433 10.4103L13.1717 7.28197M13.1717 7.28197L13.1777 7.27572M13.1717 7.28197L13.1777 7.27572M13.1777 7.27572C13.2192 7.23274 13.2689 7.19845 13.3238 7.17487C13.3787 7.15129 13.4377 7.13887 13.4975 7.13835C13.5572 7.13783 13.6165 7.14922 13.6718 7.17185C13.7271 7.19447 13.7773 7.22789 13.8196 7.27014C13.8618 7.31239 13.8952 7.36263 13.9179 7.41794C13.9405 7.47324 13.9519 7.5325 13.9514 7.59225C13.9508 7.652 13.9384 7.71105 13.9148 7.76595C13.8913 7.82085 13.857 7.8705 13.814 7.91202L13.814 7.91196M13.1777 7.27572L13.814 7.91196M13.814 7.91196L13.8078 7.91811M13.814 7.91196L13.8078 7.91811M13.8078 7.91811L10.0079 11.7181M13.8078 7.91811L10.0079 11.7181M10.0079 11.7181C10.0078 11.7181 10.0078 11.7181 10.0078 11.7181M10.0079 11.7181L10.0078 11.7181M10.0078 11.7181C9.92342 11.8024 9.80901 11.8498 9.68971 11.8498M10.0078 11.7181L9.68971 11.8498M9.68971 11.8498C9.57041 11.8498 9.45599 11.8024 9.37161 11.7181M9.68971 11.8498L9.37161 11.7181M9.37161 11.7181C9.37159 11.7181 9.37158 11.7181 9.37156 11.7181L9.37161 11.7181Z" fill="white" stroke="white"/>
</svg>
