<svg width="21" height="20" viewBox="0 0 21 20" fill="none" xmlns="http://www.w3.org/2000/svg">
<path d="M11.1897 3C10.9245 3 10.6701 3.10536 10.4826 3.29289C10.2951 3.48043 10.1897 3.73478 10.1897 4C10.1897 4.26522 10.2951 4.51957 10.4826 4.70711C10.6701 4.89464 10.9245 5 11.1897 5H13.7757L7.48269 11.293C7.38718 11.3852 7.311 11.4956 7.25859 11.6176C7.20618 11.7396 7.1786 11.8708 7.17744 12.0036C7.17629 12.1364 7.20159 12.2681 7.25187 12.391C7.30215 12.5139 7.37641 12.6255 7.4703 12.7194C7.56419 12.8133 7.67584 12.8875 7.79874 12.9378C7.92164 12.9881 8.05332 13.0134 8.1861 13.0123C8.31888 13.0111 8.45009 12.9835 8.5721 12.9311C8.6941 12.8787 8.80445 12.8025 8.89669 12.707L15.1897 6.414V9C15.1897 9.26522 15.2951 9.51957 15.4826 9.70711C15.6701 9.89464 15.9245 10 16.1897 10C16.4549 10 16.7093 9.89464 16.8968 9.70711C17.0843 9.51957 17.1897 9.26522 17.1897 9V4C17.1897 3.73478 17.0843 3.48043 16.8968 3.29289C16.7093 3.10536 16.4549 3 16.1897 3H11.1897Z" fill="white"/>
<path d="M5.1897 5C4.65926 5 4.15056 5.21071 3.77548 5.58579C3.40041 5.96086 3.1897 6.46957 3.1897 7V15C3.1897 15.5304 3.40041 16.0391 3.77548 16.4142C4.15056 16.7893 4.65926 17 5.1897 17H13.1897C13.7201 17 14.2288 16.7893 14.6039 16.4142C14.979 16.0391 15.1897 15.5304 15.1897 15V12C15.1897 11.7348 15.0843 11.4804 14.8968 11.2929C14.7093 11.1054 14.4549 11 14.1897 11C13.9245 11 13.6701 11.1054 13.4826 11.2929C13.2951 11.4804 13.1897 11.7348 13.1897 12V15H5.1897V7H8.1897C8.45491 7 8.70927 6.89464 8.8968 6.70711C9.08434 6.51957 9.1897 6.26522 9.1897 6C9.1897 5.73478 9.08434 5.48043 8.8968 5.29289C8.70927 5.10536 8.45491 5 8.1897 5H5.1897Z" fill="white"/>
</svg>
