<svg width="389" height="210" viewBox="0 0 389 210" fill="none" xmlns="http://www.w3.org/2000/svg">
<circle cx="25" cy="17" r="17" fill="#0D2BD3"/>
<path d="M35.0006 12.0029L25.6143 17.4253L35.0006 22.8419V21.4227L28.0824 17.4273L35.0006 13.4319V12.0029Z" fill="white"/>
<path d="M25.6208 12.0029H24.3867V22.8426H25.6208V12.0029Z" fill="white"/>
<path d="M15 13.429L21.9181 17.4243L15 21.4197V22.8389L24.3863 17.4223L15 12V13.429Z" fill="white"/>
<path d="M52.44 23V14.104H49.416V12.536H57.32V14.104H54.296V23H52.44ZM58.1993 23V15.144H59.7193L59.8473 16.536H59.9113C60.1886 16.024 60.5246 15.6347 60.9193 15.368C61.3139 15.0907 61.7193 14.952 62.1353 14.952C62.5086 14.952 62.8073 15.0053 63.0313 15.112L62.7113 16.712C62.5726 16.6693 62.4446 16.6373 62.3273 16.616C62.2099 16.5947 62.0659 16.584 61.8953 16.584C61.5859 16.584 61.2606 16.7067 60.9193 16.952C60.5779 17.1867 60.2846 17.6027 60.0393 18.2V23H58.1993ZM65.6501 23.192C64.9568 23.192 64.3968 22.984 63.9701 22.568C63.5435 22.1413 63.3301 21.5813 63.3301 20.888C63.3301 20.472 63.4155 20.104 63.5861 19.784C63.7675 19.4533 64.0448 19.1707 64.4181 18.936C64.8021 18.7013 65.2821 18.504 65.8581 18.344C66.4448 18.184 67.1435 18.0613 67.9541 17.976C67.9435 17.7733 67.9115 17.5813 67.8581 17.4C67.8155 17.208 67.7355 17.0427 67.6181 16.904C67.5115 16.7547 67.3675 16.6427 67.1861 16.568C67.0048 16.4827 66.7808 16.44 66.5141 16.44C66.1301 16.44 65.7515 16.5147 65.3781 16.664C65.0155 16.8133 64.6581 16.9947 64.3061 17.208L63.6341 15.976C64.0715 15.6987 64.5621 15.4587 65.1061 15.256C65.6501 15.0533 66.2368 14.952 66.8661 14.952C67.8475 14.952 68.5781 15.2453 69.0581 15.832C69.5488 16.408 69.7941 17.2453 69.7941 18.344V23H68.2741L68.1461 22.136H68.0821C67.7301 22.4347 67.3515 22.6853 66.9461 22.888C66.5515 23.0907 66.1195 23.192 65.6501 23.192ZM66.2421 21.752C66.5621 21.752 66.8501 21.6773 67.1061 21.528C67.3728 21.3787 67.6555 21.1653 67.9541 20.888V19.128C67.4208 19.192 66.9728 19.2773 66.6101 19.384C66.2475 19.4907 65.9541 19.6133 65.7301 19.752C65.5061 19.88 65.3461 20.0293 65.2501 20.2C65.1541 20.3707 65.1061 20.552 65.1061 20.744C65.1061 21.096 65.2128 21.352 65.4261 21.512C65.6395 21.672 65.9115 21.752 66.2421 21.752ZM75.2761 23.192C74.7428 23.192 74.2415 23.1013 73.7721 22.92C73.3135 22.7387 72.9135 22.472 72.5721 22.12C72.2308 21.768 71.9641 21.336 71.7721 20.824C71.5801 20.312 71.4841 19.7307 71.4841 19.08C71.4841 18.4293 71.5908 17.848 71.8041 17.336C72.0175 16.824 72.3055 16.392 72.6681 16.04C73.0308 15.688 73.4468 15.4213 73.9161 15.24C74.3961 15.048 74.8975 14.952 75.4201 14.952C75.9321 14.952 76.3695 15.0373 76.7321 15.208C77.1055 15.3787 77.4361 15.5867 77.7241 15.832L76.8281 17.032C76.6148 16.8507 76.4015 16.712 76.1881 16.616C75.9855 16.5093 75.7615 16.456 75.5161 16.456C74.8761 16.456 74.3588 16.696 73.9641 17.176C73.5695 17.6453 73.3721 18.28 73.3721 19.08C73.3721 19.8693 73.5641 20.504 73.9481 20.984C74.3428 21.4533 74.8495 21.688 75.4681 21.688C75.7775 21.688 76.0655 21.624 76.3321 21.496C76.6095 21.3573 76.8601 21.1973 77.0841 21.016L77.8361 22.232C77.4628 22.552 77.0521 22.792 76.6041 22.952C76.1668 23.112 75.7241 23.192 75.2761 23.192ZM82.3561 23.192C81.8121 23.192 81.3055 23.1013 80.8361 22.92C80.3668 22.728 79.9561 22.456 79.6041 22.104C79.2521 21.752 78.9748 21.3253 78.7721 20.824C78.5801 20.312 78.4841 19.7307 78.4841 19.08C78.4841 18.44 78.5855 17.864 78.7881 17.352C78.9908 16.84 79.2575 16.408 79.5881 16.056C79.9295 15.704 80.3188 15.432 80.7561 15.24C81.1935 15.048 81.6415 14.952 82.1001 14.952C82.6335 14.952 83.1028 15.0427 83.5081 15.224C83.9135 15.4053 84.2495 15.6613 84.5161 15.992C84.7935 16.3227 85.0015 16.7173 85.1401 17.176C85.2788 17.6347 85.3481 18.136 85.3481 18.68C85.3481 18.8613 85.3375 19.032 85.3161 19.192C85.3055 19.352 85.2895 19.48 85.2681 19.576H80.2761C80.3615 20.28 80.6068 20.824 81.0121 21.208C81.4281 21.5813 81.9561 21.768 82.5961 21.768C82.9375 21.768 83.2521 21.72 83.5401 21.624C83.8388 21.5173 84.1321 21.3733 84.4201 21.192L85.0441 22.344C84.6708 22.5893 84.2548 22.792 83.7961 22.952C83.3375 23.112 82.8575 23.192 82.3561 23.192ZM80.2601 18.328H83.7481C83.7481 17.72 83.6148 17.2453 83.3481 16.904C83.0921 16.552 82.6921 16.376 82.1481 16.376C81.6788 16.376 81.2681 16.5413 80.9161 16.872C80.5641 17.2027 80.3455 17.688 80.2601 18.328ZM87.1055 23V15.144H88.6255L88.7535 16.536H88.8175C89.0948 16.024 89.4308 15.6347 89.8255 15.368C90.2202 15.0907 90.6255 14.952 91.0415 14.952C91.4148 14.952 91.7135 15.0053 91.9375 15.112L91.6175 16.712C91.4788 16.6693 91.3508 16.6373 91.2335 16.616C91.1162 16.5947 90.9722 16.584 90.8015 16.584C90.4922 16.584 90.1668 16.7067 89.8255 16.952C89.4842 17.1867 89.1908 17.6027 88.9455 18.2V23H87.1055ZM96.4374 23V12.536H99.2374C100.837 12.536 102.085 12.968 102.981 13.832C103.877 14.696 104.325 15.992 104.325 17.72C104.325 18.584 104.208 19.3467 103.973 20.008C103.749 20.6693 103.419 21.224 102.981 21.672C102.555 22.1093 102.032 22.44 101.413 22.664C100.805 22.888 100.112 23 99.3334 23H96.4374ZM98.2934 21.496H99.1094C100.176 21.496 100.992 21.192 101.557 20.584C102.133 19.9653 102.421 19.0107 102.421 17.72C102.421 16.44 102.133 15.5067 101.557 14.92C100.981 14.3333 100.165 14.04 99.1094 14.04H98.2934V21.496ZM106.277 23V15.144H107.797L107.925 16.536H107.989C108.267 16.024 108.603 15.6347 108.997 15.368C109.392 15.0907 109.797 14.952 110.213 14.952C110.587 14.952 110.885 15.0053 111.109 15.112L110.789 16.712C110.651 16.6693 110.523 16.6373 110.405 16.616C110.288 16.5947 110.144 16.584 109.973 16.584C109.664 16.584 109.339 16.7067 108.997 16.952C108.656 17.1867 108.363 17.6027 108.117 18.2V23H106.277ZM115.306 23.192C114.815 23.192 114.346 23.1013 113.898 22.92C113.45 22.7387 113.05 22.472 112.698 22.12C112.357 21.768 112.085 21.336 111.882 20.824C111.679 20.312 111.578 19.7307 111.578 19.08C111.578 18.4293 111.679 17.848 111.882 17.336C112.085 16.824 112.357 16.392 112.698 16.04C113.05 15.688 113.45 15.4213 113.898 15.24C114.346 15.048 114.815 14.952 115.306 14.952C115.797 14.952 116.266 15.048 116.714 15.24C117.173 15.4213 117.573 15.688 117.914 16.04C118.255 16.392 118.527 16.824 118.73 17.336C118.943 17.848 119.05 18.4293 119.05 19.08C119.05 19.7307 118.943 20.312 118.73 20.824C118.527 21.336 118.255 21.768 117.914 22.12C117.573 22.472 117.173 22.7387 116.714 22.92C116.266 23.1013 115.797 23.192 115.306 23.192ZM115.306 21.688C115.882 21.688 116.335 21.4533 116.666 20.984C116.997 20.504 117.162 19.8693 117.162 19.08C117.162 18.28 116.997 17.6453 116.666 17.176C116.335 16.696 115.882 16.456 115.306 16.456C114.73 16.456 114.277 16.696 113.946 17.176C113.626 17.6453 113.466 18.28 113.466 19.08C113.466 19.8693 113.626 20.504 113.946 20.984C114.277 21.4533 114.73 21.688 115.306 21.688ZM120.871 26.104V15.144H122.391L122.519 15.976H122.583C122.914 15.6987 123.282 15.4587 123.687 15.256C124.092 15.0533 124.514 14.952 124.951 14.952C125.442 14.952 125.874 15.048 126.247 15.24C126.631 15.4213 126.956 15.688 127.223 16.04C127.49 16.392 127.692 16.8133 127.831 17.304C127.97 17.7947 128.039 18.344 128.039 18.952C128.039 19.624 127.943 20.2267 127.751 20.76C127.57 21.2827 127.324 21.7253 127.015 22.088C126.706 22.44 126.348 22.712 125.943 22.904C125.538 23.096 125.116 23.192 124.679 23.192C124.338 23.192 123.996 23.1173 123.655 22.968C123.314 22.8187 122.983 22.6053 122.663 22.328L122.711 23.64V26.104H120.871ZM124.295 21.672C124.818 21.672 125.255 21.448 125.607 21C125.959 20.5413 126.135 19.864 126.135 18.968C126.135 18.1787 126.002 17.5653 125.735 17.128C125.468 16.6907 125.036 16.472 124.439 16.472C123.884 16.472 123.308 16.7653 122.711 17.352V21.016C122.999 21.2613 123.276 21.432 123.543 21.528C123.81 21.624 124.06 21.672 124.295 21.672ZM134.402 23L132.322 15.144H134.178L135.122 19.224C135.207 19.5973 135.276 19.9707 135.33 20.344C135.394 20.7173 135.463 21.096 135.538 21.48H135.602C135.676 21.096 135.751 20.7173 135.826 20.344C135.911 19.9707 136.002 19.5973 136.098 19.224L137.122 15.144H138.802L139.842 19.224C139.938 19.5973 140.028 19.9707 140.114 20.344C140.199 20.7173 140.284 21.096 140.37 21.48H140.434C140.508 21.096 140.578 20.7173 140.642 20.344C140.706 19.9707 140.775 19.5973 140.85 19.224L141.794 15.144H143.522L141.522 23H139.33L138.418 19.336C138.332 18.9627 138.252 18.5947 138.178 18.232C138.103 17.8587 138.023 17.464 137.938 17.048H137.874C137.799 17.464 137.724 17.8587 137.65 18.232C137.575 18.6053 137.495 18.9787 137.41 19.352L136.514 23H134.402ZM145.074 23V15.144H146.914V23H145.074ZM146.002 13.768C145.672 13.768 145.4 13.672 145.186 13.48C144.973 13.288 144.866 13.0373 144.866 12.728C144.866 12.4187 144.973 12.168 145.186 11.976C145.4 11.7733 145.672 11.672 146.002 11.672C146.333 11.672 146.605 11.7733 146.818 11.976C147.032 12.168 147.138 12.4187 147.138 12.728C147.138 13.0373 147.032 13.288 146.818 13.48C146.605 13.672 146.333 13.768 146.002 13.768ZM152.03 23.192C151.571 23.192 151.182 23.1227 150.862 22.984C150.552 22.8453 150.296 22.6533 150.094 22.408C149.902 22.152 149.758 21.8533 149.662 21.512C149.576 21.16 149.534 20.7707 149.534 20.344V16.6H148.414V15.224L149.63 15.144L149.854 13H151.39V15.144H153.39V16.6H151.39V20.344C151.39 21.2613 151.758 21.72 152.494 21.72C152.632 21.72 152.771 21.704 152.91 21.672C153.059 21.64 153.192 21.5973 153.31 21.544L153.63 22.904C153.416 22.9787 153.171 23.0427 152.894 23.096C152.627 23.16 152.339 23.192 152.03 23.192ZM155.043 23V11.704H156.883V14.616L156.819 16.136C157.15 15.8267 157.512 15.5547 157.907 15.32C158.312 15.0747 158.787 14.952 159.331 14.952C160.174 14.952 160.787 15.224 161.171 15.768C161.555 16.3013 161.747 17.0693 161.747 18.072V23H159.907V18.312C159.907 17.6613 159.811 17.2027 159.619 16.936C159.427 16.6693 159.112 16.536 158.675 16.536C158.334 16.536 158.03 16.6213 157.763 16.792C157.507 16.952 157.214 17.192 156.883 17.512V23H155.043ZM167.328 23V12.536H170.864C171.408 12.536 171.915 12.5893 172.384 12.696C172.853 12.8027 173.259 12.9787 173.6 13.224C173.941 13.4587 174.208 13.7733 174.4 14.168C174.603 14.5627 174.704 15.0533 174.704 15.64C174.704 16.44 174.512 17.0853 174.128 17.576C173.755 18.0667 173.253 18.4187 172.624 18.632L175.12 23H173.04L170.784 18.904H169.184V23H167.328ZM169.184 17.432H170.672C171.387 17.432 171.931 17.2827 172.304 16.984C172.688 16.6853 172.88 16.2373 172.88 15.64C172.88 15.032 172.688 14.6107 172.304 14.376C171.931 14.1413 171.387 14.024 170.672 14.024H169.184V17.432ZM176.797 23V12.536H178.893L180.749 17.656C180.866 17.9867 180.978 18.328 181.085 18.68C181.191 19.0213 181.303 19.3627 181.421 19.704H181.485C181.602 19.3627 181.709 19.0213 181.805 18.68C181.911 18.328 182.023 17.9867 182.141 17.656L183.949 12.536H186.061V23H184.349V18.216C184.349 17.9707 184.354 17.704 184.365 17.416C184.386 17.128 184.407 16.84 184.429 16.552C184.45 16.2533 184.477 15.9653 184.509 15.688C184.541 15.4 184.567 15.1333 184.589 14.888H184.525L183.677 17.32L181.965 22.024H180.861L179.133 17.32L178.301 14.888H178.237C178.258 15.1333 178.279 15.4 178.301 15.688C178.333 15.9653 178.359 16.2533 178.381 16.552C178.413 16.84 178.434 17.128 178.445 17.416C178.466 17.704 178.477 17.9707 178.477 18.216V23H176.797ZM188.719 23V12.536H190.575V23H188.719ZM195.346 23V14.104H192.322V12.536H200.226V14.104H197.202V23H195.346ZM205.252 23L205.636 19.88H204.404V18.664H205.764L206.02 16.6H204.724V15.384H206.18L206.532 12.6H207.636L207.3 15.384H209.172L209.54 12.6H210.628L210.292 15.384H211.572V16.6H210.148L209.892 18.664H211.252V19.88H209.748L209.38 23H208.26L208.628 19.88H206.756L206.372 23H205.252ZM206.884 18.664H208.772L209.028 16.6H207.14L206.884 18.664ZM216.143 23.192C215.076 23.192 214.234 22.7387 213.615 21.832C212.996 20.9147 212.687 19.592 212.687 17.864C212.687 16.136 212.996 14.8347 213.615 13.96C214.234 13.0747 215.076 12.632 216.143 12.632C217.21 12.632 218.052 13.0747 218.671 13.96C219.29 14.8453 219.599 16.1467 219.599 17.864C219.599 19.592 219.29 20.9147 218.671 21.832C218.052 22.7387 217.21 23.192 216.143 23.192ZM216.143 21.752C216.388 21.752 216.612 21.688 216.815 21.56C217.028 21.4213 217.21 21.1973 217.359 20.888C217.508 20.5787 217.626 20.1787 217.711 19.688C217.796 19.1973 217.839 18.5893 217.839 17.864C217.839 17.1493 217.796 16.552 217.711 16.072C217.626 15.5813 217.508 15.1867 217.359 14.888C217.21 14.5893 217.028 14.3813 216.815 14.264C216.612 14.136 216.388 14.072 216.143 14.072C215.898 14.072 215.668 14.136 215.455 14.264C215.252 14.3813 215.076 14.5893 214.927 14.888C214.778 15.1867 214.66 15.5813 214.575 16.072C214.49 16.552 214.447 17.1493 214.447 17.864C214.447 18.5893 214.49 19.1973 214.575 19.688C214.66 20.1787 214.778 20.5787 214.927 20.888C215.076 21.1973 215.252 21.4213 215.455 21.56C215.668 21.688 215.898 21.752 216.143 21.752ZM224.65 23.192C224.149 23.192 223.674 23.096 223.226 22.904C222.778 22.7013 222.383 22.3973 222.042 21.992C221.711 21.5867 221.445 21.0693 221.242 20.44C221.05 19.8107 220.954 19.0693 220.954 18.216C220.954 17.224 221.066 16.376 221.29 15.672C221.514 14.968 221.807 14.392 222.17 13.944C222.543 13.496 222.97 13.1653 223.45 12.952C223.93 12.7387 224.431 12.632 224.954 12.632C225.573 12.632 226.101 12.744 226.538 12.968C226.986 13.192 227.365 13.464 227.674 13.784L226.682 14.904C226.501 14.68 226.261 14.4987 225.962 14.36C225.674 14.2107 225.375 14.136 225.066 14.136C224.746 14.136 224.442 14.2 224.154 14.328C223.877 14.456 223.631 14.6693 223.418 14.968C223.205 15.256 223.029 15.64 222.89 16.12C222.762 16.6 222.687 17.192 222.666 17.896C222.965 17.5227 223.311 17.2293 223.706 17.016C224.111 16.8027 224.501 16.696 224.874 16.696C225.311 16.696 225.711 16.76 226.074 16.888C226.447 17.016 226.762 17.2133 227.018 17.48C227.285 17.736 227.487 18.0613 227.626 18.456C227.775 18.8507 227.85 19.3147 227.85 19.848C227.85 20.36 227.765 20.824 227.594 21.24C227.423 21.6453 227.194 21.992 226.906 22.28C226.618 22.568 226.277 22.792 225.882 22.952C225.498 23.112 225.087 23.192 224.65 23.192ZM224.618 21.784C225.045 21.784 225.402 21.6187 225.69 21.288C225.989 20.9573 226.138 20.4773 226.138 19.848C226.138 19.24 225.999 18.7867 225.722 18.488C225.445 18.1893 225.05 18.04 224.538 18.04C224.25 18.04 223.946 18.1307 223.626 18.312C223.306 18.4827 223.002 18.7813 222.714 19.208C222.81 20.1147 223.023 20.7707 223.354 21.176C223.695 21.5813 224.117 21.784 224.618 21.784ZM230.661 17.72C230.32 17.72 230.032 17.6027 229.797 17.368C229.573 17.1333 229.461 16.8347 229.461 16.472C229.461 16.1093 229.573 15.8107 229.797 15.576C230.032 15.3413 230.32 15.224 230.661 15.224C231.002 15.224 231.285 15.3413 231.509 15.576C231.733 15.8107 231.845 16.1093 231.845 16.472C231.845 16.8347 231.733 17.1333 231.509 17.368C231.285 17.6027 231.002 17.72 230.661 17.72ZM230.661 23.192C230.32 23.192 230.032 23.0747 229.797 22.84C229.573 22.6053 229.461 22.3067 229.461 21.944C229.461 21.5813 229.573 21.2827 229.797 21.048C230.032 20.8133 230.32 20.696 230.661 20.696C231.002 20.696 231.285 20.8133 231.509 21.048C231.733 21.2827 231.845 21.5813 231.845 21.944C231.845 22.3067 231.733 22.6053 231.509 22.84C231.285 23.0747 231.002 23.192 230.661 23.192ZM239.503 23V14.104H236.479V12.536H244.383V14.104H241.359V23H239.503ZM245.262 23V15.144H246.782L246.91 16.536H246.974C247.251 16.024 247.587 15.6347 247.982 15.368C248.376 15.0907 248.782 14.952 249.198 14.952C249.571 14.952 249.87 15.0053 250.094 15.112L249.774 16.712C249.635 16.6693 249.507 16.6373 249.39 16.616C249.272 16.5947 249.128 16.584 248.958 16.584C248.648 16.584 248.323 16.7067 247.982 16.952C247.64 17.1867 247.347 17.6027 247.102 18.2V23H245.262ZM252.713 23.192C252.019 23.192 251.459 22.984 251.033 22.568C250.606 22.1413 250.393 21.5813 250.393 20.888C250.393 20.472 250.478 20.104 250.649 19.784C250.83 19.4533 251.107 19.1707 251.481 18.936C251.865 18.7013 252.345 18.504 252.921 18.344C253.507 18.184 254.206 18.0613 255.017 17.976C255.006 17.7733 254.974 17.5813 254.921 17.4C254.878 17.208 254.798 17.0427 254.681 16.904C254.574 16.7547 254.43 16.6427 254.249 16.568C254.067 16.4827 253.843 16.44 253.577 16.44C253.193 16.44 252.814 16.5147 252.441 16.664C252.078 16.8133 251.721 16.9947 251.369 17.208L250.697 15.976C251.134 15.6987 251.625 15.4587 252.169 15.256C252.713 15.0533 253.299 14.952 253.929 14.952C254.91 14.952 255.641 15.2453 256.121 15.832C256.611 16.408 256.857 17.2453 256.857 18.344V23H255.337L255.209 22.136H255.145C254.793 22.4347 254.414 22.6853 254.009 22.888C253.614 23.0907 253.182 23.192 252.713 23.192ZM253.305 21.752C253.625 21.752 253.913 21.6773 254.169 21.528C254.435 21.3787 254.718 21.1653 255.017 20.888V19.128C254.483 19.192 254.035 19.2773 253.673 19.384C253.31 19.4907 253.017 19.6133 252.793 19.752C252.569 19.88 252.409 20.0293 252.313 20.2C252.217 20.3707 252.169 20.552 252.169 20.744C252.169 21.096 252.275 21.352 252.489 21.512C252.702 21.672 252.974 21.752 253.305 21.752ZM262.339 23.192C261.805 23.192 261.304 23.1013 260.835 22.92C260.376 22.7387 259.976 22.472 259.635 22.12C259.293 21.768 259.027 21.336 258.835 20.824C258.643 20.312 258.547 19.7307 258.547 19.08C258.547 18.4293 258.653 17.848 258.867 17.336C259.08 16.824 259.368 16.392 259.731 16.04C260.093 15.688 260.509 15.4213 260.979 15.24C261.459 15.048 261.96 14.952 262.483 14.952C262.995 14.952 263.432 15.0373 263.795 15.208C264.168 15.3787 264.499 15.5867 264.787 15.832L263.891 17.032C263.677 16.8507 263.464 16.712 263.251 16.616C263.048 16.5093 262.824 16.456 262.579 16.456C261.939 16.456 261.421 16.696 261.027 17.176C260.632 17.6453 260.435 18.28 260.435 19.08C260.435 19.8693 260.627 20.504 261.011 20.984C261.405 21.4533 261.912 21.688 262.531 21.688C262.84 21.688 263.128 21.624 263.395 21.496C263.672 21.3573 263.923 21.1973 264.147 21.016L264.899 22.232C264.525 22.552 264.115 22.792 263.667 22.952C263.229 23.112 262.787 23.192 262.339 23.192ZM269.419 23.192C268.875 23.192 268.368 23.1013 267.899 22.92C267.429 22.728 267.019 22.456 266.667 22.104C266.315 21.752 266.037 21.3253 265.835 20.824C265.643 20.312 265.547 19.7307 265.547 19.08C265.547 18.44 265.648 17.864 265.851 17.352C266.053 16.84 266.32 16.408 266.651 16.056C266.992 15.704 267.381 15.432 267.819 15.24C268.256 15.048 268.704 14.952 269.163 14.952C269.696 14.952 270.165 15.0427 270.571 15.224C270.976 15.4053 271.312 15.6613 271.579 15.992C271.856 16.3227 272.064 16.7173 272.203 17.176C272.341 17.6347 272.411 18.136 272.411 18.68C272.411 18.8613 272.4 19.032 272.379 19.192C272.368 19.352 272.352 19.48 272.331 19.576H267.339C267.424 20.28 267.669 20.824 268.075 21.208C268.491 21.5813 269.019 21.768 269.659 21.768C270 21.768 270.315 21.72 270.603 21.624C270.901 21.5173 271.195 21.3733 271.483 21.192L272.107 22.344C271.733 22.5893 271.317 22.792 270.859 22.952C270.4 23.112 269.92 23.192 269.419 23.192ZM267.323 18.328H270.811C270.811 17.72 270.677 17.2453 270.411 16.904C270.155 16.552 269.755 16.376 269.211 16.376C268.741 16.376 268.331 16.5413 267.979 16.872C267.627 17.2027 267.408 17.688 267.323 18.328ZM274.168 23V15.144H275.688L275.816 16.536H275.88C276.157 16.024 276.493 15.6347 276.888 15.368C277.283 15.0907 277.688 14.952 278.104 14.952C278.477 14.952 278.776 15.0053 279 15.112L278.68 16.712C278.541 16.6693 278.413 16.6373 278.296 16.616C278.179 16.5947 278.035 16.584 277.864 16.584C277.555 16.584 277.229 16.7067 276.888 16.952C276.547 17.1867 276.253 17.6027 276.008 18.2V23H274.168ZM285.612 23V14.104H282.588V12.536H290.492V14.104H287.468V23H285.612ZM294.15 23.192C293.659 23.192 293.19 23.1013 292.742 22.92C292.294 22.7387 291.894 22.472 291.542 22.12C291.2 21.768 290.928 21.336 290.726 20.824C290.523 20.312 290.422 19.7307 290.422 19.08C290.422 18.4293 290.523 17.848 290.726 17.336C290.928 16.824 291.2 16.392 291.542 16.04C291.894 15.688 292.294 15.4213 292.742 15.24C293.19 15.048 293.659 14.952 294.15 14.952C294.64 14.952 295.11 15.048 295.558 15.24C296.016 15.4213 296.416 15.688 296.758 16.04C297.099 16.392 297.371 16.824 297.574 17.336C297.787 17.848 297.894 18.4293 297.894 19.08C297.894 19.7307 297.787 20.312 297.574 20.824C297.371 21.336 297.099 21.768 296.758 22.12C296.416 22.472 296.016 22.7387 295.558 22.92C295.11 23.1013 294.64 23.192 294.15 23.192ZM294.15 21.688C294.726 21.688 295.179 21.4533 295.51 20.984C295.84 20.504 296.006 19.8693 296.006 19.08C296.006 18.28 295.84 17.6453 295.51 17.176C295.179 16.696 294.726 16.456 294.15 16.456C293.574 16.456 293.12 16.696 292.79 17.176C292.47 17.6453 292.31 18.28 292.31 19.08C292.31 19.8693 292.47 20.504 292.79 20.984C293.12 21.4533 293.574 21.688 294.15 21.688ZM299.715 23V11.704H301.523V18.76H301.571L304.483 15.144H306.499L303.811 18.344L306.771 23H304.771L302.755 19.592L301.523 21V23H299.715ZM311.059 23.192C310.515 23.192 310.009 23.1013 309.539 22.92C309.07 22.728 308.659 22.456 308.307 22.104C307.955 21.752 307.678 21.3253 307.475 20.824C307.283 20.312 307.187 19.7307 307.187 19.08C307.187 18.44 307.289 17.864 307.491 17.352C307.694 16.84 307.961 16.408 308.291 16.056C308.633 15.704 309.022 15.432 309.459 15.24C309.897 15.048 310.345 14.952 310.803 14.952C311.337 14.952 311.806 15.0427 312.211 15.224C312.617 15.4053 312.953 15.6613 313.219 15.992C313.497 16.3227 313.705 16.7173 313.843 17.176C313.982 17.6347 314.051 18.136 314.051 18.68C314.051 18.8613 314.041 19.032 314.019 19.192C314.009 19.352 313.993 19.48 313.971 19.576H308.979C309.065 20.28 309.31 20.824 309.715 21.208C310.131 21.5813 310.659 21.768 311.299 21.768C311.641 21.768 311.955 21.72 312.243 21.624C312.542 21.5173 312.835 21.3733 313.123 21.192L313.747 22.344C313.374 22.5893 312.958 22.792 312.499 22.952C312.041 23.112 311.561 23.192 311.059 23.192ZM308.963 18.328H312.451C312.451 17.72 312.318 17.2453 312.051 16.904C311.795 16.552 311.395 16.376 310.851 16.376C310.382 16.376 309.971 16.5413 309.619 16.872C309.267 17.2027 309.049 17.688 308.963 18.328ZM315.809 23V15.144H317.329L317.457 16.2H317.521C317.873 15.8587 318.251 15.5653 318.657 15.32C319.073 15.0747 319.553 14.952 320.097 14.952C320.939 14.952 321.553 15.224 321.937 15.768C322.321 16.3013 322.513 17.0693 322.513 18.072V23H320.673V18.312C320.673 17.6613 320.577 17.2027 320.385 16.936C320.193 16.6693 319.878 16.536 319.441 16.536C319.099 16.536 318.795 16.6213 318.529 16.792C318.273 16.952 317.979 17.192 317.649 17.512V23H315.809ZM325.802 23.192C325.46 23.192 325.172 23.0747 324.938 22.84C324.714 22.6053 324.602 22.3067 324.602 21.944C324.602 21.5813 324.714 21.2827 324.938 21.048C325.172 20.8133 325.46 20.696 325.802 20.696C326.143 20.696 326.426 20.8133 326.65 21.048C326.874 21.2827 326.986 21.5813 326.986 21.944C326.986 22.3067 326.874 22.6053 326.65 22.84C326.426 23.0747 326.143 23.192 325.802 23.192ZM330.208 23.192C329.867 23.192 329.579 23.0747 329.344 22.84C329.12 22.6053 329.008 22.3067 329.008 21.944C329.008 21.5813 329.12 21.2827 329.344 21.048C329.579 20.8133 329.867 20.696 330.208 20.696C330.549 20.696 330.832 20.8133 331.056 21.048C331.28 21.2827 331.392 21.5813 331.392 21.944C331.392 22.3067 331.28 22.6053 331.056 22.84C330.832 23.0747 330.549 23.192 330.208 23.192ZM334.614 23.192C334.273 23.192 333.985 23.0747 333.75 22.84C333.526 22.6053 333.414 22.3067 333.414 21.944C333.414 21.5813 333.526 21.2827 333.75 21.048C333.985 20.8133 334.273 20.696 334.614 20.696C334.956 20.696 335.238 20.8133 335.462 21.048C335.686 21.2827 335.798 21.5813 335.798 21.944C335.798 22.3067 335.686 22.6053 335.462 22.84C335.238 23.0747 334.956 23.192 334.614 23.192Z" fill="white"/>
<g style="mix-blend-mode:multiply" opacity="0.5">
<rect y="179" width="162" height="31" fill="black"/>
</g>
<path fill-rule="evenodd" clip-rule="evenodd" d="M97.6895 188.52C97.4113 187.452 96.5914 186.61 95.5503 186.324C93.6636 185.805 86.0976 185.805 86.0976 185.805C86.0976 185.805 78.5315 185.805 76.6447 186.324C75.6036 186.61 74.7837 187.452 74.5055 188.52C74 190.458 74 194.5 74 194.5C74 194.5 74 198.542 74.5055 200.48C74.7837 201.549 75.6036 202.39 76.6447 202.676C78.5315 203.195 86.0976 203.195 86.0976 203.195C86.0976 203.195 93.6636 203.195 95.5503 202.676C96.5914 202.39 97.4113 201.549 97.6895 200.48C98.1951 198.542 98.1951 194.5 98.1951 194.5C98.1951 194.5 98.1951 190.458 97.6895 188.52Z" fill="white"/>
<path fill-rule="evenodd" clip-rule="evenodd" d="M83.8301 198.659V191.098L89.8789 194.878L83.8301 198.659Z" fill="black"/>
<path d="M106.466 194.079L108.255 190.204H110.193L107.369 195.686V198.805H105.568V195.686L102.744 190.204H104.688L106.466 194.079ZM110.211 195.55C110.211 194.916 110.333 194.351 110.577 193.855C110.821 193.359 111.172 192.975 111.628 192.703C112.089 192.431 112.623 192.295 113.229 192.295C114.092 192.295 114.795 192.559 115.338 193.087C115.885 193.615 116.191 194.331 116.254 195.237L116.265 195.674C116.265 196.655 115.992 197.442 115.444 198.037C114.897 198.628 114.162 198.923 113.241 198.923C112.32 198.923 111.583 198.628 111.032 198.037C110.484 197.446 110.211 196.643 110.211 195.627V195.55ZM111.918 195.674C111.918 196.281 112.032 196.745 112.26 197.068C112.489 197.387 112.816 197.547 113.241 197.547C113.654 197.547 113.977 197.389 114.21 197.074C114.442 196.755 114.558 196.247 114.558 195.55C114.558 194.956 114.442 194.495 114.21 194.168C113.977 193.841 113.651 193.678 113.229 193.678C112.812 193.678 112.489 193.841 112.26 194.168C112.032 194.491 111.918 194.993 111.918 195.674ZM121.145 198.155C120.723 198.667 120.14 198.923 119.396 198.923C118.711 198.923 118.187 198.726 117.825 198.332C117.466 197.939 117.283 197.362 117.275 196.602V192.414H118.983V196.543C118.983 197.208 119.286 197.541 119.892 197.541C120.471 197.541 120.869 197.34 121.086 196.938V192.414H122.799V198.805H121.192L121.145 198.155ZM130.673 191.64H128.038V198.805H126.266V191.64H123.667V190.204H130.673V191.64ZM135.014 198.155C134.593 198.667 134.01 198.923 133.266 198.923C132.581 198.923 132.057 198.726 131.695 198.332C131.336 197.939 131.153 197.362 131.145 196.602V192.414H132.852V196.543C132.852 197.208 133.156 197.541 133.762 197.541C134.341 197.541 134.739 197.34 134.955 196.938V192.414H136.668V198.805H135.061L135.014 198.155ZM143.715 195.668C143.715 196.692 143.497 197.492 143.06 198.067C142.622 198.638 142.012 198.923 141.228 198.923C140.535 198.923 139.982 198.657 139.569 198.126L139.492 198.805H137.956V189.732H139.663V192.987C140.057 192.526 140.575 192.295 141.217 192.295C141.996 192.295 142.607 192.583 143.048 193.158C143.493 193.729 143.715 194.534 143.715 195.574V195.668ZM142.008 195.544C142.008 194.898 141.906 194.428 141.701 194.132C141.496 193.833 141.191 193.684 140.785 193.684C140.242 193.684 139.868 193.906 139.663 194.351V196.873C139.872 197.322 140.25 197.547 140.797 197.547C141.349 197.547 141.711 197.275 141.884 196.732C141.967 196.472 142.008 196.076 142.008 195.544ZM147.714 198.923C146.777 198.923 146.013 198.636 145.422 198.061C144.836 197.486 144.542 196.72 144.542 195.763V195.597C144.542 194.956 144.666 194.383 144.914 193.878C145.162 193.37 145.513 192.981 145.966 192.709C146.423 192.433 146.942 192.295 147.525 192.295C148.4 192.295 149.087 192.571 149.587 193.122C150.091 193.674 150.343 194.455 150.343 195.467V196.164H146.273C146.328 196.582 146.494 196.917 146.769 197.169C147.049 197.421 147.401 197.547 147.827 197.547C148.484 197.547 148.998 197.308 149.368 196.832L150.207 197.771C149.951 198.134 149.605 198.417 149.167 198.622C148.73 198.823 148.246 198.923 147.714 198.923ZM147.519 193.678C147.181 193.678 146.905 193.792 146.692 194.02C146.484 194.249 146.35 194.576 146.291 195.001H148.665V194.865C148.657 194.487 148.555 194.195 148.358 193.991C148.161 193.782 147.882 193.678 147.519 193.678Z" fill="white"/>
<path d="M17.2193 196.094L17.3847 197.228L17.6269 196.206L19.3281 190.204H20.285L21.9449 196.206L22.1812 197.245L22.3643 196.088L23.6993 190.204H24.8393L22.7542 198.805H21.7204L19.9483 192.538L19.8125 191.882L19.6766 192.538L17.8395 198.805H16.8058L14.7265 190.204H15.8607L17.2193 196.094ZM29.6772 198.805C29.6142 198.679 29.563 198.454 29.5236 198.132C29.0156 198.659 28.4091 198.923 27.7042 198.923C27.0742 198.923 26.5563 198.746 26.1507 198.391C25.749 198.033 25.5482 197.58 25.5482 197.033C25.5482 196.367 25.8002 195.851 26.3043 195.485C26.8123 195.115 27.5251 194.93 28.4426 194.93H29.5059V194.428C29.5059 194.046 29.3917 193.743 29.1633 193.518C28.9349 193.29 28.5982 193.176 28.1532 193.176C27.7633 193.176 27.4365 193.274 27.1726 193.471C26.9088 193.668 26.7768 193.906 26.7768 194.186H25.6781C25.6781 193.867 25.7904 193.56 26.0148 193.264C26.2432 192.965 26.5504 192.729 26.9363 192.555C27.3262 192.382 27.7535 192.295 28.2182 192.295C28.9546 192.295 29.5315 192.48 29.9489 192.851C30.3663 193.217 30.5829 193.723 30.5987 194.369V197.31C30.5987 197.897 30.6735 198.364 30.8231 198.71V198.805H29.6772ZM27.8637 197.972C28.2063 197.972 28.5312 197.883 28.8384 197.706C29.1456 197.529 29.3681 197.299 29.5059 197.015V195.704H28.6494C27.3104 195.704 26.641 196.096 26.641 196.879C26.641 197.222 26.7552 197.49 26.9836 197.683C27.212 197.876 27.5054 197.972 27.8637 197.972ZM33.7944 190.866V192.414H34.9876V193.258H33.7944V197.222C33.7944 197.478 33.8475 197.671 33.9539 197.801C34.0602 197.927 34.2413 197.99 34.4973 197.99C34.6233 197.99 34.7966 197.966 35.0171 197.919V198.805C34.7297 198.884 34.4501 198.923 34.1783 198.923C33.69 198.923 33.3218 198.775 33.0737 198.48C32.8256 198.185 32.7016 197.765 32.7016 197.222V193.258H31.5379V192.414H32.7016V190.866H33.7944ZM38.8331 198.031C39.2229 198.031 39.5636 197.913 39.855 197.677C40.1464 197.44 40.3078 197.145 40.3393 196.791H41.3731C41.3534 197.157 41.2274 197.505 40.995 197.836C40.7627 198.167 40.4516 198.431 40.0617 198.628C39.6758 198.825 39.2662 198.923 38.8331 198.923C37.9628 198.923 37.2697 198.634 36.7538 198.055C36.2418 197.472 35.9859 196.676 35.9859 195.668V195.485C35.9859 194.863 36.1001 194.31 36.3285 193.825C36.5569 193.341 36.8837 192.965 37.309 192.697C37.7383 192.429 38.2443 192.295 38.8271 192.295C39.5439 192.295 40.1385 192.51 40.6111 192.939C41.0876 193.369 41.3416 193.926 41.3731 194.611H40.3393C40.3078 194.197 40.1503 193.859 39.8668 193.595C39.5872 193.327 39.2406 193.193 38.8271 193.193C38.2719 193.193 37.8407 193.394 37.5335 193.796C37.2303 194.194 37.0787 194.77 37.0787 195.527V195.733C37.0787 196.47 37.2303 197.037 37.5335 197.435C37.8367 197.832 38.2699 198.031 38.8331 198.031ZM43.6945 193.187C44.1789 192.593 44.809 192.295 45.5848 192.295C46.9355 192.295 47.6168 193.057 47.6286 194.581V198.805H46.5358V194.576C46.5319 194.115 46.4255 193.774 46.2168 193.554C46.012 193.333 45.6911 193.223 45.254 193.223C44.8996 193.223 44.5885 193.317 44.3207 193.506C44.0529 193.695 43.8442 193.943 43.6945 194.251V198.805H42.6017V189.732H43.6945V193.187ZM51.9762 195.55C51.9762 194.924 52.0982 194.361 52.3424 193.861C52.5905 193.361 52.9331 192.975 53.3702 192.703C53.8113 192.431 54.3134 192.295 54.8765 192.295C55.7468 192.295 56.4497 192.597 56.9853 193.199C57.5248 193.802 57.7946 194.603 57.7946 195.603V195.68C57.7946 196.302 57.6745 196.862 57.4342 197.358C57.198 197.85 56.8573 198.234 56.4123 198.51C55.9713 198.785 55.4633 198.923 54.8883 198.923C54.022 198.923 53.319 198.622 52.7795 198.019C52.2439 197.417 51.9762 196.619 51.9762 195.627V195.55ZM53.0749 195.68C53.0749 196.389 53.2383 196.958 53.5651 197.387C53.8959 197.816 54.337 198.031 54.8883 198.031C55.4436 198.031 55.8846 197.815 56.2115 197.381C56.5383 196.944 56.7018 196.334 56.7018 195.55C56.7018 194.849 56.5344 194.282 56.1997 193.849C55.8689 193.412 55.4278 193.193 54.8765 193.193C54.337 193.193 53.9018 193.408 53.571 193.837C53.2403 194.266 53.0749 194.881 53.0749 195.68ZM60.1987 192.414L60.2342 193.217C60.7225 192.603 61.3604 192.295 62.148 192.295C63.4988 192.295 64.18 193.057 64.1919 194.581V198.805H63.0991V194.576C63.0951 194.115 62.9888 193.774 62.7801 193.554C62.5753 193.333 62.2544 193.223 61.8172 193.223C61.4628 193.223 61.1517 193.317 60.8839 193.506C60.6161 193.695 60.4074 193.943 60.2578 194.251V198.805H59.165V192.414H60.1987Z" fill="white"/>
</svg>
