<svg width="389" height="210" viewBox="0 0 389 210" fill="none" xmlns="http://www.w3.org/2000/svg">
<circle cx="25" cy="17" r="17" fill="#0D2BD3"/>
<path d="M35.0006 12.0029L25.6143 17.4253L35.0006 22.8419V21.4227L28.0824 17.4273L35.0006 13.4319V12.0029Z" fill="white"/>
<path d="M25.6208 12.0029H24.3867V22.8426H25.6208V12.0029Z" fill="white"/>
<path d="M15 13.429L21.9181 17.4243L15 21.4197V22.8389L24.3863 17.4223L15 12V13.429Z" fill="white"/>
<path d="M52.44 23V14.104H49.416V12.536H57.32V14.104H54.296V23H52.44ZM58.1993 23V15.144H59.7193L59.8473 16.536H59.9113C60.1886 16.024 60.5246 15.6347 60.9193 15.368C61.3139 15.0907 61.7193 14.952 62.1353 14.952C62.5086 14.952 62.8073 15.0053 63.0313 15.112L62.7113 16.712C62.5726 16.6693 62.4446 16.6373 62.3273 16.616C62.2099 16.5947 62.0659 16.584 61.8953 16.584C61.5859 16.584 61.2606 16.7067 60.9193 16.952C60.5779 17.1867 60.2846 17.6027 60.0393 18.2V23H58.1993ZM65.6501 23.192C64.9568 23.192 64.3968 22.984 63.9701 22.568C63.5435 22.1413 63.3301 21.5813 63.3301 20.888C63.3301 20.472 63.4155 20.104 63.5861 19.784C63.7675 19.4533 64.0448 19.1707 64.4181 18.936C64.8021 18.7013 65.2821 18.504 65.8581 18.344C66.4448 18.184 67.1435 18.0613 67.9541 17.976C67.9435 17.7733 67.9115 17.5813 67.8581 17.4C67.8155 17.208 67.7355 17.0427 67.6181 16.904C67.5115 16.7547 67.3675 16.6427 67.1861 16.568C67.0048 16.4827 66.7808 16.44 66.5141 16.44C66.1301 16.44 65.7515 16.5147 65.3781 16.664C65.0155 16.8133 64.6581 16.9947 64.3061 17.208L63.6341 15.976C64.0715 15.6987 64.5621 15.4587 65.1061 15.256C65.6501 15.0533 66.2368 14.952 66.8661 14.952C67.8475 14.952 68.5781 15.2453 69.0581 15.832C69.5488 16.408 69.7941 17.2453 69.7941 18.344V23H68.2741L68.1461 22.136H68.0821C67.7301 22.4347 67.3515 22.6853 66.9461 22.888C66.5515 23.0907 66.1195 23.192 65.6501 23.192ZM66.2421 21.752C66.5621 21.752 66.8501 21.6773 67.1061 21.528C67.3728 21.3787 67.6555 21.1653 67.9541 20.888V19.128C67.4208 19.192 66.9728 19.2773 66.6101 19.384C66.2475 19.4907 65.9541 19.6133 65.7301 19.752C65.5061 19.88 65.3461 20.0293 65.2501 20.2C65.1541 20.3707 65.1061 20.552 65.1061 20.744C65.1061 21.096 65.2128 21.352 65.4261 21.512C65.6395 21.672 65.9115 21.752 66.2421 21.752ZM75.2761 23.192C74.7428 23.192 74.2415 23.1013 73.7721 22.92C73.3135 22.7387 72.9135 22.472 72.5721 22.12C72.2308 21.768 71.9641 21.336 71.7721 20.824C71.5801 20.312 71.4841 19.7307 71.4841 19.08C71.4841 18.4293 71.5908 17.848 71.8041 17.336C72.0175 16.824 72.3055 16.392 72.6681 16.04C73.0308 15.688 73.4468 15.4213 73.9161 15.24C74.3961 15.048 74.8975 14.952 75.4201 14.952C75.9321 14.952 76.3695 15.0373 76.7321 15.208C77.1055 15.3787 77.4361 15.5867 77.7241 15.832L76.8281 17.032C76.6148 16.8507 76.4015 16.712 76.1881 16.616C75.9855 16.5093 75.7615 16.456 75.5161 16.456C74.8761 16.456 74.3588 16.696 73.9641 17.176C73.5695 17.6453 73.3721 18.28 73.3721 19.08C73.3721 19.8693 73.5641 20.504 73.9481 20.984C74.3428 21.4533 74.8495 21.688 75.4681 21.688C75.7775 21.688 76.0655 21.624 76.3321 21.496C76.6095 21.3573 76.8601 21.1973 77.0841 21.016L77.8361 22.232C77.4628 22.552 77.0521 22.792 76.6041 22.952C76.1668 23.112 75.7241 23.192 75.2761 23.192ZM82.3561 23.192C81.8121 23.192 81.3055 23.1013 80.8361 22.92C80.3668 22.728 79.9561 22.456 79.6041 22.104C79.2521 21.752 78.9748 21.3253 78.7721 20.824C78.5801 20.312 78.4841 19.7307 78.4841 19.08C78.4841 18.44 78.5855 17.864 78.7881 17.352C78.9908 16.84 79.2575 16.408 79.5881 16.056C79.9295 15.704 80.3188 15.432 80.7561 15.24C81.1935 15.048 81.6415 14.952 82.1001 14.952C82.6335 14.952 83.1028 15.0427 83.5081 15.224C83.9135 15.4053 84.2495 15.6613 84.5161 15.992C84.7935 16.3227 85.0015 16.7173 85.1401 17.176C85.2788 17.6347 85.3481 18.136 85.3481 18.68C85.3481 18.8613 85.3375 19.032 85.3161 19.192C85.3055 19.352 85.2895 19.48 85.2681 19.576H80.2761C80.3615 20.28 80.6068 20.824 81.0121 21.208C81.4281 21.5813 81.9561 21.768 82.5961 21.768C82.9375 21.768 83.2521 21.72 83.5401 21.624C83.8388 21.5173 84.1321 21.3733 84.4201 21.192L85.0441 22.344C84.6708 22.5893 84.2548 22.792 83.7961 22.952C83.3375 23.112 82.8575 23.192 82.3561 23.192ZM80.2601 18.328H83.7481C83.7481 17.72 83.6148 17.2453 83.3481 16.904C83.0921 16.552 82.6921 16.376 82.1481 16.376C81.6788 16.376 81.2681 16.5413 80.9161 16.872C80.5641 17.2027 80.3455 17.688 80.2601 18.328ZM87.1055 23V15.144H88.6255L88.7535 16.536H88.8175C89.0948 16.024 89.4308 15.6347 89.8255 15.368C90.2202 15.0907 90.6255 14.952 91.0415 14.952C91.4148 14.952 91.7135 15.0053 91.9375 15.112L91.6175 16.712C91.4788 16.6693 91.3508 16.6373 91.2335 16.616C91.1162 16.5947 90.9722 16.584 90.8015 16.584C90.4922 16.584 90.1668 16.7067 89.8255 16.952C89.4842 17.1867 89.1908 17.6027 88.9455 18.2V23H87.1055ZM96.4374 23V12.536H99.2374C100.837 12.536 102.085 12.968 102.981 13.832C103.877 14.696 104.325 15.992 104.325 17.72C104.325 18.584 104.208 19.3467 103.973 20.008C103.749 20.6693 103.419 21.224 102.981 21.672C102.555 22.1093 102.032 22.44 101.413 22.664C100.805 22.888 100.112 23 99.3334 23H96.4374ZM98.2934 21.496H99.1094C100.176 21.496 100.992 21.192 101.557 20.584C102.133 19.9653 102.421 19.0107 102.421 17.72C102.421 16.44 102.133 15.5067 101.557 14.92C100.981 14.3333 100.165 14.04 99.1094 14.04H98.2934V21.496ZM106.277 23V15.144H107.797L107.925 16.536H107.989C108.267 16.024 108.603 15.6347 108.997 15.368C109.392 15.0907 109.797 14.952 110.213 14.952C110.587 14.952 110.885 15.0053 111.109 15.112L110.789 16.712C110.651 16.6693 110.523 16.6373 110.405 16.616C110.288 16.5947 110.144 16.584 109.973 16.584C109.664 16.584 109.339 16.7067 108.997 16.952C108.656 17.1867 108.363 17.6027 108.117 18.2V23H106.277ZM115.306 23.192C114.815 23.192 114.346 23.1013 113.898 22.92C113.45 22.7387 113.05 22.472 112.698 22.12C112.357 21.768 112.085 21.336 111.882 20.824C111.679 20.312 111.578 19.7307 111.578 19.08C111.578 18.4293 111.679 17.848 111.882 17.336C112.085 16.824 112.357 16.392 112.698 16.04C113.05 15.688 113.45 15.4213 113.898 15.24C114.346 15.048 114.815 14.952 115.306 14.952C115.797 14.952 116.266 15.048 116.714 15.24C117.173 15.4213 117.573 15.688 117.914 16.04C118.255 16.392 118.527 16.824 118.73 17.336C118.943 17.848 119.05 18.4293 119.05 19.08C119.05 19.7307 118.943 20.312 118.73 20.824C118.527 21.336 118.255 21.768 117.914 22.12C117.573 22.472 117.173 22.7387 116.714 22.92C116.266 23.1013 115.797 23.192 115.306 23.192ZM115.306 21.688C115.882 21.688 116.335 21.4533 116.666 20.984C116.997 20.504 117.162 19.8693 117.162 19.08C117.162 18.28 116.997 17.6453 116.666 17.176C116.335 16.696 115.882 16.456 115.306 16.456C114.73 16.456 114.277 16.696 113.946 17.176C113.626 17.6453 113.466 18.28 113.466 19.08C113.466 19.8693 113.626 20.504 113.946 20.984C114.277 21.4533 114.73 21.688 115.306 21.688ZM120.871 26.104V15.144H122.391L122.519 15.976H122.583C122.914 15.6987 123.282 15.4587 123.687 15.256C124.092 15.0533 124.514 14.952 124.951 14.952C125.442 14.952 125.874 15.048 126.247 15.24C126.631 15.4213 126.956 15.688 127.223 16.04C127.49 16.392 127.692 16.8133 127.831 17.304C127.97 17.7947 128.039 18.344 128.039 18.952C128.039 19.624 127.943 20.2267 127.751 20.76C127.57 21.2827 127.324 21.7253 127.015 22.088C126.706 22.44 126.348 22.712 125.943 22.904C125.538 23.096 125.116 23.192 124.679 23.192C124.338 23.192 123.996 23.1173 123.655 22.968C123.314 22.8187 122.983 22.6053 122.663 22.328L122.711 23.64V26.104H120.871ZM124.295 21.672C124.818 21.672 125.255 21.448 125.607 21C125.959 20.5413 126.135 19.864 126.135 18.968C126.135 18.1787 126.002 17.5653 125.735 17.128C125.468 16.6907 125.036 16.472 124.439 16.472C123.884 16.472 123.308 16.7653 122.711 17.352V21.016C122.999 21.2613 123.276 21.432 123.543 21.528C123.81 21.624 124.06 21.672 124.295 21.672ZM134.402 23L132.322 15.144H134.178L135.122 19.224C135.207 19.5973 135.276 19.9707 135.33 20.344C135.394 20.7173 135.463 21.096 135.538 21.48H135.602C135.676 21.096 135.751 20.7173 135.826 20.344C135.911 19.9707 136.002 19.5973 136.098 19.224L137.122 15.144H138.802L139.842 19.224C139.938 19.5973 140.028 19.9707 140.114 20.344C140.199 20.7173 140.284 21.096 140.37 21.48H140.434C140.508 21.096 140.578 20.7173 140.642 20.344C140.706 19.9707 140.775 19.5973 140.85 19.224L141.794 15.144H143.522L141.522 23H139.33L138.418 19.336C138.332 18.9627 138.252 18.5947 138.178 18.232C138.103 17.8587 138.023 17.464 137.938 17.048H137.874C137.799 17.464 137.724 17.8587 137.65 18.232C137.575 18.6053 137.495 18.9787 137.41 19.352L136.514 23H134.402ZM145.074 23V15.144H146.914V23H145.074ZM146.002 13.768C145.672 13.768 145.4 13.672 145.186 13.48C144.973 13.288 144.866 13.0373 144.866 12.728C144.866 12.4187 144.973 12.168 145.186 11.976C145.4 11.7733 145.672 11.672 146.002 11.672C146.333 11.672 146.605 11.7733 146.818 11.976C147.032 12.168 147.138 12.4187 147.138 12.728C147.138 13.0373 147.032 13.288 146.818 13.48C146.605 13.672 146.333 13.768 146.002 13.768ZM152.03 23.192C151.571 23.192 151.182 23.1227 150.862 22.984C150.552 22.8453 150.296 22.6533 150.094 22.408C149.902 22.152 149.758 21.8533 149.662 21.512C149.576 21.16 149.534 20.7707 149.534 20.344V16.6H148.414V15.224L149.63 15.144L149.854 13H151.39V15.144H153.39V16.6H151.39V20.344C151.39 21.2613 151.758 21.72 152.494 21.72C152.632 21.72 152.771 21.704 152.91 21.672C153.059 21.64 153.192 21.5973 153.31 21.544L153.63 22.904C153.416 22.9787 153.171 23.0427 152.894 23.096C152.627 23.16 152.339 23.192 152.03 23.192ZM155.043 23V11.704H156.883V14.616L156.819 16.136C157.15 15.8267 157.512 15.5547 157.907 15.32C158.312 15.0747 158.787 14.952 159.331 14.952C160.174 14.952 160.787 15.224 161.171 15.768C161.555 16.3013 161.747 17.0693 161.747 18.072V23H159.907V18.312C159.907 17.6613 159.811 17.2027 159.619 16.936C159.427 16.6693 159.112 16.536 158.675 16.536C158.334 16.536 158.03 16.6213 157.763 16.792C157.507 16.952 157.214 17.192 156.883 17.512V23H155.043ZM167.328 23V12.536H170.864C171.408 12.536 171.915 12.5893 172.384 12.696C172.853 12.8027 173.259 12.9787 173.6 13.224C173.941 13.4587 174.208 13.7733 174.4 14.168C174.603 14.5627 174.704 15.0533 174.704 15.64C174.704 16.44 174.512 17.0853 174.128 17.576C173.755 18.0667 173.253 18.4187 172.624 18.632L175.12 23H173.04L170.784 18.904H169.184V23H167.328ZM169.184 17.432H170.672C171.387 17.432 171.931 17.2827 172.304 16.984C172.688 16.6853 172.88 16.2373 172.88 15.64C172.88 15.032 172.688 14.6107 172.304 14.376C171.931 14.1413 171.387 14.024 170.672 14.024H169.184V17.432ZM176.797 23V12.536H178.893L180.749 17.656C180.866 17.9867 180.978 18.328 181.085 18.68C181.191 19.0213 181.303 19.3627 181.421 19.704H181.485C181.602 19.3627 181.709 19.0213 181.805 18.68C181.911 18.328 182.023 17.9867 182.141 17.656L183.949 12.536H186.061V23H184.349V18.216C184.349 17.9707 184.354 17.704 184.365 17.416C184.386 17.128 184.407 16.84 184.429 16.552C184.45 16.2533 184.477 15.9653 184.509 15.688C184.541 15.4 184.567 15.1333 184.589 14.888H184.525L183.677 17.32L181.965 22.024H180.861L179.133 17.32L178.301 14.888H178.237C178.258 15.1333 178.279 15.4 178.301 15.688C178.333 15.9653 178.359 16.2533 178.381 16.552C178.413 16.84 178.434 17.128 178.445 17.416C178.466 17.704 178.477 17.9707 178.477 18.216V23H176.797ZM188.719 23V12.536H190.575V23H188.719ZM195.346 23V14.104H192.322V12.536H200.226V14.104H197.202V23H195.346ZM205.252 23L205.636 19.88H204.404V18.664H205.764L206.02 16.6H204.724V15.384H206.18L206.532 12.6H207.636L207.3 15.384H209.172L209.54 12.6H210.628L210.292 15.384H211.572V16.6H210.148L209.892 18.664H211.252V19.88H209.748L209.38 23H208.26L208.628 19.88H206.756L206.372 23H205.252ZM206.884 18.664H208.772L209.028 16.6H207.14L206.884 18.664ZM216.143 23.192C215.076 23.192 214.234 22.7387 213.615 21.832C212.996 20.9147 212.687 19.592 212.687 17.864C212.687 16.136 212.996 14.8347 213.615 13.96C214.234 13.0747 215.076 12.632 216.143 12.632C217.21 12.632 218.052 13.0747 218.671 13.96C219.29 14.8453 219.599 16.1467 219.599 17.864C219.599 19.592 219.29 20.9147 218.671 21.832C218.052 22.7387 217.21 23.192 216.143 23.192ZM216.143 21.752C216.388 21.752 216.612 21.688 216.815 21.56C217.028 21.4213 217.21 21.1973 217.359 20.888C217.508 20.5787 217.626 20.1787 217.711 19.688C217.796 19.1973 217.839 18.5893 217.839 17.864C217.839 17.1493 217.796 16.552 217.711 16.072C217.626 15.5813 217.508 15.1867 217.359 14.888C217.21 14.5893 217.028 14.3813 216.815 14.264C216.612 14.136 216.388 14.072 216.143 14.072C215.898 14.072 215.668 14.136 215.455 14.264C215.252 14.3813 215.076 14.5893 214.927 14.888C214.778 15.1867 214.66 15.5813 214.575 16.072C214.49 16.552 214.447 17.1493 214.447 17.864C214.447 18.5893 214.49 19.1973 214.575 19.688C214.66 20.1787 214.778 20.5787 214.927 20.888C215.076 21.1973 215.252 21.4213 215.455 21.56C215.668 21.688 215.898 21.752 216.143 21.752ZM222.938 23C222.981 22.0933 223.061 21.2667 223.178 20.52C223.295 19.7627 223.461 19.0427 223.674 18.36C223.898 17.6773 224.181 17.016 224.522 16.376C224.863 15.7253 225.279 15.0587 225.77 14.376H220.954V12.824H227.786V13.944C227.189 14.68 226.703 15.384 226.33 16.056C225.967 16.7173 225.679 17.4 225.466 18.104C225.253 18.7973 225.098 19.5387 225.002 20.328C224.917 21.1173 224.853 22.008 224.81 23H222.938ZM230.661 17.72C230.32 17.72 230.032 17.6027 229.797 17.368C229.573 17.1333 229.461 16.8347 229.461 16.472C229.461 16.1093 229.573 15.8107 229.797 15.576C230.032 15.3413 230.32 15.224 230.661 15.224C231.002 15.224 231.285 15.3413 231.509 15.576C231.733 15.8107 231.845 16.1093 231.845 16.472C231.845 16.8347 231.733 17.1333 231.509 17.368C231.285 17.6027 231.002 17.72 230.661 17.72ZM230.661 23.192C230.32 23.192 230.032 23.0747 229.797 22.84C229.573 22.6053 229.461 22.3067 229.461 21.944C229.461 21.5813 229.573 21.2827 229.797 21.048C230.032 20.8133 230.32 20.696 230.661 20.696C231.002 20.696 231.285 20.8133 231.509 21.048C231.733 21.2827 231.845 21.5813 231.845 21.944C231.845 22.3067 231.733 22.6053 231.509 22.84C231.285 23.0747 231.002 23.192 230.661 23.192ZM237.391 23V12.536H240.191C241.791 12.536 243.039 12.968 243.935 13.832C244.831 14.696 245.279 15.992 245.279 17.72C245.279 18.584 245.161 19.3467 244.927 20.008C244.703 20.6693 244.372 21.224 243.935 21.672C243.508 22.1093 242.985 22.44 242.367 22.664C241.759 22.888 241.065 23 240.286 23H237.391ZM239.247 21.496H240.062C241.129 21.496 241.945 21.192 242.511 20.584C243.087 19.9653 243.375 19.0107 243.375 17.72C243.375 16.44 243.087 15.5067 242.511 14.92C241.935 14.3333 241.119 14.04 240.062 14.04H239.247V21.496ZM249.378 17.432L249.01 18.712H251.682L251.314 17.432C251.144 16.8773 250.978 16.3067 250.818 15.72C250.669 15.1333 250.52 14.552 250.37 13.976H250.306C250.157 14.5627 250.008 15.1493 249.858 15.736C249.709 16.312 249.549 16.8773 249.378 17.432ZM245.874 23L249.282 12.536H251.458L254.866 23H252.914L252.098 20.168H248.578L247.762 23H245.874ZM260.064 23.192C259.381 23.192 258.757 23.0693 258.192 22.824C257.627 22.568 257.141 22.2053 256.736 21.736C256.331 21.256 256.016 20.68 255.792 20.008C255.568 19.336 255.456 18.5733 255.456 17.72C255.456 16.8773 255.568 16.1253 255.792 15.464C256.016 14.792 256.331 14.2267 256.736 13.768C257.141 13.3093 257.627 12.9573 258.192 12.712C258.757 12.4667 259.381 12.344 260.064 12.344C260.747 12.344 261.371 12.4667 261.936 12.712C262.501 12.9573 262.987 13.3093 263.392 13.768C263.808 14.2267 264.128 14.792 264.352 15.464C264.576 16.1253 264.688 16.8773 264.688 17.72C264.688 18.5733 264.576 19.336 264.352 20.008C264.128 20.68 263.808 21.256 263.392 21.736C262.987 22.2053 262.501 22.568 261.936 22.824C261.371 23.0693 260.747 23.192 260.064 23.192ZM260.064 21.576C260.48 21.576 260.853 21.4853 261.184 21.304C261.515 21.1227 261.797 20.8667 262.032 20.536C262.267 20.1947 262.448 19.7893 262.576 19.32C262.704 18.84 262.768 18.3067 262.768 17.72C262.768 16.5467 262.523 15.6293 262.032 14.968C261.552 14.296 260.896 13.96 260.064 13.96C259.232 13.96 258.571 14.296 258.08 14.968C257.6 15.6293 257.36 16.5467 257.36 17.72C257.36 18.3067 257.424 18.84 257.552 19.32C257.68 19.7893 257.861 20.1947 258.096 20.536C258.331 20.8667 258.613 21.1227 258.944 21.304C259.275 21.4853 259.648 21.576 260.064 21.576ZM274.16 23.192C273.499 23.192 272.88 23.0747 272.304 22.84C271.728 22.6053 271.227 22.2587 270.8 21.8C270.384 21.3413 270.054 20.776 269.808 20.104C269.563 19.432 269.44 18.664 269.44 17.8C269.44 16.9467 269.563 16.184 269.808 15.512C270.064 14.8293 270.406 14.2533 270.832 13.784C271.27 13.3147 271.776 12.9573 272.352 12.712C272.939 12.4667 273.563 12.344 274.224 12.344C274.886 12.344 275.472 12.4773 275.984 12.744C276.496 13.0107 276.918 13.32 277.248 13.672L276.256 14.872C275.979 14.5947 275.68 14.376 275.36 14.216C275.04 14.0453 274.678 13.96 274.272 13.96C273.846 13.96 273.451 14.0507 273.088 14.232C272.736 14.4027 272.427 14.6533 272.16 14.984C271.904 15.304 271.702 15.6987 271.552 16.168C271.414 16.6373 271.344 17.1653 271.344 17.752C271.344 18.9467 271.6 19.8853 272.112 20.568C272.635 21.24 273.339 21.576 274.224 21.576C274.694 21.576 275.11 21.48 275.472 21.288C275.835 21.0853 276.166 20.824 276.464 20.504L277.456 21.672C277.03 22.1627 276.539 22.5413 275.984 22.808C275.44 23.064 274.832 23.192 274.16 23.192ZM282.259 23.192C281.768 23.192 281.299 23.1013 280.851 22.92C280.403 22.7387 280.003 22.472 279.651 22.12C279.31 21.768 279.038 21.336 278.835 20.824C278.632 20.312 278.531 19.7307 278.531 19.08C278.531 18.4293 278.632 17.848 278.835 17.336C279.038 16.824 279.31 16.392 279.651 16.04C280.003 15.688 280.403 15.4213 280.851 15.24C281.299 15.048 281.768 14.952 282.259 14.952C282.75 14.952 283.219 15.048 283.667 15.24C284.126 15.4213 284.526 15.688 284.867 16.04C285.208 16.392 285.48 16.824 285.683 17.336C285.896 17.848 286.003 18.4293 286.003 19.08C286.003 19.7307 285.896 20.312 285.683 20.824C285.48 21.336 285.208 21.768 284.867 22.12C284.526 22.472 284.126 22.7387 283.667 22.92C283.219 23.1013 282.75 23.192 282.259 23.192ZM282.259 21.688C282.835 21.688 283.288 21.4533 283.619 20.984C283.95 20.504 284.115 19.8693 284.115 19.08C284.115 18.28 283.95 17.6453 283.619 17.176C283.288 16.696 282.835 16.456 282.259 16.456C281.683 16.456 281.23 16.696 280.899 17.176C280.579 17.6453 280.419 18.28 280.419 19.08C280.419 19.8693 280.579 20.504 280.899 20.984C281.23 21.4533 281.683 21.688 282.259 21.688ZM287.824 23V15.144H289.344L289.472 16.216H289.536C289.867 15.864 290.224 15.5653 290.608 15.32C291.003 15.0747 291.446 14.952 291.936 14.952C292.512 14.952 292.971 15.0747 293.312 15.32C293.664 15.5653 293.931 15.912 294.112 16.36C294.486 15.9547 294.875 15.6187 295.28 15.352C295.686 15.0853 296.139 14.952 296.64 14.952C297.472 14.952 298.086 15.224 298.48 15.768C298.875 16.3013 299.072 17.0693 299.072 18.072V23H297.216V18.312C297.216 17.6613 297.115 17.2027 296.912 16.936C296.72 16.6693 296.422 16.536 296.016 16.536C295.526 16.536 294.976 16.8613 294.368 17.512V23H292.528V18.312C292.528 17.6613 292.427 17.2027 292.224 16.936C292.032 16.6693 291.728 16.536 291.312 16.536C290.822 16.536 290.272 16.8613 289.664 17.512V23H287.824ZM301.309 23V15.144H302.829L302.957 16.216H303.021C303.351 15.864 303.709 15.5653 304.093 15.32C304.487 15.0747 304.93 14.952 305.421 14.952C305.997 14.952 306.455 15.0747 306.797 15.32C307.149 15.5653 307.415 15.912 307.597 16.36C307.97 15.9547 308.359 15.6187 308.765 15.352C309.17 15.0853 309.623 14.952 310.125 14.952C310.957 14.952 311.57 15.224 311.965 15.768C312.359 16.3013 312.557 17.0693 312.557 18.072V23H310.701V18.312C310.701 17.6613 310.599 17.2027 310.397 16.936C310.205 16.6693 309.906 16.536 309.501 16.536C309.01 16.536 308.461 16.8613 307.853 17.512V23H306.013V18.312C306.013 17.6613 305.911 17.2027 305.709 16.936C305.517 16.6693 305.213 16.536 304.797 16.536C304.306 16.536 303.757 16.8613 303.149 17.512V23H301.309ZM317.129 23.192C316.286 23.192 315.673 22.9253 315.289 22.392C314.905 21.848 314.713 21.0747 314.713 20.072V15.144H316.553V19.832C316.553 20.4827 316.649 20.9413 316.841 21.208C317.033 21.4747 317.342 21.608 317.769 21.608C318.11 21.608 318.409 21.5227 318.665 21.352C318.932 21.1813 319.214 20.904 319.513 20.52V15.144H321.353V23H319.849L319.705 21.848H319.657C319.316 22.2533 318.942 22.5787 318.537 22.824C318.142 23.0693 317.673 23.192 317.129 23.192ZM323.684 23V15.144H325.204L325.332 16.2H325.396C325.748 15.8587 326.126 15.5653 326.532 15.32C326.948 15.0747 327.428 14.952 327.972 14.952C328.814 14.952 329.428 15.224 329.812 15.768C330.196 16.3013 330.388 17.0693 330.388 18.072V23H328.548V18.312C328.548 17.6613 328.452 17.2027 328.26 16.936C328.068 16.6693 327.753 16.536 327.316 16.536C326.974 16.536 326.67 16.6213 326.404 16.792C326.148 16.952 325.854 17.192 325.524 17.512V23H323.684ZM332.637 23V15.144H334.477V23H332.637ZM333.565 13.768C333.234 13.768 332.962 13.672 332.749 13.48C332.535 13.288 332.429 13.0373 332.429 12.728C332.429 12.4187 332.535 12.168 332.749 11.976C332.962 11.7733 333.234 11.672 333.565 11.672C333.895 11.672 334.167 11.7733 334.381 11.976C334.594 12.168 334.701 12.4187 334.701 12.728C334.701 13.0373 334.594 13.288 334.381 13.48C334.167 13.672 333.895 13.768 333.565 13.768ZM339.592 23.192C339.134 23.192 338.744 23.1227 338.424 22.984C338.115 22.8453 337.859 22.6533 337.656 22.408C337.464 22.152 337.32 21.8533 337.224 21.512C337.139 21.16 337.096 20.7707 337.096 20.344V16.6H335.976V15.224L337.192 15.144L337.416 13H338.952V15.144H340.952V16.6H338.952V20.344C338.952 21.2613 339.32 21.72 340.056 21.72C340.195 21.72 340.334 21.704 340.472 21.672C340.622 21.64 340.755 21.5973 340.872 21.544L341.192 22.904C340.979 22.9787 340.734 23.0427 340.456 23.096C340.19 23.16 339.902 23.192 339.592 23.192ZM342.606 23V15.144H344.446V23H342.606ZM343.534 13.768C343.203 13.768 342.931 13.672 342.718 13.48C342.504 13.288 342.398 13.0373 342.398 12.728C342.398 12.4187 342.504 12.168 342.718 11.976C342.931 11.7733 343.203 11.672 343.534 11.672C343.864 11.672 344.136 11.7733 344.35 11.976C344.563 12.168 344.67 12.4187 344.67 12.728C344.67 13.0373 344.563 13.288 344.35 13.48C344.136 13.672 343.864 13.768 343.534 13.768ZM350.153 23.192C349.609 23.192 349.102 23.1013 348.633 22.92C348.164 22.728 347.753 22.456 347.401 22.104C347.049 21.752 346.772 21.3253 346.569 20.824C346.377 20.312 346.281 19.7307 346.281 19.08C346.281 18.44 346.382 17.864 346.585 17.352C346.788 16.84 347.054 16.408 347.385 16.056C347.726 15.704 348.116 15.432 348.553 15.24C348.99 15.048 349.438 14.952 349.897 14.952C350.43 14.952 350.9 15.0427 351.305 15.224C351.71 15.4053 352.046 15.6613 352.313 15.992C352.59 16.3227 352.798 16.7173 352.937 17.176C353.076 17.6347 353.145 18.136 353.145 18.68C353.145 18.8613 353.134 19.032 353.113 19.192C353.102 19.352 353.086 19.48 353.065 19.576H348.073C348.158 20.28 348.404 20.824 348.809 21.208C349.225 21.5813 349.753 21.768 350.393 21.768C350.734 21.768 351.049 21.72 351.337 21.624C351.636 21.5173 351.929 21.3733 352.217 21.192L352.841 22.344C352.468 22.5893 352.052 22.792 351.593 22.952C351.134 23.112 350.654 23.192 350.153 23.192ZM348.057 18.328H351.545C351.545 17.72 351.412 17.2453 351.145 16.904C350.889 16.552 350.489 16.376 349.945 16.376C349.476 16.376 349.065 16.5413 348.713 16.872C348.361 17.2027 348.142 17.688 348.057 18.328ZM357.094 23.192C356.55 23.192 356.012 23.0907 355.478 22.888C354.956 22.6747 354.502 22.4133 354.118 22.104L354.982 20.92C355.334 21.1973 355.681 21.416 356.022 21.576C356.374 21.7253 356.753 21.8 357.158 21.8C357.585 21.8 357.9 21.7147 358.102 21.544C358.305 21.3627 358.406 21.1333 358.406 20.856C358.406 20.696 358.358 20.5573 358.262 20.44C358.166 20.312 358.038 20.2 357.878 20.104C357.718 20.008 357.537 19.9227 357.334 19.848C357.132 19.7627 356.929 19.6773 356.726 19.592C356.47 19.496 356.209 19.384 355.942 19.256C355.676 19.128 355.436 18.9733 355.222 18.792C355.02 18.6107 354.849 18.4027 354.71 18.168C354.582 17.9227 354.518 17.6347 354.518 17.304C354.518 16.6107 354.774 16.0453 355.286 15.608C355.798 15.1707 356.497 14.952 357.382 14.952C357.926 14.952 358.417 15.048 358.854 15.24C359.292 15.432 359.67 15.6507 359.99 15.896L359.142 17.016C358.865 16.8133 358.582 16.6533 358.294 16.536C358.017 16.408 357.724 16.344 357.414 16.344C357.02 16.344 356.726 16.4293 356.534 16.6C356.353 16.76 356.262 16.9627 356.262 17.208C356.262 17.368 356.305 17.5067 356.39 17.624C356.486 17.7307 356.609 17.8267 356.758 17.912C356.908 17.9973 357.078 18.0773 357.27 18.152C357.473 18.2267 357.681 18.3013 357.894 18.376C358.161 18.472 358.428 18.584 358.694 18.712C358.961 18.8293 359.201 18.9787 359.414 19.16C359.638 19.3413 359.814 19.5653 359.942 19.832C360.081 20.088 360.15 20.3973 360.15 20.76C360.15 21.1013 360.081 21.4213 359.942 21.72C359.814 22.008 359.622 22.264 359.366 22.488C359.11 22.7013 358.79 22.872 358.406 23C358.022 23.128 357.585 23.192 357.094 23.192ZM367.62 23.192C367.097 23.192 366.628 23.1173 366.212 22.968C365.807 22.808 365.46 22.6 365.172 22.344C364.884 22.0773 364.66 21.768 364.5 21.416C364.351 21.0533 364.276 20.664 364.276 20.248C364.276 19.8853 364.329 19.56 364.436 19.272C364.543 18.984 364.687 18.7227 364.868 18.488C365.06 18.2427 365.273 18.024 365.508 17.832C365.753 17.6293 366.009 17.4373 366.276 17.256C366.063 16.8507 365.897 16.456 365.78 16.072C365.663 15.688 365.604 15.3147 365.604 14.952C365.604 14.5893 365.663 14.2533 365.78 13.944C365.908 13.624 366.089 13.3467 366.324 13.112C366.559 12.8773 366.836 12.6907 367.156 12.552C367.476 12.4133 367.839 12.344 368.244 12.344C368.959 12.344 369.519 12.5467 369.924 12.952C370.34 13.3573 370.548 13.896 370.548 14.568C370.548 14.9093 370.484 15.224 370.356 15.512C370.228 15.8 370.057 16.0667 369.844 16.312C369.631 16.5467 369.385 16.7707 369.108 16.984C368.841 17.1973 368.564 17.4053 368.276 17.608C368.596 18.0453 368.959 18.472 369.364 18.888C369.78 19.2933 370.212 19.6667 370.66 20.008C370.948 19.624 371.204 19.2027 371.428 18.744C371.652 18.2747 371.839 17.768 371.988 17.224H373.684C373.492 17.8853 373.247 18.52 372.948 19.128C372.649 19.736 372.297 20.312 371.892 20.856C372.233 21.0693 372.564 21.2507 372.884 21.4C373.204 21.5387 373.503 21.6347 373.78 21.688L373.316 23.192C372.911 23.096 372.495 22.9573 372.068 22.776C371.641 22.584 371.209 22.3493 370.772 22.072C370.356 22.4133 369.887 22.6853 369.364 22.888C368.841 23.0907 368.26 23.192 367.62 23.192ZM367.14 14.936C367.14 15.1813 367.177 15.432 367.252 15.688C367.327 15.9333 367.428 16.1947 367.556 16.472C367.993 16.1947 368.361 15.912 368.66 15.624C368.959 15.336 369.108 14.9893 369.108 14.584C369.108 14.3067 369.044 14.072 368.916 13.88C368.788 13.688 368.569 13.592 368.26 13.592C367.929 13.592 367.657 13.7147 367.444 13.96C367.241 14.2053 367.14 14.5307 367.14 14.936ZM367.844 21.768C368.132 21.768 368.415 21.7147 368.692 21.608C368.98 21.4907 369.257 21.336 369.524 21.144C369.055 20.7493 368.607 20.3333 368.18 19.896C367.764 19.448 367.385 18.984 367.044 18.504C366.745 18.7493 366.5 19.0053 366.308 19.272C366.127 19.528 366.036 19.816 366.036 20.136C366.036 20.6267 366.207 21.0213 366.548 21.32C366.889 21.6187 367.321 21.768 367.844 21.768ZM376.255 23.192C375.914 23.192 375.626 23.0747 375.391 22.84C375.167 22.6053 375.055 22.3067 375.055 21.944C375.055 21.5813 375.167 21.2827 375.391 21.048C375.626 20.8133 375.914 20.696 376.255 20.696C376.596 20.696 376.879 20.8133 377.103 21.048C377.327 21.2827 377.439 21.5813 377.439 21.944C377.439 22.3067 377.327 22.6053 377.103 22.84C376.879 23.0747 376.596 23.192 376.255 23.192ZM380.661 23.192C380.32 23.192 380.032 23.0747 379.797 22.84C379.573 22.6053 379.461 22.3067 379.461 21.944C379.461 21.5813 379.573 21.2827 379.797 21.048C380.032 20.8133 380.32 20.696 380.661 20.696C381.002 20.696 381.285 20.8133 381.509 21.048C381.733 21.2827 381.845 21.5813 381.845 21.944C381.845 22.3067 381.733 22.6053 381.509 22.84C381.285 23.0747 381.002 23.192 380.661 23.192ZM385.067 23.192C384.726 23.192 384.438 23.0747 384.203 22.84C383.979 22.6053 383.867 22.3067 383.867 21.944C383.867 21.5813 383.979 21.2827 384.203 21.048C384.438 20.8133 384.726 20.696 385.067 20.696C385.409 20.696 385.691 20.8133 385.915 21.048C386.139 21.2827 386.251 21.5813 386.251 21.944C386.251 22.3067 386.139 22.6053 385.915 22.84C385.691 23.0747 385.409 23.192 385.067 23.192Z" fill="white"/>
<g style="mix-blend-mode:multiply" opacity="0.5">
<rect y="179" width="162" height="31" fill="black"/>
</g>
<path fill-rule="evenodd" clip-rule="evenodd" d="M97.6895 188.52C97.4113 187.452 96.5914 186.61 95.5503 186.324C93.6636 185.805 86.0976 185.805 86.0976 185.805C86.0976 185.805 78.5315 185.805 76.6447 186.324C75.6036 186.61 74.7837 187.452 74.5055 188.52C74 190.458 74 194.5 74 194.5C74 194.5 74 198.542 74.5055 200.48C74.7837 201.549 75.6036 202.39 76.6447 202.676C78.5315 203.195 86.0976 203.195 86.0976 203.195C86.0976 203.195 93.6636 203.195 95.5503 202.676C96.5914 202.39 97.4113 201.549 97.6895 200.48C98.1951 198.542 98.1951 194.5 98.1951 194.5C98.1951 194.5 98.1951 190.458 97.6895 188.52Z" fill="white"/>
<path fill-rule="evenodd" clip-rule="evenodd" d="M83.8301 198.659V191.098L89.8789 194.878L83.8301 198.659Z" fill="black"/>
<path d="M106.466 194.079L108.255 190.204H110.193L107.369 195.686V198.805H105.568V195.686L102.744 190.204H104.688L106.466 194.079ZM110.211 195.55C110.211 194.916 110.333 194.351 110.577 193.855C110.821 193.359 111.172 192.975 111.628 192.703C112.089 192.431 112.623 192.295 113.229 192.295C114.092 192.295 114.795 192.559 115.338 193.087C115.885 193.615 116.191 194.331 116.254 195.237L116.265 195.674C116.265 196.655 115.992 197.442 115.444 198.037C114.897 198.628 114.162 198.923 113.241 198.923C112.32 198.923 111.583 198.628 111.032 198.037C110.484 197.446 110.211 196.643 110.211 195.627V195.55ZM111.918 195.674C111.918 196.281 112.032 196.745 112.26 197.068C112.489 197.387 112.816 197.547 113.241 197.547C113.654 197.547 113.977 197.389 114.21 197.074C114.442 196.755 114.558 196.247 114.558 195.55C114.558 194.956 114.442 194.495 114.21 194.168C113.977 193.841 113.651 193.678 113.229 193.678C112.812 193.678 112.489 193.841 112.26 194.168C112.032 194.491 111.918 194.993 111.918 195.674ZM121.145 198.155C120.723 198.667 120.14 198.923 119.396 198.923C118.711 198.923 118.187 198.726 117.825 198.332C117.466 197.939 117.283 197.362 117.275 196.602V192.414H118.983V196.543C118.983 197.208 119.286 197.541 119.892 197.541C120.471 197.541 120.869 197.34 121.086 196.938V192.414H122.799V198.805H121.192L121.145 198.155ZM130.673 191.64H128.038V198.805H126.266V191.64H123.667V190.204H130.673V191.64ZM135.014 198.155C134.593 198.667 134.01 198.923 133.266 198.923C132.581 198.923 132.057 198.726 131.695 198.332C131.336 197.939 131.153 197.362 131.145 196.602V192.414H132.852V196.543C132.852 197.208 133.156 197.541 133.762 197.541C134.341 197.541 134.739 197.34 134.955 196.938V192.414H136.668V198.805H135.061L135.014 198.155ZM143.715 195.668C143.715 196.692 143.497 197.492 143.06 198.067C142.622 198.638 142.012 198.923 141.228 198.923C140.535 198.923 139.982 198.657 139.569 198.126L139.492 198.805H137.956V189.732H139.663V192.987C140.057 192.526 140.575 192.295 141.217 192.295C141.996 192.295 142.607 192.583 143.048 193.158C143.493 193.729 143.715 194.534 143.715 195.574V195.668ZM142.008 195.544C142.008 194.898 141.906 194.428 141.701 194.132C141.496 193.833 141.191 193.684 140.785 193.684C140.242 193.684 139.868 193.906 139.663 194.351V196.873C139.872 197.322 140.25 197.547 140.797 197.547C141.349 197.547 141.711 197.275 141.884 196.732C141.967 196.472 142.008 196.076 142.008 195.544ZM147.714 198.923C146.777 198.923 146.013 198.636 145.422 198.061C144.836 197.486 144.542 196.72 144.542 195.763V195.597C144.542 194.956 144.666 194.383 144.914 193.878C145.162 193.37 145.513 192.981 145.966 192.709C146.423 192.433 146.942 192.295 147.525 192.295C148.4 192.295 149.087 192.571 149.587 193.122C150.091 193.674 150.343 194.455 150.343 195.467V196.164H146.273C146.328 196.582 146.494 196.917 146.769 197.169C147.049 197.421 147.401 197.547 147.827 197.547C148.484 197.547 148.998 197.308 149.368 196.832L150.207 197.771C149.951 198.134 149.605 198.417 149.167 198.622C148.73 198.823 148.246 198.923 147.714 198.923ZM147.519 193.678C147.181 193.678 146.905 193.792 146.692 194.02C146.484 194.249 146.35 194.576 146.291 195.001H148.665V194.865C148.657 194.487 148.555 194.195 148.358 193.991C148.161 193.782 147.882 193.678 147.519 193.678Z" fill="white"/>
<path d="M17.2193 196.094L17.3847 197.228L17.6269 196.206L19.3281 190.204H20.285L21.9449 196.206L22.1812 197.245L22.3643 196.088L23.6993 190.204H24.8393L22.7542 198.805H21.7204L19.9483 192.538L19.8125 191.882L19.6766 192.538L17.8395 198.805H16.8058L14.7265 190.204H15.8607L17.2193 196.094ZM29.6772 198.805C29.6142 198.679 29.563 198.454 29.5236 198.132C29.0156 198.659 28.4091 198.923 27.7042 198.923C27.0742 198.923 26.5563 198.746 26.1507 198.391C25.749 198.033 25.5482 197.58 25.5482 197.033C25.5482 196.367 25.8002 195.851 26.3043 195.485C26.8123 195.115 27.5251 194.93 28.4426 194.93H29.5059V194.428C29.5059 194.046 29.3917 193.743 29.1633 193.518C28.9349 193.29 28.5982 193.176 28.1532 193.176C27.7633 193.176 27.4365 193.274 27.1726 193.471C26.9088 193.668 26.7768 193.906 26.7768 194.186H25.6781C25.6781 193.867 25.7904 193.56 26.0148 193.264C26.2432 192.965 26.5504 192.729 26.9363 192.555C27.3262 192.382 27.7535 192.295 28.2182 192.295C28.9546 192.295 29.5315 192.48 29.9489 192.851C30.3663 193.217 30.5829 193.723 30.5987 194.369V197.31C30.5987 197.897 30.6735 198.364 30.8231 198.71V198.805H29.6772ZM27.8637 197.972C28.2063 197.972 28.5312 197.883 28.8384 197.706C29.1456 197.529 29.3681 197.299 29.5059 197.015V195.704H28.6494C27.3104 195.704 26.641 196.096 26.641 196.879C26.641 197.222 26.7552 197.49 26.9836 197.683C27.212 197.876 27.5054 197.972 27.8637 197.972ZM33.7944 190.866V192.414H34.9876V193.258H33.7944V197.222C33.7944 197.478 33.8475 197.671 33.9539 197.801C34.0602 197.927 34.2413 197.99 34.4973 197.99C34.6233 197.99 34.7966 197.966 35.0171 197.919V198.805C34.7297 198.884 34.4501 198.923 34.1783 198.923C33.69 198.923 33.3218 198.775 33.0737 198.48C32.8256 198.185 32.7016 197.765 32.7016 197.222V193.258H31.5379V192.414H32.7016V190.866H33.7944ZM38.8331 198.031C39.2229 198.031 39.5636 197.913 39.855 197.677C40.1464 197.44 40.3078 197.145 40.3393 196.791H41.3731C41.3534 197.157 41.2274 197.505 40.995 197.836C40.7627 198.167 40.4516 198.431 40.0617 198.628C39.6758 198.825 39.2662 198.923 38.8331 198.923C37.9628 198.923 37.2697 198.634 36.7538 198.055C36.2418 197.472 35.9859 196.676 35.9859 195.668V195.485C35.9859 194.863 36.1001 194.31 36.3285 193.825C36.5569 193.341 36.8837 192.965 37.309 192.697C37.7383 192.429 38.2443 192.295 38.8271 192.295C39.5439 192.295 40.1385 192.51 40.6111 192.939C41.0876 193.369 41.3416 193.926 41.3731 194.611H40.3393C40.3078 194.197 40.1503 193.859 39.8668 193.595C39.5872 193.327 39.2406 193.193 38.8271 193.193C38.2719 193.193 37.8407 193.394 37.5335 193.796C37.2303 194.194 37.0787 194.77 37.0787 195.527V195.733C37.0787 196.47 37.2303 197.037 37.5335 197.435C37.8367 197.832 38.2699 198.031 38.8331 198.031ZM43.6945 193.187C44.1789 192.593 44.809 192.295 45.5848 192.295C46.9355 192.295 47.6168 193.057 47.6286 194.581V198.805H46.5358V194.576C46.5319 194.115 46.4255 193.774 46.2168 193.554C46.012 193.333 45.6911 193.223 45.254 193.223C44.8996 193.223 44.5885 193.317 44.3207 193.506C44.0529 193.695 43.8442 193.943 43.6945 194.251V198.805H42.6017V189.732H43.6945V193.187ZM51.9762 195.55C51.9762 194.924 52.0982 194.361 52.3424 193.861C52.5905 193.361 52.9331 192.975 53.3702 192.703C53.8113 192.431 54.3134 192.295 54.8765 192.295C55.7468 192.295 56.4497 192.597 56.9853 193.199C57.5248 193.802 57.7946 194.603 57.7946 195.603V195.68C57.7946 196.302 57.6745 196.862 57.4342 197.358C57.198 197.85 56.8573 198.234 56.4123 198.51C55.9713 198.785 55.4633 198.923 54.8883 198.923C54.022 198.923 53.319 198.622 52.7795 198.019C52.2439 197.417 51.9762 196.619 51.9762 195.627V195.55ZM53.0749 195.68C53.0749 196.389 53.2383 196.958 53.5651 197.387C53.8959 197.816 54.337 198.031 54.8883 198.031C55.4436 198.031 55.8846 197.815 56.2115 197.381C56.5383 196.944 56.7018 196.334 56.7018 195.55C56.7018 194.849 56.5344 194.282 56.1997 193.849C55.8689 193.412 55.4278 193.193 54.8765 193.193C54.337 193.193 53.9018 193.408 53.571 193.837C53.2403 194.266 53.0749 194.881 53.0749 195.68ZM60.1987 192.414L60.2342 193.217C60.7225 192.603 61.3604 192.295 62.148 192.295C63.4988 192.295 64.18 193.057 64.1919 194.581V198.805H63.0991V194.576C63.0951 194.115 62.9888 193.774 62.7801 193.554C62.5753 193.333 62.2544 193.223 61.8172 193.223C61.4628 193.223 61.1517 193.317 60.8839 193.506C60.6161 193.695 60.4074 193.943 60.2578 194.251V198.805H59.165V192.414H60.1987Z" fill="white"/>
</svg>
