<svg width="389" height="210" viewBox="0 0 389 210" fill="none" xmlns="http://www.w3.org/2000/svg">
<circle cx="25" cy="17" r="17" fill="#0D2BD3"/>
<path d="M35.0006 12.0029L25.6143 17.4253L35.0006 22.8419V21.4227L28.0824 17.4273L35.0006 13.4319V12.0029Z" fill="white"/>
<path d="M25.6208 12.0029H24.3867V22.8426H25.6208V12.0029Z" fill="white"/>
<path d="M15 13.429L21.9181 17.4243L15 21.4197V22.8389L24.3863 17.4223L15 12V13.429Z" fill="white"/>
<path d="M52.44 23V14.104H49.416V12.536H57.32V14.104H54.296V23H52.44ZM58.1993 23V15.144H59.7193L59.8473 16.536H59.9113C60.1886 16.024 60.5246 15.6347 60.9193 15.368C61.3139 15.0907 61.7193 14.952 62.1353 14.952C62.5086 14.952 62.8073 15.0053 63.0313 15.112L62.7113 16.712C62.5726 16.6693 62.4446 16.6373 62.3273 16.616C62.2099 16.5947 62.0659 16.584 61.8953 16.584C61.5859 16.584 61.2606 16.7067 60.9193 16.952C60.5779 17.1867 60.2846 17.6027 60.0393 18.2V23H58.1993ZM65.6501 23.192C64.9568 23.192 64.3968 22.984 63.9701 22.568C63.5435 22.1413 63.3301 21.5813 63.3301 20.888C63.3301 20.472 63.4155 20.104 63.5861 19.784C63.7675 19.4533 64.0448 19.1707 64.4181 18.936C64.8021 18.7013 65.2821 18.504 65.8581 18.344C66.4448 18.184 67.1435 18.0613 67.9541 17.976C67.9435 17.7733 67.9115 17.5813 67.8581 17.4C67.8155 17.208 67.7355 17.0427 67.6181 16.904C67.5115 16.7547 67.3675 16.6427 67.1861 16.568C67.0048 16.4827 66.7808 16.44 66.5141 16.44C66.1301 16.44 65.7515 16.5147 65.3781 16.664C65.0155 16.8133 64.6581 16.9947 64.3061 17.208L63.6341 15.976C64.0715 15.6987 64.5621 15.4587 65.1061 15.256C65.6501 15.0533 66.2368 14.952 66.8661 14.952C67.8475 14.952 68.5781 15.2453 69.0581 15.832C69.5488 16.408 69.7941 17.2453 69.7941 18.344V23H68.2741L68.1461 22.136H68.0821C67.7301 22.4347 67.3515 22.6853 66.9461 22.888C66.5515 23.0907 66.1195 23.192 65.6501 23.192ZM66.2421 21.752C66.5621 21.752 66.8501 21.6773 67.1061 21.528C67.3728 21.3787 67.6555 21.1653 67.9541 20.888V19.128C67.4208 19.192 66.9728 19.2773 66.6101 19.384C66.2475 19.4907 65.9541 19.6133 65.7301 19.752C65.5061 19.88 65.3461 20.0293 65.2501 20.2C65.1541 20.3707 65.1061 20.552 65.1061 20.744C65.1061 21.096 65.2128 21.352 65.4261 21.512C65.6395 21.672 65.9115 21.752 66.2421 21.752ZM75.2761 23.192C74.7428 23.192 74.2415 23.1013 73.7721 22.92C73.3135 22.7387 72.9135 22.472 72.5721 22.12C72.2308 21.768 71.9641 21.336 71.7721 20.824C71.5801 20.312 71.4841 19.7307 71.4841 19.08C71.4841 18.4293 71.5908 17.848 71.8041 17.336C72.0175 16.824 72.3055 16.392 72.6681 16.04C73.0308 15.688 73.4468 15.4213 73.9161 15.24C74.3961 15.048 74.8975 14.952 75.4201 14.952C75.9321 14.952 76.3695 15.0373 76.7321 15.208C77.1055 15.3787 77.4361 15.5867 77.7241 15.832L76.8281 17.032C76.6148 16.8507 76.4015 16.712 76.1881 16.616C75.9855 16.5093 75.7615 16.456 75.5161 16.456C74.8761 16.456 74.3588 16.696 73.9641 17.176C73.5695 17.6453 73.3721 18.28 73.3721 19.08C73.3721 19.8693 73.5641 20.504 73.9481 20.984C74.3428 21.4533 74.8495 21.688 75.4681 21.688C75.7775 21.688 76.0655 21.624 76.3321 21.496C76.6095 21.3573 76.8601 21.1973 77.0841 21.016L77.8361 22.232C77.4628 22.552 77.0521 22.792 76.6041 22.952C76.1668 23.112 75.7241 23.192 75.2761 23.192ZM82.3561 23.192C81.8121 23.192 81.3055 23.1013 80.8361 22.92C80.3668 22.728 79.9561 22.456 79.6041 22.104C79.2521 21.752 78.9748 21.3253 78.7721 20.824C78.5801 20.312 78.4841 19.7307 78.4841 19.08C78.4841 18.44 78.5855 17.864 78.7881 17.352C78.9908 16.84 79.2575 16.408 79.5881 16.056C79.9295 15.704 80.3188 15.432 80.7561 15.24C81.1935 15.048 81.6415 14.952 82.1001 14.952C82.6335 14.952 83.1028 15.0427 83.5081 15.224C83.9135 15.4053 84.2495 15.6613 84.5161 15.992C84.7935 16.3227 85.0015 16.7173 85.1401 17.176C85.2788 17.6347 85.3481 18.136 85.3481 18.68C85.3481 18.8613 85.3375 19.032 85.3161 19.192C85.3055 19.352 85.2895 19.48 85.2681 19.576H80.2761C80.3615 20.28 80.6068 20.824 81.0121 21.208C81.4281 21.5813 81.9561 21.768 82.5961 21.768C82.9375 21.768 83.2521 21.72 83.5401 21.624C83.8388 21.5173 84.1321 21.3733 84.4201 21.192L85.0441 22.344C84.6708 22.5893 84.2548 22.792 83.7961 22.952C83.3375 23.112 82.8575 23.192 82.3561 23.192ZM80.2601 18.328H83.7481C83.7481 17.72 83.6148 17.2453 83.3481 16.904C83.0921 16.552 82.6921 16.376 82.1481 16.376C81.6788 16.376 81.2681 16.5413 80.9161 16.872C80.5641 17.2027 80.3455 17.688 80.2601 18.328ZM87.1055 23V15.144H88.6255L88.7535 16.536H88.8175C89.0948 16.024 89.4308 15.6347 89.8255 15.368C90.2202 15.0907 90.6255 14.952 91.0415 14.952C91.4148 14.952 91.7135 15.0053 91.9375 15.112L91.6175 16.712C91.4788 16.6693 91.3508 16.6373 91.2335 16.616C91.1162 16.5947 90.9722 16.584 90.8015 16.584C90.4922 16.584 90.1668 16.7067 89.8255 16.952C89.4842 17.1867 89.1908 17.6027 88.9455 18.2V23H87.1055ZM96.4374 23V12.536H99.2374C100.837 12.536 102.085 12.968 102.981 13.832C103.877 14.696 104.325 15.992 104.325 17.72C104.325 18.584 104.208 19.3467 103.973 20.008C103.749 20.6693 103.419 21.224 102.981 21.672C102.555 22.1093 102.032 22.44 101.413 22.664C100.805 22.888 100.112 23 99.3334 23H96.4374ZM98.2934 21.496H99.1094C100.176 21.496 100.992 21.192 101.557 20.584C102.133 19.9653 102.421 19.0107 102.421 17.72C102.421 16.44 102.133 15.5067 101.557 14.92C100.981 14.3333 100.165 14.04 99.1094 14.04H98.2934V21.496ZM106.277 23V15.144H107.797L107.925 16.536H107.989C108.267 16.024 108.603 15.6347 108.997 15.368C109.392 15.0907 109.797 14.952 110.213 14.952C110.587 14.952 110.885 15.0053 111.109 15.112L110.789 16.712C110.651 16.6693 110.523 16.6373 110.405 16.616C110.288 16.5947 110.144 16.584 109.973 16.584C109.664 16.584 109.339 16.7067 108.997 16.952C108.656 17.1867 108.363 17.6027 108.117 18.2V23H106.277ZM115.306 23.192C114.815 23.192 114.346 23.1013 113.898 22.92C113.45 22.7387 113.05 22.472 112.698 22.12C112.357 21.768 112.085 21.336 111.882 20.824C111.679 20.312 111.578 19.7307 111.578 19.08C111.578 18.4293 111.679 17.848 111.882 17.336C112.085 16.824 112.357 16.392 112.698 16.04C113.05 15.688 113.45 15.4213 113.898 15.24C114.346 15.048 114.815 14.952 115.306 14.952C115.797 14.952 116.266 15.048 116.714 15.24C117.173 15.4213 117.573 15.688 117.914 16.04C118.255 16.392 118.527 16.824 118.73 17.336C118.943 17.848 119.05 18.4293 119.05 19.08C119.05 19.7307 118.943 20.312 118.73 20.824C118.527 21.336 118.255 21.768 117.914 22.12C117.573 22.472 117.173 22.7387 116.714 22.92C116.266 23.1013 115.797 23.192 115.306 23.192ZM115.306 21.688C115.882 21.688 116.335 21.4533 116.666 20.984C116.997 20.504 117.162 19.8693 117.162 19.08C117.162 18.28 116.997 17.6453 116.666 17.176C116.335 16.696 115.882 16.456 115.306 16.456C114.73 16.456 114.277 16.696 113.946 17.176C113.626 17.6453 113.466 18.28 113.466 19.08C113.466 19.8693 113.626 20.504 113.946 20.984C114.277 21.4533 114.73 21.688 115.306 21.688ZM120.871 26.104V15.144H122.391L122.519 15.976H122.583C122.914 15.6987 123.282 15.4587 123.687 15.256C124.092 15.0533 124.514 14.952 124.951 14.952C125.442 14.952 125.874 15.048 126.247 15.24C126.631 15.4213 126.956 15.688 127.223 16.04C127.49 16.392 127.692 16.8133 127.831 17.304C127.97 17.7947 128.039 18.344 128.039 18.952C128.039 19.624 127.943 20.2267 127.751 20.76C127.57 21.2827 127.324 21.7253 127.015 22.088C126.706 22.44 126.348 22.712 125.943 22.904C125.538 23.096 125.116 23.192 124.679 23.192C124.338 23.192 123.996 23.1173 123.655 22.968C123.314 22.8187 122.983 22.6053 122.663 22.328L122.711 23.64V26.104H120.871ZM124.295 21.672C124.818 21.672 125.255 21.448 125.607 21C125.959 20.5413 126.135 19.864 126.135 18.968C126.135 18.1787 126.002 17.5653 125.735 17.128C125.468 16.6907 125.036 16.472 124.439 16.472C123.884 16.472 123.308 16.7653 122.711 17.352V21.016C122.999 21.2613 123.276 21.432 123.543 21.528C123.81 21.624 124.06 21.672 124.295 21.672ZM134.402 23L132.322 15.144H134.178L135.122 19.224C135.207 19.5973 135.276 19.9707 135.33 20.344C135.394 20.7173 135.463 21.096 135.538 21.48H135.602C135.676 21.096 135.751 20.7173 135.826 20.344C135.911 19.9707 136.002 19.5973 136.098 19.224L137.122 15.144H138.802L139.842 19.224C139.938 19.5973 140.028 19.9707 140.114 20.344C140.199 20.7173 140.284 21.096 140.37 21.48H140.434C140.508 21.096 140.578 20.7173 140.642 20.344C140.706 19.9707 140.775 19.5973 140.85 19.224L141.794 15.144H143.522L141.522 23H139.33L138.418 19.336C138.332 18.9627 138.252 18.5947 138.178 18.232C138.103 17.8587 138.023 17.464 137.938 17.048H137.874C137.799 17.464 137.724 17.8587 137.65 18.232C137.575 18.6053 137.495 18.9787 137.41 19.352L136.514 23H134.402ZM145.074 23V15.144H146.914V23H145.074ZM146.002 13.768C145.672 13.768 145.4 13.672 145.186 13.48C144.973 13.288 144.866 13.0373 144.866 12.728C144.866 12.4187 144.973 12.168 145.186 11.976C145.4 11.7733 145.672 11.672 146.002 11.672C146.333 11.672 146.605 11.7733 146.818 11.976C147.032 12.168 147.138 12.4187 147.138 12.728C147.138 13.0373 147.032 13.288 146.818 13.48C146.605 13.672 146.333 13.768 146.002 13.768ZM152.03 23.192C151.571 23.192 151.182 23.1227 150.862 22.984C150.552 22.8453 150.296 22.6533 150.094 22.408C149.902 22.152 149.758 21.8533 149.662 21.512C149.576 21.16 149.534 20.7707 149.534 20.344V16.6H148.414V15.224L149.63 15.144L149.854 13H151.39V15.144H153.39V16.6H151.39V20.344C151.39 21.2613 151.758 21.72 152.494 21.72C152.632 21.72 152.771 21.704 152.91 21.672C153.059 21.64 153.192 21.5973 153.31 21.544L153.63 22.904C153.416 22.9787 153.171 23.0427 152.894 23.096C152.627 23.16 152.339 23.192 152.03 23.192ZM155.043 23V11.704H156.883V14.616L156.819 16.136C157.15 15.8267 157.512 15.5547 157.907 15.32C158.312 15.0747 158.787 14.952 159.331 14.952C160.174 14.952 160.787 15.224 161.171 15.768C161.555 16.3013 161.747 17.0693 161.747 18.072V23H159.907V18.312C159.907 17.6613 159.811 17.2027 159.619 16.936C159.427 16.6693 159.112 16.536 158.675 16.536C158.334 16.536 158.03 16.6213 157.763 16.792C157.507 16.952 157.214 17.192 156.883 17.512V23H155.043ZM167.328 23V12.536H170.864C171.408 12.536 171.915 12.5893 172.384 12.696C172.853 12.8027 173.259 12.9787 173.6 13.224C173.941 13.4587 174.208 13.7733 174.4 14.168C174.603 14.5627 174.704 15.0533 174.704 15.64C174.704 16.44 174.512 17.0853 174.128 17.576C173.755 18.0667 173.253 18.4187 172.624 18.632L175.12 23H173.04L170.784 18.904H169.184V23H167.328ZM169.184 17.432H170.672C171.387 17.432 171.931 17.2827 172.304 16.984C172.688 16.6853 172.88 16.2373 172.88 15.64C172.88 15.032 172.688 14.6107 172.304 14.376C171.931 14.1413 171.387 14.024 170.672 14.024H169.184V17.432ZM176.797 23V12.536H178.893L180.749 17.656C180.866 17.9867 180.978 18.328 181.085 18.68C181.191 19.0213 181.303 19.3627 181.421 19.704H181.485C181.602 19.3627 181.709 19.0213 181.805 18.68C181.911 18.328 182.023 17.9867 182.141 17.656L183.949 12.536H186.061V23H184.349V18.216C184.349 17.9707 184.354 17.704 184.365 17.416C184.386 17.128 184.407 16.84 184.429 16.552C184.45 16.2533 184.477 15.9653 184.509 15.688C184.541 15.4 184.567 15.1333 184.589 14.888H184.525L183.677 17.32L181.965 22.024H180.861L179.133 17.32L178.301 14.888H178.237C178.258 15.1333 178.279 15.4 178.301 15.688C178.333 15.9653 178.359 16.2533 178.381 16.552C178.413 16.84 178.434 17.128 178.445 17.416C178.466 17.704 178.477 17.9707 178.477 18.216V23H176.797ZM188.719 23V12.536H190.575V23H188.719ZM195.346 23V14.104H192.322V12.536H200.226V14.104H197.202V23H195.346ZM205.252 23L205.636 19.88H204.404V18.664H205.764L206.02 16.6H204.724V15.384H206.18L206.532 12.6H207.636L207.3 15.384H209.172L209.54 12.6H210.628L210.292 15.384H211.572V16.6H210.148L209.892 18.664H211.252V19.88H209.748L209.38 23H208.26L208.628 19.88H206.756L206.372 23H205.252ZM206.884 18.664H208.772L209.028 16.6H207.14L206.884 18.664ZM213.231 23V21.496H215.503V14.808H213.631V13.656C214.143 13.56 214.58 13.448 214.943 13.32C215.316 13.1813 215.663 13.016 215.983 12.824H217.359V21.496H219.359V23H213.231ZM224.346 23.192C223.279 23.192 222.437 22.7387 221.818 21.832C221.199 20.9147 220.89 19.592 220.89 17.864C220.89 16.136 221.199 14.8347 221.818 13.96C222.437 13.0747 223.279 12.632 224.346 12.632C225.413 12.632 226.255 13.0747 226.874 13.96C227.493 14.8453 227.802 16.1467 227.802 17.864C227.802 19.592 227.493 20.9147 226.874 21.832C226.255 22.7387 225.413 23.192 224.346 23.192ZM224.346 21.752C224.591 21.752 224.815 21.688 225.018 21.56C225.231 21.4213 225.413 21.1973 225.562 20.888C225.711 20.5787 225.829 20.1787 225.914 19.688C225.999 19.1973 226.042 18.5893 226.042 17.864C226.042 17.1493 225.999 16.552 225.914 16.072C225.829 15.5813 225.711 15.1867 225.562 14.888C225.413 14.5893 225.231 14.3813 225.018 14.264C224.815 14.136 224.591 14.072 224.346 14.072C224.101 14.072 223.871 14.136 223.658 14.264C223.455 14.3813 223.279 14.5893 223.13 14.888C222.981 15.1867 222.863 15.5813 222.778 16.072C222.693 16.552 222.65 17.1493 222.65 17.864C222.65 18.5893 222.693 19.1973 222.778 19.688C222.863 20.1787 222.981 20.5787 223.13 20.888C223.279 21.1973 223.455 21.4213 223.658 21.56C223.871 21.688 224.101 21.752 224.346 21.752ZM230.661 17.72C230.32 17.72 230.032 17.6027 229.797 17.368C229.573 17.1333 229.461 16.8347 229.461 16.472C229.461 16.1093 229.573 15.8107 229.797 15.576C230.032 15.3413 230.32 15.224 230.661 15.224C231.002 15.224 231.285 15.3413 231.509 15.576C231.733 15.8107 231.845 16.1093 231.845 16.472C231.845 16.8347 231.733 17.1333 231.509 17.368C231.285 17.6027 231.002 17.72 230.661 17.72ZM230.661 23.192C230.32 23.192 230.032 23.0747 229.797 22.84C229.573 22.6053 229.461 22.3067 229.461 21.944C229.461 21.5813 229.573 21.2827 229.797 21.048C230.032 20.8133 230.32 20.696 230.661 20.696C231.002 20.696 231.285 20.8133 231.509 21.048C231.733 21.2827 231.845 21.5813 231.845 21.944C231.845 22.3067 231.733 22.6053 231.509 22.84C231.285 23.0747 231.002 23.192 230.661 23.192ZM238.431 23L236.351 12.536H238.255L239.167 17.816C239.252 18.3813 239.337 18.9413 239.423 19.496C239.508 20.0507 239.593 20.6053 239.679 21.16H239.743C239.86 20.6053 239.972 20.0507 240.079 19.496C240.196 18.9307 240.313 18.3707 240.431 17.816L241.711 12.536H243.327L244.607 17.816C244.724 18.36 244.841 18.9147 244.959 19.48C245.076 20.0347 245.193 20.5947 245.311 21.16H245.375C245.46 20.5947 245.54 20.0347 245.615 19.48C245.7 18.9253 245.785 18.3707 245.871 17.816L246.783 12.536H248.559L246.559 23H244.255L242.959 17.496C242.873 17.0907 242.788 16.6907 242.703 16.296C242.628 15.8907 242.559 15.4853 242.495 15.08H242.431C242.356 15.4853 242.276 15.8907 242.191 16.296C242.116 16.6907 242.036 17.0907 241.951 17.496L240.687 23H238.431ZM250.027 23V11.704H251.867V14.616L251.803 16.136C252.134 15.8267 252.497 15.5547 252.891 15.32C253.297 15.0747 253.771 14.952 254.315 14.952C255.158 14.952 255.771 15.224 256.155 15.768C256.539 16.3013 256.731 17.0693 256.731 18.072V23H254.891V18.312C254.891 17.6613 254.795 17.2027 254.603 16.936C254.411 16.6693 254.097 16.536 253.659 16.536C253.318 16.536 253.014 16.6213 252.747 16.792C252.491 16.952 252.198 17.192 251.867 17.512V23H250.027ZM260.853 23.192C260.16 23.192 259.6 22.984 259.173 22.568C258.747 22.1413 258.533 21.5813 258.533 20.888C258.533 20.472 258.619 20.104 258.789 19.784C258.971 19.4533 259.248 19.1707 259.621 18.936C260.005 18.7013 260.485 18.504 261.061 18.344C261.648 18.184 262.347 18.0613 263.157 17.976C263.147 17.7733 263.115 17.5813 263.061 17.4C263.019 17.208 262.939 17.0427 262.821 16.904C262.715 16.7547 262.571 16.6427 262.389 16.568C262.208 16.4827 261.984 16.44 261.717 16.44C261.333 16.44 260.955 16.5147 260.581 16.664C260.219 16.8133 259.861 16.9947 259.509 17.208L258.837 15.976C259.275 15.6987 259.765 15.4587 260.309 15.256C260.853 15.0533 261.44 14.952 262.069 14.952C263.051 14.952 263.781 15.2453 264.261 15.832C264.752 16.408 264.997 17.2453 264.997 18.344V23H263.477L263.349 22.136H263.285C262.933 22.4347 262.555 22.6853 262.149 22.888C261.755 23.0907 261.323 23.192 260.853 23.192ZM261.445 21.752C261.765 21.752 262.053 21.6773 262.309 21.528C262.576 21.3787 262.859 21.1653 263.157 20.888V19.128C262.624 19.192 262.176 19.2773 261.813 19.384C261.451 19.4907 261.157 19.6133 260.933 19.752C260.709 19.88 260.549 20.0293 260.453 20.2C260.357 20.3707 260.309 20.552 260.309 20.744C260.309 21.096 260.416 21.352 260.629 21.512C260.843 21.672 261.115 21.752 261.445 21.752ZM269.717 23.192C269.259 23.192 268.869 23.1227 268.549 22.984C268.24 22.8453 267.984 22.6533 267.781 22.408C267.589 22.152 267.445 21.8533 267.349 21.512C267.264 21.16 267.221 20.7707 267.221 20.344V16.6H266.101V15.224L267.317 15.144L267.541 13H269.077V15.144H271.077V16.6H269.077V20.344C269.077 21.2613 269.445 21.72 270.181 21.72C270.32 21.72 270.459 21.704 270.597 21.672C270.747 21.64 270.88 21.5973 270.997 21.544L271.317 22.904C271.104 22.9787 270.859 23.0427 270.581 23.096C270.315 23.16 270.027 23.192 269.717 23.192ZM277.23 23L275.15 15.144H277.006L277.95 19.224C278.035 19.5973 278.104 19.9707 278.158 20.344C278.222 20.7173 278.291 21.096 278.366 21.48H278.43C278.504 21.096 278.579 20.7173 278.654 20.344C278.739 19.9707 278.83 19.5973 278.926 19.224L279.95 15.144H281.63L282.67 19.224C282.766 19.5973 282.856 19.9707 282.942 20.344C283.027 20.7173 283.112 21.096 283.198 21.48H283.262C283.336 21.096 283.406 20.7173 283.47 20.344C283.534 19.9707 283.603 19.5973 283.678 19.224L284.622 15.144H286.35L284.35 23H282.158L281.246 19.336C281.16 18.9627 281.08 18.5947 281.006 18.232C280.931 17.8587 280.851 17.464 280.766 17.048H280.702C280.627 17.464 280.552 17.8587 280.478 18.232C280.403 18.6053 280.323 18.9787 280.238 19.352L279.342 23H277.23ZM291.169 23.192C290.625 23.192 290.118 23.1013 289.649 22.92C289.179 22.728 288.769 22.456 288.417 22.104C288.065 21.752 287.787 21.3253 287.585 20.824C287.393 20.312 287.297 19.7307 287.297 19.08C287.297 18.44 287.398 17.864 287.601 17.352C287.803 16.84 288.07 16.408 288.401 16.056C288.742 15.704 289.131 15.432 289.569 15.24C290.006 15.048 290.454 14.952 290.913 14.952C291.446 14.952 291.915 15.0427 292.321 15.224C292.726 15.4053 293.062 15.6613 293.329 15.992C293.606 16.3227 293.814 16.7173 293.953 17.176C294.091 17.6347 294.161 18.136 294.161 18.68C294.161 18.8613 294.15 19.032 294.129 19.192C294.118 19.352 294.102 19.48 294.081 19.576H289.089C289.174 20.28 289.419 20.824 289.825 21.208C290.241 21.5813 290.769 21.768 291.409 21.768C291.75 21.768 292.065 21.72 292.353 21.624C292.651 21.5173 292.945 21.3733 293.233 21.192L293.857 22.344C293.483 22.5893 293.067 22.792 292.609 22.952C292.15 23.112 291.67 23.192 291.169 23.192ZM289.073 18.328H292.561C292.561 17.72 292.427 17.2453 292.161 16.904C291.905 16.552 291.505 16.376 290.961 16.376C290.491 16.376 290.081 16.5413 289.729 16.872C289.377 17.2027 289.158 17.688 289.073 18.328ZM302.401 23.192C301.868 23.192 301.366 23.1013 300.897 22.92C300.438 22.7387 300.038 22.472 299.697 22.12C299.356 21.768 299.089 21.336 298.897 20.824C298.705 20.312 298.609 19.7307 298.609 19.08C298.609 18.4293 298.716 17.848 298.929 17.336C299.142 16.824 299.43 16.392 299.793 16.04C300.156 15.688 300.572 15.4213 301.041 15.24C301.521 15.048 302.022 14.952 302.545 14.952C303.057 14.952 303.494 15.0373 303.857 15.208C304.23 15.3787 304.561 15.5867 304.849 15.832L303.953 17.032C303.74 16.8507 303.526 16.712 303.313 16.616C303.11 16.5093 302.886 16.456 302.641 16.456C302.001 16.456 301.484 16.696 301.089 17.176C300.694 17.6453 300.497 18.28 300.497 19.08C300.497 19.8693 300.689 20.504 301.073 20.984C301.468 21.4533 301.974 21.688 302.593 21.688C302.902 21.688 303.19 21.624 303.457 21.496C303.734 21.3573 303.985 21.1973 304.209 21.016L304.961 22.232C304.588 22.552 304.177 22.792 303.729 22.952C303.292 23.112 302.849 23.192 302.401 23.192ZM308.26 23.192C307.566 23.192 307.006 22.984 306.58 22.568C306.153 22.1413 305.94 21.5813 305.94 20.888C305.94 20.472 306.025 20.104 306.196 19.784C306.377 19.4533 306.654 19.1707 307.028 18.936C307.412 18.7013 307.892 18.504 308.468 18.344C309.054 18.184 309.753 18.0613 310.564 17.976C310.553 17.7733 310.521 17.5813 310.468 17.4C310.425 17.208 310.345 17.0427 310.228 16.904C310.121 16.7547 309.977 16.6427 309.796 16.568C309.614 16.4827 309.39 16.44 309.124 16.44C308.74 16.44 308.361 16.5147 307.988 16.664C307.625 16.8133 307.268 16.9947 306.916 17.208L306.243 15.976C306.681 15.6987 307.172 15.4587 307.716 15.256C308.26 15.0533 308.846 14.952 309.476 14.952C310.457 14.952 311.188 15.2453 311.668 15.832C312.158 16.408 312.404 17.2453 312.404 18.344V23H310.884L310.756 22.136H310.692C310.34 22.4347 309.961 22.6853 309.556 22.888C309.161 23.0907 308.729 23.192 308.26 23.192ZM308.852 21.752C309.172 21.752 309.46 21.6773 309.716 21.528C309.982 21.3787 310.265 21.1653 310.564 20.888V19.128C310.03 19.192 309.582 19.2773 309.22 19.384C308.857 19.4907 308.564 19.6133 308.34 19.752C308.116 19.88 307.956 20.0293 307.86 20.2C307.764 20.3707 307.716 20.552 307.716 20.744C307.716 21.096 307.822 21.352 308.036 21.512C308.249 21.672 308.521 21.752 308.852 21.752ZM314.606 23V15.144H316.126L316.254 16.2H316.318C316.67 15.8587 317.048 15.5653 317.454 15.32C317.87 15.0747 318.35 14.952 318.894 14.952C319.736 14.952 320.35 15.224 320.734 15.768C321.118 16.3013 321.31 17.0693 321.31 18.072V23H319.47V18.312C319.47 17.6613 319.374 17.2027 319.182 16.936C318.99 16.6693 318.675 16.536 318.238 16.536C317.896 16.536 317.592 16.6213 317.326 16.792C317.07 16.952 316.776 17.192 316.446 17.512V23H314.606ZM329.514 23.192C328.522 23.192 327.732 22.8347 327.146 22.12C326.57 21.3947 326.282 20.3813 326.282 19.08C326.282 18.44 326.372 17.864 326.554 17.352C326.746 16.84 326.996 16.408 327.306 16.056C327.615 15.704 327.967 15.432 328.362 15.24C328.767 15.048 329.183 14.952 329.61 14.952C330.058 14.952 330.436 15.032 330.746 15.192C331.055 15.3413 331.364 15.5493 331.674 15.816L331.61 14.552V11.704H333.45V23H331.93L331.802 22.152H331.738C331.45 22.44 331.114 22.6853 330.73 22.888C330.346 23.0907 329.94 23.192 329.514 23.192ZM329.962 21.672C330.548 21.672 331.098 21.3787 331.61 20.792V17.128C331.332 16.8827 331.06 16.712 330.794 16.616C330.538 16.52 330.276 16.472 330.01 16.472C329.498 16.472 329.066 16.696 328.714 17.144C328.362 17.592 328.186 18.232 328.186 19.064C328.186 19.9173 328.335 20.568 328.634 21.016C328.943 21.4533 329.386 21.672 329.962 21.672ZM339.009 23.192C338.518 23.192 338.049 23.1013 337.601 22.92C337.153 22.7387 336.753 22.472 336.401 22.12C336.06 21.768 335.788 21.336 335.585 20.824C335.382 20.312 335.281 19.7307 335.281 19.08C335.281 18.4293 335.382 17.848 335.585 17.336C335.788 16.824 336.06 16.392 336.401 16.04C336.753 15.688 337.153 15.4213 337.601 15.24C338.049 15.048 338.518 14.952 339.009 14.952C339.5 14.952 339.969 15.048 340.417 15.24C340.876 15.4213 341.276 15.688 341.617 16.04C341.958 16.392 342.23 16.824 342.433 17.336C342.646 17.848 342.753 18.4293 342.753 19.08C342.753 19.7307 342.646 20.312 342.433 20.824C342.23 21.336 341.958 21.768 341.617 22.12C341.276 22.472 340.876 22.7387 340.417 22.92C339.969 23.1013 339.5 23.192 339.009 23.192ZM339.009 21.688C339.585 21.688 340.038 21.4533 340.369 20.984C340.7 20.504 340.865 19.8693 340.865 19.08C340.865 18.28 340.7 17.6453 340.369 17.176C340.038 16.696 339.585 16.456 339.009 16.456C338.433 16.456 337.98 16.696 337.649 17.176C337.329 17.6453 337.169 18.28 337.169 19.08C337.169 19.8693 337.329 20.504 337.649 20.984C337.98 21.4533 338.433 21.688 339.009 21.688ZM349.073 23L346.993 15.144H348.849L349.793 19.224C349.879 19.5973 349.948 19.9707 350.001 20.344C350.065 20.7173 350.135 21.096 350.209 21.48H350.273C350.348 21.096 350.423 20.7173 350.497 20.344C350.583 19.9707 350.673 19.5973 350.769 19.224L351.793 15.144H353.473L354.513 19.224C354.609 19.5973 354.7 19.9707 354.785 20.344C354.871 20.7173 354.956 21.096 355.041 21.48H355.105C355.18 21.096 355.249 20.7173 355.313 20.344C355.377 19.9707 355.447 19.5973 355.521 19.224L356.465 15.144H358.193L356.193 23H354.001L353.089 19.336C353.004 18.9627 352.924 18.5947 352.849 18.232C352.775 17.8587 352.695 17.464 352.609 17.048H352.545C352.471 17.464 352.396 17.8587 352.321 18.232C352.247 18.6053 352.167 18.9787 352.081 19.352L351.185 23H349.073ZM359.746 23V15.144H361.586V23H359.746ZM360.674 13.768C360.343 13.768 360.071 13.672 359.858 13.48C359.645 13.288 359.538 13.0373 359.538 12.728C359.538 12.4187 359.645 12.168 359.858 11.976C360.071 11.7733 360.343 11.672 360.674 11.672C361.005 11.672 361.277 11.7733 361.49 11.976C361.703 12.168 361.81 12.4187 361.81 12.728C361.81 13.0373 361.703 13.288 361.49 13.48C361.277 13.672 361.005 13.768 360.674 13.768ZM366.702 23.192C366.243 23.192 365.854 23.1227 365.534 22.984C365.224 22.8453 364.968 22.6533 364.766 22.408C364.574 22.152 364.43 21.8533 364.334 21.512C364.248 21.16 364.206 20.7707 364.206 20.344V16.6H363.086V15.224L364.302 15.144L364.526 13H366.062V15.144H368.062V16.6H366.062V20.344C366.062 21.2613 366.43 21.72 367.166 21.72C367.304 21.72 367.443 21.704 367.582 21.672C367.731 21.64 367.864 21.5973 367.982 21.544L368.302 22.904C368.088 22.9787 367.843 23.0427 367.566 23.096C367.299 23.16 367.011 23.192 366.702 23.192ZM370.708 23.192C370.367 23.192 370.079 23.0747 369.844 22.84C369.62 22.6053 369.508 22.3067 369.508 21.944C369.508 21.5813 369.62 21.2827 369.844 21.048C370.079 20.8133 370.367 20.696 370.708 20.696C371.049 20.696 371.332 20.8133 371.556 21.048C371.78 21.2827 371.892 21.5813 371.892 21.944C371.892 22.3067 371.78 22.6053 371.556 22.84C371.332 23.0747 371.049 23.192 370.708 23.192ZM375.114 23.192C374.773 23.192 374.485 23.0747 374.25 22.84C374.026 22.6053 373.914 22.3067 373.914 21.944C373.914 21.5813 374.026 21.2827 374.25 21.048C374.485 20.8133 374.773 20.696 375.114 20.696C375.456 20.696 375.738 20.8133 375.962 21.048C376.186 21.2827 376.298 21.5813 376.298 21.944C376.298 22.3067 376.186 22.6053 375.962 22.84C375.738 23.0747 375.456 23.192 375.114 23.192ZM379.521 23.192C379.179 23.192 378.891 23.0747 378.657 22.84C378.433 22.6053 378.321 22.3067 378.321 21.944C378.321 21.5813 378.433 21.2827 378.657 21.048C378.891 20.8133 379.179 20.696 379.521 20.696C379.862 20.696 380.145 20.8133 380.369 21.048C380.593 21.2827 380.705 21.5813 380.705 21.944C380.705 22.3067 380.593 22.6053 380.369 22.84C380.145 23.0747 379.862 23.192 379.521 23.192Z" fill="white"/>
<g style="mix-blend-mode:multiply" opacity="0.5">
<rect y="179" width="162" height="31" fill="black"/>
</g>
<path fill-rule="evenodd" clip-rule="evenodd" d="M97.6895 188.52C97.4113 187.452 96.5914 186.61 95.5503 186.324C93.6636 185.805 86.0976 185.805 86.0976 185.805C86.0976 185.805 78.5315 185.805 76.6447 186.324C75.6036 186.61 74.7837 187.452 74.5055 188.52C74 190.458 74 194.5 74 194.5C74 194.5 74 198.542 74.5055 200.48C74.7837 201.549 75.6036 202.39 76.6447 202.676C78.5315 203.195 86.0976 203.195 86.0976 203.195C86.0976 203.195 93.6636 203.195 95.5503 202.676C96.5914 202.39 97.4113 201.549 97.6895 200.48C98.1951 198.542 98.1951 194.5 98.1951 194.5C98.1951 194.5 98.1951 190.458 97.6895 188.52Z" fill="white"/>
<path fill-rule="evenodd" clip-rule="evenodd" d="M83.8301 198.659V191.098L89.8789 194.878L83.8301 198.659Z" fill="black"/>
<path d="M106.466 194.079L108.255 190.204H110.193L107.369 195.686V198.805H105.568V195.686L102.744 190.204H104.688L106.466 194.079ZM110.211 195.55C110.211 194.916 110.333 194.351 110.577 193.855C110.821 193.359 111.172 192.975 111.628 192.703C112.089 192.431 112.623 192.295 113.229 192.295C114.092 192.295 114.795 192.559 115.338 193.087C115.885 193.615 116.191 194.331 116.254 195.237L116.265 195.674C116.265 196.655 115.992 197.442 115.444 198.037C114.897 198.628 114.162 198.923 113.241 198.923C112.32 198.923 111.583 198.628 111.032 198.037C110.484 197.446 110.211 196.643 110.211 195.627V195.55ZM111.918 195.674C111.918 196.281 112.032 196.745 112.26 197.068C112.489 197.387 112.816 197.547 113.241 197.547C113.654 197.547 113.977 197.389 114.21 197.074C114.442 196.755 114.558 196.247 114.558 195.55C114.558 194.956 114.442 194.495 114.21 194.168C113.977 193.841 113.651 193.678 113.229 193.678C112.812 193.678 112.489 193.841 112.26 194.168C112.032 194.491 111.918 194.993 111.918 195.674ZM121.145 198.155C120.723 198.667 120.14 198.923 119.396 198.923C118.711 198.923 118.187 198.726 117.825 198.332C117.466 197.939 117.283 197.362 117.275 196.602V192.414H118.983V196.543C118.983 197.208 119.286 197.541 119.892 197.541C120.471 197.541 120.869 197.34 121.086 196.938V192.414H122.799V198.805H121.192L121.145 198.155ZM130.673 191.64H128.038V198.805H126.266V191.64H123.667V190.204H130.673V191.64ZM135.014 198.155C134.593 198.667 134.01 198.923 133.266 198.923C132.581 198.923 132.057 198.726 131.695 198.332C131.336 197.939 131.153 197.362 131.145 196.602V192.414H132.852V196.543C132.852 197.208 133.156 197.541 133.762 197.541C134.341 197.541 134.739 197.34 134.955 196.938V192.414H136.668V198.805H135.061L135.014 198.155ZM143.715 195.668C143.715 196.692 143.497 197.492 143.06 198.067C142.622 198.638 142.012 198.923 141.228 198.923C140.535 198.923 139.982 198.657 139.569 198.126L139.492 198.805H137.956V189.732H139.663V192.987C140.057 192.526 140.575 192.295 141.217 192.295C141.996 192.295 142.607 192.583 143.048 193.158C143.493 193.729 143.715 194.534 143.715 195.574V195.668ZM142.008 195.544C142.008 194.898 141.906 194.428 141.701 194.132C141.496 193.833 141.191 193.684 140.785 193.684C140.242 193.684 139.868 193.906 139.663 194.351V196.873C139.872 197.322 140.25 197.547 140.797 197.547C141.349 197.547 141.711 197.275 141.884 196.732C141.967 196.472 142.008 196.076 142.008 195.544ZM147.714 198.923C146.777 198.923 146.013 198.636 145.422 198.061C144.836 197.486 144.542 196.72 144.542 195.763V195.597C144.542 194.956 144.666 194.383 144.914 193.878C145.162 193.37 145.513 192.981 145.966 192.709C146.423 192.433 146.942 192.295 147.525 192.295C148.4 192.295 149.087 192.571 149.587 193.122C150.091 193.674 150.343 194.455 150.343 195.467V196.164H146.273C146.328 196.582 146.494 196.917 146.769 197.169C147.049 197.421 147.401 197.547 147.827 197.547C148.484 197.547 148.998 197.308 149.368 196.832L150.207 197.771C149.951 198.134 149.605 198.417 149.167 198.622C148.73 198.823 148.246 198.923 147.714 198.923ZM147.519 193.678C147.181 193.678 146.905 193.792 146.692 194.02C146.484 194.249 146.35 194.576 146.291 195.001H148.665V194.865C148.657 194.487 148.555 194.195 148.358 193.991C148.161 193.782 147.882 193.678 147.519 193.678Z" fill="white"/>
<path d="M17.2193 196.094L17.3847 197.228L17.6269 196.206L19.3281 190.204H20.285L21.9449 196.206L22.1812 197.245L22.3643 196.088L23.6993 190.204H24.8393L22.7542 198.805H21.7204L19.9483 192.538L19.8125 191.882L19.6766 192.538L17.8395 198.805H16.8058L14.7265 190.204H15.8607L17.2193 196.094ZM29.6772 198.805C29.6142 198.679 29.563 198.454 29.5236 198.132C29.0156 198.659 28.4091 198.923 27.7042 198.923C27.0742 198.923 26.5563 198.746 26.1507 198.391C25.749 198.033 25.5482 197.58 25.5482 197.033C25.5482 196.367 25.8002 195.851 26.3043 195.485C26.8123 195.115 27.5251 194.93 28.4426 194.93H29.5059V194.428C29.5059 194.046 29.3917 193.743 29.1633 193.518C28.9349 193.29 28.5982 193.176 28.1532 193.176C27.7633 193.176 27.4365 193.274 27.1726 193.471C26.9088 193.668 26.7768 193.906 26.7768 194.186H25.6781C25.6781 193.867 25.7904 193.56 26.0148 193.264C26.2432 192.965 26.5504 192.729 26.9363 192.555C27.3262 192.382 27.7535 192.295 28.2182 192.295C28.9546 192.295 29.5315 192.48 29.9489 192.851C30.3663 193.217 30.5829 193.723 30.5987 194.369V197.31C30.5987 197.897 30.6735 198.364 30.8231 198.71V198.805H29.6772ZM27.8637 197.972C28.2063 197.972 28.5312 197.883 28.8384 197.706C29.1456 197.529 29.3681 197.299 29.5059 197.015V195.704H28.6494C27.3104 195.704 26.641 196.096 26.641 196.879C26.641 197.222 26.7552 197.49 26.9836 197.683C27.212 197.876 27.5054 197.972 27.8637 197.972ZM33.7944 190.866V192.414H34.9876V193.258H33.7944V197.222C33.7944 197.478 33.8475 197.671 33.9539 197.801C34.0602 197.927 34.2413 197.99 34.4973 197.99C34.6233 197.99 34.7966 197.966 35.0171 197.919V198.805C34.7297 198.884 34.4501 198.923 34.1783 198.923C33.69 198.923 33.3218 198.775 33.0737 198.48C32.8256 198.185 32.7016 197.765 32.7016 197.222V193.258H31.5379V192.414H32.7016V190.866H33.7944ZM38.8331 198.031C39.2229 198.031 39.5636 197.913 39.855 197.677C40.1464 197.44 40.3078 197.145 40.3393 196.791H41.3731C41.3534 197.157 41.2274 197.505 40.995 197.836C40.7627 198.167 40.4516 198.431 40.0617 198.628C39.6758 198.825 39.2662 198.923 38.8331 198.923C37.9628 198.923 37.2697 198.634 36.7538 198.055C36.2418 197.472 35.9859 196.676 35.9859 195.668V195.485C35.9859 194.863 36.1001 194.31 36.3285 193.825C36.5569 193.341 36.8837 192.965 37.309 192.697C37.7383 192.429 38.2443 192.295 38.8271 192.295C39.5439 192.295 40.1385 192.51 40.6111 192.939C41.0876 193.369 41.3416 193.926 41.3731 194.611H40.3393C40.3078 194.197 40.1503 193.859 39.8668 193.595C39.5872 193.327 39.2406 193.193 38.8271 193.193C38.2719 193.193 37.8407 193.394 37.5335 193.796C37.2303 194.194 37.0787 194.77 37.0787 195.527V195.733C37.0787 196.47 37.2303 197.037 37.5335 197.435C37.8367 197.832 38.2699 198.031 38.8331 198.031ZM43.6945 193.187C44.1789 192.593 44.809 192.295 45.5848 192.295C46.9355 192.295 47.6168 193.057 47.6286 194.581V198.805H46.5358V194.576C46.5319 194.115 46.4255 193.774 46.2168 193.554C46.012 193.333 45.6911 193.223 45.254 193.223C44.8996 193.223 44.5885 193.317 44.3207 193.506C44.0529 193.695 43.8442 193.943 43.6945 194.251V198.805H42.6017V189.732H43.6945V193.187ZM51.9762 195.55C51.9762 194.924 52.0982 194.361 52.3424 193.861C52.5905 193.361 52.9331 192.975 53.3702 192.703C53.8113 192.431 54.3134 192.295 54.8765 192.295C55.7468 192.295 56.4497 192.597 56.9853 193.199C57.5248 193.802 57.7946 194.603 57.7946 195.603V195.68C57.7946 196.302 57.6745 196.862 57.4342 197.358C57.198 197.85 56.8573 198.234 56.4123 198.51C55.9713 198.785 55.4633 198.923 54.8883 198.923C54.022 198.923 53.319 198.622 52.7795 198.019C52.2439 197.417 51.9762 196.619 51.9762 195.627V195.55ZM53.0749 195.68C53.0749 196.389 53.2383 196.958 53.5651 197.387C53.8959 197.816 54.337 198.031 54.8883 198.031C55.4436 198.031 55.8846 197.815 56.2115 197.381C56.5383 196.944 56.7018 196.334 56.7018 195.55C56.7018 194.849 56.5344 194.282 56.1997 193.849C55.8689 193.412 55.4278 193.193 54.8765 193.193C54.337 193.193 53.9018 193.408 53.571 193.837C53.2403 194.266 53.0749 194.881 53.0749 195.68ZM60.1987 192.414L60.2342 193.217C60.7225 192.603 61.3604 192.295 62.148 192.295C63.4988 192.295 64.18 193.057 64.1919 194.581V198.805H63.0991V194.576C63.0951 194.115 62.9888 193.774 62.7801 193.554C62.5753 193.333 62.2544 193.223 61.8172 193.223C61.4628 193.223 61.1517 193.317 60.8839 193.506C60.6161 193.695 60.4074 193.943 60.2578 194.251V198.805H59.165V192.414H60.1987Z" fill="white"/>
</svg>
