<svg width="25" height="25" viewBox="0 0 25 25" fill="none" xmlns="http://www.w3.org/2000/svg">
<path fill-rule="evenodd" clip-rule="evenodd" d="M0.572632 12.2341C0.572632 5.54206 5.99763 0.117065 12.6897 0.117065C19.3818 0.117065 24.8068 5.54206 24.8068 12.2341C24.8068 18.9262 19.3818 24.3512 12.6897 24.3512C5.99763 24.3512 0.572632 18.9262 0.572632 12.2341Z" fill="white"/>
<path fill-rule="evenodd" clip-rule="evenodd" d="M18.882 9.24188C18.7334 8.67086 18.2954 8.22121 17.7393 8.0686C16.7314 7.79126 12.6897 7.79126 12.6897 7.79126C12.6897 7.79126 8.64796 7.79126 7.64004 8.0686C7.0839 8.22121 6.64593 8.67086 6.49729 9.24188C6.22726 10.2768 6.22726 12.4361 6.22726 12.4361C6.22726 12.4361 6.22726 14.5954 6.49729 15.6304C6.64593 16.2014 7.0839 16.6511 7.64004 16.8037C8.64796 17.081 12.6897 17.081 12.6897 17.081C12.6897 17.081 16.7314 17.081 17.7393 16.8037C18.2954 16.6511 18.7334 16.2014 18.882 15.6304C19.1521 14.5954 19.1521 12.4361 19.1521 12.4361C19.1521 12.4361 19.1521 10.2768 18.882 9.24188Z" fill="#0D2BD3"/>
<path fill-rule="evenodd" clip-rule="evenodd" d="M11.478 14.6576V10.6185L14.7092 12.6381L11.478 14.6576Z" fill="white"/>
</svg>
